<?xml version="1.0" encoding="utf-8"?>
<!-- Generator: Adobe Illustrator 14.0.0, SVG Export Plug-In . SVG Version: 6.00 Build 43363)  -->
<!DOCTYPE svg PUBLIC "-//W3C//DTD SVG 1.1//EN" "http://www.w3.org/Graphics/SVG/1.1/DTD/svg11.dtd">
<svg version="1.1" id="_x30_" xmlns="http://www.w3.org/2000/svg" xmlns:xlink="http://www.w3.org/1999/xlink" x="0px" y="0px"
	 width="595.28px" height="841.89px" viewBox="0 0 595.28 841.89" enable-background="new 0 0 595.28 841.89" xml:space="preserve">
<g id="SPLINE">
	<polyline fill="none" stroke="#000000" stroke-width="2" stroke-linecap="round" stroke-linejoin="round" points="304.8,544.535 
		299.605,545.157 293.417,546.98 286.647,549.866 279.776,553.562 273.16,557.687 266.899,561.719 260.854,565.057 254.784,567.106 
		248.486,567.377 241.928,565.576 235.305,561.631 228.975,555.668 223.384,547.955 218.991,538.855 216.189,528.779 
		215.236,518.15 216.199,507.362 218.892,496.762 222.817,486.613 227.106,477.066 230.578,468.132 232.344,459.695 
		232.112,451.556 230.038,443.492 226.575,435.299 222.317,426.851 217.873,418.125 213.801,409.188 210.582,400.165 208.583,391.2 
		208.025,382.429 208.947,373.941 211.21,365.769 214.525,357.9 218.494,350.297 222.66,342.916 226.543,335.73 229.696,328.729 
		231.741,321.909 232.438,315.24 231.737,308.646 229.816,301.979 227.075,295.044 224.053,287.658 221.35,279.716 219.542,271.253 
		219.109,262.496 220.393,253.831 223.582,245.73 228.678,238.686 235.492,233.125 243.622,229.354 252.518,227.509 
		261.581,227.552 270.272,229.253 278.22,232.18 285.321,235.695 291.729,239.027 297.73,241.414 303.603,242.283 	"/>
</g>
<g id="SPLINE_1_">
	<polyline fill="none" stroke="#000000" stroke-width="2" stroke-linecap="round" stroke-linejoin="round" points="304.8,544.535 
		310,545.116 316.203,546.889 322.995,549.722 329.896,553.364 336.544,557.436 342.837,561.417 348.908,564.708 354.994,566.708 
		361.294,566.931 367.837,565.076 374.429,561.08 380.712,555.066 386.242,547.309 390.562,538.175 393.285,528.078 394.154,517.44 
		393.105,506.661 390.328,496.083 386.322,485.965 381.957,476.453 378.416,467.546 376.582,459.125 376.75,450.984 
		378.761,442.903 382.158,434.683 386.349,426.201 390.724,417.439 394.724,408.471 397.871,399.422 399.798,390.442 
		400.289,381.667 399.298,373.187 396.97,365.033 393.593,357.19 389.564,349.618 385.341,342.271 381.398,335.116 378.191,328.141 
		376.093,321.336 375.343,314.673 375.992,308.074 377.859,301.392 380.544,294.435 383.507,287.025 386.148,279.062 
		387.89,270.586 388.253,261.826 386.9,253.171 383.648,245.096 378.496,238.091 371.638,232.586 363.478,228.879 354.568,227.105 
		345.506,227.22 336.83,228.989 328.904,231.979 321.832,235.552 315.451,238.933 309.468,241.367 303.603,242.283 	"/>
</g>
<g id="CIRCLE">
	<path fill="none" stroke="#000000" stroke-width="2" stroke-linecap="round" stroke-linejoin="round" d="M257.341,293.969
		c0,5.868,4.757,10.625,10.625,10.625s10.624-4.757,10.624-10.625s-4.756-10.624-10.624-10.624S257.341,288.102,257.341,293.969
		L257.341,293.969L257.341,293.969z"/>
</g>
<g id="ELLIPSE">
	<path fill="none" stroke="#000000" stroke-width="2" stroke-linecap="round" stroke-linejoin="round" d="M329.925,326.624
		c-0.041-10.465-11.71-18.902-26.063-18.846c-14.354,0.057-25.956,8.586-25.914,19.052c0.041,10.465,11.71,18.902,26.063,18.846
		C318.365,345.618,329.966,337.088,329.925,326.624L329.925,326.624"/>
</g>
<g id="CIRCLE_1_">
	<path fill="none" stroke="#000000" stroke-width="2" stroke-linecap="round" stroke-linejoin="round" d="M329.023,293.685
		c0,5.868,4.758,10.625,10.625,10.625s10.625-4.757,10.625-10.625s-4.758-10.624-10.625-10.624S329.023,287.817,329.023,293.685
		L329.023,293.685L329.023,293.685z"/>
</g>
<g id="ELLIPSE_1_">
	<path fill="none" stroke="#000000" stroke-width="2" stroke-linecap="round" stroke-linejoin="round" d="M248.547,417.582
		c12.605,0,22.823-13.411,22.823-29.954c0-16.544-10.218-29.956-22.823-29.956c-12.604,0-22.823,13.411-22.823,29.956
		C225.724,404.171,235.943,417.582,248.547,417.582L248.547,417.582"/>
</g>
<g id="ELLIPSE_2_">
	<path fill="none" stroke="#000000" stroke-width="2" stroke-linecap="round" stroke-linejoin="round" d="M360.045,417.141
		c12.604-0.1,22.716-13.592,22.585-30.135c-0.131-16.543-10.455-29.873-23.061-29.773c-12.604,0.099-22.715,13.592-22.584,30.134
		C337.117,403.911,347.441,417.24,360.045,417.141L360.045,417.141"/>
</g>
<g id="ELLIPSE_3_">
	<path fill="none" stroke="#000000" stroke-width="2" stroke-linecap="round" stroke-linejoin="round" d="M253.449,550.24
		c12.604,0,22.823-13.411,22.823-29.955c0-16.543-10.218-29.955-22.823-29.955s-22.823,13.412-22.823,29.955
		C230.626,536.829,240.845,550.24,253.449,550.24L253.449,550.24"/>
</g>
<g id="ELLIPSE_4_">
	<path fill="none" stroke="#000000" stroke-width="2" stroke-linecap="round" stroke-linejoin="round" d="M356.195,549.833
		c12.605-0.1,22.717-13.591,22.586-30.135c-0.131-16.543-10.456-29.873-23.061-29.772c-12.604,0.1-22.716,13.592-22.584,30.135
		C333.267,536.603,343.591,549.933,356.195,549.833L356.195,549.833"/>
</g>
</svg>
