solid rambo_base_lower_mount.stl
  facet normal 0.70622 -0.70622 0.0500615
    outer loop
    vertex 10.7 -9.8 3.5
    vertex 10.6858 -9.8 3.7
    vertex 7 -13.5 3.5
    endloop
  endfacet
  facet normal 0 1 0
    outer loop
    vertex 10.7 -9.8 3.5
    vertex 0.0999999 -9.8 3.5
    vertex 10.6858 -9.8 3.7
    endloop
  endfacet
  facet normal 0.707107 -0.707107 0
    outer loop
    vertex 7 -13.5 3.5
    vertex 7 -13.5 2.7
    vertex 10.7 -9.8 3.5
    endloop
  endfacet
  facet normal 0 -0 1
    outer loop
    vertex 0.0999999 -9.8 3.5
    vertex 10.7 -9.8 3.5
    vertex 11.375 5.08446 3.5
    endloop
  endfacet
  facet normal 0.707107 -0.707107 8.72926e-007
    outer loop
    vertex 10.7 -9.8 3.5
    vertex 7 -13.5 2.7
    vertex 20 -0.5 2.7
    endloop
  endfacet
  facet normal 0.707107 -0.707107 0
    outer loop
    vertex 10.7 -9.8 3.5
    vertex 20 -0.5 2.7
    vertex 20 -0.5 3.5
    endloop
  endfacet
  facet normal 0 0 1
    outer loop
    vertex 14 3.56891 3.5
    vertex 10.7 -9.8 3.5
    vertex 20 -0.5 3.5
    endloop
  endfacet
  facet normal 0 0 1
    outer loop
    vertex 11.375 5.08446 3.5
    vertex 10.7 -9.8 3.5
    vertex 14 3.56891 3.5
    endloop
  endfacet
  facet normal 0.704152 -0.705697 0.0784962
    outer loop
    vertex 7 -13.5 3.5
    vertex 10.6858 -9.8 3.7
    vertex 6.9898 -13.4754 3.81287
    endloop
  endfacet
  facet normal 0.700526 -0.700236 0.137597
    outer loop
    vertex 6.9898 -13.4754 3.81287
    vertex 10.6858 -9.8 3.7
    vertex 10.8071 -9.64898 3.85102
    endloop
  endfacet
  facet normal 0 0.707107 -0.707107
    outer loop
    vertex 0.0999999 -9.8 3.7
    vertex 10.8071 -9.64898 3.85102
    vertex 10.6858 -9.8 3.7
    endloop
  endfacet
  facet normal 0 1 0
    outer loop
    vertex 10.6858 -9.8 3.7
    vertex 0.0999999 -9.8 3.5
    vertex 0.0999999 -9.8 3.7
    endloop
  endfacet
  facet normal 0 -0.996917 0.0784609
    outer loop
    vertex 6.9898 -13.4754 3.81287
    vertex 0.0999999 -13.5 3.5
    vertex 7 -13.5 3.5
    endloop
  endfacet
  facet normal 0 -1 0
    outer loop
    vertex 7 -13.5 3.5
    vertex 0.0999999 -13.5 3.5
    vertex 7 -13.5 2.7
    endloop
  endfacet
  facet normal 0.69059 -0.691078 0.213301
    outer loop
    vertex 6.9898 -13.4754 3.81287
    vertex 10.8071 -9.64898 3.85102
    vertex 10.9102 -9.5 4
    endloop
  endfacet
  facet normal 0.686807 -0.688299 0.23354
    outer loop
    vertex 6.9898 -13.4754 3.81287
    vertex 10.9102 -9.5 4
    vertex 6.95945 -13.4021 4.11803
    endloop
  endfacet
  facet normal 0.000353684 -0.972364 0.233471
    outer loop
    vertex 6.95945 -13.4021 4.11803
    vertex 0.0999999 -13.4696 3.8473
    vertex 6.9898 -13.4754 3.81287
    endloop
  endfacet
  facet normal -0.000397366 -0.996195 0.0871545
    outer loop
    vertex 6.9898 -13.4754 3.81287
    vertex 0.0999999 -13.4696 3.8473
    vertex 0.0999999 -13.5 3.5
    endloop
  endfacet
  facet normal 0 0.707106 -0.707107
    outer loop
    vertex 10.9102 -9.5 4
    vertex 10.8071 -9.64898 3.85102
    vertex 0.0999999 -9.5 4
    endloop
  endfacet
  facet normal 7.92622e-009 0.707106 -0.707107
    outer loop
    vertex 0.0999999 -9.5 4
    vertex 10.8071 -9.64898 3.85102
    vertex 0.0999999 -9.8 3.7
    endloop
  endfacet
  facet normal 0.676943 -0.676613 0.289729
    outer loop
    vertex 6.95945 -13.4021 4.11803
    vertex 10.9102 -9.5 4
    vertex 10.8427 -9.5 4.15766
    endloop
  endfacet
  facet normal 0 1 0
    outer loop
    vertex 0.0999999 -9.5 4
    vertex 10.8427 -9.5 4.15766
    vertex 10.9102 -9.5 4
    endloop
  endfacet
  facet normal 0.657406 -0.657958 0.3673
    outer loop
    vertex 6.95945 -13.4021 4.11803
    vertex 10.8427 -9.5 4.15766
    vertex 10.7571 -9.5 4.31085
    endloop
  endfacet
  facet normal 0.652511 -0.653962 0.382835
    outer loop
    vertex 6.95945 -13.4021 4.11803
    vertex 10.7571 -9.5 4.31085
    vertex 6.90971 -13.282 4.40798
    endloop
  endfacet
  facet normal 0.000622044 -0.923841 0.382777
    outer loop
    vertex 6.90971 -13.282 4.40798
    vertex 0.0999999 -13.3794 4.18404
    vertex 6.95945 -13.4021 4.11803
    endloop
  endfacet
  facet normal -0.000710199 -0.965925 0.258821
    outer loop
    vertex 6.95945 -13.4021 4.11803
    vertex 0.0999999 -13.3794 4.18404
    vertex 0.0999999 -13.4696 3.8473
    endloop
  endfacet
  facet normal 0 1 0
    outer loop
    vertex 10.7571 -9.5 4.31085
    vertex 10.8427 -9.5 4.15766
    vertex 0.0999999 -9.5 4
    endloop
  endfacet
  facet normal 0.634196 -0.633789 0.44284
    outer loop
    vertex 6.90971 -13.282 4.40798
    vertex 10.7571 -9.5 4.31085
    vertex 10.654 -9.5 4.45855
    endloop
  endfacet
  facet normal 0 1 0
    outer loop
    vertex 0.0999999 -9.5 4
    vertex 10.654 -9.5 4.45855
    vertex 10.7571 -9.5 4.31085
    endloop
  endfacet
  facet normal 0.605812 -0.60665 0.514751
    outer loop
    vertex 6.90971 -13.282 4.40798
    vertex 10.654 -9.5 4.45855
    vertex 10.534 -9.5 4.59974
    endloop
  endfacet
  facet normal 0.602133 -0.603526 0.522678
    outer loop
    vertex 6.90971 -13.282 4.40798
    vertex 10.534 -9.5 4.59974
    vertex 6.84178 -13.118 4.67557
    endloop
  endfacet
  facet normal 0.000807263 -0.852551 0.522644
    outer loop
    vertex 6.84178 -13.118 4.67557
    vertex 0.0999999 -13.2321 4.5
    vertex 6.90971 -13.282 4.40798
    endloop
  endfacet
  facet normal -0.000938811 -0.906308 0.422617
    outer loop
    vertex 6.90971 -13.282 4.40798
    vertex 0.0999999 -13.2321 4.5
    vertex 0.0999999 -13.3794 4.18404
    endloop
  endfacet
  facet normal 0 1 0
    outer loop
    vertex 0.0999999 -9.5 4
    vertex 10.534 -9.5 4.59974
    vertex 10.654 -9.5 4.45855
    endloop
  endfacet
  facet normal 0.574251 -0.573788 0.583954
    outer loop
    vertex 6.84178 -13.118 4.67557
    vertex 10.534 -9.5 4.59974
    vertex 10.398 -9.5 4.73348
    endloop
  endfacet
  facet normal 0 1 0
    outer loop
    vertex 10.398 -9.5 4.73348
    vertex 10.534 -9.5 4.59974
    vertex 0.0999999 -9.5 4
    endloop
  endfacet
  facet normal 0.537839 -0.539026 0.648213
    outer loop
    vertex 6.84178 -13.118 4.67557
    vertex 10.398 -9.5 4.73348
    vertex 10.2469 -9.5 4.85884
    endloop
  endfacet
  facet normal 0.536915 -0.538229 0.64964
    outer loop
    vertex 6.84178 -13.118 4.67557
    vertex 10.2469 -9.5 4.85884
    vertex 6.75736 -12.9142 4.91421
    endloop
  endfacet
  facet normal 0.00090835 -0.760244 0.649637
    outer loop
    vertex 6.75736 -12.9142 4.91421
    vertex 0.0999999 -13.0321 4.78558
    vertex 6.84178 -13.118 4.67557
    endloop
  endfacet
  facet normal -0.00108379 -0.819155 0.573572
    outer loop
    vertex 6.84178 -13.118 4.67557
    vertex 0.0999999 -13.0321 4.78558
    vertex 0.0999999 -13.2321 4.5
    endloop
  endfacet
  facet normal 0 1 0
    outer loop
    vertex 0.0999999 -9.5 4
    vertex 10.2469 -9.5 4.85884
    vertex 10.398 -9.5 4.73348
    endloop
  endfacet
  facet normal 0.498738 -0.498243 0.709235
    outer loop
    vertex 6.75736 -12.9142 4.91421
    vertex 10.2469 -9.5 4.85884
    vertex 10.0818 -9.5 4.97499
    endloop
  endfacet
  facet normal 0 1 0
    outer loop
    vertex 0.0999999 -9.5 4
    vertex 10.0818 -9.5 4.97499
    vertex 10.2469 -9.5 4.85884
    endloop
  endfacet
  facet normal 0.458309 -0.459793 0.760621
    outer loop
    vertex 6.75736 -12.9142 4.91421
    vertex 10.0818 -9.5 4.97499
    vertex 6.65851 -12.6756 5.11803
    endloop
  endfacet
  facet normal 0.000922288 -0.649226 0.760595
    outer loop
    vertex 6.65851 -12.6756 5.11803
    vertex 0.0999999 -12.7856 5.03209
    vertex 6.75736 -12.9142 4.91421
    endloop
  endfacet
  facet normal -0.0011431 -0.707104 0.707109
    outer loop
    vertex 6.75736 -12.9142 4.91421
    vertex 0.0999999 -12.7856 5.03209
    vertex 0.0999999 -13.0321 4.78558
    endloop
  endfacet
  facet normal 0.455436 -0.456529 0.764303
    outer loop
    vertex 6.65851 -12.6756 5.11803
    vertex 10.0818 -9.5 4.97499
    vertex 9.90362 -9.5 5.08114
    endloop
  endfacet
  facet normal 0 1 0
    outer loop
    vertex 0.0999999 -9.5 5.5
    vertex 9.90362 -9.5 5.08114
    vertex 10.0818 -9.5 4.97499
    endloop
  endfacet
  facet normal 0 1 0
    outer loop
    vertex 0.0999999 -9.5 5.5
    vertex 10.0818 -9.5 4.97499
    vertex 0.0999999 -9.5 4
    endloop
  endfacet
  facet normal 0.409711 -0.409211 0.815281
    outer loop
    vertex 6.65851 -12.6756 5.11803
    vertex 9.90362 -9.5 5.08114
    vertex 9.71375 -9.5 5.17656
    endloop
  endfacet
  facet normal 0.368316 -0.370077 0.85287
    outer loop
    vertex 6.65851 -12.6756 5.11803
    vertex 9.71375 -9.5 5.17656
    vertex 6.54767 -12.408 5.28201
    endloop
  endfacet
  facet normal 0.000845183 -0.522244 0.852796
    outer loop
    vertex 6.54767 -12.408 5.28201
    vertex 0.0999999 -12.5 5.23205
    vertex 6.65851 -12.6756 5.11803
    endloop
  endfacet
  facet normal -0.00111389 -0.573577 0.819151
    outer loop
    vertex 6.65851 -12.6756 5.11803
    vertex 0.0999999 -12.5 5.23205
    vertex 0.0999999 -12.7856 5.03209
    endloop
  endfacet
  facet normal 0 1 0
    outer loop
    vertex 0.0999999 -9.5 5.5
    vertex 9.71375 -9.5 5.17656
    vertex 9.90362 -9.5 5.08114
    endloop
  endfacet
  facet normal 0.360699 -0.361534 0.859761
    outer loop
    vertex 6.54767 -12.408 5.28201
    vertex 9.71375 -9.5 5.17656
    vertex 9.51341 -9.5 5.26061
    endloop
  endfacet
  facet normal 0 1 0
    outer loop
    vertex 8.17157 -9.5 5.5
    vertex 9.51341 -9.5 5.26061
    vertex 9.71375 -9.5 5.17656
    endloop
  endfacet
  facet normal 0 1 0
    outer loop
    vertex 8.17157 -9.5 5.5
    vertex 9.71375 -9.5 5.17656
    vertex 0.0999999 -9.5 5.5
    endloop
  endfacet
  facet normal 0.283187 -0.282065 0.916648
    outer loop
    vertex 6.54767 -12.408 5.28201
    vertex 9.51341 -9.5 5.26061
    vertex 9.08684 -9.5 5.39239
    endloop
  endfacet
  facet normal 0.270043 -0.270865 0.923964
    outer loop
    vertex 6.54767 -12.408 5.28201
    vertex 9.08684 -9.5 5.39239
    vertex 6.42757 -12.118 5.40211
    endloop
  endfacet
  facet normal 0.000670669 -0.382448 0.923977
    outer loop
    vertex 6.42757 -12.118 5.40211
    vertex 0.0999999 -12.184 5.37939
    vertex 6.54767 -12.408 5.28201
    endloop
  endfacet
  facet normal -0.000991327 -0.422617 0.906308
    outer loop
    vertex 6.54767 -12.408 5.28201
    vertex 0.0999999 -12.184 5.37939
    vertex 0.0999999 -12.5 5.23205
    endloop
  endfacet
  facet normal 0 1 0
    outer loop
    vertex 8.17157 -9.5 5.5
    vertex 9.08684 -9.5 5.39239
    vertex 9.51341 -9.5 5.26061
    endloop
  endfacet
  facet normal 0.173013 -0.172137 0.96976
    outer loop
    vertex 6.42757 -12.118 5.40211
    vertex 9.08684 -9.5 5.39239
    vertex 8.63549 -9.5 5.47291
    endloop
  endfacet
  facet normal 0 1 0
    outer loop
    vertex 8.63549 -9.5 5.47291
    vertex 9.08684 -9.5 5.39239
    vertex 8.17157 -9.5 5.5
    endloop
  endfacet
  facet normal 0.164729 -0.165221 0.972402
    outer loop
    vertex 6.42757 -12.118 5.40211
    vertex 8.63549 -9.5 5.47291
    vertex 6.30117 -11.8129 5.47538
    endloop
  endfacet
  facet normal 0.000391712 -0.233293 0.972407
    outer loop
    vertex 6.30117 -11.8129 5.47538
    vertex 0.0999999 -11.8473 5.46962
    vertex 6.42757 -12.118 5.40211
    endloop
  endfacet
  facet normal -0.000769617 -0.258819 0.965926
    outer loop
    vertex 6.42757 -12.118 5.40211
    vertex 0.0999999 -11.8473 5.46962
    vertex 0.0999999 -12.184 5.37939
    endloop
  endfacet
  facet normal 0.0581874 -0.0576661 0.996639
    outer loop
    vertex 6.30117 -11.8129 5.47538
    vertex 8.63549 -9.5 5.47291
    vertex 8.17157 -9.5 5.5
    endloop
  endfacet
  facet normal 0.0554782 -0.0554781 0.996917
    outer loop
    vertex 6.30117 -11.8129 5.47538
    vertex 8.17157 -9.5 5.5
    vertex 6.17157 -11.5 5.5
    endloop
  endfacet
  facet normal 0 -0.078458 0.996917
    outer loop
    vertex 6.17157 -11.5 5.5
    vertex 0.0999999 -11.5 5.5
    vertex 6.30117 -11.8129 5.47538
    endloop
  endfacet
  facet normal -0.000441711 -0.087156 0.996195
    outer loop
    vertex 6.30117 -11.8129 5.47538
    vertex 0.0999999 -11.5 5.5
    vertex 0.0999999 -11.8473 5.46962
    endloop
  endfacet
  facet normal -0 0 1
    outer loop
    vertex 8.17157 -9.5 5.5
    vertex 0.0999999 -9.5 5.5
    vertex 6.17157 -11.5 5.5
    endloop
  endfacet
  facet normal 0 0 1
    outer loop
    vertex 6.17157 -11.5 5.5
    vertex 0.0999999 -9.5 5.5
    vertex 0.0999999 -11.5 5.5
    endloop
  endfacet
  facet normal -1 0 0
    outer loop
    vertex 0.0999999 -11.5 5.5
    vertex 0.0999999 -12.184 5.37939
    vertex 0.0999999 -11.8473 5.46962
    endloop
  endfacet
  facet normal -1 0 -0
    outer loop
    vertex 0.0999999 -12.5 5.23205
    vertex 0.0999999 -12.184 5.37939
    vertex 0.0999999 -11.5 5.5
    endloop
  endfacet
  facet normal -1 0 0
    outer loop
    vertex 0.0999999 -9.5 4
    vertex 0.0999999 -12.5 5.23205
    vertex 0.0999999 -11.5 5.5
    endloop
  endfacet
  facet normal -1 0 0
    outer loop
    vertex 0.0999999 -9.5 4
    vertex 0.0999999 -11.5 5.5
    vertex 0.0999999 -9.5 5.5
    endloop
  endfacet
  facet normal -1 0 -0
    outer loop
    vertex 0.0999999 -12.7856 5.03209
    vertex 0.0999999 -12.5 5.23205
    vertex 0.0999999 -9.5 4
    endloop
  endfacet
  facet normal -1 0 0
    outer loop
    vertex 0.0999999 -9.5 4
    vertex 0.0999999 -13.0321 4.78558
    vertex 0.0999999 -12.7856 5.03209
    endloop
  endfacet
  facet normal -1 0 0
    outer loop
    vertex 0.0999999 -9.5 4
    vertex 0.0999999 -13.2321 4.5
    vertex 0.0999999 -13.0321 4.78558
    endloop
  endfacet
  facet normal -1 0 -0
    outer loop
    vertex 0.0999999 -13.3794 4.18404
    vertex 0.0999999 -13.2321 4.5
    vertex 0.0999999 -9.8 3.7
    endloop
  endfacet
  facet normal -1 0 0
    outer loop
    vertex 0.0999999 -9.8 3.7
    vertex 0.0999999 -13.2321 4.5
    vertex 0.0999999 -9.5 4
    endloop
  endfacet
  facet normal -1 0 0
    outer loop
    vertex 0.0999999 -9.8 3.7
    vertex 0.0999999 -13.4696 3.8473
    vertex 0.0999999 -13.3794 4.18404
    endloop
  endfacet
  facet normal -1 0 0
    outer loop
    vertex 0.0999999 -9.8 3.7
    vertex 0.0999999 -13.5 3.5
    vertex 0.0999999 -13.4696 3.8473
    endloop
  endfacet
  facet normal -1 0 0
    outer loop
    vertex 0.0999999 -9.8 3.5
    vertex 0.0999999 -13.5 3.5
    vertex 0.0999999 -9.8 3.7
    endloop
  endfacet
  facet normal 0 0 1
    outer loop
    vertex 0.0999999 -9.8 3.5
    vertex -5.5 -13.5 3.5
    vertex 0.0999999 -13.5 3.5
    endloop
  endfacet
  facet normal -0 -1 -0
    outer loop
    vertex 7 -13.5 2.7
    vertex 0.0999999 -13.5 3.5
    vertex -5.5 -13.5 3.5
    endloop
  endfacet
  facet normal 0 0 1
    outer loop
    vertex 0.0999999 -9.8 3.5
    vertex -5.5 13.4 3.5
    vertex -5.5 -13.5 3.5
    endloop
  endfacet
  facet normal 0 0 1
    outer loop
    vertex 11.375 5.08446 3.5
    vertex -5.5 13.4 3.5
    vertex 0.0999999 -9.8 3.5
    endloop
  endfacet
  facet normal 0.5 -0.5 -0.707107
    outer loop
    vertex 7 -13.5 2.7
    vertex 17.3 0.618376 -2.62458e-015
    vertex 20 -0.5 2.7
    endloop
  endfacet
  facet normal 0.5 -0.5 -0.707107
    outer loop
    vertex 5.88162 -10.8 -1.22623e-015
    vertex 17.3 0.618376 -2.62458e-015
    vertex 7 -13.5 2.7
    endloop
  endfacet
  facet normal -9.03067e-017 -0.707107 -0.707107
    outer loop
    vertex 5.88162 -10.8 -1.22623e-015
    vertex 7 -13.5 2.7
    vertex -17.3 -10.8 1.6127e-015
    endloop
  endfacet
  facet normal -0 -0.707107 -0.707107
    outer loop
    vertex -17.3 -10.8 1.6127e-015
    vertex 7 -13.5 2.7
    vertex -20 -13.5 2.7
    endloop
  endfacet
  facet normal 0 -1 -0
    outer loop
    vertex 7 -13.5 2.7
    vertex -5.5 -13.5 3.5
    vertex -20 -13.5 2.7
    endloop
  endfacet
  facet normal 1 0 0
    outer loop
    vertex 20 -0.5 2.7
    vertex 20 10.5 2.7
    vertex 20 -0.5 3.5
    endloop
  endfacet
  facet normal 0.707107 0 -0.707107
    outer loop
    vertex 17.3 0.618376 -2.62458e-015
    vertex 17.3 9.38162 -2.62458e-015
    vertex 20 -0.5 2.7
    endloop
  endfacet
  facet normal 0.707107 0 -0.707107
    outer loop
    vertex 20 -0.5 2.7
    vertex 17.3 9.38162 -2.62458e-015
    vertex 20 10.5 2.7
    endloop
  endfacet
  facet normal 1 0 -0
    outer loop
    vertex 20 -0.5 3.5
    vertex 20 10.5 2.7
    vertex 20 10.5 3.5
    endloop
  endfacet
  facet normal 0 -0 1
    outer loop
    vertex 16.625 5.08446 3.5
    vertex 20 -0.5 3.5
    vertex 20 10.5 3.5
    endloop
  endfacet
  facet normal 0 0 1
    outer loop
    vertex 14 3.56891 3.5
    vertex 20 -0.5 3.5
    vertex 16.625 5.08446 3.5
    endloop
  endfacet
  facet normal -0.5 0.5 -0.707107
    outer loop
    vertex -20 -1.1 2.7
    vertex -5.4 13.5 2.7
    vertex -17.3 -2.21838 1.6127e-015
    endloop
  endfacet
  facet normal -0.707107 0.707107 -1.87207e-006
    outer loop
    vertex -20 -1.1 2.7
    vertex -14.5 4.4 3.5
    vertex -5.4 13.5 2.7
    endloop
  endfacet
  facet normal -0.707107 0 -0.707107
    outer loop
    vertex -17.3 -2.21838 1.6127e-015
    vertex -17.3 -10.8 1.6127e-015
    vertex -20 -1.1 2.7
    endloop
  endfacet
  facet normal -0.707107 0 -0.707107
    outer loop
    vertex -20 -1.1 2.7
    vertex -17.3 -10.8 1.6127e-015
    vertex -20 -13.5 2.7
    endloop
  endfacet
  facet normal -1 0 0
    outer loop
    vertex -20 -1.1 2.7
    vertex -20 -13.5 2.7
    vertex -20 -1.1 3.5
    endloop
  endfacet
  facet normal -0.707107 0.707107 0
    outer loop
    vertex -20 -1.1 2.7
    vertex -20 -1.1 3.5
    vertex -14.5 4.4 3.5
    endloop
  endfacet
  facet normal -0.5 0.5 -0.707107
    outer loop
    vertex -17.3 -2.21838 1.6127e-015
    vertex -5.4 13.5 2.7
    vertex -4.28162 10.8 1.84071e-017
    endloop
  endfacet
  facet normal 0 0.707107 -0.707107
    outer loop
    vertex -5.4 13.5 2.7
    vertex 17 13.5 2.7
    vertex -4.28162 10.8 1.84071e-017
    endloop
  endfacet
  facet normal 0 1 0
    outer loop
    vertex 17 13.5 2.7
    vertex -5.4 13.5 2.7
    vertex 17 13.5 3.5
    endloop
  endfacet
  facet normal 0 1 0
    outer loop
    vertex 17 13.5 3.5
    vertex -5.4 13.5 2.7
    vertex -5.4 13.5 3.5
    endloop
  endfacet
  facet normal -0.7071 0.707114 0
    outer loop
    vertex -5.4 13.5 2.7
    vertex -5.5 13.4 3.5
    vertex -5.4 13.5 3.5
    endloop
  endfacet
  facet normal -0.707107 0.707107 -1.67651e-006
    outer loop
    vertex -5.4 13.5 2.7
    vertex -14.5 4.4 3.5
    vertex -5.5 13.4 3.5
    endloop
  endfacet
  facet normal -1.22465e-016 -2.19689e-023 -1
    outer loop
    vertex -4.28162 10.8 1.84071e-017
    vertex -10.5897 -2.41644 7.90921e-016
    vertex -17.3 -2.21838 1.6127e-015
    endloop
  endfacet
  facet normal -1.22465e-016 0 -1
    outer loop
    vertex -17.3 -2.21838 1.6127e-015
    vertex -12.5323 -5.7811 1.02882e-015
    vertex -17.3 -10.8 1.6127e-015
    endloop
  endfacet
  facet normal -1.22465e-016 3.60653e-021 -1
    outer loop
    vertex -17.3 -2.21838 1.6127e-015
    vertex -10.5897 -2.41644 7.90921e-016
    vertex -10.9682 -2.53319 8.37271e-016
    endloop
  endfacet
  facet normal -1.22465e-016 -1.60943e-021 -1
    outer loop
    vertex -17.3 -2.21838 1.6127e-015
    vertex -10.9682 -2.53319 8.37271e-016
    vertex -11.325 -2.70503 8.80972e-016
    endloop
  endfacet
  facet normal -1.22465e-016 3.63797e-022 -1
    outer loop
    vertex -11.325 -2.70503 8.80972e-016
    vertex -11.6522 -2.92815 9.21048e-016
    vertex -17.3 -2.21838 1.6127e-015
    endloop
  endfacet
  facet normal -1.22465e-016 -3.39006e-022 -1
    outer loop
    vertex -17.3 -2.21838 1.6127e-015
    vertex -11.6522 -2.92815 9.21048e-016
    vertex -11.9426 -3.19754 9.56605e-016
    endloop
  endfacet
  facet normal -1.22464e-016 1.09373e-021 -1
    outer loop
    vertex -17.3 -2.21838 1.6127e-015
    vertex -11.9426 -3.19754 9.56605e-016
    vertex -12.1895 -3.5072 9.86847e-016
    endloop
  endfacet
  facet normal -1.22465e-016 -1.19673e-021 -1
    outer loop
    vertex -12.1895 -3.5072 9.86847e-016
    vertex -12.3876 -3.85021 1.0111e-015
    vertex -17.3 -2.21838 1.6127e-015
    endloop
  endfacet
  facet normal -1.22465e-016 -3.75081e-023 -1
    outer loop
    vertex -17.3 -2.21838 1.6127e-015
    vertex -12.3876 -3.85021 1.0111e-015
    vertex -12.5323 -4.2189 1.02882e-015
    endloop
  endfacet
  facet normal -1.22464e-016 6.57462e-022 -1
    outer loop
    vertex -17.3 -2.21838 1.6127e-015
    vertex -12.5323 -4.2189 1.02882e-015
    vertex -12.6204 -4.60504 1.03961e-015
    endloop
  endfacet
  facet normal -1.22465e-016 -3.62249e-022 -1
    outer loop
    vertex -12.6204 -4.60504 1.03961e-015
    vertex -12.65 -5 1.04324e-015
    vertex -17.3 -2.21838 1.6127e-015
    endloop
  endfacet
  facet normal -1.22464e-016 3.96253e-022 -1
    outer loop
    vertex -17.3 -2.21838 1.6127e-015
    vertex -12.65 -5 1.04324e-015
    vertex -12.6204 -5.39496 1.03961e-015
    endloop
  endfacet
  facet normal -1.22465e-016 -8.68562e-022 -1
    outer loop
    vertex -17.3 -2.21838 1.6127e-015
    vertex -12.6204 -5.39496 1.03961e-015
    vertex -12.5323 -5.7811 1.02882e-015
    endloop
  endfacet
  facet normal -9.22892e-017 0.707107 -0.707107
    outer loop
    vertex -4.28162 10.8 1.84071e-017
    vertex 17 13.5 2.7
    vertex 15.8816 10.8 -2.45088e-015
    endloop
  endfacet
  facet normal -1.22465e-016 7.34305e-023 -1
    outer loop
    vertex 15.8816 10.8 -2.45088e-015
    vertex 17.3 9.38162 -2.62458e-015
    vertex -4.28162 10.8 1.84071e-017
    endloop
  endfacet
  facet normal -1.22465e-016 -0 -1
    outer loop
    vertex -4.28162 10.8 1.84071e-017
    vertex 17.3 9.38162 -2.62458e-015
    vertex 17.3 0.618376 -2.62458e-015
    endloop
  endfacet
  facet normal -1.22465e-016 -2.86506e-024 -1
    outer loop
    vertex 17.3 0.618376 -2.62458e-015
    vertex -8.34775 -2.92815 5.16364e-016
    vertex -4.28162 10.8 1.84071e-017
    endloop
  endfacet
  facet normal -1.22465e-016 -1.75701e-024 -1
    outer loop
    vertex -4.28162 10.8 1.84071e-017
    vertex -8.34775 -2.92815 5.16364e-016
    vertex -8.675 -2.70503 5.5644e-016
    endloop
  endfacet
  facet normal -1.22465e-016 -1.86915e-023 -1
    outer loop
    vertex -4.28162 10.8 1.84071e-017
    vertex -8.675 -2.70503 5.5644e-016
    vertex -9.03185 -2.53319 6.00142e-016
    endloop
  endfacet
  facet normal -1.22465e-016 1.27976e-022 -1
    outer loop
    vertex -9.03185 -2.53319 6.00142e-016
    vertex -9.41032 -2.41644 6.46491e-016
    vertex -4.28162 10.8 1.84071e-017
    endloop
  endfacet
  facet normal -1.22465e-016 -3.00727e-023 -1
    outer loop
    vertex -4.28162 10.8 1.84071e-017
    vertex -9.41032 -2.41644 6.46491e-016
    vertex -9.80197 -2.35741 6.94454e-016
    endloop
  endfacet
  facet normal -1.22464e-016 -1.44978e-022 -1
    outer loop
    vertex -4.28162 10.8 1.84071e-017
    vertex -9.80197 -2.35741 6.94454e-016
    vertex -10.198 -2.35741 7.42958e-016
    endloop
  endfacet
  facet normal -1.22465e-016 3.00404e-022 -1
    outer loop
    vertex -10.198 -2.35741 7.42958e-016
    vertex -10.5897 -2.41644 7.90921e-016
    vertex -4.28162 10.8 1.84071e-017
    endloop
  endfacet
  facet normal 0.5 0.5 -0.707107
    outer loop
    vertex 17 13.5 2.7
    vertex 20 10.5 2.7
    vertex 15.8816 10.8 -2.45088e-015
    endloop
  endfacet
  facet normal 0.707107 0.707107 0
    outer loop
    vertex 17 13.5 2.7
    vertex 17 13.5 3.5
    vertex 20 10.5 2.7
    endloop
  endfacet
  facet normal 0.5 0.5 -0.707107
    outer loop
    vertex 15.8816 10.8 -2.45088e-015
    vertex 20 10.5 2.7
    vertex 17.3 9.38162 -2.62458e-015
    endloop
  endfacet
  facet normal -1.22465e-016 -7.44798e-024 -1
    outer loop
    vertex 5.88162 -10.8 -1.22623e-015
    vertex -7.46773 -4.2189 4.08593e-016
    vertex 17.3 0.618376 -2.62458e-015
    endloop
  endfacet
  facet normal -1.22465e-016 -9.83471e-023 -1
    outer loop
    vertex 17.3 0.618376 -2.62458e-015
    vertex -7.46773 -4.2189 4.08593e-016
    vertex -7.61243 -3.85021 4.26314e-016
    endloop
  endfacet
  facet normal -1.22465e-016 -4.77801e-022 -1
    outer loop
    vertex 17.3 0.618376 -2.62458e-015
    vertex -7.61243 -3.85021 4.26314e-016
    vertex -7.81047 -3.5072 4.50566e-016
    endloop
  endfacet
  facet normal -1.22465e-016 1.44138e-022 -1
    outer loop
    vertex -7.81047 -3.5072 4.50566e-016
    vertex -8.05741 -3.19754 4.80808e-016
    vertex 17.3 0.618376 -2.62458e-015
    endloop
  endfacet
  facet normal -1.22465e-016 -1.03293e-023 -1
    outer loop
    vertex 17.3 0.618376 -2.62458e-015
    vertex -8.05741 -3.19754 4.80808e-016
    vertex -8.34775 -2.92815 5.16364e-016
    endloop
  endfacet
  facet normal 0.707107 0.707107 0
    outer loop
    vertex 20 10.5 2.7
    vertex 17 13.5 3.5
    vertex 20 10.5 3.5
    endloop
  endfacet
  facet normal -1.22465e-016 -1.6951e-023 -1
    outer loop
    vertex -17.3 -10.8 1.6127e-015
    vertex -9.41032 -7.58356 6.46491e-016
    vertex 5.88162 -10.8 -1.22623e-015
    endloop
  endfacet
  facet normal -1.22465e-016 2.03851e-022 -1
    outer loop
    vertex -7.3796 -5.39496 3.97799e-016
    vertex -7.35 -5 3.94175e-016
    vertex 5.88162 -10.8 -1.22623e-015
    endloop
  endfacet
  facet normal -1.22465e-016 -6.49083e-022 -1
    outer loop
    vertex 5.88162 -10.8 -1.22623e-015
    vertex -7.46773 -5.7811 4.08593e-016
    vertex -7.3796 -5.39496 3.97799e-016
    endloop
  endfacet
  facet normal -1.22465e-016 -2.17698e-022 -1
    outer loop
    vertex 5.88162 -10.8 -1.22623e-015
    vertex -7.35 -5 3.94175e-016
    vertex -7.3796 -4.60504 3.97799e-016
    endloop
  endfacet
  facet normal -1.22464e-016 7.94141e-022 -1
    outer loop
    vertex 5.88162 -10.8 -1.22623e-015
    vertex -7.3796 -4.60504 3.97799e-016
    vertex -7.46773 -4.2189 4.08593e-016
    endloop
  endfacet
  facet normal -1.22465e-016 -7.77589e-022 -1
    outer loop
    vertex 5.88162 -10.8 -1.22623e-015
    vertex -9.41032 -7.58356 6.46491e-016
    vertex -9.03185 -7.46682 6.00142e-016
    endloop
  endfacet
  facet normal -1.22465e-016 6.59547e-023 -1
    outer loop
    vertex 5.88162 -10.8 -1.22623e-015
    vertex -9.03185 -7.46682 6.00142e-016
    vertex -8.675 -7.29497 5.5644e-016
    endloop
  endfacet
  facet normal -1.22465e-016 -1.32414e-023 -1
    outer loop
    vertex -8.675 -7.29497 5.5644e-016
    vertex -8.34775 -7.07185 5.16364e-016
    vertex 5.88162 -10.8 -1.22623e-015
    endloop
  endfacet
  facet normal -1.22465e-016 5.56609e-025 -1
    outer loop
    vertex 5.88162 -10.8 -1.22623e-015
    vertex -8.34775 -7.07185 5.16364e-016
    vertex -8.05741 -6.80246 4.80808e-016
    endloop
  endfacet
  facet normal -1.22465e-016 -1.38177e-022 -1
    outer loop
    vertex 5.88162 -10.8 -1.22623e-015
    vertex -8.05741 -6.80246 4.80808e-016
    vertex -7.81047 -6.4928 4.50566e-016
    endloop
  endfacet
  facet normal -1.22465e-016 4.36703e-022 -1
    outer loop
    vertex -7.81047 -6.4928 4.50566e-016
    vertex -7.61243 -6.14979 4.26314e-016
    vertex 5.88162 -10.8 -1.22623e-015
    endloop
  endfacet
  facet normal -1.22465e-016 9.05175e-023 -1
    outer loop
    vertex 5.88162 -10.8 -1.22623e-015
    vertex -7.61243 -6.14979 4.26314e-016
    vertex -7.46773 -5.7811 4.08593e-016
    endloop
  endfacet
  facet normal -1.22465e-016 3.09133e-023 -1
    outer loop
    vertex -17.3 -10.8 1.6127e-015
    vertex -12.5323 -5.7811 1.02882e-015
    vertex -12.3876 -6.14979 1.0111e-015
    endloop
  endfacet
  facet normal -1.22466e-016 9.22224e-022 -1
    outer loop
    vertex -17.3 -10.8 1.6127e-015
    vertex -12.3876 -6.14979 1.0111e-015
    vertex -12.1895 -6.4928 9.86847e-016
    endloop
  endfacet
  facet normal -1.22464e-016 -7.85638e-022 -1
    outer loop
    vertex -12.1895 -6.4928 9.86847e-016
    vertex -11.9426 -6.80246 9.56605e-016
    vertex -17.3 -10.8 1.6127e-015
    endloop
  endfacet
  facet normal -1.22465e-016 2.24913e-022 -1
    outer loop
    vertex -17.3 -10.8 1.6127e-015
    vertex -11.9426 -6.80246 9.56605e-016
    vertex -11.6522 -7.07185 9.21048e-016
    endloop
  endfacet
  facet normal -1.22465e-016 -2.18908e-022 -1
    outer loop
    vertex -17.3 -10.8 1.6127e-015
    vertex -11.6522 -7.07185 9.21048e-016
    vertex -11.325 -7.29497 8.80972e-016
    endloop
  endfacet
  facet normal -1.22465e-016 8.48301e-022 -1
    outer loop
    vertex -11.325 -7.29497 8.80972e-016
    vertex -10.9682 -7.46682 8.37271e-016
    vertex -17.3 -10.8 1.6127e-015
    endloop
  endfacet
  facet normal -1.22464e-016 -1.54726e-021 -1
    outer loop
    vertex -17.3 -10.8 1.6127e-015
    vertex -10.9682 -7.46682 8.37271e-016
    vertex -10.5897 -7.58356 7.90921e-016
    endloop
  endfacet
  facet normal -1.22465e-016 1.00118e-021 -1
    outer loop
    vertex -17.3 -10.8 1.6127e-015
    vertex -10.5897 -7.58356 7.90921e-016
    vertex -10.198 -7.64259 7.42958e-016
    endloop
  endfacet
  facet normal -1.22464e-016 -7.85431e-022 -1
    outer loop
    vertex -10.198 -7.64259 7.42958e-016
    vertex -9.80197 -7.64259 6.94454e-016
    vertex -17.3 -10.8 1.6127e-015
    endloop
  endfacet
  facet normal -1.22465e-016 -2.2712e-022 -1
    outer loop
    vertex -17.3 -10.8 1.6127e-015
    vertex -9.80197 -7.64259 6.94454e-016
    vertex -9.41032 -7.58356 6.46491e-016
    endloop
  endfacet
  facet normal -1 0 0
    outer loop
    vertex -20 -1.1 3.5
    vertex -20 -13.5 2.7
    vertex -20 -13.5 3.5
    endloop
  endfacet
  facet normal -0 -1 0
    outer loop
    vertex -20 -13.5 2.7
    vertex -14.5 -13.5 3.5
    vertex -20 -13.5 3.5
    endloop
  endfacet
  facet normal -0 -1 0
    outer loop
    vertex -20 -13.5 2.7
    vertex -5.5 -13.5 3.5
    vertex -14.5 -13.5 3.5
    endloop
  endfacet
  facet normal 0 0 1
    outer loop
    vertex -14.5 -13.5 3.5
    vertex -20 -1.1 3.5
    vertex -20 -13.5 3.5
    endloop
  endfacet
  facet normal -0 0 1
    outer loop
    vertex -14.5 4.4 3.5
    vertex -20 -1.1 3.5
    vertex -14.5 -13.5 3.5
    endloop
  endfacet
  facet normal 0 -1 -0
    outer loop
    vertex -5.5 -13.5 3.5
    vertex -13.1 -13.5 4.9
    vertex -14.5 -13.5 3.5
    endloop
  endfacet
  facet normal 0 -1 0
    outer loop
    vertex -6.9 -13.5 4.9
    vertex -13.1 -13.5 4.9
    vertex -5.5 -13.5 3.5
    endloop
  endfacet
  facet normal 0.707107 0 0.707106
    outer loop
    vertex -5.5 -13.5 3.5
    vertex -6.9 12 4.9
    vertex -6.9 -13.5 4.9
    endloop
  endfacet
  facet normal 0.707107 0 0.707106
    outer loop
    vertex -5.5 13.4 3.5
    vertex -6.9 12 4.9
    vertex -5.5 -13.5 3.5
    endloop
  endfacet
  facet normal -0.707106 0 0.707107
    outer loop
    vertex -13.1 -13.5 4.9
    vertex -14.5 4.4 3.5
    vertex -14.5 -13.5 3.5
    endloop
  endfacet
  facet normal 0 0 1
    outer loop
    vertex -10.198 -7.64259 4.9
    vertex -13.1 -13.5 4.9
    vertex -6.9 -13.5 4.9
    endloop
  endfacet
  facet normal 0 0 1
    outer loop
    vertex -7.3796 -5.39496 4.9
    vertex -6.9 -13.5 4.9
    vertex -7.35 -5 4.9
    endloop
  endfacet
  facet normal 0 0 1
    outer loop
    vertex -7.46773 -5.7811 4.9
    vertex -6.9 -13.5 4.9
    vertex -7.3796 -5.39496 4.9
    endloop
  endfacet
  facet normal 0 -0 1
    outer loop
    vertex -7.35 -5 4.9
    vertex -6.9 -13.5 4.9
    vertex -6.9 12 4.9
    endloop
  endfacet
  facet normal 0 0 1
    outer loop
    vertex -10.198 -7.64259 4.9
    vertex -6.9 -13.5 4.9
    vertex -9.80197 -7.64259 4.9
    endloop
  endfacet
  facet normal 0 0 1
    outer loop
    vertex -9.80197 -7.64259 4.9
    vertex -6.9 -13.5 4.9
    vertex -9.41032 -7.58356 4.9
    endloop
  endfacet
  facet normal 0 0 1
    outer loop
    vertex -9.41032 -7.58356 4.9
    vertex -6.9 -13.5 4.9
    vertex -9.03185 -7.46682 4.9
    endloop
  endfacet
  facet normal 0 0 1
    outer loop
    vertex -9.03185 -7.46682 4.9
    vertex -6.9 -13.5 4.9
    vertex -8.675 -7.29497 4.9
    endloop
  endfacet
  facet normal 0 0 1
    outer loop
    vertex -8.675 -7.29497 4.9
    vertex -6.9 -13.5 4.9
    vertex -8.34775 -7.07185 4.9
    endloop
  endfacet
  facet normal 0 0 1
    outer loop
    vertex -8.34775 -7.07185 4.9
    vertex -6.9 -13.5 4.9
    vertex -8.05741 -6.80246 4.9
    endloop
  endfacet
  facet normal 0 0 1
    outer loop
    vertex -8.05741 -6.80246 4.9
    vertex -6.9 -13.5 4.9
    vertex -7.81047 -6.4928 4.9
    endloop
  endfacet
  facet normal 0 0 1
    outer loop
    vertex -7.81047 -6.4928 4.9
    vertex -6.9 -13.5 4.9
    vertex -7.61243 -6.14979 4.9
    endloop
  endfacet
  facet normal 0 0 1
    outer loop
    vertex -7.61243 -6.14979 4.9
    vertex -6.9 -13.5 4.9
    vertex -7.46773 -5.7811 4.9
    endloop
  endfacet
  facet normal 0 0 1
    outer loop
    vertex -12.65 -5 4.9
    vertex -13.1 5.8 4.9
    vertex -13.1 -13.5 4.9
    endloop
  endfacet
  facet normal -0.707106 0 0.707107
    outer loop
    vertex -13.1 5.8 4.9
    vertex -14.5 4.4 3.5
    vertex -13.1 -13.5 4.9
    endloop
  endfacet
  facet normal 0 0 1
    outer loop
    vertex -12.65 -5 4.9
    vertex -13.1 -13.5 4.9
    vertex -12.6204 -5.39496 4.9
    endloop
  endfacet
  facet normal 0 0 1
    outer loop
    vertex -12.6204 -5.39496 4.9
    vertex -13.1 -13.5 4.9
    vertex -12.5323 -5.7811 4.9
    endloop
  endfacet
  facet normal 0 0 1
    outer loop
    vertex -12.5323 -5.7811 4.9
    vertex -13.1 -13.5 4.9
    vertex -12.3876 -6.14979 4.9
    endloop
  endfacet
  facet normal 0 0 1
    outer loop
    vertex -12.3876 -6.14979 4.9
    vertex -13.1 -13.5 4.9
    vertex -12.1895 -6.4928 4.9
    endloop
  endfacet
  facet normal 0 0 1
    outer loop
    vertex -12.1895 -6.4928 4.9
    vertex -13.1 -13.5 4.9
    vertex -11.9426 -6.80246 4.9
    endloop
  endfacet
  facet normal 0 0 1
    outer loop
    vertex -11.9426 -6.80246 4.9
    vertex -13.1 -13.5 4.9
    vertex -11.6522 -7.07185 4.9
    endloop
  endfacet
  facet normal 0 0 1
    outer loop
    vertex -11.6522 -7.07185 4.9
    vertex -13.1 -13.5 4.9
    vertex -11.325 -7.29497 4.9
    endloop
  endfacet
  facet normal 0 0 1
    outer loop
    vertex -11.325 -7.29497 4.9
    vertex -13.1 -13.5 4.9
    vertex -10.9682 -7.46682 4.9
    endloop
  endfacet
  facet normal 0 0 1
    outer loop
    vertex -10.9682 -7.46682 4.9
    vertex -13.1 -13.5 4.9
    vertex -10.5897 -7.58356 4.9
    endloop
  endfacet
  facet normal 0 0 1
    outer loop
    vertex -10.5897 -7.58356 4.9
    vertex -13.1 -13.5 4.9
    vertex -10.198 -7.64259 4.9
    endloop
  endfacet
  facet normal 0 0 1
    outer loop
    vertex 16.625 8.11554 3.5
    vertex 20 10.5 3.5
    vertex 17 13.5 3.5
    endloop
  endfacet
  facet normal 0 0 1
    outer loop
    vertex 16.625 5.08446 3.5
    vertex 20 10.5 3.5
    vertex 16.625 8.11554 3.5
    endloop
  endfacet
  facet normal -0.997204 0.0747325 0
    outer loop
    vertex -7.3796 -5.39496 4.9
    vertex -7.35 -5 3.94175e-016
    vertex -7.3796 -5.39496 3.97799e-016
    endloop
  endfacet
  facet normal -0.974929 0.222516 0
    outer loop
    vertex -7.46773 -5.7811 4.9
    vertex -7.3796 -5.39496 3.97799e-016
    vertex -7.46773 -5.7811 4.08593e-016
    endloop
  endfacet
  facet normal -0.974929 0.222516 0
    outer loop
    vertex -7.3796 -5.39496 4.9
    vertex -7.3796 -5.39496 3.97799e-016
    vertex -7.46773 -5.7811 4.9
    endloop
  endfacet
  facet normal -0.997204 -0.0747322 0
    outer loop
    vertex -7.35 -5 4.9
    vertex -7.3796 -4.60504 3.97799e-016
    vertex -7.35 -5 3.94175e-016
    endloop
  endfacet
  facet normal -0.997204 0.0747325 0
    outer loop
    vertex -7.35 -5 4.9
    vertex -7.35 -5 3.94175e-016
    vertex -7.3796 -5.39496 4.9
    endloop
  endfacet
  facet normal -0.974929 -0.222517 0
    outer loop
    vertex -7.3796 -4.60504 4.9
    vertex -7.46773 -4.2189 4.08593e-016
    vertex -7.3796 -4.60504 3.97799e-016
    endloop
  endfacet
  facet normal -0.997204 -0.0747322 0
    outer loop
    vertex -7.3796 -4.60504 4.9
    vertex -7.3796 -4.60504 3.97799e-016
    vertex -7.35 -5 4.9
    endloop
  endfacet
  facet normal -0.930874 -0.365341 0
    outer loop
    vertex -7.46773 -4.2189 4.9
    vertex -7.61243 -3.85021 4.26314e-016
    vertex -7.46773 -4.2189 4.08593e-016
    endloop
  endfacet
  facet normal -0.974929 -0.222517 0
    outer loop
    vertex -7.46773 -4.2189 4.9
    vertex -7.46773 -4.2189 4.08593e-016
    vertex -7.3796 -4.60504 4.9
    endloop
  endfacet
  facet normal -0.866025 -0.5 0
    outer loop
    vertex -7.61243 -3.85021 4.9
    vertex -7.81047 -3.5072 4.50566e-016
    vertex -7.61243 -3.85021 4.26314e-016
    endloop
  endfacet
  facet normal -0.930874 -0.365341 0
    outer loop
    vertex -7.61243 -3.85021 4.9
    vertex -7.61243 -3.85021 4.26314e-016
    vertex -7.46773 -4.2189 4.9
    endloop
  endfacet
  facet normal -0.781829 -0.623493 0
    outer loop
    vertex -7.81047 -3.5072 4.9
    vertex -8.05741 -3.19754 4.80808e-016
    vertex -7.81047 -3.5072 4.50566e-016
    endloop
  endfacet
  facet normal -0.866025 -0.5 0
    outer loop
    vertex -7.81047 -3.5072 4.9
    vertex -7.81047 -3.5072 4.50566e-016
    vertex -7.61243 -3.85021 4.9
    endloop
  endfacet
  facet normal -0.680173 -0.733052 0
    outer loop
    vertex -8.05741 -3.19754 4.9
    vertex -8.34775 -2.92815 5.16364e-016
    vertex -8.05741 -3.19754 4.80808e-016
    endloop
  endfacet
  facet normal -0.781829 -0.623493 0
    outer loop
    vertex -8.05741 -3.19754 4.9
    vertex -8.05741 -3.19754 4.80808e-016
    vertex -7.81047 -3.5072 4.9
    endloop
  endfacet
  facet normal -0.563323 -0.826237 0
    outer loop
    vertex -8.34775 -2.92815 4.9
    vertex -8.675 -2.70503 5.5644e-016
    vertex -8.34775 -2.92815 5.16364e-016
    endloop
  endfacet
  facet normal -0.680173 -0.733052 0
    outer loop
    vertex -8.34775 -2.92815 4.9
    vertex -8.34775 -2.92815 5.16364e-016
    vertex -8.05741 -3.19754 4.9
    endloop
  endfacet
  facet normal -0.433882 -0.90097 0
    outer loop
    vertex -8.675 -2.70503 4.9
    vertex -9.03185 -2.53319 6.00142e-016
    vertex -8.675 -2.70503 5.5644e-016
    endloop
  endfacet
  facet normal -0.563323 -0.826237 0
    outer loop
    vertex -8.675 -2.70503 4.9
    vertex -8.675 -2.70503 5.5644e-016
    vertex -8.34775 -2.92815 4.9
    endloop
  endfacet
  facet normal -0.294755 -0.955573 0
    outer loop
    vertex -9.03185 -2.53319 4.9
    vertex -9.41032 -2.41644 6.46491e-016
    vertex -9.03185 -2.53319 6.00142e-016
    endloop
  endfacet
  facet normal -0.433882 -0.90097 0
    outer loop
    vertex -9.03185 -2.53319 4.9
    vertex -9.03185 -2.53319 6.00142e-016
    vertex -8.675 -2.70503 4.9
    endloop
  endfacet
  facet normal -0.149044 -0.988831 0
    outer loop
    vertex -9.41032 -2.41644 4.9
    vertex -9.80197 -2.35741 6.94454e-016
    vertex -9.41032 -2.41644 6.46491e-016
    endloop
  endfacet
  facet normal -0.294755 -0.955573 0
    outer loop
    vertex -9.41032 -2.41644 4.9
    vertex -9.41032 -2.41644 6.46491e-016
    vertex -9.03185 -2.53319 4.9
    endloop
  endfacet
  facet normal 0 -1 0
    outer loop
    vertex -9.80197 -2.35741 4.9
    vertex -10.198 -2.35741 7.42958e-016
    vertex -9.80197 -2.35741 6.94454e-016
    endloop
  endfacet
  facet normal -0.149044 -0.988831 0
    outer loop
    vertex -9.80197 -2.35741 4.9
    vertex -9.80197 -2.35741 6.94454e-016
    vertex -9.41032 -2.41644 4.9
    endloop
  endfacet
  facet normal 0.149044 -0.988831 0
    outer loop
    vertex -10.198 -2.35741 4.9
    vertex -10.5897 -2.41644 7.90921e-016
    vertex -10.198 -2.35741 7.42958e-016
    endloop
  endfacet
  facet normal 0 -1 0
    outer loop
    vertex -10.198 -2.35741 4.9
    vertex -10.198 -2.35741 7.42958e-016
    vertex -9.80197 -2.35741 4.9
    endloop
  endfacet
  facet normal 0.294753 -0.955574 0
    outer loop
    vertex -10.5897 -2.41644 4.9
    vertex -10.9682 -2.53319 8.37271e-016
    vertex -10.5897 -2.41644 7.90921e-016
    endloop
  endfacet
  facet normal 0.149044 -0.988831 0
    outer loop
    vertex -10.5897 -2.41644 4.9
    vertex -10.5897 -2.41644 7.90921e-016
    vertex -10.198 -2.35741 4.9
    endloop
  endfacet
  facet normal 0.433885 -0.900968 0
    outer loop
    vertex -10.9682 -2.53319 4.9
    vertex -11.325 -2.70503 8.80972e-016
    vertex -10.9682 -2.53319 8.37271e-016
    endloop
  endfacet
  facet normal 0.294753 -0.955574 0
    outer loop
    vertex -10.9682 -2.53319 4.9
    vertex -10.9682 -2.53319 8.37271e-016
    vertex -10.5897 -2.41644 4.9
    endloop
  endfacet
  facet normal 0.56332 -0.826239 0
    outer loop
    vertex -11.325 -2.70503 4.9
    vertex -11.6522 -2.92815 9.21048e-016
    vertex -11.325 -2.70503 8.80972e-016
    endloop
  endfacet
  facet normal 0.433885 -0.900968 0
    outer loop
    vertex -11.325 -2.70503 4.9
    vertex -11.325 -2.70503 8.80972e-016
    vertex -10.9682 -2.53319 4.9
    endloop
  endfacet
  facet normal 0.680174 -0.733051 0
    outer loop
    vertex -11.6522 -2.92815 4.9
    vertex -11.9426 -3.19754 9.56605e-016
    vertex -11.6522 -2.92815 9.21048e-016
    endloop
  endfacet
  facet normal 0.56332 -0.826239 0
    outer loop
    vertex -11.6522 -2.92815 4.9
    vertex -11.6522 -2.92815 9.21048e-016
    vertex -11.325 -2.70503 4.9
    endloop
  endfacet
  facet normal 0.781828 -0.623494 0
    outer loop
    vertex -11.9426 -3.19754 4.9
    vertex -12.1895 -3.5072 9.86847e-016
    vertex -11.9426 -3.19754 9.56605e-016
    endloop
  endfacet
  facet normal 0.680174 -0.733051 0
    outer loop
    vertex -11.9426 -3.19754 4.9
    vertex -11.9426 -3.19754 9.56605e-016
    vertex -11.6522 -2.92815 4.9
    endloop
  endfacet
  facet normal 0.866028 -0.499995 0
    outer loop
    vertex -12.1895 -3.5072 4.9
    vertex -12.3876 -3.85021 1.0111e-015
    vertex -12.1895 -3.5072 9.86847e-016
    endloop
  endfacet
  facet normal 0.781828 -0.623494 0
    outer loop
    vertex -12.1895 -3.5072 4.9
    vertex -12.1895 -3.5072 9.86847e-016
    vertex -11.9426 -3.19754 4.9
    endloop
  endfacet
  facet normal 0.930874 -0.365341 0
    outer loop
    vertex -12.3876 -3.85021 4.9
    vertex -12.5323 -4.2189 1.02882e-015
    vertex -12.3876 -3.85021 1.0111e-015
    endloop
  endfacet
  facet normal 0.866028 -0.499995 0
    outer loop
    vertex -12.3876 -3.85021 4.9
    vertex -12.3876 -3.85021 1.0111e-015
    vertex -12.1895 -3.5072 4.9
    endloop
  endfacet
  facet normal 0.974928 -0.222522 0
    outer loop
    vertex -12.5323 -4.2189 4.9
    vertex -12.6204 -4.60504 1.03961e-015
    vertex -12.5323 -4.2189 1.02882e-015
    endloop
  endfacet
  facet normal 0.930874 -0.365341 0
    outer loop
    vertex -12.5323 -4.2189 4.9
    vertex -12.5323 -4.2189 1.02882e-015
    vertex -12.3876 -3.85021 4.9
    endloop
  endfacet
  facet normal 0.997204 -0.0747274 0
    outer loop
    vertex -12.6204 -4.60504 4.9
    vertex -12.65 -5 1.04324e-015
    vertex -12.6204 -4.60504 1.03961e-015
    endloop
  endfacet
  facet normal 0.974928 -0.222522 0
    outer loop
    vertex -12.6204 -4.60504 4.9
    vertex -12.6204 -4.60504 1.03961e-015
    vertex -12.5323 -4.2189 4.9
    endloop
  endfacet
  facet normal 0.997204 0.0747277 0
    outer loop
    vertex -12.65 -5 4.9
    vertex -12.6204 -5.39496 1.03961e-015
    vertex -12.65 -5 1.04324e-015
    endloop
  endfacet
  facet normal 0.997204 -0.0747274 0
    outer loop
    vertex -12.65 -5 4.9
    vertex -12.65 -5 1.04324e-015
    vertex -12.6204 -4.60504 4.9
    endloop
  endfacet
  facet normal 0.974928 0.22252 0
    outer loop
    vertex -12.6204 -5.39496 4.9
    vertex -12.5323 -5.7811 1.02882e-015
    vertex -12.6204 -5.39496 1.03961e-015
    endloop
  endfacet
  facet normal 0.997204 0.0747277 -0
    outer loop
    vertex -12.6204 -5.39496 4.9
    vertex -12.6204 -5.39496 1.03961e-015
    vertex -12.65 -5 4.9
    endloop
  endfacet
  facet normal 0.930873 0.365342 0
    outer loop
    vertex -12.5323 -5.7811 4.9
    vertex -12.3876 -6.14979 1.0111e-015
    vertex -12.5323 -5.7811 1.02882e-015
    endloop
  endfacet
  facet normal 0.974928 0.22252 -0
    outer loop
    vertex -12.5323 -5.7811 4.9
    vertex -12.5323 -5.7811 1.02882e-015
    vertex -12.6204 -5.39496 4.9
    endloop
  endfacet
  facet normal 0.866028 0.499996 0
    outer loop
    vertex -12.3876 -6.14979 4.9
    vertex -12.1895 -6.4928 9.86847e-016
    vertex -12.3876 -6.14979 1.0111e-015
    endloop
  endfacet
  facet normal 0.930873 0.365342 -0
    outer loop
    vertex -12.3876 -6.14979 4.9
    vertex -12.3876 -6.14979 1.0111e-015
    vertex -12.5323 -5.7811 4.9
    endloop
  endfacet
  facet normal 0.78183 0.623492 0
    outer loop
    vertex -12.1895 -6.4928 4.9
    vertex -11.9426 -6.80246 9.56605e-016
    vertex -12.1895 -6.4928 9.86847e-016
    endloop
  endfacet
  facet normal 0.866028 0.499996 -0
    outer loop
    vertex -12.1895 -6.4928 4.9
    vertex -12.1895 -6.4928 9.86847e-016
    vertex -12.3876 -6.14979 4.9
    endloop
  endfacet
  facet normal 0.680173 0.733052 0
    outer loop
    vertex -11.9426 -6.80246 4.9
    vertex -11.6522 -7.07185 9.21048e-016
    vertex -11.9426 -6.80246 9.56605e-016
    endloop
  endfacet
  facet normal 0.78183 0.623492 -0
    outer loop
    vertex -11.9426 -6.80246 4.9
    vertex -11.9426 -6.80246 9.56605e-016
    vertex -12.1895 -6.4928 4.9
    endloop
  endfacet
  facet normal 0.563319 0.82624 0
    outer loop
    vertex -11.6522 -7.07185 4.9
    vertex -11.325 -7.29497 8.80972e-016
    vertex -11.6522 -7.07185 9.21048e-016
    endloop
  endfacet
  facet normal 0.680173 0.733052 -0
    outer loop
    vertex -11.6522 -7.07185 4.9
    vertex -11.6522 -7.07185 9.21048e-016
    vertex -11.9426 -6.80246 4.9
    endloop
  endfacet
  facet normal 0.433886 0.900968 0
    outer loop
    vertex -11.325 -7.29497 4.9
    vertex -10.9682 -7.46682 8.37271e-016
    vertex -11.325 -7.29497 8.80972e-016
    endloop
  endfacet
  facet normal 0.563319 0.82624 -0
    outer loop
    vertex -11.325 -7.29497 4.9
    vertex -11.325 -7.29497 8.80972e-016
    vertex -11.6522 -7.07185 4.9
    endloop
  endfacet
  facet normal 0.294755 0.955573 0
    outer loop
    vertex -10.9682 -7.46682 4.9
    vertex -10.5897 -7.58356 7.90921e-016
    vertex -10.9682 -7.46682 8.37271e-016
    endloop
  endfacet
  facet normal 0.433886 0.900968 -0
    outer loop
    vertex -10.9682 -7.46682 4.9
    vertex -10.9682 -7.46682 8.37271e-016
    vertex -11.325 -7.29497 4.9
    endloop
  endfacet
  facet normal 0.149042 0.988831 0
    outer loop
    vertex -10.5897 -7.58356 4.9
    vertex -10.198 -7.64259 7.42958e-016
    vertex -10.5897 -7.58356 7.90921e-016
    endloop
  endfacet
  facet normal 0.294755 0.955573 -0
    outer loop
    vertex -10.5897 -7.58356 4.9
    vertex -10.5897 -7.58356 7.90921e-016
    vertex -10.9682 -7.46682 4.9
    endloop
  endfacet
  facet normal 0 1 0
    outer loop
    vertex -10.198 -7.64259 4.9
    vertex -9.80197 -7.64259 6.94454e-016
    vertex -10.198 -7.64259 7.42958e-016
    endloop
  endfacet
  facet normal 0.149042 0.988831 -0
    outer loop
    vertex -10.198 -7.64259 4.9
    vertex -10.198 -7.64259 7.42958e-016
    vertex -10.5897 -7.58356 4.9
    endloop
  endfacet
  facet normal -0.149042 0.988831 0
    outer loop
    vertex -9.80197 -7.64259 4.9
    vertex -9.41032 -7.58356 6.46491e-016
    vertex -9.80197 -7.64259 6.94454e-016
    endloop
  endfacet
  facet normal 0 1 -0
    outer loop
    vertex -9.80197 -7.64259 4.9
    vertex -9.80197 -7.64259 6.94454e-016
    vertex -10.198 -7.64259 4.9
    endloop
  endfacet
  facet normal -0.294757 0.955572 0
    outer loop
    vertex -9.41032 -7.58356 4.9
    vertex -9.03185 -7.46682 6.00142e-016
    vertex -9.41032 -7.58356 6.46491e-016
    endloop
  endfacet
  facet normal -0.149042 0.988831 0
    outer loop
    vertex -9.41032 -7.58356 4.9
    vertex -9.41032 -7.58356 6.46491e-016
    vertex -9.80197 -7.64259 4.9
    endloop
  endfacet
  facet normal -0.433883 0.900969 0
    outer loop
    vertex -9.03185 -7.46682 4.9
    vertex -8.675 -7.29497 5.5644e-016
    vertex -9.03185 -7.46682 6.00142e-016
    endloop
  endfacet
  facet normal -0.294757 0.955572 0
    outer loop
    vertex -9.03185 -7.46682 4.9
    vertex -9.03185 -7.46682 6.00142e-016
    vertex -9.41032 -7.58356 4.9
    endloop
  endfacet
  facet normal -0.563322 0.826237 0
    outer loop
    vertex -8.675 -7.29497 4.9
    vertex -8.34775 -7.07185 5.16364e-016
    vertex -8.675 -7.29497 5.5644e-016
    endloop
  endfacet
  facet normal -0.433883 0.900969 0
    outer loop
    vertex -8.675 -7.29497 4.9
    vertex -8.675 -7.29497 5.5644e-016
    vertex -9.03185 -7.46682 4.9
    endloop
  endfacet
  facet normal -0.680172 0.733053 0
    outer loop
    vertex -8.34775 -7.07185 4.9
    vertex -8.05741 -6.80246 4.80808e-016
    vertex -8.34775 -7.07185 5.16364e-016
    endloop
  endfacet
  facet normal -0.563322 0.826237 0
    outer loop
    vertex -8.34775 -7.07185 4.9
    vertex -8.34775 -7.07185 5.16364e-016
    vertex -8.675 -7.29497 4.9
    endloop
  endfacet
  facet normal -0.781831 0.62349 0
    outer loop
    vertex -8.05741 -6.80246 4.9
    vertex -7.81047 -6.4928 4.50566e-016
    vertex -8.05741 -6.80246 4.80808e-016
    endloop
  endfacet
  facet normal -0.680172 0.733053 0
    outer loop
    vertex -8.05741 -6.80246 4.9
    vertex -8.05741 -6.80246 4.80808e-016
    vertex -8.34775 -7.07185 4.9
    endloop
  endfacet
  facet normal -0.866024 0.500002 0
    outer loop
    vertex -7.81047 -6.4928 4.9
    vertex -7.61243 -6.14979 4.26314e-016
    vertex -7.81047 -6.4928 4.50566e-016
    endloop
  endfacet
  facet normal -0.781831 0.62349 0
    outer loop
    vertex -7.81047 -6.4928 4.9
    vertex -7.81047 -6.4928 4.50566e-016
    vertex -8.05741 -6.80246 4.9
    endloop
  endfacet
  facet normal -0.930873 0.365342 0
    outer loop
    vertex -7.61243 -6.14979 4.9
    vertex -7.46773 -5.7811 4.08593e-016
    vertex -7.61243 -6.14979 4.26314e-016
    endloop
  endfacet
  facet normal -0.866024 0.500002 0
    outer loop
    vertex -7.61243 -6.14979 4.9
    vertex -7.61243 -6.14979 4.26314e-016
    vertex -7.81047 -6.4928 4.9
    endloop
  endfacet
  facet normal -0.930873 0.365342 0
    outer loop
    vertex -7.46773 -5.7811 4.9
    vertex -7.46773 -5.7811 4.08593e-016
    vertex -7.61243 -6.14979 4.9
    endloop
  endfacet
  facet normal 0 0 1
    outer loop
    vertex 16.625 8.11554 3.5
    vertex 17 13.5 3.5
    vertex 14 9.63109 3.5
    endloop
  endfacet
  facet normal 0 0 1
    outer loop
    vertex 14 9.63109 3.5
    vertex 17 13.5 3.5
    vertex 11.375 8.11554 3.5
    endloop
  endfacet
  facet normal 0 0 1
    outer loop
    vertex 11.375 8.11554 3.5
    vertex 17 13.5 3.5
    vertex -5.4 13.5 3.5
    endloop
  endfacet
  facet normal -0.5 -0.866026 -0
    outer loop
    vertex 14 3.56891 3.5
    vertex 11.375 5.08446 6
    vertex 11.375 5.08446 3.5
    endloop
  endfacet
  facet normal 0 0 1
    outer loop
    vertex 11.375 8.11554 3.5
    vertex -5.4 13.5 3.5
    vertex 11.375 5.08446 3.5
    endloop
  endfacet
  facet normal -1 0 -0
    outer loop
    vertex 11.375 5.08446 3.5
    vertex 11.375 8.11554 6
    vertex 11.375 8.11554 3.5
    endloop
  endfacet
  facet normal 0 0 1
    outer loop
    vertex 11.375 5.08446 3.5
    vertex -5.4 13.5 3.5
    vertex -5.5 13.4 3.5
    endloop
  endfacet
  facet normal -1 -0 0
    outer loop
    vertex 11.375 5.08446 6
    vertex 11.375 8.11554 6
    vertex 11.375 5.08446 3.5
    endloop
  endfacet
  facet normal 0.5 -0.866025 0
    outer loop
    vertex 16.625 5.08446 3.5
    vertex 14 3.56891 6
    vertex 14 3.56891 3.5
    endloop
  endfacet
  facet normal -0.5 -0.866026 0
    outer loop
    vertex 14 3.56891 6
    vertex 11.375 5.08446 6
    vertex 14 3.56891 3.5
    endloop
  endfacet
  facet normal 1 0 0
    outer loop
    vertex 16.625 8.11554 3.5
    vertex 16.625 5.08446 6
    vertex 16.625 5.08446 3.5
    endloop
  endfacet
  facet normal 0.5 -0.866025 0
    outer loop
    vertex 16.625 5.08446 6
    vertex 14 3.56891 6
    vertex 16.625 5.08446 3.5
    endloop
  endfacet
  facet normal 0.5 0.866025 0
    outer loop
    vertex 14 9.63109 3.5
    vertex 16.625 8.11554 6
    vertex 16.625 8.11554 3.5
    endloop
  endfacet
  facet normal 1 -0 0
    outer loop
    vertex 16.625 8.11554 6
    vertex 16.625 5.08446 6
    vertex 16.625 8.11554 3.5
    endloop
  endfacet
  facet normal -0.5 0.866025 0
    outer loop
    vertex 11.375 8.11554 3.5
    vertex 14 9.63109 6
    vertex 14 9.63109 3.5
    endloop
  endfacet
  facet normal 0.5 0.866025 0
    outer loop
    vertex 14 9.63109 6
    vertex 16.625 8.11554 6
    vertex 14 9.63109 3.5
    endloop
  endfacet
  facet normal -0.5 0.866025 0
    outer loop
    vertex 11.375 8.11554 6
    vertex 14 9.63109 6
    vertex 11.375 8.11554 3.5
    endloop
  endfacet
  facet normal -0.707107 0.707107 5.56606e-007
    outer loop
    vertex -14.5 4.4 3.5
    vertex -6.9 12 4.9
    vertex -5.5 13.4 3.5
    endloop
  endfacet
  facet normal 0 0 1
    outer loop
    vertex -7.35 -5 4.9
    vertex -6.9 12 4.9
    vertex -7.3796 -4.60504 4.9
    endloop
  endfacet
  facet normal 0 0 1
    outer loop
    vertex -7.3796 -4.60504 4.9
    vertex -6.9 12 4.9
    vertex -7.46773 -4.2189 4.9
    endloop
  endfacet
  facet normal 0 0 1
    outer loop
    vertex -7.46773 -4.2189 4.9
    vertex -6.9 12 4.9
    vertex -7.61243 -3.85021 4.9
    endloop
  endfacet
  facet normal 0 0 1
    outer loop
    vertex -7.61243 -3.85021 4.9
    vertex -6.9 12 4.9
    vertex -7.81047 -3.5072 4.9
    endloop
  endfacet
  facet normal 0 0 1
    outer loop
    vertex -7.81047 -3.5072 4.9
    vertex -6.9 12 4.9
    vertex -8.05741 -3.19754 4.9
    endloop
  endfacet
  facet normal 0 0 1
    outer loop
    vertex -8.05741 -3.19754 4.9
    vertex -6.9 12 4.9
    vertex -8.34775 -2.92815 4.9
    endloop
  endfacet
  facet normal 0 0 1
    outer loop
    vertex -8.34775 -2.92815 4.9
    vertex -6.9 12 4.9
    vertex -8.675 -2.70503 4.9
    endloop
  endfacet
  facet normal 0 0 1
    outer loop
    vertex -8.675 -2.70503 4.9
    vertex -6.9 12 4.9
    vertex -9.03185 -2.53319 4.9
    endloop
  endfacet
  facet normal 0 0 1
    outer loop
    vertex -9.03185 -2.53319 4.9
    vertex -6.9 12 4.9
    vertex -9.41032 -2.41644 4.9
    endloop
  endfacet
  facet normal 0 0 1
    outer loop
    vertex -9.41032 -2.41644 4.9
    vertex -6.9 12 4.9
    vertex -9.80197 -2.35741 4.9
    endloop
  endfacet
  facet normal 0 0 1
    outer loop
    vertex -9.80197 -2.35741 4.9
    vertex -6.9 12 4.9
    vertex -10.198 -2.35741 4.9
    endloop
  endfacet
  facet normal 0 0 1
    outer loop
    vertex -10.198 -2.35741 4.9
    vertex -6.9 12 4.9
    vertex -13.1 5.8 4.9
    endloop
  endfacet
  facet normal -0.707107 0.707107 6.68134e-007
    outer loop
    vertex -13.1 5.8 4.9
    vertex -6.9 12 4.9
    vertex -14.5 4.4 3.5
    endloop
  endfacet
  facet normal 0 0 1
    outer loop
    vertex -10.198 -2.35741 4.9
    vertex -13.1 5.8 4.9
    vertex -10.5897 -2.41644 4.9
    endloop
  endfacet
  facet normal 0 0 1
    outer loop
    vertex -10.5897 -2.41644 4.9
    vertex -13.1 5.8 4.9
    vertex -10.9682 -2.53319 4.9
    endloop
  endfacet
  facet normal 0 0 1
    outer loop
    vertex -10.9682 -2.53319 4.9
    vertex -13.1 5.8 4.9
    vertex -11.325 -2.70503 4.9
    endloop
  endfacet
  facet normal 0 0 1
    outer loop
    vertex -11.325 -2.70503 4.9
    vertex -13.1 5.8 4.9
    vertex -11.6522 -2.92815 4.9
    endloop
  endfacet
  facet normal 0 0 1
    outer loop
    vertex -11.6522 -2.92815 4.9
    vertex -13.1 5.8 4.9
    vertex -11.9426 -3.19754 4.9
    endloop
  endfacet
  facet normal 0 0 1
    outer loop
    vertex -11.9426 -3.19754 4.9
    vertex -13.1 5.8 4.9
    vertex -12.1895 -3.5072 4.9
    endloop
  endfacet
  facet normal 0 0 1
    outer loop
    vertex -12.1895 -3.5072 4.9
    vertex -13.1 5.8 4.9
    vertex -12.3876 -3.85021 4.9
    endloop
  endfacet
  facet normal 0 0 1
    outer loop
    vertex -12.3876 -3.85021 4.9
    vertex -13.1 5.8 4.9
    vertex -12.5323 -4.2189 4.9
    endloop
  endfacet
  facet normal 0 0 1
    outer loop
    vertex -12.5323 -4.2189 4.9
    vertex -13.1 5.8 4.9
    vertex -12.6204 -4.60504 4.9
    endloop
  endfacet
  facet normal 0 0 1
    outer loop
    vertex -12.6204 -4.60504 4.9
    vertex -13.1 5.8 4.9
    vertex -12.65 -5 4.9
    endloop
  endfacet
  facet normal -0.353554 -0.612373 0.707106
    outer loop
    vertex 11.675 5.25766 6.3
    vertex 11.375 5.08446 6
    vertex 14 3.91532 6.3
    endloop
  endfacet
  facet normal -0.707106 0 0.707107
    outer loop
    vertex 11.675 5.25766 6.3
    vertex 11.675 7.94234 6.3
    vertex 11.375 5.08446 6
    endloop
  endfacet
  facet normal -0 0 1
    outer loop
    vertex 13.325 5.43087 6.3
    vertex 11.675 5.25766 6.3
    vertex 14 3.91532 6.3
    endloop
  endfacet
  facet normal 0 0 1
    outer loop
    vertex 12.65 6.6 6.3
    vertex 11.675 7.94234 6.3
    vertex 11.675 5.25766 6.3
    endloop
  endfacet
  facet normal 0 0 1
    outer loop
    vertex 12.65 6.6 6.3
    vertex 11.675 5.25766 6.3
    vertex 12.6795 6.31932 6.3
    endloop
  endfacet
  facet normal 0 0 1
    outer loop
    vertex 12.6795 6.31932 6.3
    vertex 11.675 5.25766 6.3
    vertex 12.7667 6.05091 6.3
    endloop
  endfacet
  facet normal 0 0 1
    outer loop
    vertex 12.7667 6.05091 6.3
    vertex 11.675 5.25766 6.3
    vertex 12.9078 5.80649 6.3
    endloop
  endfacet
  facet normal 0 0 1
    outer loop
    vertex 12.9078 5.80649 6.3
    vertex 11.675 5.25766 6.3
    vertex 13.0967 5.59675 6.3
    endloop
  endfacet
  facet normal 0 0 1
    outer loop
    vertex 13.0967 5.59675 6.3
    vertex 11.675 5.25766 6.3
    vertex 13.325 5.43087 6.3
    endloop
  endfacet
  facet normal -0.353554 -0.612373 0.707106
    outer loop
    vertex 14 3.91532 6.3
    vertex 11.375 5.08446 6
    vertex 14 3.56891 6
    endloop
  endfacet
  facet normal -0.707106 0 0.707107
    outer loop
    vertex 11.375 5.08446 6
    vertex 11.675 7.94234 6.3
    vertex 11.375 8.11554 6
    endloop
  endfacet
  facet normal 0.353554 -0.612373 0.707106
    outer loop
    vertex 14 3.56891 6
    vertex 16.625 5.08446 6
    vertex 14 3.91532 6.3
    endloop
  endfacet
  facet normal 0.353554 -0.612373 0.707107
    outer loop
    vertex 14 3.91532 6.3
    vertex 16.625 5.08446 6
    vertex 16.325 5.25766 6.3
    endloop
  endfacet
  facet normal 0 0 1
    outer loop
    vertex 14.675 5.43087 6.3
    vertex 14 3.91532 6.3
    vertex 16.325 5.25766 6.3
    endloop
  endfacet
  facet normal 0 0 1
    outer loop
    vertex 13.325 5.43087 6.3
    vertex 14 3.91532 6.3
    vertex 13.5828 5.31607 6.3
    endloop
  endfacet
  facet normal 0 0 1
    outer loop
    vertex 13.5828 5.31607 6.3
    vertex 14 3.91532 6.3
    vertex 13.8589 5.25739 6.3
    endloop
  endfacet
  facet normal 0 -0 1
    outer loop
    vertex 13.8589 5.25739 6.3
    vertex 14 3.91532 6.3
    vertex 14.1411 5.25739 6.3
    endloop
  endfacet
  facet normal 0 0 1
    outer loop
    vertex 14.1411 5.25739 6.3
    vertex 14 3.91532 6.3
    vertex 14.4172 5.31607 6.3
    endloop
  endfacet
  facet normal 0 0 1
    outer loop
    vertex 14.4172 5.31607 6.3
    vertex 14 3.91532 6.3
    vertex 14.675 5.43087 6.3
    endloop
  endfacet
  facet normal -0.353553 0.612372 0.707107
    outer loop
    vertex 11.675 7.94234 6.3
    vertex 14 9.28468 6.3
    vertex 11.375 8.11554 6
    endloop
  endfacet
  facet normal 0 0 1
    outer loop
    vertex 13.325 7.76913 6.3
    vertex 14 9.28468 6.3
    vertex 11.675 7.94234 6.3
    endloop
  endfacet
  facet normal 0 0 1
    outer loop
    vertex 13.325 7.76913 6.3
    vertex 11.675 7.94234 6.3
    vertex 13.0967 7.60325 6.3
    endloop
  endfacet
  facet normal 0 0 1
    outer loop
    vertex 13.0967 7.60325 6.3
    vertex 11.675 7.94234 6.3
    vertex 12.9078 7.39351 6.3
    endloop
  endfacet
  facet normal 0 0 1
    outer loop
    vertex 12.9078 7.39351 6.3
    vertex 11.675 7.94234 6.3
    vertex 12.7667 7.14909 6.3
    endloop
  endfacet
  facet normal 0 0 1
    outer loop
    vertex 12.7667 7.14909 6.3
    vertex 11.675 7.94234 6.3
    vertex 12.6795 6.88068 6.3
    endloop
  endfacet
  facet normal 0 0 1
    outer loop
    vertex 12.6795 6.88068 6.3
    vertex 11.675 7.94234 6.3
    vertex 12.65 6.6 6.3
    endloop
  endfacet
  facet normal -0.353553 0.612373 0.707107
    outer loop
    vertex 11.375 8.11554 6
    vertex 14 9.28468 6.3
    vertex 14 9.63109 6
    endloop
  endfacet
  facet normal 0.353554 0.612373 0.707107
    outer loop
    vertex 14 9.28468 6.3
    vertex 16.625 8.11554 6
    vertex 14 9.63109 6
    endloop
  endfacet
  facet normal 0.353553 0.612372 0.707107
    outer loop
    vertex 16.325 7.94234 6.3
    vertex 16.625 8.11554 6
    vertex 14 9.28468 6.3
    endloop
  endfacet
  facet normal 0 0 1
    outer loop
    vertex 14.675 7.76913 6.3
    vertex 16.325 7.94234 6.3
    vertex 14 9.28468 6.3
    endloop
  endfacet
  facet normal 0 0 1
    outer loop
    vertex 14.675 7.76913 6.3
    vertex 14 9.28468 6.3
    vertex 14.4172 7.88393 6.3
    endloop
  endfacet
  facet normal 0 0 1
    outer loop
    vertex 14.4172 7.88393 6.3
    vertex 14 9.28468 6.3
    vertex 14.1411 7.9426 6.3
    endloop
  endfacet
  facet normal 0 0 1
    outer loop
    vertex 14.1411 7.9426 6.3
    vertex 14 9.28468 6.3
    vertex 13.8589 7.9426 6.3
    endloop
  endfacet
  facet normal 0 0 1
    outer loop
    vertex 13.8589 7.9426 6.3
    vertex 14 9.28468 6.3
    vertex 13.5828 7.88393 6.3
    endloop
  endfacet
  facet normal 0 0 1
    outer loop
    vertex 13.5828 7.88393 6.3
    vertex 14 9.28468 6.3
    vertex 13.325 7.76913 6.3
    endloop
  endfacet
  facet normal 0.707106 0 0.707107
    outer loop
    vertex 16.625 8.11554 6
    vertex 16.325 7.94234 6.3
    vertex 16.625 5.08446 6
    endloop
  endfacet
  facet normal 0.707106 0 0.707107
    outer loop
    vertex 16.625 5.08446 6
    vertex 16.325 7.94234 6.3
    vertex 16.325 5.25766 6.3
    endloop
  endfacet
  facet normal 0 -0 1
    outer loop
    vertex 15.35 6.6 6.3
    vertex 16.325 5.25766 6.3
    vertex 16.325 7.94234 6.3
    endloop
  endfacet
  facet normal 0 0 1
    outer loop
    vertex 15.35 6.6 6.3
    vertex 16.325 7.94234 6.3
    vertex 15.3205 6.88068 6.3
    endloop
  endfacet
  facet normal 0 0 1
    outer loop
    vertex 15.3205 6.88068 6.3
    vertex 16.325 7.94234 6.3
    vertex 15.2333 7.14909 6.3
    endloop
  endfacet
  facet normal 0 0 1
    outer loop
    vertex 15.2333 7.14909 6.3
    vertex 16.325 7.94234 6.3
    vertex 15.0922 7.39351 6.3
    endloop
  endfacet
  facet normal 0 0 1
    outer loop
    vertex 15.0922 7.39351 6.3
    vertex 16.325 7.94234 6.3
    vertex 14.9033 7.60325 6.3
    endloop
  endfacet
  facet normal 0 0 1
    outer loop
    vertex 14.9033 7.60325 6.3
    vertex 16.325 7.94234 6.3
    vertex 14.675 7.76913 6.3
    endloop
  endfacet
  facet normal 0 0 1
    outer loop
    vertex 15.3205 6.31932 6.3
    vertex 16.325 5.25766 6.3
    vertex 15.35 6.6 6.3
    endloop
  endfacet
  facet normal 0 0 1
    outer loop
    vertex 15.2333 6.05091 6.3
    vertex 16.325 5.25766 6.3
    vertex 15.3205 6.31932 6.3
    endloop
  endfacet
  facet normal 0 0 1
    outer loop
    vertex 14.675 5.43087 6.3
    vertex 16.325 5.25766 6.3
    vertex 14.9033 5.59675 6.3
    endloop
  endfacet
  facet normal 0 0 1
    outer loop
    vertex 14.9033 5.59675 6.3
    vertex 16.325 5.25766 6.3
    vertex 15.0922 5.80649 6.3
    endloop
  endfacet
  facet normal 0 0 1
    outer loop
    vertex 15.0922 5.80649 6.3
    vertex 16.325 5.25766 6.3
    vertex 15.2333 6.05091 6.3
    endloop
  endfacet
  facet normal -0.994522 0.104526 0
    outer loop
    vertex 15.35 6.6 1.5
    vertex 15.3205 6.31932 6.3
    vertex 15.35 6.6 6.3
    endloop
  endfacet
  facet normal -0.951057 0.309016 0
    outer loop
    vertex 15.3205 6.31932 1.5
    vertex 15.2333 6.05091 6.3
    vertex 15.3205 6.31932 6.3
    endloop
  endfacet
  facet normal -0.994522 0.104526 0
    outer loop
    vertex 15.3205 6.31932 1.5
    vertex 15.3205 6.31932 6.3
    vertex 15.35 6.6 1.5
    endloop
  endfacet
  facet normal -0.994522 -0.104526 0
    outer loop
    vertex 15.3205 6.88068 1.5
    vertex 15.35 6.6 6.3
    vertex 15.3205 6.88068 6.3
    endloop
  endfacet
  facet normal -0.994522 -0.104526 -0
    outer loop
    vertex 15.35 6.6 1.5
    vertex 15.35 6.6 6.3
    vertex 15.3205 6.88068 1.5
    endloop
  endfacet
  facet normal -0.951057 -0.309015 0
    outer loop
    vertex 15.2333 7.14909 1.5
    vertex 15.3205 6.88068 6.3
    vertex 15.2333 7.14909 6.3
    endloop
  endfacet
  facet normal -0.951057 -0.309015 -0
    outer loop
    vertex 15.3205 6.88068 1.5
    vertex 15.3205 6.88068 6.3
    vertex 15.2333 7.14909 1.5
    endloop
  endfacet
  facet normal -0.866024 -0.500003 0
    outer loop
    vertex 15.0922 7.39351 1.5
    vertex 15.2333 7.14909 6.3
    vertex 15.0922 7.39351 6.3
    endloop
  endfacet
  facet normal -0.866024 -0.500003 -0
    outer loop
    vertex 15.2333 7.14909 1.5
    vertex 15.2333 7.14909 6.3
    vertex 15.0922 7.39351 1.5
    endloop
  endfacet
  facet normal -0.743145 -0.669131 0
    outer loop
    vertex 14.9033 7.60325 1.5
    vertex 15.0922 7.39351 6.3
    vertex 14.9033 7.60325 6.3
    endloop
  endfacet
  facet normal -0.743145 -0.669131 -0
    outer loop
    vertex 15.0922 7.39351 1.5
    vertex 15.0922 7.39351 6.3
    vertex 14.9033 7.60325 1.5
    endloop
  endfacet
  facet normal -0.587784 -0.809018 0
    outer loop
    vertex 14.675 7.76913 1.5
    vertex 14.9033 7.60325 6.3
    vertex 14.675 7.76913 6.3
    endloop
  endfacet
  facet normal -0.587784 -0.809018 -0
    outer loop
    vertex 14.9033 7.60325 1.5
    vertex 14.9033 7.60325 6.3
    vertex 14.675 7.76913 1.5
    endloop
  endfacet
  facet normal -0.406737 -0.913545 0
    outer loop
    vertex 14.4172 7.88393 1.5
    vertex 14.675 7.76913 6.3
    vertex 14.4172 7.88393 6.3
    endloop
  endfacet
  facet normal -0.406737 -0.913545 -0
    outer loop
    vertex 14.675 7.76913 1.5
    vertex 14.675 7.76913 6.3
    vertex 14.4172 7.88393 1.5
    endloop
  endfacet
  facet normal -0.207913 -0.978147 0
    outer loop
    vertex 14.1411 7.9426 1.5
    vertex 14.4172 7.88393 6.3
    vertex 14.1411 7.9426 6.3
    endloop
  endfacet
  facet normal -0.207913 -0.978147 -0
    outer loop
    vertex 14.4172 7.88393 1.5
    vertex 14.4172 7.88393 6.3
    vertex 14.1411 7.9426 1.5
    endloop
  endfacet
  facet normal -0 -1 0
    outer loop
    vertex 13.8589 7.9426 1.5
    vertex 14.1411 7.9426 6.3
    vertex 13.8589 7.9426 6.3
    endloop
  endfacet
  facet normal 0 -1 -0
    outer loop
    vertex 14.1411 7.9426 1.5
    vertex 14.1411 7.9426 6.3
    vertex 13.8589 7.9426 1.5
    endloop
  endfacet
  facet normal 0.207913 -0.978147 0
    outer loop
    vertex 13.5828 7.88393 1.5
    vertex 13.8589 7.9426 6.3
    vertex 13.5828 7.88393 6.3
    endloop
  endfacet
  facet normal 0.207913 -0.978147 0
    outer loop
    vertex 13.8589 7.9426 1.5
    vertex 13.8589 7.9426 6.3
    vertex 13.5828 7.88393 1.5
    endloop
  endfacet
  facet normal 0.406737 -0.913545 0
    outer loop
    vertex 13.325 7.76913 1.5
    vertex 13.5828 7.88393 6.3
    vertex 13.325 7.76913 6.3
    endloop
  endfacet
  facet normal 0.406737 -0.913545 0
    outer loop
    vertex 13.5828 7.88393 1.5
    vertex 13.5828 7.88393 6.3
    vertex 13.325 7.76913 1.5
    endloop
  endfacet
  facet normal 0.587786 -0.809016 0
    outer loop
    vertex 13.0967 7.60325 1.5
    vertex 13.325 7.76913 6.3
    vertex 13.0967 7.60325 6.3
    endloop
  endfacet
  facet normal 0.587786 -0.809016 0
    outer loop
    vertex 13.325 7.76913 1.5
    vertex 13.325 7.76913 6.3
    vertex 13.0967 7.60325 1.5
    endloop
  endfacet
  facet normal 0.743145 -0.669131 0
    outer loop
    vertex 12.9078 7.39351 1.5
    vertex 13.0967 7.60325 6.3
    vertex 12.9078 7.39351 6.3
    endloop
  endfacet
  facet normal 0.743145 -0.669131 0
    outer loop
    vertex 13.0967 7.60325 1.5
    vertex 13.0967 7.60325 6.3
    vertex 12.9078 7.39351 1.5
    endloop
  endfacet
  facet normal 0.866024 -0.500003 0
    outer loop
    vertex 12.7667 7.14909 1.5
    vertex 12.9078 7.39351 6.3
    vertex 12.7667 7.14909 6.3
    endloop
  endfacet
  facet normal 0.866024 -0.500003 0
    outer loop
    vertex 12.9078 7.39351 1.5
    vertex 12.9078 7.39351 6.3
    vertex 12.7667 7.14909 1.5
    endloop
  endfacet
  facet normal 0.951057 -0.309015 0
    outer loop
    vertex 12.6795 6.88068 1.5
    vertex 12.7667 7.14909 6.3
    vertex 12.6795 6.88068 6.3
    endloop
  endfacet
  facet normal 0.951057 -0.309015 0
    outer loop
    vertex 12.7667 7.14909 1.5
    vertex 12.7667 7.14909 6.3
    vertex 12.6795 6.88068 1.5
    endloop
  endfacet
  facet normal 0.994522 -0.104529 0
    outer loop
    vertex 12.65 6.6 1.5
    vertex 12.6795 6.88068 6.3
    vertex 12.65 6.6 6.3
    endloop
  endfacet
  facet normal 0.994522 -0.104529 0
    outer loop
    vertex 12.6795 6.88068 1.5
    vertex 12.6795 6.88068 6.3
    vertex 12.65 6.6 1.5
    endloop
  endfacet
  facet normal 0.994522 0.104529 0
    outer loop
    vertex 12.6795 6.31932 1.5
    vertex 12.65 6.6 6.3
    vertex 12.6795 6.31932 6.3
    endloop
  endfacet
  facet normal 0.994522 0.104529 0
    outer loop
    vertex 12.65 6.6 1.5
    vertex 12.65 6.6 6.3
    vertex 12.6795 6.31932 1.5
    endloop
  endfacet
  facet normal 0.951057 0.309016 0
    outer loop
    vertex 12.7667 6.05091 1.5
    vertex 12.6795 6.31932 6.3
    vertex 12.7667 6.05091 6.3
    endloop
  endfacet
  facet normal 0.951057 0.309016 0
    outer loop
    vertex 12.6795 6.31932 1.5
    vertex 12.6795 6.31932 6.3
    vertex 12.7667 6.05091 1.5
    endloop
  endfacet
  facet normal 0.866024 0.500002 0
    outer loop
    vertex 12.9078 5.80649 1.5
    vertex 12.7667 6.05091 6.3
    vertex 12.9078 5.80649 6.3
    endloop
  endfacet
  facet normal 0.866024 0.500002 0
    outer loop
    vertex 12.7667 6.05091 1.5
    vertex 12.7667 6.05091 6.3
    vertex 12.9078 5.80649 1.5
    endloop
  endfacet
  facet normal 0.743145 0.669131 0
    outer loop
    vertex 13.0967 5.59675 1.5
    vertex 12.9078 5.80649 6.3
    vertex 13.0967 5.59675 6.3
    endloop
  endfacet
  facet normal 0.743145 0.669131 0
    outer loop
    vertex 12.9078 5.80649 1.5
    vertex 12.9078 5.80649 6.3
    vertex 13.0967 5.59675 1.5
    endloop
  endfacet
  facet normal 0.587786 0.809016 0
    outer loop
    vertex 13.325 5.43087 1.5
    vertex 13.0967 5.59675 6.3
    vertex 13.325 5.43087 6.3
    endloop
  endfacet
  facet normal 0.587786 0.809016 0
    outer loop
    vertex 13.0967 5.59675 1.5
    vertex 13.0967 5.59675 6.3
    vertex 13.325 5.43087 1.5
    endloop
  endfacet
  facet normal 0.406737 0.913545 0
    outer loop
    vertex 13.5828 5.31607 1.5
    vertex 13.325 5.43087 6.3
    vertex 13.5828 5.31607 6.3
    endloop
  endfacet
  facet normal 0.406737 0.913545 0
    outer loop
    vertex 13.325 5.43087 1.5
    vertex 13.325 5.43087 6.3
    vertex 13.5828 5.31607 1.5
    endloop
  endfacet
  facet normal 0.207913 0.978147 0
    outer loop
    vertex 13.8589 5.25739 1.5
    vertex 13.5828 5.31607 6.3
    vertex 13.8589 5.25739 6.3
    endloop
  endfacet
  facet normal 0.207913 0.978147 0
    outer loop
    vertex 13.5828 5.31607 1.5
    vertex 13.5828 5.31607 6.3
    vertex 13.8589 5.25739 1.5
    endloop
  endfacet
  facet normal -0 1 0
    outer loop
    vertex 14.1411 5.25739 1.5
    vertex 13.8589 5.25739 6.3
    vertex 14.1411 5.25739 6.3
    endloop
  endfacet
  facet normal 0 1 0
    outer loop
    vertex 13.8589 5.25739 1.5
    vertex 13.8589 5.25739 6.3
    vertex 14.1411 5.25739 1.5
    endloop
  endfacet
  facet normal -0.207913 0.978147 0
    outer loop
    vertex 14.4172 5.31607 1.5
    vertex 14.1411 5.25739 6.3
    vertex 14.4172 5.31607 6.3
    endloop
  endfacet
  facet normal -0.207913 0.978147 0
    outer loop
    vertex 14.1411 5.25739 1.5
    vertex 14.1411 5.25739 6.3
    vertex 14.4172 5.31607 1.5
    endloop
  endfacet
  facet normal -0.406737 0.913545 0
    outer loop
    vertex 14.675 5.43087 1.5
    vertex 14.4172 5.31607 6.3
    vertex 14.675 5.43087 6.3
    endloop
  endfacet
  facet normal -0.406737 0.913545 0
    outer loop
    vertex 14.4172 5.31607 1.5
    vertex 14.4172 5.31607 6.3
    vertex 14.675 5.43087 1.5
    endloop
  endfacet
  facet normal -0.587784 0.809018 0
    outer loop
    vertex 14.9033 5.59675 1.5
    vertex 14.675 5.43087 6.3
    vertex 14.9033 5.59675 6.3
    endloop
  endfacet
  facet normal -0.587784 0.809018 0
    outer loop
    vertex 14.675 5.43087 1.5
    vertex 14.675 5.43087 6.3
    vertex 14.9033 5.59675 1.5
    endloop
  endfacet
  facet normal -0.743145 0.669131 0
    outer loop
    vertex 15.0922 5.80649 1.5
    vertex 14.9033 5.59675 6.3
    vertex 15.0922 5.80649 6.3
    endloop
  endfacet
  facet normal -0.743145 0.669131 0
    outer loop
    vertex 14.9033 5.59675 1.5
    vertex 14.9033 5.59675 6.3
    vertex 15.0922 5.80649 1.5
    endloop
  endfacet
  facet normal -0.866024 0.500002 0
    outer loop
    vertex 15.2333 6.05091 1.5
    vertex 15.0922 5.80649 6.3
    vertex 15.2333 6.05091 6.3
    endloop
  endfacet
  facet normal -0.866024 0.500002 0
    outer loop
    vertex 15.0922 5.80649 1.5
    vertex 15.0922 5.80649 6.3
    vertex 15.2333 6.05091 1.5
    endloop
  endfacet
  facet normal -0.951057 0.309016 0
    outer loop
    vertex 15.2333 6.05091 1.5
    vertex 15.2333 6.05091 6.3
    vertex 15.3205 6.31932 1.5
    endloop
  endfacet
  facet normal -0 0 1
    outer loop
    vertex 15.3205 6.88068 1.5
    vertex 12.6795 6.88068 1.5
    vertex 15.35 6.6 1.5
    endloop
  endfacet
  facet normal 0 0 1
    outer loop
    vertex 12.6795 6.88068 1.5
    vertex 15.3205 6.88068 1.5
    vertex 12.7667 7.14909 1.5
    endloop
  endfacet
  facet normal 0 0 1
    outer loop
    vertex 12.7667 7.14909 1.5
    vertex 15.3205 6.88068 1.5
    vertex 15.2333 7.14909 1.5
    endloop
  endfacet
  facet normal 0 0 1
    outer loop
    vertex 15.35 6.6 1.5
    vertex 12.6795 6.88068 1.5
    vertex 12.65 6.6 1.5
    endloop
  endfacet
  facet normal -0 0 1
    outer loop
    vertex 15.35 6.6 1.5
    vertex 12.65 6.6 1.5
    vertex 15.3205 6.31932 1.5
    endloop
  endfacet
  facet normal 0 0 1
    outer loop
    vertex 15.3205 6.31932 1.5
    vertex 12.65 6.6 1.5
    vertex 12.6795 6.31932 1.5
    endloop
  endfacet
  facet normal -0 0 1
    outer loop
    vertex 15.3205 6.31932 1.5
    vertex 12.6795 6.31932 1.5
    vertex 15.2333 6.05091 1.5
    endloop
  endfacet
  facet normal 0 0 1
    outer loop
    vertex 15.2333 6.05091 1.5
    vertex 12.6795 6.31932 1.5
    vertex 12.7667 6.05091 1.5
    endloop
  endfacet
  facet normal -0 0 1
    outer loop
    vertex 15.2333 6.05091 1.5
    vertex 12.7667 6.05091 1.5
    vertex 15.0922 5.80649 1.5
    endloop
  endfacet
  facet normal 0 0 1
    outer loop
    vertex 15.0922 5.80649 1.5
    vertex 12.7667 6.05091 1.5
    vertex 12.9078 5.80649 1.5
    endloop
  endfacet
  facet normal -0 0 1
    outer loop
    vertex 15.0922 5.80649 1.5
    vertex 12.9078 5.80649 1.5
    vertex 14.9033 5.59675 1.5
    endloop
  endfacet
  facet normal 0 0 1
    outer loop
    vertex 14.9033 5.59675 1.5
    vertex 12.9078 5.80649 1.5
    vertex 13.0967 5.59675 1.5
    endloop
  endfacet
  facet normal -0 0 1
    outer loop
    vertex 14.9033 5.59675 1.5
    vertex 13.0967 5.59675 1.5
    vertex 14.675 5.43087 1.5
    endloop
  endfacet
  facet normal 0 0 1
    outer loop
    vertex 14.675 5.43087 1.5
    vertex 13.0967 5.59675 1.5
    vertex 13.325 5.43087 1.5
    endloop
  endfacet
  facet normal -0 0 1
    outer loop
    vertex 14.675 5.43087 1.5
    vertex 13.325 5.43087 1.5
    vertex 14.4172 5.31607 1.5
    endloop
  endfacet
  facet normal 0 0 1
    outer loop
    vertex 14.4172 5.31607 1.5
    vertex 13.325 5.43087 1.5
    vertex 13.5828 5.31607 1.5
    endloop
  endfacet
  facet normal -0 0 1
    outer loop
    vertex 14.4172 5.31607 1.5
    vertex 13.5828 5.31607 1.5
    vertex 14.1411 5.25739 1.5
    endloop
  endfacet
  facet normal 0 0 1
    outer loop
    vertex 14.1411 5.25739 1.5
    vertex 13.5828 5.31607 1.5
    vertex 13.8589 5.25739 1.5
    endloop
  endfacet
  facet normal 0 0 1
    outer loop
    vertex 12.7667 7.14909 1.5
    vertex 15.2333 7.14909 1.5
    vertex 12.9078 7.39351 1.5
    endloop
  endfacet
  facet normal 0 0 1
    outer loop
    vertex 12.9078 7.39351 1.5
    vertex 15.2333 7.14909 1.5
    vertex 15.0922 7.39351 1.5
    endloop
  endfacet
  facet normal 0 0 1
    outer loop
    vertex 12.9078 7.39351 1.5
    vertex 15.0922 7.39351 1.5
    vertex 13.0967 7.60325 1.5
    endloop
  endfacet
  facet normal 0 0 1
    outer loop
    vertex 13.0967 7.60325 1.5
    vertex 15.0922 7.39351 1.5
    vertex 14.9033 7.60325 1.5
    endloop
  endfacet
  facet normal 0 0 1
    outer loop
    vertex 13.0967 7.60325 1.5
    vertex 14.9033 7.60325 1.5
    vertex 13.325 7.76913 1.5
    endloop
  endfacet
  facet normal 0 0 1
    outer loop
    vertex 13.325 7.76913 1.5
    vertex 14.9033 7.60325 1.5
    vertex 14.675 7.76913 1.5
    endloop
  endfacet
  facet normal 0 0 1
    outer loop
    vertex 13.325 7.76913 1.5
    vertex 14.675 7.76913 1.5
    vertex 13.5828 7.88393 1.5
    endloop
  endfacet
  facet normal 0 0 1
    outer loop
    vertex 13.5828 7.88393 1.5
    vertex 14.675 7.76913 1.5
    vertex 14.4172 7.88393 1.5
    endloop
  endfacet
  facet normal 0 0 1
    outer loop
    vertex 13.5828 7.88393 1.5
    vertex 14.4172 7.88393 1.5
    vertex 13.8589 7.9426 1.5
    endloop
  endfacet
  facet normal 0 0 1
    outer loop
    vertex 13.8589 7.9426 1.5
    vertex 14.4172 7.88393 1.5
    vertex 14.1411 7.9426 1.5
    endloop
  endfacet
endsolid rambo_base_lower_mount.stl
