<?xml version="1.0" encoding="utf-8"?>
<!-- Generator: Adobe Illustrator 14.0.0, SVG Export Plug-In . SVG Version: 6.00 Build 43363)  -->
<!DOCTYPE svg PUBLIC "-//W3C//DTD SVG 1.1//EN" "http://www.w3.org/Graphics/SVG/1.1/DTD/svg11.dtd">
<svg version="1.1" id="_x30_" xmlns="http://www.w3.org/2000/svg" xmlns:xlink="http://www.w3.org/1999/xlink" x="0px" y="0px"
	 width="841.89px" height="595.28px" viewBox="0 0 841.89 595.28" enable-background="new 0 0 841.89 595.28" xml:space="preserve">
<g id="ELLIPSE">
	<path fill="none" stroke="#000000" stroke-width="1.4173" stroke-linecap="round" stroke-linejoin="round" d="M447.704,222.094
		c-0.043-10.915-12.214-19.715-27.184-19.656c-14.97,0.06-27.07,8.956-27.027,19.871c0.043,10.915,12.214,19.715,27.184,19.656
		C435.647,241.906,447.748,233.009,447.704,222.094L447.704,222.094"/>
</g>
<g>
	<g id="ELLIPSE_1_">
		<path fill="none" stroke="#000000" stroke-width="1.4173" stroke-linecap="round" stroke-linejoin="round" d="M473.803,455.11
			c13.146-0.104,23.692-14.176,23.556-31.43c-0.137-17.255-10.904-31.157-24.051-31.053c-13.146,0.104-23.692,14.176-23.556,31.43
			C449.889,441.313,460.658,455.215,473.803,455.11L473.803,455.11"/>
	</g>
	<g id="ELLIPSE_3_">
		<path fill="none" stroke="#000000" stroke-width="1.4173" stroke-linecap="round" stroke-linejoin="round" d="M367.64,455.111
			c13.146,0,23.804-13.987,23.804-31.242s-10.658-31.243-23.804-31.243s-23.804,13.988-23.804,31.243
			S354.493,455.111,367.64,455.111L367.64,455.111"/>
	</g>
</g>
<g>
	<g id="ELLIPSE_2_">
		<path fill="none" stroke="#000000" stroke-width="1.4173" stroke-linecap="round" stroke-linejoin="round" d="M362.076,316.732
			c13.146,0,23.804-13.986,23.804-31.242c0-17.255-10.657-31.243-23.804-31.243s-23.804,13.988-23.804,31.243
			C338.272,302.746,348.929,316.732,362.076,316.732L362.076,316.732"/>
	</g>
	<g id="ELLIPSE_4_">
		<path fill="none" stroke="#000000" stroke-width="1.4173" stroke-linecap="round" stroke-linejoin="round" d="M479.367,316.732
			c13.146-0.104,23.692-14.176,23.556-31.43s-10.905-31.157-24.051-31.053c-13.146,0.104-23.692,14.176-23.556,31.43
			C455.453,302.934,466.22,316.836,479.367,316.732L479.367,316.732"/>
	</g>
</g>
<g>
	<g id="CIRCLE">
		<path fill="none" stroke="#000000" stroke-width="1.4173" stroke-linecap="round" stroke-linejoin="round" d="M394.297,187.888
			c0-6.119-4.962-11.081-11.081-11.081c-6.12,0-11.081,4.962-11.081,11.081c0,6.12,4.961,11.081,11.081,11.081
			C389.335,198.969,394.297,194.008,394.297,187.888L394.297,187.888L394.297,187.888z"/>
	</g>
	<g id="CIRCLE_1_">
		<path fill="none" stroke="#000000" stroke-width="1.4173" stroke-linecap="round" stroke-linejoin="round" d="M469.061,187.888
			c0-6.119-4.961-11.081-11.081-11.081s-11.081,4.962-11.081,11.081c0,6.12,4.961,11.081,11.081,11.081
			S469.061,194.008,469.061,187.888L469.061,187.888L469.061,187.888z"/>
	</g>
</g>
<path fill="none" stroke="#000000" stroke-width="1.4173" d="M515.295,305.947c6.711-16.074,6.928-32.448,0-48.402
	c-6.703-15.432-20.045-31.963-20.06-47.958c-0.013-13.422,9.487-25.089,12.526-41.473c3.418-18.425-0.455-31.449-12.2-41.135
	s-26.005-8.735-26.005-8.735c-9.375,0-16.563,1.959-29.494,8.539c-14.673,7.466-19.465,6.889-19.465,6.889
	s-4.792,0.577-19.465-6.889c-12.931-6.58-20.119-8.539-29.494-8.539c0,0-14.26-0.95-26.005,8.735s-15.618,22.709-12.201,41.135
	c3.039,16.384,12.539,28.051,12.527,41.473c-0.015,15.995-13.357,32.526-20.059,47.958c-6.929,15.954-6.712,32.328,0,48.402
	c6.738,16.136,19.988,37.386,19.843,49.737c0,0,1.013,9.491-5.328,22.846c-6.652,14.011-16.353,35.997-10.217,58.143
	c6.44,23.243,21.69,36.132,34.19,36.051c0,0,6.392,1.337,19.05-6.881s17.063-10.312,21.189-12.284
	c9.01-4.309,15.917-4.574,15.917-4.574s7.012,0.266,16.021,4.574c4.127,1.973,8.531,4.066,21.189,12.284s19.051,6.881,19.051,6.881
	c12.5,0.081,27.75-12.808,34.189-36.051c6.137-22.146-3.564-44.132-10.217-58.143c-6.341-13.354-5.328-22.846-5.328-22.846
	C495.307,343.333,508.557,322.083,515.295,305.947z"/>
</svg>
