solid rambo_base_upper_mount.stl
  facet normal -0.707106 0 0.707107
    outer loop
    vertex -0.375 -5.15 22.5
    vertex -0.375 2.65 22.5
    vertex -1.775 -3.75 21.1
    endloop
  endfacet
  facet normal 0 0 1
    outer loop
    vertex -0.375 2.65 22.5
    vertex -0.375 -5.15 22.5
    vertex 0.224999 2.65 22.5
    endloop
  endfacet
  facet normal -0 0.707106 0.707107
    outer loop
    vertex -1.775 -3.75 21.1
    vertex -11.7748 -5.15 22.5
    vertex -0.375 -5.15 22.5
    endloop
  endfacet
  facet normal 0 0 1
    outer loop
    vertex 0.224999 -7.25 22.5
    vertex -0.375 -5.15 22.5
    vertex -11.7748 -5.15 22.5
    endloop
  endfacet
  facet normal -0 0 1
    outer loop
    vertex 0.224999 2.65 22.5
    vertex -0.375 -5.15 22.5
    vertex 0.224999 -7.25 22.5
    endloop
  endfacet
  facet normal -0.707106 0 0.707107
    outer loop
    vertex -1.775 -3.75 21.1
    vertex -0.375 2.65 22.5
    vertex -1.775 2.0701 21.1
    endloop
  endfacet
  facet normal -0.707107 0.5 0.5
    outer loop
    vertex -0.375 2.65 22.5
    vertex -0.375 12.65 12.5
    vertex -1.775 2.0701 21.1
    endloop
  endfacet
  facet normal 0 0.707107 0.707107
    outer loop
    vertex -0.375 12.65 12.5
    vertex -0.375 2.65 22.5
    vertex 0.224999 12.65 12.5
    endloop
  endfacet
  facet normal -0 0.707107 0.707107
    outer loop
    vertex 0.224999 12.65 12.5
    vertex -0.375 2.65 22.5
    vertex 0.224999 2.65 22.5
    endloop
  endfacet
  facet normal -1 -0 0
    outer loop
    vertex -1.775 -3.75 21.1
    vertex -1.775 2.0701 21.1
    vertex -1.775 -1.75 12.5
    endloop
  endfacet
  facet normal 0 0.707106 0.707107
    outer loop
    vertex -11.7748 -3.75 21.1
    vertex -11.7748 -5.15 22.5
    vertex -1.775 -3.75 21.1
    endloop
  endfacet
  facet normal 0 1 -0
    outer loop
    vertex -1.775 -3.75 21.1
    vertex -6.00603 -3.75 15.351
    vertex -11.7748 -3.75 21.1
    endloop
  endfacet
  facet normal -1 0 0
    outer loop
    vertex -1.775 -1.75 12.5
    vertex -1.775 -3.75 12.5
    vertex -1.775 -3.75 21.1
    endloop
  endfacet
  facet normal -0 1 0
    outer loop
    vertex -1.775 -3.75 12.5
    vertex -4.60425 -3.75 14.02
    vertex -1.775 -3.75 21.1
    endloop
  endfacet
  facet normal 0 1 -0
    outer loop
    vertex -1.775 -3.75 21.1
    vertex -5.45 -3.75 14.795
    vertex -6.00603 -3.75 15.351
    endloop
  endfacet
  facet normal 0 1 -0
    outer loop
    vertex -1.775 -3.75 21.1
    vertex -4.60425 -3.75 14.02
    vertex -4.84746 -3.75 14.3185
    endloop
  endfacet
  facet normal 0 1 -0
    outer loop
    vertex -1.775 -3.75 21.1
    vertex -4.84746 -3.75 14.3185
    vertex -5.13138 -3.75 14.5787
    endloop
  endfacet
  facet normal -0 1 0
    outer loop
    vertex -5.13138 -3.75 14.5787
    vertex -5.45 -3.75 14.795
    vertex -1.775 -3.75 21.1
    endloop
  endfacet
  facet normal -0.707107 0.5 0.5
    outer loop
    vertex -1.775 2.0701 21.1
    vertex -0.375 12.65 12.5
    vertex -1.775 11.25 11.9201
    endloop
  endfacet
  facet normal -1 0 -0
    outer loop
    vertex -1.775 -1.75 12.5
    vertex -1.775 2.0701 21.1
    vertex -1.775 11.25 11.9201
    endloop
  endfacet
  facet normal -0.707107 0.707107 0
    outer loop
    vertex -1.775 11.25 11.9201
    vertex -0.375 12.65 12.5
    vertex -1.775 11.25 5
    endloop
  endfacet
  facet normal 0 1 -0
    outer loop
    vertex 0.224999 12.65 12.5
    vertex 0.224999 12.65 3
    vertex -0.375 12.65 12.5
    endloop
  endfacet
  facet normal -0.707107 0.707107 0
    outer loop
    vertex -1.775 11.25 5
    vertex -0.375 12.65 12.5
    vertex -0.375 12.65 1.7
    endloop
  endfacet
  facet normal 0 1 0
    outer loop
    vertex -0.375 12.65 12.5
    vertex -0.0750005 12.65 2.7
    vertex -0.375 12.65 1.7
    endloop
  endfacet
  facet normal 0 1 0
    outer loop
    vertex -0.375 12.65 12.5
    vertex 0.224999 12.65 3
    vertex -0.0750005 12.65 2.7
    endloop
  endfacet
  facet normal -1 -0 0
    outer loop
    vertex -1.775 -1.75 12.5
    vertex -1.775 11.25 11.9201
    vertex -1.775 -0.25 5
    endloop
  endfacet
  facet normal -1 0 -0
    outer loop
    vertex -1.775 -0.25 5
    vertex -1.775 11.25 11.9201
    vertex -1.775 11.25 5
    endloop
  endfacet
  facet normal -0.454167 0.629973 0.629974
    outer loop
    vertex -11.7748 -3.75 21.1
    vertex -11.775 -3.75 21.0999
    vertex -11.7748 -5.15 22.5
    endloop
  endfacet
  facet normal -0 1 0
    outer loop
    vertex -8.70254 -3.75 14.3185
    vertex -11.775 -3.75 21.0999
    vertex -11.7748 -3.75 21.1
    endloop
  endfacet
  facet normal 0 1 0
    outer loop
    vertex -11.7748 -3.75 21.1
    vertex -6.00603 -3.75 15.351
    vertex -7.54397 -3.75 15.351
    endloop
  endfacet
  facet normal 0 1 0
    outer loop
    vertex -11.7748 -3.75 21.1
    vertex -7.54397 -3.75 15.351
    vertex -8.1 -3.75 14.795
    endloop
  endfacet
  facet normal 0 1 0
    outer loop
    vertex -8.41862 -3.75 14.5787
    vertex -11.7748 -3.75 21.1
    vertex -8.1 -3.75 14.795
    endloop
  endfacet
  facet normal 0 1 0
    outer loop
    vertex -8.70254 -3.75 14.3185
    vertex -11.7748 -3.75 21.1
    vertex -8.41862 -3.75 14.5787
    endloop
  endfacet
  facet normal 0 0 1
    outer loop
    vertex 0.224999 -7.25 22.5
    vertex -11.7748 -5.15 22.5
    vertex -14.775 -7.25 22.5
    endloop
  endfacet
  facet normal -0.443588 0.633731 0.633731
    outer loop
    vertex -11.7748 -5.15 22.5
    vertex -11.775 -3.75 21.0999
    vertex -14.775 -7.25 22.5
    endloop
  endfacet
  facet normal 1 -0 0
    outer loop
    vertex 0.224999 2.65 22.5
    vertex 0.224999 -7.25 17
    vertex 0.224999 12.65 12.5
    endloop
  endfacet
  facet normal 1 -0 0
    outer loop
    vertex 0.224999 12.65 12.5
    vertex 0.224999 -7.25 8
    vertex 0.224999 12.65 3
    endloop
  endfacet
  facet normal 1 0 0
    outer loop
    vertex 0.224999 12.65 12.5
    vertex 0.224999 -7.25 17
    vertex 0.224999 -7.25 8
    endloop
  endfacet
  facet normal 1 -0 0
    outer loop
    vertex 0.224999 2.65 22.5
    vertex 0.224999 -7.25 22.5
    vertex 0.224999 -7.25 17
    endloop
  endfacet
  facet normal 0 -1 0
    outer loop
    vertex -14.775 -7.25 22.5
    vertex 0.224999 -7.25 17
    vertex 0.224999 -7.25 22.5
    endloop
  endfacet
  facet normal -0.443587 0.633731 0.633731
    outer loop
    vertex -14.775 -7.25 22.5
    vertex -11.775 -3.75 21.0999
    vertex -14.775 -1.75 17
    endloop
  endfacet
  facet normal -1 0 0
    outer loop
    vertex -14.775 -1.75 17
    vertex -14.775 -7.25 17
    vertex -14.775 -7.25 22.5
    endloop
  endfacet
  facet normal 0 -1 0
    outer loop
    vertex -14.775 -7.25 17
    vertex 0.224999 -7.25 17
    vertex -14.775 -7.25 22.5
    endloop
  endfacet
  facet normal -0.443587 0.633731 0.633731
    outer loop
    vertex -14.775 -1.75 17
    vertex -11.775 -3.75 21.0999
    vertex -11.775 -1.75 19.0999
    endloop
  endfacet
  facet normal 1 0 0
    outer loop
    vertex -11.775 -3.75 21.0999
    vertex -11.775 -3.75 12.5
    vertex -11.775 -1.75 19.0999
    endloop
  endfacet
  facet normal 0 1 0
    outer loop
    vertex -8.94575 -3.75 14.02
    vertex -11.775 -3.75 12.5
    vertex -11.775 -3.75 21.0999
    endloop
  endfacet
  facet normal 0 1 0
    outer loop
    vertex -8.94575 -3.75 14.02
    vertex -11.775 -3.75 21.0999
    vertex -8.70254 -3.75 14.3185
    endloop
  endfacet
  facet normal 0 1 -0
    outer loop
    vertex -11.775 -1.75 19.0999
    vertex -11.775 -1.75 12.5
    vertex -14.775 -1.75 17
    endloop
  endfacet
  facet normal 0 1 0
    outer loop
    vertex -14.775 -1.75 17
    vertex -11.7476 -1.75 11.9774
    vertex -14.775 -1.75 6.5
    endloop
  endfacet
  facet normal -1 0 0
    outer loop
    vertex -14.775 -1.75 6.5
    vertex -14.775 -7.25 8
    vertex -14.775 -1.75 17
    endloop
  endfacet
  facet normal 0 1 0
    outer loop
    vertex -14.775 -1.75 17
    vertex -11.775 -1.75 12.5
    vertex -11.7476 -1.75 11.9774
    endloop
  endfacet
  facet normal -1 0 0
    outer loop
    vertex -14.775 -1.75 17
    vertex -14.775 -7.25 8
    vertex -14.775 -7.25 17
    endloop
  endfacet
  facet normal 1 0 0
    outer loop
    vertex -11.775 -1.75 19.0999
    vertex -11.775 -3.75 12.5
    vertex -11.775 -1.75 12.5
    endloop
  endfacet
  facet normal -1 0 0
    outer loop
    vertex -1.775 -0.25 5
    vertex -1.775 -1.75 6.5
    vertex -1.775 -1.75 12.5
    endloop
  endfacet
  facet normal -0 1 0
    outer loop
    vertex -1.775 -1.75 6.5
    vertex -1.80239 -1.75 11.9774
    vertex -1.775 -1.75 12.5
    endloop
  endfacet
  facet normal -0.99863 0 0.0523363
    outer loop
    vertex -1.775 -1.75 12.5
    vertex -1.80239 -1.75 11.9774
    vertex -1.775 -3.75 12.5
    endloop
  endfacet
  facet normal 0 -0 1
    outer loop
    vertex -13.275 -0.25 5
    vertex -1.775 -0.25 5
    vertex -1.775 11.25 5
    endloop
  endfacet
  facet normal 0 0.707107 0.707107
    outer loop
    vertex -13.275 -0.25 5
    vertex -1.775 -1.75 6.5
    vertex -1.775 -0.25 5
    endloop
  endfacet
  facet normal -0.707107 0.707107 -7.55201e-009
    outer loop
    vertex -1.775 11.25 5
    vertex -0.375 12.65 1.7
    vertex -13.275 -0.25 5
    endloop
  endfacet
  facet normal 0 0.707107 0.707107
    outer loop
    vertex -14.775 -1.75 6.5
    vertex -1.775 -1.75 6.5
    vertex -13.275 -0.25 5
    endloop
  endfacet
  facet normal 0 1 0
    outer loop
    vertex -14.775 -1.75 6.5
    vertex -7.29764 -1.75 7.52739
    vertex -1.775 -1.75 6.5
    endloop
  endfacet
  facet normal 0 1 0
    outer loop
    vertex -1.775 -1.75 6.5
    vertex -7.29764 -1.75 7.52739
    vertex -6.775 -1.75 7.5
    endloop
  endfacet
  facet normal -0 1 0
    outer loop
    vertex -1.775 -1.75 6.5
    vertex -6.775 -1.75 7.5
    vertex -6.25236 -1.75 7.52739
    endloop
  endfacet
  facet normal 0 1 0
    outer loop
    vertex -6.25236 -1.75 7.52739
    vertex -5.73544 -1.75 7.60926
    vertex -1.775 -1.75 6.5
    endloop
  endfacet
  facet normal -0 1 0
    outer loop
    vertex -1.775 -1.75 6.5
    vertex -5.73544 -1.75 7.60926
    vertex -5.22992 -1.75 7.74472
    endloop
  endfacet
  facet normal -0 1 0
    outer loop
    vertex -1.775 -1.75 6.5
    vertex -5.22992 -1.75 7.74472
    vertex -4.74132 -1.75 7.93227
    endloop
  endfacet
  facet normal 0 1 0
    outer loop
    vertex -4.74132 -1.75 7.93227
    vertex -4.275 -1.75 8.16987
    vertex -1.775 -1.75 6.5
    endloop
  endfacet
  facet normal -0 1 0
    outer loop
    vertex -1.775 -1.75 6.5
    vertex -4.275 -1.75 8.16987
    vertex -3.83608 -1.75 8.45492
    endloop
  endfacet
  facet normal -0 1 0
    outer loop
    vertex -1.775 -1.75 6.5
    vertex -3.83608 -1.75 8.45492
    vertex -3.42935 -1.75 8.78428
    endloop
  endfacet
  facet normal 0 1 0
    outer loop
    vertex -3.42935 -1.75 8.78428
    vertex -3.05928 -1.75 9.15435
    vertex -1.775 -1.75 6.5
    endloop
  endfacet
  facet normal -0 1 0
    outer loop
    vertex -1.775 -1.75 6.5
    vertex -3.05928 -1.75 9.15435
    vertex -2.72992 -1.75 9.56107
    endloop
  endfacet
  facet normal -0 1 0
    outer loop
    vertex -1.775 -1.75 6.5
    vertex -2.72992 -1.75 9.56107
    vertex -2.44487 -1.75 10
    endloop
  endfacet
  facet normal 0 1 0
    outer loop
    vertex -2.44487 -1.75 10
    vertex -2.20727 -1.75 10.4663
    vertex -1.775 -1.75 6.5
    endloop
  endfacet
  facet normal -0 1 0
    outer loop
    vertex -1.775 -1.75 6.5
    vertex -2.20727 -1.75 10.4663
    vertex -2.01972 -1.75 10.9549
    endloop
  endfacet
  facet normal -0 1 0
    outer loop
    vertex -1.775 -1.75 6.5
    vertex -2.01972 -1.75 10.9549
    vertex -1.88426 -1.75 11.4604
    endloop
  endfacet
  facet normal 0 1 0
    outer loop
    vertex -1.88426 -1.75 11.4604
    vertex -1.80239 -1.75 11.9774
    vertex -1.775 -1.75 6.5
    endloop
  endfacet
  facet normal -0.99863 0 0.0523363
    outer loop
    vertex -1.775 -3.75 12.5
    vertex -1.80239 -1.75 11.9774
    vertex -1.80239 -3.75 11.9774
    endloop
  endfacet
  facet normal 0 1 0
    outer loop
    vertex -1.80239 -3.75 11.9774
    vertex -4.12612 -3.75 12.5771
    vertex -1.775 -3.75 12.5
    endloop
  endfacet
  facet normal -0 1 -0
    outer loop
    vertex -1.775 -3.75 12.5
    vertex -4.40687 -3.75 13.6893
    vertex -4.60425 -3.75 14.02
    endloop
  endfacet
  facet normal -0 1 -0
    outer loop
    vertex -1.775 -3.75 12.5
    vertex -4.12612 -3.75 12.5771
    vertex -4.16526 -3.75 12.9602
    endloop
  endfacet
  facet normal -0 1 -0
    outer loop
    vertex -1.775 -3.75 12.5
    vertex -4.16526 -3.75 12.9602
    vertex -4.25951 -3.75 13.3335
    endloop
  endfacet
  facet normal 0 1 0
    outer loop
    vertex -4.25951 -3.75 13.3335
    vertex -4.40687 -3.75 13.6893
    vertex -1.775 -3.75 12.5
    endloop
  endfacet
  facet normal -0.707107 0.707107 -3.62931e-007
    outer loop
    vertex -13.275 -0.25 5
    vertex -0.375 12.65 1.7
    vertex -14.775 -1.75 1.7
    endloop
  endfacet
  facet normal -0.5 0.5 -0.707107
    outer loop
    vertex -0.375 12.65 1.7
    vertex 0.329162 10.95 0
    vertex -14.775 -1.75 1.7
    endloop
  endfacet
  facet normal 0 1 0
    outer loop
    vertex -0.375 12.65 1.7
    vertex -0.0750005 12.65 2.7
    vertex -0.0750005 12.65 2.5
    endloop
  endfacet
  facet normal 0 1 0
    outer loop
    vertex -0.375 12.65 1.7
    vertex -0.0750005 12.65 2.5
    vertex 11.775 12.65 1.7
    endloop
  endfacet
  facet normal 0 0.707107 -0.707107
    outer loop
    vertex -0.375 12.65 1.7
    vertex 11.775 12.65 1.7
    vertex 0.329162 10.95 0
    endloop
  endfacet
  facet normal -0.707107 0.707106 0
    outer loop
    vertex -13.275 -0.25 5
    vertex -14.775 -1.75 1.7
    vertex -14.775 -1.75 6.5
    endloop
  endfacet
  facet normal -1 0 0
    outer loop
    vertex -14.775 -1.75 6.5
    vertex -14.775 -1.75 1.7
    vertex -14.775 -7.25 2.4
    endloop
  endfacet
  facet normal -0.707107 -0 -0.707107
    outer loop
    vertex -14.775 -12.65 1.7
    vertex -14.775 -1.75 1.7
    vertex -13.075 -10.95 0
    endloop
  endfacet
  facet normal -0.707107 0 -0.707107
    outer loop
    vertex -13.075 -10.95 0
    vertex -14.775 -1.75 1.7
    vertex -13.075 -2.45416 0
    endloop
  endfacet
  facet normal -1 0 0
    outer loop
    vertex -14.775 -7.25 2.4
    vertex -14.775 -1.75 1.7
    vertex -14.775 -12.65 1.7
    endloop
  endfacet
  facet normal -0.5 0.5 -0.707107
    outer loop
    vertex -14.775 -1.75 1.7
    vertex 0.329162 10.95 0
    vertex -13.075 -2.45416 0
    endloop
  endfacet
  facet normal 0 1 0
    outer loop
    vertex -14.775 -1.75 6.5
    vertex -7.81456 -1.75 7.60926
    vertex -7.29764 -1.75 7.52739
    endloop
  endfacet
  facet normal 0 1 0
    outer loop
    vertex -14.775 -1.75 6.5
    vertex -11.7476 -1.75 11.9774
    vertex -11.6657 -1.75 11.4604
    endloop
  endfacet
  facet normal 0 1 0
    outer loop
    vertex -14.775 -1.75 6.5
    vertex -11.6657 -1.75 11.4604
    vertex -11.5303 -1.75 10.9549
    endloop
  endfacet
  facet normal 0 1 0
    outer loop
    vertex -11.5303 -1.75 10.9549
    vertex -11.3427 -1.75 10.4663
    vertex -14.775 -1.75 6.5
    endloop
  endfacet
  facet normal 0 1 0
    outer loop
    vertex -14.775 -1.75 6.5
    vertex -11.3427 -1.75 10.4663
    vertex -11.1051 -1.75 10
    endloop
  endfacet
  facet normal 0 1 0
    outer loop
    vertex -14.775 -1.75 6.5
    vertex -11.1051 -1.75 10
    vertex -10.8201 -1.75 9.56107
    endloop
  endfacet
  facet normal 0 1 0
    outer loop
    vertex -10.8201 -1.75 9.56107
    vertex -10.4907 -1.75 9.15435
    vertex -14.775 -1.75 6.5
    endloop
  endfacet
  facet normal 0 1 0
    outer loop
    vertex -14.775 -1.75 6.5
    vertex -10.4907 -1.75 9.15435
    vertex -10.1207 -1.75 8.78428
    endloop
  endfacet
  facet normal 0 1 0
    outer loop
    vertex -14.775 -1.75 6.5
    vertex -10.1207 -1.75 8.78428
    vertex -9.71393 -1.75 8.45492
    endloop
  endfacet
  facet normal 0 1 0
    outer loop
    vertex -9.71393 -1.75 8.45492
    vertex -9.275 -1.75 8.16987
    vertex -14.775 -1.75 6.5
    endloop
  endfacet
  facet normal 0 1 0
    outer loop
    vertex -14.775 -1.75 6.5
    vertex -9.275 -1.75 8.16987
    vertex -8.80868 -1.75 7.93227
    endloop
  endfacet
  facet normal 0 1 0
    outer loop
    vertex -14.775 -1.75 6.5
    vertex -8.80868 -1.75 7.93227
    vertex -8.32009 -1.75 7.74472
    endloop
  endfacet
  facet normal 0 1 0
    outer loop
    vertex -8.32009 -1.75 7.74472
    vertex -7.81456 -1.75 7.60926
    vertex -14.775 -1.75 6.5
    endloop
  endfacet
  facet normal -1 0 0
    outer loop
    vertex -14.775 -7.25 2.4
    vertex -14.775 -7.25 8
    vertex -14.775 -1.75 6.5
    endloop
  endfacet
  facet normal 0.707107 0 -0.707106
    outer loop
    vertex 0.224999 -7.25 3
    vertex -0.0750005 12.65 2.7
    vertex 0.224999 12.65 3
    endloop
  endfacet
  facet normal 1 0 0
    outer loop
    vertex 0.224999 12.65 3
    vertex 0.224999 -7.25 8
    vertex 0.224999 -7.25 3
    endloop
  endfacet
  facet normal 1 0 -0
    outer loop
    vertex -0.0750005 -7.25 2.7
    vertex -0.0750005 12.65 2.5
    vertex -0.0750005 12.65 2.7
    endloop
  endfacet
  facet normal 0.707107 0 -0.707106
    outer loop
    vertex -0.0750005 -7.25 2.7
    vertex -0.0750005 12.65 2.7
    vertex 0.224999 -7.25 3
    endloop
  endfacet
  facet normal -0 1 0
    outer loop
    vertex 11.775 12.65 1.7
    vertex -0.0750005 12.65 2.5
    vertex 11.775 12.65 2.5
    endloop
  endfacet
  facet normal 0 -0 1
    outer loop
    vertex -0.0750005 12.65 2.5
    vertex 6.35946 9.275 2.5
    vertex 11.775 12.65 2.5
    endloop
  endfacet
  facet normal 0 0 1
    outer loop
    vertex 6.35946 9.275 2.5
    vertex -0.0750005 12.65 2.5
    vertex 4.84391 6.65 2.5
    endloop
  endfacet
  facet normal 0 0 1
    outer loop
    vertex 4.84391 6.65 2.5
    vertex -0.0750005 12.65 2.5
    vertex -0.0750005 -7.25 2.5
    endloop
  endfacet
  facet normal 1 0 0
    outer loop
    vertex -0.0750005 -7.25 2.5
    vertex -0.0750005 12.65 2.5
    vertex -0.0750005 -7.25 2.7
    endloop
  endfacet
  facet normal 0.707107 0.707107 0
    outer loop
    vertex 11.775 12.65 1.7
    vertex 11.775 12.65 2.5
    vertex 14.775 9.65 1.7
    endloop
  endfacet
  facet normal 0.5 0.5 -0.707107
    outer loop
    vertex 11.775 12.65 1.7
    vertex 14.775 9.65 1.7
    vertex 11.0708 10.95 0
    endloop
  endfacet
  facet normal 0 0.707107 -0.707107
    outer loop
    vertex 0.329162 10.95 0
    vertex 11.775 12.65 1.7
    vertex 11.0708 10.95 0
    endloop
  endfacet
  facet normal -0 0 1
    outer loop
    vertex 11.775 12.65 2.5
    vertex 9.39054 9.275 2.5
    vertex 10.9061 6.65 2.5
    endloop
  endfacet
  facet normal 0 0 1
    outer loop
    vertex 11.775 12.65 2.5
    vertex 6.35946 9.275 2.5
    vertex 9.39054 9.275 2.5
    endloop
  endfacet
  facet normal 0 0 1
    outer loop
    vertex 10.9061 6.65 2.5
    vertex 14.775 9.65 2.5
    vertex 11.775 12.65 2.5
    endloop
  endfacet
  facet normal 0.707107 0.707107 0
    outer loop
    vertex 14.775 9.65 1.7
    vertex 11.775 12.65 2.5
    vertex 14.775 9.65 2.5
    endloop
  endfacet
  facet normal 0.0523357 0 0.99863
    outer loop
    vertex -6.775 -3.75 7.5
    vertex -6.775 -1.75 7.5
    vertex -7.29764 -1.75 7.52739
    endloop
  endfacet
  facet normal 0.156435 0 0.987688
    outer loop
    vertex -7.29764 -3.75 7.52739
    vertex -7.29764 -1.75 7.52739
    vertex -7.81456 -1.75 7.60926
    endloop
  endfacet
  facet normal 0.0523357 0 0.99863
    outer loop
    vertex -6.775 -3.75 7.5
    vertex -7.29764 -1.75 7.52739
    vertex -7.29764 -3.75 7.52739
    endloop
  endfacet
  facet normal -0.0523359 0 0.99863
    outer loop
    vertex -6.25236 -3.75 7.52739
    vertex -6.25236 -1.75 7.52739
    vertex -6.775 -1.75 7.5
    endloop
  endfacet
  facet normal -0.0523359 0 0.99863
    outer loop
    vertex -6.25236 -3.75 7.52739
    vertex -6.775 -1.75 7.5
    vertex -6.775 -3.75 7.5
    endloop
  endfacet
  facet normal -0.156435 0 0.987688
    outer loop
    vertex -5.73544 -3.75 7.60926
    vertex -5.73544 -1.75 7.60926
    vertex -6.25236 -1.75 7.52739
    endloop
  endfacet
  facet normal -0.156435 0 0.987688
    outer loop
    vertex -5.73544 -3.75 7.60926
    vertex -6.25236 -1.75 7.52739
    vertex -6.25236 -3.75 7.52739
    endloop
  endfacet
  facet normal 0.987689 0 0.156432
    outer loop
    vertex -11.6657 -3.75 11.4604
    vertex -11.6657 -1.75 11.4604
    vertex -11.7476 -1.75 11.9774
    endloop
  endfacet
  facet normal 0.99863 0 0.0523341
    outer loop
    vertex -11.775 -3.75 12.5
    vertex -11.7476 -1.75 11.9774
    vertex -11.775 -1.75 12.5
    endloop
  endfacet
  facet normal 0.987689 0 0.156432
    outer loop
    vertex -11.6657 -3.75 11.4604
    vertex -11.7476 -1.75 11.9774
    vertex -11.7476 -3.75 11.9774
    endloop
  endfacet
  facet normal 0.99863 0 0.0523341
    outer loop
    vertex -11.7476 -3.75 11.9774
    vertex -11.7476 -1.75 11.9774
    vertex -11.775 -3.75 12.5
    endloop
  endfacet
  facet normal 0.965925 0 0.258821
    outer loop
    vertex -11.5303 -3.75 10.9549
    vertex -11.5303 -1.75 10.9549
    vertex -11.6657 -1.75 11.4604
    endloop
  endfacet
  facet normal 0.965925 0 0.258821
    outer loop
    vertex -11.5303 -3.75 10.9549
    vertex -11.6657 -1.75 11.4604
    vertex -11.6657 -3.75 11.4604
    endloop
  endfacet
  facet normal 0.93358 0 0.358368
    outer loop
    vertex -11.3427 -3.75 10.4663
    vertex -11.3427 -1.75 10.4663
    vertex -11.5303 -1.75 10.9549
    endloop
  endfacet
  facet normal 0.93358 0 0.358368
    outer loop
    vertex -11.3427 -3.75 10.4663
    vertex -11.5303 -1.75 10.9549
    vertex -11.5303 -3.75 10.9549
    endloop
  endfacet
  facet normal 0.891007 0 0.45399
    outer loop
    vertex -11.1051 -3.75 10
    vertex -11.1051 -1.75 10
    vertex -11.3427 -1.75 10.4663
    endloop
  endfacet
  facet normal 0.891007 0 0.45399
    outer loop
    vertex -11.1051 -3.75 10
    vertex -11.3427 -1.75 10.4663
    vertex -11.3427 -3.75 10.4663
    endloop
  endfacet
  facet normal 0.838671 0 0.544638
    outer loop
    vertex -10.8201 -3.75 9.56107
    vertex -10.8201 -1.75 9.56107
    vertex -11.1051 -1.75 10
    endloop
  endfacet
  facet normal 0.838671 0 0.544638
    outer loop
    vertex -10.8201 -3.75 9.56107
    vertex -11.1051 -1.75 10
    vertex -11.1051 -3.75 10
    endloop
  endfacet
  facet normal 0.777145 0 0.629321
    outer loop
    vertex -10.4907 -3.75 9.15435
    vertex -10.4907 -1.75 9.15435
    vertex -10.8201 -1.75 9.56107
    endloop
  endfacet
  facet normal 0.777145 0 0.629321
    outer loop
    vertex -10.4907 -3.75 9.15435
    vertex -10.8201 -1.75 9.56107
    vertex -10.8201 -3.75 9.56107
    endloop
  endfacet
  facet normal 0.707108 0 0.707106
    outer loop
    vertex -10.1207 -3.75 8.78428
    vertex -10.1207 -1.75 8.78428
    vertex -10.4907 -1.75 9.15435
    endloop
  endfacet
  facet normal 0.707108 0 0.707106
    outer loop
    vertex -10.1207 -3.75 8.78428
    vertex -10.4907 -1.75 9.15435
    vertex -10.4907 -3.75 9.15435
    endloop
  endfacet
  facet normal 0.62932 0 0.777147
    outer loop
    vertex -9.71393 -3.75 8.45492
    vertex -9.71393 -1.75 8.45492
    vertex -10.1207 -1.75 8.78428
    endloop
  endfacet
  facet normal 0.62932 0 0.777147
    outer loop
    vertex -9.71393 -3.75 8.45492
    vertex -10.1207 -1.75 8.78428
    vertex -10.1207 -3.75 8.78428
    endloop
  endfacet
  facet normal 0.544638 0 0.838671
    outer loop
    vertex -9.275 -3.75 8.16987
    vertex -9.275 -1.75 8.16987
    vertex -9.71393 -1.75 8.45492
    endloop
  endfacet
  facet normal 0.544638 0 0.838671
    outer loop
    vertex -9.275 -3.75 8.16987
    vertex -9.71393 -1.75 8.45492
    vertex -9.71393 -3.75 8.45492
    endloop
  endfacet
  facet normal 0.453992 0 0.891006
    outer loop
    vertex -8.80868 -3.75 7.93227
    vertex -8.80868 -1.75 7.93227
    vertex -9.275 -1.75 8.16987
    endloop
  endfacet
  facet normal 0.453992 0 0.891006
    outer loop
    vertex -8.80868 -3.75 7.93227
    vertex -9.275 -1.75 8.16987
    vertex -9.275 -3.75 8.16987
    endloop
  endfacet
  facet normal 0.358368 0 0.933581
    outer loop
    vertex -8.32009 -3.75 7.74472
    vertex -8.32009 -1.75 7.74472
    vertex -8.80868 -1.75 7.93227
    endloop
  endfacet
  facet normal 0.358368 0 0.933581
    outer loop
    vertex -8.32009 -3.75 7.74472
    vertex -8.80868 -1.75 7.93227
    vertex -8.80868 -3.75 7.93227
    endloop
  endfacet
  facet normal 0.258819 0 0.965926
    outer loop
    vertex -7.81456 -3.75 7.60926
    vertex -7.81456 -1.75 7.60926
    vertex -8.32009 -1.75 7.74472
    endloop
  endfacet
  facet normal 0.258819 0 0.965926
    outer loop
    vertex -7.81456 -3.75 7.60926
    vertex -8.32009 -1.75 7.74472
    vertex -8.32009 -3.75 7.74472
    endloop
  endfacet
  facet normal 0.156435 0 0.987688
    outer loop
    vertex -7.29764 -3.75 7.52739
    vertex -7.81456 -1.75 7.60926
    vertex -7.81456 -3.75 7.60926
    endloop
  endfacet
  facet normal -0.25882 0 0.965926
    outer loop
    vertex -5.22992 -3.75 7.74472
    vertex -5.22992 -1.75 7.74472
    vertex -5.73544 -1.75 7.60926
    endloop
  endfacet
  facet normal -0.25882 0 0.965926
    outer loop
    vertex -5.22992 -3.75 7.74472
    vertex -5.73544 -1.75 7.60926
    vertex -5.73544 -3.75 7.60926
    endloop
  endfacet
  facet normal -0.358367 0 0.933581
    outer loop
    vertex -4.74132 -3.75 7.93227
    vertex -4.74132 -1.75 7.93227
    vertex -5.22992 -1.75 7.74472
    endloop
  endfacet
  facet normal -0.358367 0 0.933581
    outer loop
    vertex -4.74132 -3.75 7.93227
    vertex -5.22992 -1.75 7.74472
    vertex -5.22992 -3.75 7.74472
    endloop
  endfacet
  facet normal -0.453989 0 0.891007
    outer loop
    vertex -4.275 -3.75 8.16987
    vertex -4.275 -1.75 8.16987
    vertex -4.74132 -1.75 7.93227
    endloop
  endfacet
  facet normal -0.453989 0 0.891007
    outer loop
    vertex -4.275 -3.75 8.16987
    vertex -4.74132 -1.75 7.93227
    vertex -4.74132 -3.75 7.93227
    endloop
  endfacet
  facet normal -0.544641 0 0.838669
    outer loop
    vertex -3.83608 -3.75 8.45492
    vertex -3.83608 -1.75 8.45492
    vertex -4.275 -1.75 8.16987
    endloop
  endfacet
  facet normal -0.544641 0 0.838669
    outer loop
    vertex -3.83608 -3.75 8.45492
    vertex -4.275 -1.75 8.16987
    vertex -4.275 -3.75 8.16987
    endloop
  endfacet
  facet normal -0.629321 0 0.777146
    outer loop
    vertex -3.42935 -3.75 8.78428
    vertex -3.42935 -1.75 8.78428
    vertex -3.83608 -1.75 8.45492
    endloop
  endfacet
  facet normal -0.629321 0 0.777146
    outer loop
    vertex -3.42935 -3.75 8.78428
    vertex -3.83608 -1.75 8.45492
    vertex -3.83608 -3.75 8.45492
    endloop
  endfacet
  facet normal -0.707106 0 0.707107
    outer loop
    vertex -3.05928 -3.75 9.15435
    vertex -3.05928 -1.75 9.15435
    vertex -3.42935 -1.75 8.78428
    endloop
  endfacet
  facet normal -0.707106 0 0.707107
    outer loop
    vertex -3.05928 -3.75 9.15435
    vertex -3.42935 -1.75 8.78428
    vertex -3.42935 -3.75 8.78428
    endloop
  endfacet
  facet normal -0.777145 0 0.629321
    outer loop
    vertex -2.72992 -3.75 9.56107
    vertex -2.72992 -1.75 9.56107
    vertex -3.05928 -1.75 9.15435
    endloop
  endfacet
  facet normal -0.777145 0 0.629321
    outer loop
    vertex -2.72992 -3.75 9.56107
    vertex -3.05928 -1.75 9.15435
    vertex -3.05928 -3.75 9.15435
    endloop
  endfacet
  facet normal -0.838671 0 0.544638
    outer loop
    vertex -2.44487 -3.75 10
    vertex -2.44487 -1.75 10
    vertex -2.72992 -1.75 9.56107
    endloop
  endfacet
  facet normal -0.838671 0 0.544638
    outer loop
    vertex -2.44487 -3.75 10
    vertex -2.72992 -1.75 9.56107
    vertex -2.72992 -3.75 9.56107
    endloop
  endfacet
  facet normal -0.891006 0 0.453991
    outer loop
    vertex -2.20727 -3.75 10.4663
    vertex -2.20727 -1.75 10.4663
    vertex -2.44487 -1.75 10
    endloop
  endfacet
  facet normal -0.891006 0 0.453991
    outer loop
    vertex -2.20727 -3.75 10.4663
    vertex -2.44487 -1.75 10
    vertex -2.44487 -3.75 10
    endloop
  endfacet
  facet normal -0.933581 0 0.358367
    outer loop
    vertex -2.01972 -3.75 10.9549
    vertex -2.01972 -1.75 10.9549
    vertex -2.20727 -1.75 10.4663
    endloop
  endfacet
  facet normal -0.933581 0 0.358367
    outer loop
    vertex -2.01972 -3.75 10.9549
    vertex -2.20727 -1.75 10.4663
    vertex -2.20727 -3.75 10.4663
    endloop
  endfacet
  facet normal -0.965926 0 0.25882
    outer loop
    vertex -1.88426 -3.75 11.4604
    vertex -1.88426 -1.75 11.4604
    vertex -2.01972 -1.75 10.9549
    endloop
  endfacet
  facet normal -0.965926 0 0.25882
    outer loop
    vertex -1.88426 -3.75 11.4604
    vertex -2.01972 -1.75 10.9549
    vertex -2.01972 -3.75 10.9549
    endloop
  endfacet
  facet normal -0.987688 0 0.156435
    outer loop
    vertex -1.80239 -3.75 11.9774
    vertex -1.80239 -1.75 11.9774
    vertex -1.88426 -1.75 11.4604
    endloop
  endfacet
  facet normal -0.987688 0 0.156435
    outer loop
    vertex -1.80239 -3.75 11.9774
    vertex -1.88426 -1.75 11.4604
    vertex -1.88426 -3.75 11.4604
    endloop
  endfacet
  facet normal 0 -0.707106 0.707107
    outer loop
    vertex 9.21734 4.325 5.3
    vertex 6.53266 4.325 5.3
    vertex 9.39054 4.025 5
    endloop
  endfacet
  facet normal 0 0 1
    outer loop
    vertex 7.73842 5.30693 5.3
    vertex 6.53266 4.325 5.3
    vertex 9.21734 4.325 5.3
    endloop
  endfacet
  facet normal 0.612373 -0.353553 0.707107
    outer loop
    vertex 9.39054 4.025 5
    vertex 10.5597 6.65 5.3
    vertex 9.21734 4.325 5.3
    endloop
  endfacet
  facet normal 0 -0 1
    outer loop
    vertex 8.94255 5.82366 5.3
    vertex 9.21734 4.325 5.3
    vertex 10.5597 6.65 5.3
    endloop
  endfacet
  facet normal 0 0 1
    outer loop
    vertex 7.73842 5.30693 5.3
    vertex 9.21734 4.325 5.3
    vertex 8.01158 5.30693 5.3
    endloop
  endfacet
  facet normal 0 0 1
    outer loop
    vertex 8.01158 5.30693 5.3
    vertex 9.21734 4.325 5.3
    vertex 8.27914 5.36191 5.3
    endloop
  endfacet
  facet normal 0 0 1
    outer loop
    vertex 8.27914 5.36191 5.3
    vertex 9.21734 4.325 5.3
    vertex 8.53016 5.46963 5.3
    endloop
  endfacet
  facet normal 0 0 1
    outer loop
    vertex 8.53016 5.46963 5.3
    vertex 9.21734 4.325 5.3
    vertex 8.75435 5.62568 5.3
    endloop
  endfacet
  facet normal 0 0 1
    outer loop
    vertex 8.75435 5.62568 5.3
    vertex 9.21734 4.325 5.3
    vertex 8.94255 5.82366 5.3
    endloop
  endfacet
  facet normal 0 -0.707106 0.707107
    outer loop
    vertex 9.39054 4.025 5
    vertex 6.53266 4.325 5.3
    vertex 6.35946 4.025 5
    endloop
  endfacet
  facet normal -0.612372 -0.353553 0.707107
    outer loop
    vertex 6.53266 4.325 5.3
    vertex 5.19032 6.65 5.3
    vertex 6.35946 4.025 5
    endloop
  endfacet
  facet normal 0 0 1
    outer loop
    vertex 6.80745 5.82366 5.3
    vertex 5.19032 6.65 5.3
    vertex 6.53266 4.325 5.3
    endloop
  endfacet
  facet normal 0 0 1
    outer loop
    vertex 6.80745 5.82366 5.3
    vertex 6.53266 4.325 5.3
    vertex 6.99565 5.62568 5.3
    endloop
  endfacet
  facet normal 0 0 1
    outer loop
    vertex 6.99565 5.62568 5.3
    vertex 6.53266 4.325 5.3
    vertex 7.21984 5.46963 5.3
    endloop
  endfacet
  facet normal 0 0 1
    outer loop
    vertex 7.21984 5.46963 5.3
    vertex 6.53266 4.325 5.3
    vertex 7.47086 5.36191 5.3
    endloop
  endfacet
  facet normal 0 0 1
    outer loop
    vertex 7.47086 5.36191 5.3
    vertex 6.53266 4.325 5.3
    vertex 7.73842 5.30693 5.3
    endloop
  endfacet
  facet normal 0 -1 0
    outer loop
    vertex 9.39054 4.025 5
    vertex 6.35946 4.025 5
    vertex 9.39054 4.025 2.5
    endloop
  endfacet
  facet normal 0.612373 -0.353553 0.707107
    outer loop
    vertex 10.9061 6.65 5
    vertex 10.5597 6.65 5.3
    vertex 9.39054 4.025 5
    endloop
  endfacet
  facet normal 0.866026 -0.5 0
    outer loop
    vertex 10.9061 6.65 5
    vertex 9.39054 4.025 5
    vertex 10.9061 6.65 2.5
    endloop
  endfacet
  facet normal 0.866026 -0.5 0
    outer loop
    vertex 10.9061 6.65 2.5
    vertex 9.39054 4.025 5
    vertex 9.39054 4.025 2.5
    endloop
  endfacet
  facet normal -0.612373 -0.353554 0.707106
    outer loop
    vertex 6.35946 4.025 5
    vertex 5.19032 6.65 5.3
    vertex 4.84391 6.65 5
    endloop
  endfacet
  facet normal -0.866026 -0.5 0
    outer loop
    vertex 6.35946 4.025 5
    vertex 4.84391 6.65 5
    vertex 6.35946 4.025 2.5
    endloop
  endfacet
  facet normal 0 -1 0
    outer loop
    vertex 9.39054 4.025 2.5
    vertex 6.35946 4.025 5
    vertex 6.35946 4.025 2.5
    endloop
  endfacet
  facet normal -0.612373 0.353554 0.707106
    outer loop
    vertex 5.19032 6.65 5.3
    vertex 6.35946 9.275 5
    vertex 4.84391 6.65 5
    endloop
  endfacet
  facet normal -0.612372 0.353553 0.707107
    outer loop
    vertex 6.53266 8.975 5.3
    vertex 6.35946 9.275 5
    vertex 5.19032 6.65 5.3
    endloop
  endfacet
  facet normal 0 0 1
    outer loop
    vertex 6.72933 7.3641 5.3
    vertex 6.53266 8.975 5.3
    vertex 5.19032 6.65 5.3
    endloop
  endfacet
  facet normal 0 0 1
    outer loop
    vertex 6.72933 7.3641 5.3
    vertex 5.19032 6.65 5.3
    vertex 6.60903 7.11886 5.3
    endloop
  endfacet
  facet normal 0 0 1
    outer loop
    vertex 6.60903 7.11886 5.3
    vertex 5.19032 6.65 5.3
    vertex 6.54057 6.85443 5.3
    endloop
  endfacet
  facet normal -0 0 1
    outer loop
    vertex 6.54057 6.85443 5.3
    vertex 5.19032 6.65 5.3
    vertex 6.52673 6.58162 5.3
    endloop
  endfacet
  facet normal 0 0 1
    outer loop
    vertex 6.52673 6.58162 5.3
    vertex 5.19032 6.65 5.3
    vertex 6.5681 6.31162 5.3
    endloop
  endfacet
  facet normal 0 0 1
    outer loop
    vertex 6.5681 6.31162 5.3
    vertex 5.19032 6.65 5.3
    vertex 6.66296 6.05547 5.3
    endloop
  endfacet
  facet normal 0 0 1
    outer loop
    vertex 6.66296 6.05547 5.3
    vertex 5.19032 6.65 5.3
    vertex 6.80745 5.82366 5.3
    endloop
  endfacet
  facet normal -0.866026 0.5 0
    outer loop
    vertex 4.84391 6.65 5
    vertex 6.35946 9.275 5
    vertex 4.84391 6.65 2.5
    endloop
  endfacet
  facet normal -0.866026 -0.5 -0
    outer loop
    vertex 6.35946 4.025 2.5
    vertex 4.84391 6.65 5
    vertex 4.84391 6.65 2.5
    endloop
  endfacet
  facet normal 0 0.707106 0.707107
    outer loop
    vertex 6.53266 8.975 5.3
    vertex 9.39054 9.275 5
    vertex 6.35946 9.275 5
    endloop
  endfacet
  facet normal 0 0.707106 0.707107
    outer loop
    vertex 9.21734 8.975 5.3
    vertex 9.39054 9.275 5
    vertex 6.53266 8.975 5.3
    endloop
  endfacet
  facet normal 0 0 1
    outer loop
    vertex 7.875 8 5.3
    vertex 9.21734 8.975 5.3
    vertex 6.53266 8.975 5.3
    endloop
  endfacet
  facet normal 0 0 1
    outer loop
    vertex 7.875 8 5.3
    vertex 6.53266 8.975 5.3
    vertex 7.60325 7.97236 5.3
    endloop
  endfacet
  facet normal 0 0 1
    outer loop
    vertex 7.60325 7.97236 5.3
    vertex 6.53266 8.975 5.3
    vertex 7.34262 7.89059 5.3
    endloop
  endfacet
  facet normal 0 0 1
    outer loop
    vertex 7.34262 7.89059 5.3
    vertex 6.53266 8.975 5.3
    vertex 7.10379 7.75803 5.3
    endloop
  endfacet
  facet normal 0 0 1
    outer loop
    vertex 7.10379 7.75803 5.3
    vertex 6.53266 8.975 5.3
    vertex 6.89653 7.5801 5.3
    endloop
  endfacet
  facet normal 0 0 1
    outer loop
    vertex 6.89653 7.5801 5.3
    vertex 6.53266 8.975 5.3
    vertex 6.72933 7.3641 5.3
    endloop
  endfacet
  facet normal 0 1 0
    outer loop
    vertex 6.35946 9.275 5
    vertex 9.39054 9.275 5
    vertex 6.35946 9.275 2.5
    endloop
  endfacet
  facet normal -0.866026 0.5 0
    outer loop
    vertex 4.84391 6.65 2.5
    vertex 6.35946 9.275 5
    vertex 6.35946 9.275 2.5
    endloop
  endfacet
  facet normal 0.612373 0.353553 0.707107
    outer loop
    vertex 10.5597 6.65 5.3
    vertex 9.39054 9.275 5
    vertex 9.21734 8.975 5.3
    endloop
  endfacet
  facet normal 0 0 1
    outer loop
    vertex 9.02067 7.3641 5.3
    vertex 10.5597 6.65 5.3
    vertex 9.21734 8.975 5.3
    endloop
  endfacet
  facet normal 0 0 1
    outer loop
    vertex 8.14675 7.97236 5.3
    vertex 9.21734 8.975 5.3
    vertex 7.875 8 5.3
    endloop
  endfacet
  facet normal 0 0 1
    outer loop
    vertex 8.40738 7.89059 5.3
    vertex 9.21734 8.975 5.3
    vertex 8.14675 7.97236 5.3
    endloop
  endfacet
  facet normal 0 0 1
    outer loop
    vertex 9.02067 7.3641 5.3
    vertex 9.21734 8.975 5.3
    vertex 8.85347 7.5801 5.3
    endloop
  endfacet
  facet normal 0 0 1
    outer loop
    vertex 8.85347 7.5801 5.3
    vertex 9.21734 8.975 5.3
    vertex 8.64621 7.75803 5.3
    endloop
  endfacet
  facet normal 0 0 1
    outer loop
    vertex 8.64621 7.75803 5.3
    vertex 9.21734 8.975 5.3
    vertex 8.40738 7.89059 5.3
    endloop
  endfacet
  facet normal 0.612373 0.353553 0.707107
    outer loop
    vertex 10.9061 6.65 5
    vertex 9.39054 9.275 5
    vertex 10.5597 6.65 5.3
    endloop
  endfacet
  facet normal 0.866026 0.5 0
    outer loop
    vertex 9.39054 9.275 5
    vertex 10.9061 6.65 5
    vertex 9.39054 9.275 2.5
    endloop
  endfacet
  facet normal 0 1 0
    outer loop
    vertex 6.35946 9.275 2.5
    vertex 9.39054 9.275 5
    vertex 9.39054 9.275 2.5
    endloop
  endfacet
  facet normal 0.866026 0.5 0
    outer loop
    vertex 9.39054 9.275 2.5
    vertex 10.9061 6.65 5
    vertex 10.9061 6.65 2.5
    endloop
  endfacet
  facet normal 0 0 1
    outer loop
    vertex 8.94255 5.82366 5.3
    vertex 10.5597 6.65 5.3
    vertex 9.08704 6.05547 5.3
    endloop
  endfacet
  facet normal 0 0 1
    outer loop
    vertex 9.08704 6.05547 5.3
    vertex 10.5597 6.65 5.3
    vertex 9.1819 6.31162 5.3
    endloop
  endfacet
  facet normal 0 0 1
    outer loop
    vertex 9.1819 6.31162 5.3
    vertex 10.5597 6.65 5.3
    vertex 9.22327 6.58162 5.3
    endloop
  endfacet
  facet normal 0 0 1
    outer loop
    vertex 9.22327 6.58162 5.3
    vertex 10.5597 6.65 5.3
    vertex 9.20943 6.85443 5.3
    endloop
  endfacet
  facet normal 0 0 1
    outer loop
    vertex 9.20943 6.85443 5.3
    vertex 10.5597 6.65 5.3
    vertex 9.14096 7.11886 5.3
    endloop
  endfacet
  facet normal 0 0 1
    outer loop
    vertex 9.14096 7.11886 5.3
    vertex 10.5597 6.65 5.3
    vertex 9.02067 7.3641 5.3
    endloop
  endfacet
  facet normal 0 0 1
    outer loop
    vertex 9.39054 4.025 2.5
    vertex 14.775 -3.058 2.5
    vertex 10.9061 6.65 2.5
    endloop
  endfacet
  facet normal 0 -0 1
    outer loop
    vertex 10.9061 6.65 2.5
    vertex 14.775 -3.058 2.5
    vertex 14.775 9.65 2.5
    endloop
  endfacet
  facet normal 0 0 1
    outer loop
    vertex 6.35946 4.025 2.5
    vertex 10.583 -7.25 2.5
    vertex 9.39054 4.025 2.5
    endloop
  endfacet
  facet normal 0 -0 1
    outer loop
    vertex 9.39054 4.025 2.5
    vertex 10.583 -7.25 2.5
    vertex 14.775 -3.058 2.5
    endloop
  endfacet
  facet normal 0 0 1
    outer loop
    vertex 4.84391 6.65 2.5
    vertex -0.0750005 -7.25 2.5
    vertex 6.35946 4.025 2.5
    endloop
  endfacet
  facet normal 0 0 1
    outer loop
    vertex 6.35946 4.025 2.5
    vertex -0.0750005 -7.25 2.5
    vertex 10.583 -7.25 2.5
    endloop
  endfacet
  facet normal -0.101169 -0.994869 0
    outer loop
    vertex 7.875 8 0.5
    vertex 8.14675 7.97236 5.3
    vertex 7.875 8 5.3
    endloop
  endfacet
  facet normal -0.299363 -0.954139 0
    outer loop
    vertex 8.14675 7.97236 0.5
    vertex 8.40738 7.89059 5.3
    vertex 8.14675 7.97236 5.3
    endloop
  endfacet
  facet normal -0.101169 -0.994869 -0
    outer loop
    vertex 8.14675 7.97236 0.5
    vertex 8.14675 7.97236 5.3
    vertex 7.875 8 0.5
    endloop
  endfacet
  facet normal 0.101169 -0.994869 0
    outer loop
    vertex 7.60325 7.97236 0.5
    vertex 7.875 8 5.3
    vertex 7.60325 7.97236 5.3
    endloop
  endfacet
  facet normal 0.101169 -0.994869 0
    outer loop
    vertex 7.875 8 0.5
    vertex 7.875 8 5.3
    vertex 7.60325 7.97236 0.5
    endloop
  endfacet
  facet normal 0.299363 -0.954139 0
    outer loop
    vertex 7.34262 7.89059 0.5
    vertex 7.60325 7.97236 5.3
    vertex 7.34262 7.89059 5.3
    endloop
  endfacet
  facet normal 0.299363 -0.954139 0
    outer loop
    vertex 7.60325 7.97236 0.5
    vertex 7.60325 7.97236 5.3
    vertex 7.34262 7.89059 0.5
    endloop
  endfacet
  facet normal 0.485299 -0.874348 0
    outer loop
    vertex 7.10379 7.75803 0.5
    vertex 7.34262 7.89059 5.3
    vertex 7.10379 7.75803 5.3
    endloop
  endfacet
  facet normal 0.485299 -0.874348 0
    outer loop
    vertex 7.34262 7.89059 0.5
    vertex 7.34262 7.89059 5.3
    vertex 7.10379 7.75803 0.5
    endloop
  endfacet
  facet normal 0.651375 -0.758756 0
    outer loop
    vertex 6.89653 7.5801 0.5
    vertex 7.10379 7.75803 5.3
    vertex 6.89653 7.5801 5.3
    endloop
  endfacet
  facet normal 0.651375 -0.758756 0
    outer loop
    vertex 7.10379 7.75803 0.5
    vertex 7.10379 7.75803 5.3
    vertex 6.89653 7.5801 0.5
    endloop
  endfacet
  facet normal 0.790776 -0.612105 0
    outer loop
    vertex 6.72933 7.3641 0.5
    vertex 6.89653 7.5801 5.3
    vertex 6.72933 7.3641 5.3
    endloop
  endfacet
  facet normal 0.790776 -0.612105 0
    outer loop
    vertex 6.89653 7.5801 0.5
    vertex 6.89653 7.5801 5.3
    vertex 6.72933 7.3641 0.5
    endloop
  endfacet
  facet normal 0.897805 -0.440394 0
    outer loop
    vertex 6.60903 7.11886 0.5
    vertex 6.72933 7.3641 5.3
    vertex 6.60903 7.11886 5.3
    endloop
  endfacet
  facet normal 0.897805 -0.440394 0
    outer loop
    vertex 6.72933 7.3641 0.5
    vertex 6.72933 7.3641 5.3
    vertex 6.60903 7.11886 0.5
    endloop
  endfacet
  facet normal 0.968077 -0.250654 0
    outer loop
    vertex 6.54057 6.85443 0.5
    vertex 6.60903 7.11886 5.3
    vertex 6.54057 6.85443 5.3
    endloop
  endfacet
  facet normal 0.968077 -0.250654 0
    outer loop
    vertex 6.60903 7.11886 0.5
    vertex 6.60903 7.11886 5.3
    vertex 6.54057 6.85443 0.5
    endloop
  endfacet
  facet normal 0.998717 -0.0506488 0
    outer loop
    vertex 6.52673 6.58162 0.5
    vertex 6.54057 6.85443 5.3
    vertex 6.52673 6.58162 5.3
    endloop
  endfacet
  facet normal 0.998717 -0.0506488 0
    outer loop
    vertex 6.54057 6.85443 0.5
    vertex 6.54057 6.85443 5.3
    vertex 6.52673 6.58162 0.5
    endloop
  endfacet
  facet normal 0.988469 0.151426 0
    outer loop
    vertex 6.5681 6.31162 0.5
    vertex 6.52673 6.58162 5.3
    vertex 6.5681 6.31162 5.3
    endloop
  endfacet
  facet normal 0.988469 0.151426 0
    outer loop
    vertex 6.52673 6.58162 0.5
    vertex 6.52673 6.58162 5.3
    vertex 6.5681 6.31162 0.5
    endloop
  endfacet
  facet normal 0.937751 0.347307 0
    outer loop
    vertex 6.66296 6.05547 0.5
    vertex 6.5681 6.31162 5.3
    vertex 6.66296 6.05547 5.3
    endloop
  endfacet
  facet normal 0.937751 0.347307 0
    outer loop
    vertex 6.5681 6.31162 0.5
    vertex 6.5681 6.31162 5.3
    vertex 6.66296 6.05547 0.5
    endloop
  endfacet
  facet normal 0.848646 0.528962 0
    outer loop
    vertex 6.80745 5.82366 0.5
    vertex 6.66296 6.05547 5.3
    vertex 6.80745 5.82366 5.3
    endloop
  endfacet
  facet normal 0.848646 0.528962 0
    outer loop
    vertex 6.66296 6.05547 0.5
    vertex 6.66296 6.05547 5.3
    vertex 6.80745 5.82366 0.5
    endloop
  endfacet
  facet normal 0.724791 0.688968 0
    outer loop
    vertex 6.99565 5.62568 0.5
    vertex 6.80745 5.82366 5.3
    vertex 6.99565 5.62568 5.3
    endloop
  endfacet
  facet normal 0.724791 0.688968 0
    outer loop
    vertex 6.80745 5.82366 0.5
    vertex 6.80745 5.82366 5.3
    vertex 6.99565 5.62568 0.5
    endloop
  endfacet
  facet normal 0.57127 0.820762 0
    outer loop
    vertex 7.21984 5.46963 0.5
    vertex 6.99565 5.62568 5.3
    vertex 7.21984 5.46963 5.3
    endloop
  endfacet
  facet normal 0.57127 0.820762 0
    outer loop
    vertex 6.99565 5.62568 0.5
    vertex 6.99565 5.62568 5.3
    vertex 7.21984 5.46963 0.5
    endloop
  endfacet
  facet normal 0.394355 0.918958 0
    outer loop
    vertex 7.47086 5.36191 0.5
    vertex 7.21984 5.46963 5.3
    vertex 7.47086 5.36191 5.3
    endloop
  endfacet
  facet normal 0.394355 0.918958 0
    outer loop
    vertex 7.21984 5.46963 0.5
    vertex 7.21984 5.46963 5.3
    vertex 7.47086 5.36191 0.5
    endloop
  endfacet
  facet normal 0.201298 0.97953 0
    outer loop
    vertex 7.73842 5.30693 0.5
    vertex 7.47086 5.36191 5.3
    vertex 7.73842 5.30693 5.3
    endloop
  endfacet
  facet normal 0.201298 0.97953 0
    outer loop
    vertex 7.47086 5.36191 0.5
    vertex 7.47086 5.36191 5.3
    vertex 7.73842 5.30693 0.5
    endloop
  endfacet
  facet normal -0 1 0
    outer loop
    vertex 8.01158 5.30693 0.5
    vertex 7.73842 5.30693 5.3
    vertex 8.01158 5.30693 5.3
    endloop
  endfacet
  facet normal 0 1 0
    outer loop
    vertex 7.73842 5.30693 0.5
    vertex 7.73842 5.30693 5.3
    vertex 8.01158 5.30693 0.5
    endloop
  endfacet
  facet normal -0.201298 0.97953 0
    outer loop
    vertex 8.27914 5.36191 0.5
    vertex 8.01158 5.30693 5.3
    vertex 8.27914 5.36191 5.3
    endloop
  endfacet
  facet normal -0.201298 0.97953 0
    outer loop
    vertex 8.01158 5.30693 0.5
    vertex 8.01158 5.30693 5.3
    vertex 8.27914 5.36191 0.5
    endloop
  endfacet
  facet normal -0.394356 0.918958 0
    outer loop
    vertex 8.53016 5.46963 0.5
    vertex 8.27914 5.36191 5.3
    vertex 8.53016 5.46963 5.3
    endloop
  endfacet
  facet normal -0.394356 0.918958 0
    outer loop
    vertex 8.27914 5.36191 0.5
    vertex 8.27914 5.36191 5.3
    vertex 8.53016 5.46963 0.5
    endloop
  endfacet
  facet normal -0.571269 0.820763 0
    outer loop
    vertex 8.75435 5.62568 0.5
    vertex 8.53016 5.46963 5.3
    vertex 8.75435 5.62568 5.3
    endloop
  endfacet
  facet normal -0.571269 0.820763 0
    outer loop
    vertex 8.53016 5.46963 0.5
    vertex 8.53016 5.46963 5.3
    vertex 8.75435 5.62568 0.5
    endloop
  endfacet
  facet normal -0.724793 0.688967 0
    outer loop
    vertex 8.94255 5.82366 0.5
    vertex 8.75435 5.62568 5.3
    vertex 8.94255 5.82366 5.3
    endloop
  endfacet
  facet normal -0.724793 0.688967 0
    outer loop
    vertex 8.75435 5.62568 0.5
    vertex 8.75435 5.62568 5.3
    vertex 8.94255 5.82366 0.5
    endloop
  endfacet
  facet normal -0.848643 0.528966 0
    outer loop
    vertex 9.08704 6.05547 0.5
    vertex 8.94255 5.82366 5.3
    vertex 9.08704 6.05547 5.3
    endloop
  endfacet
  facet normal -0.848643 0.528966 0
    outer loop
    vertex 8.94255 5.82366 0.5
    vertex 8.94255 5.82366 5.3
    vertex 9.08704 6.05547 0.5
    endloop
  endfacet
  facet normal -0.937752 0.347304 0
    outer loop
    vertex 9.1819 6.31162 0.5
    vertex 9.08704 6.05547 5.3
    vertex 9.1819 6.31162 5.3
    endloop
  endfacet
  facet normal -0.937752 0.347304 0
    outer loop
    vertex 9.08704 6.05547 0.5
    vertex 9.08704 6.05547 5.3
    vertex 9.1819 6.31162 0.5
    endloop
  endfacet
  facet normal -0.988469 0.151426 0
    outer loop
    vertex 9.22327 6.58162 0.5
    vertex 9.1819 6.31162 5.3
    vertex 9.22327 6.58162 5.3
    endloop
  endfacet
  facet normal -0.988469 0.151426 0
    outer loop
    vertex 9.1819 6.31162 0.5
    vertex 9.1819 6.31162 5.3
    vertex 9.22327 6.58162 0.5
    endloop
  endfacet
  facet normal -0.998717 -0.0506488 0
    outer loop
    vertex 9.20943 6.85443 0.5
    vertex 9.22327 6.58162 5.3
    vertex 9.20943 6.85443 5.3
    endloop
  endfacet
  facet normal -0.998717 -0.0506488 -0
    outer loop
    vertex 9.22327 6.58162 0.5
    vertex 9.22327 6.58162 5.3
    vertex 9.20943 6.85443 0.5
    endloop
  endfacet
  facet normal -0.968077 -0.250654 0
    outer loop
    vertex 9.14096 7.11886 0.5
    vertex 9.20943 6.85443 5.3
    vertex 9.14096 7.11886 5.3
    endloop
  endfacet
  facet normal -0.968077 -0.250654 -0
    outer loop
    vertex 9.20943 6.85443 0.5
    vertex 9.20943 6.85443 5.3
    vertex 9.14096 7.11886 0.5
    endloop
  endfacet
  facet normal -0.897806 -0.440391 0
    outer loop
    vertex 9.02067 7.3641 0.5
    vertex 9.14096 7.11886 5.3
    vertex 9.02067 7.3641 5.3
    endloop
  endfacet
  facet normal -0.897806 -0.440391 -0
    outer loop
    vertex 9.14096 7.11886 0.5
    vertex 9.14096 7.11886 5.3
    vertex 9.02067 7.3641 0.5
    endloop
  endfacet
  facet normal -0.790775 -0.612107 0
    outer loop
    vertex 8.85347 7.5801 0.5
    vertex 9.02067 7.3641 5.3
    vertex 8.85347 7.5801 5.3
    endloop
  endfacet
  facet normal -0.790775 -0.612107 -0
    outer loop
    vertex 9.02067 7.3641 0.5
    vertex 9.02067 7.3641 5.3
    vertex 8.85347 7.5801 0.5
    endloop
  endfacet
  facet normal -0.651374 -0.758757 0
    outer loop
    vertex 8.64621 7.75803 0.5
    vertex 8.85347 7.5801 5.3
    vertex 8.64621 7.75803 5.3
    endloop
  endfacet
  facet normal -0.651374 -0.758757 -0
    outer loop
    vertex 8.85347 7.5801 0.5
    vertex 8.85347 7.5801 5.3
    vertex 8.64621 7.75803 0.5
    endloop
  endfacet
  facet normal -0.4853 -0.874348 0
    outer loop
    vertex 8.40738 7.89059 0.5
    vertex 8.64621 7.75803 5.3
    vertex 8.40738 7.89059 5.3
    endloop
  endfacet
  facet normal -0.4853 -0.874348 -0
    outer loop
    vertex 8.64621 7.75803 0.5
    vertex 8.64621 7.75803 5.3
    vertex 8.40738 7.89059 0.5
    endloop
  endfacet
  facet normal -0.299363 -0.954139 -0
    outer loop
    vertex 8.40738 7.89059 0.5
    vertex 8.40738 7.89059 5.3
    vertex 8.14675 7.97236 0.5
    endloop
  endfacet
  facet normal 0 -0.707107 -0.707106
    outer loop
    vertex 4.47884 -10.95 0
    vertex 5.183 -12.65 1.7
    vertex -13.075 -10.95 0
    endloop
  endfacet
  facet normal 0.5 -0.5 -0.707106
    outer loop
    vertex 4.47884 -10.95 0
    vertex 14.775 -3.058 1.7
    vertex 5.183 -12.65 1.7
    endloop
  endfacet
  facet normal 0 0 -1
    outer loop
    vertex -13.075 -10.95 0
    vertex -13.075 -2.45416 0
    vertex 4.47884 -10.95 0
    endloop
  endfacet
  facet normal 0.5 -0.5 -0.707107
    outer loop
    vertex 13.075 -2.35384 0
    vertex 14.775 -3.058 1.7
    vertex 4.47884 -10.95 0
    endloop
  endfacet
  facet normal 0 0 -1
    outer loop
    vertex 4.47884 -10.95 0
    vertex -13.075 -2.45416 0
    vertex 13.075 -2.35384 0
    endloop
  endfacet
  facet normal -0 -0.707107 -0.707106
    outer loop
    vertex -13.075 -10.95 0
    vertex 5.183 -12.65 1.7
    vertex -14.775 -12.65 1.7
    endloop
  endfacet
  facet normal 0 -1 0
    outer loop
    vertex -14.775 -12.65 1.7
    vertex 5.183 -12.65 1.7
    vertex -14.775 -12.65 2.4
    endloop
  endfacet
  facet normal 0.707107 -0.707107 -2.85431e-007
    outer loop
    vertex 10.583 -7.25 2.4
    vertex 5.183 -12.65 1.7
    vertex 14.775 -3.058 1.7
    endloop
  endfacet
  facet normal 0 -1 0
    outer loop
    vertex -14.775 -12.65 2.4
    vertex 5.183 -12.65 1.7
    vertex 5.183 -12.65 2.4
    endloop
  endfacet
  facet normal 0.707107 -0.707107 0
    outer loop
    vertex 5.183 -12.65 2.4
    vertex 5.183 -12.65 1.7
    vertex 10.583 -7.25 2.4
    endloop
  endfacet
  facet normal -1 0 0
    outer loop
    vertex -14.775 -7.25 2.4
    vertex -14.775 -12.65 1.7
    vertex -14.775 -12.65 2.4
    endloop
  endfacet
  facet normal 0.707107 0 -0.707107
    outer loop
    vertex 13.075 -2.35384 0
    vertex 13.075 8.94584 0
    vertex 14.775 -3.058 1.7
    endloop
  endfacet
  facet normal 0 0 -1
    outer loop
    vertex 13.075 -2.35384 0
    vertex 0.329162 10.95 0
    vertex 13.075 8.94584 0
    endloop
  endfacet
  facet normal 0 0 -1
    outer loop
    vertex 13.075 -2.35384 0
    vertex -13.075 -2.45416 0
    vertex 0.329162 10.95 0
    endloop
  endfacet
  facet normal 0.707107 0 -0.707107
    outer loop
    vertex 14.775 -3.058 1.7
    vertex 13.075 8.94584 0
    vertex 14.775 9.65 1.7
    endloop
  endfacet
  facet normal 1 0 0
    outer loop
    vertex 14.775 -3.058 1.7
    vertex 14.775 9.65 1.7
    vertex 14.775 -3.058 2.5
    endloop
  endfacet
  facet normal 0.707107 -0.707107 0
    outer loop
    vertex 10.583 -7.25 2.4
    vertex 14.775 -3.058 1.7
    vertex 14.775 -3.058 2.5
    endloop
  endfacet
  facet normal 0.5 0.5 -0.707107
    outer loop
    vertex 11.0708 10.95 0
    vertex 14.775 9.65 1.7
    vertex 13.075 8.94584 0
    endloop
  endfacet
  facet normal 0 0 -1
    outer loop
    vertex 13.075 8.94584 0
    vertex 0.329162 10.95 0
    vertex 11.0708 10.95 0
    endloop
  endfacet
  facet normal 1 0 -0
    outer loop
    vertex 14.775 -3.058 2.5
    vertex 14.775 9.65 1.7
    vertex 14.775 9.65 2.5
    endloop
  endfacet
  facet normal 0 0 1
    outer loop
    vertex 5.183 -12.65 2.4
    vertex -14.775 -7.25 2.4
    vertex -14.775 -12.65 2.4
    endloop
  endfacet
  facet normal 0 -1 0
    outer loop
    vertex 0.224999 -7.25 3
    vertex -14.775 -7.25 8
    vertex -14.775 -7.25 2.4
    endloop
  endfacet
  facet normal -0 0 1
    outer loop
    vertex 10.583 -7.25 2.4
    vertex -14.775 -7.25 2.4
    vertex 5.183 -12.65 2.4
    endloop
  endfacet
  facet normal -0 -1 0
    outer loop
    vertex -14.775 -7.25 2.4
    vertex -0.0750005 -7.25 2.5
    vertex -0.0750005 -7.25 2.7
    endloop
  endfacet
  facet normal 0 -1 -0
    outer loop
    vertex 10.583 -7.25 2.4
    vertex -0.0750005 -7.25 2.5
    vertex -14.775 -7.25 2.4
    endloop
  endfacet
  facet normal -0 -1 0
    outer loop
    vertex -14.775 -7.25 2.4
    vertex -0.0750005 -7.25 2.7
    vertex 0.224999 -7.25 3
    endloop
  endfacet
  facet normal -1 0 0
    outer loop
    vertex -14.775 -7.25 8
    vertex -14.775 -8.65 15.6
    vertex -14.775 -7.25 17
    endloop
  endfacet
  facet normal -1 0 0
    outer loop
    vertex -14.775 -8.65 9.4
    vertex -14.775 -8.65 15.6
    vertex -14.775 -7.25 8
    endloop
  endfacet
  facet normal -0 -0.707107 -0.707107
    outer loop
    vertex -14.775 -7.25 8
    vertex 0.224999 -8.65 9.4
    vertex -14.775 -8.65 9.4
    endloop
  endfacet
  facet normal 0 -1 0
    outer loop
    vertex 0.224999 -7.25 8
    vertex -14.775 -7.25 8
    vertex 0.224999 -7.25 3
    endloop
  endfacet
  facet normal 0 -0.707107 -0.707107
    outer loop
    vertex 0.224999 -7.25 8
    vertex 0.224999 -8.65 9.4
    vertex -14.775 -7.25 8
    endloop
  endfacet
  facet normal 0 -0.707107 0.707107
    outer loop
    vertex -14.775 -8.65 15.6
    vertex 0.224999 -7.25 17
    vertex -14.775 -7.25 17
    endloop
  endfacet
  facet normal -0 -1 0
    outer loop
    vertex -14.775 -8.65 9.4
    vertex -9.42388 -8.65 12.5771
    vertex -14.775 -8.65 15.6
    endloop
  endfacet
  facet normal 0 -1 -0
    outer loop
    vertex 0.224999 -8.65 9.4
    vertex -6.775 -8.65 9.85
    vertex -14.775 -8.65 9.4
    endloop
  endfacet
  facet normal -0 -1 0
    outer loop
    vertex -14.775 -8.65 9.4
    vertex -6.775 -8.65 9.85
    vertex -7.15907 -8.65 9.87798
    endloop
  endfacet
  facet normal -0 -1 0
    outer loop
    vertex -14.775 -8.65 9.4
    vertex -7.15907 -8.65 9.87798
    vertex -7.53503 -8.65 9.96133
    endloop
  endfacet
  facet normal 0 -1 -0
    outer loop
    vertex -7.53503 -8.65 9.96133
    vertex -7.89494 -8.65 10.0983
    vertex -14.775 -8.65 9.4
    endloop
  endfacet
  facet normal -0 -1 0
    outer loop
    vertex -14.775 -8.65 9.4
    vertex -7.89494 -8.65 10.0983
    vertex -8.2312 -8.65 10.286
    endloop
  endfacet
  facet normal -0 -1 0
    outer loop
    vertex -14.775 -8.65 9.4
    vertex -8.2312 -8.65 10.286
    vertex -8.53671 -8.65 10.5204
    endloop
  endfacet
  facet normal 0 -1 -0
    outer loop
    vertex -8.53671 -8.65 10.5204
    vertex -8.80502 -8.65 10.7966
    vertex -14.775 -8.65 9.4
    endloop
  endfacet
  facet normal -0 -1 0
    outer loop
    vertex -14.775 -8.65 9.4
    vertex -8.80502 -8.65 10.7966
    vertex -9.03046 -8.65 11.1088
    endloop
  endfacet
  facet normal -0 -1 0
    outer loop
    vertex -14.775 -8.65 9.4
    vertex -9.03046 -8.65 11.1088
    vertex -9.20827 -8.65 11.4504
    endloop
  endfacet
  facet normal 0 -1 -0
    outer loop
    vertex -9.20827 -8.65 11.4504
    vertex -9.33471 -8.65 11.8141
    vertex -14.775 -8.65 9.4
    endloop
  endfacet
  facet normal -0 -1 0
    outer loop
    vertex -14.775 -8.65 9.4
    vertex -9.33471 -8.65 11.8141
    vertex -9.40708 -8.65 12.1924
    endloop
  endfacet
  facet normal -0 -1 0
    outer loop
    vertex -14.775 -8.65 9.4
    vertex -9.40708 -8.65 12.1924
    vertex -9.42388 -8.65 12.5771
    endloop
  endfacet
  facet normal 0 -0.707107 0.707107
    outer loop
    vertex 0.224999 -8.65 15.6
    vertex 0.224999 -7.25 17
    vertex -14.775 -8.65 15.6
    endloop
  endfacet
  facet normal 0 -1 0
    outer loop
    vertex -14.775 -8.65 15.6
    vertex -7.54397 -8.65 15.351
    vertex 0.224999 -8.65 15.6
    endloop
  endfacet
  facet normal 0 -1 0
    outer loop
    vertex -14.775 -8.65 15.6
    vertex -9.42388 -8.65 12.5771
    vertex -9.38474 -8.65 12.9602
    endloop
  endfacet
  facet normal 0 -1 0
    outer loop
    vertex -14.775 -8.65 15.6
    vertex -9.38474 -8.65 12.9602
    vertex -9.29049 -8.65 13.3335
    endloop
  endfacet
  facet normal -0 -1 0
    outer loop
    vertex -9.29049 -8.65 13.3335
    vertex -9.14313 -8.65 13.6893
    vertex -14.775 -8.65 15.6
    endloop
  endfacet
  facet normal 0 -1 0
    outer loop
    vertex -14.775 -8.65 15.6
    vertex -9.14313 -8.65 13.6893
    vertex -8.94575 -8.65 14.02
    endloop
  endfacet
  facet normal 0 -1 0
    outer loop
    vertex -14.775 -8.65 15.6
    vertex -8.94575 -8.65 14.02
    vertex -8.70254 -8.65 14.3185
    endloop
  endfacet
  facet normal -0 -1 0
    outer loop
    vertex -8.70254 -8.65 14.3185
    vertex -8.41862 -8.65 14.5787
    vertex -14.775 -8.65 15.6
    endloop
  endfacet
  facet normal -0 -1 0
    outer loop
    vertex -8.41862 -8.65 14.5787
    vertex -8.1 -8.65 14.795
    vertex -14.775 -8.65 15.6
    endloop
  endfacet
  facet normal 0 -1 0
    outer loop
    vertex -14.775 -8.65 15.6
    vertex -8.1 -8.65 14.795
    vertex -7.54397 -8.65 15.351
    endloop
  endfacet
  facet normal 0.707107 -0.707107 0
    outer loop
    vertex 14.775 -3.058 2.5
    vertex 10.583 -7.25 2.5
    vertex 10.583 -7.25 2.4
    endloop
  endfacet
  facet normal 0 -1 0
    outer loop
    vertex 10.583 -7.25 2.5
    vertex -0.0750005 -7.25 2.5
    vertex 10.583 -7.25 2.4
    endloop
  endfacet
  facet normal 1 -0 0
    outer loop
    vertex 0.224999 -7.25 17
    vertex 0.224999 -8.65 9.4
    vertex 0.224999 -7.25 8
    endloop
  endfacet
  facet normal 1 0 0
    outer loop
    vertex 0.224999 -8.65 15.6
    vertex 0.224999 -8.65 9.4
    vertex 0.224999 -7.25 17
    endloop
  endfacet
  facet normal 0 -1 0
    outer loop
    vertex 0.224999 -8.65 15.6
    vertex -4.12612 -8.65 12.5771
    vertex 0.224999 -8.65 9.4
    endloop
  endfacet
  facet normal 0 -1 0
    outer loop
    vertex -5.45 -8.65 14.795
    vertex -5.13138 -8.65 14.5787
    vertex 0.224999 -8.65 15.6
    endloop
  endfacet
  facet normal 0 -1 0
    outer loop
    vertex 0.224999 -8.65 15.6
    vertex -6.00603 -8.65 15.351
    vertex -5.45 -8.65 14.795
    endloop
  endfacet
  facet normal 0 -1 0
    outer loop
    vertex 0.224999 -8.65 15.6
    vertex -5.13138 -8.65 14.5787
    vertex -4.84746 -8.65 14.3185
    endloop
  endfacet
  facet normal 0 -1 0
    outer loop
    vertex 0.224999 -8.65 15.6
    vertex -4.84746 -8.65 14.3185
    vertex -4.60425 -8.65 14.02
    endloop
  endfacet
  facet normal 0 -1 0
    outer loop
    vertex -4.60425 -8.65 14.02
    vertex -4.40687 -8.65 13.6893
    vertex 0.224999 -8.65 15.6
    endloop
  endfacet
  facet normal 0 -1 0
    outer loop
    vertex 0.224999 -8.65 15.6
    vertex -4.40687 -8.65 13.6893
    vertex -4.25951 -8.65 13.3335
    endloop
  endfacet
  facet normal 0 -1 0
    outer loop
    vertex 0.224999 -8.65 15.6
    vertex -4.25951 -8.65 13.3335
    vertex -4.16526 -8.65 12.9602
    endloop
  endfacet
  facet normal 0 -1 0
    outer loop
    vertex -4.16526 -8.65 12.9602
    vertex -4.12612 -8.65 12.5771
    vertex 0.224999 -8.65 15.6
    endloop
  endfacet
  facet normal 0 -1 0
    outer loop
    vertex 0.224999 -8.65 15.6
    vertex -7.54397 -8.65 15.351
    vertex -6.00603 -8.65 15.351
    endloop
  endfacet
  facet normal 0 -1 -0
    outer loop
    vertex 0.224999 -8.65 9.4
    vertex -4.12612 -8.65 12.5771
    vertex -4.14292 -8.65 12.1924
    endloop
  endfacet
  facet normal 0 -1 -0
    outer loop
    vertex 0.224999 -8.65 9.4
    vertex -4.14292 -8.65 12.1924
    vertex -4.2153 -8.65 11.8141
    endloop
  endfacet
  facet normal 0 -1 0
    outer loop
    vertex -4.2153 -8.65 11.8141
    vertex -4.34173 -8.65 11.4504
    vertex 0.224999 -8.65 9.4
    endloop
  endfacet
  facet normal 0 -1 -0
    outer loop
    vertex 0.224999 -8.65 9.4
    vertex -4.34173 -8.65 11.4504
    vertex -4.51954 -8.65 11.1088
    endloop
  endfacet
  facet normal 0 -1 -0
    outer loop
    vertex 0.224999 -8.65 9.4
    vertex -4.51954 -8.65 11.1088
    vertex -4.74498 -8.65 10.7966
    endloop
  endfacet
  facet normal 0 -1 0
    outer loop
    vertex -4.74498 -8.65 10.7966
    vertex -5.01329 -8.65 10.5204
    vertex 0.224999 -8.65 9.4
    endloop
  endfacet
  facet normal 0 -1 -0
    outer loop
    vertex 0.224999 -8.65 9.4
    vertex -5.01329 -8.65 10.5204
    vertex -5.3188 -8.65 10.286
    endloop
  endfacet
  facet normal 0 -1 -0
    outer loop
    vertex 0.224999 -8.65 9.4
    vertex -5.3188 -8.65 10.286
    vertex -5.65506 -8.65 10.0983
    endloop
  endfacet
  facet normal 0 -1 0
    outer loop
    vertex -5.65506 -8.65 10.0983
    vertex -6.01497 -8.65 9.96133
    vertex 0.224999 -8.65 9.4
    endloop
  endfacet
  facet normal 0 -1 -0
    outer loop
    vertex 0.224999 -8.65 9.4
    vertex -6.01497 -8.65 9.96133
    vertex -6.39093 -8.65 9.87798
    endloop
  endfacet
  facet normal 0 -1 -0
    outer loop
    vertex 0.224999 -8.65 9.4
    vertex -6.39093 -8.65 9.87798
    vertex -6.775 -8.65 9.85
    endloop
  endfacet
  facet normal 0 1 0
    outer loop
    vertex -4.14292 -3.75 12.1924
    vertex -1.80239 -3.75 11.9774
    vertex -1.88426 -3.75 11.4604
    endloop
  endfacet
  facet normal 0 1 0
    outer loop
    vertex -4.12612 -3.75 12.5771
    vertex -1.80239 -3.75 11.9774
    vertex -4.14292 -3.75 12.1924
    endloop
  endfacet
  facet normal 0 1 0
    outer loop
    vertex -4.14292 -3.75 12.1924
    vertex -1.88426 -3.75 11.4604
    vertex -2.01972 -3.75 10.9549
    endloop
  endfacet
  facet normal 0 1 0
    outer loop
    vertex -4.2153 -3.75 11.8141
    vertex -2.01972 -3.75 10.9549
    vertex -2.20727 -3.75 10.4663
    endloop
  endfacet
  facet normal 0 1 0
    outer loop
    vertex -4.14292 -3.75 12.1924
    vertex -2.01972 -3.75 10.9549
    vertex -4.2153 -3.75 11.8141
    endloop
  endfacet
  facet normal 0 1 0
    outer loop
    vertex -4.2153 -3.75 11.8141
    vertex -2.20727 -3.75 10.4663
    vertex -2.44487 -3.75 10
    endloop
  endfacet
  facet normal 0 1 0
    outer loop
    vertex -4.34173 -3.75 11.4504
    vertex -2.44487 -3.75 10
    vertex -2.72992 -3.75 9.56107
    endloop
  endfacet
  facet normal 0 1 0
    outer loop
    vertex -4.2153 -3.75 11.8141
    vertex -2.44487 -3.75 10
    vertex -4.34173 -3.75 11.4504
    endloop
  endfacet
  facet normal 0 1 0
    outer loop
    vertex -4.51954 -3.75 11.1088
    vertex -2.72992 -3.75 9.56107
    vertex -3.05928 -3.75 9.15435
    endloop
  endfacet
  facet normal 0 1 0
    outer loop
    vertex -4.34173 -3.75 11.4504
    vertex -2.72992 -3.75 9.56107
    vertex -4.51954 -3.75 11.1088
    endloop
  endfacet
  facet normal 0 1 0
    outer loop
    vertex -4.51954 -3.75 11.1088
    vertex -3.05928 -3.75 9.15435
    vertex -3.42935 -3.75 8.78428
    endloop
  endfacet
  facet normal 0 1 0
    outer loop
    vertex -4.74498 -3.75 10.7966
    vertex -3.42935 -3.75 8.78428
    vertex -3.83608 -3.75 8.45492
    endloop
  endfacet
  facet normal 0 1 0
    outer loop
    vertex -4.51954 -3.75 11.1088
    vertex -3.42935 -3.75 8.78428
    vertex -4.74498 -3.75 10.7966
    endloop
  endfacet
  facet normal 0 1 0
    outer loop
    vertex -5.01329 -3.75 10.5204
    vertex -3.83608 -3.75 8.45492
    vertex -4.275 -3.75 8.16987
    endloop
  endfacet
  facet normal 0 1 0
    outer loop
    vertex -4.74498 -3.75 10.7966
    vertex -3.83608 -3.75 8.45492
    vertex -5.01329 -3.75 10.5204
    endloop
  endfacet
  facet normal 0 1 0
    outer loop
    vertex -5.3188 -3.75 10.286
    vertex -4.275 -3.75 8.16987
    vertex -4.74132 -3.75 7.93227
    endloop
  endfacet
  facet normal 0 1 0
    outer loop
    vertex -5.01329 -3.75 10.5204
    vertex -4.275 -3.75 8.16987
    vertex -5.3188 -3.75 10.286
    endloop
  endfacet
  facet normal 0 1 0
    outer loop
    vertex -5.65506 -3.75 10.0983
    vertex -4.74132 -3.75 7.93227
    vertex -5.22992 -3.75 7.74472
    endloop
  endfacet
  facet normal 0 1 0
    outer loop
    vertex -5.3188 -3.75 10.286
    vertex -4.74132 -3.75 7.93227
    vertex -5.65506 -3.75 10.0983
    endloop
  endfacet
  facet normal 0 1 0
    outer loop
    vertex -6.01497 -3.75 9.96133
    vertex -5.22992 -3.75 7.74472
    vertex -5.73544 -3.75 7.60926
    endloop
  endfacet
  facet normal 0 1 0
    outer loop
    vertex -5.65506 -3.75 10.0983
    vertex -5.22992 -3.75 7.74472
    vertex -6.01497 -3.75 9.96133
    endloop
  endfacet
  facet normal 0 1 0
    outer loop
    vertex -6.39093 -3.75 9.87798
    vertex -5.73544 -3.75 7.60926
    vertex -6.25236 -3.75 7.52739
    endloop
  endfacet
  facet normal 0 1 0
    outer loop
    vertex -6.01497 -3.75 9.96133
    vertex -5.73544 -3.75 7.60926
    vertex -6.39093 -3.75 9.87798
    endloop
  endfacet
  facet normal 0 1 0
    outer loop
    vertex -6.775 -3.75 9.85
    vertex -6.25236 -3.75 7.52739
    vertex -6.775 -3.75 7.5
    endloop
  endfacet
  facet normal 0 1 0
    outer loop
    vertex -6.39093 -3.75 9.87798
    vertex -6.25236 -3.75 7.52739
    vertex -6.775 -3.75 9.85
    endloop
  endfacet
  facet normal 0 1 -0
    outer loop
    vertex -6.775 -3.75 9.85
    vertex -6.775 -3.75 7.5
    vertex -7.29764 -3.75 7.52739
    endloop
  endfacet
  facet normal 0 1 -0
    outer loop
    vertex -7.15907 -3.75 9.87798
    vertex -7.29764 -3.75 7.52739
    vertex -7.81456 -3.75 7.60926
    endloop
  endfacet
  facet normal 0 1 0
    outer loop
    vertex -6.775 -3.75 9.85
    vertex -7.29764 -3.75 7.52739
    vertex -7.15907 -3.75 9.87798
    endloop
  endfacet
  facet normal 0 1 -0
    outer loop
    vertex -7.53503 -3.75 9.96133
    vertex -7.81456 -3.75 7.60926
    vertex -8.32009 -3.75 7.74472
    endloop
  endfacet
  facet normal 0 1 0
    outer loop
    vertex -7.15907 -3.75 9.87798
    vertex -7.81456 -3.75 7.60926
    vertex -7.53503 -3.75 9.96133
    endloop
  endfacet
  facet normal 0 1 -0
    outer loop
    vertex -7.89494 -3.75 10.0983
    vertex -8.32009 -3.75 7.74472
    vertex -8.80868 -3.75 7.93227
    endloop
  endfacet
  facet normal 0 1 0
    outer loop
    vertex -7.53503 -3.75 9.96133
    vertex -8.32009 -3.75 7.74472
    vertex -7.89494 -3.75 10.0983
    endloop
  endfacet
  facet normal 0 1 -0
    outer loop
    vertex -8.2312 -3.75 10.286
    vertex -8.80868 -3.75 7.93227
    vertex -9.275 -3.75 8.16987
    endloop
  endfacet
  facet normal 0 1 0
    outer loop
    vertex -7.89494 -3.75 10.0983
    vertex -8.80868 -3.75 7.93227
    vertex -8.2312 -3.75 10.286
    endloop
  endfacet
  facet normal 0 1 -0
    outer loop
    vertex -8.53671 -3.75 10.5204
    vertex -9.275 -3.75 8.16987
    vertex -9.71393 -3.75 8.45492
    endloop
  endfacet
  facet normal 0 1 0
    outer loop
    vertex -8.2312 -3.75 10.286
    vertex -9.275 -3.75 8.16987
    vertex -8.53671 -3.75 10.5204
    endloop
  endfacet
  facet normal 0 1 -0
    outer loop
    vertex -8.80502 -3.75 10.7966
    vertex -9.71393 -3.75 8.45492
    vertex -10.1207 -3.75 8.78428
    endloop
  endfacet
  facet normal 0 1 0
    outer loop
    vertex -8.53671 -3.75 10.5204
    vertex -9.71393 -3.75 8.45492
    vertex -8.80502 -3.75 10.7966
    endloop
  endfacet
  facet normal 0 1 -0
    outer loop
    vertex -9.03046 -3.75 11.1088
    vertex -10.1207 -3.75 8.78428
    vertex -10.4907 -3.75 9.15435
    endloop
  endfacet
  facet normal 0 1 0
    outer loop
    vertex -8.80502 -3.75 10.7966
    vertex -10.1207 -3.75 8.78428
    vertex -9.03046 -3.75 11.1088
    endloop
  endfacet
  facet normal 0 1 -0
    outer loop
    vertex -9.03046 -3.75 11.1088
    vertex -10.4907 -3.75 9.15435
    vertex -10.8201 -3.75 9.56107
    endloop
  endfacet
  facet normal 0 1 -0
    outer loop
    vertex -9.20827 -3.75 11.4504
    vertex -10.8201 -3.75 9.56107
    vertex -11.1051 -3.75 10
    endloop
  endfacet
  facet normal 0 1 0
    outer loop
    vertex -9.03046 -3.75 11.1088
    vertex -10.8201 -3.75 9.56107
    vertex -9.20827 -3.75 11.4504
    endloop
  endfacet
  facet normal 0 1 -0
    outer loop
    vertex -9.33471 -3.75 11.8141
    vertex -11.1051 -3.75 10
    vertex -11.3427 -3.75 10.4663
    endloop
  endfacet
  facet normal 0 1 0
    outer loop
    vertex -9.20827 -3.75 11.4504
    vertex -11.1051 -3.75 10
    vertex -9.33471 -3.75 11.8141
    endloop
  endfacet
  facet normal 0 1 -0
    outer loop
    vertex -9.33471 -3.75 11.8141
    vertex -11.3427 -3.75 10.4663
    vertex -11.5303 -3.75 10.9549
    endloop
  endfacet
  facet normal 0 1 -0
    outer loop
    vertex -9.40708 -3.75 12.1924
    vertex -11.5303 -3.75 10.9549
    vertex -11.6657 -3.75 11.4604
    endloop
  endfacet
  facet normal 0 1 0
    outer loop
    vertex -9.33471 -3.75 11.8141
    vertex -11.5303 -3.75 10.9549
    vertex -9.40708 -3.75 12.1924
    endloop
  endfacet
  facet normal 0 1 -0
    outer loop
    vertex -9.40708 -3.75 12.1924
    vertex -11.6657 -3.75 11.4604
    vertex -11.7476 -3.75 11.9774
    endloop
  endfacet
  facet normal 0 1 -0
    outer loop
    vertex -9.42388 -3.75 12.5771
    vertex -11.7476 -3.75 11.9774
    vertex -11.775 -3.75 12.5
    endloop
  endfacet
  facet normal 0 1 0
    outer loop
    vertex -9.40708 -3.75 12.1924
    vertex -11.7476 -3.75 11.9774
    vertex -9.42388 -3.75 12.5771
    endloop
  endfacet
  facet normal 0 1 0
    outer loop
    vertex -9.42388 -3.75 12.5771
    vertex -11.775 -3.75 12.5
    vertex -9.38474 -3.75 12.9602
    endloop
  endfacet
  facet normal 0 1 0
    outer loop
    vertex -9.38474 -3.75 12.9602
    vertex -11.775 -3.75 12.5
    vertex -9.29049 -3.75 13.3335
    endloop
  endfacet
  facet normal 0 1 0
    outer loop
    vertex -9.29049 -3.75 13.3335
    vertex -11.775 -3.75 12.5
    vertex -9.14313 -3.75 13.6893
    endloop
  endfacet
  facet normal 0 1 0
    outer loop
    vertex -9.14313 -3.75 13.6893
    vertex -11.775 -3.75 12.5
    vertex -8.94575 -3.75 14.02
    endloop
  endfacet
  facet normal -0 0 -1
    outer loop
    vertex -7.54397 -3.75 15.351
    vertex -6.00603 -3.75 15.351
    vertex -7.54397 -8.65 15.351
    endloop
  endfacet
  facet normal -0.707106 0 -0.707108
    outer loop
    vertex -6.00603 -3.75 15.351
    vertex -5.45 -3.75 14.795
    vertex -6.00603 -8.65 15.351
    endloop
  endfacet
  facet normal 0 -0 -1
    outer loop
    vertex -7.54397 -8.65 15.351
    vertex -6.00603 -3.75 15.351
    vertex -6.00603 -8.65 15.351
    endloop
  endfacet
  facet normal 0.707106 0 -0.707108
    outer loop
    vertex -8.1 -3.75 14.795
    vertex -7.54397 -3.75 15.351
    vertex -8.1 -8.65 14.795
    endloop
  endfacet
  facet normal 0.707106 0 -0.707108
    outer loop
    vertex -8.1 -8.65 14.795
    vertex -7.54397 -3.75 15.351
    vertex -7.54397 -8.65 15.351
    endloop
  endfacet
  facet normal 0.561604 0 -0.827406
    outer loop
    vertex -8.41862 -8.65 14.5787
    vertex -8.41862 -3.75 14.5787
    vertex -8.1 -3.75 14.795
    endloop
  endfacet
  facet normal 0.561604 0 -0.827406
    outer loop
    vertex -8.41862 -8.65 14.5787
    vertex -8.1 -3.75 14.795
    vertex -8.1 -8.65 14.795
    endloop
  endfacet
  facet normal -0.775315 -0 -0.631575
    outer loop
    vertex -4.84746 -8.65 14.3185
    vertex -4.84746 -3.75 14.3185
    vertex -4.60425 -3.75 14.02
    endloop
  endfacet
  facet normal -0.858662 -0 -0.512543
    outer loop
    vertex -4.60425 -8.65 14.02
    vertex -4.60425 -3.75 14.02
    vertex -4.40687 -3.75 13.6893
    endloop
  endfacet
  facet normal -0.775315 -0 -0.631575
    outer loop
    vertex -4.84746 -8.65 14.3185
    vertex -4.60425 -3.75 14.02
    vertex -4.60425 -8.65 14.02
    endloop
  endfacet
  facet normal -0.675589 -0 -0.737279
    outer loop
    vertex -5.13138 -8.65 14.5787
    vertex -5.13138 -3.75 14.5787
    vertex -4.84746 -3.75 14.3185
    endloop
  endfacet
  facet normal -0.675589 -0 -0.737279
    outer loop
    vertex -5.13138 -8.65 14.5787
    vertex -4.84746 -3.75 14.3185
    vertex -4.84746 -8.65 14.3185
    endloop
  endfacet
  facet normal -0.561602 0 -0.827407
    outer loop
    vertex -5.45 -3.75 14.795
    vertex -5.13138 -3.75 14.5787
    vertex -5.45 -8.65 14.795
    endloop
  endfacet
  facet normal -0.561602 -0 -0.827407
    outer loop
    vertex -5.45 -8.65 14.795
    vertex -5.13138 -3.75 14.5787
    vertex -5.13138 -8.65 14.5787
    endloop
  endfacet
  facet normal -0.994822 -0 -0.101636
    outer loop
    vertex -4.16526 -8.65 12.9602
    vertex -4.16526 -3.75 12.9602
    vertex -4.12612 -3.75 12.5771
    endloop
  endfacet
  facet normal -0.999048 0 0.0436201
    outer loop
    vertex -4.12612 -8.65 12.5771
    vertex -4.12612 -3.75 12.5771
    vertex -4.14292 -3.75 12.1924
    endloop
  endfacet
  facet normal -0.994822 -0 -0.101636
    outer loop
    vertex -4.16526 -8.65 12.9602
    vertex -4.12612 -3.75 12.5771
    vertex -4.12612 -8.65 12.5771
    endloop
  endfacet
  facet normal -0.969587 -0 -0.244745
    outer loop
    vertex -4.25951 -8.65 13.3335
    vertex -4.25951 -3.75 13.3335
    vertex -4.16526 -3.75 12.9602
    endloop
  endfacet
  facet normal -0.969587 -0 -0.244745
    outer loop
    vertex -4.25951 -8.65 13.3335
    vertex -4.16526 -3.75 12.9602
    vertex -4.16526 -8.65 12.9602
    endloop
  endfacet
  facet normal -0.923881 -0 -0.382681
    outer loop
    vertex -4.40687 -8.65 13.6893
    vertex -4.40687 -3.75 13.6893
    vertex -4.25951 -3.75 13.3335
    endloop
  endfacet
  facet normal -0.923881 -0 -0.382681
    outer loop
    vertex -4.40687 -8.65 13.6893
    vertex -4.25951 -3.75 13.3335
    vertex -4.25951 -8.65 13.3335
    endloop
  endfacet
  facet normal -0.982178 0 0.187952
    outer loop
    vertex -4.14292 -8.65 12.1924
    vertex -4.14292 -3.75 12.1924
    vertex -4.2153 -3.75 11.8141
    endloop
  endfacet
  facet normal -0.999048 0 0.0436201
    outer loop
    vertex -4.12612 -8.65 12.5771
    vertex -4.14292 -3.75 12.1924
    vertex -4.14292 -8.65 12.1924
    endloop
  endfacet
  facet normal -0.944567 0 0.328318
    outer loop
    vertex -4.2153 -8.65 11.8141
    vertex -4.2153 -3.75 11.8141
    vertex -4.34173 -3.75 11.4504
    endloop
  endfacet
  facet normal -0.982178 0 0.187952
    outer loop
    vertex -4.14292 -8.65 12.1924
    vertex -4.2153 -3.75 11.8141
    vertex -4.2153 -8.65 11.8141
    endloop
  endfacet
  facet normal -0.887011 0 0.461749
    outer loop
    vertex -4.34173 -8.65 11.4504
    vertex -4.34173 -3.75 11.4504
    vertex -4.51954 -3.75 11.1088
    endloop
  endfacet
  facet normal -0.944567 0 0.328318
    outer loop
    vertex -4.2153 -8.65 11.8141
    vertex -4.34173 -3.75 11.4504
    vertex -4.34173 -8.65 11.4504
    endloop
  endfacet
  facet normal -0.810725 0 0.585427
    outer loop
    vertex -4.51954 -8.65 11.1088
    vertex -4.51954 -3.75 11.1088
    vertex -4.74498 -3.75 10.7966
    endloop
  endfacet
  facet normal -0.887011 0 0.461749
    outer loop
    vertex -4.34173 -8.65 11.4504
    vertex -4.51954 -3.75 11.1088
    vertex -4.51954 -8.65 11.1088
    endloop
  endfacet
  facet normal -0.717317 0 0.696747
    outer loop
    vertex -4.74498 -8.65 10.7966
    vertex -4.74498 -3.75 10.7966
    vertex -5.01329 -3.75 10.5204
    endloop
  endfacet
  facet normal -0.810725 0 0.585427
    outer loop
    vertex -4.51954 -8.65 11.1088
    vertex -4.74498 -3.75 10.7966
    vertex -4.74498 -8.65 10.7966
    endloop
  endfacet
  facet normal -0.608761 0 0.793354
    outer loop
    vertex -5.01329 -8.65 10.5204
    vertex -5.01329 -3.75 10.5204
    vertex -5.3188 -3.75 10.286
    endloop
  endfacet
  facet normal -0.717317 0 0.696747
    outer loop
    vertex -4.74498 -8.65 10.7966
    vertex -5.01329 -3.75 10.5204
    vertex -5.01329 -8.65 10.5204
    endloop
  endfacet
  facet normal -0.487351 0 0.873206
    outer loop
    vertex -5.3188 -8.65 10.286
    vertex -5.3188 -3.75 10.286
    vertex -5.65506 -3.75 10.0983
    endloop
  endfacet
  facet normal -0.608761 0 0.793354
    outer loop
    vertex -5.01329 -8.65 10.5204
    vertex -5.3188 -3.75 10.286
    vertex -5.3188 -8.65 10.286
    endloop
  endfacet
  facet normal -0.35565 0 0.934619
    outer loop
    vertex -5.65506 -8.65 10.0983
    vertex -5.65506 -3.75 10.0983
    vertex -6.01497 -3.75 9.96133
    endloop
  endfacet
  facet normal -0.487351 0 0.873206
    outer loop
    vertex -5.3188 -8.65 10.286
    vertex -5.65506 -3.75 10.0983
    vertex -5.65506 -8.65 10.0983
    endloop
  endfacet
  facet normal -0.216441 0 0.976296
    outer loop
    vertex -6.01497 -8.65 9.96133
    vertex -6.01497 -3.75 9.96133
    vertex -6.39093 -3.75 9.87798
    endloop
  endfacet
  facet normal -0.35565 0 0.934619
    outer loop
    vertex -5.65506 -8.65 10.0983
    vertex -6.01497 -3.75 9.96133
    vertex -6.01497 -8.65 9.96133
    endloop
  endfacet
  facet normal -0.0726562 0 0.997357
    outer loop
    vertex -6.39093 -8.65 9.87798
    vertex -6.39093 -3.75 9.87798
    vertex -6.775 -3.75 9.85
    endloop
  endfacet
  facet normal -0.216441 0 0.976296
    outer loop
    vertex -6.01497 -8.65 9.96133
    vertex -6.39093 -3.75 9.87798
    vertex -6.39093 -8.65 9.87798
    endloop
  endfacet
  facet normal 0.0726562 0 0.997357
    outer loop
    vertex -6.775 -8.65 9.85
    vertex -6.775 -3.75 9.85
    vertex -7.15907 -3.75 9.87798
    endloop
  endfacet
  facet normal -0.0726562 0 0.997357
    outer loop
    vertex -6.39093 -8.65 9.87798
    vertex -6.775 -3.75 9.85
    vertex -6.775 -8.65 9.85
    endloop
  endfacet
  facet normal 0.21644 0 0.976296
    outer loop
    vertex -7.15907 -8.65 9.87798
    vertex -7.15907 -3.75 9.87798
    vertex -7.53503 -3.75 9.96133
    endloop
  endfacet
  facet normal 0.0726562 0 0.997357
    outer loop
    vertex -6.775 -8.65 9.85
    vertex -7.15907 -3.75 9.87798
    vertex -7.15907 -8.65 9.87798
    endloop
  endfacet
  facet normal 0.35565 0 0.934619
    outer loop
    vertex -7.53503 -8.65 9.96133
    vertex -7.53503 -3.75 9.96133
    vertex -7.89494 -3.75 10.0983
    endloop
  endfacet
  facet normal 0.21644 0 0.976296
    outer loop
    vertex -7.15907 -8.65 9.87798
    vertex -7.53503 -3.75 9.96133
    vertex -7.53503 -8.65 9.96133
    endloop
  endfacet
  facet normal 0.487353 0 0.873205
    outer loop
    vertex -7.89494 -8.65 10.0983
    vertex -7.89494 -3.75 10.0983
    vertex -8.2312 -3.75 10.286
    endloop
  endfacet
  facet normal 0.35565 0 0.934619
    outer loop
    vertex -7.53503 -8.65 9.96133
    vertex -7.89494 -3.75 10.0983
    vertex -7.89494 -8.65 10.0983
    endloop
  endfacet
  facet normal 0.608763 0 0.793352
    outer loop
    vertex -8.2312 -8.65 10.286
    vertex -8.2312 -3.75 10.286
    vertex -8.53671 -3.75 10.5204
    endloop
  endfacet
  facet normal 0.487353 0 0.873205
    outer loop
    vertex -7.89494 -8.65 10.0983
    vertex -8.2312 -3.75 10.286
    vertex -8.2312 -8.65 10.286
    endloop
  endfacet
  facet normal 0.717317 0 0.696747
    outer loop
    vertex -8.53671 -8.65 10.5204
    vertex -8.53671 -3.75 10.5204
    vertex -8.80502 -3.75 10.7966
    endloop
  endfacet
  facet normal 0.608763 0 0.793352
    outer loop
    vertex -8.2312 -8.65 10.286
    vertex -8.53671 -3.75 10.5204
    vertex -8.53671 -8.65 10.5204
    endloop
  endfacet
  facet normal 0.810721 0 0.585433
    outer loop
    vertex -8.80502 -8.65 10.7966
    vertex -8.80502 -3.75 10.7966
    vertex -9.03046 -3.75 11.1088
    endloop
  endfacet
  facet normal 0.717317 0 0.696747
    outer loop
    vertex -8.53671 -8.65 10.5204
    vertex -8.80502 -3.75 10.7966
    vertex -8.80502 -8.65 10.7966
    endloop
  endfacet
  facet normal 0.887011 0 0.461749
    outer loop
    vertex -9.03046 -8.65 11.1088
    vertex -9.03046 -3.75 11.1088
    vertex -9.20827 -3.75 11.4504
    endloop
  endfacet
  facet normal 0.810721 0 0.585433
    outer loop
    vertex -8.80502 -8.65 10.7966
    vertex -9.03046 -3.75 11.1088
    vertex -9.03046 -8.65 11.1088
    endloop
  endfacet
  facet normal 0.944567 0 0.328319
    outer loop
    vertex -9.20827 -8.65 11.4504
    vertex -9.20827 -3.75 11.4504
    vertex -9.33471 -3.75 11.8141
    endloop
  endfacet
  facet normal 0.887011 0 0.461749
    outer loop
    vertex -9.03046 -8.65 11.1088
    vertex -9.20827 -3.75 11.4504
    vertex -9.20827 -8.65 11.4504
    endloop
  endfacet
  facet normal 0.982179 0 0.187947
    outer loop
    vertex -9.33471 -8.65 11.8141
    vertex -9.33471 -3.75 11.8141
    vertex -9.40708 -3.75 12.1924
    endloop
  endfacet
  facet normal 0.944567 0 0.328319
    outer loop
    vertex -9.20827 -8.65 11.4504
    vertex -9.33471 -3.75 11.8141
    vertex -9.33471 -8.65 11.8141
    endloop
  endfacet
  facet normal 0.999048 0 0.0436238
    outer loop
    vertex -9.40708 -8.65 12.1924
    vertex -9.40708 -3.75 12.1924
    vertex -9.42388 -3.75 12.5771
    endloop
  endfacet
  facet normal 0.982179 0 0.187947
    outer loop
    vertex -9.33471 -8.65 11.8141
    vertex -9.40708 -3.75 12.1924
    vertex -9.40708 -8.65 12.1924
    endloop
  endfacet
  facet normal 0.994822 0 -0.101636
    outer loop
    vertex -9.42388 -8.65 12.5771
    vertex -9.42388 -3.75 12.5771
    vertex -9.38474 -3.75 12.9602
    endloop
  endfacet
  facet normal 0.999048 0 0.0436238
    outer loop
    vertex -9.40708 -8.65 12.1924
    vertex -9.42388 -3.75 12.5771
    vertex -9.42388 -8.65 12.5771
    endloop
  endfacet
  facet normal 0.969587 0 -0.244746
    outer loop
    vertex -9.38474 -8.65 12.9602
    vertex -9.38474 -3.75 12.9602
    vertex -9.29049 -3.75 13.3335
    endloop
  endfacet
  facet normal 0.994822 0 -0.101636
    outer loop
    vertex -9.42388 -8.65 12.5771
    vertex -9.38474 -3.75 12.9602
    vertex -9.38474 -8.65 12.9602
    endloop
  endfacet
  facet normal 0.923881 0 -0.38268
    outer loop
    vertex -9.29049 -8.65 13.3335
    vertex -9.29049 -3.75 13.3335
    vertex -9.14313 -3.75 13.6893
    endloop
  endfacet
  facet normal 0.969587 0 -0.244746
    outer loop
    vertex -9.38474 -8.65 12.9602
    vertex -9.29049 -3.75 13.3335
    vertex -9.29049 -8.65 13.3335
    endloop
  endfacet
  facet normal 0.85866 0 -0.512546
    outer loop
    vertex -9.14313 -8.65 13.6893
    vertex -9.14313 -3.75 13.6893
    vertex -8.94575 -3.75 14.02
    endloop
  endfacet
  facet normal 0.923881 0 -0.38268
    outer loop
    vertex -9.29049 -8.65 13.3335
    vertex -9.14313 -3.75 13.6893
    vertex -9.14313 -8.65 13.6893
    endloop
  endfacet
  facet normal 0.775317 0 -0.631572
    outer loop
    vertex -8.94575 -8.65 14.02
    vertex -8.94575 -3.75 14.02
    vertex -8.70254 -3.75 14.3185
    endloop
  endfacet
  facet normal 0.85866 0 -0.512546
    outer loop
    vertex -9.14313 -8.65 13.6893
    vertex -8.94575 -3.75 14.02
    vertex -8.94575 -8.65 14.02
    endloop
  endfacet
  facet normal 0.675588 0 -0.73728
    outer loop
    vertex -8.70254 -8.65 14.3185
    vertex -8.70254 -3.75 14.3185
    vertex -8.41862 -3.75 14.5787
    endloop
  endfacet
  facet normal 0.775317 0 -0.631572
    outer loop
    vertex -8.94575 -8.65 14.02
    vertex -8.70254 -3.75 14.3185
    vertex -8.70254 -8.65 14.3185
    endloop
  endfacet
  facet normal 0.675588 0 -0.73728
    outer loop
    vertex -8.70254 -8.65 14.3185
    vertex -8.41862 -3.75 14.5787
    vertex -8.41862 -8.65 14.5787
    endloop
  endfacet
  facet normal -0.707106 -0 -0.707108
    outer loop
    vertex -6.00603 -8.65 15.351
    vertex -5.45 -3.75 14.795
    vertex -5.45 -8.65 14.795
    endloop
  endfacet
  facet normal -0.858662 -0 -0.512543
    outer loop
    vertex -4.60425 -8.65 14.02
    vertex -4.40687 -3.75 13.6893
    vertex -4.40687 -8.65 13.6893
    endloop
  endfacet
  facet normal 0 -0 1
    outer loop
    vertex 7.60325 7.97236 0.5
    vertex 7.73842 5.30693 0.5
    vertex 7.875 8 0.5
    endloop
  endfacet
  facet normal 0 0 1
    outer loop
    vertex 7.73842 5.30693 0.5
    vertex 7.60325 7.97236 0.5
    vertex 7.47086 5.36191 0.5
    endloop
  endfacet
  facet normal 0 0 1
    outer loop
    vertex 7.47086 5.36191 0.5
    vertex 7.60325 7.97236 0.5
    vertex 7.34262 7.89059 0.5
    endloop
  endfacet
  facet normal 0 0 1
    outer loop
    vertex 7.875 8 0.5
    vertex 7.73842 5.30693 0.5
    vertex 8.01158 5.30693 0.5
    endloop
  endfacet
  facet normal 0 -0 1
    outer loop
    vertex 7.875 8 0.5
    vertex 8.01158 5.30693 0.5
    vertex 8.14675 7.97236 0.5
    endloop
  endfacet
  facet normal 0 0 1
    outer loop
    vertex 8.14675 7.97236 0.5
    vertex 8.01158 5.30693 0.5
    vertex 8.27914 5.36191 0.5
    endloop
  endfacet
  facet normal 0 -0 1
    outer loop
    vertex 8.14675 7.97236 0.5
    vertex 8.27914 5.36191 0.5
    vertex 8.40738 7.89059 0.5
    endloop
  endfacet
  facet normal 0 0 1
    outer loop
    vertex 8.40738 7.89059 0.5
    vertex 8.27914 5.36191 0.5
    vertex 8.53016 5.46963 0.5
    endloop
  endfacet
  facet normal 0 -0 1
    outer loop
    vertex 8.40738 7.89059 0.5
    vertex 8.53016 5.46963 0.5
    vertex 8.64621 7.75803 0.5
    endloop
  endfacet
  facet normal 0 0 1
    outer loop
    vertex 8.64621 7.75803 0.5
    vertex 8.53016 5.46963 0.5
    vertex 8.75435 5.62568 0.5
    endloop
  endfacet
  facet normal 0 -0 1
    outer loop
    vertex 8.64621 7.75803 0.5
    vertex 8.75435 5.62568 0.5
    vertex 8.85347 7.5801 0.5
    endloop
  endfacet
  facet normal 0 0 1
    outer loop
    vertex 8.85347 7.5801 0.5
    vertex 8.75435 5.62568 0.5
    vertex 8.94255 5.82366 0.5
    endloop
  endfacet
  facet normal 0 -0 1
    outer loop
    vertex 8.85347 7.5801 0.5
    vertex 8.94255 5.82366 0.5
    vertex 9.02067 7.3641 0.5
    endloop
  endfacet
  facet normal 0 0 1
    outer loop
    vertex 9.02067 7.3641 0.5
    vertex 8.94255 5.82366 0.5
    vertex 9.08704 6.05547 0.5
    endloop
  endfacet
  facet normal 0 -0 1
    outer loop
    vertex 9.02067 7.3641 0.5
    vertex 9.08704 6.05547 0.5
    vertex 9.14096 7.11886 0.5
    endloop
  endfacet
  facet normal 0 0 1
    outer loop
    vertex 9.14096 7.11886 0.5
    vertex 9.08704 6.05547 0.5
    vertex 9.1819 6.31162 0.5
    endloop
  endfacet
  facet normal 0 -0 1
    outer loop
    vertex 9.14096 7.11886 0.5
    vertex 9.1819 6.31162 0.5
    vertex 9.20943 6.85443 0.5
    endloop
  endfacet
  facet normal 0 0 1
    outer loop
    vertex 9.20943 6.85443 0.5
    vertex 9.1819 6.31162 0.5
    vertex 9.22327 6.58162 0.5
    endloop
  endfacet
  facet normal 0 0 1
    outer loop
    vertex 7.47086 5.36191 0.5
    vertex 7.34262 7.89059 0.5
    vertex 7.21984 5.46963 0.5
    endloop
  endfacet
  facet normal 0 0 1
    outer loop
    vertex 7.21984 5.46963 0.5
    vertex 7.34262 7.89059 0.5
    vertex 7.10379 7.75803 0.5
    endloop
  endfacet
  facet normal 0 0 1
    outer loop
    vertex 7.21984 5.46963 0.5
    vertex 7.10379 7.75803 0.5
    vertex 6.99565 5.62568 0.5
    endloop
  endfacet
  facet normal 0 0 1
    outer loop
    vertex 6.99565 5.62568 0.5
    vertex 7.10379 7.75803 0.5
    vertex 6.89653 7.5801 0.5
    endloop
  endfacet
  facet normal 0 0 1
    outer loop
    vertex 6.99565 5.62568 0.5
    vertex 6.89653 7.5801 0.5
    vertex 6.80745 5.82366 0.5
    endloop
  endfacet
  facet normal 0 0 1
    outer loop
    vertex 6.80745 5.82366 0.5
    vertex 6.89653 7.5801 0.5
    vertex 6.72933 7.3641 0.5
    endloop
  endfacet
  facet normal 0 0 1
    outer loop
    vertex 6.80745 5.82366 0.5
    vertex 6.72933 7.3641 0.5
    vertex 6.66296 6.05547 0.5
    endloop
  endfacet
  facet normal 0 0 1
    outer loop
    vertex 6.66296 6.05547 0.5
    vertex 6.72933 7.3641 0.5
    vertex 6.60903 7.11886 0.5
    endloop
  endfacet
  facet normal 0 0 1
    outer loop
    vertex 6.66296 6.05547 0.5
    vertex 6.60903 7.11886 0.5
    vertex 6.5681 6.31162 0.5
    endloop
  endfacet
  facet normal 0 0 1
    outer loop
    vertex 6.5681 6.31162 0.5
    vertex 6.60903 7.11886 0.5
    vertex 6.54057 6.85443 0.5
    endloop
  endfacet
  facet normal 0 0 1
    outer loop
    vertex 6.5681 6.31162 0.5
    vertex 6.54057 6.85443 0.5
    vertex 6.52673 6.58162 0.5
    endloop
  endfacet
endsolid rambo_base_upper_mount.stl
