solid foot_a.stl
  facet normal 0.7071 -0.7071 -0.00446793
    outer loop
    vertex 9.8283 -10.4997 5.9997
    vertex 12 -8.328 5.9997
    vertex 9.828 -10.5 6
    endloop
  endfacet
  facet normal 0.5 -0.5 -0.707107
    outer loop
    vertex 9.8283 -10.4997 5.9997
    vertex 9 -8.5 4
    vertex 12 -8.328 5.9997
    endloop
  endfacet
  facet normal 0 -0.705433 -0.708776
    outer loop
    vertex 9.828 -10.5 6
    vertex -12 -10.5 6
    vertex 9.8283 -10.4997 5.9997
    endloop
  endfacet
  facet normal 0 -0.707107 -0.707107
    outer loop
    vertex 9.8283 -10.4997 5.9997
    vertex -10 -8.5 4
    vertex 9 -8.5 4
    endloop
  endfacet
  facet normal 4.63313e-008 -0.707106 -0.707107
    outer loop
    vertex 9.8283 -10.4997 5.9997
    vertex -12 -10.5 6
    vertex -10 -8.5 4
    endloop
  endfacet
  facet normal 0.707107 -0.707106 0
    outer loop
    vertex 9.828 -10.5 6
    vertex 12 -8.328 5.9997
    vertex 12 -8.328 8
    endloop
  endfacet
  facet normal 1 0 0
    outer loop
    vertex 12 -8.328 5.9997
    vertex 12 -5.5 4
    vertex 12 -8.328 8
    endloop
  endfacet
  facet normal 0.5 -0.5 -0.707107
    outer loop
    vertex 12 -8.328 5.9997
    vertex 9 -8.5 4
    vertex 12 -5.5 4
    endloop
  endfacet
  facet normal 0.707107 -0.707106 0
    outer loop
    vertex 9.828 -10.5 6
    vertex 12 -8.328 8
    vertex 9.828 -10.5 8
    endloop
  endfacet
  facet normal 0 -1 0
    outer loop
    vertex 9.828 -10.5 8
    vertex -12 -10.5 8
    vertex 9.828 -10.5 6
    endloop
  endfacet
  facet normal 0 -1 0
    outer loop
    vertex 9.828 -10.5 6
    vertex -12 -10.5 8
    vertex -12 -10.5 6
    endloop
  endfacet
  facet normal 0 0 1
    outer loop
    vertex 12 -8.328 8
    vertex 3.55763 -3.8939 8
    vertex 9.828 -10.5 8
    endloop
  endfacet
  facet normal 1 0 -0
    outer loop
    vertex 12 -8.328 8
    vertex 12 -5.5 4
    vertex 12 8.25 8
    endloop
  endfacet
  facet normal -0 0 1
    outer loop
    vertex 12 8.25 8
    vertex 4.60306 -1.25344 8
    vertex 12 -8.328 8
    endloop
  endfacet
  facet normal -0 0 1
    outer loop
    vertex 3.81405 -3.68177 8
    vertex 3.55763 -3.8939 8
    vertex 12 -8.328 8
    endloop
  endfacet
  facet normal 0 0 1
    outer loop
    vertex 12 -8.328 8
    vertex 4.60306 -1.25344 8
    vertex 4.64477 -1.5836 8
    endloop
  endfacet
  facet normal 0 0 1
    outer loop
    vertex 12 -8.328 8
    vertex 4.64477 -1.5836 8
    vertex 4.64477 -1.91639 8
    endloop
  endfacet
  facet normal -0 0 1
    outer loop
    vertex 4.64477 -1.91639 8
    vertex 4.60306 -2.24656 8
    vertex 12 -8.328 8
    endloop
  endfacet
  facet normal 0 0 1
    outer loop
    vertex 12 -8.328 8
    vertex 4.60306 -2.24656 8
    vertex 4.5203 -2.56889 8
    endloop
  endfacet
  facet normal 0 0 1
    outer loop
    vertex 12 -8.328 8
    vertex 4.5203 -2.56889 8
    vertex 4.39779 -2.87831 8
    endloop
  endfacet
  facet normal -0 0 1
    outer loop
    vertex 4.39779 -2.87831 8
    vertex 4.23747 -3.16994 8
    vertex 12 -8.328 8
    endloop
  endfacet
  facet normal 0 0 1
    outer loop
    vertex 12 -8.328 8
    vertex 4.23747 -3.16994 8
    vertex 4.04186 -3.43917 8
    endloop
  endfacet
  facet normal 0 0 1
    outer loop
    vertex 12 -8.328 8
    vertex 4.04186 -3.43917 8
    vertex 3.81405 -3.68177 8
    endloop
  endfacet
  facet normal 0 0 1
    outer loop
    vertex 9.828 -10.5 8
    vertex 3.55763 -3.8939 8
    vertex 3.27665 -4.07221 8
    endloop
  endfacet
  facet normal 0 0 1
    outer loop
    vertex 9.828 -10.5 8
    vertex 3.27665 -4.07221 8
    vertex 2.97553 -4.21391 8
    endloop
  endfacet
  facet normal -0 0 1
    outer loop
    vertex 2.97553 -4.21391 8
    vertex 2.65903 -4.31674 8
    vertex 9.828 -10.5 8
    endloop
  endfacet
  facet normal 0 0 1
    outer loop
    vertex 9.828 -10.5 8
    vertex 1.66787 -4.3791 8
    vertex -12 -10.5 8
    endloop
  endfacet
  facet normal 0 0 1
    outer loop
    vertex 2 -4.4 8
    vertex 1.66787 -4.3791 8
    vertex 9.828 -10.5 8
    endloop
  endfacet
  facet normal 0 0 1
    outer loop
    vertex 9.828 -10.5 8
    vertex 2.65903 -4.31674 8
    vertex 2.33213 -4.3791 8
    endloop
  endfacet
  facet normal 0 0 1
    outer loop
    vertex 9.828 -10.5 8
    vertex 2.33213 -4.3791 8
    vertex 2 -4.4 8
    endloop
  endfacet
  facet normal 1 0 0
    outer loop
    vertex 12 8.25 8
    vertex 12 -5.5 4
    vertex 12 6.5 4
    endloop
  endfacet
  facet normal 1 0 -0
    outer loop
    vertex 12 -5.5 4
    vertex 12 6.5 0
    vertex 12 6.5 4
    endloop
  endfacet
  facet normal 1 0 0
    outer loop
    vertex 12 -5.5 0
    vertex 12 6.5 0
    vertex 12 -5.5 4
    endloop
  endfacet
  facet normal 0.707107 -0.707107 0
    outer loop
    vertex 12 -5.5 4
    vertex 9 -8.5 4
    vertex 12 -5.5 0
    endloop
  endfacet
  facet normal 1 0 0
    outer loop
    vertex 12 8.25 8
    vertex 12 6.5 4
    vertex 12 9.55 6.15668
    endloop
  endfacet
  facet normal 1 0 0
    outer loop
    vertex 12 9.55 6.15668
    vertex 12 9.55 12
    vertex 12 8.25 8
    endloop
  endfacet
  facet normal 1 0 0
    outer loop
    vertex 12 8.25 8
    vertex 12 9.55 12
    vertex 12 8.25 12
    endloop
  endfacet
  facet normal 0 -1 0
    outer loop
    vertex 12 8.25 12
    vertex -10.8 8.25 9.2
    vertex 12 8.25 8
    endloop
  endfacet
  facet normal 0 -1 0
    outer loop
    vertex 12 8.25 8
    vertex -10.8 8.25 9.2
    vertex -10.8 8.25 8
    endloop
  endfacet
  facet normal 0 -0 1
    outer loop
    vertex -10.8 8.25 8
    vertex 1.66787 0.879104 8
    vertex 12 8.25 8
    endloop
  endfacet
  facet normal 0 -0 1
    outer loop
    vertex 4.5203 -0.931104 8
    vertex 4.60306 -1.25344 8
    vertex 12 8.25 8
    endloop
  endfacet
  facet normal 0 0 1
    outer loop
    vertex 12 8.25 8
    vertex 1.66787 0.879104 8
    vertex 2 0.9 8
    endloop
  endfacet
  facet normal -0 0 1
    outer loop
    vertex 12 8.25 8
    vertex 2 0.9 8
    vertex 2.33213 0.879104 8
    endloop
  endfacet
  facet normal 0 -0 1
    outer loop
    vertex 2.33213 0.879104 8
    vertex 2.65903 0.816746 8
    vertex 12 8.25 8
    endloop
  endfacet
  facet normal -0 0 1
    outer loop
    vertex 12 8.25 8
    vertex 2.65903 0.816746 8
    vertex 2.97553 0.713908 8
    endloop
  endfacet
  facet normal -0 0 1
    outer loop
    vertex 12 8.25 8
    vertex 2.97553 0.713908 8
    vertex 3.27665 0.572214 8
    endloop
  endfacet
  facet normal 0 -0 1
    outer loop
    vertex 3.27665 0.572214 8
    vertex 3.55763 0.393896 8
    vertex 12 8.25 8
    endloop
  endfacet
  facet normal -0 0 1
    outer loop
    vertex 12 8.25 8
    vertex 3.55763 0.393896 8
    vertex 3.81405 0.181767 8
    endloop
  endfacet
  facet normal -0 0 1
    outer loop
    vertex 12 8.25 8
    vertex 3.81405 0.181767 8
    vertex 4.04186 -0.0608253 8
    endloop
  endfacet
  facet normal 0 -0 1
    outer loop
    vertex 4.04186 -0.0608253 8
    vertex 4.23747 -0.330058 8
    vertex 12 8.25 8
    endloop
  endfacet
  facet normal -0 0 1
    outer loop
    vertex 12 8.25 8
    vertex 4.23747 -0.330058 8
    vertex 4.39779 -0.621685 8
    endloop
  endfacet
  facet normal -0 0 1
    outer loop
    vertex 12 8.25 8
    vertex 4.39779 -0.621685 8
    vertex 4.5203 -0.931104 8
    endloop
  endfacet
  facet normal 0.5 0.5 -0.707107
    outer loop
    vertex 9.41421 10.5 5
    vertex 12 9.55 6.15668
    vertex 12 6.5 4
    endloop
  endfacet
  facet normal 0.707107 0.707107 0
    outer loop
    vertex 9 9.5 0
    vertex 12 6.5 4
    vertex 12 6.5 0
    endloop
  endfacet
  facet normal 0.5 0.5 -0.707107
    outer loop
    vertex 9.41421 10.5 5
    vertex 12 6.5 4
    vertex 9 9.5 4
    endloop
  endfacet
  facet normal 0.707107 0.707107 0
    outer loop
    vertex 9 9.5 4
    vertex 12 6.5 4
    vertex 9 9.5 0
    endloop
  endfacet
  facet normal 0.813966 0.580913 0
    outer loop
    vertex 12 9.55 6.15668
    vertex 11.5004 10.25 12
    vertex 12 9.55 12
    endloop
  endfacet
  facet normal 0.5 0.499999 -0.707107
    outer loop
    vertex 11.322 10.5 6.34901
    vertex 12 9.55 6.15668
    vertex 9.41421 10.5 5
    endloop
  endfacet
  facet normal 0.813965 0.580913 -3.47873e-008
    outer loop
    vertex 11.322 10.5 6.34901
    vertex 11.5004 10.25 12
    vertex 12 9.55 6.15668
    endloop
  endfacet
  facet normal 0 0 -1
    outer loop
    vertex 12 -5.5 0
    vertex 7.11837 -0.581765 0
    vertex 12 6.5 0
    endloop
  endfacet
  facet normal 0.707107 -0.707107 0
    outer loop
    vertex 12 -5.5 0
    vertex 9 -8.5 4
    vertex 9 -8.5 0
    endloop
  endfacet
  facet normal 0 0 -1
    outer loop
    vertex 7.20249 -1.04527 0
    vertex 7.11837 -0.581765 0
    vertex 12 -5.5 0
    endloop
  endfacet
  facet normal 0 0 -1
    outer loop
    vertex 12 -5.5 0
    vertex 7.24471 -1.51446 0
    vertex 7.20249 -1.04527 0
    endloop
  endfacet
  facet normal 0 0 -1
    outer loop
    vertex 12 -5.5 0
    vertex 7.24471 -1.98554 0
    vertex 7.24471 -1.51446 0
    endloop
  endfacet
  facet normal 0 -0 -1
    outer loop
    vertex 7.20249 -2.45472 0
    vertex 7.24471 -1.98554 0
    vertex 12 -5.5 0
    endloop
  endfacet
  facet normal 0 0 -1
    outer loop
    vertex 12 -5.5 0
    vertex 7.11837 -2.91823 0
    vertex 7.20249 -2.45472 0
    endloop
  endfacet
  facet normal 0 0 -1
    outer loop
    vertex 12 -5.5 0
    vertex 6.99305 -3.37234 0
    vertex 7.11837 -2.91823 0
    endloop
  endfacet
  facet normal 0 -0 -1
    outer loop
    vertex 6.82752 -3.81338 0
    vertex 6.99305 -3.37234 0
    vertex 12 -5.5 0
    endloop
  endfacet
  facet normal 0 0 -1
    outer loop
    vertex 12 -5.5 0
    vertex 6.62313 -4.23781 0
    vertex 6.82752 -3.81338 0
    endloop
  endfacet
  facet normal 0 0 -1
    outer loop
    vertex 12 -5.5 0
    vertex 6.38151 -4.64221 0
    vertex 6.62313 -4.23781 0
    endloop
  endfacet
  facet normal 0 0 -1
    outer loop
    vertex 9 -8.5 0
    vertex 6.38151 -4.64221 0
    vertex 12 -5.5 0
    endloop
  endfacet
  facet normal 0 0 -1
    outer loop
    vertex 12 6.5 0
    vertex 4.69272 2.75686 0
    vertex 9 9.5 0
    endloop
  endfacet
  facet normal 0 0 -1
    outer loop
    vertex 5.08587 2.49734 0
    vertex 4.69272 2.75686 0
    vertex 12 6.5 0
    endloop
  endfacet
  facet normal 0 0 -1
    outer loop
    vertex 12 6.5 0
    vertex 5.45418 2.20363 0
    vertex 5.08587 2.49734 0
    endloop
  endfacet
  facet normal 0 0 -1
    outer loop
    vertex 12 6.5 0
    vertex 5.79467 1.87808 0
    vertex 5.45418 2.20363 0
    endloop
  endfacet
  facet normal 0 0 -1
    outer loop
    vertex 6.10462 1.52332 0
    vertex 5.79467 1.87808 0
    vertex 12 6.5 0
    endloop
  endfacet
  facet normal 0 0 -1
    outer loop
    vertex 12 6.5 0
    vertex 6.38151 1.14221 0
    vertex 6.10462 1.52332 0
    endloop
  endfacet
  facet normal 0 0 -1
    outer loop
    vertex 12 6.5 0
    vertex 6.62313 0.737811 0
    vertex 6.38151 1.14221 0
    endloop
  endfacet
  facet normal 0 0 -1
    outer loop
    vertex 6.82752 0.313382 0
    vertex 6.62313 0.737811 0
    vertex 12 6.5 0
    endloop
  endfacet
  facet normal 0 0 -1
    outer loop
    vertex 12 6.5 0
    vertex 6.99305 -0.12766 0
    vertex 6.82752 0.313382 0
    endloop
  endfacet
  facet normal 0 0 -1
    outer loop
    vertex 12 6.5 0
    vertex 7.11837 -0.581765 0
    vertex 6.99305 -0.12766 0
    endloop
  endfacet
  facet normal -0 0 1
    outer loop
    vertex 12 9.55 12
    vertex -8 9.54577 12
    vertex 12 8.25 12
    endloop
  endfacet
  facet normal 0 0 1
    outer loop
    vertex 11.5004 10.25 12
    vertex -8 9.54577 12
    vertex 12 9.55 12
    endloop
  endfacet
  facet normal 0 0 1
    outer loop
    vertex 12 8.25 12
    vertex -8 9.54577 12
    vertex -8 8.25 12
    endloop
  endfacet
  facet normal 0 -1 0
    outer loop
    vertex -8 8.25 12
    vertex -10.8 8.25 9.2
    vertex 12 8.25 12
    endloop
  endfacet
  facet normal 0 -1 0
    outer loop
    vertex 9 -8.5 4
    vertex -10 -8.5 4
    vertex 9 -8.5 0
    endloop
  endfacet
  facet normal -0.707107 0 -0.707107
    outer loop
    vertex -12 7.5 6
    vertex -10 -8.5 4
    vertex -12 -10.5 6
    endloop
  endfacet
  facet normal -1 0 0
    outer loop
    vertex -12 7.5 6
    vertex -12 -10.5 6
    vertex -12 7.5 8
    endloop
  endfacet
  facet normal -1 0 0
    outer loop
    vertex -12 7.5 8
    vertex -12 -10.5 6
    vertex -12 -10.5 8
    endloop
  endfacet
  facet normal -0.707107 0 -0.707107
    outer loop
    vertex -10 9.5 4
    vertex -10 -8.5 4
    vertex -12 7.5 6
    endloop
  endfacet
  facet normal -1 -0 0
    outer loop
    vertex -10 -8.5 4
    vertex -10 9.5 4
    vertex -10 -8.5 0
    endloop
  endfacet
  facet normal 0 -1 0
    outer loop
    vertex 9 -8.5 0
    vertex -10 -8.5 4
    vertex -10 -8.5 0
    endloop
  endfacet
  facet normal -0.474422 0.338283 0.812705
    outer loop
    vertex -7.49785 10.25 12
    vertex -7.74785 10.5 11.75
    vertex -8 9.54577 12
    endloop
  endfacet
  facet normal 0 0.707107 0.707107
    outer loop
    vertex -7.74785 10.5 11.75
    vertex -7.49785 10.25 12
    vertex 11.322 10.5 11.75
    endloop
  endfacet
  facet normal 0 0 1
    outer loop
    vertex -7.49785 10.25 12
    vertex -8 9.54577 12
    vertex 11.5004 10.25 12
    endloop
  endfacet
  facet normal -0 0.707107 0.707107
    outer loop
    vertex 11.322 10.5 11.75
    vertex -7.49785 10.25 12
    vertex 11.5004 10.25 12
    endloop
  endfacet
  facet normal -0.474422 0.338283 0.812705
    outer loop
    vertex -8 9.54577 12
    vertex -7.74785 10.5 11.75
    vertex -8.95423 10.5 11.0458
    endloop
  endfacet
  facet normal 0 1 0
    outer loop
    vertex -8.95423 10.5 11.0458
    vertex -7.74785 10.5 11.75
    vertex -9 10.5 11
    endloop
  endfacet
  facet normal -0 1 0
    outer loop
    vertex -9 10.5 11
    vertex -7.74785 10.5 11.75
    vertex 11.322 10.5 11.75
    endloop
  endfacet
  facet normal -0.707092 2.98186e-005 0.707121
    outer loop
    vertex -8.95423 10.5 11.0458
    vertex -9 10.5 11
    vertex -8 9.54577 12
    endloop
  endfacet
  facet normal -0.707107 -9.01021e-007 0.707107
    outer loop
    vertex -8 9.54577 12
    vertex -9 10.5 11
    vertex -10.8 8.7 9.2
    endloop
  endfacet
  facet normal -0.707107 0 0.707107
    outer loop
    vertex -8 9.54577 12
    vertex -10.8 8.7 9.2
    vertex -8 8.25 12
    endloop
  endfacet
  facet normal 0 1 0
    outer loop
    vertex -9 10.5 11
    vertex 11.322 10.5 11.75
    vertex 11.322 10.5 6.34901
    endloop
  endfacet
  facet normal 0 1 0
    outer loop
    vertex 11.322 10.5 6.34901
    vertex -9 10.5 5
    vertex -9 10.5 11
    endloop
  endfacet
  facet normal -0.707107 0.707106 0
    outer loop
    vertex -10.8 8.7 8
    vertex -9 10.5 11
    vertex -9 10.5 5
    endloop
  endfacet
  facet normal -0.707107 0.707106 0
    outer loop
    vertex -10.8 8.7 9.2
    vertex -9 10.5 11
    vertex -10.8 8.7 8
    endloop
  endfacet
  facet normal 0.813965 0.580914 0
    outer loop
    vertex 11.322 10.5 11.75
    vertex 11.5004 10.25 12
    vertex 11.322 10.5 6.34901
    endloop
  endfacet
  facet normal 0 1 0
    outer loop
    vertex 9.41421 10.5 5
    vertex -9 10.5 5
    vertex 11.322 10.5 6.34901
    endloop
  endfacet
  facet normal 0 0.707107 -0.707107
    outer loop
    vertex 9 9.5 4
    vertex -9 10.5 5
    vertex 9.41421 10.5 5
    endloop
  endfacet
  facet normal -0.707107 0.707106 2.80979e-008
    outer loop
    vertex -9 10.5 5
    vertex -10 9.5 4
    vertex -10.8 8.7 8
    endloop
  endfacet
  facet normal 0 0.707107 -0.707107
    outer loop
    vertex -10 9.5 4
    vertex -9 10.5 5
    vertex 9 9.5 4
    endloop
  endfacet
  facet normal -0.707107 0.707107 2.10734e-007
    outer loop
    vertex -10.8 8.7 8
    vertex -10 9.5 4
    vertex -12 7.5 6
    endloop
  endfacet
  facet normal 0 1 0
    outer loop
    vertex -10 9.5 4
    vertex 9 9.5 4
    vertex -10 9.5 0
    endloop
  endfacet
  facet normal -1 0 -0
    outer loop
    vertex -10 -8.5 0
    vertex -10 9.5 4
    vertex -10 9.5 0
    endloop
  endfacet
  facet normal -0.707106 0.707107 0
    outer loop
    vertex -10.8 8.7 8
    vertex -12 7.5 6
    vertex -12 7.5 8
    endloop
  endfacet
  facet normal 0 0 1
    outer loop
    vertex -10.8 8.7 8
    vertex -12 7.5 8
    vertex -10.8 8.25 8
    endloop
  endfacet
  facet normal -1 0 0
    outer loop
    vertex -10.8 8.7 8
    vertex -10.8 8.25 8
    vertex -10.8 8.7 9.2
    endloop
  endfacet
  facet normal -0 0 1
    outer loop
    vertex -10.8 8.25 8
    vertex -12 7.5 8
    vertex -0.0418591 -0.0608253 8
    endloop
  endfacet
  facet normal 0 -0 1
    outer loop
    vertex -12 7.5 8
    vertex -0.237468 -0.330058 8
    vertex -0.0418591 -0.0608253 8
    endloop
  endfacet
  facet normal 0 0 1
    outer loop
    vertex -12 -10.5 8
    vertex -0.644771 -1.5836 8
    vertex -12 7.5 8
    endloop
  endfacet
  facet normal 0 -0 1
    outer loop
    vertex -12 7.5 8
    vertex -0.644771 -1.5836 8
    vertex -0.603062 -1.25344 8
    endloop
  endfacet
  facet normal 0 -0 1
    outer loop
    vertex -12 7.5 8
    vertex -0.603062 -1.25344 8
    vertex -0.5203 -0.931104 8
    endloop
  endfacet
  facet normal 0 0 1
    outer loop
    vertex -0.5203 -0.931104 8
    vertex -0.397792 -0.621685 8
    vertex -12 7.5 8
    endloop
  endfacet
  facet normal 0 -0 1
    outer loop
    vertex -12 7.5 8
    vertex -0.397792 -0.621685 8
    vertex -0.237468 -0.330058 8
    endloop
  endfacet
  facet normal -1 0 0
    outer loop
    vertex -10.8 8.7 9.2
    vertex -10.8 8.25 8
    vertex -10.8 8.25 9.2
    endloop
  endfacet
  facet normal -0.707107 0 0.707107
    outer loop
    vertex -8 8.25 12
    vertex -10.8 8.7 9.2
    vertex -10.8 8.25 9.2
    endloop
  endfacet
  facet normal 0 -0 1
    outer loop
    vertex -10.8 8.25 8
    vertex 1.34097 0.816746 8
    vertex 1.66787 0.879104 8
    endloop
  endfacet
  facet normal 0 -0 1
    outer loop
    vertex -10.8 8.25 8
    vertex -0.0418591 -0.0608253 8
    vertex 0.185951 0.181767 8
    endloop
  endfacet
  facet normal 0 0 1
    outer loop
    vertex 0.185951 0.181767 8
    vertex 0.44237 0.393896 8
    vertex -10.8 8.25 8
    endloop
  endfacet
  facet normal 0 -0 1
    outer loop
    vertex -10.8 8.25 8
    vertex 0.44237 0.393896 8
    vertex 0.723352 0.572214 8
    endloop
  endfacet
  facet normal 0 -0 1
    outer loop
    vertex -10.8 8.25 8
    vertex 0.723352 0.572214 8
    vertex 1.02447 0.713908 8
    endloop
  endfacet
  facet normal 0 0 1
    outer loop
    vertex 1.02447 0.713908 8
    vertex 1.34097 0.816746 8
    vertex -10.8 8.25 8
    endloop
  endfacet
  facet normal -0.535829 0.844327 0
    outer loop
    vertex 3.55763 -3.8939 3
    vertex 3.27665 -4.07221 8
    vertex 3.55763 -3.8939 8
    endloop
  endfacet
  facet normal -0.637426 0.770512 0
    outer loop
    vertex 3.81405 -3.68177 3
    vertex 3.55763 -3.8939 8
    vertex 3.81405 -3.68177 8
    endloop
  endfacet
  facet normal -0.637426 0.770512 0
    outer loop
    vertex 3.55763 -3.8939 3
    vertex 3.55763 -3.8939 8
    vertex 3.81405 -3.68177 3
    endloop
  endfacet
  facet normal -0.425774 0.90483 0
    outer loop
    vertex 3.27665 -4.07221 3
    vertex 2.97553 -4.21391 8
    vertex 3.27665 -4.07221 8
    endloop
  endfacet
  facet normal -0.535829 0.844327 0
    outer loop
    vertex 3.27665 -4.07221 3
    vertex 3.27665 -4.07221 8
    vertex 3.55763 -3.8939 3
    endloop
  endfacet
  facet normal -0.309019 0.951056 0
    outer loop
    vertex 2.97553 -4.21391 3
    vertex 2.65903 -4.31674 8
    vertex 2.97553 -4.21391 8
    endloop
  endfacet
  facet normal -0.425774 0.90483 0
    outer loop
    vertex 2.97553 -4.21391 3
    vertex 2.97553 -4.21391 8
    vertex 3.27665 -4.07221 3
    endloop
  endfacet
  facet normal -0.992115 -0.125333 0
    outer loop
    vertex 4.60306 -1.25344 3
    vertex 4.64477 -1.5836 8
    vertex 4.60306 -1.25344 8
    endloop
  endfacet
  facet normal -0.968583 -0.248691 0
    outer loop
    vertex 4.5203 -0.931104 3
    vertex 4.60306 -1.25344 8
    vertex 4.5203 -0.931104 8
    endloop
  endfacet
  facet normal -0.968583 -0.248691 -0
    outer loop
    vertex 4.60306 -1.25344 3
    vertex 4.60306 -1.25344 8
    vertex 4.5203 -0.931104 3
    endloop
  endfacet
  facet normal -1 0 0
    outer loop
    vertex 4.64477 -1.5836 3
    vertex 4.64477 -1.91639 8
    vertex 4.64477 -1.5836 8
    endloop
  endfacet
  facet normal -0.992115 -0.125333 -0
    outer loop
    vertex 4.64477 -1.5836 3
    vertex 4.64477 -1.5836 8
    vertex 4.60306 -1.25344 3
    endloop
  endfacet
  facet normal -0.992115 0.125333 0
    outer loop
    vertex 4.64477 -1.91639 3
    vertex 4.60306 -2.24656 8
    vertex 4.64477 -1.91639 8
    endloop
  endfacet
  facet normal -1 0 0
    outer loop
    vertex 4.64477 -1.91639 3
    vertex 4.64477 -1.91639 8
    vertex 4.64477 -1.5836 3
    endloop
  endfacet
  facet normal 0.0627908 -0.998027 0
    outer loop
    vertex 1.66787 0.879104 3
    vertex 2 0.9 8
    vertex 1.66787 0.879104 8
    endloop
  endfacet
  facet normal 0.187379 -0.982288 0
    outer loop
    vertex 1.34097 0.816746 3
    vertex 1.66787 0.879104 8
    vertex 1.34097 0.816746 8
    endloop
  endfacet
  facet normal 0.187379 -0.982288 0
    outer loop
    vertex 1.66787 0.879104 3
    vertex 1.66787 0.879104 8
    vertex 1.34097 0.816746 3
    endloop
  endfacet
  facet normal -0.0627909 -0.998027 0
    outer loop
    vertex 2 0.9 3
    vertex 2.33213 0.879104 8
    vertex 2 0.9 8
    endloop
  endfacet
  facet normal 0.0627908 -0.998027 0
    outer loop
    vertex 2 0.9 3
    vertex 2 0.9 8
    vertex 1.66787 0.879104 3
    endloop
  endfacet
  facet normal -0.187379 -0.982288 0
    outer loop
    vertex 2.33213 0.879104 3
    vertex 2.65903 0.816746 8
    vertex 2.33213 0.879104 8
    endloop
  endfacet
  facet normal -0.0627909 -0.998027 -0
    outer loop
    vertex 2.33213 0.879104 3
    vertex 2.33213 0.879104 8
    vertex 2 0.9 3
    endloop
  endfacet
  facet normal 0.728967 -0.684549 0
    outer loop
    vertex -0.0418591 -0.0608253 3
    vertex 0.185951 0.181767 8
    vertex -0.0418591 -0.0608253 8
    endloop
  endfacet
  facet normal 0.809017 -0.587785 0
    outer loop
    vertex -0.237468 -0.330058 3
    vertex -0.0418591 -0.0608253 8
    vertex -0.237468 -0.330058 8
    endloop
  endfacet
  facet normal 0.809017 -0.587785 0
    outer loop
    vertex -0.0418591 -0.0608253 3
    vertex -0.0418591 -0.0608253 8
    vertex -0.237468 -0.330058 3
    endloop
  endfacet
  facet normal 0.637426 -0.770512 0
    outer loop
    vertex 0.185951 0.181767 3
    vertex 0.44237 0.393896 8
    vertex 0.185951 0.181767 8
    endloop
  endfacet
  facet normal 0.728967 -0.684549 0
    outer loop
    vertex 0.185951 0.181767 3
    vertex 0.185951 0.181767 8
    vertex -0.0418591 -0.0608253 3
    endloop
  endfacet
  facet normal 0 0 1
    outer loop
    vertex -0.644771 -1.91639 8
    vertex -0.644771 -1.5836 8
    vertex -12 -10.5 8
    endloop
  endfacet
  facet normal 0 0 1
    outer loop
    vertex -12 -10.5 8
    vertex 1.66787 -4.3791 8
    vertex 1.34097 -4.31674 8
    endloop
  endfacet
  facet normal 0 0 1
    outer loop
    vertex -12 -10.5 8
    vertex 1.34097 -4.31674 8
    vertex 1.02447 -4.21391 8
    endloop
  endfacet
  facet normal 0 0 1
    outer loop
    vertex 1.02447 -4.21391 8
    vertex 0.723352 -4.07221 8
    vertex -12 -10.5 8
    endloop
  endfacet
  facet normal 0 0 1
    outer loop
    vertex -12 -10.5 8
    vertex 0.723352 -4.07221 8
    vertex 0.44237 -3.8939 8
    endloop
  endfacet
  facet normal 0 0 1
    outer loop
    vertex -12 -10.5 8
    vertex 0.44237 -3.8939 8
    vertex 0.185951 -3.68177 8
    endloop
  endfacet
  facet normal 0 0 1
    outer loop
    vertex 0.185951 -3.68177 8
    vertex -0.0418591 -3.43917 8
    vertex -12 -10.5 8
    endloop
  endfacet
  facet normal 0 0 1
    outer loop
    vertex -12 -10.5 8
    vertex -0.0418591 -3.43917 8
    vertex -0.237468 -3.16994 8
    endloop
  endfacet
  facet normal 0 0 1
    outer loop
    vertex -12 -10.5 8
    vertex -0.237468 -3.16994 8
    vertex -0.397792 -2.87831 8
    endloop
  endfacet
  facet normal 0 0 1
    outer loop
    vertex -0.397792 -2.87831 8
    vertex -0.5203 -2.56889 8
    vertex -12 -10.5 8
    endloop
  endfacet
  facet normal 0 0 1
    outer loop
    vertex -12 -10.5 8
    vertex -0.5203 -2.56889 8
    vertex -0.603062 -2.24656 8
    endloop
  endfacet
  facet normal 0 0 1
    outer loop
    vertex -12 -10.5 8
    vertex -0.603062 -2.24656 8
    vertex -0.644771 -1.91639 8
    endloop
  endfacet
  facet normal 0.992115 -0.125331 0
    outer loop
    vertex -0.644771 -1.5836 3
    vertex -0.603062 -1.25344 8
    vertex -0.644771 -1.5836 8
    endloop
  endfacet
  facet normal 1 0 0
    outer loop
    vertex -0.644771 -1.91639 3
    vertex -0.644771 -1.5836 8
    vertex -0.644771 -1.91639 8
    endloop
  endfacet
  facet normal 1 0 0
    outer loop
    vertex -0.644771 -1.5836 3
    vertex -0.644771 -1.5836 8
    vertex -0.644771 -1.91639 3
    endloop
  endfacet
  facet normal 0.968583 -0.248692 0
    outer loop
    vertex -0.603062 -1.25344 3
    vertex -0.5203 -0.931104 8
    vertex -0.603062 -1.25344 8
    endloop
  endfacet
  facet normal 0.992115 -0.125331 0
    outer loop
    vertex -0.603062 -1.25344 3
    vertex -0.603062 -1.25344 8
    vertex -0.644771 -1.5836 3
    endloop
  endfacet
  facet normal 0.929777 -0.368124 0
    outer loop
    vertex -0.5203 -0.931104 3
    vertex -0.397792 -0.621685 8
    vertex -0.5203 -0.931104 8
    endloop
  endfacet
  facet normal 0.968583 -0.248692 0
    outer loop
    vertex -0.5203 -0.931104 3
    vertex -0.5203 -0.931104 8
    vertex -0.603062 -1.25344 3
    endloop
  endfacet
  facet normal 0.187381 0.982287 0
    outer loop
    vertex 1.66787 -4.3791 3
    vertex 1.34097 -4.31674 8
    vertex 1.66787 -4.3791 8
    endloop
  endfacet
  facet normal 0.0627916 0.998027 0
    outer loop
    vertex 2 -4.4 3
    vertex 1.66787 -4.3791 8
    vertex 2 -4.4 8
    endloop
  endfacet
  facet normal 0.0627916 0.998027 0
    outer loop
    vertex 1.66787 -4.3791 3
    vertex 1.66787 -4.3791 8
    vertex 2 -4.4 3
    endloop
  endfacet
  facet normal 0.309019 0.951056 0
    outer loop
    vertex 1.34097 -4.31674 3
    vertex 1.02447 -4.21391 8
    vertex 1.34097 -4.31674 8
    endloop
  endfacet
  facet normal 0.187381 0.982287 0
    outer loop
    vertex 1.34097 -4.31674 3
    vertex 1.34097 -4.31674 8
    vertex 1.66787 -4.3791 3
    endloop
  endfacet
  facet normal 0.425774 0.90483 0
    outer loop
    vertex 1.02447 -4.21391 3
    vertex 0.723352 -4.07221 8
    vertex 1.02447 -4.21391 8
    endloop
  endfacet
  facet normal 0.309019 0.951056 0
    outer loop
    vertex 1.02447 -4.21391 3
    vertex 1.02447 -4.21391 8
    vertex 1.34097 -4.31674 3
    endloop
  endfacet
  facet normal -0.309018 -0.951056 0
    outer loop
    vertex 2.65903 0.816746 3
    vertex 2.97553 0.713908 8
    vertex 2.65903 0.816746 8
    endloop
  endfacet
  facet normal -0.187379 -0.982288 -0
    outer loop
    vertex 2.65903 0.816746 3
    vertex 2.65903 0.816746 8
    vertex 2.33213 0.879104 3
    endloop
  endfacet
  facet normal -0.425777 -0.904828 0
    outer loop
    vertex 2.97553 0.713908 3
    vertex 3.27665 0.572214 8
    vertex 2.97553 0.713908 8
    endloop
  endfacet
  facet normal -0.309018 -0.951056 -0
    outer loop
    vertex 2.97553 0.713908 3
    vertex 2.97553 0.713908 8
    vertex 2.65903 0.816746 3
    endloop
  endfacet
  facet normal -0.535828 -0.844327 0
    outer loop
    vertex 3.27665 0.572214 3
    vertex 3.55763 0.393896 8
    vertex 3.27665 0.572214 8
    endloop
  endfacet
  facet normal -0.425777 -0.904828 -0
    outer loop
    vertex 3.27665 0.572214 3
    vertex 3.27665 0.572214 8
    vertex 2.97553 0.713908 3
    endloop
  endfacet
  facet normal -0.637426 -0.770512 0
    outer loop
    vertex 3.55763 0.393896 3
    vertex 3.81405 0.181767 8
    vertex 3.55763 0.393896 8
    endloop
  endfacet
  facet normal -0.535828 -0.844327 -0
    outer loop
    vertex 3.55763 0.393896 3
    vertex 3.55763 0.393896 8
    vertex 3.27665 0.572214 3
    endloop
  endfacet
  facet normal -0.728966 -0.684549 0
    outer loop
    vertex 3.81405 0.181767 3
    vertex 4.04186 -0.0608253 8
    vertex 3.81405 0.181767 8
    endloop
  endfacet
  facet normal -0.637426 -0.770512 -0
    outer loop
    vertex 3.81405 0.181767 3
    vertex 3.81405 0.181767 8
    vertex 3.55763 0.393896 3
    endloop
  endfacet
  facet normal -0.809017 -0.587785 0
    outer loop
    vertex 4.04186 -0.0608253 3
    vertex 4.23747 -0.330058 8
    vertex 4.04186 -0.0608253 8
    endloop
  endfacet
  facet normal -0.728966 -0.684549 -0
    outer loop
    vertex 4.04186 -0.0608253 3
    vertex 4.04186 -0.0608253 8
    vertex 3.81405 0.181767 3
    endloop
  endfacet
  facet normal -0.876307 -0.481753 0
    outer loop
    vertex 4.23747 -0.330058 3
    vertex 4.39779 -0.621685 8
    vertex 4.23747 -0.330058 8
    endloop
  endfacet
  facet normal -0.809017 -0.587785 -0
    outer loop
    vertex 4.23747 -0.330058 3
    vertex 4.23747 -0.330058 8
    vertex 4.04186 -0.0608253 3
    endloop
  endfacet
  facet normal -0.929777 -0.368124 0
    outer loop
    vertex 4.39779 -0.621685 3
    vertex 4.5203 -0.931104 8
    vertex 4.39779 -0.621685 8
    endloop
  endfacet
  facet normal -0.876307 -0.481753 -0
    outer loop
    vertex 4.39779 -0.621685 3
    vertex 4.39779 -0.621685 8
    vertex 4.23747 -0.330058 3
    endloop
  endfacet
  facet normal -0.929777 -0.368124 -0
    outer loop
    vertex 4.5203 -0.931104 3
    vertex 4.5203 -0.931104 8
    vertex 4.39779 -0.621685 3
    endloop
  endfacet
  facet normal -0.968583 0.248691 0
    outer loop
    vertex 4.60306 -2.24656 3
    vertex 4.5203 -2.56889 8
    vertex 4.60306 -2.24656 8
    endloop
  endfacet
  facet normal -0.992115 0.125333 0
    outer loop
    vertex 4.60306 -2.24656 3
    vertex 4.60306 -2.24656 8
    vertex 4.64477 -1.91639 3
    endloop
  endfacet
  facet normal -0.929777 0.368124 0
    outer loop
    vertex 4.5203 -2.56889 3
    vertex 4.39779 -2.87831 8
    vertex 4.5203 -2.56889 8
    endloop
  endfacet
  facet normal -0.968583 0.248691 0
    outer loop
    vertex 4.5203 -2.56889 3
    vertex 4.5203 -2.56889 8
    vertex 4.60306 -2.24656 3
    endloop
  endfacet
  facet normal -0.876307 0.481753 0
    outer loop
    vertex 4.39779 -2.87831 3
    vertex 4.23747 -3.16994 8
    vertex 4.39779 -2.87831 8
    endloop
  endfacet
  facet normal -0.929777 0.368124 0
    outer loop
    vertex 4.39779 -2.87831 3
    vertex 4.39779 -2.87831 8
    vertex 4.5203 -2.56889 3
    endloop
  endfacet
  facet normal -0.809017 0.587785 0
    outer loop
    vertex 4.23747 -3.16994 3
    vertex 4.04186 -3.43917 8
    vertex 4.23747 -3.16994 8
    endloop
  endfacet
  facet normal -0.876307 0.481753 0
    outer loop
    vertex 4.23747 -3.16994 3
    vertex 4.23747 -3.16994 8
    vertex 4.39779 -2.87831 3
    endloop
  endfacet
  facet normal -0.728966 0.684549 0
    outer loop
    vertex 4.04186 -3.43917 3
    vertex 3.81405 -3.68177 8
    vertex 4.04186 -3.43917 8
    endloop
  endfacet
  facet normal -0.809017 0.587785 0
    outer loop
    vertex 4.04186 -3.43917 3
    vertex 4.04186 -3.43917 8
    vertex 4.23747 -3.16994 3
    endloop
  endfacet
  facet normal -0.728966 0.684549 0
    outer loop
    vertex 3.81405 -3.68177 3
    vertex 3.81405 -3.68177 8
    vertex 4.04186 -3.43917 3
    endloop
  endfacet
  facet normal -0.187381 0.982287 0
    outer loop
    vertex 2.65903 -4.31674 3
    vertex 2.33213 -4.3791 8
    vertex 2.65903 -4.31674 8
    endloop
  endfacet
  facet normal -0.309019 0.951056 0
    outer loop
    vertex 2.65903 -4.31674 3
    vertex 2.65903 -4.31674 8
    vertex 2.97553 -4.21391 3
    endloop
  endfacet
  facet normal -0.0627917 0.998027 0
    outer loop
    vertex 2.33213 -4.3791 3
    vertex 2 -4.4 8
    vertex 2.33213 -4.3791 8
    endloop
  endfacet
  facet normal -0.187381 0.982287 0
    outer loop
    vertex 2.33213 -4.3791 3
    vertex 2.33213 -4.3791 8
    vertex 2.65903 -4.31674 3
    endloop
  endfacet
  facet normal -0.0627917 0.998027 0
    outer loop
    vertex 2 -4.4 3
    vertex 2 -4.4 8
    vertex 2.33213 -4.3791 3
    endloop
  endfacet
  facet normal 0.535829 0.844326 0
    outer loop
    vertex 0.723352 -4.07221 3
    vertex 0.44237 -3.8939 8
    vertex 0.723352 -4.07221 8
    endloop
  endfacet
  facet normal 0.425774 0.90483 0
    outer loop
    vertex 0.723352 -4.07221 3
    vertex 0.723352 -4.07221 8
    vertex 1.02447 -4.21391 3
    endloop
  endfacet
  facet normal 0.637426 0.770512 0
    outer loop
    vertex 0.44237 -3.8939 3
    vertex 0.185951 -3.68177 8
    vertex 0.44237 -3.8939 8
    endloop
  endfacet
  facet normal 0.535829 0.844326 0
    outer loop
    vertex 0.44237 -3.8939 3
    vertex 0.44237 -3.8939 8
    vertex 0.723352 -4.07221 3
    endloop
  endfacet
  facet normal 0.728967 0.684549 0
    outer loop
    vertex 0.185951 -3.68177 3
    vertex -0.0418591 -3.43917 8
    vertex 0.185951 -3.68177 8
    endloop
  endfacet
  facet normal 0.637426 0.770512 0
    outer loop
    vertex 0.185951 -3.68177 3
    vertex 0.185951 -3.68177 8
    vertex 0.44237 -3.8939 3
    endloop
  endfacet
  facet normal 0.809017 0.587785 0
    outer loop
    vertex -0.0418591 -3.43917 3
    vertex -0.237468 -3.16994 8
    vertex -0.0418591 -3.43917 8
    endloop
  endfacet
  facet normal 0.728967 0.684549 0
    outer loop
    vertex -0.0418591 -3.43917 3
    vertex -0.0418591 -3.43917 8
    vertex 0.185951 -3.68177 3
    endloop
  endfacet
  facet normal 0.876306 0.481755 0
    outer loop
    vertex -0.237468 -3.16994 3
    vertex -0.397792 -2.87831 8
    vertex -0.237468 -3.16994 8
    endloop
  endfacet
  facet normal 0.809017 0.587785 0
    outer loop
    vertex -0.237468 -3.16994 3
    vertex -0.237468 -3.16994 8
    vertex -0.0418591 -3.43917 3
    endloop
  endfacet
  facet normal 0.929777 0.368124 0
    outer loop
    vertex -0.397792 -2.87831 3
    vertex -0.5203 -2.56889 8
    vertex -0.397792 -2.87831 8
    endloop
  endfacet
  facet normal 0.876306 0.481755 0
    outer loop
    vertex -0.397792 -2.87831 3
    vertex -0.397792 -2.87831 8
    vertex -0.237468 -3.16994 3
    endloop
  endfacet
  facet normal 0.968583 0.248692 0
    outer loop
    vertex -0.5203 -2.56889 3
    vertex -0.603062 -2.24656 8
    vertex -0.5203 -2.56889 8
    endloop
  endfacet
  facet normal 0.929777 0.368124 0
    outer loop
    vertex -0.5203 -2.56889 3
    vertex -0.5203 -2.56889 8
    vertex -0.397792 -2.87831 3
    endloop
  endfacet
  facet normal 0.992115 0.125331 0
    outer loop
    vertex -0.603062 -2.24656 3
    vertex -0.644771 -1.91639 8
    vertex -0.603062 -2.24656 8
    endloop
  endfacet
  facet normal 0.968583 0.248692 0
    outer loop
    vertex -0.603062 -2.24656 3
    vertex -0.603062 -2.24656 8
    vertex -0.5203 -2.56889 3
    endloop
  endfacet
  facet normal 0.992115 0.125331 0
    outer loop
    vertex -0.644771 -1.91639 3
    vertex -0.644771 -1.91639 8
    vertex -0.603062 -2.24656 3
    endloop
  endfacet
  facet normal 0.876306 -0.481755 0
    outer loop
    vertex -0.397792 -0.621685 3
    vertex -0.237468 -0.330058 8
    vertex -0.397792 -0.621685 8
    endloop
  endfacet
  facet normal 0.929777 -0.368124 0
    outer loop
    vertex -0.397792 -0.621685 3
    vertex -0.397792 -0.621685 8
    vertex -0.5203 -0.931104 3
    endloop
  endfacet
  facet normal 0.876306 -0.481755 0
    outer loop
    vertex -0.237468 -0.330058 3
    vertex -0.237468 -0.330058 8
    vertex -0.397792 -0.621685 3
    endloop
  endfacet
  facet normal 0.535828 -0.844327 0
    outer loop
    vertex 0.44237 0.393896 3
    vertex 0.723352 0.572214 8
    vertex 0.44237 0.393896 8
    endloop
  endfacet
  facet normal 0.637426 -0.770512 0
    outer loop
    vertex 0.44237 0.393896 3
    vertex 0.44237 0.393896 8
    vertex 0.185951 0.181767 3
    endloop
  endfacet
  facet normal 0.425777 -0.904828 0
    outer loop
    vertex 0.723352 0.572214 3
    vertex 1.02447 0.713908 8
    vertex 0.723352 0.572214 8
    endloop
  endfacet
  facet normal 0.535828 -0.844327 0
    outer loop
    vertex 0.723352 0.572214 3
    vertex 0.723352 0.572214 8
    vertex 0.44237 0.393896 3
    endloop
  endfacet
  facet normal 0.309019 -0.951056 0
    outer loop
    vertex 1.02447 0.713908 3
    vertex 1.34097 0.816746 8
    vertex 1.02447 0.713908 8
    endloop
  endfacet
  facet normal 0.425777 -0.904828 0
    outer loop
    vertex 1.02447 0.713908 3
    vertex 1.02447 0.713908 8
    vertex 0.723352 0.572214 3
    endloop
  endfacet
  facet normal 0.309019 -0.951056 0
    outer loop
    vertex 1.34097 0.816746 3
    vertex 1.34097 0.816746 8
    vertex 1.02447 0.713908 3
    endloop
  endfacet
  facet normal 0 1 0
    outer loop
    vertex -10 9.5 0
    vertex 9 9.5 4
    vertex 9 9.5 0
    endloop
  endfacet
  facet normal 0 0 -1
    outer loop
    vertex 2.47061 3.47887 3
    vertex 2.33213 0.879104 3
    vertex 2 0.9 3
    endloop
  endfacet
  facet normal 0 0 -1
    outer loop
    vertex 2.93742 3.41563 3
    vertex 2.65903 0.816746 3
    vertex 2.33213 0.879104 3
    endloop
  endfacet
  facet normal 0 0 -1
    outer loop
    vertex 2.93742 3.41563 3
    vertex 2.33213 0.879104 3
    vertex 2.47061 3.47887 3
    endloop
  endfacet
  facet normal 0 0 -1
    outer loop
    vertex 1.66787 0.879104 3
    vertex 1.52939 3.47887 3
    vertex 2 0.9 3
    endloop
  endfacet
  facet normal 0 0 -1
    outer loop
    vertex 2 0.9 3
    vertex 1.52939 3.47887 3
    vertex 2 3.5 3
    endloop
  endfacet
  facet normal 0 0 -1
    outer loop
    vertex 2 0.9 3
    vertex 2 3.5 3
    vertex 2.47061 3.47887 3
    endloop
  endfacet
  facet normal -0 0 -1
    outer loop
    vertex 1.06258 3.41563 3
    vertex 1.66787 0.879104 3
    vertex 1.34097 0.816746 3
    endloop
  endfacet
  facet normal 0 0 -1
    outer loop
    vertex 1.52939 3.47887 3
    vertex 1.66787 0.879104 3
    vertex 1.06258 3.41563 3
    endloop
  endfacet
  facet normal -0 0 -1
    outer loop
    vertex 0.603307 3.31081 3
    vertex 1.34097 0.816746 3
    vertex 1.02447 0.713908 3
    endloop
  endfacet
  facet normal 0 0 -1
    outer loop
    vertex 1.06258 3.41563 3
    vertex 1.34097 0.816746 3
    vertex 0.603307 3.31081 3
    endloop
  endfacet
  facet normal -0 0 -1
    outer loop
    vertex -0.277889 2.98009 3
    vertex 1.02447 0.713908 3
    vertex 0.723352 0.572214 3
    endloop
  endfacet
  facet normal 0 0 -1
    outer loop
    vertex 0.603307 3.31081 3
    vertex 1.02447 0.713908 3
    vertex 0.155282 3.16523 3
    endloop
  endfacet
  facet normal 0 0 -1
    outer loop
    vertex 0.155282 3.16523 3
    vertex 1.02447 0.713908 3
    vertex -0.277889 2.98009 3
    endloop
  endfacet
  facet normal -0 0 -1
    outer loop
    vertex -0.692722 2.75686 3
    vertex 0.723352 0.572214 3
    vertex 0.44237 0.393896 3
    endloop
  endfacet
  facet normal 0 0 -1
    outer loop
    vertex -0.277889 2.98009 3
    vertex 0.723352 0.572214 3
    vertex -0.692722 2.75686 3
    endloop
  endfacet
  facet normal -0 0 -1
    outer loop
    vertex -1.45418 2.20363 3
    vertex 0.44237 0.393896 3
    vertex 0.185951 0.181767 3
    endloop
  endfacet
  facet normal 0 0 -1
    outer loop
    vertex -0.692722 2.75686 3
    vertex 0.44237 0.393896 3
    vertex -1.08587 2.49734 3
    endloop
  endfacet
  facet normal 0 0 -1
    outer loop
    vertex -1.08587 2.49734 3
    vertex 0.44237 0.393896 3
    vertex -1.45418 2.20363 3
    endloop
  endfacet
  facet normal -0 0 -1
    outer loop
    vertex -1.79467 1.87808 3
    vertex 0.185951 0.181767 3
    vertex -0.0418591 -0.0608253 3
    endloop
  endfacet
  facet normal 0 0 -1
    outer loop
    vertex -1.45418 2.20363 3
    vertex 0.185951 0.181767 3
    vertex -1.79467 1.87808 3
    endloop
  endfacet
  facet normal -0 0 -1
    outer loop
    vertex -2.10461 1.52332 3
    vertex -0.0418591 -0.0608253 3
    vertex -0.237468 -0.330058 3
    endloop
  endfacet
  facet normal 0 0 -1
    outer loop
    vertex -1.79467 1.87808 3
    vertex -0.0418591 -0.0608253 3
    vertex -2.10461 1.52332 3
    endloop
  endfacet
  facet normal -0 0 -1
    outer loop
    vertex -2.62313 0.737811 3
    vertex -0.237468 -0.330058 3
    vertex -0.397792 -0.621685 3
    endloop
  endfacet
  facet normal 0 0 -1
    outer loop
    vertex -2.10461 1.52332 3
    vertex -0.237468 -0.330058 3
    vertex -2.38151 1.14221 3
    endloop
  endfacet
  facet normal 0 0 -1
    outer loop
    vertex -2.38151 1.14221 3
    vertex -0.237468 -0.330058 3
    vertex -2.62313 0.737811 3
    endloop
  endfacet
  facet normal -0 0 -1
    outer loop
    vertex -2.82752 0.313382 3
    vertex -0.397792 -0.621685 3
    vertex -0.5203 -0.931104 3
    endloop
  endfacet
  facet normal 0 0 -1
    outer loop
    vertex -2.62313 0.737811 3
    vertex -0.397792 -0.621685 3
    vertex -2.82752 0.313382 3
    endloop
  endfacet
  facet normal -0 0 -1
    outer loop
    vertex -3.11837 -0.581765 3
    vertex -0.5203 -0.931104 3
    vertex -0.603062 -1.25344 3
    endloop
  endfacet
  facet normal 0 0 -1
    outer loop
    vertex -2.82752 0.313382 3
    vertex -0.5203 -0.931104 3
    vertex -2.99305 -0.12766 3
    endloop
  endfacet
  facet normal 0 0 -1
    outer loop
    vertex -2.99305 -0.12766 3
    vertex -0.5203 -0.931104 3
    vertex -3.11837 -0.581765 3
    endloop
  endfacet
  facet normal -0 0 -1
    outer loop
    vertex -3.20249 -1.04527 3
    vertex -0.603062 -1.25344 3
    vertex -0.644771 -1.5836 3
    endloop
  endfacet
  facet normal 0 0 -1
    outer loop
    vertex -3.11837 -0.581765 3
    vertex -0.603062 -1.25344 3
    vertex -3.20249 -1.04527 3
    endloop
  endfacet
  facet normal -0 -0 -1
    outer loop
    vertex -3.24471 -1.51446 3
    vertex -0.644771 -1.5836 3
    vertex -0.644771 -1.91639 3
    endloop
  endfacet
  facet normal 0 0 -1
    outer loop
    vertex -3.20249 -1.04527 3
    vertex -0.644771 -1.5836 3
    vertex -3.24471 -1.51446 3
    endloop
  endfacet
  facet normal 0 -0 -1
    outer loop
    vertex -3.20249 -2.45472 3
    vertex -0.644771 -1.91639 3
    vertex -0.603062 -2.24656 3
    endloop
  endfacet
  facet normal -0 0 -1
    outer loop
    vertex -3.24471 -1.51446 3
    vertex -0.644771 -1.91639 3
    vertex -3.24471 -1.98554 3
    endloop
  endfacet
  facet normal 0 0 -1
    outer loop
    vertex -3.24471 -1.98554 3
    vertex -0.644771 -1.91639 3
    vertex -3.20249 -2.45472 3
    endloop
  endfacet
  facet normal 0 -0 -1
    outer loop
    vertex -3.11837 -2.91823 3
    vertex -0.603062 -2.24656 3
    vertex -0.5203 -2.56889 3
    endloop
  endfacet
  facet normal 0 0 -1
    outer loop
    vertex -3.20249 -2.45472 3
    vertex -0.603062 -2.24656 3
    vertex -3.11837 -2.91823 3
    endloop
  endfacet
  facet normal 0 -0 -1
    outer loop
    vertex -2.82752 -3.81338 3
    vertex -0.5203 -2.56889 3
    vertex -0.397792 -2.87831 3
    endloop
  endfacet
  facet normal 0 0 -1
    outer loop
    vertex -3.11837 -2.91823 3
    vertex -0.5203 -2.56889 3
    vertex -2.99305 -3.37234 3
    endloop
  endfacet
  facet normal 0 0 -1
    outer loop
    vertex -2.99305 -3.37234 3
    vertex -0.5203 -2.56889 3
    vertex -2.82752 -3.81338 3
    endloop
  endfacet
  facet normal 0 -0 -1
    outer loop
    vertex -2.62313 -4.23781 3
    vertex -0.397792 -2.87831 3
    vertex -0.237468 -3.16994 3
    endloop
  endfacet
  facet normal 0 0 -1
    outer loop
    vertex -2.82752 -3.81338 3
    vertex -0.397792 -2.87831 3
    vertex -2.62313 -4.23781 3
    endloop
  endfacet
  facet normal 0 -0 -1
    outer loop
    vertex -2.10461 -5.02332 3
    vertex -0.237468 -3.16994 3
    vertex -0.0418591 -3.43917 3
    endloop
  endfacet
  facet normal 0 0 -1
    outer loop
    vertex -2.62313 -4.23781 3
    vertex -0.237468 -3.16994 3
    vertex -2.38151 -4.64221 3
    endloop
  endfacet
  facet normal 0 0 -1
    outer loop
    vertex -2.38151 -4.64221 3
    vertex -0.237468 -3.16994 3
    vertex -2.10461 -5.02332 3
    endloop
  endfacet
  facet normal 0 -0 -1
    outer loop
    vertex -1.79467 -5.37808 3
    vertex -0.0418591 -3.43917 3
    vertex 0.185951 -3.68177 3
    endloop
  endfacet
  facet normal 0 0 -1
    outer loop
    vertex -2.10461 -5.02332 3
    vertex -0.0418591 -3.43917 3
    vertex -1.79467 -5.37808 3
    endloop
  endfacet
  facet normal 0 -0 -1
    outer loop
    vertex -1.45418 -5.70362 3
    vertex 0.185951 -3.68177 3
    vertex 0.44237 -3.8939 3
    endloop
  endfacet
  facet normal 0 0 -1
    outer loop
    vertex -1.79467 -5.37808 3
    vertex 0.185951 -3.68177 3
    vertex -1.45418 -5.70362 3
    endloop
  endfacet
  facet normal 0 -0 -1
    outer loop
    vertex -0.692722 -6.25686 3
    vertex 0.44237 -3.8939 3
    vertex 0.723352 -4.07221 3
    endloop
  endfacet
  facet normal 0 0 -1
    outer loop
    vertex -1.45418 -5.70362 3
    vertex 0.44237 -3.8939 3
    vertex -1.08587 -5.99734 3
    endloop
  endfacet
  facet normal 0 0 -1
    outer loop
    vertex -1.08587 -5.99734 3
    vertex 0.44237 -3.8939 3
    vertex -0.692722 -6.25686 3
    endloop
  endfacet
  facet normal 0 -0 -1
    outer loop
    vertex -0.277889 -6.48009 3
    vertex 0.723352 -4.07221 3
    vertex 1.02447 -4.21391 3
    endloop
  endfacet
  facet normal 0 0 -1
    outer loop
    vertex -0.692722 -6.25686 3
    vertex 0.723352 -4.07221 3
    vertex -0.277889 -6.48009 3
    endloop
  endfacet
  facet normal 0 -0 -1
    outer loop
    vertex 0.603307 -6.8108 3
    vertex 1.02447 -4.21391 3
    vertex 1.34097 -4.31674 3
    endloop
  endfacet
  facet normal 0 0 -1
    outer loop
    vertex -0.277889 -6.48009 3
    vertex 1.02447 -4.21391 3
    vertex 0.155282 -6.66523 3
    endloop
  endfacet
  facet normal 0 0 -1
    outer loop
    vertex 0.155282 -6.66523 3
    vertex 1.02447 -4.21391 3
    vertex 0.603307 -6.8108 3
    endloop
  endfacet
  facet normal 0 -0 -1
    outer loop
    vertex 1.06258 -6.91563 3
    vertex 1.34097 -4.31674 3
    vertex 1.66787 -4.3791 3
    endloop
  endfacet
  facet normal 0 0 -1
    outer loop
    vertex 0.603307 -6.8108 3
    vertex 1.34097 -4.31674 3
    vertex 1.06258 -6.91563 3
    endloop
  endfacet
  facet normal 0 -0 -1
    outer loop
    vertex 1.52939 -6.97886 3
    vertex 1.66787 -4.3791 3
    vertex 2 -4.4 3
    endloop
  endfacet
  facet normal 0 0 -1
    outer loop
    vertex 1.06258 -6.91563 3
    vertex 1.66787 -4.3791 3
    vertex 1.52939 -6.97886 3
    endloop
  endfacet
  facet normal 0 0 -1
    outer loop
    vertex 2.47061 -6.97886 3
    vertex 2 -4.4 3
    vertex 2.33213 -4.3791 3
    endloop
  endfacet
  facet normal 0 -0 -1
    outer loop
    vertex 1.52939 -6.97886 3
    vertex 2 -4.4 3
    vertex 2 -7 3
    endloop
  endfacet
  facet normal 0 0 -1
    outer loop
    vertex 2 -7 3
    vertex 2 -4.4 3
    vertex 2.47061 -6.97886 3
    endloop
  endfacet
  facet normal 0 0 -1
    outer loop
    vertex 2.93742 -6.91563 3
    vertex 2.33213 -4.3791 3
    vertex 2.65903 -4.31674 3
    endloop
  endfacet
  facet normal 0 0 -1
    outer loop
    vertex 2.47061 -6.97886 3
    vertex 2.33213 -4.3791 3
    vertex 2.93742 -6.91563 3
    endloop
  endfacet
  facet normal 0 0 -1
    outer loop
    vertex 3.39669 -6.8108 3
    vertex 2.65903 -4.31674 3
    vertex 2.97553 -4.21391 3
    endloop
  endfacet
  facet normal 0 0 -1
    outer loop
    vertex 2.93742 -6.91563 3
    vertex 2.65903 -4.31674 3
    vertex 3.39669 -6.8108 3
    endloop
  endfacet
  facet normal 0 0 -1
    outer loop
    vertex 4.27789 -6.48009 3
    vertex 2.97553 -4.21391 3
    vertex 3.27665 -4.07221 3
    endloop
  endfacet
  facet normal 0 0 -1
    outer loop
    vertex 3.39669 -6.8108 3
    vertex 2.97553 -4.21391 3
    vertex 3.84472 -6.66523 3
    endloop
  endfacet
  facet normal 0 0 -1
    outer loop
    vertex 3.84472 -6.66523 3
    vertex 2.97553 -4.21391 3
    vertex 4.27789 -6.48009 3
    endloop
  endfacet
  facet normal 0 0 -1
    outer loop
    vertex 4.69272 -6.25686 3
    vertex 3.27665 -4.07221 3
    vertex 3.55763 -3.8939 3
    endloop
  endfacet
  facet normal 0 0 -1
    outer loop
    vertex 4.27789 -6.48009 3
    vertex 3.27665 -4.07221 3
    vertex 4.69272 -6.25686 3
    endloop
  endfacet
  facet normal 0 0 -1
    outer loop
    vertex 5.45418 -5.70362 3
    vertex 3.55763 -3.8939 3
    vertex 3.81405 -3.68177 3
    endloop
  endfacet
  facet normal 0 0 -1
    outer loop
    vertex 4.69272 -6.25686 3
    vertex 3.55763 -3.8939 3
    vertex 5.08587 -5.99734 3
    endloop
  endfacet
  facet normal 0 0 -1
    outer loop
    vertex 5.08587 -5.99734 3
    vertex 3.55763 -3.8939 3
    vertex 5.45418 -5.70362 3
    endloop
  endfacet
  facet normal 0 0 -1
    outer loop
    vertex 5.79467 -5.37808 3
    vertex 3.81405 -3.68177 3
    vertex 4.04186 -3.43917 3
    endloop
  endfacet
  facet normal 0 0 -1
    outer loop
    vertex 5.45418 -5.70362 3
    vertex 3.81405 -3.68177 3
    vertex 5.79467 -5.37808 3
    endloop
  endfacet
  facet normal 0 0 -1
    outer loop
    vertex 6.10462 -5.02332 3
    vertex 4.04186 -3.43917 3
    vertex 4.23747 -3.16994 3
    endloop
  endfacet
  facet normal 0 0 -1
    outer loop
    vertex 5.79467 -5.37808 3
    vertex 4.04186 -3.43917 3
    vertex 6.10462 -5.02332 3
    endloop
  endfacet
  facet normal 0 0 -1
    outer loop
    vertex 6.62313 -4.23781 3
    vertex 4.23747 -3.16994 3
    vertex 4.39779 -2.87831 3
    endloop
  endfacet
  facet normal 0 0 -1
    outer loop
    vertex 6.10462 -5.02332 3
    vertex 4.23747 -3.16994 3
    vertex 6.38151 -4.64221 3
    endloop
  endfacet
  facet normal 0 0 -1
    outer loop
    vertex 6.38151 -4.64221 3
    vertex 4.23747 -3.16994 3
    vertex 6.62313 -4.23781 3
    endloop
  endfacet
  facet normal 0 0 -1
    outer loop
    vertex 6.82752 -3.81338 3
    vertex 4.39779 -2.87831 3
    vertex 4.5203 -2.56889 3
    endloop
  endfacet
  facet normal 0 0 -1
    outer loop
    vertex 6.62313 -4.23781 3
    vertex 4.39779 -2.87831 3
    vertex 6.82752 -3.81338 3
    endloop
  endfacet
  facet normal 0 0 -1
    outer loop
    vertex 7.11837 -2.91823 3
    vertex 4.5203 -2.56889 3
    vertex 4.60306 -2.24656 3
    endloop
  endfacet
  facet normal 0 0 -1
    outer loop
    vertex 6.82752 -3.81338 3
    vertex 4.5203 -2.56889 3
    vertex 6.99305 -3.37234 3
    endloop
  endfacet
  facet normal 0 0 -1
    outer loop
    vertex 6.99305 -3.37234 3
    vertex 4.5203 -2.56889 3
    vertex 7.11837 -2.91823 3
    endloop
  endfacet
  facet normal 0 0 -1
    outer loop
    vertex 7.20249 -2.45472 3
    vertex 4.60306 -2.24656 3
    vertex 4.64477 -1.91639 3
    endloop
  endfacet
  facet normal 0 0 -1
    outer loop
    vertex 7.11837 -2.91823 3
    vertex 4.60306 -2.24656 3
    vertex 7.20249 -2.45472 3
    endloop
  endfacet
  facet normal 0 0 -1
    outer loop
    vertex 7.24471 -1.98554 3
    vertex 4.64477 -1.91639 3
    vertex 4.64477 -1.5836 3
    endloop
  endfacet
  facet normal 0 0 -1
    outer loop
    vertex 7.20249 -2.45472 3
    vertex 4.64477 -1.91639 3
    vertex 7.24471 -1.98554 3
    endloop
  endfacet
  facet normal 0 0 -1
    outer loop
    vertex 7.20249 -1.04527 3
    vertex 4.64477 -1.5836 3
    vertex 4.60306 -1.25344 3
    endloop
  endfacet
  facet normal 0 0 -1
    outer loop
    vertex 7.24471 -1.98554 3
    vertex 4.64477 -1.5836 3
    vertex 7.24471 -1.51446 3
    endloop
  endfacet
  facet normal 0 0 -1
    outer loop
    vertex 7.24471 -1.51446 3
    vertex 4.64477 -1.5836 3
    vertex 7.20249 -1.04527 3
    endloop
  endfacet
  facet normal 0 0 -1
    outer loop
    vertex 7.11837 -0.581765 3
    vertex 4.60306 -1.25344 3
    vertex 4.5203 -0.931104 3
    endloop
  endfacet
  facet normal 0 0 -1
    outer loop
    vertex 7.20249 -1.04527 3
    vertex 4.60306 -1.25344 3
    vertex 7.11837 -0.581765 3
    endloop
  endfacet
  facet normal 0 0 -1
    outer loop
    vertex 6.82752 0.313382 3
    vertex 4.5203 -0.931104 3
    vertex 4.39779 -0.621685 3
    endloop
  endfacet
  facet normal 0 0 -1
    outer loop
    vertex 7.11837 -0.581765 3
    vertex 4.5203 -0.931104 3
    vertex 6.99305 -0.12766 3
    endloop
  endfacet
  facet normal 0 0 -1
    outer loop
    vertex 6.99305 -0.12766 3
    vertex 4.5203 -0.931104 3
    vertex 6.82752 0.313382 3
    endloop
  endfacet
  facet normal 0 0 -1
    outer loop
    vertex 6.62313 0.737811 3
    vertex 4.39779 -0.621685 3
    vertex 4.23747 -0.330058 3
    endloop
  endfacet
  facet normal 0 0 -1
    outer loop
    vertex 6.82752 0.313382 3
    vertex 4.39779 -0.621685 3
    vertex 6.62313 0.737811 3
    endloop
  endfacet
  facet normal 0 0 -1
    outer loop
    vertex 6.10462 1.52332 3
    vertex 4.23747 -0.330058 3
    vertex 4.04186 -0.0608253 3
    endloop
  endfacet
  facet normal 0 0 -1
    outer loop
    vertex 6.62313 0.737811 3
    vertex 4.23747 -0.330058 3
    vertex 6.38151 1.14221 3
    endloop
  endfacet
  facet normal 0 0 -1
    outer loop
    vertex 6.38151 1.14221 3
    vertex 4.23747 -0.330058 3
    vertex 6.10462 1.52332 3
    endloop
  endfacet
  facet normal 0 0 -1
    outer loop
    vertex 5.79467 1.87808 3
    vertex 4.04186 -0.0608253 3
    vertex 3.81405 0.181767 3
    endloop
  endfacet
  facet normal 0 0 -1
    outer loop
    vertex 6.10462 1.52332 3
    vertex 4.04186 -0.0608253 3
    vertex 5.79467 1.87808 3
    endloop
  endfacet
  facet normal 0 0 -1
    outer loop
    vertex 5.45418 2.20363 3
    vertex 3.81405 0.181767 3
    vertex 3.55763 0.393896 3
    endloop
  endfacet
  facet normal 0 0 -1
    outer loop
    vertex 5.79467 1.87808 3
    vertex 3.81405 0.181767 3
    vertex 5.45418 2.20363 3
    endloop
  endfacet
  facet normal 0 0 -1
    outer loop
    vertex 4.69272 2.75686 3
    vertex 3.55763 0.393896 3
    vertex 3.27665 0.572214 3
    endloop
  endfacet
  facet normal 0 0 -1
    outer loop
    vertex 5.45418 2.20363 3
    vertex 3.55763 0.393896 3
    vertex 5.08587 2.49734 3
    endloop
  endfacet
  facet normal 0 0 -1
    outer loop
    vertex 5.08587 2.49734 3
    vertex 3.55763 0.393896 3
    vertex 4.69272 2.75686 3
    endloop
  endfacet
  facet normal 0 0 -1
    outer loop
    vertex 4.27789 2.98009 3
    vertex 3.27665 0.572214 3
    vertex 2.97553 0.713908 3
    endloop
  endfacet
  facet normal 0 0 -1
    outer loop
    vertex 4.69272 2.75686 3
    vertex 3.27665 0.572214 3
    vertex 4.27789 2.98009 3
    endloop
  endfacet
  facet normal 0 0 -1
    outer loop
    vertex 3.39669 3.31081 3
    vertex 2.97553 0.713908 3
    vertex 2.65903 0.816746 3
    endloop
  endfacet
  facet normal 0 0 -1
    outer loop
    vertex 4.27789 2.98009 3
    vertex 2.97553 0.713908 3
    vertex 3.84472 3.16523 3
    endloop
  endfacet
  facet normal 0 0 -1
    outer loop
    vertex 3.84472 3.16523 3
    vertex 2.97553 0.713908 3
    vertex 3.39669 3.31081 3
    endloop
  endfacet
  facet normal 0 0 -1
    outer loop
    vertex 3.39669 3.31081 3
    vertex 2.65903 0.816746 3
    vertex 2.93742 3.41563 3
    endloop
  endfacet
  facet normal 0.0448655 -0.998993 0
    outer loop
    vertex 1.52939 3.47887 3
    vertex 1.52939 3.47887 0
    vertex 2 3.5 3
    endloop
  endfacet
  facet normal 0.134233 -0.99095 0
    outer loop
    vertex 1.06258 3.41563 3
    vertex 1.06258 3.41563 0
    vertex 1.52939 3.47887 3
    endloop
  endfacet
  facet normal 0.134233 -0.99095 0
    outer loop
    vertex 1.52939 3.47887 3
    vertex 1.06258 3.41563 0
    vertex 1.52939 3.47887 0
    endloop
  endfacet
  facet normal -0.0448656 -0.998993 0
    outer loop
    vertex 2 3.5 3
    vertex 2 3.5 0
    vertex 2.47061 3.47887 3
    endloop
  endfacet
  facet normal 0.0448655 -0.998993 0
    outer loop
    vertex 2 3.5 3
    vertex 1.52939 3.47887 0
    vertex 2 3.5 0
    endloop
  endfacet
  facet normal -0.134233 -0.99095 0
    outer loop
    vertex 2.47061 3.47887 3
    vertex 2.47061 3.47887 0
    vertex 2.93742 3.41563 3
    endloop
  endfacet
  facet normal -0.0448656 -0.998993 0
    outer loop
    vertex 2.47061 3.47887 3
    vertex 2 3.5 0
    vertex 2.47061 3.47887 0
    endloop
  endfacet
  facet normal 0.222521 -0.974928 0
    outer loop
    vertex 0.603307 3.31081 3
    vertex 0.603307 3.31081 0
    vertex 1.06258 3.41563 3
    endloop
  endfacet
  facet normal 0.222521 -0.974928 0
    outer loop
    vertex 1.06258 3.41563 3
    vertex 0.603307 3.31081 0
    vertex 1.06258 3.41563 0
    endloop
  endfacet
  facet normal 0.309016 -0.951057 0
    outer loop
    vertex 0.155282 3.16523 3
    vertex 0.155282 3.16523 0
    vertex 0.603307 3.31081 3
    endloop
  endfacet
  facet normal 0.309016 -0.951057 0
    outer loop
    vertex 0.603307 3.31081 3
    vertex 0.155282 3.16523 0
    vertex 0.603307 3.31081 0
    endloop
  endfacet
  facet normal 0.393026 -0.919527 0
    outer loop
    vertex -0.277889 2.98009 3
    vertex -0.277889 2.98009 0
    vertex 0.155282 3.16523 3
    endloop
  endfacet
  facet normal 0.393026 -0.919527 0
    outer loop
    vertex 0.155282 3.16523 3
    vertex -0.277889 2.98009 0
    vertex 0.155282 3.16523 0
    endloop
  endfacet
  facet normal 0.473867 -0.880596 0
    outer loop
    vertex -0.692722 2.75686 3
    vertex -0.692722 2.75686 0
    vertex -0.277889 2.98009 3
    endloop
  endfacet
  facet normal 0.473867 -0.880596 0
    outer loop
    vertex -0.277889 2.98009 3
    vertex -0.692722 2.75686 0
    vertex -0.277889 2.98009 0
    endloop
  endfacet
  facet normal 0.550897 -0.834573 0
    outer loop
    vertex -1.08587 2.49734 3
    vertex -1.08587 2.49734 0
    vertex -0.692722 2.75686 3
    endloop
  endfacet
  facet normal 0.550897 -0.834573 0
    outer loop
    vertex -0.692722 2.75686 3
    vertex -1.08587 2.49734 0
    vertex -0.692722 2.75686 0
    endloop
  endfacet
  facet normal 0.62349 -0.781831 0
    outer loop
    vertex -1.45418 2.20363 3
    vertex -1.45418 2.20363 0
    vertex -1.08587 2.49734 3
    endloop
  endfacet
  facet normal 0.62349 -0.781831 0
    outer loop
    vertex -1.08587 2.49734 3
    vertex -1.45418 2.20363 0
    vertex -1.08587 2.49734 0
    endloop
  endfacet
  facet normal 0.691062 -0.722795 0
    outer loop
    vertex -1.79467 1.87808 3
    vertex -1.79467 1.87808 0
    vertex -1.45418 2.20363 3
    endloop
  endfacet
  facet normal 0.691062 -0.722795 0
    outer loop
    vertex -1.45418 2.20363 3
    vertex -1.79467 1.87808 0
    vertex -1.45418 2.20363 0
    endloop
  endfacet
  facet normal 0.753072 -0.657938 0
    outer loop
    vertex -2.10461 1.52332 3
    vertex -2.10461 1.52332 0
    vertex -1.79467 1.87808 3
    endloop
  endfacet
  facet normal 0.753072 -0.657938 0
    outer loop
    vertex -1.79467 1.87808 3
    vertex -2.10461 1.52332 0
    vertex -1.79467 1.87808 0
    endloop
  endfacet
  facet normal 0.809017 -0.587786 0
    outer loop
    vertex -2.38151 1.14221 3
    vertex -2.38151 1.14221 0
    vertex -2.10461 1.52332 3
    endloop
  endfacet
  facet normal 0.809017 -0.587786 0
    outer loop
    vertex -2.10461 1.52332 3
    vertex -2.38151 1.14221 0
    vertex -2.10461 1.52332 0
    endloop
  endfacet
  facet normal 0.858449 -0.512899 0
    outer loop
    vertex -2.62313 0.737811 3
    vertex -2.62313 0.737811 0
    vertex -2.38151 1.14221 3
    endloop
  endfacet
  facet normal 0.858449 -0.512899 0
    outer loop
    vertex -2.38151 1.14221 3
    vertex -2.62313 0.737811 0
    vertex -2.38151 1.14221 0
    endloop
  endfacet
  facet normal 0.900969 -0.433883 0
    outer loop
    vertex -2.82752 0.313382 3
    vertex -2.82752 0.313382 0
    vertex -2.62313 0.737811 3
    endloop
  endfacet
  facet normal 0.900969 -0.433883 0
    outer loop
    vertex -2.62313 0.737811 3
    vertex -2.82752 0.313382 0
    vertex -2.62313 0.737811 0
    endloop
  endfacet
  facet normal 0.936235 -0.351374 0
    outer loop
    vertex -2.99305 -0.12766 3
    vertex -2.99305 -0.12766 0
    vertex -2.82752 0.313382 3
    endloop
  endfacet
  facet normal 0.936235 -0.351374 0
    outer loop
    vertex -2.82752 0.313382 3
    vertex -2.99305 -0.12766 0
    vertex -2.82752 0.313382 0
    endloop
  endfacet
  facet normal 0.963962 -0.266039 0
    outer loop
    vertex -3.11837 -0.581765 3
    vertex -3.11837 -0.581765 0
    vertex -2.99305 -0.12766 3
    endloop
  endfacet
  facet normal 0.963962 -0.266039 0
    outer loop
    vertex -2.99305 -0.12766 3
    vertex -3.11837 -0.581765 0
    vertex -2.99305 -0.12766 0
    endloop
  endfacet
  facet normal 0.98393 -0.178556 0
    outer loop
    vertex -3.20249 -1.04527 3
    vertex -3.20249 -1.04527 0
    vertex -3.11837 -0.581765 3
    endloop
  endfacet
  facet normal 0.98393 -0.178556 0
    outer loop
    vertex -3.11837 -0.581765 3
    vertex -3.20249 -1.04527 0
    vertex -3.11837 -0.581765 0
    endloop
  endfacet
  facet normal 0.995974 -0.0896397 0
    outer loop
    vertex -3.24471 -1.51446 3
    vertex -3.24471 -1.51446 0
    vertex -3.20249 -1.04527 3
    endloop
  endfacet
  facet normal 0.995974 -0.0896397 0
    outer loop
    vertex -3.20249 -1.04527 3
    vertex -3.24471 -1.51446 0
    vertex -3.20249 -1.04527 0
    endloop
  endfacet
  facet normal 1 0 0
    outer loop
    vertex -3.24471 -1.98554 3
    vertex -3.24471 -1.98554 0
    vertex -3.24471 -1.51446 3
    endloop
  endfacet
  facet normal 1 0 0
    outer loop
    vertex -3.24471 -1.51446 3
    vertex -3.24471 -1.98554 0
    vertex -3.24471 -1.51446 0
    endloop
  endfacet
  facet normal 0.995974 0.0896397 -0
    outer loop
    vertex -3.20249 -2.45472 3
    vertex -3.20249 -2.45472 0
    vertex -3.24471 -1.98554 3
    endloop
  endfacet
  facet normal 0.995974 0.0896397 0
    outer loop
    vertex -3.24471 -1.98554 3
    vertex -3.20249 -2.45472 0
    vertex -3.24471 -1.98554 0
    endloop
  endfacet
  facet normal 0.98393 0.178556 -0
    outer loop
    vertex -3.11837 -2.91823 3
    vertex -3.11837 -2.91823 0
    vertex -3.20249 -2.45472 3
    endloop
  endfacet
  facet normal 0.98393 0.178556 0
    outer loop
    vertex -3.20249 -2.45472 3
    vertex -3.11837 -2.91823 0
    vertex -3.20249 -2.45472 0
    endloop
  endfacet
  facet normal 0.963962 0.266039 -0
    outer loop
    vertex -2.99305 -3.37234 3
    vertex -2.99305 -3.37234 0
    vertex -3.11837 -2.91823 3
    endloop
  endfacet
  facet normal 0.963962 0.266039 0
    outer loop
    vertex -3.11837 -2.91823 3
    vertex -2.99305 -3.37234 0
    vertex -3.11837 -2.91823 0
    endloop
  endfacet
  facet normal 0.936235 0.351374 -0
    outer loop
    vertex -2.82752 -3.81338 3
    vertex -2.82752 -3.81338 0
    vertex -2.99305 -3.37234 3
    endloop
  endfacet
  facet normal 0.936235 0.351374 0
    outer loop
    vertex -2.99305 -3.37234 3
    vertex -2.82752 -3.81338 0
    vertex -2.99305 -3.37234 0
    endloop
  endfacet
  facet normal 0.900969 0.433884 -0
    outer loop
    vertex -2.62313 -4.23781 3
    vertex -2.62313 -4.23781 0
    vertex -2.82752 -3.81338 3
    endloop
  endfacet
  facet normal 0.900969 0.433884 0
    outer loop
    vertex -2.82752 -3.81338 3
    vertex -2.62313 -4.23781 0
    vertex -2.82752 -3.81338 0
    endloop
  endfacet
  facet normal 0.858449 0.512898 -0
    outer loop
    vertex -2.38151 -4.64221 3
    vertex -2.38151 -4.64221 0
    vertex -2.62313 -4.23781 3
    endloop
  endfacet
  facet normal 0.858449 0.512898 0
    outer loop
    vertex -2.62313 -4.23781 3
    vertex -2.38151 -4.64221 0
    vertex -2.62313 -4.23781 0
    endloop
  endfacet
  facet normal 0.809017 0.587786 -0
    outer loop
    vertex -2.10461 -5.02332 3
    vertex -2.10461 -5.02332 0
    vertex -2.38151 -4.64221 3
    endloop
  endfacet
  facet normal 0.809017 0.587786 0
    outer loop
    vertex -2.38151 -4.64221 3
    vertex -2.10461 -5.02332 0
    vertex -2.38151 -4.64221 0
    endloop
  endfacet
  facet normal 0.753072 0.657938 -0
    outer loop
    vertex -1.79467 -5.37808 3
    vertex -1.79467 -5.37808 0
    vertex -2.10461 -5.02332 3
    endloop
  endfacet
  facet normal 0.753072 0.657938 0
    outer loop
    vertex -2.10461 -5.02332 3
    vertex -1.79467 -5.37808 0
    vertex -2.10461 -5.02332 0
    endloop
  endfacet
  facet normal 0.691062 0.722795 -0
    outer loop
    vertex -1.45418 -5.70362 3
    vertex -1.45418 -5.70362 0
    vertex -1.79467 -5.37808 3
    endloop
  endfacet
  facet normal 0.691062 0.722795 0
    outer loop
    vertex -1.79467 -5.37808 3
    vertex -1.45418 -5.70362 0
    vertex -1.79467 -5.37808 0
    endloop
  endfacet
  facet normal 0.623489 0.781832 -0
    outer loop
    vertex -1.08587 -5.99734 3
    vertex -1.08587 -5.99734 0
    vertex -1.45418 -5.70362 3
    endloop
  endfacet
  facet normal 0.623489 0.781832 0
    outer loop
    vertex -1.45418 -5.70362 3
    vertex -1.08587 -5.99734 0
    vertex -1.45418 -5.70362 0
    endloop
  endfacet
  facet normal 0.5509 0.834571 -0
    outer loop
    vertex -0.692722 -6.25686 3
    vertex -0.692722 -6.25686 0
    vertex -1.08587 -5.99734 3
    endloop
  endfacet
  facet normal 0.5509 0.834571 0
    outer loop
    vertex -1.08587 -5.99734 3
    vertex -0.692722 -6.25686 0
    vertex -1.08587 -5.99734 0
    endloop
  endfacet
  facet normal 0.473868 0.880596 -0
    outer loop
    vertex -0.277889 -6.48009 3
    vertex -0.277889 -6.48009 0
    vertex -0.692722 -6.25686 3
    endloop
  endfacet
  facet normal 0.473868 0.880596 0
    outer loop
    vertex -0.692722 -6.25686 3
    vertex -0.277889 -6.48009 0
    vertex -0.692722 -6.25686 0
    endloop
  endfacet
  facet normal 0.393025 0.919528 -0
    outer loop
    vertex 0.155282 -6.66523 3
    vertex 0.155282 -6.66523 0
    vertex -0.277889 -6.48009 3
    endloop
  endfacet
  facet normal 0.393025 0.919528 0
    outer loop
    vertex -0.277889 -6.48009 3
    vertex 0.155282 -6.66523 0
    vertex -0.277889 -6.48009 0
    endloop
  endfacet
  facet normal 0.309012 0.951058 -0
    outer loop
    vertex 0.603307 -6.8108 3
    vertex 0.603307 -6.8108 0
    vertex 0.155282 -6.66523 3
    endloop
  endfacet
  facet normal 0.309012 0.951058 0
    outer loop
    vertex 0.155282 -6.66523 3
    vertex 0.603307 -6.8108 0
    vertex 0.155282 -6.66523 0
    endloop
  endfacet
  facet normal 0.222524 0.974927 -0
    outer loop
    vertex 1.06258 -6.91563 3
    vertex 1.06258 -6.91563 0
    vertex 0.603307 -6.8108 3
    endloop
  endfacet
  facet normal 0.222524 0.974927 0
    outer loop
    vertex 0.603307 -6.8108 3
    vertex 1.06258 -6.91563 0
    vertex 0.603307 -6.8108 0
    endloop
  endfacet
  facet normal 0.134233 0.99095 -0
    outer loop
    vertex 1.52939 -6.97886 3
    vertex 1.52939 -6.97886 0
    vertex 1.06258 -6.91563 3
    endloop
  endfacet
  facet normal 0.134233 0.99095 0
    outer loop
    vertex 1.06258 -6.91563 3
    vertex 1.52939 -6.97886 0
    vertex 1.06258 -6.91563 0
    endloop
  endfacet
  facet normal 0.0448635 0.998993 -0
    outer loop
    vertex 2 -7 3
    vertex 2 -7 0
    vertex 1.52939 -6.97886 3
    endloop
  endfacet
  facet normal 0.0448635 0.998993 0
    outer loop
    vertex 1.52939 -6.97886 3
    vertex 2 -7 0
    vertex 1.52939 -6.97886 0
    endloop
  endfacet
  facet normal -0.0448636 0.998993 0
    outer loop
    vertex 2.47061 -6.97886 3
    vertex 2.47061 -6.97886 0
    vertex 2 -7 3
    endloop
  endfacet
  facet normal -0.0448636 0.998993 0
    outer loop
    vertex 2 -7 3
    vertex 2.47061 -6.97886 0
    vertex 2 -7 0
    endloop
  endfacet
  facet normal -0.134233 0.99095 0
    outer loop
    vertex 2.93742 -6.91563 3
    vertex 2.93742 -6.91563 0
    vertex 2.47061 -6.97886 3
    endloop
  endfacet
  facet normal -0.134233 0.99095 0
    outer loop
    vertex 2.47061 -6.97886 3
    vertex 2.93742 -6.91563 0
    vertex 2.47061 -6.97886 0
    endloop
  endfacet
  facet normal -0.222524 0.974927 0
    outer loop
    vertex 3.39669 -6.8108 3
    vertex 3.39669 -6.8108 0
    vertex 2.93742 -6.91563 3
    endloop
  endfacet
  facet normal -0.222524 0.974927 0
    outer loop
    vertex 2.93742 -6.91563 3
    vertex 3.39669 -6.8108 0
    vertex 2.93742 -6.91563 0
    endloop
  endfacet
  facet normal -0.309013 0.951058 0
    outer loop
    vertex 3.84472 -6.66523 3
    vertex 3.84472 -6.66523 0
    vertex 3.39669 -6.8108 3
    endloop
  endfacet
  facet normal -0.309013 0.951058 0
    outer loop
    vertex 3.39669 -6.8108 3
    vertex 3.84472 -6.66523 0
    vertex 3.39669 -6.8108 0
    endloop
  endfacet
  facet normal -0.393025 0.919528 0
    outer loop
    vertex 4.27789 -6.48009 3
    vertex 4.27789 -6.48009 0
    vertex 3.84472 -6.66523 3
    endloop
  endfacet
  facet normal -0.393025 0.919528 0
    outer loop
    vertex 3.84472 -6.66523 3
    vertex 4.27789 -6.48009 0
    vertex 3.84472 -6.66523 0
    endloop
  endfacet
  facet normal -0.473869 0.880596 0
    outer loop
    vertex 4.69272 -6.25686 3
    vertex 4.69272 -6.25686 0
    vertex 4.27789 -6.48009 3
    endloop
  endfacet
  facet normal -0.473869 0.880596 0
    outer loop
    vertex 4.27789 -6.48009 3
    vertex 4.69272 -6.25686 0
    vertex 4.27789 -6.48009 0
    endloop
  endfacet
  facet normal -0.5509 0.834572 0
    outer loop
    vertex 5.08587 -5.99734 3
    vertex 5.08587 -5.99734 0
    vertex 4.69272 -6.25686 3
    endloop
  endfacet
  facet normal -0.5509 0.834572 0
    outer loop
    vertex 4.69272 -6.25686 3
    vertex 5.08587 -5.99734 0
    vertex 4.69272 -6.25686 0
    endloop
  endfacet
  facet normal -0.62349 0.781832 0
    outer loop
    vertex 5.45418 -5.70362 3
    vertex 5.45418 -5.70362 0
    vertex 5.08587 -5.99734 3
    endloop
  endfacet
  facet normal -0.62349 0.781832 0
    outer loop
    vertex 5.08587 -5.99734 3
    vertex 5.45418 -5.70362 0
    vertex 5.08587 -5.99734 0
    endloop
  endfacet
  facet normal -0.691062 0.722795 0
    outer loop
    vertex 5.79467 -5.37808 3
    vertex 5.79467 -5.37808 0
    vertex 5.45418 -5.70362 3
    endloop
  endfacet
  facet normal -0.691062 0.722795 0
    outer loop
    vertex 5.45418 -5.70362 3
    vertex 5.79467 -5.37808 0
    vertex 5.45418 -5.70362 0
    endloop
  endfacet
  facet normal -0.753072 0.657938 0
    outer loop
    vertex 6.10462 -5.02332 3
    vertex 6.10462 -5.02332 0
    vertex 5.79467 -5.37808 3
    endloop
  endfacet
  facet normal -0.753072 0.657938 0
    outer loop
    vertex 5.79467 -5.37808 3
    vertex 6.10462 -5.02332 0
    vertex 5.79467 -5.37808 0
    endloop
  endfacet
  facet normal -0.809017 0.587786 0
    outer loop
    vertex 6.38151 -4.64221 3
    vertex 6.38151 -4.64221 0
    vertex 6.10462 -5.02332 3
    endloop
  endfacet
  facet normal -0.809017 0.587786 0
    outer loop
    vertex 6.10462 -5.02332 3
    vertex 6.38151 -4.64221 0
    vertex 6.10462 -5.02332 0
    endloop
  endfacet
  facet normal -0.858449 0.512899 0
    outer loop
    vertex 6.62313 -4.23781 3
    vertex 6.62313 -4.23781 0
    vertex 6.38151 -4.64221 3
    endloop
  endfacet
  facet normal -0.858449 0.512899 0
    outer loop
    vertex 6.38151 -4.64221 3
    vertex 6.62313 -4.23781 0
    vertex 6.38151 -4.64221 0
    endloop
  endfacet
  facet normal -0.900968 0.433885 0
    outer loop
    vertex 6.82752 -3.81338 3
    vertex 6.82752 -3.81338 0
    vertex 6.62313 -4.23781 3
    endloop
  endfacet
  facet normal -0.900968 0.433885 0
    outer loop
    vertex 6.62313 -4.23781 3
    vertex 6.82752 -3.81338 0
    vertex 6.62313 -4.23781 0
    endloop
  endfacet
  facet normal -0.936235 0.351374 0
    outer loop
    vertex 6.99305 -3.37234 3
    vertex 6.99305 -3.37234 0
    vertex 6.82752 -3.81338 3
    endloop
  endfacet
  facet normal -0.936235 0.351374 0
    outer loop
    vertex 6.82752 -3.81338 3
    vertex 6.99305 -3.37234 0
    vertex 6.82752 -3.81338 0
    endloop
  endfacet
  facet normal -0.963963 0.266037 0
    outer loop
    vertex 7.11837 -2.91823 3
    vertex 7.11837 -2.91823 0
    vertex 6.99305 -3.37234 3
    endloop
  endfacet
  facet normal -0.963963 0.266037 0
    outer loop
    vertex 6.99305 -3.37234 3
    vertex 7.11837 -2.91823 0
    vertex 6.99305 -3.37234 0
    endloop
  endfacet
  facet normal -0.98393 0.178557 0
    outer loop
    vertex 7.20249 -2.45472 3
    vertex 7.20249 -2.45472 0
    vertex 7.11837 -2.91823 3
    endloop
  endfacet
  facet normal -0.98393 0.178557 0
    outer loop
    vertex 7.11837 -2.91823 3
    vertex 7.20249 -2.45472 0
    vertex 7.11837 -2.91823 0
    endloop
  endfacet
  facet normal -0.995974 0.0896412 0
    outer loop
    vertex 7.24471 -1.98554 3
    vertex 7.24471 -1.98554 0
    vertex 7.20249 -2.45472 3
    endloop
  endfacet
  facet normal -0.995974 0.0896412 0
    outer loop
    vertex 7.20249 -2.45472 3
    vertex 7.24471 -1.98554 0
    vertex 7.20249 -2.45472 0
    endloop
  endfacet
  facet normal -1 0 0
    outer loop
    vertex 7.24471 -1.51446 3
    vertex 7.24471 -1.51446 0
    vertex 7.24471 -1.98554 3
    endloop
  endfacet
  facet normal -1 0 0
    outer loop
    vertex 7.24471 -1.98554 3
    vertex 7.24471 -1.51446 0
    vertex 7.24471 -1.98554 0
    endloop
  endfacet
  facet normal -0.995974 -0.0896412 0
    outer loop
    vertex 7.20249 -1.04527 3
    vertex 7.20249 -1.04527 0
    vertex 7.24471 -1.51446 3
    endloop
  endfacet
  facet normal -0.995974 -0.0896412 0
    outer loop
    vertex 7.24471 -1.51446 3
    vertex 7.20249 -1.04527 0
    vertex 7.24471 -1.51446 0
    endloop
  endfacet
  facet normal -0.98393 -0.178557 0
    outer loop
    vertex 7.11837 -0.581765 3
    vertex 7.11837 -0.581765 0
    vertex 7.20249 -1.04527 3
    endloop
  endfacet
  facet normal -0.98393 -0.178557 0
    outer loop
    vertex 7.20249 -1.04527 3
    vertex 7.11837 -0.581765 0
    vertex 7.20249 -1.04527 0
    endloop
  endfacet
  facet normal -0.963963 -0.266037 0
    outer loop
    vertex 6.99305 -0.12766 3
    vertex 6.99305 -0.12766 0
    vertex 7.11837 -0.581765 3
    endloop
  endfacet
  facet normal -0.963963 -0.266037 0
    outer loop
    vertex 7.11837 -0.581765 3
    vertex 6.99305 -0.12766 0
    vertex 7.11837 -0.581765 0
    endloop
  endfacet
  facet normal -0.936235 -0.351374 0
    outer loop
    vertex 6.82752 0.313382 3
    vertex 6.82752 0.313382 0
    vertex 6.99305 -0.12766 3
    endloop
  endfacet
  facet normal -0.936235 -0.351374 0
    outer loop
    vertex 6.99305 -0.12766 3
    vertex 6.82752 0.313382 0
    vertex 6.99305 -0.12766 0
    endloop
  endfacet
  facet normal -0.900969 -0.433884 0
    outer loop
    vertex 6.62313 0.737811 3
    vertex 6.62313 0.737811 0
    vertex 6.82752 0.313382 3
    endloop
  endfacet
  facet normal -0.900969 -0.433884 0
    outer loop
    vertex 6.82752 0.313382 3
    vertex 6.62313 0.737811 0
    vertex 6.82752 0.313382 0
    endloop
  endfacet
  facet normal -0.858449 -0.512899 0
    outer loop
    vertex 6.38151 1.14221 3
    vertex 6.38151 1.14221 0
    vertex 6.62313 0.737811 3
    endloop
  endfacet
  facet normal -0.858449 -0.512899 0
    outer loop
    vertex 6.62313 0.737811 3
    vertex 6.38151 1.14221 0
    vertex 6.62313 0.737811 0
    endloop
  endfacet
  facet normal -0.809017 -0.587786 0
    outer loop
    vertex 6.10462 1.52332 3
    vertex 6.10462 1.52332 0
    vertex 6.38151 1.14221 3
    endloop
  endfacet
  facet normal -0.809017 -0.587786 0
    outer loop
    vertex 6.38151 1.14221 3
    vertex 6.10462 1.52332 0
    vertex 6.38151 1.14221 0
    endloop
  endfacet
  facet normal -0.753072 -0.657938 0
    outer loop
    vertex 5.79467 1.87808 3
    vertex 5.79467 1.87808 0
    vertex 6.10462 1.52332 3
    endloop
  endfacet
  facet normal -0.753072 -0.657938 0
    outer loop
    vertex 6.10462 1.52332 3
    vertex 5.79467 1.87808 0
    vertex 6.10462 1.52332 0
    endloop
  endfacet
  facet normal -0.691062 -0.722795 0
    outer loop
    vertex 5.45418 2.20363 3
    vertex 5.45418 2.20363 0
    vertex 5.79467 1.87808 3
    endloop
  endfacet
  facet normal -0.691062 -0.722795 0
    outer loop
    vertex 5.79467 1.87808 3
    vertex 5.45418 2.20363 0
    vertex 5.79467 1.87808 0
    endloop
  endfacet
  facet normal -0.623491 -0.781831 0
    outer loop
    vertex 5.08587 2.49734 3
    vertex 5.08587 2.49734 0
    vertex 5.45418 2.20363 3
    endloop
  endfacet
  facet normal -0.623491 -0.781831 0
    outer loop
    vertex 5.45418 2.20363 3
    vertex 5.08587 2.49734 0
    vertex 5.45418 2.20363 0
    endloop
  endfacet
  facet normal -0.550897 -0.834573 0
    outer loop
    vertex 4.69272 2.75686 3
    vertex 4.69272 2.75686 0
    vertex 5.08587 2.49734 3
    endloop
  endfacet
  facet normal -0.550897 -0.834573 0
    outer loop
    vertex 5.08587 2.49734 3
    vertex 4.69272 2.75686 0
    vertex 5.08587 2.49734 0
    endloop
  endfacet
  facet normal -0.473868 -0.880596 0
    outer loop
    vertex 4.27789 2.98009 3
    vertex 4.27789 2.98009 0
    vertex 4.69272 2.75686 3
    endloop
  endfacet
  facet normal -0.473868 -0.880596 0
    outer loop
    vertex 4.69272 2.75686 3
    vertex 4.27789 2.98009 0
    vertex 4.69272 2.75686 0
    endloop
  endfacet
  facet normal -0.393026 -0.919528 0
    outer loop
    vertex 3.84472 3.16523 3
    vertex 3.84472 3.16523 0
    vertex 4.27789 2.98009 3
    endloop
  endfacet
  facet normal -0.393026 -0.919528 0
    outer loop
    vertex 4.27789 2.98009 3
    vertex 3.84472 3.16523 0
    vertex 4.27789 2.98009 0
    endloop
  endfacet
  facet normal -0.309017 -0.951057 0
    outer loop
    vertex 3.39669 3.31081 3
    vertex 3.39669 3.31081 0
    vertex 3.84472 3.16523 3
    endloop
  endfacet
  facet normal -0.309017 -0.951057 0
    outer loop
    vertex 3.84472 3.16523 3
    vertex 3.39669 3.31081 0
    vertex 3.84472 3.16523 0
    endloop
  endfacet
  facet normal -0.222521 -0.974928 0
    outer loop
    vertex 2.93742 3.41563 3
    vertex 2.93742 3.41563 0
    vertex 3.39669 3.31081 3
    endloop
  endfacet
  facet normal -0.222521 -0.974928 0
    outer loop
    vertex 3.39669 3.31081 3
    vertex 2.93742 3.41563 0
    vertex 3.39669 3.31081 0
    endloop
  endfacet
  facet normal -0.134233 -0.99095 0
    outer loop
    vertex 2.93742 3.41563 3
    vertex 2.47061 3.47887 0
    vertex 2.93742 3.41563 0
    endloop
  endfacet
  facet normal 0 0 -1
    outer loop
    vertex 9 9.5 0
    vertex 1.06258 3.41563 0
    vertex -10 9.5 0
    endloop
  endfacet
  facet normal -0 0 -1
    outer loop
    vertex -10 9.5 0
    vertex -3.11837 -0.581765 0
    vertex -3.20249 -1.04527 0
    endloop
  endfacet
  facet normal -0 0 -1
    outer loop
    vertex -10 9.5 0
    vertex -3.20249 -1.04527 0
    vertex -10 -8.5 0
    endloop
  endfacet
  facet normal -0 0 -1
    outer loop
    vertex -10 9.5 0
    vertex -2.99305 -0.12766 0
    vertex -3.11837 -0.581765 0
    endloop
  endfacet
  facet normal 0 0 -1
    outer loop
    vertex -2.82752 0.313382 0
    vertex -2.99305 -0.12766 0
    vertex -10 9.5 0
    endloop
  endfacet
  facet normal -0 0 -1
    outer loop
    vertex -10 9.5 0
    vertex -2.62313 0.737811 0
    vertex -2.82752 0.313382 0
    endloop
  endfacet
  facet normal -0 0 -1
    outer loop
    vertex -10 9.5 0
    vertex -2.38151 1.14221 0
    vertex -2.62313 0.737811 0
    endloop
  endfacet
  facet normal 0 0 -1
    outer loop
    vertex -2.10461 1.52332 0
    vertex -2.38151 1.14221 0
    vertex -10 9.5 0
    endloop
  endfacet
  facet normal -0 0 -1
    outer loop
    vertex -10 9.5 0
    vertex -1.79467 1.87808 0
    vertex -2.10461 1.52332 0
    endloop
  endfacet
  facet normal -0 0 -1
    outer loop
    vertex -10 9.5 0
    vertex -1.45418 2.20363 0
    vertex -1.79467 1.87808 0
    endloop
  endfacet
  facet normal 0 0 -1
    outer loop
    vertex -1.08587 2.49734 0
    vertex -1.45418 2.20363 0
    vertex -10 9.5 0
    endloop
  endfacet
  facet normal -0 0 -1
    outer loop
    vertex -10 9.5 0
    vertex -0.692722 2.75686 0
    vertex -1.08587 2.49734 0
    endloop
  endfacet
  facet normal -0 0 -1
    outer loop
    vertex -10 9.5 0
    vertex -0.277889 2.98009 0
    vertex -0.692722 2.75686 0
    endloop
  endfacet
  facet normal 0 0 -1
    outer loop
    vertex 0.155282 3.16523 0
    vertex -0.277889 2.98009 0
    vertex -10 9.5 0
    endloop
  endfacet
  facet normal -0 0 -1
    outer loop
    vertex -10 9.5 0
    vertex 0.603307 3.31081 0
    vertex 0.155282 3.16523 0
    endloop
  endfacet
  facet normal -0 0 -1
    outer loop
    vertex -10 9.5 0
    vertex 1.06258 3.41563 0
    vertex 0.603307 3.31081 0
    endloop
  endfacet
  facet normal -0 0 -1
    outer loop
    vertex 9 9.5 0
    vertex 2 3.5 0
    vertex 1.52939 3.47887 0
    endloop
  endfacet
  facet normal -0 0 -1
    outer loop
    vertex 9 9.5 0
    vertex 1.52939 3.47887 0
    vertex 1.06258 3.41563 0
    endloop
  endfacet
  facet normal 0 0 -1
    outer loop
    vertex 2.47061 3.47887 0
    vertex 2 3.5 0
    vertex 9 9.5 0
    endloop
  endfacet
  facet normal 0 0 -1
    outer loop
    vertex 9 9.5 0
    vertex 2.93742 3.41563 0
    vertex 2.47061 3.47887 0
    endloop
  endfacet
  facet normal 0 0 -1
    outer loop
    vertex 9 9.5 0
    vertex 3.39669 3.31081 0
    vertex 2.93742 3.41563 0
    endloop
  endfacet
  facet normal 0 0 -1
    outer loop
    vertex 3.84472 3.16523 0
    vertex 3.39669 3.31081 0
    vertex 9 9.5 0
    endloop
  endfacet
  facet normal 0 0 -1
    outer loop
    vertex 9 9.5 0
    vertex 4.27789 2.98009 0
    vertex 3.84472 3.16523 0
    endloop
  endfacet
  facet normal 0 0 -1
    outer loop
    vertex 9 9.5 0
    vertex 4.69272 2.75686 0
    vertex 4.27789 2.98009 0
    endloop
  endfacet
  facet normal 0 -0 -1
    outer loop
    vertex 6.10462 -5.02332 0
    vertex 6.38151 -4.64221 0
    vertex 9 -8.5 0
    endloop
  endfacet
  facet normal 0 0 -1
    outer loop
    vertex 9 -8.5 0
    vertex 5.79467 -5.37808 0
    vertex 6.10462 -5.02332 0
    endloop
  endfacet
  facet normal 0 0 -1
    outer loop
    vertex 9 -8.5 0
    vertex 5.45418 -5.70362 0
    vertex 5.79467 -5.37808 0
    endloop
  endfacet
  facet normal 0 -0 -1
    outer loop
    vertex 5.08587 -5.99734 0
    vertex 5.45418 -5.70362 0
    vertex 9 -8.5 0
    endloop
  endfacet
  facet normal 0 0 -1
    outer loop
    vertex 9 -8.5 0
    vertex 4.69272 -6.25686 0
    vertex 5.08587 -5.99734 0
    endloop
  endfacet
  facet normal 0 0 -1
    outer loop
    vertex 9 -8.5 0
    vertex 4.27789 -6.48009 0
    vertex 4.69272 -6.25686 0
    endloop
  endfacet
  facet normal 0 -0 -1
    outer loop
    vertex 3.84472 -6.66523 0
    vertex 4.27789 -6.48009 0
    vertex 9 -8.5 0
    endloop
  endfacet
  facet normal 0 0 -1
    outer loop
    vertex 9 -8.5 0
    vertex 3.39669 -6.8108 0
    vertex 3.84472 -6.66523 0
    endloop
  endfacet
  facet normal 0 0 -1
    outer loop
    vertex 9 -8.5 0
    vertex 2.93742 -6.91563 0
    vertex 3.39669 -6.8108 0
    endloop
  endfacet
  facet normal 0 -0 -1
    outer loop
    vertex 2.47061 -6.97886 0
    vertex 2.93742 -6.91563 0
    vertex 9 -8.5 0
    endloop
  endfacet
  facet normal 0 0 -1
    outer loop
    vertex 9 -8.5 0
    vertex 2 -7 0
    vertex 2.47061 -6.97886 0
    endloop
  endfacet
  facet normal 0 0 -1
    outer loop
    vertex 9 -8.5 0
    vertex 1.52939 -6.97886 0
    vertex 2 -7 0
    endloop
  endfacet
  facet normal -0 0 -1
    outer loop
    vertex 1.06258 -6.91563 0
    vertex 1.52939 -6.97886 0
    vertex -10 -8.5 0
    endloop
  endfacet
  facet normal 0 -0 -1
    outer loop
    vertex -10 -8.5 0
    vertex 1.52939 -6.97886 0
    vertex 9 -8.5 0
    endloop
  endfacet
  facet normal 0 -0 -1
    outer loop
    vertex -10 -8.5 0
    vertex 0.603307 -6.8108 0
    vertex 1.06258 -6.91563 0
    endloop
  endfacet
  facet normal 0 -0 -1
    outer loop
    vertex -10 -8.5 0
    vertex 0.155282 -6.66523 0
    vertex 0.603307 -6.8108 0
    endloop
  endfacet
  facet normal -0 0 -1
    outer loop
    vertex -0.277889 -6.48009 0
    vertex 0.155282 -6.66523 0
    vertex -10 -8.5 0
    endloop
  endfacet
  facet normal 0 -0 -1
    outer loop
    vertex -10 -8.5 0
    vertex -0.692722 -6.25686 0
    vertex -0.277889 -6.48009 0
    endloop
  endfacet
  facet normal 0 -0 -1
    outer loop
    vertex -10 -8.5 0
    vertex -1.08587 -5.99734 0
    vertex -0.692722 -6.25686 0
    endloop
  endfacet
  facet normal -0 0 -1
    outer loop
    vertex -1.45418 -5.70362 0
    vertex -1.08587 -5.99734 0
    vertex -10 -8.5 0
    endloop
  endfacet
  facet normal 0 -0 -1
    outer loop
    vertex -10 -8.5 0
    vertex -1.79467 -5.37808 0
    vertex -1.45418 -5.70362 0
    endloop
  endfacet
  facet normal 0 -0 -1
    outer loop
    vertex -10 -8.5 0
    vertex -2.10461 -5.02332 0
    vertex -1.79467 -5.37808 0
    endloop
  endfacet
  facet normal -0 0 -1
    outer loop
    vertex -2.38151 -4.64221 0
    vertex -2.10461 -5.02332 0
    vertex -10 -8.5 0
    endloop
  endfacet
  facet normal 0 -0 -1
    outer loop
    vertex -10 -8.5 0
    vertex -2.62313 -4.23781 0
    vertex -2.38151 -4.64221 0
    endloop
  endfacet
  facet normal 0 -0 -1
    outer loop
    vertex -10 -8.5 0
    vertex -2.82752 -3.81338 0
    vertex -2.62313 -4.23781 0
    endloop
  endfacet
  facet normal -0 0 -1
    outer loop
    vertex -2.99305 -3.37234 0
    vertex -2.82752 -3.81338 0
    vertex -10 -8.5 0
    endloop
  endfacet
  facet normal 0 -0 -1
    outer loop
    vertex -10 -8.5 0
    vertex -3.11837 -2.91823 0
    vertex -2.99305 -3.37234 0
    endloop
  endfacet
  facet normal 0 -0 -1
    outer loop
    vertex -10 -8.5 0
    vertex -3.20249 -2.45472 0
    vertex -3.11837 -2.91823 0
    endloop
  endfacet
  facet normal -0 0 -1
    outer loop
    vertex -3.24471 -1.98554 0
    vertex -3.20249 -2.45472 0
    vertex -10 -8.5 0
    endloop
  endfacet
  facet normal 0 -0 -1
    outer loop
    vertex -10 -8.5 0
    vertex -3.24471 -1.51446 0
    vertex -3.24471 -1.98554 0
    endloop
  endfacet
  facet normal 0 0 -1
    outer loop
    vertex -10 -8.5 0
    vertex -3.20249 -1.04527 0
    vertex -3.24471 -1.51446 0
    endloop
  endfacet
  facet normal 0 1 0
    outer loop
    vertex 1 3.4 6
    vertex 3 3.4 6
    vertex 1 3.4 5
    endloop
  endfacet
  facet normal 0 0 -1
    outer loop
    vertex 1 3.501 6
    vertex 3 3.4 6
    vertex 1 3.4 6
    endloop
  endfacet
  facet normal 1 0 0
    outer loop
    vertex 1 3.501 5
    vertex 1 3.4 6
    vertex 1 3.4 5
    endloop
  endfacet
  facet normal 1 -0 0
    outer loop
    vertex 1 3.501 6
    vertex 1 3.4 6
    vertex 1 3.501 5
    endloop
  endfacet
  facet normal 0 1 0
    outer loop
    vertex 1 3.4 5
    vertex 3 3.4 6
    vertex 3 3.4 5
    endloop
  endfacet
  facet normal -1 -0 0
    outer loop
    vertex 3 3.4 6
    vertex 3 3.501 6
    vertex 3 3.4 5
    endloop
  endfacet
  facet normal 0 0 -1
    outer loop
    vertex 3 3.501 6
    vertex 3 3.4 6
    vertex 1 3.501 6
    endloop
  endfacet
  facet normal 0 0 1
    outer loop
    vertex 3 3.501 5
    vertex 1 3.4 5
    vertex 3 3.4 5
    endloop
  endfacet
  facet normal 0 0 1
    outer loop
    vertex 1 3.501 5
    vertex 1 3.4 5
    vertex 3 3.501 5
    endloop
  endfacet
  facet normal -1 0 -0
    outer loop
    vertex 3 3.4 5
    vertex 3 3.501 6
    vertex 3 3.501 5
    endloop
  endfacet
  facet normal 0 -1 0
    outer loop
    vertex 3 3.501 5
    vertex 1 3.501 6
    vertex 1 3.501 5
    endloop
  endfacet
  facet normal 0 -1 0
    outer loop
    vertex 3 3.501 6
    vertex 1 3.501 6
    vertex 3 3.501 5
    endloop
  endfacet
  facet normal -1 -0 0
    outer loop
    vertex 3 -7.001 6
    vertex 3 -6.9 6
    vertex 3 -7.001 5
    endloop
  endfacet
  facet normal 0 0 -1
    outer loop
    vertex 3 -7.001 6
    vertex 1 -6.9 6
    vertex 3 -6.9 6
    endloop
  endfacet
  facet normal 0 1 0
    outer loop
    vertex 1 -7.001 5
    vertex 3 -7.001 6
    vertex 3 -7.001 5
    endloop
  endfacet
  facet normal 0 1 0
    outer loop
    vertex 1 -7.001 6
    vertex 3 -7.001 6
    vertex 1 -7.001 5
    endloop
  endfacet
  facet normal 0 0 -1
    outer loop
    vertex 1 -7.001 6
    vertex 1 -6.9 6
    vertex 3 -7.001 6
    endloop
  endfacet
  facet normal -1 0 -0
    outer loop
    vertex 3 -7.001 5
    vertex 3 -6.9 6
    vertex 3 -6.9 5
    endloop
  endfacet
  facet normal 0 -1 0
    outer loop
    vertex 3 -6.9 6
    vertex 1 -6.9 6
    vertex 3 -6.9 5
    endloop
  endfacet
  facet normal 0 0 1
    outer loop
    vertex 3 -7.001 5
    vertex 3 -6.9 5
    vertex 1 -7.001 5
    endloop
  endfacet
  facet normal 0 0 1
    outer loop
    vertex 1 -7.001 5
    vertex 3 -6.9 5
    vertex 1 -6.9 5
    endloop
  endfacet
  facet normal 0 -1 0
    outer loop
    vertex 3 -6.9 5
    vertex 1 -6.9 6
    vertex 1 -6.9 5
    endloop
  endfacet
  facet normal 1 0 0
    outer loop
    vertex 1 -6.9 5
    vertex 1 -7.001 6
    vertex 1 -7.001 5
    endloop
  endfacet
  facet normal 1 -0 0
    outer loop
    vertex 1 -6.9 6
    vertex 1 -7.001 6
    vertex 1 -6.9 5
    endloop
  endfacet
endsolid foot_a.stl
