solid lcd_support_b.stl
  facet normal 0.707107 0 -0.707107
    outer loop
    vertex 32.3 10.5586 10
    vertex 33.7 9.15856 11.4
    vertex 32.3 1.55856 10
    endloop
  endfacet
  facet normal 0.707107 0.707107 0
    outer loop
    vertex 32.3 10.5586 10
    vertex 32.3 10.5586 23
    vertex 33.7 9.15856 11.4
    endloop
  endfacet
  facet normal 1 0 0
    outer loop
    vertex 32.3 1.55856 10
    vertex 32.3 16.0586 -5.96046e-007
    vertex 32.3 10.5586 10
    endloop
  endfacet
  facet normal 1 0 0
    outer loop
    vertex 32.3 10.5586 10
    vertex 32.3 16.0586 23
    vertex 32.3 10.5586 23
    endloop
  endfacet
  facet normal 1 0 -0
    outer loop
    vertex 32.3 10.5586 10
    vertex 32.3 16.0586 -5.96046e-007
    vertex 32.3 16.0586 23
    endloop
  endfacet
  facet normal 0.707107 0 -0.707107
    outer loop
    vertex 32.3 1.55856 10
    vertex 33.7 9.15856 11.4
    vertex 33.7 2.95856 11.4
    endloop
  endfacet
  facet normal 1 0 0
    outer loop
    vertex 33.7 9.15856 11.4
    vertex 33.7 6.05856 12.6
    vertex 33.7 2.95856 11.4
    endloop
  endfacet
  facet normal 1 0 0
    outer loop
    vertex 33.7 9.15856 11.4
    vertex 33.7 6.57302 12.6504
    vertex 33.7 6.05856 12.6
    endloop
  endfacet
  facet normal 1 -0 0
    outer loop
    vertex 33.7 9.15856 23
    vertex 33.7 8.70848 15.2294
    vertex 33.7 9.15856 11.4
    endloop
  endfacet
  facet normal 0.707107 0.707107 0
    outer loop
    vertex 33.7 9.15856 11.4
    vertex 32.3 10.5586 23
    vertex 33.7 9.15856 23
    endloop
  endfacet
  facet normal 1 0 0
    outer loop
    vertex 33.7 9.15856 11.4
    vertex 33.7 8.70848 15.2294
    vertex 33.7 8.65406 14.7153
    endloop
  endfacet
  facet normal 1 0 0
    outer loop
    vertex 33.7 9.15856 11.4
    vertex 33.7 8.65406 14.7153
    vertex 33.7 8.50088 14.2216
    endloop
  endfacet
  facet normal 1 -0 0
    outer loop
    vertex 33.7 8.50088 14.2216
    vertex 33.7 8.25477 13.767
    vertex 33.7 9.15856 11.4
    endloop
  endfacet
  facet normal 1 0 0
    outer loop
    vertex 33.7 9.15856 11.4
    vertex 33.7 8.25477 13.767
    vertex 33.7 7.92509 13.3689
    endloop
  endfacet
  facet normal 1 0 0
    outer loop
    vertex 33.7 9.15856 11.4
    vertex 33.7 7.92509 13.3689
    vertex 33.7 7.52438 13.0423
    endloop
  endfacet
  facet normal 1 -0 0
    outer loop
    vertex 33.7 7.52438 13.0423
    vertex 33.7 7.0679 12.7998
    vertex 33.7 9.15856 11.4
    endloop
  endfacet
  facet normal 1 0 0
    outer loop
    vertex 33.7 9.15856 11.4
    vertex 33.7 7.0679 12.7998
    vertex 33.7 6.57302 12.6504
    endloop
  endfacet
  facet normal 0.707107 -0.707107 0
    outer loop
    vertex 32.3 1.55856 10
    vertex 33.7 2.95856 11.4
    vertex 32.3 1.55856 23
    endloop
  endfacet
  facet normal 1 -0 0
    outer loop
    vertex 32.3 1.55856 23
    vertex 32.3 -6.52961 21.0884
    vertex 32.3 1.55856 10
    endloop
  endfacet
  facet normal 1 0 0
    outer loop
    vertex 32.3 1.55856 10
    vertex 32.3 -6.52961 21.0884
    vertex 32.3 -9.94144 10
    endloop
  endfacet
  facet normal 1 -0 0
    outer loop
    vertex 32.3 1.55856 10
    vertex 32.3 -9.94144 10
    vertex 32.3 -23.9414 -5.96046e-007
    endloop
  endfacet
  facet normal 1 0 0
    outer loop
    vertex 32.3 -23.9414 -5.96046e-007
    vertex 32.3 16.0586 -5.96046e-007
    vertex 32.3 1.55856 10
    endloop
  endfacet
  facet normal 1 0 0
    outer loop
    vertex 33.7 2.95856 11.4
    vertex 33.7 6.05856 12.6
    vertex 33.7 5.5441 12.6504
    endloop
  endfacet
  facet normal 1 0 0
    outer loop
    vertex 33.7 2.95856 11.4
    vertex 33.7 5.5441 12.6504
    vertex 33.7 5.04921 12.7998
    endloop
  endfacet
  facet normal 1 0 0
    outer loop
    vertex 33.7 5.04921 12.7998
    vertex 33.7 4.59273 13.0423
    vertex 33.7 2.95856 11.4
    endloop
  endfacet
  facet normal 1 0 0
    outer loop
    vertex 33.7 2.95856 11.4
    vertex 33.7 3.40864 15.2294
    vertex 33.7 2.95856 23
    endloop
  endfacet
  facet normal 0.707107 -0.707107 0
    outer loop
    vertex 32.3 1.55856 23
    vertex 33.7 2.95856 11.4
    vertex 33.7 2.95856 23
    endloop
  endfacet
  facet normal 1 0 0
    outer loop
    vertex 33.7 2.95856 11.4
    vertex 33.7 3.46306 14.7153
    vertex 33.7 3.40864 15.2294
    endloop
  endfacet
  facet normal 1 0 0
    outer loop
    vertex 33.7 2.95856 11.4
    vertex 33.7 4.59273 13.0423
    vertex 33.7 4.19203 13.3689
    endloop
  endfacet
  facet normal 1 0 0
    outer loop
    vertex 33.7 2.95856 11.4
    vertex 33.7 4.19203 13.3689
    vertex 33.7 3.86235 13.767
    endloop
  endfacet
  facet normal 1 0 0
    outer loop
    vertex 33.7 3.86235 13.767
    vertex 33.7 3.61624 14.2216
    vertex 33.7 2.95856 11.4
    endloop
  endfacet
  facet normal 1 0 0
    outer loop
    vertex 33.7 2.95856 11.4
    vertex 33.7 3.61624 14.2216
    vertex 33.7 3.46306 14.7153
    endloop
  endfacet
  facet normal -0 0.0975321 0.995232
    outer loop
    vertex 33.7 6.05856 12.6
    vertex 26.3 5.5441 12.6504
    vertex 33.7 5.5441 12.6504
    endloop
  endfacet
  facet normal 0 -0.0975321 0.995232
    outer loop
    vertex 33.7 6.57302 12.6504
    vertex 26.3 6.05856 12.6
    vertex 33.7 6.05856 12.6
    endloop
  endfacet
  facet normal -0 0.0975321 0.995232
    outer loop
    vertex 33.7 6.05856 12.6
    vertex 26.3 6.05856 12.6
    vertex 26.3 5.5441 12.6504
    endloop
  endfacet
  facet normal -0 0.288887 0.957363
    outer loop
    vertex 33.7 5.5441 12.6504
    vertex 26.3 5.04921 12.7998
    vertex 33.7 5.04921 12.7998
    endloop
  endfacet
  facet normal -0 0.288887 0.957363
    outer loop
    vertex 33.7 5.5441 12.6504
    vertex 26.3 5.5441 12.6504
    vertex 26.3 5.04921 12.7998
    endloop
  endfacet
  facet normal -0 0.469251 0.883065
    outer loop
    vertex 33.7 5.04921 12.7998
    vertex 26.3 4.59273 13.0423
    vertex 33.7 4.59273 13.0423
    endloop
  endfacet
  facet normal -0 0.469251 0.883065
    outer loop
    vertex 33.7 5.04921 12.7998
    vertex 26.3 5.04921 12.7998
    vertex 26.3 4.59273 13.0423
    endloop
  endfacet
  facet normal 1 0 -0
    outer loop
    vertex 33.7 8.66207 15.7442
    vertex 33.7 8.70848 15.2294
    vertex 33.7 9.15856 23
    endloop
  endfacet
  facet normal 1 0 -0
    outer loop
    vertex 33.7 2.95856 23
    vertex 33.7 6.89216 18.101
    vertex 33.7 9.15856 23
    endloop
  endfacet
  facet normal 0 -0 1
    outer loop
    vertex 32.3 10.5586 23
    vertex 33.7 2.95856 23
    vertex 33.7 9.15856 23
    endloop
  endfacet
  facet normal 1 -0 0
    outer loop
    vertex 33.7 9.15856 23
    vertex 33.7 6.89216 18.101
    vertex 33.7 7.55856 17.4346
    endloop
  endfacet
  facet normal 1 -0 0
    outer loop
    vertex 33.7 9.15856 23
    vertex 33.7 7.55856 17.4346
    vertex 33.7 7.95413 17.1018
    endloop
  endfacet
  facet normal 1 0 -0
    outer loop
    vertex 33.7 7.95413 17.1018
    vertex 33.7 8.27757 16.6986
    vertex 33.7 9.15856 23
    endloop
  endfacet
  facet normal 1 -0 0
    outer loop
    vertex 33.7 9.15856 23
    vertex 33.7 8.27757 16.6986
    vertex 33.7 8.51658 16.2403
    endloop
  endfacet
  facet normal 1 -0 0
    outer loop
    vertex 33.7 9.15856 23
    vertex 33.7 8.51658 16.2403
    vertex 33.7 8.66207 15.7442
    endloop
  endfacet
  facet normal 0 -0.994443 0.105277
    outer loop
    vertex 33.7 8.70848 15.2294
    vertex 26.3 8.70848 15.2294
    vertex 33.7 8.65406 14.7153
    endloop
  endfacet
  facet normal 0 -0.995961 -0.0897857
    outer loop
    vertex 33.7 8.66207 15.7442
    vertex 26.3 8.70848 15.2294
    vertex 33.7 8.70848 15.2294
    endloop
  endfacet
  facet normal 0 -0.955086 0.296327
    outer loop
    vertex 33.7 8.65406 14.7153
    vertex 26.3 8.65406 14.7153
    vertex 33.7 8.50088 14.2216
    endloop
  endfacet
  facet normal 0 -0.994443 0.105277
    outer loop
    vertex 33.7 8.65406 14.7153
    vertex 26.3 8.70848 15.2294
    vertex 26.3 8.65406 14.7153
    endloop
  endfacet
  facet normal 0 -0.879387 0.476108
    outer loop
    vertex 33.7 8.50088 14.2216
    vertex 26.3 8.25477 13.767
    vertex 33.7 8.25477 13.767
    endloop
  endfacet
  facet normal 0 -0.955086 0.296327
    outer loop
    vertex 33.7 8.50088 14.2216
    vertex 26.3 8.65406 14.7153
    vertex 26.3 8.50088 14.2216
    endloop
  endfacet
  facet normal 0 -0.879387 0.476108
    outer loop
    vertex 33.7 8.50088 14.2216
    vertex 26.3 8.50088 14.2216
    vertex 26.3 8.25477 13.767
    endloop
  endfacet
  facet normal 1 0 -0
    outer loop
    vertex 33.7 2.95856 23
    vertex 33.7 5.22495 18.101
    vertex 33.7 6.89216 18.101
    endloop
  endfacet
  facet normal 1 0 -0
    outer loop
    vertex 33.7 2.95856 23
    vertex 33.7 3.40864 15.2294
    vertex 33.7 3.45505 15.7442
    endloop
  endfacet
  facet normal 1 0 -0
    outer loop
    vertex 33.7 2.95856 23
    vertex 33.7 3.45505 15.7442
    vertex 33.7 3.60053 16.2403
    endloop
  endfacet
  facet normal 1 0 0
    outer loop
    vertex 33.7 3.60053 16.2403
    vertex 33.7 3.83954 16.6986
    vertex 33.7 2.95856 23
    endloop
  endfacet
  facet normal 1 0 -0
    outer loop
    vertex 33.7 2.95856 23
    vertex 33.7 3.83954 16.6986
    vertex 33.7 4.16298 17.1018
    endloop
  endfacet
  facet normal 1 0 -0
    outer loop
    vertex 33.7 2.95856 23
    vertex 33.7 4.16298 17.1018
    vertex 33.7 4.55856 17.4346
    endloop
  endfacet
  facet normal 1 0 0
    outer loop
    vertex 33.7 4.55856 17.4346
    vertex 33.7 5.22495 18.101
    vertex 33.7 2.95856 23
    endloop
  endfacet
  facet normal 0 0 1
    outer loop
    vertex 32.3 10.5586 23
    vertex 32.3 1.55856 23
    vertex 33.7 2.95856 23
    endloop
  endfacet
  facet normal 0 -0.707106 -0.707108
    outer loop
    vertex 33.7 6.89216 18.101
    vertex 26.3 7.55856 17.4346
    vertex 33.7 7.55856 17.4346
    endloop
  endfacet
  facet normal 0 0 -1
    outer loop
    vertex 33.7 5.22495 18.101
    vertex 26.3 6.89216 18.101
    vertex 33.7 6.89216 18.101
    endloop
  endfacet
  facet normal 0 -0.707106 -0.707108
    outer loop
    vertex 26.3 6.89216 18.101
    vertex 26.3 7.55856 17.4346
    vertex 33.7 6.89216 18.101
    endloop
  endfacet
  facet normal 0 -0.643744 -0.765241
    outer loop
    vertex 33.7 7.55856 17.4346
    vertex 26.3 7.95413 17.1018
    vertex 33.7 7.95413 17.1018
    endloop
  endfacet
  facet normal 0 -0.643744 -0.765241
    outer loop
    vertex 26.3 7.55856 17.4346
    vertex 26.3 7.95413 17.1018
    vertex 33.7 7.55856 17.4346
    endloop
  endfacet
  facet normal 0 -0.780059 -0.625706
    outer loop
    vertex 33.7 7.95413 17.1018
    vertex 26.3 8.27757 16.6986
    vertex 33.7 8.27757 16.6986
    endloop
  endfacet
  facet normal 0 -0.780059 -0.625706
    outer loop
    vertex 33.7 7.95413 17.1018
    vertex 26.3 7.95413 17.1018
    vertex 26.3 8.27757 16.6986
    endloop
  endfacet
  facet normal 0 0.995961 -0.0897912
    outer loop
    vertex 33.7 3.40864 15.2294
    vertex 26.3 3.45505 15.7442
    vertex 33.7 3.45505 15.7442
    endloop
  endfacet
  facet normal -0 0.994443 0.105274
    outer loop
    vertex 33.7 3.46306 14.7153
    vertex 26.3 3.40864 15.2294
    vertex 33.7 3.40864 15.2294
    endloop
  endfacet
  facet normal 0 0.995961 -0.0897912
    outer loop
    vertex 33.7 3.40864 15.2294
    vertex 26.3 3.40864 15.2294
    vertex 26.3 3.45505 15.7442
    endloop
  endfacet
  facet normal 0 0.959582 -0.281429
    outer loop
    vertex 33.7 3.45505 15.7442
    vertex 26.3 3.60053 16.2403
    vertex 33.7 3.60053 16.2403
    endloop
  endfacet
  facet normal 0 0.959582 -0.281429
    outer loop
    vertex 33.7 3.45505 15.7442
    vertex 26.3 3.45505 15.7442
    vertex 26.3 3.60053 16.2403
    endloop
  endfacet
  facet normal 0 0.88669 -0.462365
    outer loop
    vertex 33.7 3.60053 16.2403
    vertex 26.3 3.83954 16.6986
    vertex 33.7 3.83954 16.6986
    endloop
  endfacet
  facet normal 0 0.88669 -0.462365
    outer loop
    vertex 33.7 3.60053 16.2403
    vertex 26.3 3.60053 16.2403
    vertex 26.3 3.83954 16.6986
    endloop
  endfacet
  facet normal 0 -0.886688 -0.462369
    outer loop
    vertex 33.7 8.27757 16.6986
    vertex 26.3 8.51658 16.2403
    vertex 33.7 8.51658 16.2403
    endloop
  endfacet
  facet normal 0 -0.886688 -0.462369
    outer loop
    vertex 33.7 8.27757 16.6986
    vertex 26.3 8.27757 16.6986
    vertex 26.3 8.51658 16.2403
    endloop
  endfacet
  facet normal 0 -0.95958 -0.281438
    outer loop
    vertex 33.7 8.51658 16.2403
    vertex 26.3 8.66207 15.7442
    vertex 33.7 8.66207 15.7442
    endloop
  endfacet
  facet normal 0 -0.95958 -0.281438
    outer loop
    vertex 33.7 8.51658 16.2403
    vertex 26.3 8.51658 16.2403
    vertex 26.3 8.66207 15.7442
    endloop
  endfacet
  facet normal 0 -0.995961 -0.0897857
    outer loop
    vertex 33.7 8.66207 15.7442
    vertex 26.3 8.66207 15.7442
    vertex 26.3 8.70848 15.2294
    endloop
  endfacet
  facet normal 0 -0.770226 0.637771
    outer loop
    vertex 33.7 8.25477 13.767
    vertex 26.3 7.92509 13.3689
    vertex 33.7 7.92509 13.3689
    endloop
  endfacet
  facet normal 0 -0.770226 0.637771
    outer loop
    vertex 33.7 8.25477 13.767
    vertex 26.3 8.25477 13.767
    vertex 26.3 7.92509 13.3689
    endloop
  endfacet
  facet normal 0 -0.63176 0.775164
    outer loop
    vertex 33.7 7.92509 13.3689
    vertex 26.3 7.52438 13.0423
    vertex 33.7 7.52438 13.0423
    endloop
  endfacet
  facet normal 0 -0.63176 0.775164
    outer loop
    vertex 33.7 7.92509 13.3689
    vertex 26.3 7.92509 13.3689
    vertex 26.3 7.52438 13.0423
    endloop
  endfacet
  facet normal 0 -0.469251 0.883065
    outer loop
    vertex 33.7 7.52438 13.0423
    vertex 26.3 7.0679 12.7998
    vertex 33.7 7.0679 12.7998
    endloop
  endfacet
  facet normal 0 -0.469251 0.883065
    outer loop
    vertex 33.7 7.52438 13.0423
    vertex 26.3 7.52438 13.0423
    vertex 26.3 7.0679 12.7998
    endloop
  endfacet
  facet normal 0 -0.288887 0.957363
    outer loop
    vertex 33.7 7.0679 12.7998
    vertex 26.3 6.57302 12.6504
    vertex 33.7 6.57302 12.6504
    endloop
  endfacet
  facet normal 0 -0.288887 0.957363
    outer loop
    vertex 33.7 7.0679 12.7998
    vertex 26.3 7.0679 12.7998
    vertex 26.3 6.57302 12.6504
    endloop
  endfacet
  facet normal 0 -0.0975321 0.995232
    outer loop
    vertex 33.7 6.57302 12.6504
    vertex 26.3 6.57302 12.6504
    vertex 26.3 6.05856 12.6
    endloop
  endfacet
  facet normal -0 0.63176 0.775164
    outer loop
    vertex 33.7 4.59273 13.0423
    vertex 26.3 4.19203 13.3689
    vertex 33.7 4.19203 13.3689
    endloop
  endfacet
  facet normal -0 0.63176 0.775164
    outer loop
    vertex 33.7 4.59273 13.0423
    vertex 26.3 4.59273 13.0423
    vertex 26.3 4.19203 13.3689
    endloop
  endfacet
  facet normal -0 0.770226 0.637771
    outer loop
    vertex 33.7 4.19203 13.3689
    vertex 26.3 3.86235 13.767
    vertex 33.7 3.86235 13.767
    endloop
  endfacet
  facet normal -0 0.770226 0.637771
    outer loop
    vertex 33.7 4.19203 13.3689
    vertex 26.3 4.19203 13.3689
    vertex 26.3 3.86235 13.767
    endloop
  endfacet
  facet normal -0 0.879387 0.476107
    outer loop
    vertex 33.7 3.86235 13.767
    vertex 26.3 3.61624 14.2216
    vertex 33.7 3.61624 14.2216
    endloop
  endfacet
  facet normal -0 0.879387 0.476107
    outer loop
    vertex 33.7 3.86235 13.767
    vertex 26.3 3.86235 13.767
    vertex 26.3 3.61624 14.2216
    endloop
  endfacet
  facet normal -0 0.955086 0.296327
    outer loop
    vertex 33.7 3.61624 14.2216
    vertex 26.3 3.46306 14.7153
    vertex 33.7 3.46306 14.7153
    endloop
  endfacet
  facet normal -0 0.955086 0.296327
    outer loop
    vertex 33.7 3.61624 14.2216
    vertex 26.3 3.61624 14.2216
    vertex 26.3 3.46306 14.7153
    endloop
  endfacet
  facet normal -0 0.994443 0.105274
    outer loop
    vertex 33.7 3.46306 14.7153
    vertex 26.3 3.46306 14.7153
    vertex 26.3 3.40864 15.2294
    endloop
  endfacet
  facet normal 0 0.780057 -0.625709
    outer loop
    vertex 33.7 3.83954 16.6986
    vertex 26.3 4.16298 17.1018
    vertex 33.7 4.16298 17.1018
    endloop
  endfacet
  facet normal 0 0.780057 -0.625709
    outer loop
    vertex 33.7 3.83954 16.6986
    vertex 26.3 3.83954 16.6986
    vertex 26.3 4.16298 17.1018
    endloop
  endfacet
  facet normal 0 0.643742 -0.765243
    outer loop
    vertex 33.7 4.16298 17.1018
    vertex 26.3 4.55856 17.4346
    vertex 33.7 4.55856 17.4346
    endloop
  endfacet
  facet normal 0 0.643742 -0.765243
    outer loop
    vertex 33.7 4.16298 17.1018
    vertex 26.3 4.16298 17.1018
    vertex 26.3 4.55856 17.4346
    endloop
  endfacet
  facet normal 0 0.707107 -0.707106
    outer loop
    vertex 33.7 4.55856 17.4346
    vertex 26.3 5.22495 18.101
    vertex 33.7 5.22495 18.101
    endloop
  endfacet
  facet normal 0 0.707107 -0.707106
    outer loop
    vertex 26.3 4.55856 17.4346
    vertex 26.3 5.22495 18.101
    vertex 33.7 4.55856 17.4346
    endloop
  endfacet
  facet normal 0 0 -1
    outer loop
    vertex 26.3 5.22495 18.101
    vertex 26.3 6.89216 18.101
    vertex 33.7 5.22495 18.101
    endloop
  endfacet
  facet normal 0 -0 1
    outer loop
    vertex 26.3 0.808558 23
    vertex 32.3 1.55856 23
    vertex 32.3 10.5586 23
    endloop
  endfacet
  facet normal 0 0 1
    outer loop
    vertex 26.3 0.808558 23
    vertex 32.3 10.5586 23
    vertex 26.3 11.3086 23
    endloop
  endfacet
  facet normal 0 -0 1
    outer loop
    vertex 26.3 11.3086 23
    vertex 32.3 10.5586 23
    vertex 32.3 16.0586 23
    endloop
  endfacet
  facet normal 0 -0.594103 0.804389
    outer loop
    vertex 32.3 -3.94144 23
    vertex 24.3 -3.94144 23
    vertex 32.3 -6.52961 21.0884
    endloop
  endfacet
  facet normal 0 0 1
    outer loop
    vertex 26.3 0.808558 23
    vertex 24.3 -3.94144 23
    vertex 32.3 -3.94144 23
    endloop
  endfacet
  facet normal 1 0 0
    outer loop
    vertex 32.3 -3.94144 23
    vertex 32.3 -6.52961 21.0884
    vertex 32.3 1.55856 23
    endloop
  endfacet
  facet normal 0 -0 1
    outer loop
    vertex 26.3 0.808558 23
    vertex 32.3 -3.94144 23
    vertex 32.3 1.55856 23
    endloop
  endfacet
  facet normal 0 -0.594103 0.804389
    outer loop
    vertex 32.3 -6.52961 21.0884
    vertex 24.3 -3.94144 23
    vertex 24.0059 -6.52961 21.0884
    endloop
  endfacet
  facet normal -0.988372 1.53246e-007 0.152057
    outer loop
    vertex 24.3 -3.94144 23
    vertex 23.1077 0.808558 15.25
    vertex 24.0059 -6.52961 21.0884
    endloop
  endfacet
  facet normal 0 0 1
    outer loop
    vertex 24.3 0.808558 23
    vertex 24.3 -3.94144 23
    vertex 26.3 0.808558 23
    endloop
  endfacet
  facet normal -0.988372 0 0.152057
    outer loop
    vertex 24.3 -3.94144 23
    vertex 24.3 0.808558 23
    vertex 23.1077 0.808558 15.25
    endloop
  endfacet
  facet normal 0 -0.955779 0.294086
    outer loop
    vertex 32.3 -6.52961 21.0884
    vertex 24.0059 -6.52961 21.0884
    vertex 32.3 -9.94144 10
    endloop
  endfacet
  facet normal 0 -0.955779 0.294086
    outer loop
    vertex 32.3 -9.94144 10
    vertex 24.0059 -6.52961 21.0884
    vertex 22.3 -9.94144 10
    endloop
  endfacet
  facet normal -0.988372 1.33928e-007 0.152057
    outer loop
    vertex 24.0059 -6.52961 21.0884
    vertex 23.1077 0.808558 15.25
    vertex 22.3 -9.90869 10
    endloop
  endfacet
  facet normal -0.988372 0 0.152057
    outer loop
    vertex 24.0059 -6.52961 21.0884
    vertex 22.3 -9.90869 10
    vertex 22.3 -9.94144 10
    endloop
  endfacet
  facet normal 0 1 -0
    outer loop
    vertex 26.3 0.808558 23
    vertex 26.3 0.808558 15.25
    vertex 24.3 0.808558 23
    endloop
  endfacet
  facet normal 0 1 0
    outer loop
    vertex 24.3 0.808558 23
    vertex 26.3 0.808558 15.25
    vertex 23.1077 0.808558 15.25
    endloop
  endfacet
  facet normal -1 0 0
    outer loop
    vertex 26.3 5.22495 18.101
    vertex 26.3 0.808558 23
    vertex 26.3 11.3086 23
    endloop
  endfacet
  facet normal -1 -0 0
    outer loop
    vertex 26.3 0.808558 23
    vertex 26.3 3.83954 16.6986
    vertex 26.3 0.808558 15.25
    endloop
  endfacet
  facet normal -1 0 0
    outer loop
    vertex 26.3 4.55856 17.4346
    vertex 26.3 0.808558 23
    vertex 26.3 5.22495 18.101
    endloop
  endfacet
  facet normal -1 0 0
    outer loop
    vertex 26.3 4.55856 17.4346
    vertex 26.3 4.16298 17.1018
    vertex 26.3 0.808558 23
    endloop
  endfacet
  facet normal -1 -0 0
    outer loop
    vertex 26.3 0.808558 23
    vertex 26.3 4.16298 17.1018
    vertex 26.3 3.83954 16.6986
    endloop
  endfacet
  facet normal 0 0 1
    outer loop
    vertex 26.3 11.3086 23
    vertex 32.3 16.0586 23
    vertex 24.3 16.0586 23
    endloop
  endfacet
  facet normal 0 0 1
    outer loop
    vertex 24.3 16.0586 23
    vertex 24.3 11.3086 23
    vertex 26.3 11.3086 23
    endloop
  endfacet
  facet normal 0 -1 0
    outer loop
    vertex 24.3 11.3086 23
    vertex 26.3 11.3086 15.25
    vertex 26.3 11.3086 23
    endloop
  endfacet
  facet normal -1 0 -0
    outer loop
    vertex 26.3 8.27757 16.6986
    vertex 26.3 11.3086 23
    vertex 26.3 11.3086 15.25
    endloop
  endfacet
  facet normal -1 0 0
    outer loop
    vertex 26.3 5.22495 18.101
    vertex 26.3 11.3086 23
    vertex 26.3 6.89216 18.101
    endloop
  endfacet
  facet normal -1 0 0
    outer loop
    vertex 26.3 6.89216 18.101
    vertex 26.3 11.3086 23
    vertex 26.3 7.55856 17.4346
    endloop
  endfacet
  facet normal -1 0 0
    outer loop
    vertex 26.3 7.55856 17.4346
    vertex 26.3 11.3086 23
    vertex 26.3 7.95413 17.1018
    endloop
  endfacet
  facet normal -1 0 0
    outer loop
    vertex 26.3 7.95413 17.1018
    vertex 26.3 11.3086 23
    vertex 26.3 8.27757 16.6986
    endloop
  endfacet
  facet normal -0 0.707106 0.707107
    outer loop
    vertex 30.3 18.0586 21
    vertex 24.3 16.0586 23
    vertex 32.3 16.0586 23
    endloop
  endfacet
  facet normal 0.707107 0.707106 -0
    outer loop
    vertex 32.3 16.0586 23
    vertex 32.3 16.0586 -5.96046e-007
    vertex 30.3 18.0586 21
    endloop
  endfacet
  facet normal -0.988372 0 0.152057
    outer loop
    vertex 24.3 11.3086 23
    vertex 24.3 16.0586 23
    vertex 23.1077 11.3086 15.25
    endloop
  endfacet
  facet normal 0 0.707106 0.707107
    outer loop
    vertex 23.9923 18.0586 21
    vertex 24.3 16.0586 23
    vertex 30.3 18.0586 21
    endloop
  endfacet
  facet normal -0.988372 -4.5244e-007 0.152057
    outer loop
    vertex 23.1077 11.3086 15.25
    vertex 24.3 16.0586 23
    vertex 23.9923 18.0586 21
    endloop
  endfacet
  facet normal 0 -1 0
    outer loop
    vertex 23.1077 11.3086 15.25
    vertex 26.3 11.3086 15.25
    vertex 24.3 11.3086 23
    endloop
  endfacet
  facet normal 1 0 0
    outer loop
    vertex 32.3 -23.9414 -5.96046e-007
    vertex 32.3 -9.94144 10
    vertex 32.3 -23.9414 10
    endloop
  endfacet
  facet normal 0 0 1
    outer loop
    vertex 32.3 -23.9414 10
    vertex 32.3 -9.94144 10
    vertex 22.3 -9.94144 10
    endloop
  endfacet
  facet normal 0 -1 0
    outer loop
    vertex 32.3 -23.9414 10
    vertex -26.9 -23.9414 10
    vertex 32.3 -23.9414 -5.96046e-007
    endloop
  endfacet
  facet normal 0 0 -1
    outer loop
    vertex 32.3 16.0586 -5.96046e-007
    vertex 32.3 -23.9414 -5.96046e-007
    vertex 22.3 -9.90869 -5.96046e-007
    endloop
  endfacet
  facet normal 0 -1 0
    outer loop
    vertex 32.3 -23.9414 -5.96046e-007
    vertex -26.9 -23.9414 10
    vertex -26.9 -23.9414 -5.96046e-007
    endloop
  endfacet
  facet normal 0 0 -1
    outer loop
    vertex 22.3 -9.90869 -5.96046e-007
    vertex 32.3 -23.9414 -5.96046e-007
    vertex 16.7963 -19.4414 -5.96046e-007
    endloop
  endfacet
  facet normal 0 0 -1
    outer loop
    vertex 16.7963 -19.4414 -5.96046e-007
    vertex 32.3 -23.9414 -5.96046e-007
    vertex 5.7888 -19.4414 -5.96046e-007
    endloop
  endfacet
  facet normal 0 0 -1
    outer loop
    vertex 5.7888 -19.4414 -5.96046e-007
    vertex 32.3 -23.9414 -5.96046e-007
    vertex -26.9 -23.9414 -5.96046e-007
    endloop
  endfacet
  facet normal 0 0 1
    outer loop
    vertex 16.7963 -19.4414 10
    vertex 32.3 -23.9414 10
    vertex 22.3 -9.94144 10
    endloop
  endfacet
  facet normal 0 0 1
    outer loop
    vertex -26.9 -23.9414 10
    vertex 32.3 -23.9414 10
    vertex 5.7888 -19.4414 10
    endloop
  endfacet
  facet normal 0 0 1
    outer loop
    vertex 5.7888 -19.4414 10
    vertex 32.3 -23.9414 10
    vertex 16.7963 -19.4414 10
    endloop
  endfacet
  facet normal 0.707107 0.707106 0
    outer loop
    vertex 30.3 18.0586 21
    vertex 32.3 16.0586 -5.96046e-007
    vertex 30.3 18.0586 -5.96046e-007
    endloop
  endfacet
  facet normal 0 -0 -1
    outer loop
    vertex 19.2878 13.5586 -5.96046e-007
    vertex 30.3 18.0586 -5.96046e-007
    vertex 32.3 16.0586 -5.96046e-007
    endloop
  endfacet
  facet normal 0 0 -1
    outer loop
    vertex 19.2878 13.5586 -5.96046e-007
    vertex 32.3 16.0586 -5.96046e-007
    vertex 22.3 8.34131 -5.96046e-007
    endloop
  endfacet
  facet normal 0 0 -1
    outer loop
    vertex 22.3 8.34131 -5.96046e-007
    vertex 32.3 16.0586 -5.96046e-007
    vertex 22.3 -9.90869 -5.96046e-007
    endloop
  endfacet
  facet normal 0 1 0
    outer loop
    vertex 22.3 18.0586 10
    vertex 30.3 18.0586 21
    vertex 30.3 18.0586 -5.96046e-007
    endloop
  endfacet
  facet normal 0 1 0
    outer loop
    vertex 23.9923 18.0586 21
    vertex 30.3 18.0586 21
    vertex 22.3 18.0586 10
    endloop
  endfacet
  facet normal 0 1 0
    outer loop
    vertex 22.3 18.0586 10
    vertex 30.3 18.0586 -5.96046e-007
    vertex 16.0942 18.0586 -5.96046e-007
    endloop
  endfacet
  facet normal -0 0 -1
    outer loop
    vertex 16.0942 18.0586 -5.96046e-007
    vertex 30.3 18.0586 -5.96046e-007
    vertex 19.2878 13.5586 -5.96046e-007
    endloop
  endfacet
  facet normal -0.988372 -2.42665e-007 0.152057
    outer loop
    vertex 23.1077 11.3086 15.25
    vertex 23.9923 18.0586 21
    vertex 22.3 18.0586 10
    endloop
  endfacet
  facet normal -0.988372 -2.85462e-007 0.152057
    outer loop
    vertex 22.9928 11.2551 14.5028
    vertex 23.1077 11.3086 15.25
    vertex 22.3 18.0586 10
    endloop
  endfacet
  facet normal 0 -0.997452 0.0713377
    outer loop
    vertex 22.9928 11.2551 14.5028
    vertex 26.3 11.2551 14.5028
    vertex 23.1077 11.3086 15.25
    endloop
  endfacet
  facet normal 0 -0.997452 0.0713377
    outer loop
    vertex 23.1077 11.3086 15.25
    vertex 26.3 11.2551 14.5028
    vertex 26.3 11.3086 15.25
    endloop
  endfacet
  facet normal -0.988372 0 0.152057
    outer loop
    vertex 22.3 8.34131 10
    vertex 22.4973 9.49658 11.2823
    vertex 22.3 18.0586 10
    endloop
  endfacet
  facet normal -0 0 1
    outer loop
    vertex 22.3 18.0586 10
    vertex 19.2878 13.5586 10
    vertex 22.3 8.34131 10
    endloop
  endfacet
  facet normal -0.988372 1.36449e-007 0.152058
    outer loop
    vertex 22.3 18.0586 10
    vertex 22.4973 9.49658 11.2823
    vertex 22.5788 10.0262 11.812
    endloop
  endfacet
  facet normal -0.988371 6.84629e-007 0.15206
    outer loop
    vertex 22.3 18.0586 10
    vertex 22.5788 10.0262 11.812
    vertex 22.671 10.4751 12.4116
    endloop
  endfacet
  facet normal -0.988372 -1.5158e-006 0.152053
    outer loop
    vertex 22.671 10.4751 12.4116
    vertex 22.7722 10.8341 13.0691
    vertex 22.3 18.0586 10
    endloop
  endfacet
  facet normal -0.988372 4.65487e-007 0.152058
    outer loop
    vertex 22.3 18.0586 10
    vertex 22.7722 10.8341 13.0691
    vertex 22.8801 11.0959 13.7709
    endloop
  endfacet
  facet normal -0.988371 7.67925e-007 0.152059
    outer loop
    vertex 22.3 18.0586 10
    vertex 22.8801 11.0959 13.7709
    vertex 22.9928 11.2551 14.5028
    endloop
  endfacet
  facet normal 0 -0 1
    outer loop
    vertex 16.0942 18.0586 10
    vertex 19.2878 13.5586 10
    vertex 22.3 18.0586 10
    endloop
  endfacet
  facet normal -0 1 0
    outer loop
    vertex 16.0942 18.0586 -5.96046e-007
    vertex 16.0942 18.0586 10
    vertex 22.3 18.0586 10
    endloop
  endfacet
  facet normal -0.988371 -7.65039e-006 0.152064
    outer loop
    vertex 22.3 8.34131 10
    vertex 22.4282 8.89692 10.8334
    vertex 22.4973 9.49658 11.2823
    endloop
  endfacet
  facet normal -0.988373 0 0.152049
    outer loop
    vertex 22.3 6.05856 10
    vertex 22.3082 6.80571 10.0534
    vertex 22.3 8.34131 10
    endloop
  endfacet
  facet normal 0 -0 1
    outer loop
    vertex 19.2878 3.12406 10
    vertex 22.3 6.05856 10
    vertex 22.3 8.34131 10
    endloop
  endfacet
  facet normal -0.988372 2.44233e-007 0.152056
    outer loop
    vertex 22.3 8.34131 10
    vertex 22.3082 6.80571 10.0534
    vertex 22.3327 7.53765 10.2127
    endloop
  endfacet
  facet normal -0.988372 -1.12097e-007 0.152055
    outer loop
    vertex 22.3 8.34131 10
    vertex 22.3327 7.53765 10.2127
    vertex 22.373 8.23948 10.4744
    endloop
  endfacet
  facet normal -0.988372 4.55154e-006 0.152056
    outer loop
    vertex 22.373 8.23948 10.4744
    vertex 22.4282 8.89692 10.8334
    vertex 22.3 8.34131 10
    endloop
  endfacet
  facet normal -0.866025 0.5 0
    outer loop
    vertex 19.2878 3.12406 10
    vertex 22.3 8.34131 10
    vertex 19.2878 3.12406 -5.96046e-007
    endloop
  endfacet
  facet normal -0.866025 -0.5 0
    outer loop
    vertex 22.3 8.34131 10
    vertex 19.2878 13.5586 10
    vertex 22.3 8.34131 -5.96046e-007
    endloop
  endfacet
  facet normal -0.866025 0.5 0
    outer loop
    vertex 19.2878 3.12406 -5.96046e-007
    vertex 22.3 8.34131 10
    vertex 22.3 8.34131 -5.96046e-007
    endloop
  endfacet
  facet normal 0 -0.707107 0.707107
    outer loop
    vertex 22.4973 9.49658 11.2823
    vertex 26.3 9.49658 11.2823
    vertex 22.5788 10.0262 11.812
    endloop
  endfacet
  facet normal 0 -0.599278 0.800541
    outer loop
    vertex 22.4282 8.89692 10.8334
    vertex 26.3 8.89692 10.8334
    vertex 22.4973 9.49658 11.2823
    endloop
  endfacet
  facet normal 0 -0.599278 0.800541
    outer loop
    vertex 22.4973 9.49658 11.2823
    vertex 26.3 8.89692 10.8334
    vertex 26.3 9.49658 11.2823
    endloop
  endfacet
  facet normal 0 -0.800541 0.599277
    outer loop
    vertex 22.5788 10.0262 11.812
    vertex 26.3 10.0262 11.812
    vertex 22.671 10.4751 12.4116
    endloop
  endfacet
  facet normal 0 -0.707107 0.707107
    outer loop
    vertex 22.5788 10.0262 11.812
    vertex 26.3 9.49658 11.2823
    vertex 26.3 10.0262 11.812
    endloop
  endfacet
  facet normal 0 -0.87768 0.479247
    outer loop
    vertex 22.671 10.4751 12.4116
    vertex 26.3 10.4751 12.4116
    vertex 22.7722 10.8341 13.0691
    endloop
  endfacet
  facet normal 0 -0.800541 0.599277
    outer loop
    vertex 22.671 10.4751 12.4116
    vertex 26.3 10.0262 11.812
    vertex 26.3 10.4751 12.4116
    endloop
  endfacet
  facet normal 0 -0.0713388 0.997452
    outer loop
    vertex 22.3 6.05856 10
    vertex 26.3 6.05856 10
    vertex 22.3082 6.80571 10.0534
    endloop
  endfacet
  facet normal -0.988373 0 0.152049
    outer loop
    vertex 22.3 -9.90869 10
    vertex 22.3082 5.31141 10.0534
    vertex 22.3 6.05856 10
    endloop
  endfacet
  facet normal 0 -0 1
    outer loop
    vertex 19.2878 3.12406 10
    vertex 22.3 -9.90869 10
    vertex 22.3 6.05856 10
    endloop
  endfacet
  facet normal 0 0.0713391 0.997452
    outer loop
    vertex 22.3082 5.31141 10.0534
    vertex 26.3 6.05856 10
    vertex 22.3 6.05856 10
    endloop
  endfacet
  facet normal 0 -0.212565 0.977147
    outer loop
    vertex 22.3082 6.80571 10.0534
    vertex 26.3 6.80571 10.0534
    vertex 22.3327 7.53765 10.2127
    endloop
  endfacet
  facet normal 0 -0.0713388 0.997452
    outer loop
    vertex 22.3082 6.80571 10.0534
    vertex 26.3 6.05856 10
    vertex 26.3 6.80571 10.0534
    endloop
  endfacet
  facet normal 0 -0.349467 0.936949
    outer loop
    vertex 22.3327 7.53765 10.2127
    vertex 26.3 7.53765 10.2127
    vertex 22.373 8.23948 10.4744
    endloop
  endfacet
  facet normal 0 -0.212565 0.977147
    outer loop
    vertex 22.3327 7.53765 10.2127
    vertex 26.3 6.80571 10.0534
    vertex 26.3 7.53765 10.2127
    endloop
  endfacet
  facet normal 0 -0.479247 0.87768
    outer loop
    vertex 22.373 8.23948 10.4744
    vertex 26.3 8.23948 10.4744
    vertex 22.4282 8.89692 10.8334
    endloop
  endfacet
  facet normal 0 -0.349467 0.936949
    outer loop
    vertex 22.373 8.23948 10.4744
    vertex 26.3 7.53765 10.2127
    vertex 26.3 8.23948 10.4744
    endloop
  endfacet
  facet normal 0 -0.479247 0.87768
    outer loop
    vertex 22.4282 8.89692 10.8334
    vertex 26.3 8.23948 10.4744
    vertex 26.3 8.89692 10.8334
    endloop
  endfacet
  facet normal 0 -0.936949 0.349467
    outer loop
    vertex 22.7722 10.8341 13.0691
    vertex 26.3 10.8341 13.0691
    vertex 22.8801 11.0959 13.7709
    endloop
  endfacet
  facet normal 0 -0.87768 0.479247
    outer loop
    vertex 22.7722 10.8341 13.0691
    vertex 26.3 10.4751 12.4116
    vertex 26.3 10.8341 13.0691
    endloop
  endfacet
  facet normal 0 -0.977147 0.212566
    outer loop
    vertex 22.8801 11.0959 13.7709
    vertex 26.3 11.0959 13.7709
    vertex 22.9928 11.2551 14.5028
    endloop
  endfacet
  facet normal 0 -0.936949 0.349467
    outer loop
    vertex 22.8801 11.0959 13.7709
    vertex 26.3 10.8341 13.0691
    vertex 26.3 11.0959 13.7709
    endloop
  endfacet
  facet normal 0 -0.977147 0.212566
    outer loop
    vertex 22.9928 11.2551 14.5028
    vertex 26.3 11.0959 13.7709
    vertex 26.3 11.2551 14.5028
    endloop
  endfacet
  facet normal -0.988372 1.83368e-007 0.152057
    outer loop
    vertex 23.1077 0.808558 15.25
    vertex 22.9928 0.861995 14.5028
    vertex 22.3 -9.90869 10
    endloop
  endfacet
  facet normal 0 0.997452 0.0713383
    outer loop
    vertex 23.1077 0.808558 15.25
    vertex 26.3 0.861995 14.5028
    vertex 22.9928 0.861995 14.5028
    endloop
  endfacet
  facet normal 0 0.997452 0.0713383
    outer loop
    vertex 26.3 0.808558 15.25
    vertex 26.3 0.861995 14.5028
    vertex 23.1077 0.808558 15.25
    endloop
  endfacet
  facet normal 0 -0 1
    outer loop
    vertex 16.7963 -19.4414 10
    vertex 22.3 -9.94144 10
    vertex 22.3 -9.90869 10
    endloop
  endfacet
  facet normal -0.988371 -5.0865e-007 0.152059
    outer loop
    vertex 22.3 -9.90869 10
    vertex 22.9928 0.861995 14.5028
    vertex 22.8801 1.02122 13.7709
    endloop
  endfacet
  facet normal -0.988372 -3.15792e-007 0.152058
    outer loop
    vertex 22.3 -9.90869 10
    vertex 22.8801 1.02122 13.7709
    vertex 22.7722 1.28299 13.0691
    endloop
  endfacet
  facet normal -0.988372 1.04845e-006 0.152053
    outer loop
    vertex 22.7722 1.28299 13.0691
    vertex 22.671 1.64198 12.4116
    vertex 22.3 -9.90869 10
    endloop
  endfacet
  facet normal -0.988371 -4.81268e-007 0.15206
    outer loop
    vertex 22.3 -9.90869 10
    vertex 22.671 1.64198 12.4116
    vertex 22.5788 2.09087 11.812
    endloop
  endfacet
  facet normal -0.988372 -9.72554e-008 0.152058
    outer loop
    vertex 22.3 -9.90869 10
    vertex 22.5788 2.09087 11.812
    vertex 22.4973 2.62054 11.2823
    endloop
  endfacet
  facet normal -0.988372 2.99578e-007 0.152054
    outer loop
    vertex 22.4973 2.62054 11.2823
    vertex 22.4282 3.22019 10.8334
    vertex 22.3 -9.90869 10
    endloop
  endfacet
  facet normal -0.988371 -3.01471e-007 0.152063
    outer loop
    vertex 22.3 -9.90869 10
    vertex 22.4282 3.22019 10.8334
    vertex 22.373 3.87763 10.4744
    endloop
  endfacet
  facet normal -0.988372 1.02269e-008 0.152055
    outer loop
    vertex 22.3 -9.90869 10
    vertex 22.373 3.87763 10.4744
    vertex 22.3327 4.57946 10.2127
    endloop
  endfacet
  facet normal -0.988372 -2.81292e-008 0.152057
    outer loop
    vertex 22.3327 4.57946 10.2127
    vertex 22.3082 5.31141 10.0534
    vertex 22.3 -9.90869 10
    endloop
  endfacet
  facet normal 0 0 1
    outer loop
    vertex 16.7963 -0.375943 10
    vertex 22.3 -9.90869 10
    vertex 19.2878 3.12406 10
    endloop
  endfacet
  facet normal -0.866025 -0.5 0
    outer loop
    vertex 22.3 -9.90869 10
    vertex 16.7963 -0.375943 10
    vertex 22.3 -9.90869 -5.96046e-007
    endloop
  endfacet
  facet normal -0.866025 0.5 0
    outer loop
    vertex 16.7963 -19.4414 10
    vertex 22.3 -9.90869 10
    vertex 16.7963 -19.4414 -5.96046e-007
    endloop
  endfacet
  facet normal -0.866025 0.5 0
    outer loop
    vertex 16.7963 -19.4414 -5.96046e-007
    vertex 22.3 -9.90869 10
    vertex 22.3 -9.90869 -5.96046e-007
    endloop
  endfacet
  facet normal 0 0.977147 0.212563
    outer loop
    vertex 22.9928 0.861995 14.5028
    vertex 26.3 1.02122 13.7709
    vertex 22.8801 1.02122 13.7709
    endloop
  endfacet
  facet normal 0 0.977147 0.212563
    outer loop
    vertex 22.9928 0.861995 14.5028
    vertex 26.3 0.861995 14.5028
    vertex 26.3 1.02122 13.7709
    endloop
  endfacet
  facet normal 0 0.936949 0.349466
    outer loop
    vertex 22.8801 1.02122 13.7709
    vertex 26.3 1.28299 13.0691
    vertex 22.7722 1.28299 13.0691
    endloop
  endfacet
  facet normal 0 0.936949 0.349466
    outer loop
    vertex 22.8801 1.02122 13.7709
    vertex 26.3 1.02122 13.7709
    vertex 26.3 1.28299 13.0691
    endloop
  endfacet
  facet normal 0 0.877679 0.479248
    outer loop
    vertex 22.7722 1.28299 13.0691
    vertex 26.3 1.64198 12.4116
    vertex 22.671 1.64198 12.4116
    endloop
  endfacet
  facet normal 0 0.877679 0.479248
    outer loop
    vertex 22.7722 1.28299 13.0691
    vertex 26.3 1.28299 13.0691
    vertex 26.3 1.64198 12.4116
    endloop
  endfacet
  facet normal 0 0.800541 0.599277
    outer loop
    vertex 22.671 1.64198 12.4116
    vertex 26.3 2.09087 11.812
    vertex 22.5788 2.09087 11.812
    endloop
  endfacet
  facet normal 0 0.800541 0.599277
    outer loop
    vertex 22.671 1.64198 12.4116
    vertex 26.3 1.64198 12.4116
    vertex 26.3 2.09087 11.812
    endloop
  endfacet
  facet normal 0 0.707106 0.707108
    outer loop
    vertex 22.5788 2.09087 11.812
    vertex 26.3 2.62054 11.2823
    vertex 22.4973 2.62054 11.2823
    endloop
  endfacet
  facet normal 0 0.707106 0.707108
    outer loop
    vertex 22.5788 2.09087 11.812
    vertex 26.3 2.09087 11.812
    vertex 26.3 2.62054 11.2823
    endloop
  endfacet
  facet normal 0 0.599279 0.80054
    outer loop
    vertex 22.4973 2.62054 11.2823
    vertex 26.3 3.22019 10.8334
    vertex 22.4282 3.22019 10.8334
    endloop
  endfacet
  facet normal 0 0.599279 0.80054
    outer loop
    vertex 22.4973 2.62054 11.2823
    vertex 26.3 2.62054 11.2823
    vertex 26.3 3.22019 10.8334
    endloop
  endfacet
  facet normal 0 0.479248 0.877679
    outer loop
    vertex 22.4282 3.22019 10.8334
    vertex 26.3 3.87763 10.4744
    vertex 22.373 3.87763 10.4744
    endloop
  endfacet
  facet normal 0 0.479248 0.877679
    outer loop
    vertex 22.4282 3.22019 10.8334
    vertex 26.3 3.22019 10.8334
    vertex 26.3 3.87763 10.4744
    endloop
  endfacet
  facet normal 0 0.349464 0.93695
    outer loop
    vertex 22.373 3.87763 10.4744
    vertex 26.3 4.57946 10.2127
    vertex 22.3327 4.57946 10.2127
    endloop
  endfacet
  facet normal 0 0.349464 0.93695
    outer loop
    vertex 22.373 3.87763 10.4744
    vertex 26.3 3.87763 10.4744
    vertex 26.3 4.57946 10.2127
    endloop
  endfacet
  facet normal 0 0.212565 0.977147
    outer loop
    vertex 22.3327 4.57946 10.2127
    vertex 26.3 5.31141 10.0534
    vertex 22.3082 5.31141 10.0534
    endloop
  endfacet
  facet normal 0 0.212565 0.977147
    outer loop
    vertex 22.3327 4.57946 10.2127
    vertex 26.3 4.57946 10.2127
    vertex 26.3 5.31141 10.0534
    endloop
  endfacet
  facet normal 0 0.0713391 0.997452
    outer loop
    vertex 22.3082 5.31141 10.0534
    vertex 26.3 5.31141 10.0534
    vertex 26.3 6.05856 10
    endloop
  endfacet
  facet normal -0 0 1
    outer loop
    vertex 19.2878 3.12406 10
    vertex 13.2635 3.12406 10
    vertex 16.7963 -0.375943 10
    endloop
  endfacet
  facet normal 0 0 1
    outer loop
    vertex 16.7963 -0.375943 10
    vertex 13.2635 3.12406 10
    vertex 5.7888 -0.375943 10
    endloop
  endfacet
  facet normal 0 -1 0
    outer loop
    vertex 16.7963 -0.375943 10
    vertex 5.7888 -0.375943 10
    vertex 16.7963 -0.375943 -5.96046e-007
    endloop
  endfacet
  facet normal -0.866025 -0.5 -0
    outer loop
    vertex 22.3 -9.90869 -5.96046e-007
    vertex 16.7963 -0.375943 10
    vertex 16.7963 -0.375943 -5.96046e-007
    endloop
  endfacet
  facet normal 0 1 0
    outer loop
    vertex 13.2635 3.12406 10
    vertex 19.2878 3.12406 10
    vertex 13.2635 3.12406 -5.96046e-007
    endloop
  endfacet
  facet normal 0 1 0
    outer loop
    vertex 13.2635 3.12406 -5.96046e-007
    vertex 19.2878 3.12406 10
    vertex 19.2878 3.12406 -5.96046e-007
    endloop
  endfacet
  facet normal 0 0 1
    outer loop
    vertex 5.7888 -0.375943 10
    vertex 13.2635 3.12406 10
    vertex 10.2513 8.34131 10
    endloop
  endfacet
  facet normal 0.866025 0.5 0
    outer loop
    vertex 10.2513 8.34131 10
    vertex 13.2635 3.12406 10
    vertex 10.2513 8.34131 -5.96046e-007
    endloop
  endfacet
  facet normal 0.866025 0.5 0
    outer loop
    vertex 10.2513 8.34131 -5.96046e-007
    vertex 13.2635 3.12406 10
    vertex 13.2635 3.12406 -5.96046e-007
    endloop
  endfacet
  facet normal 0 0 1
    outer loop
    vertex 5.7888 -0.375943 10
    vertex 10.2513 8.34131 10
    vertex -9.76583 -9.47074 10
    endloop
  endfacet
  facet normal 0 0 1
    outer loop
    vertex -4.00924 -9.47074 10
    vertex 5.7888 -0.375943 10
    vertex -9.76583 -9.47074 10
    endloop
  endfacet
  facet normal 0 -0 1
    outer loop
    vertex -4.00924 -9.47074 10
    vertex 0.285063 -9.90869 10
    vertex 5.7888 -0.375943 10
    endloop
  endfacet
  facet normal 0.866025 -0.5 0
    outer loop
    vertex 5.7888 -0.375943 10
    vertex 0.285063 -9.90869 10
    vertex 5.7888 -0.375943 -5.96046e-007
    endloop
  endfacet
  facet normal 0 -1 0
    outer loop
    vertex 16.7963 -0.375943 -5.96046e-007
    vertex 5.7888 -0.375943 10
    vertex 5.7888 -0.375943 -5.96046e-007
    endloop
  endfacet
  facet normal 0 0 1
    outer loop
    vertex -9.76583 -9.47074 10
    vertex 10.2513 8.34131 10
    vertex 9.18603 14.4309 10
    endloop
  endfacet
  facet normal 0 0 1
    outer loop
    vertex 10.2513 8.34131 10
    vertex 13.2635 13.5586 10
    vertex 9.18603 14.4309 10
    endloop
  endfacet
  facet normal 0.866025 -0.5 0
    outer loop
    vertex 13.2635 13.5586 10
    vertex 10.2513 8.34131 10
    vertex 13.2635 13.5586 -5.96046e-007
    endloop
  endfacet
  facet normal 0.866025 -0.5 0
    outer loop
    vertex 13.2635 13.5586 -5.96046e-007
    vertex 10.2513 8.34131 10
    vertex 10.2513 8.34131 -5.96046e-007
    endloop
  endfacet
  facet normal 0 0 1
    outer loop
    vertex -9.76583 -9.47074 10
    vertex 9.18603 14.4309 10
    vertex -23.3409 -18.096 10
    endloop
  endfacet
  facet normal 0 -0 1
    outer loop
    vertex -23.3409 -18.096 10
    vertex -12.6441 -14.4561 10
    vertex -9.76583 -9.47074 10
    endloop
  endfacet
  facet normal 0 -1 0
    outer loop
    vertex -4.00924 -9.47074 10
    vertex -9.76583 -9.47074 10
    vertex -4.00924 -9.47074 -5.96046e-007
    endloop
  endfacet
  facet normal 0.866026 -0.5 0
    outer loop
    vertex -9.76583 -9.47074 10
    vertex -12.6441 -14.4561 10
    vertex -9.76583 -9.47074 -5.96046e-007
    endloop
  endfacet
  facet normal 0 -1 0
    outer loop
    vertex -4.00924 -9.47074 -5.96046e-007
    vertex -9.76583 -9.47074 10
    vertex -9.76583 -9.47074 -5.96046e-007
    endloop
  endfacet
  facet normal -0.5 0.5 0.707107
    outer loop
    vertex 9.18603 14.4309 10
    vertex 7.77182 14.4309 9
    vertex -23.3409 -18.096 10
    endloop
  endfacet
  facet normal 0 -0 1
    outer loop
    vertex 9.18603 14.4309 10
    vertex 13.2635 13.5586 10
    vertex 16.0942 18.0586 10
    endloop
  endfacet
  facet normal 0 0 1
    outer loop
    vertex 9.18603 14.4309 10
    vertex 16.0942 18.0586 10
    vertex 5.6505 17.9664 10
    endloop
  endfacet
  facet normal -0.5 -0.5 0.707107
    outer loop
    vertex 9.18603 14.4309 10
    vertex 5.6505 17.9664 10
    vertex 7.77182 14.4309 9
    endloop
  endfacet
  facet normal 0 0 1
    outer loop
    vertex -26.8764 -14.5605 10
    vertex -30.4119 -18.096 10
    vertex -23.3409 -18.096 10
    endloop
  endfacet
  facet normal 0.5 0.5 0.707107
    outer loop
    vertex -23.3409 -16.6818 9
    vertex -26.8764 -14.5605 10
    vertex -23.3409 -18.096 10
    endloop
  endfacet
  facet normal -0 0 1
    outer loop
    vertex -23.3409 -18.096 10
    vertex -30.4119 -18.096 10
    vertex -26.9 -23.9414 10
    endloop
  endfacet
  facet normal 0 0 1
    outer loop
    vertex -23.3409 -18.096 10
    vertex -26.9 -23.9414 10
    vertex -9.76583 -19.4414 10
    endloop
  endfacet
  facet normal 0 0 1
    outer loop
    vertex -9.76583 -19.4414 10
    vertex -12.6441 -14.4561 10
    vertex -23.3409 -18.096 10
    endloop
  endfacet
  facet normal -0.5 0.5 0.707107
    outer loop
    vertex -23.3409 -18.096 10
    vertex 7.77182 14.4309 9
    vertex -23.3409 -16.6818 9
    endloop
  endfacet
  facet normal 0 0 1
    outer loop
    vertex 13.2635 13.5586 10
    vertex 19.2878 13.5586 10
    vertex 16.0942 18.0586 10
    endloop
  endfacet
  facet normal 0 -1 0
    outer loop
    vertex 19.2878 13.5586 10
    vertex 13.2635 13.5586 10
    vertex 19.2878 13.5586 -5.96046e-007
    endloop
  endfacet
  facet normal 0 -1 0
    outer loop
    vertex 19.2878 13.5586 -5.96046e-007
    vertex 13.2635 13.5586 10
    vertex 13.2635 13.5586 -5.96046e-007
    endloop
  endfacet
  facet normal 0 0 1
    outer loop
    vertex 5.6505 17.9664 10
    vertex 16.0942 18.0586 10
    vertex 9.18603 21.5019 10
    endloop
  endfacet
  facet normal 0 0 1
    outer loop
    vertex 9.18603 21.5019 10
    vertex 16.0942 18.0586 10
    vertex 10.2113 23.9415 10
    endloop
  endfacet
  facet normal 0.707107 0.707107 0
    outer loop
    vertex 10.2113 23.9415 10
    vertex 16.0942 18.0586 10
    vertex 10.2113 23.9415 -5.96046e-007
    endloop
  endfacet
  facet normal 0.707107 0.707107 0
    outer loop
    vertex 10.2113 23.9415 -5.96046e-007
    vertex 16.0942 18.0586 10
    vertex 16.0942 18.0586 -5.96046e-007
    endloop
  endfacet
  facet normal -0.707106 0.707107 0
    outer loop
    vertex 5.6505 17.9664 -5.96046e-007
    vertex 5.6505 17.9664 10
    vertex 9.18603 21.5019 10
    endloop
  endfacet
  facet normal -0.5 -0.5 0.707107
    outer loop
    vertex 7.77182 14.4309 9
    vertex 5.6505 17.9664 10
    vertex 4.94339 17.2593 9
    endloop
  endfacet
  facet normal -0.707107 0.707106 0
    outer loop
    vertex 5.6505 17.9664 -5.96046e-007
    vertex 4.94339 17.2593 9
    vertex 5.6505 17.9664 10
    endloop
  endfacet
  facet normal 0 0 1
    outer loop
    vertex 9.18603 21.5019 10
    vertex 10.2113 23.9415 10
    vertex 7.94859 22.7394 10
    endloop
  endfacet
  facet normal -0.707108 -0.707106 0
    outer loop
    vertex 9.18603 21.5019 10
    vertex 7.94859 22.7394 10
    vertex 9.18603 21.5019 -5.96046e-007
    endloop
  endfacet
  facet normal -0.707106 0.707107 0
    outer loop
    vertex 9.18603 21.5019 10
    vertex 9.18603 21.5019 -5.96046e-007
    vertex 5.6505 17.9664 -5.96046e-007
    endloop
  endfacet
  facet normal 0 0 1
    outer loop
    vertex 7.94859 22.7394 10
    vertex 10.2113 23.9415 10
    vertex 7.38291 23.9415 10
    endloop
  endfacet
  facet normal 0 1 0
    outer loop
    vertex 7.38291 23.9415 10
    vertex 10.2113 23.9415 10
    vertex 7.38291 23.9415 -5.96046e-007
    endloop
  endfacet
  facet normal 0 1 0
    outer loop
    vertex 7.38291 23.9415 -5.96046e-007
    vertex 10.2113 23.9415 10
    vertex 10.2113 23.9415 -5.96046e-007
    endloop
  endfacet
  facet normal 0 0 1
    outer loop
    vertex 7.94859 22.7394 10
    vertex 7.38291 23.9415 10
    vertex 5.82727 22.3858 10
    endloop
  endfacet
  facet normal 0 -0 1
    outer loop
    vertex 5.82727 22.3858 10
    vertex 6.71116 21.5019 10
    vertex 7.94859 22.7394 10
    endloop
  endfacet
  facet normal 0.707107 -0.707106 0
    outer loop
    vertex 7.94859 22.7394 10
    vertex 6.71116 21.5019 10
    vertex 7.94859 22.7394 -5.96046e-007
    endloop
  endfacet
  facet normal -0.707108 -0.707106 -0
    outer loop
    vertex 9.18603 21.5019 -5.96046e-007
    vertex 7.94859 22.7394 10
    vertex 7.94859 22.7394 -5.96046e-007
    endloop
  endfacet
  facet normal -0.707106 0.707107 0
    outer loop
    vertex 5.82727 22.3858 10
    vertex 7.38291 23.9415 10
    vertex 5.82727 22.3858 -5.96046e-007
    endloop
  endfacet
  facet normal -0.707106 0.707107 0
    outer loop
    vertex 5.82727 22.3858 -5.96046e-007
    vertex 7.38291 23.9415 10
    vertex 7.38291 23.9415 -5.96046e-007
    endloop
  endfacet
  facet normal -0.707108 -0.707106 0
    outer loop
    vertex 6.71116 21.5019 10
    vertex 5.82727 22.3858 10
    vertex 6.71116 21.5019 -5.96046e-007
    endloop
  endfacet
  facet normal -0.707108 -0.707106 -0
    outer loop
    vertex 6.71116 21.5019 -5.96046e-007
    vertex 5.82727 22.3858 10
    vertex 5.82727 22.3858 -5.96046e-007
    endloop
  endfacet
  facet normal -0.866025 -0.5 -0
    outer loop
    vertex 22.3 8.34131 -5.96046e-007
    vertex 19.2878 13.5586 10
    vertex 19.2878 13.5586 -5.96046e-007
    endloop
  endfacet
  facet normal 0.707107 -0.707106 0
    outer loop
    vertex 7.94859 22.7394 -5.96046e-007
    vertex 6.71116 21.5019 10
    vertex 6.71116 21.5019 -5.96046e-007
    endloop
  endfacet
  facet normal -0.707107 0.707107 0
    outer loop
    vertex -30.4119 -18.096 10
    vertex -26.8764 -14.5605 10
    vertex -26.8764 -14.5605 -5.96046e-007
    endloop
  endfacet
  facet normal 0.5 0.5 0.707107
    outer loop
    vertex -26.1693 -13.8534 9
    vertex -26.8764 -14.5605 10
    vertex -23.3409 -16.6818 9
    endloop
  endfacet
  facet normal -0.707108 0.707106 0
    outer loop
    vertex -26.8764 -14.5605 -5.96046e-007
    vertex -26.8764 -14.5605 10
    vertex -26.1693 -13.8534 9
    endloop
  endfacet
  facet normal 0 0 1
    outer loop
    vertex -26.9 -23.9414 10
    vertex -30.4119 -18.096 10
    vertex -33.7 -17.1414 10
    endloop
  endfacet
  facet normal 0 0 1
    outer loop
    vertex -33.7 -17.1414 10
    vertex -30.4119 -18.096 10
    vertex -31.6494 -16.8586 10
    endloop
  endfacet
  facet normal 0.707108 0.707106 0
    outer loop
    vertex -31.6494 -16.8586 10
    vertex -30.4119 -18.096 10
    vertex -31.6494 -16.8586 -5.96046e-007
    endloop
  endfacet
  facet normal -0.707107 0.707107 0
    outer loop
    vertex -26.8764 -14.5605 -5.96046e-007
    vertex -30.4119 -18.096 -5.96046e-007
    vertex -30.4119 -18.096 10
    endloop
  endfacet
  facet normal 0.707108 0.707106 0
    outer loop
    vertex -31.6494 -16.8586 -5.96046e-007
    vertex -30.4119 -18.096 10
    vertex -30.4119 -18.096 -5.96046e-007
    endloop
  endfacet
  facet normal 0 0 1
    outer loop
    vertex -9.76583 -19.4414 10
    vertex -26.9 -23.9414 10
    vertex -4.00924 -19.4414 10
    endloop
  endfacet
  facet normal 0 0 1
    outer loop
    vertex -4.00924 -19.4414 10
    vertex -26.9 -23.9414 10
    vertex 5.7888 -19.4414 10
    endloop
  endfacet
  facet normal -0.707107 -0.707107 0
    outer loop
    vertex -26.9 -23.9414 10
    vertex -33.7 -17.1414 10
    vertex -26.9 -23.9414 -5.96046e-007
    endloop
  endfacet
  facet normal 0 1 0
    outer loop
    vertex -9.76583 -19.4414 10
    vertex -4.00924 -19.4414 10
    vertex -9.76583 -19.4414 -5.96046e-007
    endloop
  endfacet
  facet normal 0.866026 0.5 0
    outer loop
    vertex -12.6441 -14.4561 10
    vertex -9.76583 -19.4414 10
    vertex -12.6441 -14.4561 -5.96046e-007
    endloop
  endfacet
  facet normal 0.866026 0.5 0
    outer loop
    vertex -12.6441 -14.4561 -5.96046e-007
    vertex -9.76583 -19.4414 10
    vertex -9.76583 -19.4414 -5.96046e-007
    endloop
  endfacet
  facet normal 0 0 1
    outer loop
    vertex -4.00924 -19.4414 10
    vertex 5.7888 -19.4414 10
    vertex -1.13095 -14.4561 10
    endloop
  endfacet
  facet normal -0.866026 0.5 0
    outer loop
    vertex -4.00924 -19.4414 10
    vertex -1.13095 -14.4561 10
    vertex -4.00924 -19.4414 -5.96046e-007
    endloop
  endfacet
  facet normal 0 1 0
    outer loop
    vertex -9.76583 -19.4414 -5.96046e-007
    vertex -4.00924 -19.4414 10
    vertex -4.00924 -19.4414 -5.96046e-007
    endloop
  endfacet
  facet normal 0 0 1
    outer loop
    vertex -1.13095 -14.4561 10
    vertex 5.7888 -19.4414 10
    vertex 0.285063 -9.90869 10
    endloop
  endfacet
  facet normal 0.866025 0.5 0
    outer loop
    vertex 0.285063 -9.90869 10
    vertex 5.7888 -19.4414 10
    vertex 0.285063 -9.90869 -5.96046e-007
    endloop
  endfacet
  facet normal 0 1 0
    outer loop
    vertex 5.7888 -19.4414 10
    vertex 16.7963 -19.4414 10
    vertex 5.7888 -19.4414 -5.96046e-007
    endloop
  endfacet
  facet normal 0.866025 0.5 0
    outer loop
    vertex 0.285063 -9.90869 -5.96046e-007
    vertex 5.7888 -19.4414 10
    vertex 5.7888 -19.4414 -5.96046e-007
    endloop
  endfacet
  facet normal 0 0 1
    outer loop
    vertex -1.13095 -14.4561 10
    vertex 0.285063 -9.90869 10
    vertex -4.00924 -9.47074 10
    endloop
  endfacet
  facet normal -0.866026 -0.5 0
    outer loop
    vertex -1.13095 -14.4561 10
    vertex -4.00924 -9.47074 10
    vertex -1.13095 -14.4561 -5.96046e-007
    endloop
  endfacet
  facet normal -0.866026 0.5 0
    outer loop
    vertex -4.00924 -19.4414 -5.96046e-007
    vertex -1.13095 -14.4561 10
    vertex -1.13095 -14.4561 -5.96046e-007
    endloop
  endfacet
  facet normal 0.866025 -0.5 0
    outer loop
    vertex 5.7888 -0.375943 -5.96046e-007
    vertex 0.285063 -9.90869 10
    vertex 0.285063 -9.90869 -5.96046e-007
    endloop
  endfacet
  facet normal -0.866026 -0.5 -0
    outer loop
    vertex -1.13095 -14.4561 -5.96046e-007
    vertex -4.00924 -9.47074 10
    vertex -4.00924 -9.47074 -5.96046e-007
    endloop
  endfacet
  facet normal 0 -0 1
    outer loop
    vertex -33.7 -17.1414 10
    vertex -31.6494 -16.8586 10
    vertex -31.2958 -14.7373 10
    endloop
  endfacet
  facet normal -0.707107 0.707106 0
    outer loop
    vertex -33.7 -17.1414 10
    vertex -31.2958 -14.7373 10
    vertex -33.7 -17.1414 -5.96046e-007
    endloop
  endfacet
  facet normal -0.707107 -0.707107 -0
    outer loop
    vertex -26.9 -23.9414 -5.96046e-007
    vertex -33.7 -17.1414 10
    vertex -33.7 -17.1414 -5.96046e-007
    endloop
  endfacet
  facet normal 0 0 1
    outer loop
    vertex -31.2958 -14.7373 10
    vertex -31.6494 -16.8586 10
    vertex -30.4119 -15.6212 10
    endloop
  endfacet
  facet normal 0.707107 -0.707107 0
    outer loop
    vertex -30.4119 -15.6212 10
    vertex -31.6494 -16.8586 10
    vertex -30.4119 -15.6212 -5.96046e-007
    endloop
  endfacet
  facet normal 0.707107 -0.707107 0
    outer loop
    vertex -30.4119 -15.6212 -5.96046e-007
    vertex -31.6494 -16.8586 10
    vertex -31.6494 -16.8586 -5.96046e-007
    endloop
  endfacet
  facet normal 0.707107 0.707107 0
    outer loop
    vertex -31.2958 -14.7373 10
    vertex -30.4119 -15.6212 10
    vertex -31.2958 -14.7373 -5.96046e-007
    endloop
  endfacet
  facet normal -0.707107 0.707106 0
    outer loop
    vertex -33.7 -17.1414 -5.96046e-007
    vertex -31.2958 -14.7373 10
    vertex -31.2958 -14.7373 -5.96046e-007
    endloop
  endfacet
  facet normal 0.707107 0.707107 0
    outer loop
    vertex -31.2958 -14.7373 -5.96046e-007
    vertex -30.4119 -15.6212 10
    vertex -30.4119 -15.6212 -5.96046e-007
    endloop
  endfacet
  facet normal 0 1 0
    outer loop
    vertex 5.7888 -19.4414 -5.96046e-007
    vertex 16.7963 -19.4414 10
    vertex 16.7963 -19.4414 -5.96046e-007
    endloop
  endfacet
  facet normal 0.866026 -0.5 0
    outer loop
    vertex -9.76583 -9.47074 -5.96046e-007
    vertex -12.6441 -14.4561 10
    vertex -12.6441 -14.4561 -5.96046e-007
    endloop
  endfacet
  facet normal 0.707106 0.707107 0
    outer loop
    vertex -26.1693 -13.8534 9
    vertex -23.3409 -16.6818 9
    vertex -26.1693 -13.8534 0.999999
    endloop
  endfacet
  facet normal -0.707108 0.707106 0
    outer loop
    vertex -26.8764 -14.5605 -5.96046e-007
    vertex -26.1693 -13.8534 9
    vertex -26.1693 -13.8534 0.999999
    endloop
  endfacet
  facet normal -0.707107 0.707107 0
    outer loop
    vertex -23.3409 -16.6818 9
    vertex 7.77182 14.4309 9
    vertex -23.3409 -16.6818 0.999999
    endloop
  endfacet
  facet normal 0.707106 0.707107 0
    outer loop
    vertex -26.1693 -13.8534 0.999999
    vertex -23.3409 -16.6818 9
    vertex -23.3409 -16.6818 0.999999
    endloop
  endfacet
  facet normal -0.707107 -0.707107 0
    outer loop
    vertex 7.77182 14.4309 9
    vertex 4.94339 17.2593 9
    vertex 7.77182 14.4309 0.999999
    endloop
  endfacet
  facet normal -0.707107 0.707107 0
    outer loop
    vertex -23.3409 -16.6818 0.999999
    vertex 7.77182 14.4309 9
    vertex 7.77182 14.4309 0.999999
    endloop
  endfacet
  facet normal -0.707107 -0.707107 -0
    outer loop
    vertex 7.77182 14.4309 0.999999
    vertex 4.94339 17.2593 9
    vertex 4.94339 17.2593 0.999999
    endloop
  endfacet
  facet normal -0.707107 0.707106 0
    outer loop
    vertex 4.94339 17.2593 0.999999
    vertex 4.94339 17.2593 9
    vertex 5.6505 17.9664 -5.96046e-007
    endloop
  endfacet
  facet normal 0.5 0.5 -0.707107
    outer loop
    vertex -23.3409 -16.6818 0.999999
    vertex -26.8764 -14.5605 -5.96046e-007
    vertex -26.1693 -13.8534 0.999999
    endloop
  endfacet
  facet normal -0.5 0.5 -0.707107
    outer loop
    vertex 7.77182 14.4309 0.999999
    vertex -23.3409 -18.096 -5.96046e-007
    vertex -23.3409 -16.6818 0.999999
    endloop
  endfacet
  facet normal 0.499999 0.5 -0.707107
    outer loop
    vertex -23.3409 -18.096 -5.96046e-007
    vertex -26.8764 -14.5605 -5.96046e-007
    vertex -23.3409 -16.6818 0.999999
    endloop
  endfacet
  facet normal -0.5 -0.5 -0.707107
    outer loop
    vertex 4.94339 17.2593 0.999999
    vertex 5.6505 17.9664 -5.96046e-007
    vertex 7.77182 14.4309 0.999999
    endloop
  endfacet
  facet normal -0.5 -0.5 -0.707107
    outer loop
    vertex 7.77182 14.4309 0.999999
    vertex 5.6505 17.9664 -5.96046e-007
    vertex 9.18603 14.4309 -5.96046e-007
    endloop
  endfacet
  facet normal -0.5 0.5 -0.707107
    outer loop
    vertex 9.18603 14.4309 -5.96046e-007
    vertex -23.3409 -18.096 -5.96046e-007
    vertex 7.77182 14.4309 0.999999
    endloop
  endfacet
  facet normal 0 -0 -1
    outer loop
    vertex 5.6505 17.9664 -5.96046e-007
    vertex 9.18603 21.5019 -5.96046e-007
    vertex 16.0942 18.0586 -5.96046e-007
    endloop
  endfacet
  facet normal 0 0 -1
    outer loop
    vertex 5.6505 17.9664 -5.96046e-007
    vertex 16.0942 18.0586 -5.96046e-007
    vertex 9.18603 14.4309 -5.96046e-007
    endloop
  endfacet
  facet normal 0 0 -1
    outer loop
    vertex 16.0942 18.0586 -5.96046e-007
    vertex 9.18603 21.5019 -5.96046e-007
    vertex 10.2113 23.9415 -5.96046e-007
    endloop
  endfacet
  facet normal 0 0 -1
    outer loop
    vertex 10.2113 23.9415 -5.96046e-007
    vertex 9.18603 21.5019 -5.96046e-007
    vertex 7.94859 22.7394 -5.96046e-007
    endloop
  endfacet
  facet normal -0 0 -1
    outer loop
    vertex 9.18603 14.4309 -5.96046e-007
    vertex -9.76583 -9.47074 -5.96046e-007
    vertex -23.3409 -18.096 -5.96046e-007
    endloop
  endfacet
  facet normal 0 0 -1
    outer loop
    vertex 9.18603 14.4309 -5.96046e-007
    vertex 16.0942 18.0586 -5.96046e-007
    vertex 13.2635 13.5586 -5.96046e-007
    endloop
  endfacet
  facet normal 0 0 -1
    outer loop
    vertex 10.2513 8.34131 -5.96046e-007
    vertex -9.76583 -9.47074 -5.96046e-007
    vertex 9.18603 14.4309 -5.96046e-007
    endloop
  endfacet
  facet normal -0 0 -1
    outer loop
    vertex 9.18603 14.4309 -5.96046e-007
    vertex 13.2635 13.5586 -5.96046e-007
    vertex 10.2513 8.34131 -5.96046e-007
    endloop
  endfacet
  facet normal 0 -0 -1
    outer loop
    vertex -30.4119 -18.096 -5.96046e-007
    vertex -26.8764 -14.5605 -5.96046e-007
    vertex -23.3409 -18.096 -5.96046e-007
    endloop
  endfacet
  facet normal 0 0 -1
    outer loop
    vertex -23.3409 -18.096 -5.96046e-007
    vertex -9.76583 -9.47074 -5.96046e-007
    vertex -12.6441 -14.4561 -5.96046e-007
    endloop
  endfacet
  facet normal 0 -0 -1
    outer loop
    vertex -23.3409 -18.096 -5.96046e-007
    vertex -12.6441 -14.4561 -5.96046e-007
    vertex -9.76583 -19.4414 -5.96046e-007
    endloop
  endfacet
  facet normal 0 0 -1
    outer loop
    vertex -9.76583 -19.4414 -5.96046e-007
    vertex -26.9 -23.9414 -5.96046e-007
    vertex -23.3409 -18.096 -5.96046e-007
    endloop
  endfacet
  facet normal 0 0 -1
    outer loop
    vertex -23.3409 -18.096 -5.96046e-007
    vertex -26.9 -23.9414 -5.96046e-007
    vertex -30.4119 -18.096 -5.96046e-007
    endloop
  endfacet
  facet normal 0 -0 -1
    outer loop
    vertex 13.2635 13.5586 -5.96046e-007
    vertex 16.0942 18.0586 -5.96046e-007
    vertex 19.2878 13.5586 -5.96046e-007
    endloop
  endfacet
  facet normal 0 0 -1
    outer loop
    vertex 22.3 8.34131 -5.96046e-007
    vertex 22.3 -9.90869 -5.96046e-007
    vertex 19.2878 3.12406 -5.96046e-007
    endloop
  endfacet
  facet normal 0 0 -1
    outer loop
    vertex 19.2878 3.12406 -5.96046e-007
    vertex 22.3 -9.90869 -5.96046e-007
    vertex 16.7963 -0.375943 -5.96046e-007
    endloop
  endfacet
  facet normal 0 0 -1
    outer loop
    vertex 19.2878 3.12406 -5.96046e-007
    vertex 16.7963 -0.375943 -5.96046e-007
    vertex 13.2635 3.12406 -5.96046e-007
    endloop
  endfacet
  facet normal 0 0 -1
    outer loop
    vertex 13.2635 3.12406 -5.96046e-007
    vertex 16.7963 -0.375943 -5.96046e-007
    vertex 5.7888 -0.375943 -5.96046e-007
    endloop
  endfacet
  facet normal 0 0 -1
    outer loop
    vertex 13.2635 3.12406 -5.96046e-007
    vertex 5.7888 -0.375943 -5.96046e-007
    vertex 10.2513 8.34131 -5.96046e-007
    endloop
  endfacet
  facet normal -0 0 -1
    outer loop
    vertex 10.2513 8.34131 -5.96046e-007
    vertex 5.7888 -0.375943 -5.96046e-007
    vertex -9.76583 -9.47074 -5.96046e-007
    endloop
  endfacet
  facet normal 0 0 -1
    outer loop
    vertex 5.7888 -0.375943 -5.96046e-007
    vertex -4.00924 -9.47074 -5.96046e-007
    vertex -9.76583 -9.47074 -5.96046e-007
    endloop
  endfacet
  facet normal 0 0 -1
    outer loop
    vertex 0.285063 -9.90869 -5.96046e-007
    vertex -4.00924 -9.47074 -5.96046e-007
    vertex 5.7888 -0.375943 -5.96046e-007
    endloop
  endfacet
  facet normal 0 0 -1
    outer loop
    vertex -4.00924 -19.4414 -5.96046e-007
    vertex -26.9 -23.9414 -5.96046e-007
    vertex -9.76583 -19.4414 -5.96046e-007
    endloop
  endfacet
  facet normal 0 0 -1
    outer loop
    vertex 5.7888 -19.4414 -5.96046e-007
    vertex -26.9 -23.9414 -5.96046e-007
    vertex -4.00924 -19.4414 -5.96046e-007
    endloop
  endfacet
  facet normal 0 -0 -1
    outer loop
    vertex -4.00924 -19.4414 -5.96046e-007
    vertex -1.13095 -14.4561 -5.96046e-007
    vertex 5.7888 -19.4414 -5.96046e-007
    endloop
  endfacet
  facet normal 0 0 -1
    outer loop
    vertex 5.7888 -19.4414 -5.96046e-007
    vertex -1.13095 -14.4561 -5.96046e-007
    vertex 0.285063 -9.90869 -5.96046e-007
    endloop
  endfacet
  facet normal 0 0 -1
    outer loop
    vertex -30.4119 -18.096 -5.96046e-007
    vertex -26.9 -23.9414 -5.96046e-007
    vertex -33.7 -17.1414 -5.96046e-007
    endloop
  endfacet
  facet normal 0 0 -1
    outer loop
    vertex -30.4119 -18.096 -5.96046e-007
    vertex -33.7 -17.1414 -5.96046e-007
    vertex -31.6494 -16.8586 -5.96046e-007
    endloop
  endfacet
  facet normal 0 0 -1
    outer loop
    vertex -31.6494 -16.8586 -5.96046e-007
    vertex -33.7 -17.1414 -5.96046e-007
    vertex -31.2958 -14.7373 -5.96046e-007
    endloop
  endfacet
  facet normal 0 -0 -1
    outer loop
    vertex -31.6494 -16.8586 -5.96046e-007
    vertex -31.2958 -14.7373 -5.96046e-007
    vertex -30.4119 -15.6212 -5.96046e-007
    endloop
  endfacet
  facet normal 0 0 -1
    outer loop
    vertex 10.2113 23.9415 -5.96046e-007
    vertex 7.94859 22.7394 -5.96046e-007
    vertex 7.38291 23.9415 -5.96046e-007
    endloop
  endfacet
  facet normal -0 0 -1
    outer loop
    vertex 7.38291 23.9415 -5.96046e-007
    vertex 7.94859 22.7394 -5.96046e-007
    vertex 5.82727 22.3858 -5.96046e-007
    endloop
  endfacet
  facet normal 0 0 -1
    outer loop
    vertex 5.82727 22.3858 -5.96046e-007
    vertex 7.94859 22.7394 -5.96046e-007
    vertex 6.71116 21.5019 -5.96046e-007
    endloop
  endfacet
  facet normal 0 0 -1
    outer loop
    vertex 0.285063 -9.90869 -5.96046e-007
    vertex -1.13095 -14.4561 -5.96046e-007
    vertex -4.00924 -9.47074 -5.96046e-007
    endloop
  endfacet
  facet normal -1 -0 0
    outer loop
    vertex 26.3 0.808558 15.25
    vertex 26.3 3.40864 15.2294
    vertex 26.3 0.861995 14.5028
    endloop
  endfacet
  facet normal -1 0 0
    outer loop
    vertex 26.3 0.808558 15.25
    vertex 26.3 3.83954 16.6986
    vertex 26.3 3.60053 16.2403
    endloop
  endfacet
  facet normal -1 0 0
    outer loop
    vertex 26.3 0.808558 15.25
    vertex 26.3 3.60053 16.2403
    vertex 26.3 3.45505 15.7442
    endloop
  endfacet
  facet normal -1 0 0
    outer loop
    vertex 26.3 3.45505 15.7442
    vertex 26.3 3.40864 15.2294
    vertex 26.3 0.808558 15.25
    endloop
  endfacet
  facet normal -1 0 0
    outer loop
    vertex 26.3 0.861995 14.5028
    vertex 26.3 3.46306 14.7153
    vertex 26.3 1.02122 13.7709
    endloop
  endfacet
  facet normal -1 0 -0
    outer loop
    vertex 26.3 0.861995 14.5028
    vertex 26.3 3.40864 15.2294
    vertex 26.3 3.46306 14.7153
    endloop
  endfacet
  facet normal -1 0 0
    outer loop
    vertex 26.3 1.02122 13.7709
    vertex 26.3 3.46306 14.7153
    vertex 26.3 1.28299 13.0691
    endloop
  endfacet
  facet normal -1 0 0
    outer loop
    vertex 26.3 1.28299 13.0691
    vertex 26.3 3.61624 14.2216
    vertex 26.3 1.64198 12.4116
    endloop
  endfacet
  facet normal -1 0 -0
    outer loop
    vertex 26.3 1.28299 13.0691
    vertex 26.3 3.46306 14.7153
    vertex 26.3 3.61624 14.2216
    endloop
  endfacet
  facet normal -1 0 0
    outer loop
    vertex 26.3 1.64198 12.4116
    vertex 26.3 3.86235 13.767
    vertex 26.3 2.09087 11.812
    endloop
  endfacet
  facet normal -1 0 -0
    outer loop
    vertex 26.3 1.64198 12.4116
    vertex 26.3 3.61624 14.2216
    vertex 26.3 3.86235 13.767
    endloop
  endfacet
  facet normal -1 0 0
    outer loop
    vertex 26.3 2.09087 11.812
    vertex 26.3 3.86235 13.767
    vertex 26.3 2.62054 11.2823
    endloop
  endfacet
  facet normal -1 0 0
    outer loop
    vertex 26.3 2.62054 11.2823
    vertex 26.3 4.19203 13.3689
    vertex 26.3 3.22019 10.8334
    endloop
  endfacet
  facet normal -1 0 -0
    outer loop
    vertex 26.3 2.62054 11.2823
    vertex 26.3 3.86235 13.767
    vertex 26.3 4.19203 13.3689
    endloop
  endfacet
  facet normal -1 0 0
    outer loop
    vertex 26.3 3.22019 10.8334
    vertex 26.3 4.59273 13.0423
    vertex 26.3 3.87763 10.4744
    endloop
  endfacet
  facet normal -1 0 -0
    outer loop
    vertex 26.3 3.22019 10.8334
    vertex 26.3 4.19203 13.3689
    vertex 26.3 4.59273 13.0423
    endloop
  endfacet
  facet normal -1 0 0
    outer loop
    vertex 26.3 3.87763 10.4744
    vertex 26.3 5.04921 12.7998
    vertex 26.3 4.57946 10.2127
    endloop
  endfacet
  facet normal -1 0 -0
    outer loop
    vertex 26.3 3.87763 10.4744
    vertex 26.3 4.59273 13.0423
    vertex 26.3 5.04921 12.7998
    endloop
  endfacet
  facet normal -1 0 0
    outer loop
    vertex 26.3 4.57946 10.2127
    vertex 26.3 5.5441 12.6504
    vertex 26.3 5.31141 10.0534
    endloop
  endfacet
  facet normal -1 0 -0
    outer loop
    vertex 26.3 4.57946 10.2127
    vertex 26.3 5.04921 12.7998
    vertex 26.3 5.5441 12.6504
    endloop
  endfacet
  facet normal -1 0 -0
    outer loop
    vertex 26.3 5.31141 10.0534
    vertex 26.3 6.05856 12.6
    vertex 26.3 6.05856 10
    endloop
  endfacet
  facet normal -1 0 -0
    outer loop
    vertex 26.3 5.31141 10.0534
    vertex 26.3 5.5441 12.6504
    vertex 26.3 6.05856 12.6
    endloop
  endfacet
  facet normal -1 0 0
    outer loop
    vertex 26.3 6.05856 10
    vertex 26.3 6.05856 12.6
    vertex 26.3 6.80571 10.0534
    endloop
  endfacet
  facet normal -1 0 0
    outer loop
    vertex 26.3 6.80571 10.0534
    vertex 26.3 6.57302 12.6504
    vertex 26.3 7.53765 10.2127
    endloop
  endfacet
  facet normal -1 0 0
    outer loop
    vertex 26.3 6.80571 10.0534
    vertex 26.3 6.05856 12.6
    vertex 26.3 6.57302 12.6504
    endloop
  endfacet
  facet normal -1 0 0
    outer loop
    vertex 26.3 7.53765 10.2127
    vertex 26.3 7.0679 12.7998
    vertex 26.3 8.23948 10.4744
    endloop
  endfacet
  facet normal -1 0 0
    outer loop
    vertex 26.3 7.53765 10.2127
    vertex 26.3 6.57302 12.6504
    vertex 26.3 7.0679 12.7998
    endloop
  endfacet
  facet normal -1 0 0
    outer loop
    vertex 26.3 8.23948 10.4744
    vertex 26.3 7.52438 13.0423
    vertex 26.3 8.89692 10.8334
    endloop
  endfacet
  facet normal -1 0 0
    outer loop
    vertex 26.3 8.23948 10.4744
    vertex 26.3 7.0679 12.7998
    vertex 26.3 7.52438 13.0423
    endloop
  endfacet
  facet normal -1 0 0
    outer loop
    vertex 26.3 8.89692 10.8334
    vertex 26.3 7.92509 13.3689
    vertex 26.3 9.49658 11.2823
    endloop
  endfacet
  facet normal -1 0 0
    outer loop
    vertex 26.3 8.89692 10.8334
    vertex 26.3 7.52438 13.0423
    vertex 26.3 7.92509 13.3689
    endloop
  endfacet
  facet normal -1 0 0
    outer loop
    vertex 26.3 9.49658 11.2823
    vertex 26.3 8.25477 13.767
    vertex 26.3 10.0262 11.812
    endloop
  endfacet
  facet normal -1 0 0
    outer loop
    vertex 26.3 9.49658 11.2823
    vertex 26.3 7.92509 13.3689
    vertex 26.3 8.25477 13.767
    endloop
  endfacet
  facet normal -1 0 0
    outer loop
    vertex 26.3 10.0262 11.812
    vertex 26.3 8.25477 13.767
    vertex 26.3 10.4751 12.4116
    endloop
  endfacet
  facet normal -1 0 0
    outer loop
    vertex 26.3 10.4751 12.4116
    vertex 26.3 8.50088 14.2216
    vertex 26.3 10.8341 13.0691
    endloop
  endfacet
  facet normal -1 0 0
    outer loop
    vertex 26.3 10.4751 12.4116
    vertex 26.3 8.25477 13.767
    vertex 26.3 8.50088 14.2216
    endloop
  endfacet
  facet normal -1 -0 0
    outer loop
    vertex 26.3 8.65406 14.7153
    vertex 26.3 11.0959 13.7709
    vertex 26.3 10.8341 13.0691
    endloop
  endfacet
  facet normal -1 0 0
    outer loop
    vertex 26.3 10.8341 13.0691
    vertex 26.3 8.50088 14.2216
    vertex 26.3 8.65406 14.7153
    endloop
  endfacet
  facet normal -1 -0 0
    outer loop
    vertex 26.3 8.65406 14.7153
    vertex 26.3 11.2551 14.5028
    vertex 26.3 11.0959 13.7709
    endloop
  endfacet
  facet normal -1 0 0
    outer loop
    vertex 26.3 8.70848 15.2294
    vertex 26.3 11.3086 15.25
    vertex 26.3 11.2551 14.5028
    endloop
  endfacet
  facet normal -1 0 0
    outer loop
    vertex 26.3 8.70848 15.2294
    vertex 26.3 11.2551 14.5028
    vertex 26.3 8.65406 14.7153
    endloop
  endfacet
  facet normal -1 0 0
    outer loop
    vertex 26.3 8.27757 16.6986
    vertex 26.3 11.3086 15.25
    vertex 26.3 8.51658 16.2403
    endloop
  endfacet
  facet normal -1 0 0
    outer loop
    vertex 26.3 8.51658 16.2403
    vertex 26.3 11.3086 15.25
    vertex 26.3 8.66207 15.7442
    endloop
  endfacet
  facet normal -1 -0 0
    outer loop
    vertex 26.3 8.66207 15.7442
    vertex 26.3 11.3086 15.25
    vertex 26.3 8.70848 15.2294
    endloop
  endfacet
  facet normal 0 0 1
    outer loop
    vertex 29.825 11.1836 15.1495
    vertex 29.825 14.1836 15.1495
    vertex 28.775 11.1836 15.1495
    endloop
  endfacet
  facet normal -1 0 -0
    outer loop
    vertex 29.825 11.1836 15.1495
    vertex 29.825 14.1836 15.3505
    vertex 29.825 14.1836 15.1495
    endloop
  endfacet
  facet normal 0 1 0
    outer loop
    vertex 28.775 11.1836 15.3505
    vertex 29.825 11.1836 15.1495
    vertex 28.775 11.1836 15.1495
    endloop
  endfacet
  facet normal 0 1 -0
    outer loop
    vertex 29.825 11.1836 15.3505
    vertex 29.825 11.1836 15.1495
    vertex 28.775 11.1836 15.3505
    endloop
  endfacet
  facet normal -1 -0 0
    outer loop
    vertex 29.825 11.1836 15.3505
    vertex 29.825 14.1836 15.3505
    vertex 29.825 11.1836 15.1495
    endloop
  endfacet
  facet normal 0 0 1
    outer loop
    vertex 28.775 11.1836 15.1495
    vertex 29.825 14.1836 15.1495
    vertex 28.775 14.1836 15.1495
    endloop
  endfacet
  facet normal 0 -1 -0
    outer loop
    vertex 29.825 14.1836 15.1495
    vertex 29.825 14.1836 15.3505
    vertex 28.775 14.1836 15.1495
    endloop
  endfacet
  facet normal 1 0 0
    outer loop
    vertex 28.775 11.1836 15.1495
    vertex 28.775 14.1836 15.1495
    vertex 28.775 11.1836 15.3505
    endloop
  endfacet
  facet normal 1 0 -0
    outer loop
    vertex 28.775 11.1836 15.3505
    vertex 28.775 14.1836 15.1495
    vertex 28.775 14.1836 15.3505
    endloop
  endfacet
  facet normal -0 -1 0
    outer loop
    vertex 28.775 14.1836 15.1495
    vertex 29.825 14.1836 15.3505
    vertex 28.775 14.1836 15.3505
    endloop
  endfacet
  facet normal 0 0 -1
    outer loop
    vertex 28.775 14.1836 15.3505
    vertex 29.825 11.1836 15.3505
    vertex 28.775 11.1836 15.3505
    endloop
  endfacet
  facet normal 0 0 -1
    outer loop
    vertex 29.825 14.1836 15.3505
    vertex 29.825 11.1836 15.3505
    vertex 28.775 14.1836 15.3505
    endloop
  endfacet
  facet normal 0 1 -0
    outer loop
    vertex 29.825 -2.06644 15.3505
    vertex 29.825 -2.06644 15.1495
    vertex 28.775 -2.06644 15.3505
    endloop
  endfacet
  facet normal -1 0 0
    outer loop
    vertex 29.825 0.933557 15.3505
    vertex 29.825 -2.06644 15.1495
    vertex 29.825 -2.06644 15.3505
    endloop
  endfacet
  facet normal 0 0 -1
    outer loop
    vertex 28.775 0.933557 15.3505
    vertex 29.825 -2.06644 15.3505
    vertex 28.775 -2.06644 15.3505
    endloop
  endfacet
  facet normal 0 0 -1
    outer loop
    vertex 29.825 0.933557 15.3505
    vertex 29.825 -2.06644 15.3505
    vertex 28.775 0.933557 15.3505
    endloop
  endfacet
  facet normal 0 1 0
    outer loop
    vertex 28.775 -2.06644 15.3505
    vertex 29.825 -2.06644 15.1495
    vertex 28.775 -2.06644 15.1495
    endloop
  endfacet
  facet normal 0 0 1
    outer loop
    vertex 29.825 -2.06644 15.1495
    vertex 29.825 0.933557 15.1495
    vertex 28.775 -2.06644 15.1495
    endloop
  endfacet
  facet normal -1 0 0
    outer loop
    vertex 29.825 0.933557 15.1495
    vertex 29.825 -2.06644 15.1495
    vertex 29.825 0.933557 15.3505
    endloop
  endfacet
  facet normal 1 0 0
    outer loop
    vertex 28.775 0.933557 15.1495
    vertex 28.775 -2.06644 15.3505
    vertex 28.775 -2.06644 15.1495
    endloop
  endfacet
  facet normal 1 -0 0
    outer loop
    vertex 28.775 0.933557 15.3505
    vertex 28.775 -2.06644 15.3505
    vertex 28.775 0.933557 15.1495
    endloop
  endfacet
  facet normal 0 0 1
    outer loop
    vertex 28.775 -2.06644 15.1495
    vertex 29.825 0.933557 15.1495
    vertex 28.775 0.933557 15.1495
    endloop
  endfacet
  facet normal -0 -1 0
    outer loop
    vertex 28.775 0.933557 15.1495
    vertex 29.825 0.933557 15.3505
    vertex 28.775 0.933557 15.3505
    endloop
  endfacet
  facet normal 0 -1 -0
    outer loop
    vertex 29.825 0.933557 15.1495
    vertex 29.825 0.933557 15.3505
    vertex 28.775 0.933557 15.1495
    endloop
  endfacet
endsolid lcd_support_b.stl
