solid lcd_support_b.stl
  facet normal 0 -1 0
    outer loop
    vertex 33.25 2.50855 15.355
    vertex 27.2 2.50855 15.355
    vertex 33.25 2.50855 15.145
    endloop
  endfacet
  facet normal 0 0 -1
    outer loop
    vertex 33.25 2.50855 15.355
    vertex 32.3 1.55855 15.355
    vertex 27.2 2.50855 15.355
    endloop
  endfacet
  facet normal 0.707108 -0.707106 0
    outer loop
    vertex 33.7 2.95855 11.4
    vertex 33.25 2.50855 15.355
    vertex 33.25 2.50855 15.145
    endloop
  endfacet
  facet normal 0.707107 -0.707106 0
    outer loop
    vertex 32.3 1.55855 15.355
    vertex 33.25 2.50855 15.355
    vertex 32.3 1.55855 23
    endloop
  endfacet
  facet normal 0.707108 -0.707106 3.30784e-008
    outer loop
    vertex 32.3 1.55855 23
    vertex 33.25 2.50855 15.355
    vertex 33.7 2.95855 23
    endloop
  endfacet
  facet normal 0.707108 -0.707106 0
    outer loop
    vertex 33.7 2.95855 23
    vertex 33.25 2.50855 15.355
    vertex 33.7 2.95855 11.4
    endloop
  endfacet
  facet normal 0 -1 0
    outer loop
    vertex 33.25 2.50855 15.145
    vertex 27.2 2.50855 15.355
    vertex 27.2 2.50855 15.145
    endloop
  endfacet
  facet normal 1 -0 0
    outer loop
    vertex 27.2 2.50855 15.355
    vertex 27.2 -7.98184 15.355
    vertex 27.2 2.50855 15.145
    endloop
  endfacet
  facet normal -0 0 -1
    outer loop
    vertex 27.2 2.50855 15.355
    vertex 32.3 1.55855 15.355
    vertex 27.2 -7.98184 15.355
    endloop
  endfacet
  facet normal -0 0 1
    outer loop
    vertex 33.25 2.50855 15.145
    vertex 27.2 2.50855 15.145
    vertex 32.3 1.55855 15.145
    endloop
  endfacet
  facet normal 0.707107 -0.707106 0
    outer loop
    vertex 32.3 1.55855 10
    vertex 33.25 2.50855 15.145
    vertex 32.3 1.55855 15.145
    endloop
  endfacet
  facet normal 0.707108 -0.707106 -6.02824e-008
    outer loop
    vertex 33.7 2.95855 11.4
    vertex 33.25 2.50855 15.145
    vertex 32.3 1.55855 10
    endloop
  endfacet
  facet normal 0 0 1
    outer loop
    vertex 32.3 1.55855 15.145
    vertex 27.2 2.50855 15.145
    vertex 27.2 -7.98184 15.145
    endloop
  endfacet
  facet normal 1 0 0
    outer loop
    vertex 27.2 2.50855 15.145
    vertex 27.2 -7.98184 15.355
    vertex 27.2 -7.98184 15.145
    endloop
  endfacet
  facet normal 0 0 1
    outer loop
    vertex 32.3 1.55855 15.145
    vertex 27.2 -7.98184 15.145
    vertex 32.3 -7.98184 15.145
    endloop
  endfacet
  facet normal 1 0 -0
    outer loop
    vertex 32.3 -7.98184 15.145
    vertex 32.3 1.55855 10
    vertex 32.3 1.55855 15.145
    endloop
  endfacet
  facet normal 0 1 0
    outer loop
    vertex 32.3 -7.98184 15.145
    vertex 27.2 -7.98184 15.145
    vertex 32.3 -7.98184 15.355
    endloop
  endfacet
  facet normal 0 1 0
    outer loop
    vertex 32.3 -7.98184 15.355
    vertex 27.2 -7.98184 15.145
    vertex 27.2 -7.98184 15.355
    endloop
  endfacet
  facet normal 1 0 0
    outer loop
    vertex 32.3 -7.98184 15.355
    vertex 32.3 -10.9415 10
    vertex 32.3 -7.98184 15.145
    endloop
  endfacet
  facet normal 1 0 0
    outer loop
    vertex 32.3 -7.98184 15.145
    vertex 32.3 -10.9415 10
    vertex 32.3 1.55855 10
    endloop
  endfacet
  facet normal 0 -0 -1
    outer loop
    vertex 27.2 -7.98184 15.355
    vertex 32.3 1.55855 15.355
    vertex 32.3 -7.98184 15.355
    endloop
  endfacet
  facet normal 1 0 0
    outer loop
    vertex 32.3 1.55855 15.355
    vertex 32.3 -6.65941 21.1333
    vertex 32.3 -7.98184 15.355
    endloop
  endfacet
  facet normal 1 0 0
    outer loop
    vertex 32.3 -7.98184 15.355
    vertex 32.3 -6.65941 21.1333
    vertex 32.3 -10.9415 10
    endloop
  endfacet
  facet normal 1 0 0
    outer loop
    vertex 32.3 1.55855 15.355
    vertex 32.3 1.55855 23
    vertex 32.3 -6.65941 21.1333
    endloop
  endfacet
  facet normal 0 0 1
    outer loop
    vertex 32.3 10.5585 23
    vertex 32.3 1.55855 23
    vertex 33.7 2.95855 23
    endloop
  endfacet
  facet normal 0 -0 1
    outer loop
    vertex 26.3 0.808549 23
    vertex 32.3 1.55855 23
    vertex 32.3 10.5585 23
    endloop
  endfacet
  facet normal 1 0 0
    outer loop
    vertex 32.3 -6.65941 21.1333
    vertex 32.3 1.55855 23
    vertex 32.3 -3.94145 23
    endloop
  endfacet
  facet normal 0 -0 1
    outer loop
    vertex 26.3 0.808549 23
    vertex 32.3 -3.94145 23
    vertex 32.3 1.55855 23
    endloop
  endfacet
  facet normal 1 0 0
    outer loop
    vertex 33.7 2.95855 11.4
    vertex 33.7 3.40855 15.25
    vertex 33.7 2.95855 23
    endloop
  endfacet
  facet normal 1 0 -0
    outer loop
    vertex 33.7 2.95855 23
    vertex 33.7 6.05855 17.9
    vertex 33.7 9.15855 23
    endloop
  endfacet
  facet normal 0 -0 1
    outer loop
    vertex 32.3 10.5585 23
    vertex 33.7 2.95855 23
    vertex 33.7 9.15855 23
    endloop
  endfacet
  facet normal 1 0 -0
    outer loop
    vertex 33.7 2.95855 23
    vertex 33.7 5.54156 17.8491
    vertex 33.7 6.05855 17.9
    endloop
  endfacet
  facet normal 1 0 -0
    outer loop
    vertex 33.7 2.95855 23
    vertex 33.7 3.40855 15.25
    vertex 33.7 3.45947 15.767
    endloop
  endfacet
  facet normal 1 0 -0
    outer loop
    vertex 33.7 2.95855 23
    vertex 33.7 3.45947 15.767
    vertex 33.7 3.61027 16.2641
    endloop
  endfacet
  facet normal 1 0 0
    outer loop
    vertex 33.7 3.61027 16.2641
    vertex 33.7 3.85515 16.7223
    vertex 33.7 2.95855 23
    endloop
  endfacet
  facet normal 1 0 -0
    outer loop
    vertex 33.7 2.95855 23
    vertex 33.7 3.85515 16.7223
    vertex 33.7 4.18472 17.1238
    endloop
  endfacet
  facet normal 1 0 -0
    outer loop
    vertex 33.7 2.95855 23
    vertex 33.7 4.18472 17.1238
    vertex 33.7 4.58629 17.4534
    endloop
  endfacet
  facet normal 1 0 0
    outer loop
    vertex 33.7 4.58629 17.4534
    vertex 33.7 5.04444 17.6983
    vertex 33.7 2.95855 23
    endloop
  endfacet
  facet normal 1 0 -0
    outer loop
    vertex 33.7 2.95855 23
    vertex 33.7 5.04444 17.6983
    vertex 33.7 5.54156 17.8491
    endloop
  endfacet
  facet normal 0.707107 0 -0.707106
    outer loop
    vertex 32.3 1.55855 10
    vertex 33.7 9.15855 11.4
    vertex 33.7 2.95855 11.4
    endloop
  endfacet
  facet normal 1 0 0
    outer loop
    vertex 33.7 9.15855 11.4
    vertex 33.7 6.05855 12.6
    vertex 33.7 2.95855 11.4
    endloop
  endfacet
  facet normal 1 0 0
    outer loop
    vertex 33.7 2.95855 11.4
    vertex 33.7 6.05855 12.6
    vertex 33.7 5.54156 12.6509
    endloop
  endfacet
  facet normal 1 0 0
    outer loop
    vertex 33.7 2.95855 11.4
    vertex 33.7 5.54156 12.6509
    vertex 33.7 5.04444 12.8017
    endloop
  endfacet
  facet normal 1 0 0
    outer loop
    vertex 33.7 5.04444 12.8017
    vertex 33.7 4.58629 13.0466
    vertex 33.7 2.95855 11.4
    endloop
  endfacet
  facet normal 1 0 0
    outer loop
    vertex 33.7 2.95855 11.4
    vertex 33.7 3.45947 14.733
    vertex 33.7 3.40855 15.25
    endloop
  endfacet
  facet normal 1 0 0
    outer loop
    vertex 33.7 2.95855 11.4
    vertex 33.7 4.58629 13.0466
    vertex 33.7 4.18472 13.3762
    endloop
  endfacet
  facet normal 1 0 0
    outer loop
    vertex 33.7 2.95855 11.4
    vertex 33.7 4.18472 13.3762
    vertex 33.7 3.85515 13.7777
    endloop
  endfacet
  facet normal 1 0 0
    outer loop
    vertex 33.7 3.85515 13.7777
    vertex 33.7 3.61027 14.2359
    vertex 33.7 2.95855 11.4
    endloop
  endfacet
  facet normal 1 0 0
    outer loop
    vertex 33.7 2.95855 11.4
    vertex 33.7 3.61027 14.2359
    vertex 33.7 3.45947 14.733
    endloop
  endfacet
  facet normal 0.707107 0 -0.707106
    outer loop
    vertex 32.3 10.5585 10
    vertex 33.7 9.15855 11.4
    vertex 32.3 1.55855 10
    endloop
  endfacet
  facet normal 1 0 0
    outer loop
    vertex 32.3 1.55855 10
    vertex 32.3 16.0585 0
    vertex 32.3 10.5585 10
    endloop
  endfacet
  facet normal 1 0 0
    outer loop
    vertex 32.3 -10.9415 10
    vertex 32.3 -23.9415 0
    vertex 32.3 1.55855 10
    endloop
  endfacet
  facet normal 1 0 0
    outer loop
    vertex 32.3 -23.9415 0
    vertex 32.3 16.0585 0
    vertex 32.3 1.55855 10
    endloop
  endfacet
  facet normal 0.707108 0.707106 0
    outer loop
    vertex 32.3 10.5585 10
    vertex 32.3 10.5585 23
    vertex 33.7 9.15855 11.4
    endloop
  endfacet
  facet normal 1 0 0
    outer loop
    vertex 32.3 10.5585 10
    vertex 32.3 16.0585 23
    vertex 32.3 10.5585 23
    endloop
  endfacet
  facet normal 1 0 -0
    outer loop
    vertex 32.3 10.5585 10
    vertex 32.3 16.0585 0
    vertex 32.3 16.0585 23
    endloop
  endfacet
  facet normal 1 0 0
    outer loop
    vertex 33.7 9.15855 11.4
    vertex 33.7 6.57554 12.6509
    vertex 33.7 6.05855 12.6
    endloop
  endfacet
  facet normal 1 -0 0
    outer loop
    vertex 33.7 9.15855 23
    vertex 33.7 8.70855 15.25
    vertex 33.7 9.15855 11.4
    endloop
  endfacet
  facet normal 0.707108 0.707106 0
    outer loop
    vertex 33.7 9.15855 11.4
    vertex 32.3 10.5585 23
    vertex 33.7 9.15855 23
    endloop
  endfacet
  facet normal 1 0 0
    outer loop
    vertex 33.7 9.15855 11.4
    vertex 33.7 8.70855 15.25
    vertex 33.7 8.65763 14.733
    endloop
  endfacet
  facet normal 1 0 0
    outer loop
    vertex 33.7 9.15855 11.4
    vertex 33.7 8.65763 14.733
    vertex 33.7 8.50683 14.2359
    endloop
  endfacet
  facet normal 1 -0 0
    outer loop
    vertex 33.7 8.50683 14.2359
    vertex 33.7 8.26194 13.7777
    vertex 33.7 9.15855 11.4
    endloop
  endfacet
  facet normal 1 0 0
    outer loop
    vertex 33.7 9.15855 11.4
    vertex 33.7 8.26194 13.7777
    vertex 33.7 7.93238 13.3762
    endloop
  endfacet
  facet normal 1 0 0
    outer loop
    vertex 33.7 9.15855 11.4
    vertex 33.7 7.93238 13.3762
    vertex 33.7 7.53081 13.0466
    endloop
  endfacet
  facet normal 1 -0 0
    outer loop
    vertex 33.7 7.53081 13.0466
    vertex 33.7 7.07266 12.8017
    vertex 33.7 9.15855 11.4
    endloop
  endfacet
  facet normal 1 0 0
    outer loop
    vertex 33.7 9.15855 11.4
    vertex 33.7 7.07266 12.8017
    vertex 33.7 6.57554 12.6509
    endloop
  endfacet
  facet normal -0 0.0980163 0.995185
    outer loop
    vertex 33.7 6.05855 12.6
    vertex 26.3 5.54156 12.6509
    vertex 33.7 5.54156 12.6509
    endloop
  endfacet
  facet normal 0 -0.0980163 0.995185
    outer loop
    vertex 33.7 6.57554 12.6509
    vertex 26.3 6.05855 12.6
    vertex 33.7 6.05855 12.6
    endloop
  endfacet
  facet normal -0 0.0980163 0.995185
    outer loop
    vertex 33.7 6.05855 12.6
    vertex 26.3 6.05855 12.6
    vertex 26.3 5.54156 12.6509
    endloop
  endfacet
  facet normal -0 0.290284 0.956941
    outer loop
    vertex 33.7 5.54156 12.6509
    vertex 26.3 5.04444 12.8017
    vertex 33.7 5.04444 12.8017
    endloop
  endfacet
  facet normal -0 0.290284 0.956941
    outer loop
    vertex 33.7 5.54156 12.6509
    vertex 26.3 5.54156 12.6509
    vertex 26.3 5.04444 12.8017
    endloop
  endfacet
  facet normal -0 0.471398 0.88192
    outer loop
    vertex 33.7 5.04444 12.8017
    vertex 26.3 4.58629 13.0466
    vertex 33.7 4.58629 13.0466
    endloop
  endfacet
  facet normal -0 0.471398 0.88192
    outer loop
    vertex 33.7 5.04444 12.8017
    vertex 26.3 5.04444 12.8017
    vertex 26.3 4.58629 13.0466
    endloop
  endfacet
  facet normal 1 -0 0
    outer loop
    vertex 33.7 9.15855 23
    vertex 33.7 8.65763 15.767
    vertex 33.7 8.70855 15.25
    endloop
  endfacet
  facet normal 1 -0 0
    outer loop
    vertex 33.7 9.15855 23
    vertex 33.7 6.05855 17.9
    vertex 33.7 6.57554 17.8491
    endloop
  endfacet
  facet normal 1 -0 0
    outer loop
    vertex 33.7 9.15855 23
    vertex 33.7 6.57554 17.8491
    vertex 33.7 7.07266 17.6983
    endloop
  endfacet
  facet normal 1 0 -0
    outer loop
    vertex 33.7 7.07266 17.6983
    vertex 33.7 7.53081 17.4534
    vertex 33.7 9.15855 23
    endloop
  endfacet
  facet normal 1 -0 0
    outer loop
    vertex 33.7 9.15855 23
    vertex 33.7 7.53081 17.4534
    vertex 33.7 7.93238 17.1238
    endloop
  endfacet
  facet normal 1 -0 0
    outer loop
    vertex 33.7 9.15855 23
    vertex 33.7 7.93238 17.1238
    vertex 33.7 8.26194 16.7223
    endloop
  endfacet
  facet normal 1 0 -0
    outer loop
    vertex 33.7 8.26194 16.7223
    vertex 33.7 8.50683 16.2641
    vertex 33.7 9.15855 23
    endloop
  endfacet
  facet normal 1 -0 0
    outer loop
    vertex 33.7 9.15855 23
    vertex 33.7 8.50683 16.2641
    vertex 33.7 8.65763 15.767
    endloop
  endfacet
  facet normal 0 -0.995184 0.0980215
    outer loop
    vertex 26.3 8.70855 15.25
    vertex 33.7 8.65763 14.733
    vertex 33.7 8.70855 15.25
    endloop
  endfacet
  facet normal 0 -0.995184 -0.0980217
    outer loop
    vertex 26.3 8.65763 15.767
    vertex 33.7 8.70855 15.25
    vertex 33.7 8.65763 15.767
    endloop
  endfacet
  facet normal -0 -0.995184 -0.0980217
    outer loop
    vertex 26.3 8.70855 15.25
    vertex 33.7 8.70855 15.25
    vertex 26.3 8.65763 15.767
    endloop
  endfacet
  facet normal 0 -0.956941 0.290284
    outer loop
    vertex 33.7 8.65763 14.733
    vertex 26.3 8.50683 14.2359
    vertex 33.7 8.50683 14.2359
    endloop
  endfacet
  facet normal 0 -0.995184 0.0980215
    outer loop
    vertex 26.3 8.65763 14.733
    vertex 33.7 8.65763 14.733
    vertex 26.3 8.70855 15.25
    endloop
  endfacet
  facet normal 0 -0.956941 0.290284
    outer loop
    vertex 26.3 8.65763 14.733
    vertex 26.3 8.50683 14.2359
    vertex 33.7 8.65763 14.733
    endloop
  endfacet
  facet normal 0 -0.881923 0.471394
    outer loop
    vertex 33.7 8.50683 14.2359
    vertex 26.3 8.26194 13.7777
    vertex 33.7 8.26194 13.7777
    endloop
  endfacet
  facet normal 0 -0.881923 0.471394
    outer loop
    vertex 33.7 8.50683 14.2359
    vertex 26.3 8.50683 14.2359
    vertex 26.3 8.26194 13.7777
    endloop
  endfacet
  facet normal 0 -0.0980163 -0.995185
    outer loop
    vertex 33.7 6.05855 17.9
    vertex 26.3 6.57554 17.8491
    vertex 33.7 6.57554 17.8491
    endloop
  endfacet
  facet normal 0 0.0980163 -0.995185
    outer loop
    vertex 33.7 5.54156 17.8491
    vertex 26.3 6.05855 17.9
    vertex 33.7 6.05855 17.9
    endloop
  endfacet
  facet normal 0 -0.0980163 -0.995185
    outer loop
    vertex 33.7 6.05855 17.9
    vertex 26.3 6.05855 17.9
    vertex 26.3 6.57554 17.8491
    endloop
  endfacet
  facet normal 0 -0.290285 -0.95694
    outer loop
    vertex 33.7 6.57554 17.8491
    vertex 26.3 7.07266 17.6983
    vertex 33.7 7.07266 17.6983
    endloop
  endfacet
  facet normal 0 -0.290285 -0.95694
    outer loop
    vertex 33.7 6.57554 17.8491
    vertex 26.3 6.57554 17.8491
    vertex 26.3 7.07266 17.6983
    endloop
  endfacet
  facet normal 0 -0.471397 -0.881921
    outer loop
    vertex 33.7 7.07266 17.6983
    vertex 26.3 7.53081 17.4534
    vertex 33.7 7.53081 17.4534
    endloop
  endfacet
  facet normal 0 -0.471397 -0.881921
    outer loop
    vertex 33.7 7.07266 17.6983
    vertex 26.3 7.07266 17.6983
    vertex 26.3 7.53081 17.4534
    endloop
  endfacet
  facet normal 0 0.995185 -0.0980172
    outer loop
    vertex 33.7 3.40855 15.25
    vertex 26.3 3.45947 15.767
    vertex 33.7 3.45947 15.767
    endloop
  endfacet
  facet normal -0 0.995185 0.098017
    outer loop
    vertex 33.7 3.45947 14.733
    vertex 26.3 3.40855 15.25
    vertex 33.7 3.40855 15.25
    endloop
  endfacet
  facet normal 0 0.995185 -0.0980172
    outer loop
    vertex 33.7 3.40855 15.25
    vertex 26.3 3.40855 15.25
    vertex 26.3 3.45947 15.767
    endloop
  endfacet
  facet normal 0 0.956941 -0.290284
    outer loop
    vertex 33.7 3.45947 15.767
    vertex 26.3 3.61027 16.2641
    vertex 33.7 3.61027 16.2641
    endloop
  endfacet
  facet normal 0 0.956941 -0.290284
    outer loop
    vertex 33.7 3.45947 15.767
    vertex 26.3 3.45947 15.767
    vertex 26.3 3.61027 16.2641
    endloop
  endfacet
  facet normal 0 0.88192 -0.471398
    outer loop
    vertex 33.7 3.61027 16.2641
    vertex 26.3 3.85515 16.7223
    vertex 33.7 3.85515 16.7223
    endloop
  endfacet
  facet normal 0 0.88192 -0.471398
    outer loop
    vertex 33.7 3.61027 16.2641
    vertex 26.3 3.61027 16.2641
    vertex 26.3 3.85515 16.7223
    endloop
  endfacet
  facet normal 0 -0.77301 0.634394
    outer loop
    vertex 33.7 8.26194 13.7777
    vertex 26.3 7.93238 13.3762
    vertex 33.7 7.93238 13.3762
    endloop
  endfacet
  facet normal 0 -0.77301 0.634394
    outer loop
    vertex 33.7 8.26194 13.7777
    vertex 26.3 8.26194 13.7777
    vertex 26.3 7.93238 13.3762
    endloop
  endfacet
  facet normal 0 -0.634392 0.773012
    outer loop
    vertex 33.7 7.93238 13.3762
    vertex 26.3 7.53081 13.0466
    vertex 33.7 7.53081 13.0466
    endloop
  endfacet
  facet normal 0 -0.634392 0.773012
    outer loop
    vertex 33.7 7.93238 13.3762
    vertex 26.3 7.93238 13.3762
    vertex 26.3 7.53081 13.0466
    endloop
  endfacet
  facet normal 0 -0.471398 0.88192
    outer loop
    vertex 33.7 7.53081 13.0466
    vertex 26.3 7.07266 12.8017
    vertex 33.7 7.07266 12.8017
    endloop
  endfacet
  facet normal 0 -0.471398 0.88192
    outer loop
    vertex 33.7 7.53081 13.0466
    vertex 26.3 7.53081 13.0466
    vertex 26.3 7.07266 12.8017
    endloop
  endfacet
  facet normal 0 -0.290284 0.956941
    outer loop
    vertex 33.7 7.07266 12.8017
    vertex 26.3 6.57554 12.6509
    vertex 33.7 6.57554 12.6509
    endloop
  endfacet
  facet normal 0 -0.290284 0.956941
    outer loop
    vertex 33.7 7.07266 12.8017
    vertex 26.3 7.07266 12.8017
    vertex 26.3 6.57554 12.6509
    endloop
  endfacet
  facet normal 0 -0.0980163 0.995185
    outer loop
    vertex 33.7 6.57554 12.6509
    vertex 26.3 6.57554 12.6509
    vertex 26.3 6.05855 12.6
    endloop
  endfacet
  facet normal -0 0.634394 0.77301
    outer loop
    vertex 33.7 4.58629 13.0466
    vertex 26.3 4.18472 13.3762
    vertex 33.7 4.18472 13.3762
    endloop
  endfacet
  facet normal -0 0.634394 0.77301
    outer loop
    vertex 33.7 4.58629 13.0466
    vertex 26.3 4.58629 13.0466
    vertex 26.3 4.18472 13.3762
    endloop
  endfacet
  facet normal -0 0.77301 0.634394
    outer loop
    vertex 33.7 4.18472 13.3762
    vertex 26.3 3.85515 13.7777
    vertex 33.7 3.85515 13.7777
    endloop
  endfacet
  facet normal -0 0.77301 0.634394
    outer loop
    vertex 33.7 4.18472 13.3762
    vertex 26.3 4.18472 13.3762
    vertex 26.3 3.85515 13.7777
    endloop
  endfacet
  facet normal -0 0.881921 0.471398
    outer loop
    vertex 33.7 3.85515 13.7777
    vertex 26.3 3.61027 14.2359
    vertex 33.7 3.61027 14.2359
    endloop
  endfacet
  facet normal -0 0.881921 0.471398
    outer loop
    vertex 33.7 3.85515 13.7777
    vertex 26.3 3.85515 13.7777
    vertex 26.3 3.61027 14.2359
    endloop
  endfacet
  facet normal -0 0.956941 0.290284
    outer loop
    vertex 33.7 3.61027 14.2359
    vertex 26.3 3.45947 14.733
    vertex 33.7 3.45947 14.733
    endloop
  endfacet
  facet normal -0 0.956941 0.290284
    outer loop
    vertex 33.7 3.61027 14.2359
    vertex 26.3 3.61027 14.2359
    vertex 26.3 3.45947 14.733
    endloop
  endfacet
  facet normal -0 0.995185 0.098017
    outer loop
    vertex 33.7 3.45947 14.733
    vertex 26.3 3.45947 14.733
    vertex 26.3 3.40855 15.25
    endloop
  endfacet
  facet normal 0 0.77301 -0.634394
    outer loop
    vertex 33.7 3.85515 16.7223
    vertex 26.3 4.18472 17.1238
    vertex 33.7 4.18472 17.1238
    endloop
  endfacet
  facet normal 0 0.77301 -0.634394
    outer loop
    vertex 33.7 3.85515 16.7223
    vertex 26.3 3.85515 16.7223
    vertex 26.3 4.18472 17.1238
    endloop
  endfacet
  facet normal 0 0.634394 -0.77301
    outer loop
    vertex 33.7 4.18472 17.1238
    vertex 26.3 4.58629 17.4534
    vertex 33.7 4.58629 17.4534
    endloop
  endfacet
  facet normal 0 0.634394 -0.77301
    outer loop
    vertex 33.7 4.18472 17.1238
    vertex 26.3 4.18472 17.1238
    vertex 26.3 4.58629 17.4534
    endloop
  endfacet
  facet normal 0 0.471397 -0.881921
    outer loop
    vertex 33.7 4.58629 17.4534
    vertex 26.3 5.04444 17.6983
    vertex 33.7 5.04444 17.6983
    endloop
  endfacet
  facet normal 0 0.471397 -0.881921
    outer loop
    vertex 33.7 4.58629 17.4534
    vertex 26.3 4.58629 17.4534
    vertex 26.3 5.04444 17.6983
    endloop
  endfacet
  facet normal 0 0.290285 -0.95694
    outer loop
    vertex 33.7 5.04444 17.6983
    vertex 26.3 5.54156 17.8491
    vertex 33.7 5.54156 17.8491
    endloop
  endfacet
  facet normal 0 0.290285 -0.95694
    outer loop
    vertex 33.7 5.04444 17.6983
    vertex 26.3 5.04444 17.6983
    vertex 26.3 5.54156 17.8491
    endloop
  endfacet
  facet normal 0 0.0980163 -0.995185
    outer loop
    vertex 33.7 5.54156 17.8491
    vertex 26.3 5.54156 17.8491
    vertex 26.3 6.05855 17.9
    endloop
  endfacet
  facet normal 0 -0.634392 -0.773012
    outer loop
    vertex 33.7 7.53081 17.4534
    vertex 26.3 7.93238 17.1238
    vertex 33.7 7.93238 17.1238
    endloop
  endfacet
  facet normal 0 -0.634392 -0.773012
    outer loop
    vertex 33.7 7.53081 17.4534
    vertex 26.3 7.53081 17.4534
    vertex 26.3 7.93238 17.1238
    endloop
  endfacet
  facet normal 0 -0.77301 -0.634394
    outer loop
    vertex 33.7 7.93238 17.1238
    vertex 26.3 8.26194 16.7223
    vertex 33.7 8.26194 16.7223
    endloop
  endfacet
  facet normal 0 -0.77301 -0.634394
    outer loop
    vertex 33.7 7.93238 17.1238
    vertex 26.3 7.93238 17.1238
    vertex 26.3 8.26194 16.7223
    endloop
  endfacet
  facet normal 0 -0.881922 -0.471395
    outer loop
    vertex 33.7 8.26194 16.7223
    vertex 26.3 8.50683 16.2641
    vertex 33.7 8.50683 16.2641
    endloop
  endfacet
  facet normal 0 -0.881922 -0.471395
    outer loop
    vertex 33.7 8.26194 16.7223
    vertex 26.3 8.26194 16.7223
    vertex 26.3 8.50683 16.2641
    endloop
  endfacet
  facet normal -0 -0.956941 -0.290284
    outer loop
    vertex 26.3 8.65763 15.767
    vertex 33.7 8.65763 15.767
    vertex 33.7 8.50683 16.2641
    endloop
  endfacet
  facet normal 0 -0.956941 -0.290284
    outer loop
    vertex 33.7 8.50683 16.2641
    vertex 26.3 8.50683 16.2641
    vertex 26.3 8.65763 15.767
    endloop
  endfacet
  facet normal 0 0 1
    outer loop
    vertex 26.3 0.808549 23
    vertex 32.3 10.5585 23
    vertex 26.3 11.3085 23
    endloop
  endfacet
  facet normal 0 -0 1
    outer loop
    vertex 26.3 11.3085 23
    vertex 32.3 10.5585 23
    vertex 32.3 16.0585 23
    endloop
  endfacet
  facet normal 0 -0.566137 0.824311
    outer loop
    vertex 32.3 -3.94145 23
    vertex 24.3 -3.94145 23
    vertex 32.3 -6.65941 21.1333
    endloop
  endfacet
  facet normal 0 0 1
    outer loop
    vertex 26.3 0.808549 23
    vertex 24.3 -3.94145 23
    vertex 32.3 -3.94145 23
    endloop
  endfacet
  facet normal 0 -0.566137 0.824311
    outer loop
    vertex 32.3 -6.65941 21.1333
    vertex 24.3 -3.94145 23
    vertex 24.0128 -6.65941 21.1333
    endloop
  endfacet
  facet normal -0.988372 4.89497e-007 0.152058
    outer loop
    vertex 24.3 -3.94145 23
    vertex 23.1077 0.808549 15.25
    vertex 24.0128 -6.65941 21.1333
    endloop
  endfacet
  facet normal 0 0 1
    outer loop
    vertex 24.3 0.808549 23
    vertex 24.3 -3.94145 23
    vertex 26.3 0.808549 23
    endloop
  endfacet
  facet normal -0.988372 0 0.152057
    outer loop
    vertex 24.3 -3.94145 23
    vertex 24.3 0.808549 23
    vertex 23.1077 0.808549 15.25
    endloop
  endfacet
  facet normal 0 -0.933346 0.358979
    outer loop
    vertex 32.3 -6.65941 21.1333
    vertex 24.0128 -6.65941 21.1333
    vertex 32.3 -10.9415 10
    endloop
  endfacet
  facet normal 0 -0.933346 0.358979
    outer loop
    vertex 32.3 -10.9415 10
    vertex 24.0128 -6.65941 21.1333
    vertex 22.3 -10.9415 10
    endloop
  endfacet
  facet normal -0.988372 1.32851e-007 0.152057
    outer loop
    vertex 24.0128 -6.65941 21.1333
    vertex 23.1077 0.808549 15.25
    vertex 22.3 -9.9087 10
    endloop
  endfacet
  facet normal -0.988372 0 0.152057
    outer loop
    vertex 24.0128 -6.65941 21.1333
    vertex 22.3 -9.9087 10
    vertex 22.3 -10.9415 10
    endloop
  endfacet
  facet normal 0 1 -0
    outer loop
    vertex 26.3 0.808549 23
    vertex 26.3 0.808549 15.25
    vertex 24.3 0.808549 23
    endloop
  endfacet
  facet normal 0 1 0
    outer loop
    vertex 24.3 0.808549 23
    vertex 26.3 0.808549 15.25
    vertex 23.1077 0.808549 15.25
    endloop
  endfacet
  facet normal -1 0 0
    outer loop
    vertex 26.3 11.3085 23
    vertex 26.3 6.05855 17.9
    vertex 26.3 0.808549 23
    endloop
  endfacet
  facet normal -1 -0 0
    outer loop
    vertex 26.3 0.808549 23
    vertex 26.3 3.85515 16.7223
    vertex 26.3 0.808549 15.25
    endloop
  endfacet
  facet normal -1 -0 0
    outer loop
    vertex 26.3 0.808549 23
    vertex 26.3 6.05855 17.9
    vertex 26.3 5.54156 17.8491
    endloop
  endfacet
  facet normal -1 -0 0
    outer loop
    vertex 26.3 0.808549 23
    vertex 26.3 5.54156 17.8491
    vertex 26.3 5.04444 17.6983
    endloop
  endfacet
  facet normal -1 0 0
    outer loop
    vertex 26.3 5.04444 17.6983
    vertex 26.3 4.58629 17.4534
    vertex 26.3 0.808549 23
    endloop
  endfacet
  facet normal -1 -0 0
    outer loop
    vertex 26.3 0.808549 23
    vertex 26.3 4.58629 17.4534
    vertex 26.3 4.18472 17.1238
    endloop
  endfacet
  facet normal -1 -0 0
    outer loop
    vertex 26.3 0.808549 23
    vertex 26.3 4.18472 17.1238
    vertex 26.3 3.85515 16.7223
    endloop
  endfacet
  facet normal 0 0 1
    outer loop
    vertex 26.3 11.3085 23
    vertex 32.3 16.0585 23
    vertex 24.3 16.0585 23
    endloop
  endfacet
  facet normal 0 0 1
    outer loop
    vertex 24.3 16.0585 23
    vertex 24.3 11.3085 23
    vertex 26.3 11.3085 23
    endloop
  endfacet
  facet normal 0 -1 0
    outer loop
    vertex 24.3 11.3085 23
    vertex 26.3 11.3085 15.25
    vertex 26.3 11.3085 23
    endloop
  endfacet
  facet normal -1 0 0
    outer loop
    vertex 26.3 11.3085 15.25
    vertex 26.3 8.26194 16.7223
    vertex 26.3 11.3085 23
    endloop
  endfacet
  facet normal -1 0 0
    outer loop
    vertex 26.3 11.3085 23
    vertex 26.3 8.26194 16.7223
    vertex 26.3 7.93238 17.1238
    endloop
  endfacet
  facet normal -1 0 0
    outer loop
    vertex 26.3 11.3085 23
    vertex 26.3 7.93238 17.1238
    vertex 26.3 7.53081 17.4534
    endloop
  endfacet
  facet normal -1 0 0
    outer loop
    vertex 26.3 7.53081 17.4534
    vertex 26.3 7.07266 17.6983
    vertex 26.3 11.3085 23
    endloop
  endfacet
  facet normal -1 0 0
    outer loop
    vertex 26.3 11.3085 23
    vertex 26.3 7.07266 17.6983
    vertex 26.3 6.57554 17.8491
    endloop
  endfacet
  facet normal -1 0 0
    outer loop
    vertex 26.3 11.3085 23
    vertex 26.3 6.57554 17.8491
    vertex 26.3 6.05855 17.9
    endloop
  endfacet
  facet normal -0 0.707107 0.707107
    outer loop
    vertex 30.3 18.0585 21
    vertex 24.3 16.0585 23
    vertex 32.3 16.0585 23
    endloop
  endfacet
  facet normal 0.707107 0.707107 -0
    outer loop
    vertex 32.3 16.0585 23
    vertex 32.3 16.0585 0
    vertex 30.3 18.0585 21
    endloop
  endfacet
  facet normal -0.988372 0 0.152057
    outer loop
    vertex 24.3 11.3085 23
    vertex 24.3 16.0585 23
    vertex 23.1077 11.3085 15.25
    endloop
  endfacet
  facet normal 0 0.707107 0.707107
    outer loop
    vertex 23.9923 18.0585 21
    vertex 24.3 16.0585 23
    vertex 30.3 18.0585 21
    endloop
  endfacet
  facet normal -0.988372 -2.2332e-007 0.152057
    outer loop
    vertex 23.1077 11.3085 15.25
    vertex 24.3 16.0585 23
    vertex 23.9923 18.0585 21
    endloop
  endfacet
  facet normal 0 -1 0
    outer loop
    vertex 23.1077 11.3085 15.25
    vertex 26.3 11.3085 15.25
    vertex 24.3 11.3085 23
    endloop
  endfacet
  facet normal 1 0 0
    outer loop
    vertex 32.3 -23.9415 10
    vertex 32.3 -23.9415 0
    vertex 32.3 -10.9415 10
    endloop
  endfacet
  facet normal 0 0 1
    outer loop
    vertex 32.3 -23.9415 10
    vertex 32.3 -10.9415 10
    vertex 22.3 -10.9415 10
    endloop
  endfacet
  facet normal 0 -1 0
    outer loop
    vertex 32.3 -23.9415 10
    vertex -26.9 -23.9415 10
    vertex 32.3 -23.9415 0
    endloop
  endfacet
  facet normal 0 0 1
    outer loop
    vertex 16.7963 -19.4415 10
    vertex 32.3 -23.9415 10
    vertex 22.3 -10.9415 10
    endloop
  endfacet
  facet normal 0 0 1
    outer loop
    vertex -26.9 -23.9415 10
    vertex 32.3 -23.9415 10
    vertex 5.78879 -19.4415 10
    endloop
  endfacet
  facet normal 0 0 1
    outer loop
    vertex 5.78879 -19.4415 10
    vertex 32.3 -23.9415 10
    vertex 16.7963 -19.4415 10
    endloop
  endfacet
  facet normal 0 0 -1
    outer loop
    vertex 32.3 16.0585 0
    vertex 32.3 -23.9415 0
    vertex 22.3 -9.9087 0
    endloop
  endfacet
  facet normal 0 -1 0
    outer loop
    vertex 32.3 -23.9415 0
    vertex -26.9 -23.9415 10
    vertex -26.9 -23.9415 0
    endloop
  endfacet
  facet normal 0 0 -1
    outer loop
    vertex 22.3 -9.9087 0
    vertex 32.3 -23.9415 0
    vertex 16.7963 -19.4415 0
    endloop
  endfacet
  facet normal 0 0 -1
    outer loop
    vertex 16.7963 -19.4415 0
    vertex 32.3 -23.9415 0
    vertex 5.78879 -19.4415 0
    endloop
  endfacet
  facet normal 0 0 -1
    outer loop
    vertex 5.78879 -19.4415 0
    vertex 32.3 -23.9415 0
    vertex -26.9 -23.9415 0
    endloop
  endfacet
  facet normal 0.707107 0.707107 0
    outer loop
    vertex 30.3 18.0585 21
    vertex 32.3 16.0585 0
    vertex 30.3 18.0585 0
    endloop
  endfacet
  facet normal 0 -0 -1
    outer loop
    vertex 19.2878 13.5585 0
    vertex 30.3 18.0585 0
    vertex 32.3 16.0585 0
    endloop
  endfacet
  facet normal 0 0 -1
    outer loop
    vertex 19.2878 13.5585 0
    vertex 32.3 16.0585 0
    vertex 22.3 8.3413 0
    endloop
  endfacet
  facet normal 0 0 -1
    outer loop
    vertex 22.3 8.3413 0
    vertex 32.3 16.0585 0
    vertex 22.3 -9.9087 0
    endloop
  endfacet
  facet normal 0 1 0
    outer loop
    vertex 22.3 18.0585 10
    vertex 30.3 18.0585 21
    vertex 30.3 18.0585 0
    endloop
  endfacet
  facet normal 0 1 0
    outer loop
    vertex 23.9923 18.0585 21
    vertex 30.3 18.0585 21
    vertex 22.3 18.0585 10
    endloop
  endfacet
  facet normal 0 1 0
    outer loop
    vertex 22.3 18.0585 10
    vertex 30.3 18.0585 0
    vertex 16.0942 18.0585 0
    endloop
  endfacet
  facet normal -0 0 -1
    outer loop
    vertex 16.0942 18.0585 0
    vertex 30.3 18.0585 0
    vertex 19.2878 13.5585 0
    endloop
  endfacet
  facet normal -0.988372 -9.91166e-008 0.152057
    outer loop
    vertex 23.1077 11.3085 15.25
    vertex 23.9923 18.0585 21
    vertex 22.3 18.0585 10
    endloop
  endfacet
  facet normal -0.988372 -4.28464e-007 0.152057
    outer loop
    vertex 22.9927 11.2551 14.5028
    vertex 23.1077 11.3085 15.25
    vertex 22.3 18.0585 10
    endloop
  endfacet
  facet normal 0 -0.997452 0.0713376
    outer loop
    vertex 22.9927 11.2551 14.5028
    vertex 26.3 11.2551 14.5028
    vertex 23.1077 11.3085 15.25
    endloop
  endfacet
  facet normal 0 -0.997452 0.0713376
    outer loop
    vertex 23.1077 11.3085 15.25
    vertex 26.3 11.2551 14.5028
    vertex 26.3 11.3085 15.25
    endloop
  endfacet
  facet normal -0.988372 0 0.152057
    outer loop
    vertex 22.3 8.3413 10
    vertex 22.4973 9.49657 11.2823
    vertex 22.3 18.0585 10
    endloop
  endfacet
  facet normal -0 0 1
    outer loop
    vertex 22.3 18.0585 10
    vertex 19.2878 13.5585 10
    vertex 22.3 8.3413 10
    endloop
  endfacet
  facet normal -0.988372 1.72112e-007 0.152058
    outer loop
    vertex 22.3 18.0585 10
    vertex 22.4973 9.49657 11.2823
    vertex 22.5788 10.0262 11.812
    endloop
  endfacet
  facet normal -0.988372 -6.3762e-007 0.152055
    outer loop
    vertex 22.3 18.0585 10
    vertex 22.5788 10.0262 11.812
    vertex 22.671 10.4751 12.4116
    endloop
  endfacet
  facet normal -0.988372 5.37827e-007 0.152058
    outer loop
    vertex 22.671 10.4751 12.4116
    vertex 22.7722 10.8341 13.0691
    vertex 22.3 18.0585 10
    endloop
  endfacet
  facet normal -0.988372 4.65487e-007 0.152058
    outer loop
    vertex 22.3 18.0585 10
    vertex 22.7722 10.8341 13.0691
    vertex 22.8801 11.0959 13.7709
    endloop
  endfacet
  facet normal -0.988371 8.63917e-007 0.152059
    outer loop
    vertex 22.3 18.0585 10
    vertex 22.8801 11.0959 13.7709
    vertex 22.9927 11.2551 14.5028
    endloop
  endfacet
  facet normal 0 -0 1
    outer loop
    vertex 16.0942 18.0585 10
    vertex 19.2878 13.5585 10
    vertex 22.3 18.0585 10
    endloop
  endfacet
  facet normal -0 1 0
    outer loop
    vertex 16.0942 18.0585 0
    vertex 16.0942 18.0585 10
    vertex 22.3 18.0585 10
    endloop
  endfacet
  facet normal -0.988371 -8.39319e-006 0.152064
    outer loop
    vertex 22.3 8.3413 10
    vertex 22.4282 8.89691 10.8334
    vertex 22.4973 9.49657 11.2823
    endloop
  endfacet
  facet normal -0.988373 0 0.152047
    outer loop
    vertex 22.3 6.05855 10
    vertex 22.3082 6.8057 10.0534
    vertex 22.3 8.3413 10
    endloop
  endfacet
  facet normal 0 -0 1
    outer loop
    vertex 19.2878 3.12405 10
    vertex 22.3 6.05855 10
    vertex 22.3 8.3413 10
    endloop
  endfacet
  facet normal -0.988372 3.52966e-007 0.152056
    outer loop
    vertex 22.3 8.3413 10
    vertex 22.3082 6.8057 10.0534
    vertex 22.3327 7.53764 10.2127
    endloop
  endfacet
  facet normal -0.988371 1.08843e-006 0.152059
    outer loop
    vertex 22.3 8.3413 10
    vertex 22.3327 7.53764 10.2127
    vertex 22.373 8.23947 10.4744
    endloop
  endfacet
  facet normal -0.988371 -1.06613e-007 0.152059
    outer loop
    vertex 22.373 8.23947 10.4744
    vertex 22.4282 8.89691 10.8334
    vertex 22.3 8.3413 10
    endloop
  endfacet
  facet normal -0.866026 0.5 0
    outer loop
    vertex 19.2878 3.12405 10
    vertex 22.3 8.3413 10
    vertex 19.2878 3.12405 0
    endloop
  endfacet
  facet normal -0.866025 -0.5 0
    outer loop
    vertex 22.3 8.3413 10
    vertex 19.2878 13.5585 10
    vertex 22.3 8.3413 0
    endloop
  endfacet
  facet normal -0.866026 0.5 0
    outer loop
    vertex 19.2878 3.12405 0
    vertex 22.3 8.3413 10
    vertex 22.3 8.3413 0
    endloop
  endfacet
  facet normal 0 -0.707106 0.707107
    outer loop
    vertex 22.4973 9.49657 11.2823
    vertex 26.3 9.49657 11.2823
    vertex 22.5788 10.0262 11.812
    endloop
  endfacet
  facet normal 0 -0.599279 0.800541
    outer loop
    vertex 22.4282 8.89691 10.8334
    vertex 26.3 8.89691 10.8334
    vertex 22.4973 9.49657 11.2823
    endloop
  endfacet
  facet normal 0 -0.599279 0.800541
    outer loop
    vertex 22.4973 9.49657 11.2823
    vertex 26.3 8.89691 10.8334
    vertex 26.3 9.49657 11.2823
    endloop
  endfacet
  facet normal 0 -0.800542 0.599276
    outer loop
    vertex 22.5788 10.0262 11.812
    vertex 26.3 10.0262 11.812
    vertex 22.671 10.4751 12.4116
    endloop
  endfacet
  facet normal 0 -0.707106 0.707107
    outer loop
    vertex 22.5788 10.0262 11.812
    vertex 26.3 9.49657 11.2823
    vertex 26.3 10.0262 11.812
    endloop
  endfacet
  facet normal 0 -0.87768 0.479248
    outer loop
    vertex 22.671 10.4751 12.4116
    vertex 26.3 10.4751 12.4116
    vertex 22.7722 10.8341 13.0691
    endloop
  endfacet
  facet normal 0 -0.800542 0.599276
    outer loop
    vertex 22.671 10.4751 12.4116
    vertex 26.3 10.0262 11.812
    vertex 26.3 10.4751 12.4116
    endloop
  endfacet
  facet normal 0 -0.0713401 0.997452
    outer loop
    vertex 22.3 6.05855 10
    vertex 26.3 6.05855 10
    vertex 22.3082 6.8057 10.0534
    endloop
  endfacet
  facet normal -0.988373 0 0.152047
    outer loop
    vertex 22.3 -9.9087 10
    vertex 22.3082 5.3114 10.0534
    vertex 22.3 6.05855 10
    endloop
  endfacet
  facet normal 0 -0 1
    outer loop
    vertex 19.2878 3.12405 10
    vertex 22.3 -9.9087 10
    vertex 22.3 6.05855 10
    endloop
  endfacet
  facet normal 0 0.0713403 0.997452
    outer loop
    vertex 22.3082 5.3114 10.0534
    vertex 26.3 6.05855 10
    vertex 22.3 6.05855 10
    endloop
  endfacet
  facet normal 0 -0.212564 0.977147
    outer loop
    vertex 22.3082 6.8057 10.0534
    vertex 26.3 6.8057 10.0534
    vertex 22.3327 7.53764 10.2127
    endloop
  endfacet
  facet normal 0 -0.0713401 0.997452
    outer loop
    vertex 22.3082 6.8057 10.0534
    vertex 26.3 6.05855 10
    vertex 26.3 6.8057 10.0534
    endloop
  endfacet
  facet normal 0 -0.349465 0.936949
    outer loop
    vertex 22.3327 7.53764 10.2127
    vertex 26.3 7.53764 10.2127
    vertex 22.373 8.23947 10.4744
    endloop
  endfacet
  facet normal 0 -0.212564 0.977147
    outer loop
    vertex 22.3327 7.53764 10.2127
    vertex 26.3 6.8057 10.0534
    vertex 26.3 7.53764 10.2127
    endloop
  endfacet
  facet normal 0 -0.479247 0.87768
    outer loop
    vertex 22.373 8.23947 10.4744
    vertex 26.3 8.23947 10.4744
    vertex 22.4282 8.89691 10.8334
    endloop
  endfacet
  facet normal 0 -0.349465 0.936949
    outer loop
    vertex 22.373 8.23947 10.4744
    vertex 26.3 7.53764 10.2127
    vertex 26.3 8.23947 10.4744
    endloop
  endfacet
  facet normal 0 -0.479247 0.87768
    outer loop
    vertex 22.4282 8.89691 10.8334
    vertex 26.3 8.23947 10.4744
    vertex 26.3 8.89691 10.8334
    endloop
  endfacet
  facet normal 0 -0.936949 0.349467
    outer loop
    vertex 22.7722 10.8341 13.0691
    vertex 26.3 10.8341 13.0691
    vertex 22.8801 11.0959 13.7709
    endloop
  endfacet
  facet normal 0 -0.87768 0.479248
    outer loop
    vertex 22.7722 10.8341 13.0691
    vertex 26.3 10.4751 12.4116
    vertex 26.3 10.8341 13.0691
    endloop
  endfacet
  facet normal 0 -0.977147 0.212567
    outer loop
    vertex 22.8801 11.0959 13.7709
    vertex 26.3 11.0959 13.7709
    vertex 22.9927 11.2551 14.5028
    endloop
  endfacet
  facet normal 0 -0.936949 0.349467
    outer loop
    vertex 22.8801 11.0959 13.7709
    vertex 26.3 10.8341 13.0691
    vertex 26.3 11.0959 13.7709
    endloop
  endfacet
  facet normal 0 -0.977147 0.212567
    outer loop
    vertex 22.9927 11.2551 14.5028
    vertex 26.3 11.0959 13.7709
    vertex 26.3 11.2551 14.5028
    endloop
  endfacet
  facet normal -0.988372 2.75226e-007 0.152057
    outer loop
    vertex 23.1077 0.808549 15.25
    vertex 22.9927 0.861986 14.5028
    vertex 22.3 -9.9087 10
    endloop
  endfacet
  facet normal 0 0.997452 0.0713383
    outer loop
    vertex 23.1077 0.808549 15.25
    vertex 26.3 0.861986 14.5028
    vertex 22.9927 0.861986 14.5028
    endloop
  endfacet
  facet normal 0 0.997452 0.0713383
    outer loop
    vertex 26.3 0.808549 15.25
    vertex 26.3 0.861986 14.5028
    vertex 23.1077 0.808549 15.25
    endloop
  endfacet
  facet normal 0 -0 1
    outer loop
    vertex 16.7963 -19.4415 10
    vertex 22.3 -10.9415 10
    vertex 22.3 -9.9087 10
    endloop
  endfacet
  facet normal -0.988371 -5.72232e-007 0.152059
    outer loop
    vertex 22.3 -9.9087 10
    vertex 22.9927 0.861986 14.5028
    vertex 22.8801 1.02121 13.7709
    endloop
  endfacet
  facet normal -0.988372 -3.15792e-007 0.152058
    outer loop
    vertex 22.3 -9.9087 10
    vertex 22.8801 1.02121 13.7709
    vertex 22.7722 1.28298 13.0691
    endloop
  endfacet
  facet normal -0.988372 -3.72007e-007 0.152058
    outer loop
    vertex 22.7722 1.28298 13.0691
    vertex 22.671 1.64197 12.4116
    vertex 22.3 -9.9087 10
    endloop
  endfacet
  facet normal -0.988372 4.48222e-007 0.152054
    outer loop
    vertex 22.3 -9.9087 10
    vertex 22.671 1.64197 12.4116
    vertex 22.5788 2.09086 11.812
    endloop
  endfacet
  facet normal -0.988372 -1.22674e-007 0.152058
    outer loop
    vertex 22.3 -9.9087 10
    vertex 22.5788 2.09086 11.812
    vertex 22.4973 2.62053 11.2823
    endloop
  endfacet
  facet normal -0.988372 3.28663e-007 0.152054
    outer loop
    vertex 22.4973 2.62053 11.2823
    vertex 22.4282 3.22018 10.8334
    vertex 22.3 -9.9087 10
    endloop
  endfacet
  facet normal -0.988371 7.06149e-009 0.152059
    outer loop
    vertex 22.3 -9.9087 10
    vertex 22.4282 3.22018 10.8334
    vertex 22.373 3.87762 10.4744
    endloop
  endfacet
  facet normal -0.988371 -9.93014e-008 0.152062
    outer loop
    vertex 22.3 -9.9087 10
    vertex 22.373 3.87762 10.4744
    vertex 22.3327 4.57945 10.2127
    endloop
  endfacet
  facet normal -0.988372 -4.06525e-008 0.152058
    outer loop
    vertex 22.3327 4.57945 10.2127
    vertex 22.3082 5.3114 10.0534
    vertex 22.3 -9.9087 10
    endloop
  endfacet
  facet normal 0 0 1
    outer loop
    vertex 16.7963 -0.375953 10
    vertex 22.3 -9.9087 10
    vertex 19.2878 3.12405 10
    endloop
  endfacet
  facet normal -0.866025 -0.5 0
    outer loop
    vertex 22.3 -9.9087 10
    vertex 16.7963 -0.375953 10
    vertex 22.3 -9.9087 0
    endloop
  endfacet
  facet normal -0.866025 0.5 0
    outer loop
    vertex 16.7963 -19.4415 10
    vertex 22.3 -9.9087 10
    vertex 16.7963 -19.4415 0
    endloop
  endfacet
  facet normal -0.866025 0.5 0
    outer loop
    vertex 16.7963 -19.4415 0
    vertex 22.3 -9.9087 10
    vertex 22.3 -9.9087 0
    endloop
  endfacet
  facet normal 0 0.977147 0.212563
    outer loop
    vertex 22.9927 0.861986 14.5028
    vertex 26.3 1.02121 13.7709
    vertex 22.8801 1.02121 13.7709
    endloop
  endfacet
  facet normal 0 0.977147 0.212563
    outer loop
    vertex 22.9927 0.861986 14.5028
    vertex 26.3 0.861986 14.5028
    vertex 26.3 1.02121 13.7709
    endloop
  endfacet
  facet normal 0 0.936949 0.349466
    outer loop
    vertex 22.8801 1.02121 13.7709
    vertex 26.3 1.28298 13.0691
    vertex 22.7722 1.28298 13.0691
    endloop
  endfacet
  facet normal 0 0.936949 0.349466
    outer loop
    vertex 22.8801 1.02121 13.7709
    vertex 26.3 1.02121 13.7709
    vertex 26.3 1.28298 13.0691
    endloop
  endfacet
  facet normal 0 0.877679 0.479249
    outer loop
    vertex 22.7722 1.28298 13.0691
    vertex 26.3 1.64197 12.4116
    vertex 22.671 1.64197 12.4116
    endloop
  endfacet
  facet normal 0 0.877679 0.479249
    outer loop
    vertex 22.7722 1.28298 13.0691
    vertex 26.3 1.28298 13.0691
    vertex 26.3 1.64197 12.4116
    endloop
  endfacet
  facet normal 0 0.800542 0.599276
    outer loop
    vertex 22.671 1.64197 12.4116
    vertex 26.3 2.09086 11.812
    vertex 22.5788 2.09086 11.812
    endloop
  endfacet
  facet normal 0 0.800542 0.599276
    outer loop
    vertex 22.671 1.64197 12.4116
    vertex 26.3 1.64197 12.4116
    vertex 26.3 2.09086 11.812
    endloop
  endfacet
  facet normal 0 0.707105 0.707108
    outer loop
    vertex 22.5788 2.09086 11.812
    vertex 26.3 2.62053 11.2823
    vertex 22.4973 2.62053 11.2823
    endloop
  endfacet
  facet normal 0 0.707105 0.707108
    outer loop
    vertex 22.5788 2.09086 11.812
    vertex 26.3 2.09086 11.812
    vertex 26.3 2.62053 11.2823
    endloop
  endfacet
  facet normal 0 0.59928 0.80054
    outer loop
    vertex 22.4973 2.62053 11.2823
    vertex 26.3 3.22018 10.8334
    vertex 22.4282 3.22018 10.8334
    endloop
  endfacet
  facet normal 0 0.59928 0.80054
    outer loop
    vertex 22.4973 2.62053 11.2823
    vertex 26.3 2.62053 11.2823
    vertex 26.3 3.22018 10.8334
    endloop
  endfacet
  facet normal 0 0.479248 0.877679
    outer loop
    vertex 22.4282 3.22018 10.8334
    vertex 26.3 3.87762 10.4744
    vertex 22.373 3.87762 10.4744
    endloop
  endfacet
  facet normal 0 0.479248 0.877679
    outer loop
    vertex 22.4282 3.22018 10.8334
    vertex 26.3 3.22018 10.8334
    vertex 26.3 3.87762 10.4744
    endloop
  endfacet
  facet normal 0 0.349463 0.93695
    outer loop
    vertex 22.373 3.87762 10.4744
    vertex 26.3 4.57945 10.2127
    vertex 22.3327 4.57945 10.2127
    endloop
  endfacet
  facet normal 0 0.349463 0.93695
    outer loop
    vertex 22.373 3.87762 10.4744
    vertex 26.3 3.87762 10.4744
    vertex 26.3 4.57945 10.2127
    endloop
  endfacet
  facet normal 0 0.212564 0.977147
    outer loop
    vertex 22.3327 4.57945 10.2127
    vertex 26.3 5.3114 10.0534
    vertex 22.3082 5.3114 10.0534
    endloop
  endfacet
  facet normal 0 0.212564 0.977147
    outer loop
    vertex 22.3327 4.57945 10.2127
    vertex 26.3 4.57945 10.2127
    vertex 26.3 5.3114 10.0534
    endloop
  endfacet
  facet normal 0 0.0713403 0.997452
    outer loop
    vertex 22.3082 5.3114 10.0534
    vertex 26.3 5.3114 10.0534
    vertex 26.3 6.05855 10
    endloop
  endfacet
  facet normal -0 0 1
    outer loop
    vertex 19.2878 3.12405 10
    vertex 13.2635 3.12405 10
    vertex 16.7963 -0.375953 10
    endloop
  endfacet
  facet normal 0 0 1
    outer loop
    vertex 16.7963 -0.375953 10
    vertex 13.2635 3.12405 10
    vertex 5.78879 -0.375953 10
    endloop
  endfacet
  facet normal 0 -1 0
    outer loop
    vertex 16.7963 -0.375953 10
    vertex 5.78879 -0.375953 10
    vertex 16.7963 -0.375953 0
    endloop
  endfacet
  facet normal -0.866025 -0.5 -0
    outer loop
    vertex 22.3 -9.9087 0
    vertex 16.7963 -0.375953 10
    vertex 16.7963 -0.375953 0
    endloop
  endfacet
  facet normal 0 1 0
    outer loop
    vertex 13.2635 3.12405 10
    vertex 19.2878 3.12405 10
    vertex 13.2635 3.12405 0
    endloop
  endfacet
  facet normal 0 1 0
    outer loop
    vertex 13.2635 3.12405 0
    vertex 19.2878 3.12405 10
    vertex 19.2878 3.12405 0
    endloop
  endfacet
  facet normal 0 0 1
    outer loop
    vertex 5.78879 -0.375953 10
    vertex 13.2635 3.12405 10
    vertex 10.2513 8.3413 10
    endloop
  endfacet
  facet normal 0.866025 0.5 0
    outer loop
    vertex 10.2513 8.3413 10
    vertex 13.2635 3.12405 10
    vertex 10.2513 8.3413 0
    endloop
  endfacet
  facet normal 0.866025 0.5 0
    outer loop
    vertex 10.2513 8.3413 0
    vertex 13.2635 3.12405 10
    vertex 13.2635 3.12405 0
    endloop
  endfacet
  facet normal 0 0 1
    outer loop
    vertex 5.78879 -0.375953 10
    vertex 10.2513 8.3413 10
    vertex -9.76584 -9.47075 10
    endloop
  endfacet
  facet normal 0 0 1
    outer loop
    vertex -4.00925 -9.47075 10
    vertex 5.78879 -0.375953 10
    vertex -9.76584 -9.47075 10
    endloop
  endfacet
  facet normal 0 -0 1
    outer loop
    vertex -4.00925 -9.47075 10
    vertex 0.285056 -9.9087 10
    vertex 5.78879 -0.375953 10
    endloop
  endfacet
  facet normal 0.866025 -0.5 0
    outer loop
    vertex 5.78879 -0.375953 10
    vertex 0.285056 -9.9087 10
    vertex 5.78879 -0.375953 0
    endloop
  endfacet
  facet normal 0 -1 0
    outer loop
    vertex 16.7963 -0.375953 0
    vertex 5.78879 -0.375953 10
    vertex 5.78879 -0.375953 0
    endloop
  endfacet
  facet normal 0 0 1
    outer loop
    vertex -9.76584 -9.47075 10
    vertex 10.2513 8.3413 10
    vertex 9.18602 14.4309 10
    endloop
  endfacet
  facet normal 0 0 1
    outer loop
    vertex 10.2513 8.3413 10
    vertex 13.2635 13.5585 10
    vertex 9.18602 14.4309 10
    endloop
  endfacet
  facet normal 0.866025 -0.5 0
    outer loop
    vertex 13.2635 13.5585 10
    vertex 10.2513 8.3413 10
    vertex 13.2635 13.5585 0
    endloop
  endfacet
  facet normal 0.866025 -0.5 0
    outer loop
    vertex 13.2635 13.5585 0
    vertex 10.2513 8.3413 10
    vertex 10.2513 8.3413 0
    endloop
  endfacet
  facet normal 0 0 1
    outer loop
    vertex -9.76584 -9.47075 10
    vertex 9.18602 14.4309 10
    vertex -23.3409 -18.096 10
    endloop
  endfacet
  facet normal 0 -0 1
    outer loop
    vertex -23.3409 -18.096 10
    vertex -12.6441 -14.4561 10
    vertex -9.76584 -9.47075 10
    endloop
  endfacet
  facet normal 0 -1 0
    outer loop
    vertex -4.00925 -9.47075 10
    vertex -9.76584 -9.47075 10
    vertex -4.00925 -9.47075 0
    endloop
  endfacet
  facet normal 0.866026 -0.5 0
    outer loop
    vertex -9.76584 -9.47075 10
    vertex -12.6441 -14.4561 10
    vertex -9.76584 -9.47075 0
    endloop
  endfacet
  facet normal 0 -1 0
    outer loop
    vertex -4.00925 -9.47075 0
    vertex -9.76584 -9.47075 10
    vertex -9.76584 -9.47075 0
    endloop
  endfacet
  facet normal -0.5 0.5 0.707107
    outer loop
    vertex 9.18602 14.4309 10
    vertex 7.77181 14.4309 9
    vertex -23.3409 -18.096 10
    endloop
  endfacet
  facet normal 0 -0 1
    outer loop
    vertex 9.18602 14.4309 10
    vertex 13.2635 13.5585 10
    vertex 16.0942 18.0585 10
    endloop
  endfacet
  facet normal 0 0 1
    outer loop
    vertex 9.18602 14.4309 10
    vertex 16.0942 18.0585 10
    vertex 5.65049 17.9664 10
    endloop
  endfacet
  facet normal -0.5 -0.5 0.707107
    outer loop
    vertex 9.18602 14.4309 10
    vertex 5.65049 17.9664 10
    vertex 7.77181 14.4309 9
    endloop
  endfacet
  facet normal 0 0 1
    outer loop
    vertex -26.8764 -14.5605 10
    vertex -30.412 -18.096 10
    vertex -23.3409 -18.096 10
    endloop
  endfacet
  facet normal 0.5 0.5 0.707107
    outer loop
    vertex -23.3409 -16.6818 9
    vertex -26.8764 -14.5605 10
    vertex -23.3409 -18.096 10
    endloop
  endfacet
  facet normal -0 0 1
    outer loop
    vertex -23.3409 -18.096 10
    vertex -30.412 -18.096 10
    vertex -26.9 -23.9415 10
    endloop
  endfacet
  facet normal 0 0 1
    outer loop
    vertex -23.3409 -18.096 10
    vertex -26.9 -23.9415 10
    vertex -9.76584 -19.4415 10
    endloop
  endfacet
  facet normal 0 0 1
    outer loop
    vertex -9.76584 -19.4415 10
    vertex -12.6441 -14.4561 10
    vertex -23.3409 -18.096 10
    endloop
  endfacet
  facet normal -0.5 0.5 0.707107
    outer loop
    vertex -23.3409 -18.096 10
    vertex 7.77181 14.4309 9
    vertex -23.3409 -16.6818 9
    endloop
  endfacet
  facet normal 0 0 1
    outer loop
    vertex 13.2635 13.5585 10
    vertex 19.2878 13.5585 10
    vertex 16.0942 18.0585 10
    endloop
  endfacet
  facet normal 0 -1 0
    outer loop
    vertex 19.2878 13.5585 10
    vertex 13.2635 13.5585 10
    vertex 19.2878 13.5585 0
    endloop
  endfacet
  facet normal 0 -1 0
    outer loop
    vertex 19.2878 13.5585 0
    vertex 13.2635 13.5585 10
    vertex 13.2635 13.5585 0
    endloop
  endfacet
  facet normal 0 0 1
    outer loop
    vertex 5.65049 17.9664 10
    vertex 16.0942 18.0585 10
    vertex 9.18602 21.5019 10
    endloop
  endfacet
  facet normal 0 0 1
    outer loop
    vertex 9.18602 21.5019 10
    vertex 16.0942 18.0585 10
    vertex 10.2113 23.9415 10
    endloop
  endfacet
  facet normal 0.707107 0.707107 0
    outer loop
    vertex 10.2113 23.9415 10
    vertex 16.0942 18.0585 10
    vertex 10.2113 23.9415 0
    endloop
  endfacet
  facet normal 0.707107 0.707107 0
    outer loop
    vertex 10.2113 23.9415 0
    vertex 16.0942 18.0585 10
    vertex 16.0942 18.0585 0
    endloop
  endfacet
  facet normal -0.707106 0.707107 0
    outer loop
    vertex 5.65049 17.9664 0
    vertex 5.65049 17.9664 10
    vertex 9.18602 21.5019 10
    endloop
  endfacet
  facet normal -0.5 -0.5 0.707107
    outer loop
    vertex 7.77181 14.4309 9
    vertex 5.65049 17.9664 10
    vertex 4.94338 17.2593 9
    endloop
  endfacet
  facet normal -0.707107 0.707106 0
    outer loop
    vertex 5.65049 17.9664 0
    vertex 4.94338 17.2593 9
    vertex 5.65049 17.9664 10
    endloop
  endfacet
  facet normal 0 0 1
    outer loop
    vertex 9.18602 21.5019 10
    vertex 10.2113 23.9415 10
    vertex 7.94859 22.7394 10
    endloop
  endfacet
  facet normal -0.707107 -0.707106 0
    outer loop
    vertex 9.18602 21.5019 10
    vertex 7.94859 22.7394 10
    vertex 9.18602 21.5019 0
    endloop
  endfacet
  facet normal -0.707106 0.707107 0
    outer loop
    vertex 9.18602 21.5019 10
    vertex 9.18602 21.5019 0
    vertex 5.65049 17.9664 0
    endloop
  endfacet
  facet normal 0 0 1
    outer loop
    vertex 7.94859 22.7394 10
    vertex 10.2113 23.9415 10
    vertex 7.3829 23.9415 10
    endloop
  endfacet
  facet normal 0 1 0
    outer loop
    vertex 7.3829 23.9415 10
    vertex 10.2113 23.9415 10
    vertex 7.3829 23.9415 0
    endloop
  endfacet
  facet normal 0 1 0
    outer loop
    vertex 7.3829 23.9415 0
    vertex 10.2113 23.9415 10
    vertex 10.2113 23.9415 0
    endloop
  endfacet
  facet normal 0 0 1
    outer loop
    vertex 7.94859 22.7394 10
    vertex 7.3829 23.9415 10
    vertex 5.82727 22.3858 10
    endloop
  endfacet
  facet normal 0 -0 1
    outer loop
    vertex 5.82727 22.3858 10
    vertex 6.71115 21.5019 10
    vertex 7.94859 22.7394 10
    endloop
  endfacet
  facet normal 0.707107 -0.707106 0
    outer loop
    vertex 7.94859 22.7394 10
    vertex 6.71115 21.5019 10
    vertex 7.94859 22.7394 0
    endloop
  endfacet
  facet normal -0.707107 -0.707106 -0
    outer loop
    vertex 9.18602 21.5019 0
    vertex 7.94859 22.7394 10
    vertex 7.94859 22.7394 0
    endloop
  endfacet
  facet normal -0.707106 0.707107 0
    outer loop
    vertex 5.82727 22.3858 10
    vertex 7.3829 23.9415 10
    vertex 5.82727 22.3858 0
    endloop
  endfacet
  facet normal -0.707106 0.707107 0
    outer loop
    vertex 5.82727 22.3858 0
    vertex 7.3829 23.9415 10
    vertex 7.3829 23.9415 0
    endloop
  endfacet
  facet normal -0.707108 -0.707106 0
    outer loop
    vertex 6.71115 21.5019 10
    vertex 5.82727 22.3858 10
    vertex 6.71115 21.5019 0
    endloop
  endfacet
  facet normal -0.707108 -0.707106 -0
    outer loop
    vertex 6.71115 21.5019 0
    vertex 5.82727 22.3858 10
    vertex 5.82727 22.3858 0
    endloop
  endfacet
  facet normal -0.866025 -0.5 -0
    outer loop
    vertex 22.3 8.3413 0
    vertex 19.2878 13.5585 10
    vertex 19.2878 13.5585 0
    endloop
  endfacet
  facet normal 0.707107 -0.707106 0
    outer loop
    vertex 7.94859 22.7394 0
    vertex 6.71115 21.5019 10
    vertex 6.71115 21.5019 0
    endloop
  endfacet
  facet normal -0.707107 0.707107 0
    outer loop
    vertex -30.412 -18.096 10
    vertex -26.8764 -14.5605 10
    vertex -26.8764 -14.5605 0
    endloop
  endfacet
  facet normal 0.5 0.5 0.707107
    outer loop
    vertex -26.1693 -13.8534 9
    vertex -26.8764 -14.5605 10
    vertex -23.3409 -16.6818 9
    endloop
  endfacet
  facet normal -0.707108 0.707106 0
    outer loop
    vertex -26.8764 -14.5605 0
    vertex -26.8764 -14.5605 10
    vertex -26.1693 -13.8534 9
    endloop
  endfacet
  facet normal 0 0 1
    outer loop
    vertex -26.9 -23.9415 10
    vertex -30.412 -18.096 10
    vertex -33.7 -17.1415 10
    endloop
  endfacet
  facet normal 0 0 1
    outer loop
    vertex -33.7 -17.1415 10
    vertex -30.412 -18.096 10
    vertex -31.6494 -16.8586 10
    endloop
  endfacet
  facet normal 0.707108 0.707106 0
    outer loop
    vertex -31.6494 -16.8586 10
    vertex -30.412 -18.096 10
    vertex -31.6494 -16.8586 0
    endloop
  endfacet
  facet normal -0.707107 0.707107 0
    outer loop
    vertex -26.8764 -14.5605 0
    vertex -30.412 -18.096 0
    vertex -30.412 -18.096 10
    endloop
  endfacet
  facet normal 0.707108 0.707106 0
    outer loop
    vertex -31.6494 -16.8586 0
    vertex -30.412 -18.096 10
    vertex -30.412 -18.096 0
    endloop
  endfacet
  facet normal 0 0 1
    outer loop
    vertex -9.76584 -19.4415 10
    vertex -26.9 -23.9415 10
    vertex -4.00925 -19.4415 10
    endloop
  endfacet
  facet normal 0 0 1
    outer loop
    vertex -4.00925 -19.4415 10
    vertex -26.9 -23.9415 10
    vertex 5.78879 -19.4415 10
    endloop
  endfacet
  facet normal -0.707107 -0.707107 0
    outer loop
    vertex -26.9 -23.9415 10
    vertex -33.7 -17.1415 10
    vertex -26.9 -23.9415 0
    endloop
  endfacet
  facet normal 0 1 0
    outer loop
    vertex -9.76584 -19.4415 10
    vertex -4.00925 -19.4415 10
    vertex -9.76584 -19.4415 0
    endloop
  endfacet
  facet normal 0.866026 0.5 0
    outer loop
    vertex -12.6441 -14.4561 10
    vertex -9.76584 -19.4415 10
    vertex -12.6441 -14.4561 0
    endloop
  endfacet
  facet normal 0.866026 0.5 0
    outer loop
    vertex -12.6441 -14.4561 0
    vertex -9.76584 -19.4415 10
    vertex -9.76584 -19.4415 0
    endloop
  endfacet
  facet normal 0 0 1
    outer loop
    vertex -4.00925 -19.4415 10
    vertex 5.78879 -19.4415 10
    vertex -1.13096 -14.4561 10
    endloop
  endfacet
  facet normal -0.866026 0.5 0
    outer loop
    vertex -4.00925 -19.4415 10
    vertex -1.13096 -14.4561 10
    vertex -4.00925 -19.4415 0
    endloop
  endfacet
  facet normal 0 1 0
    outer loop
    vertex -9.76584 -19.4415 0
    vertex -4.00925 -19.4415 10
    vertex -4.00925 -19.4415 0
    endloop
  endfacet
  facet normal 0 0 1
    outer loop
    vertex -1.13096 -14.4561 10
    vertex 5.78879 -19.4415 10
    vertex 0.285056 -9.9087 10
    endloop
  endfacet
  facet normal 0.866025 0.5 0
    outer loop
    vertex 0.285056 -9.9087 10
    vertex 5.78879 -19.4415 10
    vertex 0.285056 -9.9087 0
    endloop
  endfacet
  facet normal 0 1 0
    outer loop
    vertex 5.78879 -19.4415 10
    vertex 16.7963 -19.4415 10
    vertex 5.78879 -19.4415 0
    endloop
  endfacet
  facet normal 0.866025 0.5 0
    outer loop
    vertex 0.285056 -9.9087 0
    vertex 5.78879 -19.4415 10
    vertex 5.78879 -19.4415 0
    endloop
  endfacet
  facet normal 0 0 1
    outer loop
    vertex -1.13096 -14.4561 10
    vertex 0.285056 -9.9087 10
    vertex -4.00925 -9.47075 10
    endloop
  endfacet
  facet normal -0.866026 -0.5 0
    outer loop
    vertex -1.13096 -14.4561 10
    vertex -4.00925 -9.47075 10
    vertex -1.13096 -14.4561 0
    endloop
  endfacet
  facet normal -0.866026 0.5 0
    outer loop
    vertex -4.00925 -19.4415 0
    vertex -1.13096 -14.4561 10
    vertex -1.13096 -14.4561 0
    endloop
  endfacet
  facet normal 0.866025 -0.5 0
    outer loop
    vertex 5.78879 -0.375953 0
    vertex 0.285056 -9.9087 10
    vertex 0.285056 -9.9087 0
    endloop
  endfacet
  facet normal -0.866026 -0.5 -0
    outer loop
    vertex -1.13096 -14.4561 0
    vertex -4.00925 -9.47075 10
    vertex -4.00925 -9.47075 0
    endloop
  endfacet
  facet normal 0 -0 1
    outer loop
    vertex -33.7 -17.1415 10
    vertex -31.6494 -16.8586 10
    vertex -31.2958 -14.7373 10
    endloop
  endfacet
  facet normal -0.707107 0.707106 0
    outer loop
    vertex -33.7 -17.1415 10
    vertex -31.2958 -14.7373 10
    vertex -33.7 -17.1415 0
    endloop
  endfacet
  facet normal -0.707107 -0.707107 -0
    outer loop
    vertex -26.9 -23.9415 0
    vertex -33.7 -17.1415 10
    vertex -33.7 -17.1415 0
    endloop
  endfacet
  facet normal 0 0 1
    outer loop
    vertex -31.2958 -14.7373 10
    vertex -31.6494 -16.8586 10
    vertex -30.412 -15.6212 10
    endloop
  endfacet
  facet normal 0.707107 -0.707107 0
    outer loop
    vertex -30.412 -15.6212 10
    vertex -31.6494 -16.8586 10
    vertex -30.412 -15.6212 0
    endloop
  endfacet
  facet normal 0.707107 -0.707107 0
    outer loop
    vertex -30.412 -15.6212 0
    vertex -31.6494 -16.8586 10
    vertex -31.6494 -16.8586 0
    endloop
  endfacet
  facet normal 0.707107 0.707107 0
    outer loop
    vertex -31.2958 -14.7373 10
    vertex -30.412 -15.6212 10
    vertex -31.2958 -14.7373 0
    endloop
  endfacet
  facet normal -0.707107 0.707106 0
    outer loop
    vertex -33.7 -17.1415 0
    vertex -31.2958 -14.7373 10
    vertex -31.2958 -14.7373 0
    endloop
  endfacet
  facet normal 0.707107 0.707107 0
    outer loop
    vertex -31.2958 -14.7373 0
    vertex -30.412 -15.6212 10
    vertex -30.412 -15.6212 0
    endloop
  endfacet
  facet normal 0 1 0
    outer loop
    vertex 5.78879 -19.4415 0
    vertex 16.7963 -19.4415 10
    vertex 16.7963 -19.4415 0
    endloop
  endfacet
  facet normal 0.866026 -0.5 0
    outer loop
    vertex -9.76584 -9.47075 0
    vertex -12.6441 -14.4561 10
    vertex -12.6441 -14.4561 0
    endloop
  endfacet
  facet normal 0.707106 0.707107 0
    outer loop
    vertex -26.1693 -13.8534 9
    vertex -23.3409 -16.6818 9
    vertex -26.1693 -13.8534 1
    endloop
  endfacet
  facet normal -0.707108 0.707106 0
    outer loop
    vertex -26.8764 -14.5605 0
    vertex -26.1693 -13.8534 9
    vertex -26.1693 -13.8534 1
    endloop
  endfacet
  facet normal -0.707107 0.707107 0
    outer loop
    vertex -23.3409 -16.6818 9
    vertex 7.77181 14.4309 9
    vertex -23.3409 -16.6818 1
    endloop
  endfacet
  facet normal 0.707106 0.707107 0
    outer loop
    vertex -26.1693 -13.8534 1
    vertex -23.3409 -16.6818 9
    vertex -23.3409 -16.6818 1
    endloop
  endfacet
  facet normal -0.707107 -0.707107 0
    outer loop
    vertex 7.77181 14.4309 9
    vertex 4.94338 17.2593 9
    vertex 7.77181 14.4309 1
    endloop
  endfacet
  facet normal -0.707107 0.707107 0
    outer loop
    vertex -23.3409 -16.6818 1
    vertex 7.77181 14.4309 9
    vertex 7.77181 14.4309 1
    endloop
  endfacet
  facet normal -0.707107 -0.707107 -0
    outer loop
    vertex 7.77181 14.4309 1
    vertex 4.94338 17.2593 9
    vertex 4.94338 17.2593 1
    endloop
  endfacet
  facet normal -0.707107 0.707106 0
    outer loop
    vertex 4.94338 17.2593 1
    vertex 4.94338 17.2593 9
    vertex 5.65049 17.9664 0
    endloop
  endfacet
  facet normal 0.5 0.5 -0.707107
    outer loop
    vertex -23.3409 -16.6818 1
    vertex -26.8764 -14.5605 0
    vertex -26.1693 -13.8534 1
    endloop
  endfacet
  facet normal -0.5 0.5 -0.707107
    outer loop
    vertex 7.77181 14.4309 1
    vertex -23.3409 -18.096 0
    vertex -23.3409 -16.6818 1
    endloop
  endfacet
  facet normal 0.499999 0.5 -0.707107
    outer loop
    vertex -23.3409 -18.096 0
    vertex -26.8764 -14.5605 0
    vertex -23.3409 -16.6818 1
    endloop
  endfacet
  facet normal -0.5 -0.5 -0.707107
    outer loop
    vertex 4.94338 17.2593 1
    vertex 5.65049 17.9664 0
    vertex 7.77181 14.4309 1
    endloop
  endfacet
  facet normal -0.5 -0.5 -0.707107
    outer loop
    vertex 7.77181 14.4309 1
    vertex 5.65049 17.9664 0
    vertex 9.18602 14.4309 0
    endloop
  endfacet
  facet normal -0.5 0.5 -0.707107
    outer loop
    vertex 9.18602 14.4309 0
    vertex -23.3409 -18.096 0
    vertex 7.77181 14.4309 1
    endloop
  endfacet
  facet normal 0 -0 -1
    outer loop
    vertex 5.65049 17.9664 0
    vertex 9.18602 21.5019 0
    vertex 16.0942 18.0585 0
    endloop
  endfacet
  facet normal 0 0 -1
    outer loop
    vertex 5.65049 17.9664 0
    vertex 16.0942 18.0585 0
    vertex 9.18602 14.4309 0
    endloop
  endfacet
  facet normal 0 0 -1
    outer loop
    vertex 16.0942 18.0585 0
    vertex 9.18602 21.5019 0
    vertex 10.2113 23.9415 0
    endloop
  endfacet
  facet normal 0 0 -1
    outer loop
    vertex 10.2113 23.9415 0
    vertex 9.18602 21.5019 0
    vertex 7.94859 22.7394 0
    endloop
  endfacet
  facet normal -0 0 -1
    outer loop
    vertex 9.18602 14.4309 0
    vertex -9.76584 -9.47075 0
    vertex -23.3409 -18.096 0
    endloop
  endfacet
  facet normal 0 0 -1
    outer loop
    vertex 9.18602 14.4309 0
    vertex 16.0942 18.0585 0
    vertex 13.2635 13.5585 0
    endloop
  endfacet
  facet normal 0 0 -1
    outer loop
    vertex 10.2513 8.3413 0
    vertex -9.76584 -9.47075 0
    vertex 9.18602 14.4309 0
    endloop
  endfacet
  facet normal -0 0 -1
    outer loop
    vertex 9.18602 14.4309 0
    vertex 13.2635 13.5585 0
    vertex 10.2513 8.3413 0
    endloop
  endfacet
  facet normal 0 -0 -1
    outer loop
    vertex -30.412 -18.096 0
    vertex -26.8764 -14.5605 0
    vertex -23.3409 -18.096 0
    endloop
  endfacet
  facet normal 0 0 -1
    outer loop
    vertex -23.3409 -18.096 0
    vertex -9.76584 -9.47075 0
    vertex -12.6441 -14.4561 0
    endloop
  endfacet
  facet normal 0 -0 -1
    outer loop
    vertex -23.3409 -18.096 0
    vertex -12.6441 -14.4561 0
    vertex -9.76584 -19.4415 0
    endloop
  endfacet
  facet normal 0 0 -1
    outer loop
    vertex -9.76584 -19.4415 0
    vertex -26.9 -23.9415 0
    vertex -23.3409 -18.096 0
    endloop
  endfacet
  facet normal 0 0 -1
    outer loop
    vertex -23.3409 -18.096 0
    vertex -26.9 -23.9415 0
    vertex -30.412 -18.096 0
    endloop
  endfacet
  facet normal 0 -0 -1
    outer loop
    vertex 13.2635 13.5585 0
    vertex 16.0942 18.0585 0
    vertex 19.2878 13.5585 0
    endloop
  endfacet
  facet normal 0 0 -1
    outer loop
    vertex 22.3 8.3413 0
    vertex 22.3 -9.9087 0
    vertex 19.2878 3.12405 0
    endloop
  endfacet
  facet normal 0 0 -1
    outer loop
    vertex 19.2878 3.12405 0
    vertex 22.3 -9.9087 0
    vertex 16.7963 -0.375953 0
    endloop
  endfacet
  facet normal 0 0 -1
    outer loop
    vertex 19.2878 3.12405 0
    vertex 16.7963 -0.375953 0
    vertex 13.2635 3.12405 0
    endloop
  endfacet
  facet normal 0 0 -1
    outer loop
    vertex 13.2635 3.12405 0
    vertex 16.7963 -0.375953 0
    vertex 5.78879 -0.375953 0
    endloop
  endfacet
  facet normal 0 0 -1
    outer loop
    vertex 13.2635 3.12405 0
    vertex 5.78879 -0.375953 0
    vertex 10.2513 8.3413 0
    endloop
  endfacet
  facet normal -0 0 -1
    outer loop
    vertex 10.2513 8.3413 0
    vertex 5.78879 -0.375953 0
    vertex -9.76584 -9.47075 0
    endloop
  endfacet
  facet normal 0 0 -1
    outer loop
    vertex 5.78879 -0.375953 0
    vertex -4.00925 -9.47075 0
    vertex -9.76584 -9.47075 0
    endloop
  endfacet
  facet normal 0 0 -1
    outer loop
    vertex 0.285056 -9.9087 0
    vertex -4.00925 -9.47075 0
    vertex 5.78879 -0.375953 0
    endloop
  endfacet
  facet normal 0 0 -1
    outer loop
    vertex -4.00925 -19.4415 0
    vertex -26.9 -23.9415 0
    vertex -9.76584 -19.4415 0
    endloop
  endfacet
  facet normal 0 0 -1
    outer loop
    vertex 5.78879 -19.4415 0
    vertex -26.9 -23.9415 0
    vertex -4.00925 -19.4415 0
    endloop
  endfacet
  facet normal 0 -0 -1
    outer loop
    vertex -4.00925 -19.4415 0
    vertex -1.13096 -14.4561 0
    vertex 5.78879 -19.4415 0
    endloop
  endfacet
  facet normal 0 0 -1
    outer loop
    vertex 5.78879 -19.4415 0
    vertex -1.13096 -14.4561 0
    vertex 0.285056 -9.9087 0
    endloop
  endfacet
  facet normal 0 0 -1
    outer loop
    vertex -30.412 -18.096 0
    vertex -26.9 -23.9415 0
    vertex -33.7 -17.1415 0
    endloop
  endfacet
  facet normal 0 0 -1
    outer loop
    vertex -30.412 -18.096 0
    vertex -33.7 -17.1415 0
    vertex -31.6494 -16.8586 0
    endloop
  endfacet
  facet normal 0 0 -1
    outer loop
    vertex -31.6494 -16.8586 0
    vertex -33.7 -17.1415 0
    vertex -31.2958 -14.7373 0
    endloop
  endfacet
  facet normal 0 -0 -1
    outer loop
    vertex -31.6494 -16.8586 0
    vertex -31.2958 -14.7373 0
    vertex -30.412 -15.6212 0
    endloop
  endfacet
  facet normal 0 0 -1
    outer loop
    vertex 10.2113 23.9415 0
    vertex 7.94859 22.7394 0
    vertex 7.3829 23.9415 0
    endloop
  endfacet
  facet normal -0 0 -1
    outer loop
    vertex 7.3829 23.9415 0
    vertex 7.94859 22.7394 0
    vertex 5.82727 22.3858 0
    endloop
  endfacet
  facet normal 0 0 -1
    outer loop
    vertex 5.82727 22.3858 0
    vertex 7.94859 22.7394 0
    vertex 6.71115 21.5019 0
    endloop
  endfacet
  facet normal 0 0 -1
    outer loop
    vertex 0.285056 -9.9087 0
    vertex -1.13096 -14.4561 0
    vertex -4.00925 -9.47075 0
    endloop
  endfacet
  facet normal -1 -0 0
    outer loop
    vertex 26.3 0.808549 15.25
    vertex 26.3 3.40855 15.25
    vertex 26.3 0.861986 14.5028
    endloop
  endfacet
  facet normal -1 0 0
    outer loop
    vertex 26.3 0.808549 15.25
    vertex 26.3 3.85515 16.7223
    vertex 26.3 3.61027 16.2641
    endloop
  endfacet
  facet normal -1 0 0
    outer loop
    vertex 26.3 0.808549 15.25
    vertex 26.3 3.61027 16.2641
    vertex 26.3 3.45947 15.767
    endloop
  endfacet
  facet normal -1 0 0
    outer loop
    vertex 26.3 3.45947 15.767
    vertex 26.3 3.40855 15.25
    vertex 26.3 0.808549 15.25
    endloop
  endfacet
  facet normal -1 0 0
    outer loop
    vertex 26.3 0.861986 14.5028
    vertex 26.3 3.45947 14.733
    vertex 26.3 1.02121 13.7709
    endloop
  endfacet
  facet normal -1 0 -0
    outer loop
    vertex 26.3 0.861986 14.5028
    vertex 26.3 3.40855 15.25
    vertex 26.3 3.45947 14.733
    endloop
  endfacet
  facet normal -1 0 0
    outer loop
    vertex 26.3 1.02121 13.7709
    vertex 26.3 3.45947 14.733
    vertex 26.3 1.28298 13.0691
    endloop
  endfacet
  facet normal -1 0 0
    outer loop
    vertex 26.3 1.28298 13.0691
    vertex 26.3 3.61027 14.2359
    vertex 26.3 1.64197 12.4116
    endloop
  endfacet
  facet normal -1 0 -0
    outer loop
    vertex 26.3 1.28298 13.0691
    vertex 26.3 3.45947 14.733
    vertex 26.3 3.61027 14.2359
    endloop
  endfacet
  facet normal -1 0 0
    outer loop
    vertex 26.3 1.64197 12.4116
    vertex 26.3 3.85515 13.7777
    vertex 26.3 2.09086 11.812
    endloop
  endfacet
  facet normal -1 0 -0
    outer loop
    vertex 26.3 1.64197 12.4116
    vertex 26.3 3.61027 14.2359
    vertex 26.3 3.85515 13.7777
    endloop
  endfacet
  facet normal -1 0 0
    outer loop
    vertex 26.3 2.09086 11.812
    vertex 26.3 3.85515 13.7777
    vertex 26.3 2.62053 11.2823
    endloop
  endfacet
  facet normal -1 0 0
    outer loop
    vertex 26.3 2.62053 11.2823
    vertex 26.3 4.18472 13.3762
    vertex 26.3 3.22018 10.8334
    endloop
  endfacet
  facet normal -1 0 -0
    outer loop
    vertex 26.3 2.62053 11.2823
    vertex 26.3 3.85515 13.7777
    vertex 26.3 4.18472 13.3762
    endloop
  endfacet
  facet normal -1 0 0
    outer loop
    vertex 26.3 3.22018 10.8334
    vertex 26.3 4.58629 13.0466
    vertex 26.3 3.87762 10.4744
    endloop
  endfacet
  facet normal -1 0 -0
    outer loop
    vertex 26.3 3.22018 10.8334
    vertex 26.3 4.18472 13.3762
    vertex 26.3 4.58629 13.0466
    endloop
  endfacet
  facet normal -1 0 0
    outer loop
    vertex 26.3 3.87762 10.4744
    vertex 26.3 5.04444 12.8017
    vertex 26.3 4.57945 10.2127
    endloop
  endfacet
  facet normal -1 0 -0
    outer loop
    vertex 26.3 3.87762 10.4744
    vertex 26.3 4.58629 13.0466
    vertex 26.3 5.04444 12.8017
    endloop
  endfacet
  facet normal -1 0 0
    outer loop
    vertex 26.3 4.57945 10.2127
    vertex 26.3 5.54156 12.6509
    vertex 26.3 5.3114 10.0534
    endloop
  endfacet
  facet normal -1 0 -0
    outer loop
    vertex 26.3 4.57945 10.2127
    vertex 26.3 5.04444 12.8017
    vertex 26.3 5.54156 12.6509
    endloop
  endfacet
  facet normal -1 0 -0
    outer loop
    vertex 26.3 5.3114 10.0534
    vertex 26.3 6.05855 12.6
    vertex 26.3 6.05855 10
    endloop
  endfacet
  facet normal -1 0 -0
    outer loop
    vertex 26.3 5.3114 10.0534
    vertex 26.3 5.54156 12.6509
    vertex 26.3 6.05855 12.6
    endloop
  endfacet
  facet normal -1 0 0
    outer loop
    vertex 26.3 6.05855 10
    vertex 26.3 6.05855 12.6
    vertex 26.3 6.8057 10.0534
    endloop
  endfacet
  facet normal -1 0 0
    outer loop
    vertex 26.3 6.8057 10.0534
    vertex 26.3 6.57554 12.6509
    vertex 26.3 7.53764 10.2127
    endloop
  endfacet
  facet normal -1 0 0
    outer loop
    vertex 26.3 6.8057 10.0534
    vertex 26.3 6.05855 12.6
    vertex 26.3 6.57554 12.6509
    endloop
  endfacet
  facet normal -1 0 0
    outer loop
    vertex 26.3 7.53764 10.2127
    vertex 26.3 7.07266 12.8017
    vertex 26.3 8.23947 10.4744
    endloop
  endfacet
  facet normal -1 0 0
    outer loop
    vertex 26.3 7.53764 10.2127
    vertex 26.3 6.57554 12.6509
    vertex 26.3 7.07266 12.8017
    endloop
  endfacet
  facet normal -1 0 0
    outer loop
    vertex 26.3 8.23947 10.4744
    vertex 26.3 7.53081 13.0466
    vertex 26.3 8.89691 10.8334
    endloop
  endfacet
  facet normal -1 0 0
    outer loop
    vertex 26.3 8.23947 10.4744
    vertex 26.3 7.07266 12.8017
    vertex 26.3 7.53081 13.0466
    endloop
  endfacet
  facet normal -1 0 0
    outer loop
    vertex 26.3 8.89691 10.8334
    vertex 26.3 7.93238 13.3762
    vertex 26.3 9.49657 11.2823
    endloop
  endfacet
  facet normal -1 0 0
    outer loop
    vertex 26.3 8.89691 10.8334
    vertex 26.3 7.53081 13.0466
    vertex 26.3 7.93238 13.3762
    endloop
  endfacet
  facet normal -1 0 0
    outer loop
    vertex 26.3 9.49657 11.2823
    vertex 26.3 8.26194 13.7777
    vertex 26.3 10.0262 11.812
    endloop
  endfacet
  facet normal -1 0 0
    outer loop
    vertex 26.3 9.49657 11.2823
    vertex 26.3 7.93238 13.3762
    vertex 26.3 8.26194 13.7777
    endloop
  endfacet
  facet normal -1 0 0
    outer loop
    vertex 26.3 10.0262 11.812
    vertex 26.3 8.26194 13.7777
    vertex 26.3 10.4751 12.4116
    endloop
  endfacet
  facet normal -1 0 0
    outer loop
    vertex 26.3 10.4751 12.4116
    vertex 26.3 8.50683 14.2359
    vertex 26.3 10.8341 13.0691
    endloop
  endfacet
  facet normal -1 0 0
    outer loop
    vertex 26.3 10.4751 12.4116
    vertex 26.3 8.26194 13.7777
    vertex 26.3 8.50683 14.2359
    endloop
  endfacet
  facet normal -1 -0 0
    outer loop
    vertex 26.3 8.65763 14.733
    vertex 26.3 11.0959 13.7709
    vertex 26.3 10.8341 13.0691
    endloop
  endfacet
  facet normal -1 0 0
    outer loop
    vertex 26.3 10.8341 13.0691
    vertex 26.3 8.50683 14.2359
    vertex 26.3 8.65763 14.733
    endloop
  endfacet
  facet normal -1 -0 0
    outer loop
    vertex 26.3 8.65763 14.733
    vertex 26.3 11.2551 14.5028
    vertex 26.3 11.0959 13.7709
    endloop
  endfacet
  facet normal -1 -0 0
    outer loop
    vertex 26.3 8.70855 15.25
    vertex 26.3 11.3085 15.25
    vertex 26.3 11.2551 14.5028
    endloop
  endfacet
  facet normal -1 0 0
    outer loop
    vertex 26.3 8.70855 15.25
    vertex 26.3 11.2551 14.5028
    vertex 26.3 8.65763 14.733
    endloop
  endfacet
  facet normal -1 0 0
    outer loop
    vertex 26.3 8.65763 15.767
    vertex 26.3 11.3085 15.25
    vertex 26.3 8.70855 15.25
    endloop
  endfacet
  facet normal -1 0 0
    outer loop
    vertex 26.3 8.65763 15.767
    vertex 26.3 8.50683 16.2641
    vertex 26.3 11.3085 15.25
    endloop
  endfacet
  facet normal -1 0 0
    outer loop
    vertex 26.3 11.3085 15.25
    vertex 26.3 8.50683 16.2641
    vertex 26.3 8.26194 16.7223
    endloop
  endfacet
  facet normal 0 -1 -0
    outer loop
    vertex 29.9272 17.1585 15.145
    vertex 29.9272 17.1585 15.355
    vertex 27.2 17.1585 15.145
    endloop
  endfacet
  facet normal -0.707107 -0.707107 0
    outer loop
    vertex 29.9272 17.1585 15.355
    vertex 29.9272 17.1585 15.145
    vertex 31.4 15.6858 15.355
    endloop
  endfacet
  facet normal 0 0 1
    outer loop
    vertex 27.2 9.60855 15.145
    vertex 29.9272 17.1585 15.145
    vertex 27.2 17.1585 15.145
    endloop
  endfacet
  facet normal 0 0 1
    outer loop
    vertex 27.2 9.60855 15.145
    vertex 31.4 15.6858 15.145
    vertex 29.9272 17.1585 15.145
    endloop
  endfacet
  facet normal -0.707107 -0.707107 0
    outer loop
    vertex 31.4 15.6858 15.355
    vertex 29.9272 17.1585 15.145
    vertex 31.4 15.6858 15.145
    endloop
  endfacet
  facet normal -0 -1 0
    outer loop
    vertex 27.2 17.1585 15.145
    vertex 29.9272 17.1585 15.355
    vertex 27.2 17.1585 15.355
    endloop
  endfacet
  facet normal -0 0 -1
    outer loop
    vertex 27.2 17.1585 15.355
    vertex 29.9272 17.1585 15.355
    vertex 27.2 9.60855 15.355
    endloop
  endfacet
  facet normal 0 -0 -1
    outer loop
    vertex 27.2 9.60855 15.355
    vertex 29.9272 17.1585 15.355
    vertex 31.4 15.6858 15.355
    endloop
  endfacet
  facet normal 1 0 -0
    outer loop
    vertex 27.2 9.60855 15.355
    vertex 27.2 17.1585 15.145
    vertex 27.2 17.1585 15.355
    endloop
  endfacet
  facet normal 1 0 0
    outer loop
    vertex 27.2 9.60855 15.145
    vertex 27.2 17.1585 15.145
    vertex 27.2 9.60855 15.355
    endloop
  endfacet
  facet normal 0 0 1
    outer loop
    vertex 31.4 10.1858 15.145
    vertex 31.4 15.6858 15.145
    vertex 27.2 9.60855 15.145
    endloop
  endfacet
  facet normal -1 0 -0
    outer loop
    vertex 31.4 10.1858 15.145
    vertex 31.4 15.6858 15.355
    vertex 31.4 15.6858 15.145
    endloop
  endfacet
  facet normal 0 0 1
    outer loop
    vertex 27.2 9.60855 15.145
    vertex 31.9772 9.60855 15.145
    vertex 31.4 10.1858 15.145
    endloop
  endfacet
  facet normal -0.707108 -0.707106 -0
    outer loop
    vertex 31.9772 9.60855 15.145
    vertex 31.4 10.1858 15.355
    vertex 31.4 10.1858 15.145
    endloop
  endfacet
  facet normal -1 -0 0
    outer loop
    vertex 31.4 10.1858 15.355
    vertex 31.4 15.6858 15.355
    vertex 31.4 10.1858 15.145
    endloop
  endfacet
  facet normal 0 1 0
    outer loop
    vertex 27.2 9.60855 15.355
    vertex 31.9772 9.60855 15.145
    vertex 27.2 9.60855 15.145
    endloop
  endfacet
  facet normal 0 1 -0
    outer loop
    vertex 31.9772 9.60855 15.355
    vertex 31.9772 9.60855 15.145
    vertex 27.2 9.60855 15.355
    endloop
  endfacet
  facet normal -0.707108 -0.707106 0
    outer loop
    vertex 31.9772 9.60855 15.355
    vertex 31.4 10.1858 15.355
    vertex 31.9772 9.60855 15.145
    endloop
  endfacet
  facet normal 0 -0 -1
    outer loop
    vertex 27.2 9.60855 15.355
    vertex 31.4 15.6858 15.355
    vertex 31.4 10.1858 15.355
    endloop
  endfacet
  facet normal 0 0 -1
    outer loop
    vertex 31.4 10.1858 15.355
    vertex 31.9772 9.60855 15.355
    vertex 27.2 9.60855 15.355
    endloop
  endfacet
endsolid lcd_support_b.stl
