solid lcd_support_b.stl
  facet normal 0.707107 0 -0.707106
    outer loop
    vertex 32.3 10.5585 10
    vertex 33.7 9.15855 11.4
    vertex 32.3 1.55855 10
    endloop
  endfacet
  facet normal 0.707108 0.707106 0
    outer loop
    vertex 32.3 10.5585 10
    vertex 32.3 10.5585 23
    vertex 33.7 9.15855 11.4
    endloop
  endfacet
  facet normal 1 0 0
    outer loop
    vertex 32.3 1.55855 10
    vertex 32.3 16.0585 0
    vertex 32.3 10.5585 10
    endloop
  endfacet
  facet normal 1 0 0
    outer loop
    vertex 32.3 10.5585 10
    vertex 32.3 16.0585 23
    vertex 32.3 10.5585 23
    endloop
  endfacet
  facet normal 1 0 -0
    outer loop
    vertex 32.3 10.5585 10
    vertex 32.3 16.0585 0
    vertex 32.3 16.0585 23
    endloop
  endfacet
  facet normal 0.707107 0 -0.707106
    outer loop
    vertex 32.3 1.55855 10
    vertex 33.7 9.15855 11.4
    vertex 33.7 2.95855 11.4
    endloop
  endfacet
  facet normal 1 0 0
    outer loop
    vertex 33.7 9.15855 11.4
    vertex 33.7 6.05855 12.6
    vertex 33.7 2.95855 11.4
    endloop
  endfacet
  facet normal 1 0 0
    outer loop
    vertex 33.7 9.15855 11.4
    vertex 33.7 6.57301 12.6504
    vertex 33.7 6.05855 12.6
    endloop
  endfacet
  facet normal 1 -0 0
    outer loop
    vertex 33.7 9.15855 23
    vertex 33.7 8.70847 15.2294
    vertex 33.7 9.15855 11.4
    endloop
  endfacet
  facet normal 0.707108 0.707106 0
    outer loop
    vertex 33.7 9.15855 11.4
    vertex 32.3 10.5585 23
    vertex 33.7 9.15855 23
    endloop
  endfacet
  facet normal 1 0 0
    outer loop
    vertex 33.7 9.15855 11.4
    vertex 33.7 8.70847 15.2294
    vertex 33.7 8.65405 14.7153
    endloop
  endfacet
  facet normal 1 0 0
    outer loop
    vertex 33.7 9.15855 11.4
    vertex 33.7 8.65405 14.7153
    vertex 33.7 8.50087 14.2216
    endloop
  endfacet
  facet normal 1 -0 0
    outer loop
    vertex 33.7 8.50087 14.2216
    vertex 33.7 8.25476 13.767
    vertex 33.7 9.15855 11.4
    endloop
  endfacet
  facet normal 1 0 0
    outer loop
    vertex 33.7 9.15855 11.4
    vertex 33.7 8.25476 13.767
    vertex 33.7 7.92508 13.3689
    endloop
  endfacet
  facet normal 1 0 0
    outer loop
    vertex 33.7 9.15855 11.4
    vertex 33.7 7.92508 13.3689
    vertex 33.7 7.52437 13.0423
    endloop
  endfacet
  facet normal 1 -0 0
    outer loop
    vertex 33.7 7.52437 13.0423
    vertex 33.7 7.06789 12.7998
    vertex 33.7 9.15855 11.4
    endloop
  endfacet
  facet normal 1 0 0
    outer loop
    vertex 33.7 9.15855 11.4
    vertex 33.7 7.06789 12.7998
    vertex 33.7 6.57301 12.6504
    endloop
  endfacet
  facet normal 0.707108 -0.707106 0
    outer loop
    vertex 32.3 1.55855 10
    vertex 33.7 2.95855 11.4
    vertex 32.3 1.55855 23
    endloop
  endfacet
  facet normal 1 -0 0
    outer loop
    vertex 32.3 1.55855 23
    vertex 32.3 -6.52962 21.0884
    vertex 32.3 1.55855 10
    endloop
  endfacet
  facet normal 1 0 0
    outer loop
    vertex 32.3 1.55855 10
    vertex 32.3 -6.52962 21.0884
    vertex 32.3 -9.94145 10
    endloop
  endfacet
  facet normal 1 -0 0
    outer loop
    vertex 32.3 1.55855 10
    vertex 32.3 -9.94145 10
    vertex 32.3 -23.9415 0
    endloop
  endfacet
  facet normal 1 0 0
    outer loop
    vertex 32.3 -23.9415 0
    vertex 32.3 16.0585 0
    vertex 32.3 1.55855 10
    endloop
  endfacet
  facet normal 1 0 0
    outer loop
    vertex 33.7 2.95855 11.4
    vertex 33.7 6.05855 12.6
    vertex 33.7 5.54409 12.6504
    endloop
  endfacet
  facet normal 1 0 0
    outer loop
    vertex 33.7 2.95855 11.4
    vertex 33.7 5.54409 12.6504
    vertex 33.7 5.0492 12.7998
    endloop
  endfacet
  facet normal 1 0 0
    outer loop
    vertex 33.7 5.0492 12.7998
    vertex 33.7 4.59272 13.0423
    vertex 33.7 2.95855 11.4
    endloop
  endfacet
  facet normal 1 0 0
    outer loop
    vertex 33.7 2.95855 11.4
    vertex 33.7 3.40863 15.2294
    vertex 33.7 2.95855 23
    endloop
  endfacet
  facet normal 0.707108 -0.707106 0
    outer loop
    vertex 32.3 1.55855 23
    vertex 33.7 2.95855 11.4
    vertex 33.7 2.95855 23
    endloop
  endfacet
  facet normal 1 0 0
    outer loop
    vertex 33.7 2.95855 11.4
    vertex 33.7 3.46305 14.7153
    vertex 33.7 3.40863 15.2294
    endloop
  endfacet
  facet normal 1 0 0
    outer loop
    vertex 33.7 2.95855 11.4
    vertex 33.7 4.59272 13.0423
    vertex 33.7 4.19202 13.3689
    endloop
  endfacet
  facet normal 1 0 0
    outer loop
    vertex 33.7 2.95855 11.4
    vertex 33.7 4.19202 13.3689
    vertex 33.7 3.86234 13.767
    endloop
  endfacet
  facet normal 1 0 0
    outer loop
    vertex 33.7 3.86234 13.767
    vertex 33.7 3.61623 14.2216
    vertex 33.7 2.95855 11.4
    endloop
  endfacet
  facet normal 1 0 0
    outer loop
    vertex 33.7 2.95855 11.4
    vertex 33.7 3.61623 14.2216
    vertex 33.7 3.46305 14.7153
    endloop
  endfacet
  facet normal -0 0.097534 0.995232
    outer loop
    vertex 33.7 6.05855 12.6
    vertex 26.3 5.54409 12.6504
    vertex 33.7 5.54409 12.6504
    endloop
  endfacet
  facet normal 0 -0.097534 0.995232
    outer loop
    vertex 33.7 6.57301 12.6504
    vertex 26.3 6.05855 12.6
    vertex 33.7 6.05855 12.6
    endloop
  endfacet
  facet normal -0 0.097534 0.995232
    outer loop
    vertex 33.7 6.05855 12.6
    vertex 26.3 6.05855 12.6
    vertex 26.3 5.54409 12.6504
    endloop
  endfacet
  facet normal -0 0.288887 0.957363
    outer loop
    vertex 33.7 5.54409 12.6504
    vertex 26.3 5.0492 12.7998
    vertex 33.7 5.0492 12.7998
    endloop
  endfacet
  facet normal -0 0.288887 0.957363
    outer loop
    vertex 33.7 5.54409 12.6504
    vertex 26.3 5.54409 12.6504
    vertex 26.3 5.0492 12.7998
    endloop
  endfacet
  facet normal -0 0.469253 0.883064
    outer loop
    vertex 33.7 5.0492 12.7998
    vertex 26.3 4.59272 13.0423
    vertex 33.7 4.59272 13.0423
    endloop
  endfacet
  facet normal -0 0.469253 0.883064
    outer loop
    vertex 33.7 5.0492 12.7998
    vertex 26.3 5.0492 12.7998
    vertex 26.3 4.59272 13.0423
    endloop
  endfacet
  facet normal 1 0 -0
    outer loop
    vertex 33.7 8.66206 15.7442
    vertex 33.7 8.70847 15.2294
    vertex 33.7 9.15855 23
    endloop
  endfacet
  facet normal 1 0 -0
    outer loop
    vertex 33.7 2.95855 23
    vertex 33.7 6.89215 18.101
    vertex 33.7 9.15855 23
    endloop
  endfacet
  facet normal 0 -0 1
    outer loop
    vertex 32.3 10.5585 23
    vertex 33.7 2.95855 23
    vertex 33.7 9.15855 23
    endloop
  endfacet
  facet normal 1 -0 0
    outer loop
    vertex 33.7 9.15855 23
    vertex 33.7 6.89215 18.101
    vertex 33.7 7.55855 17.4346
    endloop
  endfacet
  facet normal 1 -0 0
    outer loop
    vertex 33.7 9.15855 23
    vertex 33.7 7.55855 17.4346
    vertex 33.7 7.95412 17.1018
    endloop
  endfacet
  facet normal 1 0 -0
    outer loop
    vertex 33.7 7.95412 17.1018
    vertex 33.7 8.27756 16.6986
    vertex 33.7 9.15855 23
    endloop
  endfacet
  facet normal 1 -0 0
    outer loop
    vertex 33.7 9.15855 23
    vertex 33.7 8.27756 16.6986
    vertex 33.7 8.51657 16.2403
    endloop
  endfacet
  facet normal 1 -0 0
    outer loop
    vertex 33.7 9.15855 23
    vertex 33.7 8.51657 16.2403
    vertex 33.7 8.66206 15.7442
    endloop
  endfacet
  facet normal 0 -0.994443 0.105277
    outer loop
    vertex 33.7 8.70847 15.2294
    vertex 26.3 8.70847 15.2294
    vertex 33.7 8.65405 14.7153
    endloop
  endfacet
  facet normal 0 -0.995961 -0.0897855
    outer loop
    vertex 33.7 8.66206 15.7442
    vertex 26.3 8.70847 15.2294
    vertex 33.7 8.70847 15.2294
    endloop
  endfacet
  facet normal 0 -0.955086 0.296327
    outer loop
    vertex 33.7 8.65405 14.7153
    vertex 26.3 8.65405 14.7153
    vertex 33.7 8.50087 14.2216
    endloop
  endfacet
  facet normal 0 -0.994443 0.105277
    outer loop
    vertex 33.7 8.65405 14.7153
    vertex 26.3 8.70847 15.2294
    vertex 26.3 8.65405 14.7153
    endloop
  endfacet
  facet normal 0 -0.879387 0.476108
    outer loop
    vertex 33.7 8.50087 14.2216
    vertex 26.3 8.25476 13.767
    vertex 33.7 8.25476 13.767
    endloop
  endfacet
  facet normal 0 -0.955086 0.296327
    outer loop
    vertex 33.7 8.50087 14.2216
    vertex 26.3 8.65405 14.7153
    vertex 26.3 8.50087 14.2216
    endloop
  endfacet
  facet normal 0 -0.879387 0.476108
    outer loop
    vertex 33.7 8.50087 14.2216
    vertex 26.3 8.50087 14.2216
    vertex 26.3 8.25476 13.767
    endloop
  endfacet
  facet normal 1 0 -0
    outer loop
    vertex 33.7 2.95855 23
    vertex 33.7 5.22494 18.101
    vertex 33.7 6.89215 18.101
    endloop
  endfacet
  facet normal 1 0 -0
    outer loop
    vertex 33.7 2.95855 23
    vertex 33.7 3.40863 15.2294
    vertex 33.7 3.45504 15.7442
    endloop
  endfacet
  facet normal 1 0 -0
    outer loop
    vertex 33.7 2.95855 23
    vertex 33.7 3.45504 15.7442
    vertex 33.7 3.60052 16.2403
    endloop
  endfacet
  facet normal 1 0 0
    outer loop
    vertex 33.7 3.60052 16.2403
    vertex 33.7 3.83953 16.6986
    vertex 33.7 2.95855 23
    endloop
  endfacet
  facet normal 1 0 -0
    outer loop
    vertex 33.7 2.95855 23
    vertex 33.7 3.83953 16.6986
    vertex 33.7 4.16297 17.1018
    endloop
  endfacet
  facet normal 1 0 -0
    outer loop
    vertex 33.7 2.95855 23
    vertex 33.7 4.16297 17.1018
    vertex 33.7 4.55855 17.4346
    endloop
  endfacet
  facet normal 1 0 0
    outer loop
    vertex 33.7 4.55855 17.4346
    vertex 33.7 5.22494 18.101
    vertex 33.7 2.95855 23
    endloop
  endfacet
  facet normal 0 0 1
    outer loop
    vertex 32.3 10.5585 23
    vertex 32.3 1.55855 23
    vertex 33.7 2.95855 23
    endloop
  endfacet
  facet normal 0 -0.707107 -0.707107
    outer loop
    vertex 33.7 6.89215 18.101
    vertex 26.3 7.55855 17.4346
    vertex 33.7 7.55855 17.4346
    endloop
  endfacet
  facet normal 0 0 -1
    outer loop
    vertex 33.7 5.22494 18.101
    vertex 26.3 6.89215 18.101
    vertex 33.7 6.89215 18.101
    endloop
  endfacet
  facet normal 0 -0.707107 -0.707107
    outer loop
    vertex 26.3 6.89215 18.101
    vertex 26.3 7.55855 17.4346
    vertex 33.7 6.89215 18.101
    endloop
  endfacet
  facet normal 0 -0.643742 -0.765243
    outer loop
    vertex 33.7 7.55855 17.4346
    vertex 26.3 7.95412 17.1018
    vertex 33.7 7.95412 17.1018
    endloop
  endfacet
  facet normal 0 -0.643742 -0.765243
    outer loop
    vertex 26.3 7.55855 17.4346
    vertex 26.3 7.95412 17.1018
    vertex 33.7 7.55855 17.4346
    endloop
  endfacet
  facet normal 0 -0.780059 -0.625706
    outer loop
    vertex 33.7 7.95412 17.1018
    vertex 26.3 8.27756 16.6986
    vertex 33.7 8.27756 16.6986
    endloop
  endfacet
  facet normal 0 -0.780059 -0.625706
    outer loop
    vertex 33.7 7.95412 17.1018
    vertex 26.3 7.95412 17.1018
    vertex 26.3 8.27756 16.6986
    endloop
  endfacet
  facet normal 0 0.995961 -0.089791
    outer loop
    vertex 33.7 3.40863 15.2294
    vertex 26.3 3.45504 15.7442
    vertex 33.7 3.45504 15.7442
    endloop
  endfacet
  facet normal -0 0.994443 0.105274
    outer loop
    vertex 33.7 3.46305 14.7153
    vertex 26.3 3.40863 15.2294
    vertex 33.7 3.40863 15.2294
    endloop
  endfacet
  facet normal 0 0.995961 -0.089791
    outer loop
    vertex 33.7 3.40863 15.2294
    vertex 26.3 3.40863 15.2294
    vertex 26.3 3.45504 15.7442
    endloop
  endfacet
  facet normal 0 0.959582 -0.28143
    outer loop
    vertex 33.7 3.45504 15.7442
    vertex 26.3 3.60052 16.2403
    vertex 33.7 3.60052 16.2403
    endloop
  endfacet
  facet normal 0 0.959582 -0.28143
    outer loop
    vertex 33.7 3.45504 15.7442
    vertex 26.3 3.45504 15.7442
    vertex 26.3 3.60052 16.2403
    endloop
  endfacet
  facet normal 0 0.886691 -0.462363
    outer loop
    vertex 33.7 3.60052 16.2403
    vertex 26.3 3.83953 16.6986
    vertex 33.7 3.83953 16.6986
    endloop
  endfacet
  facet normal 0 0.886691 -0.462363
    outer loop
    vertex 33.7 3.60052 16.2403
    vertex 26.3 3.60052 16.2403
    vertex 26.3 3.83953 16.6986
    endloop
  endfacet
  facet normal 0 -0.886689 -0.462367
    outer loop
    vertex 33.7 8.27756 16.6986
    vertex 26.3 8.51657 16.2403
    vertex 33.7 8.51657 16.2403
    endloop
  endfacet
  facet normal 0 -0.886689 -0.462367
    outer loop
    vertex 33.7 8.27756 16.6986
    vertex 26.3 8.27756 16.6986
    vertex 26.3 8.51657 16.2403
    endloop
  endfacet
  facet normal 0 -0.959579 -0.281438
    outer loop
    vertex 33.7 8.51657 16.2403
    vertex 26.3 8.66206 15.7442
    vertex 33.7 8.66206 15.7442
    endloop
  endfacet
  facet normal 0 -0.959579 -0.281438
    outer loop
    vertex 33.7 8.51657 16.2403
    vertex 26.3 8.51657 16.2403
    vertex 26.3 8.66206 15.7442
    endloop
  endfacet
  facet normal 0 -0.995961 -0.0897855
    outer loop
    vertex 33.7 8.66206 15.7442
    vertex 26.3 8.66206 15.7442
    vertex 26.3 8.70847 15.2294
    endloop
  endfacet
  facet normal 0 -0.770226 0.63777
    outer loop
    vertex 33.7 8.25476 13.767
    vertex 26.3 7.92508 13.3689
    vertex 33.7 7.92508 13.3689
    endloop
  endfacet
  facet normal 0 -0.770226 0.63777
    outer loop
    vertex 33.7 8.25476 13.767
    vertex 26.3 8.25476 13.767
    vertex 26.3 7.92508 13.3689
    endloop
  endfacet
  facet normal 0 -0.631758 0.775166
    outer loop
    vertex 33.7 7.92508 13.3689
    vertex 26.3 7.52437 13.0423
    vertex 33.7 7.52437 13.0423
    endloop
  endfacet
  facet normal 0 -0.631758 0.775166
    outer loop
    vertex 33.7 7.92508 13.3689
    vertex 26.3 7.92508 13.3689
    vertex 26.3 7.52437 13.0423
    endloop
  endfacet
  facet normal 0 -0.469253 0.883064
    outer loop
    vertex 33.7 7.52437 13.0423
    vertex 26.3 7.06789 12.7998
    vertex 33.7 7.06789 12.7998
    endloop
  endfacet
  facet normal 0 -0.469253 0.883064
    outer loop
    vertex 33.7 7.52437 13.0423
    vertex 26.3 7.52437 13.0423
    vertex 26.3 7.06789 12.7998
    endloop
  endfacet
  facet normal 0 -0.288887 0.957363
    outer loop
    vertex 33.7 7.06789 12.7998
    vertex 26.3 6.57301 12.6504
    vertex 33.7 6.57301 12.6504
    endloop
  endfacet
  facet normal 0 -0.288887 0.957363
    outer loop
    vertex 33.7 7.06789 12.7998
    vertex 26.3 7.06789 12.7998
    vertex 26.3 6.57301 12.6504
    endloop
  endfacet
  facet normal 0 -0.097534 0.995232
    outer loop
    vertex 33.7 6.57301 12.6504
    vertex 26.3 6.57301 12.6504
    vertex 26.3 6.05855 12.6
    endloop
  endfacet
  facet normal -0 0.631758 0.775166
    outer loop
    vertex 33.7 4.59272 13.0423
    vertex 26.3 4.19202 13.3689
    vertex 33.7 4.19202 13.3689
    endloop
  endfacet
  facet normal -0 0.631758 0.775166
    outer loop
    vertex 33.7 4.59272 13.0423
    vertex 26.3 4.59272 13.0423
    vertex 26.3 4.19202 13.3689
    endloop
  endfacet
  facet normal -0 0.770226 0.63777
    outer loop
    vertex 33.7 4.19202 13.3689
    vertex 26.3 3.86234 13.767
    vertex 33.7 3.86234 13.767
    endloop
  endfacet
  facet normal -0 0.770226 0.63777
    outer loop
    vertex 33.7 4.19202 13.3689
    vertex 26.3 4.19202 13.3689
    vertex 26.3 3.86234 13.767
    endloop
  endfacet
  facet normal -0 0.879387 0.476107
    outer loop
    vertex 33.7 3.86234 13.767
    vertex 26.3 3.61623 14.2216
    vertex 33.7 3.61623 14.2216
    endloop
  endfacet
  facet normal -0 0.879387 0.476107
    outer loop
    vertex 33.7 3.86234 13.767
    vertex 26.3 3.86234 13.767
    vertex 26.3 3.61623 14.2216
    endloop
  endfacet
  facet normal -0 0.955086 0.296327
    outer loop
    vertex 33.7 3.61623 14.2216
    vertex 26.3 3.46305 14.7153
    vertex 33.7 3.46305 14.7153
    endloop
  endfacet
  facet normal -0 0.955086 0.296327
    outer loop
    vertex 33.7 3.61623 14.2216
    vertex 26.3 3.61623 14.2216
    vertex 26.3 3.46305 14.7153
    endloop
  endfacet
  facet normal -0 0.994443 0.105274
    outer loop
    vertex 33.7 3.46305 14.7153
    vertex 26.3 3.46305 14.7153
    vertex 26.3 3.40863 15.2294
    endloop
  endfacet
  facet normal 0 0.780057 -0.625709
    outer loop
    vertex 33.7 3.83953 16.6986
    vertex 26.3 4.16297 17.1018
    vertex 33.7 4.16297 17.1018
    endloop
  endfacet
  facet normal 0 0.780057 -0.625709
    outer loop
    vertex 33.7 3.83953 16.6986
    vertex 26.3 3.83953 16.6986
    vertex 26.3 4.16297 17.1018
    endloop
  endfacet
  facet normal 0 0.64374 -0.765245
    outer loop
    vertex 33.7 4.16297 17.1018
    vertex 26.3 4.55855 17.4346
    vertex 33.7 4.55855 17.4346
    endloop
  endfacet
  facet normal 0 0.64374 -0.765245
    outer loop
    vertex 33.7 4.16297 17.1018
    vertex 26.3 4.16297 17.1018
    vertex 26.3 4.55855 17.4346
    endloop
  endfacet
  facet normal 0 0.707108 -0.707105
    outer loop
    vertex 33.7 4.55855 17.4346
    vertex 26.3 5.22494 18.101
    vertex 33.7 5.22494 18.101
    endloop
  endfacet
  facet normal 0 0.707108 -0.707105
    outer loop
    vertex 26.3 4.55855 17.4346
    vertex 26.3 5.22494 18.101
    vertex 33.7 4.55855 17.4346
    endloop
  endfacet
  facet normal 0 0 -1
    outer loop
    vertex 26.3 5.22494 18.101
    vertex 26.3 6.89215 18.101
    vertex 33.7 5.22494 18.101
    endloop
  endfacet
  facet normal 0 -0 1
    outer loop
    vertex 26.3 0.808549 23
    vertex 32.3 1.55855 23
    vertex 32.3 10.5585 23
    endloop
  endfacet
  facet normal 0 0 1
    outer loop
    vertex 26.3 0.808549 23
    vertex 32.3 10.5585 23
    vertex 26.3 11.3085 23
    endloop
  endfacet
  facet normal 0 -0 1
    outer loop
    vertex 26.3 11.3085 23
    vertex 32.3 10.5585 23
    vertex 32.3 16.0585 23
    endloop
  endfacet
  facet normal 0 -0.594102 0.80439
    outer loop
    vertex 32.3 -3.94145 23
    vertex 24.3 -3.94145 23
    vertex 32.3 -6.52962 21.0884
    endloop
  endfacet
  facet normal 0 0 1
    outer loop
    vertex 26.3 0.808549 23
    vertex 24.3 -3.94145 23
    vertex 32.3 -3.94145 23
    endloop
  endfacet
  facet normal 1 0 0
    outer loop
    vertex 32.3 -3.94145 23
    vertex 32.3 -6.52962 21.0884
    vertex 32.3 1.55855 23
    endloop
  endfacet
  facet normal 0 -0 1
    outer loop
    vertex 26.3 0.808549 23
    vertex 32.3 -3.94145 23
    vertex 32.3 1.55855 23
    endloop
  endfacet
  facet normal 0 -0.594102 0.80439
    outer loop
    vertex 32.3 -6.52962 21.0884
    vertex 24.3 -3.94145 23
    vertex 24.0059 -6.52962 21.0884
    endloop
  endfacet
  facet normal -0.988372 6.17631e-007 0.152058
    outer loop
    vertex 24.3 -3.94145 23
    vertex 23.1077 0.808549 15.25
    vertex 24.0059 -6.52962 21.0884
    endloop
  endfacet
  facet normal 0 0 1
    outer loop
    vertex 24.3 0.808549 23
    vertex 24.3 -3.94145 23
    vertex 26.3 0.808549 23
    endloop
  endfacet
  facet normal -0.988372 0 0.152057
    outer loop
    vertex 24.3 -3.94145 23
    vertex 24.3 0.808549 23
    vertex 23.1077 0.808549 15.25
    endloop
  endfacet
  facet normal 0 -0.955779 0.294086
    outer loop
    vertex 32.3 -6.52962 21.0884
    vertex 24.0059 -6.52962 21.0884
    vertex 32.3 -9.94145 10
    endloop
  endfacet
  facet normal 0 -0.955779 0.294086
    outer loop
    vertex 32.3 -9.94145 10
    vertex 24.0059 -6.52962 21.0884
    vertex 22.3 -9.94145 10
    endloop
  endfacet
  facet normal -0.988372 1.56519e-007 0.152057
    outer loop
    vertex 24.0059 -6.52962 21.0884
    vertex 23.1077 0.808549 15.25
    vertex 22.3 -9.9087 10
    endloop
  endfacet
  facet normal -0.988372 0 0.152057
    outer loop
    vertex 24.0059 -6.52962 21.0884
    vertex 22.3 -9.9087 10
    vertex 22.3 -9.94145 10
    endloop
  endfacet
  facet normal 0 1 -0
    outer loop
    vertex 26.3 0.808549 23
    vertex 26.3 0.808549 15.25
    vertex 24.3 0.808549 23
    endloop
  endfacet
  facet normal 0 1 0
    outer loop
    vertex 24.3 0.808549 23
    vertex 26.3 0.808549 15.25
    vertex 23.1077 0.808549 15.25
    endloop
  endfacet
  facet normal -1 0 0
    outer loop
    vertex 26.3 5.22494 18.101
    vertex 26.3 0.808549 23
    vertex 26.3 11.3085 23
    endloop
  endfacet
  facet normal -1 -0 0
    outer loop
    vertex 26.3 0.808549 23
    vertex 26.3 3.83953 16.6986
    vertex 26.3 0.808549 15.25
    endloop
  endfacet
  facet normal -1 0 0
    outer loop
    vertex 26.3 4.55855 17.4346
    vertex 26.3 0.808549 23
    vertex 26.3 5.22494 18.101
    endloop
  endfacet
  facet normal -1 0 0
    outer loop
    vertex 26.3 4.55855 17.4346
    vertex 26.3 4.16297 17.1018
    vertex 26.3 0.808549 23
    endloop
  endfacet
  facet normal -1 -0 0
    outer loop
    vertex 26.3 0.808549 23
    vertex 26.3 4.16297 17.1018
    vertex 26.3 3.83953 16.6986
    endloop
  endfacet
  facet normal 0 0 1
    outer loop
    vertex 26.3 11.3085 23
    vertex 32.3 16.0585 23
    vertex 24.3 16.0585 23
    endloop
  endfacet
  facet normal 0 0 1
    outer loop
    vertex 24.3 16.0585 23
    vertex 24.3 11.3085 23
    vertex 26.3 11.3085 23
    endloop
  endfacet
  facet normal 0 -1 0
    outer loop
    vertex 24.3 11.3085 23
    vertex 26.3 11.3085 15.25
    vertex 26.3 11.3085 23
    endloop
  endfacet
  facet normal -1 0 -0
    outer loop
    vertex 26.3 8.27756 16.6986
    vertex 26.3 11.3085 23
    vertex 26.3 11.3085 15.25
    endloop
  endfacet
  facet normal -1 0 0
    outer loop
    vertex 26.3 5.22494 18.101
    vertex 26.3 11.3085 23
    vertex 26.3 6.89215 18.101
    endloop
  endfacet
  facet normal -1 0 0
    outer loop
    vertex 26.3 6.89215 18.101
    vertex 26.3 11.3085 23
    vertex 26.3 7.55855 17.4346
    endloop
  endfacet
  facet normal -1 0 0
    outer loop
    vertex 26.3 7.55855 17.4346
    vertex 26.3 11.3085 23
    vertex 26.3 7.95412 17.1018
    endloop
  endfacet
  facet normal -1 0 0
    outer loop
    vertex 26.3 7.95412 17.1018
    vertex 26.3 11.3085 23
    vertex 26.3 8.27756 16.6986
    endloop
  endfacet
  facet normal -0 0.707107 0.707107
    outer loop
    vertex 30.3 18.0585 21
    vertex 24.3 16.0585 23
    vertex 32.3 16.0585 23
    endloop
  endfacet
  facet normal 0.707107 0.707107 -0
    outer loop
    vertex 32.3 16.0585 23
    vertex 32.3 16.0585 0
    vertex 30.3 18.0585 21
    endloop
  endfacet
  facet normal -0.988372 0 0.152057
    outer loop
    vertex 24.3 11.3085 23
    vertex 24.3 16.0585 23
    vertex 23.1077 11.3085 15.25
    endloop
  endfacet
  facet normal 0 0.707107 0.707107
    outer loop
    vertex 23.9923 18.0585 21
    vertex 24.3 16.0585 23
    vertex 30.3 18.0585 21
    endloop
  endfacet
  facet normal -0.988372 -2.2332e-007 0.152057
    outer loop
    vertex 23.1077 11.3085 15.25
    vertex 24.3 16.0585 23
    vertex 23.9923 18.0585 21
    endloop
  endfacet
  facet normal 0 -1 0
    outer loop
    vertex 23.1077 11.3085 15.25
    vertex 26.3 11.3085 15.25
    vertex 24.3 11.3085 23
    endloop
  endfacet
  facet normal 1 0 0
    outer loop
    vertex 32.3 -23.9415 0
    vertex 32.3 -9.94145 10
    vertex 32.3 -23.9415 10
    endloop
  endfacet
  facet normal 0 0 1
    outer loop
    vertex 32.3 -23.9415 10
    vertex 32.3 -9.94145 10
    vertex 22.3 -9.94145 10
    endloop
  endfacet
  facet normal 0 -1 0
    outer loop
    vertex 32.3 -23.9415 10
    vertex -26.9 -23.9415 10
    vertex 32.3 -23.9415 0
    endloop
  endfacet
  facet normal 0 0 -1
    outer loop
    vertex 32.3 16.0585 0
    vertex 32.3 -23.9415 0
    vertex 22.3 -9.9087 0
    endloop
  endfacet
  facet normal 0 -1 0
    outer loop
    vertex 32.3 -23.9415 0
    vertex -26.9 -23.9415 10
    vertex -26.9 -23.9415 0
    endloop
  endfacet
  facet normal 0 0 -1
    outer loop
    vertex 22.3 -9.9087 0
    vertex 32.3 -23.9415 0
    vertex 16.7963 -19.4415 0
    endloop
  endfacet
  facet normal 0 0 -1
    outer loop
    vertex 16.7963 -19.4415 0
    vertex 32.3 -23.9415 0
    vertex 5.78879 -19.4415 0
    endloop
  endfacet
  facet normal 0 0 -1
    outer loop
    vertex 5.78879 -19.4415 0
    vertex 32.3 -23.9415 0
    vertex -26.9 -23.9415 0
    endloop
  endfacet
  facet normal 0 0 1
    outer loop
    vertex 16.7963 -19.4415 10
    vertex 32.3 -23.9415 10
    vertex 22.3 -9.94145 10
    endloop
  endfacet
  facet normal 0 0 1
    outer loop
    vertex -26.9 -23.9415 10
    vertex 32.3 -23.9415 10
    vertex 5.78879 -19.4415 10
    endloop
  endfacet
  facet normal 0 0 1
    outer loop
    vertex 5.78879 -19.4415 10
    vertex 32.3 -23.9415 10
    vertex 16.7963 -19.4415 10
    endloop
  endfacet
  facet normal 0.707107 0.707107 0
    outer loop
    vertex 30.3 18.0585 21
    vertex 32.3 16.0585 0
    vertex 30.3 18.0585 0
    endloop
  endfacet
  facet normal 0 -0 -1
    outer loop
    vertex 19.2878 13.5585 0
    vertex 30.3 18.0585 0
    vertex 32.3 16.0585 0
    endloop
  endfacet
  facet normal 0 0 -1
    outer loop
    vertex 19.2878 13.5585 0
    vertex 32.3 16.0585 0
    vertex 22.3 8.3413 0
    endloop
  endfacet
  facet normal 0 0 -1
    outer loop
    vertex 22.3 8.3413 0
    vertex 32.3 16.0585 0
    vertex 22.3 -9.9087 0
    endloop
  endfacet
  facet normal 0 1 0
    outer loop
    vertex 22.3 18.0585 10
    vertex 30.3 18.0585 21
    vertex 30.3 18.0585 0
    endloop
  endfacet
  facet normal 0 1 0
    outer loop
    vertex 23.9923 18.0585 21
    vertex 30.3 18.0585 21
    vertex 22.3 18.0585 10
    endloop
  endfacet
  facet normal 0 1 0
    outer loop
    vertex 22.3 18.0585 10
    vertex 30.3 18.0585 0
    vertex 16.0942 18.0585 0
    endloop
  endfacet
  facet normal -0 0 -1
    outer loop
    vertex 16.0942 18.0585 0
    vertex 30.3 18.0585 0
    vertex 19.2878 13.5585 0
    endloop
  endfacet
  facet normal -0.988372 -9.91166e-008 0.152057
    outer loop
    vertex 23.1077 11.3085 15.25
    vertex 23.9923 18.0585 21
    vertex 22.3 18.0585 10
    endloop
  endfacet
  facet normal -0.988372 -4.28464e-007 0.152057
    outer loop
    vertex 22.9927 11.2551 14.5028
    vertex 23.1077 11.3085 15.25
    vertex 22.3 18.0585 10
    endloop
  endfacet
  facet normal 0 -0.997452 0.0713376
    outer loop
    vertex 22.9927 11.2551 14.5028
    vertex 26.3 11.2551 14.5028
    vertex 23.1077 11.3085 15.25
    endloop
  endfacet
  facet normal 0 -0.997452 0.0713376
    outer loop
    vertex 23.1077 11.3085 15.25
    vertex 26.3 11.2551 14.5028
    vertex 26.3 11.3085 15.25
    endloop
  endfacet
  facet normal -0.988372 0 0.152057
    outer loop
    vertex 22.3 8.3413 10
    vertex 22.4973 9.49657 11.2823
    vertex 22.3 18.0585 10
    endloop
  endfacet
  facet normal -0 0 1
    outer loop
    vertex 22.3 18.0585 10
    vertex 19.2878 13.5585 10
    vertex 22.3 8.3413 10
    endloop
  endfacet
  facet normal -0.988372 1.72112e-007 0.152058
    outer loop
    vertex 22.3 18.0585 10
    vertex 22.4973 9.49657 11.2823
    vertex 22.5788 10.0262 11.812
    endloop
  endfacet
  facet normal -0.988372 -6.3762e-007 0.152055
    outer loop
    vertex 22.3 18.0585 10
    vertex 22.5788 10.0262 11.812
    vertex 22.671 10.4751 12.4116
    endloop
  endfacet
  facet normal -0.988372 5.37827e-007 0.152058
    outer loop
    vertex 22.671 10.4751 12.4116
    vertex 22.7722 10.8341 13.0691
    vertex 22.3 18.0585 10
    endloop
  endfacet
  facet normal -0.988372 4.65487e-007 0.152058
    outer loop
    vertex 22.3 18.0585 10
    vertex 22.7722 10.8341 13.0691
    vertex 22.8801 11.0959 13.7709
    endloop
  endfacet
  facet normal -0.988371 8.63917e-007 0.152059
    outer loop
    vertex 22.3 18.0585 10
    vertex 22.8801 11.0959 13.7709
    vertex 22.9927 11.2551 14.5028
    endloop
  endfacet
  facet normal 0 -0 1
    outer loop
    vertex 16.0942 18.0585 10
    vertex 19.2878 13.5585 10
    vertex 22.3 18.0585 10
    endloop
  endfacet
  facet normal -0 1 0
    outer loop
    vertex 16.0942 18.0585 0
    vertex 16.0942 18.0585 10
    vertex 22.3 18.0585 10
    endloop
  endfacet
  facet normal -0.988371 -8.39319e-006 0.152064
    outer loop
    vertex 22.3 8.3413 10
    vertex 22.4282 8.89691 10.8334
    vertex 22.4973 9.49657 11.2823
    endloop
  endfacet
  facet normal -0.988373 0 0.152047
    outer loop
    vertex 22.3 6.05855 10
    vertex 22.3082 6.8057 10.0534
    vertex 22.3 8.3413 10
    endloop
  endfacet
  facet normal 0 -0 1
    outer loop
    vertex 19.2878 3.12405 10
    vertex 22.3 6.05855 10
    vertex 22.3 8.3413 10
    endloop
  endfacet
  facet normal -0.988372 3.52966e-007 0.152056
    outer loop
    vertex 22.3 8.3413 10
    vertex 22.3082 6.8057 10.0534
    vertex 22.3327 7.53764 10.2127
    endloop
  endfacet
  facet normal -0.988371 1.08843e-006 0.152059
    outer loop
    vertex 22.3 8.3413 10
    vertex 22.3327 7.53764 10.2127
    vertex 22.373 8.23947 10.4744
    endloop
  endfacet
  facet normal -0.988371 -1.06613e-007 0.152059
    outer loop
    vertex 22.373 8.23947 10.4744
    vertex 22.4282 8.89691 10.8334
    vertex 22.3 8.3413 10
    endloop
  endfacet
  facet normal -0.866026 0.5 0
    outer loop
    vertex 19.2878 3.12405 10
    vertex 22.3 8.3413 10
    vertex 19.2878 3.12405 0
    endloop
  endfacet
  facet normal -0.866025 -0.5 0
    outer loop
    vertex 22.3 8.3413 10
    vertex 19.2878 13.5585 10
    vertex 22.3 8.3413 0
    endloop
  endfacet
  facet normal -0.866026 0.5 0
    outer loop
    vertex 19.2878 3.12405 0
    vertex 22.3 8.3413 10
    vertex 22.3 8.3413 0
    endloop
  endfacet
  facet normal 0 -0.707106 0.707107
    outer loop
    vertex 22.4973 9.49657 11.2823
    vertex 26.3 9.49657 11.2823
    vertex 22.5788 10.0262 11.812
    endloop
  endfacet
  facet normal 0 -0.599279 0.800541
    outer loop
    vertex 22.4282 8.89691 10.8334
    vertex 26.3 8.89691 10.8334
    vertex 22.4973 9.49657 11.2823
    endloop
  endfacet
  facet normal 0 -0.599279 0.800541
    outer loop
    vertex 22.4973 9.49657 11.2823
    vertex 26.3 8.89691 10.8334
    vertex 26.3 9.49657 11.2823
    endloop
  endfacet
  facet normal 0 -0.800542 0.599276
    outer loop
    vertex 22.5788 10.0262 11.812
    vertex 26.3 10.0262 11.812
    vertex 22.671 10.4751 12.4116
    endloop
  endfacet
  facet normal 0 -0.707106 0.707107
    outer loop
    vertex 22.5788 10.0262 11.812
    vertex 26.3 9.49657 11.2823
    vertex 26.3 10.0262 11.812
    endloop
  endfacet
  facet normal 0 -0.87768 0.479248
    outer loop
    vertex 22.671 10.4751 12.4116
    vertex 26.3 10.4751 12.4116
    vertex 22.7722 10.8341 13.0691
    endloop
  endfacet
  facet normal 0 -0.800542 0.599276
    outer loop
    vertex 22.671 10.4751 12.4116
    vertex 26.3 10.0262 11.812
    vertex 26.3 10.4751 12.4116
    endloop
  endfacet
  facet normal 0 -0.0713401 0.997452
    outer loop
    vertex 22.3 6.05855 10
    vertex 26.3 6.05855 10
    vertex 22.3082 6.8057 10.0534
    endloop
  endfacet
  facet normal -0.988373 0 0.152047
    outer loop
    vertex 22.3 -9.9087 10
    vertex 22.3082 5.3114 10.0534
    vertex 22.3 6.05855 10
    endloop
  endfacet
  facet normal 0 -0 1
    outer loop
    vertex 19.2878 3.12405 10
    vertex 22.3 -9.9087 10
    vertex 22.3 6.05855 10
    endloop
  endfacet
  facet normal 0 0.0713403 0.997452
    outer loop
    vertex 22.3082 5.3114 10.0534
    vertex 26.3 6.05855 10
    vertex 22.3 6.05855 10
    endloop
  endfacet
  facet normal 0 -0.212564 0.977147
    outer loop
    vertex 22.3082 6.8057 10.0534
    vertex 26.3 6.8057 10.0534
    vertex 22.3327 7.53764 10.2127
    endloop
  endfacet
  facet normal 0 -0.0713401 0.997452
    outer loop
    vertex 22.3082 6.8057 10.0534
    vertex 26.3 6.05855 10
    vertex 26.3 6.8057 10.0534
    endloop
  endfacet
  facet normal 0 -0.349465 0.936949
    outer loop
    vertex 22.3327 7.53764 10.2127
    vertex 26.3 7.53764 10.2127
    vertex 22.373 8.23947 10.4744
    endloop
  endfacet
  facet normal 0 -0.212564 0.977147
    outer loop
    vertex 22.3327 7.53764 10.2127
    vertex 26.3 6.8057 10.0534
    vertex 26.3 7.53764 10.2127
    endloop
  endfacet
  facet normal 0 -0.479247 0.87768
    outer loop
    vertex 22.373 8.23947 10.4744
    vertex 26.3 8.23947 10.4744
    vertex 22.4282 8.89691 10.8334
    endloop
  endfacet
  facet normal 0 -0.349465 0.936949
    outer loop
    vertex 22.373 8.23947 10.4744
    vertex 26.3 7.53764 10.2127
    vertex 26.3 8.23947 10.4744
    endloop
  endfacet
  facet normal 0 -0.479247 0.87768
    outer loop
    vertex 22.4282 8.89691 10.8334
    vertex 26.3 8.23947 10.4744
    vertex 26.3 8.89691 10.8334
    endloop
  endfacet
  facet normal 0 -0.936949 0.349467
    outer loop
    vertex 22.7722 10.8341 13.0691
    vertex 26.3 10.8341 13.0691
    vertex 22.8801 11.0959 13.7709
    endloop
  endfacet
  facet normal 0 -0.87768 0.479248
    outer loop
    vertex 22.7722 10.8341 13.0691
    vertex 26.3 10.4751 12.4116
    vertex 26.3 10.8341 13.0691
    endloop
  endfacet
  facet normal 0 -0.977147 0.212567
    outer loop
    vertex 22.8801 11.0959 13.7709
    vertex 26.3 11.0959 13.7709
    vertex 22.9927 11.2551 14.5028
    endloop
  endfacet
  facet normal 0 -0.936949 0.349467
    outer loop
    vertex 22.8801 11.0959 13.7709
    vertex 26.3 10.8341 13.0691
    vertex 26.3 11.0959 13.7709
    endloop
  endfacet
  facet normal 0 -0.977147 0.212567
    outer loop
    vertex 22.9927 11.2551 14.5028
    vertex 26.3 11.0959 13.7709
    vertex 26.3 11.2551 14.5028
    endloop
  endfacet
  facet normal -0.988372 2.75226e-007 0.152057
    outer loop
    vertex 23.1077 0.808549 15.25
    vertex 22.9927 0.861986 14.5028
    vertex 22.3 -9.9087 10
    endloop
  endfacet
  facet normal 0 0.997452 0.0713383
    outer loop
    vertex 23.1077 0.808549 15.25
    vertex 26.3 0.861986 14.5028
    vertex 22.9927 0.861986 14.5028
    endloop
  endfacet
  facet normal 0 0.997452 0.0713383
    outer loop
    vertex 26.3 0.808549 15.25
    vertex 26.3 0.861986 14.5028
    vertex 23.1077 0.808549 15.25
    endloop
  endfacet
  facet normal 0 -0 1
    outer loop
    vertex 16.7963 -19.4415 10
    vertex 22.3 -9.94145 10
    vertex 22.3 -9.9087 10
    endloop
  endfacet
  facet normal -0.988371 -5.72232e-007 0.152059
    outer loop
    vertex 22.3 -9.9087 10
    vertex 22.9927 0.861986 14.5028
    vertex 22.8801 1.02121 13.7709
    endloop
  endfacet
  facet normal -0.988372 -3.15792e-007 0.152058
    outer loop
    vertex 22.3 -9.9087 10
    vertex 22.8801 1.02121 13.7709
    vertex 22.7722 1.28298 13.0691
    endloop
  endfacet
  facet normal -0.988372 -3.72007e-007 0.152058
    outer loop
    vertex 22.7722 1.28298 13.0691
    vertex 22.671 1.64197 12.4116
    vertex 22.3 -9.9087 10
    endloop
  endfacet
  facet normal -0.988372 4.48222e-007 0.152054
    outer loop
    vertex 22.3 -9.9087 10
    vertex 22.671 1.64197 12.4116
    vertex 22.5788 2.09086 11.812
    endloop
  endfacet
  facet normal -0.988372 -1.22674e-007 0.152058
    outer loop
    vertex 22.3 -9.9087 10
    vertex 22.5788 2.09086 11.812
    vertex 22.4973 2.62053 11.2823
    endloop
  endfacet
  facet normal -0.988372 3.28663e-007 0.152054
    outer loop
    vertex 22.4973 2.62053 11.2823
    vertex 22.4282 3.22018 10.8334
    vertex 22.3 -9.9087 10
    endloop
  endfacet
  facet normal -0.988371 7.06149e-009 0.152059
    outer loop
    vertex 22.3 -9.9087 10
    vertex 22.4282 3.22018 10.8334
    vertex 22.373 3.87762 10.4744
    endloop
  endfacet
  facet normal -0.988371 -9.93014e-008 0.152062
    outer loop
    vertex 22.3 -9.9087 10
    vertex 22.373 3.87762 10.4744
    vertex 22.3327 4.57945 10.2127
    endloop
  endfacet
  facet normal -0.988372 -4.06525e-008 0.152058
    outer loop
    vertex 22.3327 4.57945 10.2127
    vertex 22.3082 5.3114 10.0534
    vertex 22.3 -9.9087 10
    endloop
  endfacet
  facet normal 0 0 1
    outer loop
    vertex 16.7963 -0.375953 10
    vertex 22.3 -9.9087 10
    vertex 19.2878 3.12405 10
    endloop
  endfacet
  facet normal -0.866025 -0.5 0
    outer loop
    vertex 22.3 -9.9087 10
    vertex 16.7963 -0.375953 10
    vertex 22.3 -9.9087 0
    endloop
  endfacet
  facet normal -0.866025 0.5 0
    outer loop
    vertex 16.7963 -19.4415 10
    vertex 22.3 -9.9087 10
    vertex 16.7963 -19.4415 0
    endloop
  endfacet
  facet normal -0.866025 0.5 0
    outer loop
    vertex 16.7963 -19.4415 0
    vertex 22.3 -9.9087 10
    vertex 22.3 -9.9087 0
    endloop
  endfacet
  facet normal 0 0.977147 0.212563
    outer loop
    vertex 22.9927 0.861986 14.5028
    vertex 26.3 1.02121 13.7709
    vertex 22.8801 1.02121 13.7709
    endloop
  endfacet
  facet normal 0 0.977147 0.212563
    outer loop
    vertex 22.9927 0.861986 14.5028
    vertex 26.3 0.861986 14.5028
    vertex 26.3 1.02121 13.7709
    endloop
  endfacet
  facet normal 0 0.936949 0.349466
    outer loop
    vertex 22.8801 1.02121 13.7709
    vertex 26.3 1.28298 13.0691
    vertex 22.7722 1.28298 13.0691
    endloop
  endfacet
  facet normal 0 0.936949 0.349466
    outer loop
    vertex 22.8801 1.02121 13.7709
    vertex 26.3 1.02121 13.7709
    vertex 26.3 1.28298 13.0691
    endloop
  endfacet
  facet normal 0 0.877679 0.479249
    outer loop
    vertex 22.7722 1.28298 13.0691
    vertex 26.3 1.64197 12.4116
    vertex 22.671 1.64197 12.4116
    endloop
  endfacet
  facet normal 0 0.877679 0.479249
    outer loop
    vertex 22.7722 1.28298 13.0691
    vertex 26.3 1.28298 13.0691
    vertex 26.3 1.64197 12.4116
    endloop
  endfacet
  facet normal 0 0.800542 0.599276
    outer loop
    vertex 22.671 1.64197 12.4116
    vertex 26.3 2.09086 11.812
    vertex 22.5788 2.09086 11.812
    endloop
  endfacet
  facet normal 0 0.800542 0.599276
    outer loop
    vertex 22.671 1.64197 12.4116
    vertex 26.3 1.64197 12.4116
    vertex 26.3 2.09086 11.812
    endloop
  endfacet
  facet normal 0 0.707105 0.707108
    outer loop
    vertex 22.5788 2.09086 11.812
    vertex 26.3 2.62053 11.2823
    vertex 22.4973 2.62053 11.2823
    endloop
  endfacet
  facet normal 0 0.707105 0.707108
    outer loop
    vertex 22.5788 2.09086 11.812
    vertex 26.3 2.09086 11.812
    vertex 26.3 2.62053 11.2823
    endloop
  endfacet
  facet normal 0 0.59928 0.80054
    outer loop
    vertex 22.4973 2.62053 11.2823
    vertex 26.3 3.22018 10.8334
    vertex 22.4282 3.22018 10.8334
    endloop
  endfacet
  facet normal 0 0.59928 0.80054
    outer loop
    vertex 22.4973 2.62053 11.2823
    vertex 26.3 2.62053 11.2823
    vertex 26.3 3.22018 10.8334
    endloop
  endfacet
  facet normal 0 0.479248 0.877679
    outer loop
    vertex 22.4282 3.22018 10.8334
    vertex 26.3 3.87762 10.4744
    vertex 22.373 3.87762 10.4744
    endloop
  endfacet
  facet normal 0 0.479248 0.877679
    outer loop
    vertex 22.4282 3.22018 10.8334
    vertex 26.3 3.22018 10.8334
    vertex 26.3 3.87762 10.4744
    endloop
  endfacet
  facet normal 0 0.349463 0.93695
    outer loop
    vertex 22.373 3.87762 10.4744
    vertex 26.3 4.57945 10.2127
    vertex 22.3327 4.57945 10.2127
    endloop
  endfacet
  facet normal 0 0.349463 0.93695
    outer loop
    vertex 22.373 3.87762 10.4744
    vertex 26.3 3.87762 10.4744
    vertex 26.3 4.57945 10.2127
    endloop
  endfacet
  facet normal 0 0.212564 0.977147
    outer loop
    vertex 22.3327 4.57945 10.2127
    vertex 26.3 5.3114 10.0534
    vertex 22.3082 5.3114 10.0534
    endloop
  endfacet
  facet normal 0 0.212564 0.977147
    outer loop
    vertex 22.3327 4.57945 10.2127
    vertex 26.3 4.57945 10.2127
    vertex 26.3 5.3114 10.0534
    endloop
  endfacet
  facet normal 0 0.0713403 0.997452
    outer loop
    vertex 22.3082 5.3114 10.0534
    vertex 26.3 5.3114 10.0534
    vertex 26.3 6.05855 10
    endloop
  endfacet
  facet normal -0 0 1
    outer loop
    vertex 19.2878 3.12405 10
    vertex 13.2635 3.12405 10
    vertex 16.7963 -0.375953 10
    endloop
  endfacet
  facet normal 0 0 1
    outer loop
    vertex 16.7963 -0.375953 10
    vertex 13.2635 3.12405 10
    vertex 5.78879 -0.375953 10
    endloop
  endfacet
  facet normal 0 -1 0
    outer loop
    vertex 16.7963 -0.375953 10
    vertex 5.78879 -0.375953 10
    vertex 16.7963 -0.375953 0
    endloop
  endfacet
  facet normal -0.866025 -0.5 -0
    outer loop
    vertex 22.3 -9.9087 0
    vertex 16.7963 -0.375953 10
    vertex 16.7963 -0.375953 0
    endloop
  endfacet
  facet normal 0 1 0
    outer loop
    vertex 13.2635 3.12405 10
    vertex 19.2878 3.12405 10
    vertex 13.2635 3.12405 0
    endloop
  endfacet
  facet normal 0 1 0
    outer loop
    vertex 13.2635 3.12405 0
    vertex 19.2878 3.12405 10
    vertex 19.2878 3.12405 0
    endloop
  endfacet
  facet normal 0 0 1
    outer loop
    vertex 5.78879 -0.375953 10
    vertex 13.2635 3.12405 10
    vertex 10.2513 8.3413 10
    endloop
  endfacet
  facet normal 0.866025 0.5 0
    outer loop
    vertex 10.2513 8.3413 10
    vertex 13.2635 3.12405 10
    vertex 10.2513 8.3413 0
    endloop
  endfacet
  facet normal 0.866025 0.5 0
    outer loop
    vertex 10.2513 8.3413 0
    vertex 13.2635 3.12405 10
    vertex 13.2635 3.12405 0
    endloop
  endfacet
  facet normal 0 0 1
    outer loop
    vertex 5.78879 -0.375953 10
    vertex 10.2513 8.3413 10
    vertex -9.76584 -9.47075 10
    endloop
  endfacet
  facet normal 0 0 1
    outer loop
    vertex -4.00925 -9.47075 10
    vertex 5.78879 -0.375953 10
    vertex -9.76584 -9.47075 10
    endloop
  endfacet
  facet normal 0 -0 1
    outer loop
    vertex -4.00925 -9.47075 10
    vertex 0.285056 -9.9087 10
    vertex 5.78879 -0.375953 10
    endloop
  endfacet
  facet normal 0.866025 -0.5 0
    outer loop
    vertex 5.78879 -0.375953 10
    vertex 0.285056 -9.9087 10
    vertex 5.78879 -0.375953 0
    endloop
  endfacet
  facet normal 0 -1 0
    outer loop
    vertex 16.7963 -0.375953 0
    vertex 5.78879 -0.375953 10
    vertex 5.78879 -0.375953 0
    endloop
  endfacet
  facet normal 0 0 1
    outer loop
    vertex -9.76584 -9.47075 10
    vertex 10.2513 8.3413 10
    vertex 9.18602 14.4309 10
    endloop
  endfacet
  facet normal 0 0 1
    outer loop
    vertex 10.2513 8.3413 10
    vertex 13.2635 13.5585 10
    vertex 9.18602 14.4309 10
    endloop
  endfacet
  facet normal 0.866025 -0.5 0
    outer loop
    vertex 13.2635 13.5585 10
    vertex 10.2513 8.3413 10
    vertex 13.2635 13.5585 0
    endloop
  endfacet
  facet normal 0.866025 -0.5 0
    outer loop
    vertex 13.2635 13.5585 0
    vertex 10.2513 8.3413 10
    vertex 10.2513 8.3413 0
    endloop
  endfacet
  facet normal 0 0 1
    outer loop
    vertex -9.76584 -9.47075 10
    vertex 9.18602 14.4309 10
    vertex -23.3409 -18.096 10
    endloop
  endfacet
  facet normal 0 -0 1
    outer loop
    vertex -23.3409 -18.096 10
    vertex -12.6441 -14.4561 10
    vertex -9.76584 -9.47075 10
    endloop
  endfacet
  facet normal 0 -1 0
    outer loop
    vertex -4.00925 -9.47075 10
    vertex -9.76584 -9.47075 10
    vertex -4.00925 -9.47075 0
    endloop
  endfacet
  facet normal 0.866026 -0.5 0
    outer loop
    vertex -9.76584 -9.47075 10
    vertex -12.6441 -14.4561 10
    vertex -9.76584 -9.47075 0
    endloop
  endfacet
  facet normal 0 -1 0
    outer loop
    vertex -4.00925 -9.47075 0
    vertex -9.76584 -9.47075 10
    vertex -9.76584 -9.47075 0
    endloop
  endfacet
  facet normal -0.5 0.5 0.707107
    outer loop
    vertex 9.18602 14.4309 10
    vertex 7.77181 14.4309 9
    vertex -23.3409 -18.096 10
    endloop
  endfacet
  facet normal 0 -0 1
    outer loop
    vertex 9.18602 14.4309 10
    vertex 13.2635 13.5585 10
    vertex 16.0942 18.0585 10
    endloop
  endfacet
  facet normal 0 0 1
    outer loop
    vertex 9.18602 14.4309 10
    vertex 16.0942 18.0585 10
    vertex 5.65049 17.9664 10
    endloop
  endfacet
  facet normal -0.5 -0.5 0.707107
    outer loop
    vertex 9.18602 14.4309 10
    vertex 5.65049 17.9664 10
    vertex 7.77181 14.4309 9
    endloop
  endfacet
  facet normal 0 0 1
    outer loop
    vertex -26.8764 -14.5605 10
    vertex -30.412 -18.096 10
    vertex -23.3409 -18.096 10
    endloop
  endfacet
  facet normal 0.5 0.5 0.707107
    outer loop
    vertex -23.3409 -16.6818 9
    vertex -26.8764 -14.5605 10
    vertex -23.3409 -18.096 10
    endloop
  endfacet
  facet normal -0 0 1
    outer loop
    vertex -23.3409 -18.096 10
    vertex -30.412 -18.096 10
    vertex -26.9 -23.9415 10
    endloop
  endfacet
  facet normal 0 0 1
    outer loop
    vertex -23.3409 -18.096 10
    vertex -26.9 -23.9415 10
    vertex -9.76584 -19.4415 10
    endloop
  endfacet
  facet normal 0 0 1
    outer loop
    vertex -9.76584 -19.4415 10
    vertex -12.6441 -14.4561 10
    vertex -23.3409 -18.096 10
    endloop
  endfacet
  facet normal -0.5 0.5 0.707107
    outer loop
    vertex -23.3409 -18.096 10
    vertex 7.77181 14.4309 9
    vertex -23.3409 -16.6818 9
    endloop
  endfacet
  facet normal 0 0 1
    outer loop
    vertex 13.2635 13.5585 10
    vertex 19.2878 13.5585 10
    vertex 16.0942 18.0585 10
    endloop
  endfacet
  facet normal 0 -1 0
    outer loop
    vertex 19.2878 13.5585 10
    vertex 13.2635 13.5585 10
    vertex 19.2878 13.5585 0
    endloop
  endfacet
  facet normal 0 -1 0
    outer loop
    vertex 19.2878 13.5585 0
    vertex 13.2635 13.5585 10
    vertex 13.2635 13.5585 0
    endloop
  endfacet
  facet normal 0 0 1
    outer loop
    vertex 5.65049 17.9664 10
    vertex 16.0942 18.0585 10
    vertex 9.18602 21.5019 10
    endloop
  endfacet
  facet normal 0 0 1
    outer loop
    vertex 9.18602 21.5019 10
    vertex 16.0942 18.0585 10
    vertex 10.2113 23.9415 10
    endloop
  endfacet
  facet normal 0.707107 0.707107 0
    outer loop
    vertex 10.2113 23.9415 10
    vertex 16.0942 18.0585 10
    vertex 10.2113 23.9415 0
    endloop
  endfacet
  facet normal 0.707107 0.707107 0
    outer loop
    vertex 10.2113 23.9415 0
    vertex 16.0942 18.0585 10
    vertex 16.0942 18.0585 0
    endloop
  endfacet
  facet normal -0.707106 0.707107 0
    outer loop
    vertex 5.65049 17.9664 0
    vertex 5.65049 17.9664 10
    vertex 9.18602 21.5019 10
    endloop
  endfacet
  facet normal -0.5 -0.5 0.707107
    outer loop
    vertex 7.77181 14.4309 9
    vertex 5.65049 17.9664 10
    vertex 4.94338 17.2593 9
    endloop
  endfacet
  facet normal -0.707107 0.707106 0
    outer loop
    vertex 5.65049 17.9664 0
    vertex 4.94338 17.2593 9
    vertex 5.65049 17.9664 10
    endloop
  endfacet
  facet normal 0 0 1
    outer loop
    vertex 9.18602 21.5019 10
    vertex 10.2113 23.9415 10
    vertex 7.94859 22.7394 10
    endloop
  endfacet
  facet normal -0.707107 -0.707106 0
    outer loop
    vertex 9.18602 21.5019 10
    vertex 7.94859 22.7394 10
    vertex 9.18602 21.5019 0
    endloop
  endfacet
  facet normal -0.707106 0.707107 0
    outer loop
    vertex 9.18602 21.5019 10
    vertex 9.18602 21.5019 0
    vertex 5.65049 17.9664 0
    endloop
  endfacet
  facet normal 0 0 1
    outer loop
    vertex 7.94859 22.7394 10
    vertex 10.2113 23.9415 10
    vertex 7.3829 23.9415 10
    endloop
  endfacet
  facet normal 0 1 0
    outer loop
    vertex 7.3829 23.9415 10
    vertex 10.2113 23.9415 10
    vertex 7.3829 23.9415 0
    endloop
  endfacet
  facet normal 0 1 0
    outer loop
    vertex 7.3829 23.9415 0
    vertex 10.2113 23.9415 10
    vertex 10.2113 23.9415 0
    endloop
  endfacet
  facet normal 0 0 1
    outer loop
    vertex 7.94859 22.7394 10
    vertex 7.3829 23.9415 10
    vertex 5.82727 22.3858 10
    endloop
  endfacet
  facet normal 0 -0 1
    outer loop
    vertex 5.82727 22.3858 10
    vertex 6.71115 21.5019 10
    vertex 7.94859 22.7394 10
    endloop
  endfacet
  facet normal 0.707107 -0.707106 0
    outer loop
    vertex 7.94859 22.7394 10
    vertex 6.71115 21.5019 10
    vertex 7.94859 22.7394 0
    endloop
  endfacet
  facet normal -0.707107 -0.707106 -0
    outer loop
    vertex 9.18602 21.5019 0
    vertex 7.94859 22.7394 10
    vertex 7.94859 22.7394 0
    endloop
  endfacet
  facet normal -0.707106 0.707107 0
    outer loop
    vertex 5.82727 22.3858 10
    vertex 7.3829 23.9415 10
    vertex 5.82727 22.3858 0
    endloop
  endfacet
  facet normal -0.707106 0.707107 0
    outer loop
    vertex 5.82727 22.3858 0
    vertex 7.3829 23.9415 10
    vertex 7.3829 23.9415 0
    endloop
  endfacet
  facet normal -0.707108 -0.707106 0
    outer loop
    vertex 6.71115 21.5019 10
    vertex 5.82727 22.3858 10
    vertex 6.71115 21.5019 0
    endloop
  endfacet
  facet normal -0.707108 -0.707106 -0
    outer loop
    vertex 6.71115 21.5019 0
    vertex 5.82727 22.3858 10
    vertex 5.82727 22.3858 0
    endloop
  endfacet
  facet normal -0.866025 -0.5 -0
    outer loop
    vertex 22.3 8.3413 0
    vertex 19.2878 13.5585 10
    vertex 19.2878 13.5585 0
    endloop
  endfacet
  facet normal 0.707107 -0.707106 0
    outer loop
    vertex 7.94859 22.7394 0
    vertex 6.71115 21.5019 10
    vertex 6.71115 21.5019 0
    endloop
  endfacet
  facet normal -0.707107 0.707107 0
    outer loop
    vertex -30.412 -18.096 10
    vertex -26.8764 -14.5605 10
    vertex -26.8764 -14.5605 0
    endloop
  endfacet
  facet normal 0.5 0.5 0.707107
    outer loop
    vertex -26.1693 -13.8534 9
    vertex -26.8764 -14.5605 10
    vertex -23.3409 -16.6818 9
    endloop
  endfacet
  facet normal -0.707108 0.707106 0
    outer loop
    vertex -26.8764 -14.5605 0
    vertex -26.8764 -14.5605 10
    vertex -26.1693 -13.8534 9
    endloop
  endfacet
  facet normal 0 0 1
    outer loop
    vertex -26.9 -23.9415 10
    vertex -30.412 -18.096 10
    vertex -33.7 -17.1415 10
    endloop
  endfacet
  facet normal 0 0 1
    outer loop
    vertex -33.7 -17.1415 10
    vertex -30.412 -18.096 10
    vertex -31.6494 -16.8586 10
    endloop
  endfacet
  facet normal 0.707108 0.707106 0
    outer loop
    vertex -31.6494 -16.8586 10
    vertex -30.412 -18.096 10
    vertex -31.6494 -16.8586 0
    endloop
  endfacet
  facet normal -0.707107 0.707107 0
    outer loop
    vertex -26.8764 -14.5605 0
    vertex -30.412 -18.096 0
    vertex -30.412 -18.096 10
    endloop
  endfacet
  facet normal 0.707108 0.707106 0
    outer loop
    vertex -31.6494 -16.8586 0
    vertex -30.412 -18.096 10
    vertex -30.412 -18.096 0
    endloop
  endfacet
  facet normal 0 0 1
    outer loop
    vertex -9.76584 -19.4415 10
    vertex -26.9 -23.9415 10
    vertex -4.00925 -19.4415 10
    endloop
  endfacet
  facet normal 0 0 1
    outer loop
    vertex -4.00925 -19.4415 10
    vertex -26.9 -23.9415 10
    vertex 5.78879 -19.4415 10
    endloop
  endfacet
  facet normal -0.707107 -0.707107 0
    outer loop
    vertex -26.9 -23.9415 10
    vertex -33.7 -17.1415 10
    vertex -26.9 -23.9415 0
    endloop
  endfacet
  facet normal 0 1 0
    outer loop
    vertex -9.76584 -19.4415 10
    vertex -4.00925 -19.4415 10
    vertex -9.76584 -19.4415 0
    endloop
  endfacet
  facet normal 0.866026 0.5 0
    outer loop
    vertex -12.6441 -14.4561 10
    vertex -9.76584 -19.4415 10
    vertex -12.6441 -14.4561 0
    endloop
  endfacet
  facet normal 0.866026 0.5 0
    outer loop
    vertex -12.6441 -14.4561 0
    vertex -9.76584 -19.4415 10
    vertex -9.76584 -19.4415 0
    endloop
  endfacet
  facet normal 0 0 1
    outer loop
    vertex -4.00925 -19.4415 10
    vertex 5.78879 -19.4415 10
    vertex -1.13096 -14.4561 10
    endloop
  endfacet
  facet normal -0.866026 0.5 0
    outer loop
    vertex -4.00925 -19.4415 10
    vertex -1.13096 -14.4561 10
    vertex -4.00925 -19.4415 0
    endloop
  endfacet
  facet normal 0 1 0
    outer loop
    vertex -9.76584 -19.4415 0
    vertex -4.00925 -19.4415 10
    vertex -4.00925 -19.4415 0
    endloop
  endfacet
  facet normal 0 0 1
    outer loop
    vertex -1.13096 -14.4561 10
    vertex 5.78879 -19.4415 10
    vertex 0.285056 -9.9087 10
    endloop
  endfacet
  facet normal 0.866025 0.5 0
    outer loop
    vertex 0.285056 -9.9087 10
    vertex 5.78879 -19.4415 10
    vertex 0.285056 -9.9087 0
    endloop
  endfacet
  facet normal 0 1 0
    outer loop
    vertex 5.78879 -19.4415 10
    vertex 16.7963 -19.4415 10
    vertex 5.78879 -19.4415 0
    endloop
  endfacet
  facet normal 0.866025 0.5 0
    outer loop
    vertex 0.285056 -9.9087 0
    vertex 5.78879 -19.4415 10
    vertex 5.78879 -19.4415 0
    endloop
  endfacet
  facet normal 0 0 1
    outer loop
    vertex -1.13096 -14.4561 10
    vertex 0.285056 -9.9087 10
    vertex -4.00925 -9.47075 10
    endloop
  endfacet
  facet normal -0.866026 -0.5 0
    outer loop
    vertex -1.13096 -14.4561 10
    vertex -4.00925 -9.47075 10
    vertex -1.13096 -14.4561 0
    endloop
  endfacet
  facet normal -0.866026 0.5 0
    outer loop
    vertex -4.00925 -19.4415 0
    vertex -1.13096 -14.4561 10
    vertex -1.13096 -14.4561 0
    endloop
  endfacet
  facet normal 0.866025 -0.5 0
    outer loop
    vertex 5.78879 -0.375953 0
    vertex 0.285056 -9.9087 10
    vertex 0.285056 -9.9087 0
    endloop
  endfacet
  facet normal -0.866026 -0.5 -0
    outer loop
    vertex -1.13096 -14.4561 0
    vertex -4.00925 -9.47075 10
    vertex -4.00925 -9.47075 0
    endloop
  endfacet
  facet normal 0 -0 1
    outer loop
    vertex -33.7 -17.1415 10
    vertex -31.6494 -16.8586 10
    vertex -31.2958 -14.7373 10
    endloop
  endfacet
  facet normal -0.707107 0.707106 0
    outer loop
    vertex -33.7 -17.1415 10
    vertex -31.2958 -14.7373 10
    vertex -33.7 -17.1415 0
    endloop
  endfacet
  facet normal -0.707107 -0.707107 -0
    outer loop
    vertex -26.9 -23.9415 0
    vertex -33.7 -17.1415 10
    vertex -33.7 -17.1415 0
    endloop
  endfacet
  facet normal 0 0 1
    outer loop
    vertex -31.2958 -14.7373 10
    vertex -31.6494 -16.8586 10
    vertex -30.412 -15.6212 10
    endloop
  endfacet
  facet normal 0.707107 -0.707107 0
    outer loop
    vertex -30.412 -15.6212 10
    vertex -31.6494 -16.8586 10
    vertex -30.412 -15.6212 0
    endloop
  endfacet
  facet normal 0.707107 -0.707107 0
    outer loop
    vertex -30.412 -15.6212 0
    vertex -31.6494 -16.8586 10
    vertex -31.6494 -16.8586 0
    endloop
  endfacet
  facet normal 0.707107 0.707107 0
    outer loop
    vertex -31.2958 -14.7373 10
    vertex -30.412 -15.6212 10
    vertex -31.2958 -14.7373 0
    endloop
  endfacet
  facet normal -0.707107 0.707106 0
    outer loop
    vertex -33.7 -17.1415 0
    vertex -31.2958 -14.7373 10
    vertex -31.2958 -14.7373 0
    endloop
  endfacet
  facet normal 0.707107 0.707107 0
    outer loop
    vertex -31.2958 -14.7373 0
    vertex -30.412 -15.6212 10
    vertex -30.412 -15.6212 0
    endloop
  endfacet
  facet normal 0 1 0
    outer loop
    vertex 5.78879 -19.4415 0
    vertex 16.7963 -19.4415 10
    vertex 16.7963 -19.4415 0
    endloop
  endfacet
  facet normal 0.866026 -0.5 0
    outer loop
    vertex -9.76584 -9.47075 0
    vertex -12.6441 -14.4561 10
    vertex -12.6441 -14.4561 0
    endloop
  endfacet
  facet normal 0.707106 0.707107 0
    outer loop
    vertex -26.1693 -13.8534 9
    vertex -23.3409 -16.6818 9
    vertex -26.1693 -13.8534 1
    endloop
  endfacet
  facet normal -0.707108 0.707106 0
    outer loop
    vertex -26.8764 -14.5605 0
    vertex -26.1693 -13.8534 9
    vertex -26.1693 -13.8534 1
    endloop
  endfacet
  facet normal -0.707107 0.707107 0
    outer loop
    vertex -23.3409 -16.6818 9
    vertex 7.77181 14.4309 9
    vertex -23.3409 -16.6818 1
    endloop
  endfacet
  facet normal 0.707106 0.707107 0
    outer loop
    vertex -26.1693 -13.8534 1
    vertex -23.3409 -16.6818 9
    vertex -23.3409 -16.6818 1
    endloop
  endfacet
  facet normal -0.707107 -0.707107 0
    outer loop
    vertex 7.77181 14.4309 9
    vertex 4.94338 17.2593 9
    vertex 7.77181 14.4309 1
    endloop
  endfacet
  facet normal -0.707107 0.707107 0
    outer loop
    vertex -23.3409 -16.6818 1
    vertex 7.77181 14.4309 9
    vertex 7.77181 14.4309 1
    endloop
  endfacet
  facet normal -0.707107 -0.707107 -0
    outer loop
    vertex 7.77181 14.4309 1
    vertex 4.94338 17.2593 9
    vertex 4.94338 17.2593 1
    endloop
  endfacet
  facet normal -0.707107 0.707106 0
    outer loop
    vertex 4.94338 17.2593 1
    vertex 4.94338 17.2593 9
    vertex 5.65049 17.9664 0
    endloop
  endfacet
  facet normal 0.5 0.5 -0.707107
    outer loop
    vertex -23.3409 -16.6818 1
    vertex -26.8764 -14.5605 0
    vertex -26.1693 -13.8534 1
    endloop
  endfacet
  facet normal -0.5 0.5 -0.707107
    outer loop
    vertex 7.77181 14.4309 1
    vertex -23.3409 -18.096 0
    vertex -23.3409 -16.6818 1
    endloop
  endfacet
  facet normal 0.499999 0.5 -0.707107
    outer loop
    vertex -23.3409 -18.096 0
    vertex -26.8764 -14.5605 0
    vertex -23.3409 -16.6818 1
    endloop
  endfacet
  facet normal -0.5 -0.5 -0.707107
    outer loop
    vertex 4.94338 17.2593 1
    vertex 5.65049 17.9664 0
    vertex 7.77181 14.4309 1
    endloop
  endfacet
  facet normal -0.5 -0.5 -0.707107
    outer loop
    vertex 7.77181 14.4309 1
    vertex 5.65049 17.9664 0
    vertex 9.18602 14.4309 0
    endloop
  endfacet
  facet normal -0.5 0.5 -0.707107
    outer loop
    vertex 9.18602 14.4309 0
    vertex -23.3409 -18.096 0
    vertex 7.77181 14.4309 1
    endloop
  endfacet
  facet normal 0 -0 -1
    outer loop
    vertex 5.65049 17.9664 0
    vertex 9.18602 21.5019 0
    vertex 16.0942 18.0585 0
    endloop
  endfacet
  facet normal 0 0 -1
    outer loop
    vertex 5.65049 17.9664 0
    vertex 16.0942 18.0585 0
    vertex 9.18602 14.4309 0
    endloop
  endfacet
  facet normal 0 0 -1
    outer loop
    vertex 16.0942 18.0585 0
    vertex 9.18602 21.5019 0
    vertex 10.2113 23.9415 0
    endloop
  endfacet
  facet normal 0 0 -1
    outer loop
    vertex 10.2113 23.9415 0
    vertex 9.18602 21.5019 0
    vertex 7.94859 22.7394 0
    endloop
  endfacet
  facet normal -0 0 -1
    outer loop
    vertex 9.18602 14.4309 0
    vertex -9.76584 -9.47075 0
    vertex -23.3409 -18.096 0
    endloop
  endfacet
  facet normal 0 0 -1
    outer loop
    vertex 9.18602 14.4309 0
    vertex 16.0942 18.0585 0
    vertex 13.2635 13.5585 0
    endloop
  endfacet
  facet normal 0 0 -1
    outer loop
    vertex 10.2513 8.3413 0
    vertex -9.76584 -9.47075 0
    vertex 9.18602 14.4309 0
    endloop
  endfacet
  facet normal -0 0 -1
    outer loop
    vertex 9.18602 14.4309 0
    vertex 13.2635 13.5585 0
    vertex 10.2513 8.3413 0
    endloop
  endfacet
  facet normal 0 -0 -1
    outer loop
    vertex -30.412 -18.096 0
    vertex -26.8764 -14.5605 0
    vertex -23.3409 -18.096 0
    endloop
  endfacet
  facet normal 0 0 -1
    outer loop
    vertex -23.3409 -18.096 0
    vertex -9.76584 -9.47075 0
    vertex -12.6441 -14.4561 0
    endloop
  endfacet
  facet normal 0 -0 -1
    outer loop
    vertex -23.3409 -18.096 0
    vertex -12.6441 -14.4561 0
    vertex -9.76584 -19.4415 0
    endloop
  endfacet
  facet normal 0 0 -1
    outer loop
    vertex -9.76584 -19.4415 0
    vertex -26.9 -23.9415 0
    vertex -23.3409 -18.096 0
    endloop
  endfacet
  facet normal 0 0 -1
    outer loop
    vertex -23.3409 -18.096 0
    vertex -26.9 -23.9415 0
    vertex -30.412 -18.096 0
    endloop
  endfacet
  facet normal 0 -0 -1
    outer loop
    vertex 13.2635 13.5585 0
    vertex 16.0942 18.0585 0
    vertex 19.2878 13.5585 0
    endloop
  endfacet
  facet normal 0 0 -1
    outer loop
    vertex 22.3 8.3413 0
    vertex 22.3 -9.9087 0
    vertex 19.2878 3.12405 0
    endloop
  endfacet
  facet normal 0 0 -1
    outer loop
    vertex 19.2878 3.12405 0
    vertex 22.3 -9.9087 0
    vertex 16.7963 -0.375953 0
    endloop
  endfacet
  facet normal 0 0 -1
    outer loop
    vertex 19.2878 3.12405 0
    vertex 16.7963 -0.375953 0
    vertex 13.2635 3.12405 0
    endloop
  endfacet
  facet normal 0 0 -1
    outer loop
    vertex 13.2635 3.12405 0
    vertex 16.7963 -0.375953 0
    vertex 5.78879 -0.375953 0
    endloop
  endfacet
  facet normal 0 0 -1
    outer loop
    vertex 13.2635 3.12405 0
    vertex 5.78879 -0.375953 0
    vertex 10.2513 8.3413 0
    endloop
  endfacet
  facet normal -0 0 -1
    outer loop
    vertex 10.2513 8.3413 0
    vertex 5.78879 -0.375953 0
    vertex -9.76584 -9.47075 0
    endloop
  endfacet
  facet normal 0 0 -1
    outer loop
    vertex 5.78879 -0.375953 0
    vertex -4.00925 -9.47075 0
    vertex -9.76584 -9.47075 0
    endloop
  endfacet
  facet normal 0 0 -1
    outer loop
    vertex 0.285056 -9.9087 0
    vertex -4.00925 -9.47075 0
    vertex 5.78879 -0.375953 0
    endloop
  endfacet
  facet normal 0 0 -1
    outer loop
    vertex -4.00925 -19.4415 0
    vertex -26.9 -23.9415 0
    vertex -9.76584 -19.4415 0
    endloop
  endfacet
  facet normal 0 0 -1
    outer loop
    vertex 5.78879 -19.4415 0
    vertex -26.9 -23.9415 0
    vertex -4.00925 -19.4415 0
    endloop
  endfacet
  facet normal 0 -0 -1
    outer loop
    vertex -4.00925 -19.4415 0
    vertex -1.13096 -14.4561 0
    vertex 5.78879 -19.4415 0
    endloop
  endfacet
  facet normal 0 0 -1
    outer loop
    vertex 5.78879 -19.4415 0
    vertex -1.13096 -14.4561 0
    vertex 0.285056 -9.9087 0
    endloop
  endfacet
  facet normal 0 0 -1
    outer loop
    vertex -30.412 -18.096 0
    vertex -26.9 -23.9415 0
    vertex -33.7 -17.1415 0
    endloop
  endfacet
  facet normal 0 0 -1
    outer loop
    vertex -30.412 -18.096 0
    vertex -33.7 -17.1415 0
    vertex -31.6494 -16.8586 0
    endloop
  endfacet
  facet normal 0 0 -1
    outer loop
    vertex -31.6494 -16.8586 0
    vertex -33.7 -17.1415 0
    vertex -31.2958 -14.7373 0
    endloop
  endfacet
  facet normal 0 -0 -1
    outer loop
    vertex -31.6494 -16.8586 0
    vertex -31.2958 -14.7373 0
    vertex -30.412 -15.6212 0
    endloop
  endfacet
  facet normal 0 0 -1
    outer loop
    vertex 10.2113 23.9415 0
    vertex 7.94859 22.7394 0
    vertex 7.3829 23.9415 0
    endloop
  endfacet
  facet normal -0 0 -1
    outer loop
    vertex 7.3829 23.9415 0
    vertex 7.94859 22.7394 0
    vertex 5.82727 22.3858 0
    endloop
  endfacet
  facet normal 0 0 -1
    outer loop
    vertex 5.82727 22.3858 0
    vertex 7.94859 22.7394 0
    vertex 6.71115 21.5019 0
    endloop
  endfacet
  facet normal 0 0 -1
    outer loop
    vertex 0.285056 -9.9087 0
    vertex -1.13096 -14.4561 0
    vertex -4.00925 -9.47075 0
    endloop
  endfacet
  facet normal -1 -0 0
    outer loop
    vertex 26.3 0.808549 15.25
    vertex 26.3 3.40863 15.2294
    vertex 26.3 0.861986 14.5028
    endloop
  endfacet
  facet normal -1 0 0
    outer loop
    vertex 26.3 0.808549 15.25
    vertex 26.3 3.83953 16.6986
    vertex 26.3 3.60052 16.2403
    endloop
  endfacet
  facet normal -1 0 0
    outer loop
    vertex 26.3 0.808549 15.25
    vertex 26.3 3.60052 16.2403
    vertex 26.3 3.45504 15.7442
    endloop
  endfacet
  facet normal -1 0 0
    outer loop
    vertex 26.3 3.45504 15.7442
    vertex 26.3 3.40863 15.2294
    vertex 26.3 0.808549 15.25
    endloop
  endfacet
  facet normal -1 0 0
    outer loop
    vertex 26.3 0.861986 14.5028
    vertex 26.3 3.46305 14.7153
    vertex 26.3 1.02121 13.7709
    endloop
  endfacet
  facet normal -1 0 -0
    outer loop
    vertex 26.3 0.861986 14.5028
    vertex 26.3 3.40863 15.2294
    vertex 26.3 3.46305 14.7153
    endloop
  endfacet
  facet normal -1 0 0
    outer loop
    vertex 26.3 1.02121 13.7709
    vertex 26.3 3.46305 14.7153
    vertex 26.3 1.28298 13.0691
    endloop
  endfacet
  facet normal -1 0 0
    outer loop
    vertex 26.3 1.28298 13.0691
    vertex 26.3 3.61623 14.2216
    vertex 26.3 1.64197 12.4116
    endloop
  endfacet
  facet normal -1 0 -0
    outer loop
    vertex 26.3 1.28298 13.0691
    vertex 26.3 3.46305 14.7153
    vertex 26.3 3.61623 14.2216
    endloop
  endfacet
  facet normal -1 0 0
    outer loop
    vertex 26.3 1.64197 12.4116
    vertex 26.3 3.86234 13.767
    vertex 26.3 2.09086 11.812
    endloop
  endfacet
  facet normal -1 0 -0
    outer loop
    vertex 26.3 1.64197 12.4116
    vertex 26.3 3.61623 14.2216
    vertex 26.3 3.86234 13.767
    endloop
  endfacet
  facet normal -1 0 0
    outer loop
    vertex 26.3 2.09086 11.812
    vertex 26.3 3.86234 13.767
    vertex 26.3 2.62053 11.2823
    endloop
  endfacet
  facet normal -1 0 0
    outer loop
    vertex 26.3 2.62053 11.2823
    vertex 26.3 4.19202 13.3689
    vertex 26.3 3.22018 10.8334
    endloop
  endfacet
  facet normal -1 0 -0
    outer loop
    vertex 26.3 2.62053 11.2823
    vertex 26.3 3.86234 13.767
    vertex 26.3 4.19202 13.3689
    endloop
  endfacet
  facet normal -1 0 0
    outer loop
    vertex 26.3 3.22018 10.8334
    vertex 26.3 4.59272 13.0423
    vertex 26.3 3.87762 10.4744
    endloop
  endfacet
  facet normal -1 0 -0
    outer loop
    vertex 26.3 3.22018 10.8334
    vertex 26.3 4.19202 13.3689
    vertex 26.3 4.59272 13.0423
    endloop
  endfacet
  facet normal -1 0 0
    outer loop
    vertex 26.3 3.87762 10.4744
    vertex 26.3 5.0492 12.7998
    vertex 26.3 4.57945 10.2127
    endloop
  endfacet
  facet normal -1 0 -0
    outer loop
    vertex 26.3 3.87762 10.4744
    vertex 26.3 4.59272 13.0423
    vertex 26.3 5.0492 12.7998
    endloop
  endfacet
  facet normal -1 0 0
    outer loop
    vertex 26.3 4.57945 10.2127
    vertex 26.3 5.54409 12.6504
    vertex 26.3 5.3114 10.0534
    endloop
  endfacet
  facet normal -1 0 -0
    outer loop
    vertex 26.3 4.57945 10.2127
    vertex 26.3 5.0492 12.7998
    vertex 26.3 5.54409 12.6504
    endloop
  endfacet
  facet normal -1 0 -0
    outer loop
    vertex 26.3 5.3114 10.0534
    vertex 26.3 6.05855 12.6
    vertex 26.3 6.05855 10
    endloop
  endfacet
  facet normal -1 0 -0
    outer loop
    vertex 26.3 5.3114 10.0534
    vertex 26.3 5.54409 12.6504
    vertex 26.3 6.05855 12.6
    endloop
  endfacet
  facet normal -1 0 0
    outer loop
    vertex 26.3 6.05855 10
    vertex 26.3 6.05855 12.6
    vertex 26.3 6.8057 10.0534
    endloop
  endfacet
  facet normal -1 0 0
    outer loop
    vertex 26.3 6.8057 10.0534
    vertex 26.3 6.57301 12.6504
    vertex 26.3 7.53764 10.2127
    endloop
  endfacet
  facet normal -1 0 0
    outer loop
    vertex 26.3 6.8057 10.0534
    vertex 26.3 6.05855 12.6
    vertex 26.3 6.57301 12.6504
    endloop
  endfacet
  facet normal -1 0 0
    outer loop
    vertex 26.3 7.53764 10.2127
    vertex 26.3 7.06789 12.7998
    vertex 26.3 8.23947 10.4744
    endloop
  endfacet
  facet normal -1 0 0
    outer loop
    vertex 26.3 7.53764 10.2127
    vertex 26.3 6.57301 12.6504
    vertex 26.3 7.06789 12.7998
    endloop
  endfacet
  facet normal -1 0 0
    outer loop
    vertex 26.3 8.23947 10.4744
    vertex 26.3 7.52437 13.0423
    vertex 26.3 8.89691 10.8334
    endloop
  endfacet
  facet normal -1 0 0
    outer loop
    vertex 26.3 8.23947 10.4744
    vertex 26.3 7.06789 12.7998
    vertex 26.3 7.52437 13.0423
    endloop
  endfacet
  facet normal -1 0 0
    outer loop
    vertex 26.3 8.89691 10.8334
    vertex 26.3 7.92508 13.3689
    vertex 26.3 9.49657 11.2823
    endloop
  endfacet
  facet normal -1 0 0
    outer loop
    vertex 26.3 8.89691 10.8334
    vertex 26.3 7.52437 13.0423
    vertex 26.3 7.92508 13.3689
    endloop
  endfacet
  facet normal -1 0 0
    outer loop
    vertex 26.3 9.49657 11.2823
    vertex 26.3 8.25476 13.767
    vertex 26.3 10.0262 11.812
    endloop
  endfacet
  facet normal -1 0 0
    outer loop
    vertex 26.3 9.49657 11.2823
    vertex 26.3 7.92508 13.3689
    vertex 26.3 8.25476 13.767
    endloop
  endfacet
  facet normal -1 0 0
    outer loop
    vertex 26.3 10.0262 11.812
    vertex 26.3 8.25476 13.767
    vertex 26.3 10.4751 12.4116
    endloop
  endfacet
  facet normal -1 0 0
    outer loop
    vertex 26.3 10.4751 12.4116
    vertex 26.3 8.50087 14.2216
    vertex 26.3 10.8341 13.0691
    endloop
  endfacet
  facet normal -1 0 0
    outer loop
    vertex 26.3 10.4751 12.4116
    vertex 26.3 8.25476 13.767
    vertex 26.3 8.50087 14.2216
    endloop
  endfacet
  facet normal -1 -0 0
    outer loop
    vertex 26.3 8.65405 14.7153
    vertex 26.3 11.0959 13.7709
    vertex 26.3 10.8341 13.0691
    endloop
  endfacet
  facet normal -1 0 0
    outer loop
    vertex 26.3 10.8341 13.0691
    vertex 26.3 8.50087 14.2216
    vertex 26.3 8.65405 14.7153
    endloop
  endfacet
  facet normal -1 -0 0
    outer loop
    vertex 26.3 8.65405 14.7153
    vertex 26.3 11.2551 14.5028
    vertex 26.3 11.0959 13.7709
    endloop
  endfacet
  facet normal -1 0 0
    outer loop
    vertex 26.3 8.70847 15.2294
    vertex 26.3 11.3085 15.25
    vertex 26.3 11.2551 14.5028
    endloop
  endfacet
  facet normal -1 0 0
    outer loop
    vertex 26.3 8.70847 15.2294
    vertex 26.3 11.2551 14.5028
    vertex 26.3 8.65405 14.7153
    endloop
  endfacet
  facet normal -1 0 0
    outer loop
    vertex 26.3 8.27756 16.6986
    vertex 26.3 11.3085 15.25
    vertex 26.3 8.51657 16.2403
    endloop
  endfacet
  facet normal -1 0 0
    outer loop
    vertex 26.3 8.51657 16.2403
    vertex 26.3 11.3085 15.25
    vertex 26.3 8.66206 15.7442
    endloop
  endfacet
  facet normal -1 -0 0
    outer loop
    vertex 26.3 8.66206 15.7442
    vertex 26.3 11.3085 15.25
    vertex 26.3 8.70847 15.2294
    endloop
  endfacet
  facet normal 0 -1 0
    outer loop
    vertex 19.683 -0.375953 1
    vertex 31.05 -0.375953 1
    vertex 19.683 -0.375953 9
    endloop
  endfacet
  facet normal 0 0 1
    outer loop
    vertex 25.1867 -9.9087 1
    vertex 31.05 -0.375953 1
    vertex 19.683 -0.375953 1
    endloop
  endfacet
  facet normal 0.866025 0.5 -0
    outer loop
    vertex 25.1867 -9.9087 9
    vertex 19.683 -0.375953 1
    vertex 19.683 -0.375953 9
    endloop
  endfacet
  facet normal 0.866025 0.5 0
    outer loop
    vertex 25.1867 -9.9087 1
    vertex 19.683 -0.375953 1
    vertex 25.1867 -9.9087 9
    endloop
  endfacet
  facet normal 0 -1 0
    outer loop
    vertex 19.683 -0.375953 9
    vertex 31.05 -0.375953 1
    vertex 31.05 -0.375953 9
    endloop
  endfacet
  facet normal -1 0 0
    outer loop
    vertex 31.05 -0.375953 1
    vertex 31.05 -22.6915 1
    vertex 31.05 -0.375953 9
    endloop
  endfacet
  facet normal 0 -0 1
    outer loop
    vertex 25.1867 -9.9087 1
    vertex 31.05 -22.6915 1
    vertex 31.05 -0.375953 1
    endloop
  endfacet
  facet normal -0 0 -1
    outer loop
    vertex 19.683 -0.375953 9
    vertex 31.05 -0.375953 9
    vertex 25.1867 -9.9087 9
    endloop
  endfacet
  facet normal 0 -0 -1
    outer loop
    vertex 25.1867 -9.9087 9
    vertex 31.05 -0.375953 9
    vertex 31.05 -22.6915 9
    endloop
  endfacet
  facet normal -1 0 0
    outer loop
    vertex 31.05 -0.375953 9
    vertex 31.05 -22.6915 1
    vertex 31.05 -22.6915 9
    endloop
  endfacet
  facet normal 0.866025 -0.5 0
    outer loop
    vertex 17.8066 -22.6915 9
    vertex 25.1867 -9.9087 1
    vertex 25.1867 -9.9087 9
    endloop
  endfacet
  facet normal 0.866025 -0.5 0
    outer loop
    vertex 17.8066 -22.6915 1
    vertex 25.1867 -9.9087 1
    vertex 17.8066 -22.6915 9
    endloop
  endfacet
  facet normal 0 0 1
    outer loop
    vertex 17.8066 -22.6915 1
    vertex 31.05 -22.6915 1
    vertex 25.1867 -9.9087 1
    endloop
  endfacet
  facet normal 0 0 -1
    outer loop
    vertex 25.1867 -9.9087 9
    vertex 31.05 -22.6915 9
    vertex 17.8066 -22.6915 9
    endloop
  endfacet
  facet normal 0 1 0
    outer loop
    vertex 31.05 -22.6915 9
    vertex 17.8066 -22.6915 1
    vertex 17.8066 -22.6915 9
    endloop
  endfacet
  facet normal 0 1 0
    outer loop
    vertex 31.05 -22.6915 1
    vertex 17.8066 -22.6915 1
    vertex 31.05 -22.6915 9
    endloop
  endfacet
  facet normal 0 0 1
    outer loop
    vertex 31.05 11.2085 15.1495
    vertex 31.05 14.2086 15.1495
    vertex 27.55 11.2085 15.1495
    endloop
  endfacet
  facet normal -1 0 -0
    outer loop
    vertex 31.05 11.2085 15.1495
    vertex 31.05 14.2086 15.3505
    vertex 31.05 14.2086 15.1495
    endloop
  endfacet
  facet normal 0 1 0
    outer loop
    vertex 27.55 11.2085 15.3505
    vertex 31.05 11.2085 15.1495
    vertex 27.55 11.2085 15.1495
    endloop
  endfacet
  facet normal 0 1 -0
    outer loop
    vertex 31.05 11.2085 15.3505
    vertex 31.05 11.2085 15.1495
    vertex 27.55 11.2085 15.3505
    endloop
  endfacet
  facet normal -1 -0 0
    outer loop
    vertex 31.05 11.2085 15.3505
    vertex 31.05 14.2086 15.3505
    vertex 31.05 11.2085 15.1495
    endloop
  endfacet
  facet normal 0 0 1
    outer loop
    vertex 27.55 11.2085 15.1495
    vertex 31.05 14.2086 15.1495
    vertex 27.55 14.2086 15.1495
    endloop
  endfacet
  facet normal 0 -1 -0
    outer loop
    vertex 31.05 14.2086 15.1495
    vertex 31.05 14.2086 15.3505
    vertex 27.55 14.2086 15.1495
    endloop
  endfacet
  facet normal 1 0 0
    outer loop
    vertex 27.55 11.2085 15.1495
    vertex 27.55 14.2086 15.1495
    vertex 27.55 11.2085 15.3505
    endloop
  endfacet
  facet normal 1 0 -0
    outer loop
    vertex 27.55 11.2085 15.3505
    vertex 27.55 14.2086 15.1495
    vertex 27.55 14.2086 15.3505
    endloop
  endfacet
  facet normal -0 -1 0
    outer loop
    vertex 27.55 14.2086 15.1495
    vertex 31.05 14.2086 15.3505
    vertex 27.55 14.2086 15.3505
    endloop
  endfacet
  facet normal 0 0 -1
    outer loop
    vertex 27.55 14.2086 15.3505
    vertex 31.05 11.2085 15.3505
    vertex 27.55 11.2085 15.3505
    endloop
  endfacet
  facet normal 0 0 -1
    outer loop
    vertex 31.05 14.2086 15.3505
    vertex 31.05 11.2085 15.3505
    vertex 27.55 14.2086 15.3505
    endloop
  endfacet
  facet normal 0 1 -0
    outer loop
    vertex 31.05 -2.09145 15.3505
    vertex 31.05 -2.09145 15.1495
    vertex 27.55 -2.09145 15.3505
    endloop
  endfacet
  facet normal -1 0 0
    outer loop
    vertex 31.05 0.908549 15.3505
    vertex 31.05 -2.09145 15.1495
    vertex 31.05 -2.09145 15.3505
    endloop
  endfacet
  facet normal 0 0 -1
    outer loop
    vertex 27.55 0.908549 15.3505
    vertex 31.05 -2.09145 15.3505
    vertex 27.55 -2.09145 15.3505
    endloop
  endfacet
  facet normal 0 0 -1
    outer loop
    vertex 31.05 0.908549 15.3505
    vertex 31.05 -2.09145 15.3505
    vertex 27.55 0.908549 15.3505
    endloop
  endfacet
  facet normal 0 1 0
    outer loop
    vertex 27.55 -2.09145 15.3505
    vertex 31.05 -2.09145 15.1495
    vertex 27.55 -2.09145 15.1495
    endloop
  endfacet
  facet normal 0 0 1
    outer loop
    vertex 31.05 -2.09145 15.1495
    vertex 31.05 0.908549 15.1495
    vertex 27.55 -2.09145 15.1495
    endloop
  endfacet
  facet normal -1 0 0
    outer loop
    vertex 31.05 0.908549 15.1495
    vertex 31.05 -2.09145 15.1495
    vertex 31.05 0.908549 15.3505
    endloop
  endfacet
  facet normal 1 0 0
    outer loop
    vertex 27.55 0.908549 15.1495
    vertex 27.55 -2.09145 15.3505
    vertex 27.55 -2.09145 15.1495
    endloop
  endfacet
  facet normal 1 -0 0
    outer loop
    vertex 27.55 0.908549 15.3505
    vertex 27.55 -2.09145 15.3505
    vertex 27.55 0.908549 15.1495
    endloop
  endfacet
  facet normal 0 0 1
    outer loop
    vertex 27.55 -2.09145 15.1495
    vertex 31.05 0.908549 15.1495
    vertex 27.55 0.908549 15.1495
    endloop
  endfacet
  facet normal -0 -1 0
    outer loop
    vertex 27.55 0.908549 15.1495
    vertex 31.05 0.908549 15.3505
    vertex 27.55 0.908549 15.3505
    endloop
  endfacet
  facet normal 0 -1 -0
    outer loop
    vertex 31.05 0.908549 15.1495
    vertex 31.05 0.908549 15.3505
    vertex 27.55 0.908549 15.1495
    endloop
  endfacet
endsolid lcd_support_b.stl
