solid rambo_cover_base_upper_mount.stl
  facet normal 0 -0.819152 -0.573576
    outer loop
    vertex 4.38367 -10.1494 0
    vertex 2.28305 -12.25 3
    vertex -14.9 -10.1494 0
    endloop
  endfacet
  facet normal 0.707107 -0.707107 2.19764e-008
    outer loop
    vertex 4.38367 -10.1494 0
    vertex 5.28305 -9.25001 2
    vertex 2.28305 -12.25 3
    endloop
  endfacet
  facet normal 0 0 -1
    outer loop
    vertex -14.9 -10.1494 0
    vertex -14.9 -5.25 0
    vertex 4.38367 -10.1494 0
    endloop
  endfacet
  facet normal 0 0 -1
    outer loop
    vertex 4.38367 -10.1494 0
    vertex -14.9 -5.25 0
    vertex 6.52065 3.72567 0
    endloop
  endfacet
  facet normal 0.707107 -0.707107 -1.44179e-008
    outer loop
    vertex 4.38367 -10.1494 0
    vertex 14.9 0.366943 0
    vertex 5.28305 -9.25001 2
    endloop
  endfacet
  facet normal 0 -0 -1
    outer loop
    vertex 4.38367 -10.1494 0
    vertex 7.26342 3.40692 0
    vertex 14.9 0.366943 0
    endloop
  endfacet
  facet normal 0 -0 -1
    outer loop
    vertex 4.38367 -10.1494 0
    vertex 6.99586 3.46191 0
    vertex 7.26342 3.40692 0
    endloop
  endfacet
  facet normal -0 0 -1
    outer loop
    vertex 6.74484 3.56963 0
    vertex 6.99586 3.46191 0
    vertex 4.38367 -10.1494 0
    endloop
  endfacet
  facet normal 0 -0 -1
    outer loop
    vertex 4.38367 -10.1494 0
    vertex 6.52065 3.72567 0
    vertex 6.74484 3.56963 0
    endloop
  endfacet
  facet normal -0 -0.819152 -0.573576
    outer loop
    vertex -14.9 -10.1494 0
    vertex 2.28305 -12.25 3
    vertex -14.9 -12.25 3
    endloop
  endfacet
  facet normal 0 -1 0
    outer loop
    vertex -14.9 -12.25 3
    vertex 2.28305 -12.25 3
    vertex -14.9 -12.25 4.5
    endloop
  endfacet
  facet normal 0 -1 0
    outer loop
    vertex -14.9 -12.25 4.5
    vertex 2.28305 -12.25 3
    vertex 2.28305 -12.25 4.5
    endloop
  endfacet
  facet normal 0.707107 -0.707107 0
    outer loop
    vertex 2.28305 -12.25 3
    vertex 5.28305 -9.25001 4.5
    vertex 2.28305 -12.25 4.5
    endloop
  endfacet
  facet normal 0.707107 -0.707107 0
    outer loop
    vertex 2.28305 -12.25 3
    vertex 5.28305 -9.25001 2
    vertex 5.28305 -9.25001 4.5
    endloop
  endfacet
  facet normal -1 0 0
    outer loop
    vertex -14.9 -12.25 3
    vertex -14.9 -12.25 4.5
    vertex -14.9 -10.1494 0
    endloop
  endfacet
  facet normal -1 0 0
    outer loop
    vertex -14.9 -10.1494 0
    vertex -14.9 -12.25 4.5
    vertex -14.9 -9.25001 4.5
    endloop
  endfacet
  facet normal -1 0 -0
    outer loop
    vertex -14.9 -10.1494 0
    vertex -14.9 -9.25001 4.5
    vertex -14.9 -5.25 0
    endloop
  endfacet
  facet normal 0 0 1
    outer loop
    vertex -14.9 -12.25 4.5
    vertex -0.200001 -9.25001 4.5
    vertex -14.9 -9.25001 4.5
    endloop
  endfacet
  facet normal 0 0 1
    outer loop
    vertex 2.28305 -12.25 4.5
    vertex -0.200001 -9.25001 4.5
    vertex -14.9 -12.25 4.5
    endloop
  endfacet
  facet normal -1 0 0
    outer loop
    vertex -14.9 -5.25 0
    vertex -14.9 -9.25001 4.5
    vertex -14.9 -5.25 4
    endloop
  endfacet
  facet normal -1 0 0
    outer loop
    vertex -14.9 -5.25 4
    vertex -14.9 -9.25001 4.5
    vertex -14.9 -5.25 24.5
    endloop
  endfacet
  facet normal -1 0 0
    outer loop
    vertex -14.9 -5.25 24.5
    vertex -14.9 -9.25001 4.5
    vertex -14.9 -9.25001 24.5
    endloop
  endfacet
  facet normal 0 -1 0
    outer loop
    vertex -10.1929 -9.25001 14.3066
    vertex -14.9 -9.25001 24.5
    vertex -14.9 -9.25001 4.5
    endloop
  endfacet
  facet normal 0 -1 0
    outer loop
    vertex -7.64678 -9.25001 11.8518
    vertex -14.9 -9.25001 4.5
    vertex -0.200001 -9.25001 4.5
    endloop
  endfacet
  facet normal 0 -1 0
    outer loop
    vertex -10.1929 -9.25001 14.3066
    vertex -14.9 -9.25001 4.5
    vertex -10.1366 -9.25001 13.9238
    endloop
  endfacet
  facet normal 0 -1 0
    outer loop
    vertex -10.1366 -9.25001 13.9238
    vertex -14.9 -9.25001 4.5
    vertex -10.0251 -9.25001 13.5533
    endloop
  endfacet
  facet normal 0 -1 0
    outer loop
    vertex -10.0251 -9.25001 13.5533
    vertex -14.9 -9.25001 4.5
    vertex -9.86093 -9.25001 13.203
    endloop
  endfacet
  facet normal 0 -1 0
    outer loop
    vertex -9.86093 -9.25001 13.203
    vertex -14.9 -9.25001 4.5
    vertex -9.64747 -9.25001 12.8804
    endloop
  endfacet
  facet normal 0 -1 0
    outer loop
    vertex -9.64747 -9.25001 12.8804
    vertex -14.9 -9.25001 4.5
    vertex -9.3893 -9.25001 12.5923
    endloop
  endfacet
  facet normal 0 -1 0
    outer loop
    vertex -9.3893 -9.25001 12.5923
    vertex -14.9 -9.25001 4.5
    vertex -9.09193 -9.25001 12.3448
    endloop
  endfacet
  facet normal 0 -1 0
    outer loop
    vertex -9.09193 -9.25001 12.3448
    vertex -14.9 -9.25001 4.5
    vertex -8.76169 -9.25001 12.1432
    endloop
  endfacet
  facet normal 0 -1 0
    outer loop
    vertex -8.76169 -9.25001 12.1432
    vertex -14.9 -9.25001 4.5
    vertex -8.40563 -9.25001 11.9919
    endloop
  endfacet
  facet normal 0 -1 0
    outer loop
    vertex -8.40563 -9.25001 11.9919
    vertex -14.9 -9.25001 4.5
    vertex -8.03134 -9.25001 11.8941
    endloop
  endfacet
  facet normal 0 -1 0
    outer loop
    vertex -8.03134 -9.25001 11.8941
    vertex -14.9 -9.25001 4.5
    vertex -7.64678 -9.25001 11.8518
    endloop
  endfacet
  facet normal -0.707107 0.707107 0
    outer loop
    vertex -2.2 7.45 4
    vertex -14.9 -5.25 0
    vertex -14.9 -5.25 4
    endloop
  endfacet
  facet normal -0.707107 0.707107 4.28535e-007
    outer loop
    vertex -0.200001 9.45 2
    vertex -14.9 -5.25 0
    vertex -2.2 7.45 4
    endloop
  endfacet
  facet normal -0.707107 0.707107 -6.1703e-007
    outer loop
    vertex -0.200001 9.45 2
    vertex 2.6 12.25 0
    vertex -14.9 -5.25 0
    endloop
  endfacet
  facet normal 0 -0 -1
    outer loop
    vertex -14.9 -5.25 0
    vertex 6.33245 3.92365 0
    vertex 6.52065 3.72567 0
    endloop
  endfacet
  facet normal -0 0 -1
    outer loop
    vertex 6.18796 4.15546 0
    vertex 6.33245 3.92365 0
    vertex -14.9 -5.25 0
    endloop
  endfacet
  facet normal 0 -0 -1
    outer loop
    vertex -14.9 -5.25 0
    vertex 6.0931 4.41161 0
    vertex 6.18796 4.15546 0
    endloop
  endfacet
  facet normal 0 -0 -1
    outer loop
    vertex -14.9 -5.25 0
    vertex 6.05173 4.68162 0
    vertex 6.0931 4.41161 0
    endloop
  endfacet
  facet normal -0 0 -1
    outer loop
    vertex 2.6 12.25 0
    vertex 6.05173 4.68162 0
    vertex -14.9 -5.25 0
    endloop
  endfacet
  facet normal 0 1 0
    outer loop
    vertex -12.9 -5.25 14.5
    vertex -14.9 -5.25 4
    vertex -14.9 -5.25 24.5
    endloop
  endfacet
  facet normal 0 0 1
    outer loop
    vertex -2.2 -5.25 4
    vertex -2.2 7.45 4
    vertex -14.9 -5.25 4
    endloop
  endfacet
  facet normal 0 1 0
    outer loop
    vertex -7.82097 -5.25 9.15687
    vertex -2.2 -5.25 4
    vertex -14.9 -5.25 4
    endloop
  endfacet
  facet normal 0 1 0
    outer loop
    vertex -7.82097 -5.25 9.15687
    vertex -14.9 -5.25 4
    vertex -8.36014 -5.25 9.21169
    endloop
  endfacet
  facet normal 0 1 0
    outer loop
    vertex -8.36014 -5.25 9.21169
    vertex -14.9 -5.25 4
    vertex -8.89099 -5.25 9.32079
    endloop
  endfacet
  facet normal 0 1 0
    outer loop
    vertex -8.89099 -5.25 9.32079
    vertex -14.9 -5.25 4
    vertex -9.40808 -5.25 9.48303
    endloop
  endfacet
  facet normal 0 1 0
    outer loop
    vertex -9.40808 -5.25 9.48303
    vertex -14.9 -5.25 4
    vertex -9.90611 -5.25 9.69675
    endloop
  endfacet
  facet normal 0 1 0
    outer loop
    vertex -9.90611 -5.25 9.69675
    vertex -14.9 -5.25 4
    vertex -10.38 -5.25 9.95975
    endloop
  endfacet
  facet normal 0 1 0
    outer loop
    vertex -10.38 -5.25 9.95975
    vertex -14.9 -5.25 4
    vertex -10.8248 -5.25 10.2694
    endloop
  endfacet
  facet normal 0 1 0
    outer loop
    vertex -10.8248 -5.25 10.2694
    vertex -14.9 -5.25 4
    vertex -11.236 -5.25 10.6224
    endloop
  endfacet
  facet normal 0 1 0
    outer loop
    vertex -11.236 -5.25 10.6224
    vertex -14.9 -5.25 4
    vertex -11.6094 -5.25 11.0152
    endloop
  endfacet
  facet normal 0 1 0
    outer loop
    vertex -11.6094 -5.25 11.0152
    vertex -14.9 -5.25 4
    vertex -11.9411 -5.25 11.4437
    endloop
  endfacet
  facet normal 0 1 0
    outer loop
    vertex -11.9411 -5.25 11.4437
    vertex -14.9 -5.25 4
    vertex -12.2278 -5.25 11.9036
    endloop
  endfacet
  facet normal 0 1 0
    outer loop
    vertex -12.2278 -5.25 11.9036
    vertex -14.9 -5.25 4
    vertex -12.4664 -5.25 12.3902
    endloop
  endfacet
  facet normal 0 1 0
    outer loop
    vertex -12.4664 -5.25 12.3902
    vertex -14.9 -5.25 4
    vertex -12.6546 -5.25 12.8984
    endloop
  endfacet
  facet normal 0 1 0
    outer loop
    vertex -12.6546 -5.25 12.8984
    vertex -14.9 -5.25 4
    vertex -12.7905 -5.25 13.4231
    endloop
  endfacet
  facet normal 0 1 0
    outer loop
    vertex -12.7905 -5.25 13.4231
    vertex -14.9 -5.25 4
    vertex -12.8726 -5.25 13.9588
    endloop
  endfacet
  facet normal 0 1 0
    outer loop
    vertex -12.8726 -5.25 13.9588
    vertex -14.9 -5.25 4
    vertex -12.9 -5.25 14.5
    endloop
  endfacet
  facet normal 0 0 1
    outer loop
    vertex -12.9 -7.25 24.5
    vertex -14.9 -5.25 24.5
    vertex -14.9 -9.25001 24.5
    endloop
  endfacet
  facet normal -0 1 0
    outer loop
    vertex -12.9 -5.25 14.5
    vertex -14.9 -5.25 24.5
    vertex -12.9 -5.25 24.5
    endloop
  endfacet
  facet normal -0 0 1
    outer loop
    vertex -12.9 -5.25 24.5
    vertex -14.9 -5.25 24.5
    vertex -12.9 -7.25 24.5
    endloop
  endfacet
  facet normal -0 -1 0
    outer loop
    vertex -7.64678 -9.25001 17.1482
    vertex -0.200001 -9.25001 24.5
    vertex -14.9 -9.25001 24.5
    endloop
  endfacet
  facet normal 0 0 1
    outer loop
    vertex -12.9 -7.25 24.5
    vertex -14.9 -9.25001 24.5
    vertex -0.200001 -9.25001 24.5
    endloop
  endfacet
  facet normal 0 -1 0
    outer loop
    vertex -7.64678 -9.25001 17.1482
    vertex -14.9 -9.25001 24.5
    vertex -8.03134 -9.25001 17.1059
    endloop
  endfacet
  facet normal 0 -1 0
    outer loop
    vertex -8.03134 -9.25001 17.1059
    vertex -14.9 -9.25001 24.5
    vertex -8.40563 -9.25001 17.0081
    endloop
  endfacet
  facet normal 0 -1 0
    outer loop
    vertex -8.40563 -9.25001 17.0081
    vertex -14.9 -9.25001 24.5
    vertex -8.76169 -9.25001 16.8568
    endloop
  endfacet
  facet normal 0 -1 0
    outer loop
    vertex -8.76169 -9.25001 16.8568
    vertex -14.9 -9.25001 24.5
    vertex -9.09193 -9.25001 16.6552
    endloop
  endfacet
  facet normal 0 -1 0
    outer loop
    vertex -9.09193 -9.25001 16.6552
    vertex -14.9 -9.25001 24.5
    vertex -9.3893 -9.25001 16.4077
    endloop
  endfacet
  facet normal 0 -1 0
    outer loop
    vertex -9.3893 -9.25001 16.4077
    vertex -14.9 -9.25001 24.5
    vertex -9.64747 -9.25001 16.1196
    endloop
  endfacet
  facet normal 0 -1 0
    outer loop
    vertex -9.64747 -9.25001 16.1196
    vertex -14.9 -9.25001 24.5
    vertex -9.86093 -9.25001 15.797
    endloop
  endfacet
  facet normal 0 -1 0
    outer loop
    vertex -9.86093 -9.25001 15.797
    vertex -14.9 -9.25001 24.5
    vertex -10.0251 -9.25001 15.4467
    endloop
  endfacet
  facet normal 0 -1 0
    outer loop
    vertex -10.0251 -9.25001 15.4467
    vertex -14.9 -9.25001 24.5
    vertex -10.1366 -9.25001 15.0762
    endloop
  endfacet
  facet normal 0 -1 0
    outer loop
    vertex -10.1366 -9.25001 15.0762
    vertex -14.9 -9.25001 24.5
    vertex -10.1929 -9.25001 14.6934
    endloop
  endfacet
  facet normal 0 -1 0
    outer loop
    vertex -10.1929 -9.25001 14.6934
    vertex -14.9 -9.25001 24.5
    vertex -10.1929 -9.25001 14.3066
    endloop
  endfacet
  facet normal -0 0 1
    outer loop
    vertex 5.28305 -9.25001 4.5
    vertex -0.200001 -9.25001 4.5
    vertex 2.28305 -12.25 4.5
    endloop
  endfacet
  facet normal 1 0 0
    outer loop
    vertex -0.200001 9.45 2
    vertex -0.200001 9.45 4.24409
    vertex -0.200001 -9.25001 2
    endloop
  endfacet
  facet normal -0.707107 0.707106 0
    outer loop
    vertex -2.2 7.45 4
    vertex -0.200001 9.45 4.24409
    vertex -0.200001 9.45 2
    endloop
  endfacet
  facet normal 0 0 1
    outer loop
    vertex -0.200001 -9.25001 2
    vertex 4.4 4.75 2
    vertex -0.200001 9.45 2
    endloop
  endfacet
  facet normal 0 0 1
    outer loop
    vertex -0.200001 9.45 2
    vertex 4.4 4.75 2
    vertex 2.6 12.25 2
    endloop
  endfacet
  facet normal -0.707107 0.707107 0
    outer loop
    vertex 2.6 12.25 2
    vertex 2.6 12.25 0
    vertex -0.200001 9.45 2
    endloop
  endfacet
  facet normal 1 0 0
    outer loop
    vertex -0.200001 -9.25001 2
    vertex -0.200001 9.45 4.24409
    vertex -0.200001 -9.25001 4.5
    endloop
  endfacet
  facet normal 1 0 0
    outer loop
    vertex -0.200001 -9.25001 4.5
    vertex -0.200001 9.45 4.24409
    vertex -0.200001 -5.25 24.5
    endloop
  endfacet
  facet normal -3.14385e-007 0.809336 0.587346
    outer loop
    vertex -0.200001 9.45 4.24409
    vertex -2.2 7.45 7
    vertex -0.200001 -5.25 24.5
    endloop
  endfacet
  facet normal -0.707107 0.707106 0
    outer loop
    vertex -2.2 7.45 7
    vertex -0.200001 9.45 4.24409
    vertex -2.2 7.45 4
    endloop
  endfacet
  facet normal 0 1 0
    outer loop
    vertex 5.28305 -9.25001 4.5
    vertex -0.200001 -9.25001 2
    vertex -0.200001 -9.25001 4.5
    endloop
  endfacet
  facet normal 0 0 1
    outer loop
    vertex -0.200001 -9.25001 2
    vertex 5.9 2.15192 2
    vertex 4.4 4.75 2
    endloop
  endfacet
  facet normal 0 0 1
    outer loop
    vertex 5.28305 -9.25001 2
    vertex 5.9 2.15192 2
    vertex -0.200001 -9.25001 2
    endloop
  endfacet
  facet normal 0 1 0
    outer loop
    vertex 5.28305 -9.25001 2
    vertex -0.200001 -9.25001 2
    vertex 5.28305 -9.25001 4.5
    endloop
  endfacet
  facet normal 1 0 0
    outer loop
    vertex -0.200001 -9.25001 4.5
    vertex -0.200001 -5.25 24.5
    vertex -0.200001 -9.25001 24.5
    endloop
  endfacet
  facet normal 0 -1 0
    outer loop
    vertex -4.9 -9.25001 14.5
    vertex -0.200001 -9.25001 4.5
    vertex -0.200001 -9.25001 24.5
    endloop
  endfacet
  facet normal 0 -1 0
    outer loop
    vertex -4.92824 -9.25001 14.1142
    vertex -0.200001 -9.25001 4.5
    vertex -4.9 -9.25001 14.5
    endloop
  endfacet
  facet normal 0 -1 0
    outer loop
    vertex -5.01236 -9.25001 13.7365
    vertex -0.200001 -9.25001 4.5
    vertex -4.92824 -9.25001 14.1142
    endloop
  endfacet
  facet normal 0 -1 0
    outer loop
    vertex -7.64678 -9.25001 11.8518
    vertex -0.200001 -9.25001 4.5
    vertex -7.26017 -9.25001 11.8659
    endloop
  endfacet
  facet normal 0 -1 0
    outer loop
    vertex -7.26017 -9.25001 11.8659
    vertex -0.200001 -9.25001 4.5
    vertex -6.87973 -9.25001 11.9362
    endloop
  endfacet
  facet normal 0 -1 0
    outer loop
    vertex -6.87973 -9.25001 11.9362
    vertex -0.200001 -9.25001 4.5
    vertex -6.51357 -9.25001 12.0611
    endloop
  endfacet
  facet normal 0 -1 0
    outer loop
    vertex -6.51357 -9.25001 12.0611
    vertex -0.200001 -9.25001 4.5
    vertex -6.16951 -9.25001 12.238
    endloop
  endfacet
  facet normal 0 -1 0
    outer loop
    vertex -6.16951 -9.25001 12.238
    vertex -0.200001 -9.25001 4.5
    vertex -5.85487 -9.25001 12.4631
    endloop
  endfacet
  facet normal 0 -1 0
    outer loop
    vertex -5.85487 -9.25001 12.4631
    vertex -0.200001 -9.25001 4.5
    vertex -5.57636 -9.25001 12.7316
    endloop
  endfacet
  facet normal 0 -1 0
    outer loop
    vertex -5.57636 -9.25001 12.7316
    vertex -0.200001 -9.25001 4.5
    vertex -5.33991 -9.25001 13.0378
    endloop
  endfacet
  facet normal 0 -1 0
    outer loop
    vertex -5.33991 -9.25001 13.0378
    vertex -0.200001 -9.25001 4.5
    vertex -5.15056 -9.25001 13.3752
    endloop
  endfacet
  facet normal 0 -1 0
    outer loop
    vertex -5.15056 -9.25001 13.3752
    vertex -0.200001 -9.25001 4.5
    vertex -5.01236 -9.25001 13.7365
    endloop
  endfacet
  facet normal 0 -0 1
    outer loop
    vertex -2.2 -7.25 24.5
    vertex -0.200001 -9.25001 24.5
    vertex -0.200001 -5.25 24.5
    endloop
  endfacet
  facet normal 0 0.809336 0.587346
    outer loop
    vertex -0.200001 -5.25 24.5
    vertex -2.2 7.45 7
    vertex -2.2 -5.25 24.5
    endloop
  endfacet
  facet normal 0 0 1
    outer loop
    vertex -2.2 -7.25 24.5
    vertex -0.200001 -5.25 24.5
    vertex -2.2 -5.25 24.5
    endloop
  endfacet
  facet normal 0 0 1
    outer loop
    vertex -12.9 -7.25 24.5
    vertex -0.200001 -9.25001 24.5
    vertex -2.2 -7.25 24.5
    endloop
  endfacet
  facet normal 0 -1 0
    outer loop
    vertex -4.9 -9.25001 14.5
    vertex -0.200001 -9.25001 24.5
    vertex -4.92824 -9.25001 14.8858
    endloop
  endfacet
  facet normal 0 -1 0
    outer loop
    vertex -4.92824 -9.25001 14.8858
    vertex -0.200001 -9.25001 24.5
    vertex -5.01236 -9.25001 15.2635
    endloop
  endfacet
  facet normal 0 -1 0
    outer loop
    vertex -5.01236 -9.25001 15.2635
    vertex -0.200001 -9.25001 24.5
    vertex -5.15056 -9.25001 15.6248
    endloop
  endfacet
  facet normal 0 -1 0
    outer loop
    vertex -5.15056 -9.25001 15.6248
    vertex -0.200001 -9.25001 24.5
    vertex -5.33991 -9.25001 15.9622
    endloop
  endfacet
  facet normal 0 -1 0
    outer loop
    vertex -5.33991 -9.25001 15.9622
    vertex -0.200001 -9.25001 24.5
    vertex -5.57636 -9.25001 16.2684
    endloop
  endfacet
  facet normal 0 -1 0
    outer loop
    vertex -5.57636 -9.25001 16.2684
    vertex -0.200001 -9.25001 24.5
    vertex -5.85487 -9.25001 16.5369
    endloop
  endfacet
  facet normal 0 -1 0
    outer loop
    vertex -5.85487 -9.25001 16.5369
    vertex -0.200001 -9.25001 24.5
    vertex -6.16951 -9.25001 16.762
    endloop
  endfacet
  facet normal 0 -1 0
    outer loop
    vertex -6.16951 -9.25001 16.762
    vertex -0.200001 -9.25001 24.5
    vertex -6.51357 -9.25001 16.9389
    endloop
  endfacet
  facet normal 0 -1 0
    outer loop
    vertex -6.51357 -9.25001 16.9389
    vertex -0.200001 -9.25001 24.5
    vertex -6.87973 -9.25001 17.0638
    endloop
  endfacet
  facet normal 0 -1 0
    outer loop
    vertex -6.87973 -9.25001 17.0638
    vertex -0.200001 -9.25001 24.5
    vertex -7.26017 -9.25001 17.1341
    endloop
  endfacet
  facet normal 0 -1 0
    outer loop
    vertex -7.26017 -9.25001 17.1341
    vertex -0.200001 -9.25001 24.5
    vertex -7.64678 -9.25001 17.1482
    endloop
  endfacet
  facet normal -1 0 0
    outer loop
    vertex -2.2 7.45 7
    vertex -2.2 -5.25 14.5
    vertex -2.2 -5.25 24.5
    endloop
  endfacet
  facet normal -1 0 0
    outer loop
    vertex -2.2 7.45 4
    vertex -2.2 -5.25 4
    vertex -2.2 7.45 7
    endloop
  endfacet
  facet normal -1 0 0
    outer loop
    vertex -2.2 7.45 7
    vertex -2.2 -5.25 4
    vertex -2.2 -5.25 14.5
    endloop
  endfacet
  facet normal -1 0 0
    outer loop
    vertex -2.2 -5.25 24.5
    vertex -2.2 -5.25 14.5
    vertex -2.2 -7.25 24.5
    endloop
  endfacet
  facet normal 0 1 -0
    outer loop
    vertex -2.2 -5.25 14.5
    vertex -2.2 -5.25 4
    vertex -2.22745 -5.25 13.9588
    endloop
  endfacet
  facet normal 0 1 0
    outer loop
    vertex -2.22745 -5.25 13.9588
    vertex -2.2 -5.25 4
    vertex -2.30951 -5.25 13.4231
    endloop
  endfacet
  facet normal 0 1 0
    outer loop
    vertex -2.30951 -5.25 13.4231
    vertex -2.2 -5.25 4
    vertex -2.44535 -5.25 12.8984
    endloop
  endfacet
  facet normal 0 1 0
    outer loop
    vertex -2.44535 -5.25 12.8984
    vertex -2.2 -5.25 4
    vertex -2.63358 -5.25 12.3902
    endloop
  endfacet
  facet normal 0 1 0
    outer loop
    vertex -2.63358 -5.25 12.3902
    vertex -2.2 -5.25 4
    vertex -2.87225 -5.25 11.9036
    endloop
  endfacet
  facet normal 0 1 0
    outer loop
    vertex -2.87225 -5.25 11.9036
    vertex -2.2 -5.25 4
    vertex -3.15892 -5.25 11.4437
    endloop
  endfacet
  facet normal 0 1 0
    outer loop
    vertex -3.15892 -5.25 11.4437
    vertex -2.2 -5.25 4
    vertex -3.49064 -5.25 11.0152
    endloop
  endfacet
  facet normal 0 1 0
    outer loop
    vertex -3.49064 -5.25 11.0152
    vertex -2.2 -5.25 4
    vertex -3.86403 -5.25 10.6224
    endloop
  endfacet
  facet normal 0 1 0
    outer loop
    vertex -3.86403 -5.25 10.6224
    vertex -2.2 -5.25 4
    vertex -4.27523 -5.25 10.2694
    endloop
  endfacet
  facet normal 0 1 0
    outer loop
    vertex -4.27523 -5.25 10.2694
    vertex -2.2 -5.25 4
    vertex -4.72004 -5.25 9.95975
    endloop
  endfacet
  facet normal 0 1 0
    outer loop
    vertex -4.72004 -5.25 9.95975
    vertex -2.2 -5.25 4
    vertex -5.19389 -5.25 9.69675
    endloop
  endfacet
  facet normal 0 1 0
    outer loop
    vertex -5.19389 -5.25 9.69675
    vertex -2.2 -5.25 4
    vertex -5.69192 -5.25 9.48303
    endloop
  endfacet
  facet normal 0 1 0
    outer loop
    vertex -5.69192 -5.25 9.48303
    vertex -2.2 -5.25 4
    vertex -6.20901 -5.25 9.32079
    endloop
  endfacet
  facet normal 0 1 0
    outer loop
    vertex -6.20901 -5.25 9.32079
    vertex -2.2 -5.25 4
    vertex -6.73986 -5.25 9.21169
    endloop
  endfacet
  facet normal 0 1 0
    outer loop
    vertex -6.73986 -5.25 9.21169
    vertex -2.2 -5.25 4
    vertex -7.27903 -5.25 9.15687
    endloop
  endfacet
  facet normal 0 1 0
    outer loop
    vertex -7.27903 -5.25 9.15687
    vertex -2.2 -5.25 4
    vertex -7.82097 -5.25 9.15687
    endloop
  endfacet
  facet normal -1 0 0
    outer loop
    vertex -2.2 -7.25 24.5
    vertex -2.2 -5.25 14.5
    vertex -2.2 -7.25 14.5
    endloop
  endfacet
  facet normal -0.998716 0 0.0506493
    outer loop
    vertex -2.2 -5.25 14.5
    vertex -2.22745 -7.25 13.9588
    vertex -2.2 -7.25 14.5
    endloop
  endfacet
  facet normal -0.998716 0 0.0506493
    outer loop
    vertex -2.22745 -5.25 13.9588
    vertex -2.22745 -7.25 13.9588
    vertex -2.2 -5.25 14.5
    endloop
  endfacet
  facet normal -0 1 0
    outer loop
    vertex -2.2 -7.25 14.5
    vertex -5.33991 -7.25 15.9622
    vertex -2.2 -7.25 24.5
    endloop
  endfacet
  facet normal 0 1 -0
    outer loop
    vertex -2.2 -7.25 24.5
    vertex -5.33991 -7.25 15.9622
    vertex -5.57636 -7.25 16.2684
    endloop
  endfacet
  facet normal 0 1 -0
    outer loop
    vertex -2.2 -7.25 24.5
    vertex -5.57636 -7.25 16.2684
    vertex -5.85487 -7.25 16.5369
    endloop
  endfacet
  facet normal -0 1 0
    outer loop
    vertex -5.85487 -7.25 16.5369
    vertex -6.16951 -7.25 16.762
    vertex -2.2 -7.25 24.5
    endloop
  endfacet
  facet normal 0 1 -0
    outer loop
    vertex -2.2 -7.25 24.5
    vertex -6.16951 -7.25 16.762
    vertex -6.51357 -7.25 16.9389
    endloop
  endfacet
  facet normal 0 1 -0
    outer loop
    vertex -2.2 -7.25 24.5
    vertex -6.51357 -7.25 16.9389
    vertex -6.87973 -7.25 17.0638
    endloop
  endfacet
  facet normal -0 1 0
    outer loop
    vertex -6.87973 -7.25 17.0638
    vertex -7.26017 -7.25 17.1341
    vertex -2.2 -7.25 24.5
    endloop
  endfacet
  facet normal 0 1 -0
    outer loop
    vertex -2.2 -7.25 24.5
    vertex -7.26017 -7.25 17.1341
    vertex -7.64678 -7.25 17.1482
    endloop
  endfacet
  facet normal 0 1 -0
    outer loop
    vertex -2.2 -7.25 24.5
    vertex -7.64678 -7.25 17.1482
    vertex -12.9 -7.25 24.5
    endloop
  endfacet
  facet normal 0 1 0
    outer loop
    vertex -4.92824 -7.25 14.8858
    vertex -2.2 -7.25 14.5
    vertex -4.9 -7.25 14.5
    endloop
  endfacet
  facet normal 0 1 0
    outer loop
    vertex -4.9 -7.25 14.5
    vertex -2.2 -7.25 14.5
    vertex -2.22745 -7.25 13.9588
    endloop
  endfacet
  facet normal 0 1 0
    outer loop
    vertex -4.92824 -7.25 14.8858
    vertex -5.01236 -7.25 15.2635
    vertex -2.2 -7.25 14.5
    endloop
  endfacet
  facet normal -0 1 -0
    outer loop
    vertex -2.2 -7.25 14.5
    vertex -5.01236 -7.25 15.2635
    vertex -5.15056 -7.25 15.6248
    endloop
  endfacet
  facet normal -0 1 -0
    outer loop
    vertex -2.2 -7.25 14.5
    vertex -5.15056 -7.25 15.6248
    vertex -5.33991 -7.25 15.9622
    endloop
  endfacet
  facet normal 0.707107 0.707107 0
    outer loop
    vertex 10.1 12.25 0
    vertex 10.1 12.25 2
    vertex 14.9 7.45 0
    endloop
  endfacet
  facet normal 0 1 0
    outer loop
    vertex 2.6 12.25 0
    vertex 10.1 12.25 2
    vertex 10.1 12.25 0
    endloop
  endfacet
  facet normal 0 0 -1
    outer loop
    vertex 14.9 7.45 0
    vertex 7.93238 5.99059 0
    vertex 10.1 12.25 0
    endloop
  endfacet
  facet normal 0 0 -1
    outer loop
    vertex 7.4 6.1 0
    vertex 7.12825 6.07236 0
    vertex 10.1 12.25 0
    endloop
  endfacet
  facet normal 0 0 -1
    outer loop
    vertex 10.1 12.25 0
    vertex 7.12825 6.07236 0
    vertex 2.6 12.25 0
    endloop
  endfacet
  facet normal 0 0 -1
    outer loop
    vertex 10.1 12.25 0
    vertex 7.67175 6.07236 0
    vertex 7.4 6.1 0
    endloop
  endfacet
  facet normal 0 0 -1
    outer loop
    vertex 10.1 12.25 0
    vertex 7.93238 5.99059 0
    vertex 7.67175 6.07236 0
    endloop
  endfacet
  facet normal 0.707107 0.707107 0
    outer loop
    vertex 14.9 7.45 0
    vertex 10.1 12.25 2
    vertex 14.9 7.45 2
    endloop
  endfacet
  facet normal 0 0 1
    outer loop
    vertex 10.1 12.25 2
    vertex 8.9 7.34807 2
    vertex 14.9 7.45 2
    endloop
  endfacet
  facet normal 0 -0 1
    outer loop
    vertex 2.6 12.25 2
    vertex 5.9 7.34807 2
    vertex 10.1 12.25 2
    endloop
  endfacet
  facet normal 0 1 0
    outer loop
    vertex 2.6 12.25 2
    vertex 10.1 12.25 2
    vertex 2.6 12.25 0
    endloop
  endfacet
  facet normal 0 0 1
    outer loop
    vertex 10.1 12.25 2
    vertex 5.9 7.34807 2
    vertex 8.9 7.34807 2
    endloop
  endfacet
  facet normal 1 -0 0
    outer loop
    vertex 14.9 7.45 2
    vertex 14.9 0.366943 2
    vertex 14.9 7.45 0
    endloop
  endfacet
  facet normal 1 0 0
    outer loop
    vertex 14.9 7.45 0
    vertex 14.9 0.366943 2
    vertex 14.9 0.366943 0
    endloop
  endfacet
  facet normal 0 0 -1
    outer loop
    vertex 14.9 0.366943 0
    vertex 8.7069 4.41161 0
    vertex 14.9 7.45 0
    endloop
  endfacet
  facet normal 0 0 -1
    outer loop
    vertex 14.9 7.45 0
    vertex 8.17121 5.85803 0
    vertex 7.93238 5.99059 0
    endloop
  endfacet
  facet normal 0 0 -1
    outer loop
    vertex 8.37847 5.6801 0
    vertex 8.17121 5.85803 0
    vertex 14.9 7.45 0
    endloop
  endfacet
  facet normal 0 0 -1
    outer loop
    vertex 14.9 7.45 0
    vertex 8.54567 5.4641 0
    vertex 8.37847 5.6801 0
    endloop
  endfacet
  facet normal 0 0 -1
    outer loop
    vertex 14.9 7.45 0
    vertex 8.66597 5.21886 0
    vertex 8.54567 5.4641 0
    endloop
  endfacet
  facet normal 0 0 -1
    outer loop
    vertex 8.73443 4.95442 0
    vertex 8.66597 5.21886 0
    vertex 14.9 7.45 0
    endloop
  endfacet
  facet normal 0 0 -1
    outer loop
    vertex 14.9 7.45 0
    vertex 8.74827 4.68162 0
    vertex 8.73443 4.95442 0
    endloop
  endfacet
  facet normal 0 0 -1
    outer loop
    vertex 14.9 7.45 0
    vertex 8.7069 4.41161 0
    vertex 8.74827 4.68162 0
    endloop
  endfacet
  facet normal -0 0 1
    outer loop
    vertex 14.9 7.45 2
    vertex 10.4 4.75 2
    vertex 14.9 0.366943 2
    endloop
  endfacet
  facet normal -0 0 1
    outer loop
    vertex 14.9 7.45 2
    vertex 8.9 7.34807 2
    vertex 10.4 4.75 2
    endloop
  endfacet
  facet normal 0.707107 -0.707107 0
    outer loop
    vertex 5.28305 -9.25001 2
    vertex 14.9 0.366943 0
    vertex 14.9 0.366943 2
    endloop
  endfacet
  facet normal 0 0 1
    outer loop
    vertex 14.9 0.366943 2
    vertex 10.4 4.75 2
    vertex 8.9 2.15192 2
    endloop
  endfacet
  facet normal 0 0 1
    outer loop
    vertex 14.9 0.366943 2
    vertex 8.9 2.15192 2
    vertex 5.28305 -9.25001 2
    endloop
  endfacet
  facet normal 0 0 -1
    outer loop
    vertex 14.9 0.366943 0
    vertex 8.61204 4.15546 0
    vertex 8.7069 4.41161 0
    endloop
  endfacet
  facet normal 0 -0 -1
    outer loop
    vertex 8.46755 3.92365 0
    vertex 8.61204 4.15546 0
    vertex 14.9 0.366943 0
    endloop
  endfacet
  facet normal 0 0 -1
    outer loop
    vertex 14.9 0.366943 0
    vertex 8.27935 3.72567 0
    vertex 8.46755 3.92365 0
    endloop
  endfacet
  facet normal 0 0 -1
    outer loop
    vertex 14.9 0.366943 0
    vertex 8.05516 3.56963 0
    vertex 8.27935 3.72567 0
    endloop
  endfacet
  facet normal 0 -0 -1
    outer loop
    vertex 7.80414 3.46191 0
    vertex 8.05516 3.56963 0
    vertex 14.9 0.366943 0
    endloop
  endfacet
  facet normal 0 0 -1
    outer loop
    vertex 14.9 0.366943 0
    vertex 7.53658 3.40692 0
    vertex 7.80414 3.46191 0
    endloop
  endfacet
  facet normal 0 0 -1
    outer loop
    vertex 14.9 0.366943 0
    vertex 7.26342 3.40692 0
    vertex 7.53658 3.40692 0
    endloop
  endfacet
  facet normal 0 -0 1
    outer loop
    vertex 2.6 12.25 2
    vertex 4.4 4.75 2
    vertex 5.9 7.34807 2
    endloop
  endfacet
  facet normal -0.866025 0.5 0
    outer loop
    vertex 5.9 7.34807 2
    vertex 4.4 4.75 2
    vertex 5.9 7.34807 4.9
    endloop
  endfacet
  facet normal -0.866025 -0.5 0
    outer loop
    vertex 4.4 4.75 2
    vertex 5.9 2.15192 2
    vertex 4.4 4.75 4.9
    endloop
  endfacet
  facet normal -0.866025 0.5 0
    outer loop
    vertex 5.9 7.34807 4.9
    vertex 4.4 4.75 2
    vertex 4.4 4.75 4.9
    endloop
  endfacet
  facet normal 0 1 0
    outer loop
    vertex 8.9 7.34807 2
    vertex 5.9 7.34807 2
    vertex 8.9 7.34807 4.9
    endloop
  endfacet
  facet normal 0 1 0
    outer loop
    vertex 8.9 7.34807 4.9
    vertex 5.9 7.34807 2
    vertex 5.9 7.34807 4.9
    endloop
  endfacet
  facet normal 0.866025 0.5 0
    outer loop
    vertex 10.4 4.75 2
    vertex 8.9 7.34807 2
    vertex 10.4 4.75 4.9
    endloop
  endfacet
  facet normal 0.866025 0.5 -0
    outer loop
    vertex 10.4 4.75 4.9
    vertex 8.9 7.34807 2
    vertex 8.9 7.34807 4.9
    endloop
  endfacet
  facet normal 0.866025 -0.5 0
    outer loop
    vertex 8.9 2.15192 2
    vertex 10.4 4.75 2
    vertex 8.9 2.15192 4.9
    endloop
  endfacet
  facet normal 0.866025 -0.5 0
    outer loop
    vertex 8.9 2.15192 4.9
    vertex 10.4 4.75 2
    vertex 10.4 4.75 4.9
    endloop
  endfacet
  facet normal 0 0 1
    outer loop
    vertex 5.28305 -9.25001 2
    vertex 8.9 2.15192 2
    vertex 5.9 2.15192 2
    endloop
  endfacet
  facet normal 0 -1 0
    outer loop
    vertex 5.9 2.15192 2
    vertex 8.9 2.15192 2
    vertex 5.9 2.15192 4.9
    endloop
  endfacet
  facet normal 0 -1 0
    outer loop
    vertex 5.9 2.15192 4.9
    vertex 8.9 2.15192 2
    vertex 8.9 2.15192 4.9
    endloop
  endfacet
  facet normal -0.866025 -0.5 0
    outer loop
    vertex 4.4 4.75 4.9
    vertex 5.9 2.15192 2
    vertex 5.9 2.15192 4.9
    endloop
  endfacet
  facet normal -0.988469 0 0.151426
    outer loop
    vertex -2.30951 -5.25 13.4231
    vertex -2.22745 -7.25 13.9588
    vertex -2.22745 -5.25 13.9588
    endloop
  endfacet
  facet normal -0.968077 0 0.250653
    outer loop
    vertex -2.44535 -5.25 12.8984
    vertex -2.30951 -7.25 13.4231
    vertex -2.30951 -5.25 13.4231
    endloop
  endfacet
  facet normal -0.988469 0 0.151426
    outer loop
    vertex -2.30951 -5.25 13.4231
    vertex -2.30951 -7.25 13.4231
    vertex -2.22745 -7.25 13.9588
    endloop
  endfacet
  facet normal -0.937752 0 0.347305
    outer loop
    vertex -2.63358 -5.25 12.3902
    vertex -2.44535 -7.25 12.8984
    vertex -2.44535 -5.25 12.8984
    endloop
  endfacet
  facet normal -0.968077 0 0.250653
    outer loop
    vertex -2.44535 -5.25 12.8984
    vertex -2.44535 -7.25 12.8984
    vertex -2.30951 -7.25 13.4231
    endloop
  endfacet
  facet normal -0.897804 0 0.440394
    outer loop
    vertex -2.87225 -5.25 11.9036
    vertex -2.63358 -7.25 12.3902
    vertex -2.63358 -5.25 12.3902
    endloop
  endfacet
  facet normal -0.937752 0 0.347305
    outer loop
    vertex -2.63358 -5.25 12.3902
    vertex -2.63358 -7.25 12.3902
    vertex -2.44535 -7.25 12.8984
    endloop
  endfacet
  facet normal -0.848643 0 0.528966
    outer loop
    vertex -3.15892 -5.25 11.4437
    vertex -2.87225 -7.25 11.9036
    vertex -2.87225 -5.25 11.9036
    endloop
  endfacet
  facet normal -0.897804 0 0.440394
    outer loop
    vertex -2.87225 -5.25 11.9036
    vertex -2.87225 -7.25 11.9036
    vertex -2.63358 -7.25 12.3902
    endloop
  endfacet
  facet normal -0.790776 0 0.612106
    outer loop
    vertex -3.49064 -5.25 11.0152
    vertex -3.15892 -7.25 11.4437
    vertex -3.15892 -5.25 11.4437
    endloop
  endfacet
  facet normal -0.848643 0 0.528966
    outer loop
    vertex -3.15892 -5.25 11.4437
    vertex -3.15892 -7.25 11.4437
    vertex -2.87225 -7.25 11.9036
    endloop
  endfacet
  facet normal -0.724793 0 0.688967
    outer loop
    vertex -3.86403 -5.25 10.6224
    vertex -3.49064 -7.25 11.0152
    vertex -3.49064 -5.25 11.0152
    endloop
  endfacet
  facet normal -0.790776 0 0.612106
    outer loop
    vertex -3.49064 -5.25 11.0152
    vertex -3.49064 -7.25 11.0152
    vertex -3.15892 -7.25 11.4437
    endloop
  endfacet
  facet normal -0.651371 0 0.758759
    outer loop
    vertex -4.27523 -5.25 10.2694
    vertex -3.86403 -7.25 10.6224
    vertex -3.86403 -5.25 10.6224
    endloop
  endfacet
  facet normal -0.724793 0 0.688967
    outer loop
    vertex -3.86403 -5.25 10.6224
    vertex -3.86403 -7.25 10.6224
    vertex -3.49064 -7.25 11.0152
    endloop
  endfacet
  facet normal -0.571269 0 0.820763
    outer loop
    vertex -4.72004 -5.25 9.95975
    vertex -4.27523 -7.25 10.2694
    vertex -4.27523 -5.25 10.2694
    endloop
  endfacet
  facet normal -0.651371 0 0.758759
    outer loop
    vertex -4.27523 -5.25 10.2694
    vertex -4.27523 -7.25 10.2694
    vertex -3.86403 -7.25 10.6224
    endloop
  endfacet
  facet normal -0.485302 0 0.874347
    outer loop
    vertex -5.19389 -5.25 9.69675
    vertex -4.72004 -7.25 9.95975
    vertex -4.72004 -5.25 9.95975
    endloop
  endfacet
  facet normal -0.571269 0 0.820763
    outer loop
    vertex -4.72004 -5.25 9.95975
    vertex -4.72004 -7.25 9.95975
    vertex -4.27523 -7.25 10.2694
    endloop
  endfacet
  facet normal -0.394356 0 0.918958
    outer loop
    vertex -5.69192 -5.25 9.48303
    vertex -5.19389 -7.25 9.69675
    vertex -5.19389 -5.25 9.69675
    endloop
  endfacet
  facet normal -0.485302 0 0.874347
    outer loop
    vertex -5.19389 -5.25 9.69675
    vertex -5.19389 -7.25 9.69675
    vertex -4.72004 -7.25 9.95975
    endloop
  endfacet
  facet normal -0.299364 0 0.954139
    outer loop
    vertex -6.20901 -5.25 9.32079
    vertex -5.69192 -7.25 9.48303
    vertex -5.69192 -5.25 9.48303
    endloop
  endfacet
  facet normal -0.394356 0 0.918958
    outer loop
    vertex -5.69192 -5.25 9.48303
    vertex -5.69192 -7.25 9.48303
    vertex -5.19389 -7.25 9.69675
    endloop
  endfacet
  facet normal -0.201299 0 0.97953
    outer loop
    vertex -6.73986 -5.25 9.21169
    vertex -6.20901 -7.25 9.32079
    vertex -6.20901 -5.25 9.32079
    endloop
  endfacet
  facet normal -0.299364 0 0.954139
    outer loop
    vertex -6.20901 -5.25 9.32079
    vertex -6.20901 -7.25 9.32079
    vertex -5.69192 -7.25 9.48303
    endloop
  endfacet
  facet normal -0.101166 0 0.99487
    outer loop
    vertex -7.27903 -5.25 9.15687
    vertex -6.73986 -7.25 9.21169
    vertex -6.73986 -5.25 9.21169
    endloop
  endfacet
  facet normal -0.201299 0 0.97953
    outer loop
    vertex -6.73986 -5.25 9.21169
    vertex -6.73986 -7.25 9.21169
    vertex -6.20901 -7.25 9.32079
    endloop
  endfacet
  facet normal 0 -0 1
    outer loop
    vertex -7.82097 -5.25 9.15687
    vertex -7.27903 -7.25 9.15687
    vertex -7.27903 -5.25 9.15687
    endloop
  endfacet
  facet normal -0.101166 0 0.99487
    outer loop
    vertex -7.27903 -5.25 9.15687
    vertex -7.27903 -7.25 9.15687
    vertex -6.73986 -7.25 9.21169
    endloop
  endfacet
  facet normal 0.101166 -0 0.99487
    outer loop
    vertex -8.36014 -5.25 9.21169
    vertex -7.82097 -7.25 9.15687
    vertex -7.82097 -5.25 9.15687
    endloop
  endfacet
  facet normal 0 0 1
    outer loop
    vertex -7.82097 -5.25 9.15687
    vertex -7.82097 -7.25 9.15687
    vertex -7.27903 -7.25 9.15687
    endloop
  endfacet
  facet normal 0.2013 -0 0.97953
    outer loop
    vertex -8.89099 -5.25 9.32079
    vertex -8.36014 -7.25 9.21169
    vertex -8.36014 -5.25 9.21169
    endloop
  endfacet
  facet normal 0.101166 -0 0.99487
    outer loop
    vertex -8.36014 -5.25 9.21169
    vertex -8.36014 -7.25 9.21169
    vertex -7.82097 -7.25 9.15687
    endloop
  endfacet
  facet normal 0.299364 -0 0.954139
    outer loop
    vertex -9.40808 -5.25 9.48303
    vertex -8.89099 -7.25 9.32079
    vertex -8.89099 -5.25 9.32079
    endloop
  endfacet
  facet normal 0.2013 -0 0.97953
    outer loop
    vertex -8.89099 -5.25 9.32079
    vertex -8.89099 -7.25 9.32079
    vertex -8.36014 -7.25 9.21169
    endloop
  endfacet
  facet normal 0.394355 -0 0.918958
    outer loop
    vertex -9.90611 -5.25 9.69675
    vertex -9.40808 -7.25 9.48303
    vertex -9.40808 -5.25 9.48303
    endloop
  endfacet
  facet normal 0.299364 -0 0.954139
    outer loop
    vertex -9.40808 -5.25 9.48303
    vertex -9.40808 -7.25 9.48303
    vertex -8.89099 -7.25 9.32079
    endloop
  endfacet
  facet normal 0.485301 -0 0.874347
    outer loop
    vertex -10.38 -5.25 9.95975
    vertex -9.90611 -7.25 9.69675
    vertex -9.90611 -5.25 9.69675
    endloop
  endfacet
  facet normal 0.394355 -0 0.918958
    outer loop
    vertex -9.90611 -5.25 9.69675
    vertex -9.90611 -7.25 9.69675
    vertex -9.40808 -7.25 9.48303
    endloop
  endfacet
  facet normal 0.571268 -0 0.820763
    outer loop
    vertex -10.8248 -5.25 10.2694
    vertex -10.38 -7.25 9.95975
    vertex -10.38 -5.25 9.95975
    endloop
  endfacet
  facet normal 0.485301 -0 0.874347
    outer loop
    vertex -10.38 -5.25 9.95975
    vertex -10.38 -7.25 9.95975
    vertex -9.90611 -7.25 9.69675
    endloop
  endfacet
  facet normal 0.651373 -0 0.758758
    outer loop
    vertex -11.236 -5.25 10.6224
    vertex -10.8248 -7.25 10.2694
    vertex -10.8248 -5.25 10.2694
    endloop
  endfacet
  facet normal 0.571268 -0 0.820763
    outer loop
    vertex -10.8248 -5.25 10.2694
    vertex -10.8248 -7.25 10.2694
    vertex -10.38 -7.25 9.95975
    endloop
  endfacet
  facet normal 0.724793 -0 0.688967
    outer loop
    vertex -11.6094 -5.25 11.0152
    vertex -11.236 -7.25 10.6224
    vertex -11.236 -5.25 10.6224
    endloop
  endfacet
  facet normal 0.651373 -0 0.758758
    outer loop
    vertex -11.236 -5.25 10.6224
    vertex -11.236 -7.25 10.6224
    vertex -10.8248 -7.25 10.2694
    endloop
  endfacet
  facet normal 0.790776 -0 0.612106
    outer loop
    vertex -11.9411 -5.25 11.4437
    vertex -11.6094 -7.25 11.0152
    vertex -11.6094 -5.25 11.0152
    endloop
  endfacet
  facet normal 0.724793 -0 0.688967
    outer loop
    vertex -11.6094 -5.25 11.0152
    vertex -11.6094 -7.25 11.0152
    vertex -11.236 -7.25 10.6224
    endloop
  endfacet
  facet normal 0.848644 -0 0.528964
    outer loop
    vertex -12.2278 -5.25 11.9036
    vertex -11.9411 -7.25 11.4437
    vertex -11.9411 -5.25 11.4437
    endloop
  endfacet
  facet normal 0.790776 -0 0.612106
    outer loop
    vertex -11.9411 -5.25 11.4437
    vertex -11.9411 -7.25 11.4437
    vertex -11.6094 -7.25 11.0152
    endloop
  endfacet
  facet normal 0.897804 -0 0.440396
    outer loop
    vertex -12.4664 -5.25 12.3902
    vertex -12.2278 -7.25 11.9036
    vertex -12.2278 -5.25 11.9036
    endloop
  endfacet
  facet normal 0.848644 -0 0.528964
    outer loop
    vertex -12.2278 -5.25 11.9036
    vertex -12.2278 -7.25 11.9036
    vertex -11.9411 -7.25 11.4437
    endloop
  endfacet
  facet normal 0.937753 -0 0.347304
    outer loop
    vertex -12.6546 -5.25 12.8984
    vertex -12.4664 -7.25 12.3902
    vertex -12.4664 -5.25 12.3902
    endloop
  endfacet
  facet normal 0.897804 -0 0.440396
    outer loop
    vertex -12.4664 -5.25 12.3902
    vertex -12.4664 -7.25 12.3902
    vertex -12.2278 -7.25 11.9036
    endloop
  endfacet
  facet normal 0.968078 -0 0.25065
    outer loop
    vertex -12.7905 -5.25 13.4231
    vertex -12.6546 -7.25 12.8984
    vertex -12.6546 -5.25 12.8984
    endloop
  endfacet
  facet normal 0.937753 -0 0.347304
    outer loop
    vertex -12.6546 -5.25 12.8984
    vertex -12.6546 -7.25 12.8984
    vertex -12.4664 -7.25 12.3902
    endloop
  endfacet
  facet normal 0.988468 -0 0.151429
    outer loop
    vertex -12.8726 -5.25 13.9588
    vertex -12.7905 -7.25 13.4231
    vertex -12.7905 -5.25 13.4231
    endloop
  endfacet
  facet normal 0.968078 -0 0.25065
    outer loop
    vertex -12.7905 -5.25 13.4231
    vertex -12.7905 -7.25 13.4231
    vertex -12.6546 -7.25 12.8984
    endloop
  endfacet
  facet normal 0.998717 -0 0.0506484
    outer loop
    vertex -12.9 -5.25 14.5
    vertex -12.8726 -7.25 13.9588
    vertex -12.8726 -5.25 13.9588
    endloop
  endfacet
  facet normal 0.988468 -0 0.151429
    outer loop
    vertex -12.8726 -5.25 13.9588
    vertex -12.8726 -7.25 13.9588
    vertex -12.7905 -7.25 13.4231
    endloop
  endfacet
  facet normal 1 0 0
    outer loop
    vertex -12.9 -5.25 24.5
    vertex -12.9 -7.25 14.5
    vertex -12.9 -5.25 14.5
    endloop
  endfacet
  facet normal 0.998717 0 0.0506484
    outer loop
    vertex -12.9 -7.25 14.5
    vertex -12.8726 -7.25 13.9588
    vertex -12.9 -5.25 14.5
    endloop
  endfacet
  facet normal 1 0 0
    outer loop
    vertex -12.9 -7.25 24.5
    vertex -12.9 -7.25 14.5
    vertex -12.9 -5.25 24.5
    endloop
  endfacet
  facet normal -0.997332 0 0.0729981
    outer loop
    vertex -4.92824 -7.25 14.1142
    vertex -4.92824 -9.25001 14.1142
    vertex -4.9 -7.25 14.5
    endloop
  endfacet
  facet normal -0.976075 0 0.217434
    outer loop
    vertex -4.92824 -7.25 14.1142
    vertex -5.01236 -9.25001 13.7365
    vertex -4.92824 -9.25001 14.1142
    endloop
  endfacet
  facet normal 0 1 0
    outer loop
    vertex -4.9 -7.25 14.5
    vertex -2.22745 -7.25 13.9588
    vertex -4.92824 -7.25 14.1142
    endloop
  endfacet
  facet normal -0.976075 0 0.217434
    outer loop
    vertex -5.01236 -7.25 13.7365
    vertex -5.01236 -9.25001 13.7365
    vertex -4.92824 -7.25 14.1142
    endloop
  endfacet
  facet normal -0 1 0
    outer loop
    vertex -2.63358 -7.25 12.3902
    vertex -5.01236 -7.25 13.7365
    vertex -4.92824 -7.25 14.1142
    endloop
  endfacet
  facet normal 0 1 0
    outer loop
    vertex -4.92824 -7.25 14.1142
    vertex -2.22745 -7.25 13.9588
    vertex -2.30951 -7.25 13.4231
    endloop
  endfacet
  facet normal 0 1 0
    outer loop
    vertex -4.92824 -7.25 14.1142
    vertex -2.30951 -7.25 13.4231
    vertex -2.44535 -7.25 12.8984
    endloop
  endfacet
  facet normal 0 1 0
    outer loop
    vertex -2.63358 -7.25 12.3902
    vertex -4.92824 -7.25 14.1142
    vertex -2.44535 -7.25 12.8984
    endloop
  endfacet
  facet normal -0.997332 0 0.0729981
    outer loop
    vertex -4.9 -7.25 14.5
    vertex -4.92824 -9.25001 14.1142
    vertex -4.9 -9.25001 14.5
    endloop
  endfacet
  facet normal -0.997332 0 -0.0729979
    outer loop
    vertex -4.9 -7.25 14.5
    vertex -4.9 -9.25001 14.5
    vertex -4.92824 -7.25 14.8858
    endloop
  endfacet
  facet normal -0.997332 0 -0.0729979
    outer loop
    vertex -4.92824 -7.25 14.8858
    vertex -4.9 -9.25001 14.5
    vertex -4.92824 -9.25001 14.8858
    endloop
  endfacet
  facet normal -0.976075 0 -0.217434
    outer loop
    vertex -4.92824 -7.25 14.8858
    vertex -4.92824 -9.25001 14.8858
    vertex -5.01236 -7.25 15.2635
    endloop
  endfacet
  facet normal -0.976075 0 -0.217434
    outer loop
    vertex -5.01236 -7.25 15.2635
    vertex -4.92824 -9.25001 14.8858
    vertex -5.01236 -9.25001 15.2635
    endloop
  endfacet
  facet normal -0.934018 0 -0.357227
    outer loop
    vertex -5.01236 -7.25 15.2635
    vertex -5.01236 -9.25001 15.2635
    vertex -5.15056 -7.25 15.6248
    endloop
  endfacet
  facet normal -0.934018 0 -0.357227
    outer loop
    vertex -5.15056 -7.25 15.6248
    vertex -5.01236 -9.25001 15.2635
    vertex -5.15056 -9.25001 15.6248
    endloop
  endfacet
  facet normal -0.872049 0 -0.489419
    outer loop
    vertex -5.15056 -7.25 15.6248
    vertex -5.15056 -9.25001 15.6248
    vertex -5.33991 -7.25 15.9622
    endloop
  endfacet
  facet normal -0.872049 0 -0.489419
    outer loop
    vertex -5.33991 -7.25 15.9622
    vertex -5.15056 -9.25001 15.6248
    vertex -5.33991 -9.25001 15.9622
    endloop
  endfacet
  facet normal -0.791493 0 -0.611178
    outer loop
    vertex -5.33991 -7.25 15.9622
    vertex -5.33991 -9.25001 15.9622
    vertex -5.57636 -7.25 16.2684
    endloop
  endfacet
  facet normal -0.791493 0 -0.611178
    outer loop
    vertex -5.57636 -7.25 16.2684
    vertex -5.33991 -9.25001 15.9622
    vertex -5.57636 -9.25001 16.2684
    endloop
  endfacet
  facet normal -0.694077 0 -0.719901
    outer loop
    vertex -5.57636 -7.25 16.2684
    vertex -5.57636 -9.25001 16.2684
    vertex -5.85487 -7.25 16.5369
    endloop
  endfacet
  facet normal -0.694077 0 -0.719901
    outer loop
    vertex -5.85487 -7.25 16.5369
    vertex -5.57636 -9.25001 16.2684
    vertex -5.85487 -9.25001 16.5369
    endloop
  endfacet
  facet normal -0.581864 0 -0.813286
    outer loop
    vertex -5.85487 -7.25 16.5369
    vertex -5.85487 -9.25001 16.5369
    vertex -6.16951 -7.25 16.762
    endloop
  endfacet
  facet normal -0.581864 0 -0.813286
    outer loop
    vertex -6.16951 -7.25 16.762
    vertex -5.85487 -9.25001 16.5369
    vertex -6.16951 -9.25001 16.762
    endloop
  endfacet
  facet normal -0.457237 0 -0.889345
    outer loop
    vertex -6.16951 -7.25 16.762
    vertex -6.16951 -9.25001 16.762
    vertex -6.51357 -7.25 16.9389
    endloop
  endfacet
  facet normal -0.457237 0 -0.889345
    outer loop
    vertex -6.51357 -7.25 16.9389
    vertex -6.16951 -9.25001 16.762
    vertex -6.51357 -9.25001 16.9389
    endloop
  endfacet
  facet normal -0.32288 0 -0.94644
    outer loop
    vertex -6.51357 -7.25 16.9389
    vertex -6.51357 -9.25001 16.9389
    vertex -6.87973 -7.25 17.0638
    endloop
  endfacet
  facet normal -0.32288 0 -0.94644
    outer loop
    vertex -6.87973 -7.25 17.0638
    vertex -6.51357 -9.25001 16.9389
    vertex -6.87973 -9.25001 17.0638
    endloop
  endfacet
  facet normal -0.181641 0 -0.983365
    outer loop
    vertex -6.87973 -7.25 17.0638
    vertex -6.87973 -9.25001 17.0638
    vertex -7.26017 -7.25 17.1341
    endloop
  endfacet
  facet normal -0.181641 0 -0.983365
    outer loop
    vertex -7.26017 -7.25 17.1341
    vertex -6.87973 -9.25001 17.0638
    vertex -7.26017 -9.25001 17.1341
    endloop
  endfacet
  facet normal -0.0365222 0 -0.999333
    outer loop
    vertex -7.26017 -7.25 17.1341
    vertex -7.26017 -9.25001 17.1341
    vertex -7.64678 -7.25 17.1482
    endloop
  endfacet
  facet normal -0.0365222 0 -0.999333
    outer loop
    vertex -7.64678 -7.25 17.1482
    vertex -7.26017 -9.25001 17.1341
    vertex -7.64678 -9.25001 17.1482
    endloop
  endfacet
  facet normal 0.109375 0 -0.994
    outer loop
    vertex -7.64678 -7.25 17.1482
    vertex -7.64678 -9.25001 17.1482
    vertex -8.03134 -7.25 17.1059
    endloop
  endfacet
  facet normal 0 1 0
    outer loop
    vertex -12.9 -7.25 24.5
    vertex -7.64678 -7.25 17.1482
    vertex -8.03134 -7.25 17.1059
    endloop
  endfacet
  facet normal 0.109375 0 -0.994
    outer loop
    vertex -8.03134 -7.25 17.1059
    vertex -7.64678 -9.25001 17.1482
    vertex -8.03134 -9.25001 17.1059
    endloop
  endfacet
  facet normal 0.252931 0 -0.967484
    outer loop
    vertex -8.03134 -7.25 17.1059
    vertex -8.03134 -9.25001 17.1059
    vertex -8.40563 -7.25 17.0081
    endloop
  endfacet
  facet normal 0 1 0
    outer loop
    vertex -12.9 -7.25 24.5
    vertex -8.03134 -7.25 17.1059
    vertex -8.40563 -7.25 17.0081
    endloop
  endfacet
  facet normal 0.252931 0 -0.967484
    outer loop
    vertex -8.40563 -7.25 17.0081
    vertex -8.03134 -9.25001 17.1059
    vertex -8.40563 -9.25001 17.0081
    endloop
  endfacet
  facet normal 0.391103 0 -0.920347
    outer loop
    vertex -8.40563 -7.25 17.0081
    vertex -8.40563 -9.25001 17.0081
    vertex -8.76169 -7.25 16.8568
    endloop
  endfacet
  facet normal 0 1 -0
    outer loop
    vertex -8.40563 -7.25 17.0081
    vertex -8.76169 -7.25 16.8568
    vertex -12.9 -7.25 24.5
    endloop
  endfacet
  facet normal 0.391103 0 -0.920347
    outer loop
    vertex -8.76169 -7.25 16.8568
    vertex -8.40563 -9.25001 17.0081
    vertex -8.76169 -9.25001 16.8568
    endloop
  endfacet
  facet normal 0.520943 0 -0.853592
    outer loop
    vertex -8.76169 -7.25 16.8568
    vertex -8.76169 -9.25001 16.8568
    vertex -9.09193 -7.25 16.6552
    endloop
  endfacet
  facet normal 0 1 0
    outer loop
    vertex -12.9 -7.25 24.5
    vertex -8.76169 -7.25 16.8568
    vertex -9.09193 -7.25 16.6552
    endloop
  endfacet
  facet normal 0.520943 0 -0.853592
    outer loop
    vertex -9.09193 -7.25 16.6552
    vertex -8.76169 -9.25001 16.8568
    vertex -9.09193 -9.25001 16.6552
    endloop
  endfacet
  facet normal 0.63967 0 -0.76865
    outer loop
    vertex -9.09193 -7.25 16.6552
    vertex -9.09193 -9.25001 16.6552
    vertex -9.3893 -7.25 16.4077
    endloop
  endfacet
  facet normal 0 1 0
    outer loop
    vertex -12.9 -7.25 24.5
    vertex -9.09193 -7.25 16.6552
    vertex -9.3893 -7.25 16.4077
    endloop
  endfacet
  facet normal 0.63967 0 -0.76865
    outer loop
    vertex -9.3893 -7.25 16.4077
    vertex -9.09193 -9.25001 16.6552
    vertex -9.3893 -9.25001 16.4077
    endloop
  endfacet
  facet normal 0.744772 0 -0.667319
    outer loop
    vertex -9.3893 -7.25 16.4077
    vertex -9.3893 -9.25001 16.4077
    vertex -9.64747 -7.25 16.1196
    endloop
  endfacet
  facet normal 0 1 -0
    outer loop
    vertex -9.3893 -7.25 16.4077
    vertex -9.64747 -7.25 16.1196
    vertex -12.9 -7.25 24.5
    endloop
  endfacet
  facet normal 0.744772 0 -0.667319
    outer loop
    vertex -9.64747 -7.25 16.1196
    vertex -9.3893 -9.25001 16.4077
    vertex -9.64747 -9.25001 16.1196
    endloop
  endfacet
  facet normal 0.834 0 -0.551764
    outer loop
    vertex -9.64747 -7.25 16.1196
    vertex -9.64747 -9.25001 16.1196
    vertex -9.86093 -7.25 15.797
    endloop
  endfacet
  facet normal 0 1 0
    outer loop
    vertex -12.9 -7.25 14.5
    vertex -9.64747 -7.25 16.1196
    vertex -9.86093 -7.25 15.797
    endloop
  endfacet
  facet normal 0 1 0
    outer loop
    vertex -12.9 -7.25 24.5
    vertex -9.64747 -7.25 16.1196
    vertex -12.9 -7.25 14.5
    endloop
  endfacet
  facet normal 0.834 0 -0.551764
    outer loop
    vertex -9.86093 -7.25 15.797
    vertex -9.64747 -9.25001 16.1196
    vertex -9.86093 -9.25001 15.797
    endloop
  endfacet
  facet normal 0.905447 0 -0.42446
    outer loop
    vertex -9.86093 -7.25 15.797
    vertex -9.86093 -9.25001 15.797
    vertex -10.0251 -7.25 15.4467
    endloop
  endfacet
  facet normal 0 1 0
    outer loop
    vertex -12.9 -7.25 14.5
    vertex -9.86093 -7.25 15.797
    vertex -10.0251 -7.25 15.4467
    endloop
  endfacet
  facet normal 0.905447 0 -0.42446
    outer loop
    vertex -10.0251 -7.25 15.4467
    vertex -9.86093 -9.25001 15.797
    vertex -10.0251 -9.25001 15.4467
    endloop
  endfacet
  facet normal 0.957601 0 -0.288099
    outer loop
    vertex -10.0251 -7.25 15.4467
    vertex -10.0251 -9.25001 15.4467
    vertex -10.1366 -7.25 15.0762
    endloop
  endfacet
  facet normal 0 1 -0
    outer loop
    vertex -10.0251 -7.25 15.4467
    vertex -10.1366 -7.25 15.0762
    vertex -12.9 -7.25 14.5
    endloop
  endfacet
  facet normal 0.957601 0 -0.288099
    outer loop
    vertex -10.1366 -7.25 15.0762
    vertex -10.0251 -9.25001 15.4467
    vertex -10.1366 -9.25001 15.0762
    endloop
  endfacet
  facet normal 0.989344 0 -0.145597
    outer loop
    vertex -10.1366 -7.25 15.0762
    vertex -10.1366 -9.25001 15.0762
    vertex -10.1929 -7.25 14.6934
    endloop
  endfacet
  facet normal 0 1 0
    outer loop
    vertex -12.9 -7.25 14.5
    vertex -10.1366 -7.25 15.0762
    vertex -10.1929 -7.25 14.6934
    endloop
  endfacet
  facet normal 0.989344 0 -0.145597
    outer loop
    vertex -10.1929 -7.25 14.6934
    vertex -10.1366 -9.25001 15.0762
    vertex -10.1929 -9.25001 14.6934
    endloop
  endfacet
  facet normal 1 -0 0
    outer loop
    vertex -10.1929 -7.25 14.6934
    vertex -10.1929 -9.25001 14.6934
    vertex -10.1929 -7.25 14.3066
    endloop
  endfacet
  facet normal 0 1 0
    outer loop
    vertex -12.9 -7.25 14.5
    vertex -10.1929 -7.25 14.6934
    vertex -10.1929 -7.25 14.3066
    endloop
  endfacet
  facet normal 1 0 0
    outer loop
    vertex -10.1929 -7.25 14.3066
    vertex -10.1929 -9.25001 14.6934
    vertex -10.1929 -9.25001 14.3066
    endloop
  endfacet
  facet normal 0.989344 -0 0.145597
    outer loop
    vertex -10.1929 -7.25 14.3066
    vertex -10.1929 -9.25001 14.3066
    vertex -10.1366 -7.25 13.9238
    endloop
  endfacet
  facet normal 0 1 0
    outer loop
    vertex -10.1366 -7.25 13.9238
    vertex -12.6546 -7.25 12.8984
    vertex -10.1929 -7.25 14.3066
    endloop
  endfacet
  facet normal 0 1 0
    outer loop
    vertex -12.8726 -7.25 13.9588
    vertex -12.9 -7.25 14.5
    vertex -10.1929 -7.25 14.3066
    endloop
  endfacet
  facet normal 0 1 -0
    outer loop
    vertex -10.1929 -7.25 14.3066
    vertex -12.6546 -7.25 12.8984
    vertex -12.7905 -7.25 13.4231
    endloop
  endfacet
  facet normal 0 1 -0
    outer loop
    vertex -10.1929 -7.25 14.3066
    vertex -12.7905 -7.25 13.4231
    vertex -12.8726 -7.25 13.9588
    endloop
  endfacet
  facet normal 0.989344 0 0.145597
    outer loop
    vertex -10.1366 -7.25 13.9238
    vertex -10.1929 -9.25001 14.3066
    vertex -10.1366 -9.25001 13.9238
    endloop
  endfacet
  facet normal 0.9576 -0 0.2881
    outer loop
    vertex -10.1366 -7.25 13.9238
    vertex -10.1366 -9.25001 13.9238
    vertex -10.0251 -7.25 13.5533
    endloop
  endfacet
  facet normal 0 1 0
    outer loop
    vertex -10.0251 -7.25 13.5533
    vertex -12.2278 -7.25 11.9036
    vertex -10.1366 -7.25 13.9238
    endloop
  endfacet
  facet normal 0 1 -0
    outer loop
    vertex -10.1366 -7.25 13.9238
    vertex -12.4664 -7.25 12.3902
    vertex -12.6546 -7.25 12.8984
    endloop
  endfacet
  facet normal 0 1 -0
    outer loop
    vertex -10.1366 -7.25 13.9238
    vertex -12.2278 -7.25 11.9036
    vertex -12.4664 -7.25 12.3902
    endloop
  endfacet
  facet normal 0.9576 0 0.2881
    outer loop
    vertex -10.0251 -7.25 13.5533
    vertex -10.1366 -9.25001 13.9238
    vertex -10.0251 -9.25001 13.5533
    endloop
  endfacet
  facet normal 0.905447 -0 0.42446
    outer loop
    vertex -10.0251 -7.25 13.5533
    vertex -10.0251 -9.25001 13.5533
    vertex -9.86093 -7.25 13.203
    endloop
  endfacet
  facet normal 0 1 0
    outer loop
    vertex -9.86093 -7.25 13.203
    vertex -11.6094 -7.25 11.0152
    vertex -10.0251 -7.25 13.5533
    endloop
  endfacet
  facet normal 0 1 -0
    outer loop
    vertex -10.0251 -7.25 13.5533
    vertex -11.9411 -7.25 11.4437
    vertex -12.2278 -7.25 11.9036
    endloop
  endfacet
  facet normal 0 1 -0
    outer loop
    vertex -10.0251 -7.25 13.5533
    vertex -11.6094 -7.25 11.0152
    vertex -11.9411 -7.25 11.4437
    endloop
  endfacet
  facet normal 0.905447 0 0.42446
    outer loop
    vertex -9.86093 -7.25 13.203
    vertex -10.0251 -9.25001 13.5533
    vertex -9.86093 -9.25001 13.203
    endloop
  endfacet
  facet normal 0.834 -0 0.551764
    outer loop
    vertex -9.86093 -7.25 13.203
    vertex -9.86093 -9.25001 13.203
    vertex -9.64747 -7.25 12.8804
    endloop
  endfacet
  facet normal 0 1 0
    outer loop
    vertex -11.236 -7.25 10.6224
    vertex -9.86093 -7.25 13.203
    vertex -9.64747 -7.25 12.8804
    endloop
  endfacet
  facet normal 0 1 0
    outer loop
    vertex -11.6094 -7.25 11.0152
    vertex -9.86093 -7.25 13.203
    vertex -11.236 -7.25 10.6224
    endloop
  endfacet
  facet normal 0.834 0 0.551764
    outer loop
    vertex -9.64747 -7.25 12.8804
    vertex -9.86093 -9.25001 13.203
    vertex -9.64747 -9.25001 12.8804
    endloop
  endfacet
  facet normal 0.744772 -0 0.667319
    outer loop
    vertex -9.64747 -7.25 12.8804
    vertex -9.64747 -9.25001 12.8804
    vertex -9.3893 -7.25 12.5923
    endloop
  endfacet
  facet normal 0 1 0
    outer loop
    vertex -10.8248 -7.25 10.2694
    vertex -9.64747 -7.25 12.8804
    vertex -9.3893 -7.25 12.5923
    endloop
  endfacet
  facet normal 0 1 0
    outer loop
    vertex -11.236 -7.25 10.6224
    vertex -9.64747 -7.25 12.8804
    vertex -10.8248 -7.25 10.2694
    endloop
  endfacet
  facet normal 0.744772 0 0.667319
    outer loop
    vertex -9.3893 -7.25 12.5923
    vertex -9.64747 -9.25001 12.8804
    vertex -9.3893 -9.25001 12.5923
    endloop
  endfacet
  facet normal 0.639673 -0 0.768647
    outer loop
    vertex -9.3893 -7.25 12.5923
    vertex -9.3893 -9.25001 12.5923
    vertex -9.09193 -7.25 12.3448
    endloop
  endfacet
  facet normal 0 1 0
    outer loop
    vertex -9.90611 -7.25 9.69675
    vertex -9.3893 -7.25 12.5923
    vertex -9.09193 -7.25 12.3448
    endloop
  endfacet
  facet normal 0 1 0
    outer loop
    vertex -10.8248 -7.25 10.2694
    vertex -9.3893 -7.25 12.5923
    vertex -10.38 -7.25 9.95975
    endloop
  endfacet
  facet normal 0 1 0
    outer loop
    vertex -10.38 -7.25 9.95975
    vertex -9.3893 -7.25 12.5923
    vertex -9.90611 -7.25 9.69675
    endloop
  endfacet
  facet normal 0.639673 0 0.768647
    outer loop
    vertex -9.09193 -7.25 12.3448
    vertex -9.3893 -9.25001 12.5923
    vertex -9.09193 -9.25001 12.3448
    endloop
  endfacet
  facet normal 0.520939 -0 0.853594
    outer loop
    vertex -9.09193 -7.25 12.3448
    vertex -9.09193 -9.25001 12.3448
    vertex -8.76169 -7.25 12.1432
    endloop
  endfacet
  facet normal 0 1 0
    outer loop
    vertex -9.40808 -7.25 9.48303
    vertex -9.09193 -7.25 12.3448
    vertex -8.76169 -7.25 12.1432
    endloop
  endfacet
  facet normal 0 1 0
    outer loop
    vertex -9.90611 -7.25 9.69675
    vertex -9.09193 -7.25 12.3448
    vertex -9.40808 -7.25 9.48303
    endloop
  endfacet
  facet normal 0.520939 0 0.853594
    outer loop
    vertex -8.76169 -7.25 12.1432
    vertex -9.09193 -9.25001 12.3448
    vertex -8.76169 -9.25001 12.1432
    endloop
  endfacet
  facet normal 0.391105 -0 0.920346
    outer loop
    vertex -8.76169 -7.25 12.1432
    vertex -8.76169 -9.25001 12.1432
    vertex -8.40563 -7.25 11.9919
    endloop
  endfacet
  facet normal 0 1 0
    outer loop
    vertex -8.89099 -7.25 9.32079
    vertex -8.76169 -7.25 12.1432
    vertex -8.40563 -7.25 11.9919
    endloop
  endfacet
  facet normal 0 1 0
    outer loop
    vertex -9.40808 -7.25 9.48303
    vertex -8.76169 -7.25 12.1432
    vertex -8.89099 -7.25 9.32079
    endloop
  endfacet
  facet normal 0.391105 0 0.920346
    outer loop
    vertex -8.40563 -7.25 11.9919
    vertex -8.76169 -9.25001 12.1432
    vertex -8.40563 -9.25001 11.9919
    endloop
  endfacet
  facet normal 0.252931 -0 0.967484
    outer loop
    vertex -8.40563 -7.25 11.9919
    vertex -8.40563 -9.25001 11.9919
    vertex -8.03134 -7.25 11.8941
    endloop
  endfacet
  facet normal 0 1 0
    outer loop
    vertex -8.36014 -7.25 9.21169
    vertex -8.40563 -7.25 11.9919
    vertex -8.03134 -7.25 11.8941
    endloop
  endfacet
  facet normal 0 1 0
    outer loop
    vertex -8.89099 -7.25 9.32079
    vertex -8.40563 -7.25 11.9919
    vertex -8.36014 -7.25 9.21169
    endloop
  endfacet
  facet normal 0.252931 0 0.967484
    outer loop
    vertex -8.03134 -7.25 11.8941
    vertex -8.40563 -9.25001 11.9919
    vertex -8.03134 -9.25001 11.8941
    endloop
  endfacet
  facet normal 0.109375 -0 0.994
    outer loop
    vertex -8.03134 -7.25 11.8941
    vertex -8.03134 -9.25001 11.8941
    vertex -7.64678 -7.25 11.8518
    endloop
  endfacet
  facet normal 0 1 0
    outer loop
    vertex -7.82097 -7.25 9.15687
    vertex -8.03134 -7.25 11.8941
    vertex -7.64678 -7.25 11.8518
    endloop
  endfacet
  facet normal 0 1 0
    outer loop
    vertex -8.36014 -7.25 9.21169
    vertex -8.03134 -7.25 11.8941
    vertex -7.82097 -7.25 9.15687
    endloop
  endfacet
  facet normal 0.109375 0 0.994
    outer loop
    vertex -7.64678 -7.25 11.8518
    vertex -8.03134 -9.25001 11.8941
    vertex -7.64678 -9.25001 11.8518
    endloop
  endfacet
  facet normal -0.0365222 0 0.999333
    outer loop
    vertex -7.64678 -7.25 11.8518
    vertex -7.64678 -9.25001 11.8518
    vertex -7.26017 -7.25 11.8659
    endloop
  endfacet
  facet normal -0 1 0
    outer loop
    vertex -7.27903 -7.25 9.15687
    vertex -7.64678 -7.25 11.8518
    vertex -7.26017 -7.25 11.8659
    endloop
  endfacet
  facet normal 0 1 0
    outer loop
    vertex -7.82097 -7.25 9.15687
    vertex -7.64678 -7.25 11.8518
    vertex -7.27903 -7.25 9.15687
    endloop
  endfacet
  facet normal -0.0365222 0 0.999333
    outer loop
    vertex -7.26017 -7.25 11.8659
    vertex -7.64678 -9.25001 11.8518
    vertex -7.26017 -9.25001 11.8659
    endloop
  endfacet
  facet normal -0.181639 0 0.983365
    outer loop
    vertex -7.26017 -7.25 11.8659
    vertex -7.26017 -9.25001 11.8659
    vertex -6.87973 -7.25 11.9362
    endloop
  endfacet
  facet normal -0 1 0
    outer loop
    vertex -6.73986 -7.25 9.21169
    vertex -7.26017 -7.25 11.8659
    vertex -6.87973 -7.25 11.9362
    endloop
  endfacet
  facet normal 0 1 0
    outer loop
    vertex -7.27903 -7.25 9.15687
    vertex -7.26017 -7.25 11.8659
    vertex -6.73986 -7.25 9.21169
    endloop
  endfacet
  facet normal -0.181639 0 0.983365
    outer loop
    vertex -6.87973 -7.25 11.9362
    vertex -7.26017 -9.25001 11.8659
    vertex -6.87973 -9.25001 11.9362
    endloop
  endfacet
  facet normal -0.32288 0 0.94644
    outer loop
    vertex -6.87973 -7.25 11.9362
    vertex -6.87973 -9.25001 11.9362
    vertex -6.51357 -7.25 12.0611
    endloop
  endfacet
  facet normal -0 1 0
    outer loop
    vertex -6.20901 -7.25 9.32079
    vertex -6.87973 -7.25 11.9362
    vertex -6.51357 -7.25 12.0611
    endloop
  endfacet
  facet normal 0 1 0
    outer loop
    vertex -6.73986 -7.25 9.21169
    vertex -6.87973 -7.25 11.9362
    vertex -6.20901 -7.25 9.32079
    endloop
  endfacet
  facet normal -0.32288 0 0.94644
    outer loop
    vertex -6.51357 -7.25 12.0611
    vertex -6.87973 -9.25001 11.9362
    vertex -6.51357 -9.25001 12.0611
    endloop
  endfacet
  facet normal -0.457243 0 0.889342
    outer loop
    vertex -6.51357 -7.25 12.0611
    vertex -6.51357 -9.25001 12.0611
    vertex -6.16951 -7.25 12.238
    endloop
  endfacet
  facet normal -0 1 0
    outer loop
    vertex -5.69192 -7.25 9.48303
    vertex -6.51357 -7.25 12.0611
    vertex -6.16951 -7.25 12.238
    endloop
  endfacet
  facet normal 0 1 0
    outer loop
    vertex -6.20901 -7.25 9.32079
    vertex -6.51357 -7.25 12.0611
    vertex -5.69192 -7.25 9.48303
    endloop
  endfacet
  facet normal -0.457243 0 0.889342
    outer loop
    vertex -6.16951 -7.25 12.238
    vertex -6.51357 -9.25001 12.0611
    vertex -6.16951 -9.25001 12.238
    endloop
  endfacet
  facet normal -0.581859 0 0.81329
    outer loop
    vertex -6.16951 -7.25 12.238
    vertex -6.16951 -9.25001 12.238
    vertex -5.85487 -7.25 12.4631
    endloop
  endfacet
  facet normal -0 1 0
    outer loop
    vertex -5.19389 -7.25 9.69675
    vertex -6.16951 -7.25 12.238
    vertex -5.85487 -7.25 12.4631
    endloop
  endfacet
  facet normal 0 1 0
    outer loop
    vertex -5.69192 -7.25 9.48303
    vertex -6.16951 -7.25 12.238
    vertex -5.19389 -7.25 9.69675
    endloop
  endfacet
  facet normal -0.581859 0 0.81329
    outer loop
    vertex -5.85487 -7.25 12.4631
    vertex -6.16951 -9.25001 12.238
    vertex -5.85487 -9.25001 12.4631
    endloop
  endfacet
  facet normal -0.694077 0 0.719901
    outer loop
    vertex -5.85487 -7.25 12.4631
    vertex -5.85487 -9.25001 12.4631
    vertex -5.57636 -7.25 12.7316
    endloop
  endfacet
  facet normal -0 1 0
    outer loop
    vertex -4.72004 -7.25 9.95975
    vertex -5.85487 -7.25 12.4631
    vertex -5.57636 -7.25 12.7316
    endloop
  endfacet
  facet normal 0 1 0
    outer loop
    vertex -5.19389 -7.25 9.69675
    vertex -5.85487 -7.25 12.4631
    vertex -4.72004 -7.25 9.95975
    endloop
  endfacet
  facet normal -0.694077 0 0.719901
    outer loop
    vertex -5.57636 -7.25 12.7316
    vertex -5.85487 -9.25001 12.4631
    vertex -5.57636 -9.25001 12.7316
    endloop
  endfacet
  facet normal -0.791495 0 0.611176
    outer loop
    vertex -5.57636 -7.25 12.7316
    vertex -5.57636 -9.25001 12.7316
    vertex -5.33991 -7.25 13.0378
    endloop
  endfacet
  facet normal -0 1 0
    outer loop
    vertex -4.27523 -7.25 10.2694
    vertex -5.57636 -7.25 12.7316
    vertex -5.33991 -7.25 13.0378
    endloop
  endfacet
  facet normal 0 1 0
    outer loop
    vertex -4.72004 -7.25 9.95975
    vertex -5.57636 -7.25 12.7316
    vertex -4.27523 -7.25 10.2694
    endloop
  endfacet
  facet normal -0.791495 0 0.611176
    outer loop
    vertex -5.33991 -7.25 13.0378
    vertex -5.57636 -9.25001 12.7316
    vertex -5.33991 -9.25001 13.0378
    endloop
  endfacet
  facet normal -0.872048 0 0.48942
    outer loop
    vertex -5.33991 -7.25 13.0378
    vertex -5.33991 -9.25001 13.0378
    vertex -5.15056 -7.25 13.3752
    endloop
  endfacet
  facet normal -0 1 0
    outer loop
    vertex -3.49064 -7.25 11.0152
    vertex -5.33991 -7.25 13.0378
    vertex -5.15056 -7.25 13.3752
    endloop
  endfacet
  facet normal 0 1 0
    outer loop
    vertex -4.27523 -7.25 10.2694
    vertex -5.33991 -7.25 13.0378
    vertex -3.86403 -7.25 10.6224
    endloop
  endfacet
  facet normal 0 1 0
    outer loop
    vertex -3.86403 -7.25 10.6224
    vertex -5.33991 -7.25 13.0378
    vertex -3.49064 -7.25 11.0152
    endloop
  endfacet
  facet normal -0.872048 0 0.48942
    outer loop
    vertex -5.15056 -7.25 13.3752
    vertex -5.33991 -9.25001 13.0378
    vertex -5.15056 -9.25001 13.3752
    endloop
  endfacet
  facet normal -0.934018 0 0.357227
    outer loop
    vertex -5.15056 -7.25 13.3752
    vertex -5.15056 -9.25001 13.3752
    vertex -5.01236 -7.25 13.7365
    endloop
  endfacet
  facet normal -0 1 0
    outer loop
    vertex -3.15892 -7.25 11.4437
    vertex -5.15056 -7.25 13.3752
    vertex -5.01236 -7.25 13.7365
    endloop
  endfacet
  facet normal 0 1 0
    outer loop
    vertex -3.49064 -7.25 11.0152
    vertex -5.15056 -7.25 13.3752
    vertex -3.15892 -7.25 11.4437
    endloop
  endfacet
  facet normal -0.934018 0 0.357227
    outer loop
    vertex -5.01236 -7.25 13.7365
    vertex -5.15056 -9.25001 13.3752
    vertex -5.01236 -9.25001 13.7365
    endloop
  endfacet
  facet normal 0 1 0
    outer loop
    vertex -3.15892 -7.25 11.4437
    vertex -5.01236 -7.25 13.7365
    vertex -2.87225 -7.25 11.9036
    endloop
  endfacet
  facet normal 0 1 0
    outer loop
    vertex -2.87225 -7.25 11.9036
    vertex -5.01236 -7.25 13.7365
    vertex -2.63358 -7.25 12.3902
    endloop
  endfacet
  facet normal 0 0 1
    outer loop
    vertex 6.25433 5.4641 4.9
    vertex 5.9 7.34807 4.9
    vertex 4.4 4.75 4.9
    endloop
  endfacet
  facet normal 0 0 1
    outer loop
    vertex 7.4 6.1 4.9
    vertex 8.9 7.34807 4.9
    vertex 5.9 7.34807 4.9
    endloop
  endfacet
  facet normal 0 0 1
    outer loop
    vertex 7.4 6.1 4.9
    vertex 5.9 7.34807 4.9
    vertex 7.12825 6.07236 4.9
    endloop
  endfacet
  facet normal 0 0 1
    outer loop
    vertex 7.12825 6.07236 4.9
    vertex 5.9 7.34807 4.9
    vertex 6.86762 5.99059 4.9
    endloop
  endfacet
  facet normal 0 0 1
    outer loop
    vertex 6.86762 5.99059 4.9
    vertex 5.9 7.34807 4.9
    vertex 6.62879 5.85803 4.9
    endloop
  endfacet
  facet normal 0 0 1
    outer loop
    vertex 6.62879 5.85803 4.9
    vertex 5.9 7.34807 4.9
    vertex 6.42153 5.6801 4.9
    endloop
  endfacet
  facet normal 0 0 1
    outer loop
    vertex 6.42153 5.6801 4.9
    vertex 5.9 7.34807 4.9
    vertex 6.25433 5.4641 4.9
    endloop
  endfacet
  facet normal 0 0 1
    outer loop
    vertex 6.33245 3.92365 4.9
    vertex 4.4 4.75 4.9
    vertex 5.9 2.15192 4.9
    endloop
  endfacet
  facet normal 0 0 1
    outer loop
    vertex 6.25433 5.4641 4.9
    vertex 4.4 4.75 4.9
    vertex 6.13403 5.21886 4.9
    endloop
  endfacet
  facet normal 0 0 1
    outer loop
    vertex 6.13403 5.21886 4.9
    vertex 4.4 4.75 4.9
    vertex 6.06557 4.95442 4.9
    endloop
  endfacet
  facet normal -0 0 1
    outer loop
    vertex 6.06557 4.95442 4.9
    vertex 4.4 4.75 4.9
    vertex 6.05173 4.68162 4.9
    endloop
  endfacet
  facet normal 0 0 1
    outer loop
    vertex 6.05173 4.68162 4.9
    vertex 4.4 4.75 4.9
    vertex 6.0931 4.41161 4.9
    endloop
  endfacet
  facet normal 0 0 1
    outer loop
    vertex 6.0931 4.41161 4.9
    vertex 4.4 4.75 4.9
    vertex 6.18796 4.15546 4.9
    endloop
  endfacet
  facet normal 0 0 1
    outer loop
    vertex 6.18796 4.15546 4.9
    vertex 4.4 4.75 4.9
    vertex 6.33245 3.92365 4.9
    endloop
  endfacet
  facet normal 0 0 1
    outer loop
    vertex 8.54567 5.4641 4.9
    vertex 10.4 4.75 4.9
    vertex 8.9 7.34807 4.9
    endloop
  endfacet
  facet normal 0 0 1
    outer loop
    vertex 7.67175 6.07236 4.9
    vertex 8.9 7.34807 4.9
    vertex 7.4 6.1 4.9
    endloop
  endfacet
  facet normal 0 0 1
    outer loop
    vertex 7.93238 5.99059 4.9
    vertex 8.9 7.34807 4.9
    vertex 7.67175 6.07236 4.9
    endloop
  endfacet
  facet normal 0 0 1
    outer loop
    vertex 8.54567 5.4641 4.9
    vertex 8.9 7.34807 4.9
    vertex 8.37847 5.6801 4.9
    endloop
  endfacet
  facet normal 0 0 1
    outer loop
    vertex 8.37847 5.6801 4.9
    vertex 8.9 7.34807 4.9
    vertex 8.17121 5.85803 4.9
    endloop
  endfacet
  facet normal 0 0 1
    outer loop
    vertex 8.17121 5.85803 4.9
    vertex 8.9 7.34807 4.9
    vertex 7.93238 5.99059 4.9
    endloop
  endfacet
  facet normal 0 -0 1
    outer loop
    vertex 8.46755 3.92365 4.9
    vertex 8.9 2.15192 4.9
    vertex 10.4 4.75 4.9
    endloop
  endfacet
  facet normal 0 0 1
    outer loop
    vertex 8.46755 3.92365 4.9
    vertex 10.4 4.75 4.9
    vertex 8.61204 4.15546 4.9
    endloop
  endfacet
  facet normal 0 0 1
    outer loop
    vertex 8.61204 4.15546 4.9
    vertex 10.4 4.75 4.9
    vertex 8.7069 4.41161 4.9
    endloop
  endfacet
  facet normal 0 0 1
    outer loop
    vertex 8.7069 4.41161 4.9
    vertex 10.4 4.75 4.9
    vertex 8.74827 4.68162 4.9
    endloop
  endfacet
  facet normal 0 0 1
    outer loop
    vertex 8.74827 4.68162 4.9
    vertex 10.4 4.75 4.9
    vertex 8.73443 4.95442 4.9
    endloop
  endfacet
  facet normal 0 0 1
    outer loop
    vertex 8.73443 4.95442 4.9
    vertex 10.4 4.75 4.9
    vertex 8.66597 5.21886 4.9
    endloop
  endfacet
  facet normal 0 0 1
    outer loop
    vertex 8.66597 5.21886 4.9
    vertex 10.4 4.75 4.9
    vertex 8.54567 5.4641 4.9
    endloop
  endfacet
  facet normal 0 0 1
    outer loop
    vertex 7.26342 3.40692 4.9
    vertex 5.9 2.15192 4.9
    vertex 8.9 2.15192 4.9
    endloop
  endfacet
  facet normal 0 0 1
    outer loop
    vertex 7.26342 3.40692 4.9
    vertex 8.9 2.15192 4.9
    vertex 7.53658 3.40692 4.9
    endloop
  endfacet
  facet normal 0 0 1
    outer loop
    vertex 7.53658 3.40692 4.9
    vertex 8.9 2.15192 4.9
    vertex 7.80414 3.46191 4.9
    endloop
  endfacet
  facet normal 0 0 1
    outer loop
    vertex 7.80414 3.46191 4.9
    vertex 8.9 2.15192 4.9
    vertex 8.05516 3.56963 4.9
    endloop
  endfacet
  facet normal 0 0 1
    outer loop
    vertex 8.05516 3.56963 4.9
    vertex 8.9 2.15192 4.9
    vertex 8.27935 3.72567 4.9
    endloop
  endfacet
  facet normal 0 0 1
    outer loop
    vertex 8.27935 3.72567 4.9
    vertex 8.9 2.15192 4.9
    vertex 8.46755 3.92365 4.9
    endloop
  endfacet
  facet normal 0 0 1
    outer loop
    vertex 6.33245 3.92365 4.9
    vertex 5.9 2.15192 4.9
    vertex 6.52065 3.72567 4.9
    endloop
  endfacet
  facet normal 0 0 1
    outer loop
    vertex 6.52065 3.72567 4.9
    vertex 5.9 2.15192 4.9
    vertex 6.74484 3.56963 4.9
    endloop
  endfacet
  facet normal 0 0 1
    outer loop
    vertex 6.74484 3.56963 4.9
    vertex 5.9 2.15192 4.9
    vertex 6.99586 3.46191 4.9
    endloop
  endfacet
  facet normal 0 0 1
    outer loop
    vertex 6.99586 3.46191 4.9
    vertex 5.9 2.15192 4.9
    vertex 7.26342 3.40692 4.9
    endloop
  endfacet
  facet normal -0.101169 -0.994869 0
    outer loop
    vertex 7.4 6.1 4.9
    vertex 7.4 6.1 0
    vertex 7.67175 6.07236 4.9
    endloop
  endfacet
  facet normal -0.299364 -0.954139 0
    outer loop
    vertex 7.67175 6.07236 4.9
    vertex 7.67175 6.07236 0
    vertex 7.93238 5.99059 4.9
    endloop
  endfacet
  facet normal -0.101169 -0.994869 0
    outer loop
    vertex 7.67175 6.07236 4.9
    vertex 7.4 6.1 0
    vertex 7.67175 6.07236 0
    endloop
  endfacet
  facet normal 0.101169 -0.994869 0
    outer loop
    vertex 7.12825 6.07236 4.9
    vertex 7.12825 6.07236 0
    vertex 7.4 6.1 4.9
    endloop
  endfacet
  facet normal 0.101169 -0.994869 0
    outer loop
    vertex 7.4 6.1 4.9
    vertex 7.12825 6.07236 0
    vertex 7.4 6.1 0
    endloop
  endfacet
  facet normal 0.299364 -0.954139 0
    outer loop
    vertex 6.86762 5.99059 4.9
    vertex 6.86762 5.99059 0
    vertex 7.12825 6.07236 4.9
    endloop
  endfacet
  facet normal 0.299364 -0.954139 0
    outer loop
    vertex 7.12825 6.07236 4.9
    vertex 6.86762 5.99059 0
    vertex 7.12825 6.07236 0
    endloop
  endfacet
  facet normal 0.485302 -0.874347 0
    outer loop
    vertex 6.62879 5.85803 4.9
    vertex 6.62879 5.85803 0
    vertex 6.86762 5.99059 4.9
    endloop
  endfacet
  facet normal 0.485302 -0.874347 0
    outer loop
    vertex 6.86762 5.99059 4.9
    vertex 6.62879 5.85803 0
    vertex 6.86762 5.99059 0
    endloop
  endfacet
  facet normal 0.651374 -0.758757 0
    outer loop
    vertex 6.42153 5.6801 4.9
    vertex 6.42153 5.6801 0
    vertex 6.62879 5.85803 4.9
    endloop
  endfacet
  facet normal 0.651374 -0.758757 0
    outer loop
    vertex 6.62879 5.85803 4.9
    vertex 6.42153 5.6801 0
    vertex 6.62879 5.85803 0
    endloop
  endfacet
  facet normal 0.790775 -0.612107 0
    outer loop
    vertex 6.25433 5.4641 4.9
    vertex 6.25433 5.4641 0
    vertex 6.42153 5.6801 4.9
    endloop
  endfacet
  facet normal 0.790775 -0.612107 0
    outer loop
    vertex 6.42153 5.6801 4.9
    vertex 6.25433 5.4641 0
    vertex 6.42153 5.6801 0
    endloop
  endfacet
  facet normal 0.897804 -0.440396 0
    outer loop
    vertex 6.13403 5.21886 4.9
    vertex 6.13403 5.21886 0
    vertex 6.25433 5.4641 4.9
    endloop
  endfacet
  facet normal 0.897804 -0.440396 0
    outer loop
    vertex 6.25433 5.4641 4.9
    vertex 6.13403 5.21886 0
    vertex 6.25433 5.4641 0
    endloop
  endfacet
  facet normal 0.968077 -0.250654 0
    outer loop
    vertex 6.06557 4.95442 4.9
    vertex 6.06557 4.95442 0
    vertex 6.13403 5.21886 4.9
    endloop
  endfacet
  facet normal 0.968077 -0.250654 0
    outer loop
    vertex 6.13403 5.21886 4.9
    vertex 6.06557 4.95442 0
    vertex 6.13403 5.21886 0
    endloop
  endfacet
  facet normal 0.998717 -0.0506487 0
    outer loop
    vertex 6.05173 4.68162 4.9
    vertex 6.05173 4.68162 0
    vertex 6.06557 4.95442 4.9
    endloop
  endfacet
  facet normal 0.998717 -0.0506487 0
    outer loop
    vertex 6.06557 4.95442 4.9
    vertex 6.05173 4.68162 0
    vertex 6.06557 4.95442 0
    endloop
  endfacet
  facet normal 0.988468 0.151432 -0
    outer loop
    vertex 6.0931 4.41161 4.9
    vertex 6.0931 4.41161 0
    vertex 6.05173 4.68162 4.9
    endloop
  endfacet
  facet normal 0.988468 0.151432 0
    outer loop
    vertex 6.05173 4.68162 4.9
    vertex 6.0931 4.41161 0
    vertex 6.05173 4.68162 0
    endloop
  endfacet
  facet normal 0.937752 0.347305 -0
    outer loop
    vertex 6.18796 4.15546 4.9
    vertex 6.18796 4.15546 0
    vertex 6.0931 4.41161 4.9
    endloop
  endfacet
  facet normal 0.937752 0.347305 0
    outer loop
    vertex 6.0931 4.41161 4.9
    vertex 6.18796 4.15546 0
    vertex 6.0931 4.41161 0
    endloop
  endfacet
  facet normal 0.848645 0.528962 -0
    outer loop
    vertex 6.33245 3.92365 4.9
    vertex 6.33245 3.92365 0
    vertex 6.18796 4.15546 4.9
    endloop
  endfacet
  facet normal 0.848645 0.528962 0
    outer loop
    vertex 6.18796 4.15546 4.9
    vertex 6.33245 3.92365 0
    vertex 6.18796 4.15546 0
    endloop
  endfacet
  facet normal 0.724791 0.688968 -0
    outer loop
    vertex 6.52065 3.72567 4.9
    vertex 6.52065 3.72567 0
    vertex 6.33245 3.92365 4.9
    endloop
  endfacet
  facet normal 0.724791 0.688968 0
    outer loop
    vertex 6.33245 3.92365 4.9
    vertex 6.52065 3.72567 0
    vertex 6.33245 3.92365 0
    endloop
  endfacet
  facet normal 0.571268 0.820764 -0
    outer loop
    vertex 6.74484 3.56963 4.9
    vertex 6.74484 3.56963 0
    vertex 6.52065 3.72567 4.9
    endloop
  endfacet
  facet normal 0.571268 0.820764 0
    outer loop
    vertex 6.52065 3.72567 4.9
    vertex 6.74484 3.56963 0
    vertex 6.52065 3.72567 0
    endloop
  endfacet
  facet normal 0.394357 0.918957 -0
    outer loop
    vertex 6.99586 3.46191 4.9
    vertex 6.99586 3.46191 0
    vertex 6.74484 3.56963 4.9
    endloop
  endfacet
  facet normal 0.394357 0.918957 0
    outer loop
    vertex 6.74484 3.56963 4.9
    vertex 6.99586 3.46191 0
    vertex 6.74484 3.56963 0
    endloop
  endfacet
  facet normal 0.201299 0.97953 -0
    outer loop
    vertex 7.26342 3.40692 4.9
    vertex 7.26342 3.40692 0
    vertex 6.99586 3.46191 4.9
    endloop
  endfacet
  facet normal 0.201299 0.97953 0
    outer loop
    vertex 6.99586 3.46191 4.9
    vertex 7.26342 3.40692 0
    vertex 6.99586 3.46191 0
    endloop
  endfacet
  facet normal 0 1 -0
    outer loop
    vertex 7.53658 3.40692 4.9
    vertex 7.53658 3.40692 0
    vertex 7.26342 3.40692 4.9
    endloop
  endfacet
  facet normal 0 1 0
    outer loop
    vertex 7.26342 3.40692 4.9
    vertex 7.53658 3.40692 0
    vertex 7.26342 3.40692 0
    endloop
  endfacet
  facet normal -0.201299 0.97953 0
    outer loop
    vertex 7.80414 3.46191 4.9
    vertex 7.80414 3.46191 0
    vertex 7.53658 3.40692 4.9
    endloop
  endfacet
  facet normal -0.201299 0.97953 0
    outer loop
    vertex 7.53658 3.40692 4.9
    vertex 7.80414 3.46191 0
    vertex 7.53658 3.40692 0
    endloop
  endfacet
  facet normal -0.394357 0.918957 0
    outer loop
    vertex 8.05516 3.56963 4.9
    vertex 8.05516 3.56963 0
    vertex 7.80414 3.46191 4.9
    endloop
  endfacet
  facet normal -0.394357 0.918957 0
    outer loop
    vertex 7.80414 3.46191 4.9
    vertex 8.05516 3.56963 0
    vertex 7.80414 3.46191 0
    endloop
  endfacet
  facet normal -0.571266 0.820765 0
    outer loop
    vertex 8.27935 3.72567 4.9
    vertex 8.27935 3.72567 0
    vertex 8.05516 3.56963 4.9
    endloop
  endfacet
  facet normal -0.571266 0.820765 0
    outer loop
    vertex 8.05516 3.56963 4.9
    vertex 8.27935 3.72567 0
    vertex 8.05516 3.56963 0
    endloop
  endfacet
  facet normal -0.724792 0.688968 0
    outer loop
    vertex 8.46755 3.92365 4.9
    vertex 8.46755 3.92365 0
    vertex 8.27935 3.72567 4.9
    endloop
  endfacet
  facet normal -0.724792 0.688968 0
    outer loop
    vertex 8.27935 3.72567 4.9
    vertex 8.46755 3.92365 0
    vertex 8.27935 3.72567 0
    endloop
  endfacet
  facet normal -0.848646 0.528961 0
    outer loop
    vertex 8.61204 4.15546 4.9
    vertex 8.61204 4.15546 0
    vertex 8.46755 3.92365 4.9
    endloop
  endfacet
  facet normal -0.848646 0.528961 0
    outer loop
    vertex 8.46755 3.92365 4.9
    vertex 8.61204 4.15546 0
    vertex 8.46755 3.92365 0
    endloop
  endfacet
  facet normal -0.937751 0.347308 0
    outer loop
    vertex 8.7069 4.41161 4.9
    vertex 8.7069 4.41161 0
    vertex 8.61204 4.15546 4.9
    endloop
  endfacet
  facet normal -0.937751 0.347308 0
    outer loop
    vertex 8.61204 4.15546 4.9
    vertex 8.7069 4.41161 0
    vertex 8.61204 4.15546 0
    endloop
  endfacet
  facet normal -0.988469 0.151426 0
    outer loop
    vertex 8.74827 4.68162 4.9
    vertex 8.74827 4.68162 0
    vertex 8.7069 4.41161 4.9
    endloop
  endfacet
  facet normal -0.988469 0.151426 0
    outer loop
    vertex 8.7069 4.41161 4.9
    vertex 8.74827 4.68162 0
    vertex 8.7069 4.41161 0
    endloop
  endfacet
  facet normal -0.998717 -0.0506487 0
    outer loop
    vertex 8.73443 4.95442 4.9
    vertex 8.73443 4.95442 0
    vertex 8.74827 4.68162 4.9
    endloop
  endfacet
  facet normal -0.998717 -0.0506487 0
    outer loop
    vertex 8.74827 4.68162 4.9
    vertex 8.73443 4.95442 0
    vertex 8.74827 4.68162 0
    endloop
  endfacet
  facet normal -0.968077 -0.250654 0
    outer loop
    vertex 8.66597 5.21886 4.9
    vertex 8.66597 5.21886 0
    vertex 8.73443 4.95442 4.9
    endloop
  endfacet
  facet normal -0.968077 -0.250654 0
    outer loop
    vertex 8.73443 4.95442 4.9
    vertex 8.66597 5.21886 0
    vertex 8.73443 4.95442 0
    endloop
  endfacet
  facet normal -0.897804 -0.440395 0
    outer loop
    vertex 8.54567 5.4641 4.9
    vertex 8.54567 5.4641 0
    vertex 8.66597 5.21886 4.9
    endloop
  endfacet
  facet normal -0.897804 -0.440395 0
    outer loop
    vertex 8.66597 5.21886 4.9
    vertex 8.54567 5.4641 0
    vertex 8.66597 5.21886 0
    endloop
  endfacet
  facet normal -0.790776 -0.612105 0
    outer loop
    vertex 8.37847 5.6801 4.9
    vertex 8.37847 5.6801 0
    vertex 8.54567 5.4641 4.9
    endloop
  endfacet
  facet normal -0.790776 -0.612105 0
    outer loop
    vertex 8.54567 5.4641 4.9
    vertex 8.37847 5.6801 0
    vertex 8.54567 5.4641 0
    endloop
  endfacet
  facet normal -0.651373 -0.758758 0
    outer loop
    vertex 8.17121 5.85803 4.9
    vertex 8.17121 5.85803 0
    vertex 8.37847 5.6801 4.9
    endloop
  endfacet
  facet normal -0.651373 -0.758758 0
    outer loop
    vertex 8.37847 5.6801 4.9
    vertex 8.17121 5.85803 0
    vertex 8.37847 5.6801 0
    endloop
  endfacet
  facet normal -0.485302 -0.874347 0
    outer loop
    vertex 7.93238 5.99059 4.9
    vertex 7.93238 5.99059 0
    vertex 8.17121 5.85803 4.9
    endloop
  endfacet
  facet normal -0.485302 -0.874347 0
    outer loop
    vertex 8.17121 5.85803 4.9
    vertex 7.93238 5.99059 0
    vertex 8.17121 5.85803 0
    endloop
  endfacet
  facet normal -0.299364 -0.954139 0
    outer loop
    vertex 7.93238 5.99059 4.9
    vertex 7.67175 6.07236 0
    vertex 7.93238 5.99059 0
    endloop
  endfacet
  facet normal -0 0 -1
    outer loop
    vertex 2.6 12.25 0
    vertex 7.12825 6.07236 0
    vertex 6.86762 5.99059 0
    endloop
  endfacet
  facet normal -0 0 -1
    outer loop
    vertex 2.6 12.25 0
    vertex 6.06557 4.95442 0
    vertex 6.05173 4.68162 0
    endloop
  endfacet
  facet normal 0 0 -1
    outer loop
    vertex 6.13403 5.21886 0
    vertex 6.06557 4.95442 0
    vertex 2.6 12.25 0
    endloop
  endfacet
  facet normal -0 0 -1
    outer loop
    vertex 2.6 12.25 0
    vertex 6.25433 5.4641 0
    vertex 6.13403 5.21886 0
    endloop
  endfacet
  facet normal -0 0 -1
    outer loop
    vertex 2.6 12.25 0
    vertex 6.42153 5.6801 0
    vertex 6.25433 5.4641 0
    endloop
  endfacet
  facet normal 0 0 -1
    outer loop
    vertex 6.62879 5.85803 0
    vertex 6.42153 5.6801 0
    vertex 2.6 12.25 0
    endloop
  endfacet
  facet normal -0 0 -1
    outer loop
    vertex 2.6 12.25 0
    vertex 6.86762 5.99059 0
    vertex 6.62879 5.85803 0
    endloop
  endfacet
endsolid rambo_cover_base_upper_mount.stl
