solid rambo_cover_base_lower_mount.stl
  facet normal -0.819152 0 -0.573576
    outer loop
    vertex -20.35 10.15 0
    vertex -20.35 5.25 0
    vertex -21.475 11.275 1.60667
    endloop
  endfacet
  facet normal 0 0 -1
    outer loop
    vertex -20.35 5.25 0
    vertex -20.35 10.15 0
    vertex -3.6 5.25 0
    endloop
  endfacet
  facet normal 0 0.819152 -0.573576
    outer loop
    vertex -20.35 10.15 0
    vertex -21.475 11.275 1.60667
    vertex 16.1 10.15 0
    endloop
  endfacet
  facet normal 0 0 -1
    outer loop
    vertex -3.6 5.25 0
    vertex -20.35 10.15 0
    vertex 16.1 10.15 0
    endloop
  endfacet
  facet normal -0.819152 6.52426e-008 -0.573577
    outer loop
    vertex -21.475 11.275 1.60667
    vertex -20.35 5.25 0
    vertex -23.5 9.25001 4.49867
    endloop
  endfacet
  facet normal -0.819152 0 -0.573577
    outer loop
    vertex -23.5 9.25001 4.49867
    vertex -20.35 5.25 0
    vertex -23.5 5.25 4.49867
    endloop
  endfacet
  facet normal 0 -1 0
    outer loop
    vertex -20.35 5.25 0
    vertex -7.54834 5.25 11.0611
    vertex -23.5 5.25 4.49867
    endloop
  endfacet
  facet normal 0 -1 -0
    outer loop
    vertex -7.1214 5.25 10.6086
    vertex -7.54834 5.25 11.0611
    vertex -20.35 5.25 0
    endloop
  endfacet
  facet normal 0 -1 -0
    outer loop
    vertex -3.6 5.25 0
    vertex -3.6 5.25 4
    vertex -20.35 5.25 0
    endloop
  endfacet
  facet normal -0 -1 0
    outer loop
    vertex -20.35 5.25 0
    vertex -3.6 5.25 4
    vertex -6.6448 5.25 10.2086
    endloop
  endfacet
  facet normal -0 -1 0
    outer loop
    vertex -20.35 5.25 0
    vertex -6.6448 5.25 10.2086
    vertex -7.1214 5.25 10.6086
    endloop
  endfacet
  facet normal -0.707107 0.707107 -8.34058e-007
    outer loop
    vertex -21.475 11.275 1.60667
    vertex -23.5 9.25001 4.49867
    vertex -20.5 12.25 2.99911
    endloop
  endfacet
  facet normal -4.59262e-009 0.819152 -0.573577
    outer loop
    vertex 16.1 10.15 0
    vertex -21.475 11.275 1.60667
    vertex 14 12.25 2.99911
    endloop
  endfacet
  facet normal 0 0.819152 -0.573577
    outer loop
    vertex 14 12.25 2.99911
    vertex -21.475 11.275 1.60667
    vertex -20.5 12.25 2.99911
    endloop
  endfacet
  facet normal -1 0 0
    outer loop
    vertex -23.5 9.25001 4.49867
    vertex -23.5 5.25 4.49867
    vertex -23.5 9.25001 4.5
    endloop
  endfacet
  facet normal -0.707107 0.707107 0
    outer loop
    vertex -20.5 12.25 2.99911
    vertex -23.5 9.25001 4.49867
    vertex -20.5 12.25 4.5
    endloop
  endfacet
  facet normal -0.707107 0.707107 0
    outer loop
    vertex -20.5 12.25 4.5
    vertex -23.5 9.25001 4.49867
    vertex -23.5 9.25001 4.5
    endloop
  endfacet
  facet normal -0 -1 0
    outer loop
    vertex -23.5 5.25 4.49867
    vertex -7.54834 5.25 11.0611
    vertex -7.91986 5.25 11.5601
    endloop
  endfacet
  facet normal -0 -1 0
    outer loop
    vertex -23.5 5.25 4.49867
    vertex -7.91986 5.25 11.5601
    vertex -8.23094 5.25 12.0989
    endloop
  endfacet
  facet normal -0 -1 0
    outer loop
    vertex -23.5 5.25 4.49867
    vertex -8.23094 5.25 12.0989
    vertex -23.5 5.25 14.5
    endloop
  endfacet
  facet normal -1 0 0
    outer loop
    vertex -23.5 9.25001 4.5
    vertex -23.5 5.25 4.49867
    vertex -23.5 5.25 14.5
    endloop
  endfacet
  facet normal 0.802123 0 0.597159
    outer loop
    vertex -7.54834 5.25 11.0611
    vertex -7.54834 7.25 11.0611
    vertex -7.91986 5.25 11.5601
    endloop
  endfacet
  facet normal 0.727374 0 0.686241
    outer loop
    vertex -7.1214 5.25 10.6086
    vertex -7.1214 7.25 10.6086
    vertex -7.54834 5.25 11.0611
    endloop
  endfacet
  facet normal 0.727374 0 0.686241
    outer loop
    vertex -7.54834 5.25 11.0611
    vertex -7.1214 7.25 10.6086
    vertex -7.54834 7.25 11.0611
    endloop
  endfacet
  facet normal 0.866025 0 0.5
    outer loop
    vertex -7.91986 5.25 11.5601
    vertex -7.91986 7.25 11.5601
    vertex -8.23094 5.25 12.0989
    endloop
  endfacet
  facet normal 0.802123 0 0.597159
    outer loop
    vertex -7.91986 5.25 11.5601
    vertex -7.54834 7.25 11.0611
    vertex -7.91986 7.25 11.5601
    endloop
  endfacet
  facet normal 0 -1 0
    outer loop
    vertex -23.5 5.25 14.5
    vertex -8.23094 5.25 12.0989
    vertex -8.47736 5.25 12.6702
    endloop
  endfacet
  facet normal 0.918216 0 0.39608
    outer loop
    vertex -8.23094 5.25 12.0989
    vertex -8.23094 7.25 12.0989
    vertex -8.47736 5.25 12.6702
    endloop
  endfacet
  facet normal 0.866025 0 0.5
    outer loop
    vertex -8.23094 5.25 12.0989
    vertex -7.91986 7.25 11.5601
    vertex -8.23094 7.25 12.0989
    endloop
  endfacet
  facet normal -0.707107 -0.707107 0
    outer loop
    vertex -3.6 5.25 0
    vertex 1.9 -0.249995 0
    vertex -3.6 5.25 4
    endloop
  endfacet
  facet normal 0 0 -1
    outer loop
    vertex -3.6 5.25 0
    vertex 16.1 10.15 0
    vertex 1.9 -0.249995 0
    endloop
  endfacet
  facet normal -0 -1 -0
    outer loop
    vertex -3.6 5.25 4
    vertex -6.125 5.25 9.86676
    vertex -6.6448 5.25 10.2086
    endloop
  endfacet
  facet normal 0 -1 -0
    outer loop
    vertex 1.9 5.25 4
    vertex -1.91561 5.25 9.37476
    vertex -3.6 5.25 4
    endloop
  endfacet
  facet normal 0 -0 1
    outer loop
    vertex -3.6 5.25 4
    vertex 1.9 1.25 4
    vertex 1.9 5.25 4
    endloop
  endfacet
  facet normal 0 -1 0
    outer loop
    vertex -3.6 5.25 4
    vertex -1.91561 5.25 9.37476
    vertex -2.52099 5.25 9.23128
    endloop
  endfacet
  facet normal 0 -1 0
    outer loop
    vertex -3.6 5.25 4
    vertex -2.52099 5.25 9.23128
    vertex -3.13893 5.25 9.15905
    endloop
  endfacet
  facet normal 0 -1 0
    outer loop
    vertex -3.13893 5.25 9.15905
    vertex -3.76108 5.25 9.15905
    vertex -3.6 5.25 4
    endloop
  endfacet
  facet normal -0 -1 -0
    outer loop
    vertex -3.6 5.25 4
    vertex -3.76108 5.25 9.15905
    vertex -4.37902 5.25 9.23128
    endloop
  endfacet
  facet normal -0 -1 -0
    outer loop
    vertex -3.6 5.25 4
    vertex -4.37902 5.25 9.23128
    vertex -4.9844 5.25 9.37476
    endloop
  endfacet
  facet normal 0 -1 0
    outer loop
    vertex -4.9844 5.25 9.37476
    vertex -5.56903 5.25 9.58754
    vertex -3.6 5.25 4
    endloop
  endfacet
  facet normal -0 -1 -0
    outer loop
    vertex -3.6 5.25 4
    vertex -5.56903 5.25 9.58754
    vertex -6.125 5.25 9.86676
    endloop
  endfacet
  facet normal -0.707107 -0.707107 0
    outer loop
    vertex -3.6 5.25 4
    vertex 1.9 -0.249995 0
    vertex 1.9 -0.249995 4
    endloop
  endfacet
  facet normal 0 0 1
    outer loop
    vertex 1.9 -0.249995 4
    vertex 1.9 1.25 4
    vertex -3.6 5.25 4
    endloop
  endfacet
  facet normal 0.642787 0 0.766045
    outer loop
    vertex -6.6448 5.25 10.2086
    vertex -6.6448 7.25 10.2086
    vertex -7.1214 5.25 10.6086
    endloop
  endfacet
  facet normal 0.549509 0 0.835488
    outer loop
    vertex -6.125 5.25 9.86676
    vertex -6.125 7.25 9.86676
    vertex -6.6448 5.25 10.2086
    endloop
  endfacet
  facet normal 0.549509 0 0.835488
    outer loop
    vertex -6.6448 5.25 10.2086
    vertex -6.125 7.25 9.86676
    vertex -6.6448 7.25 10.2086
    endloop
  endfacet
  facet normal 0.642787 0 0.766045
    outer loop
    vertex -7.1214 5.25 10.6086
    vertex -6.6448 7.25 10.2086
    vertex -7.1214 7.25 10.6086
    endloop
  endfacet
  facet normal 0 -1 -0
    outer loop
    vertex 1.9 5.25 4
    vertex -1.33098 5.25 9.58754
    vertex -1.91561 5.25 9.37476
    endloop
  endfacet
  facet normal 0 -1 0
    outer loop
    vertex 1.9 5.25 10
    vertex -0.775003 5.25 9.86676
    vertex 1.9 5.25 4
    endloop
  endfacet
  facet normal -1 0 0
    outer loop
    vertex 1.9 5.25 4
    vertex 1.9 1.25 4
    vertex 1.9 5.25 10
    endloop
  endfacet
  facet normal 0 -1 -0
    outer loop
    vertex 1.9 5.25 4
    vertex -0.775003 5.25 9.86676
    vertex -1.33098 5.25 9.58754
    endloop
  endfacet
  facet normal -0.230616 0 0.973045
    outer loop
    vertex -1.91561 5.25 9.37476
    vertex -1.91561 7.25 9.37476
    vertex -2.52099 5.25 9.23128
    endloop
  endfacet
  facet normal -0.342021 0 0.939692
    outer loop
    vertex -1.33098 5.25 9.58754
    vertex -1.33098 7.25 9.58754
    vertex -1.91561 5.25 9.37476
    endloop
  endfacet
  facet normal -0.342021 0 0.939692
    outer loop
    vertex -1.91561 5.25 9.37476
    vertex -1.33098 7.25 9.58754
    vertex -1.91561 7.25 9.37476
    endloop
  endfacet
  facet normal -0.116093 0 0.993238
    outer loop
    vertex -2.52099 5.25 9.23128
    vertex -2.52099 7.25 9.23128
    vertex -3.13893 5.25 9.15905
    endloop
  endfacet
  facet normal -0.230616 0 0.973045
    outer loop
    vertex -2.52099 5.25 9.23128
    vertex -1.91561 7.25 9.37476
    vertex -2.52099 7.25 9.23128
    endloop
  endfacet
  facet normal 0 0 1
    outer loop
    vertex -3.13893 5.25 9.15905
    vertex -3.13893 7.25 9.15905
    vertex -3.76108 5.25 9.15905
    endloop
  endfacet
  facet normal -0.116093 0 0.993238
    outer loop
    vertex -3.13893 5.25 9.15905
    vertex -2.52099 7.25 9.23128
    vertex -3.13893 7.25 9.15905
    endloop
  endfacet
  facet normal 0 -1 -0
    outer loop
    vertex 1.9 5.25 10
    vertex -0.255206 5.25 10.2086
    vertex -0.775003 5.25 9.86676
    endloop
  endfacet
  facet normal 0 -1 0
    outer loop
    vertex 3.9 5.25 10
    vertex 1.33093 5.25 12.0989
    vertex 1.9 5.25 10
    endloop
  endfacet
  facet normal 0 0 1
    outer loop
    vertex 1.9 5.25 10
    vertex 1.9 1.25 10
    vertex 3.9 5.25 10
    endloop
  endfacet
  facet normal 0 -1 -0
    outer loop
    vertex 1.9 5.25 10
    vertex 1.33093 5.25 12.0989
    vertex 1.01986 5.25 11.5601
    endloop
  endfacet
  facet normal 0 -1 -0
    outer loop
    vertex 1.9 5.25 10
    vertex 1.01986 5.25 11.5601
    vertex 0.648334 5.25 11.0611
    endloop
  endfacet
  facet normal 0 -1 0
    outer loop
    vertex 0.648334 5.25 11.0611
    vertex 0.221391 5.25 10.6086
    vertex 1.9 5.25 10
    endloop
  endfacet
  facet normal 0 -1 -0
    outer loop
    vertex 1.9 5.25 10
    vertex 0.221391 5.25 10.6086
    vertex -0.255206 5.25 10.2086
    endloop
  endfacet
  facet normal -1 0 0
    outer loop
    vertex 1.9 5.25 10
    vertex 1.9 1.25 4
    vertex 1.9 1.25 10
    endloop
  endfacet
  facet normal -0.448799 0 0.893633
    outer loop
    vertex -0.775003 5.25 9.86676
    vertex -0.775003 7.25 9.86676
    vertex -1.33098 5.25 9.58754
    endloop
  endfacet
  facet normal -0.54951 0 0.835487
    outer loop
    vertex -0.255206 5.25 10.2086
    vertex -0.255206 7.25 10.2086
    vertex -0.775003 5.25 9.86676
    endloop
  endfacet
  facet normal -0.54951 0 0.835487
    outer loop
    vertex -0.775003 5.25 9.86676
    vertex -0.255206 7.25 10.2086
    vertex -0.775003 7.25 9.86676
    endloop
  endfacet
  facet normal -0.448799 0 0.893633
    outer loop
    vertex -1.33098 5.25 9.58754
    vertex -0.775003 7.25 9.86676
    vertex -1.33098 7.25 9.58754
    endloop
  endfacet
  facet normal 0 -1 -0
    outer loop
    vertex 3.9 5.25 10
    vertex 1.57735 5.25 12.6702
    vertex 1.33093 5.25 12.0989
    endloop
  endfacet
  facet normal 0 -1 0
    outer loop
    vertex 3.9 5.25 24.5
    vertex 1.9 5.25 14.5
    vertex 3.9 5.25 10
    endloop
  endfacet
  facet normal 1 0 0
    outer loop
    vertex 3.9 5.25 10
    vertex 3.9 9.25001 24.5
    vertex 3.9 5.25 24.5
    endloop
  endfacet
  facet normal 0 -1 -0
    outer loop
    vertex 3.9 5.25 10
    vertex 1.9 5.25 14.5
    vertex 1.86382 5.25 13.8789
    endloop
  endfacet
  facet normal 0 -1 -0
    outer loop
    vertex 3.9 5.25 10
    vertex 1.86382 5.25 13.8789
    vertex 1.75579 5.25 13.2662
    endloop
  endfacet
  facet normal 0 -1 0
    outer loop
    vertex 1.75579 5.25 13.2662
    vertex 1.57735 5.25 12.6702
    vertex 3.9 5.25 10
    endloop
  endfacet
  facet normal 1 0 -0
    outer loop
    vertex 3.9 5.25 10
    vertex 3.9 9.25001 4.5
    vertex 3.9 9.25001 24.5
    endloop
  endfacet
  facet normal 1 0 0
    outer loop
    vertex 3.9 1.25 4
    vertex 3.9 9.25001 4.5
    vertex 3.9 5.25 10
    endloop
  endfacet
  facet normal 1 -0 0
    outer loop
    vertex 3.9 5.25 10
    vertex 3.9 1.25 10
    vertex 3.9 1.25 4
    endloop
  endfacet
  facet normal 0 0 1
    outer loop
    vertex 3.9 5.25 10
    vertex 1.9 1.25 10
    vertex 3.9 1.25 10
    endloop
  endfacet
  facet normal -0.866026 0 0.499999
    outer loop
    vertex 1.33093 5.25 12.0989
    vertex 1.33093 7.25 12.0989
    vertex 1.01986 5.25 11.5601
    endloop
  endfacet
  facet normal -0.918215 0 0.396082
    outer loop
    vertex 1.57735 5.25 12.6702
    vertex 1.57735 7.25 12.6702
    vertex 1.33093 5.25 12.0989
    endloop
  endfacet
  facet normal -0.918215 0 0.396082
    outer loop
    vertex 1.33093 5.25 12.0989
    vertex 1.57735 7.25 12.6702
    vertex 1.33093 7.25 12.0989
    endloop
  endfacet
  facet normal -0.802122 0 0.59716
    outer loop
    vertex 1.01986 5.25 11.5601
    vertex 1.01986 7.25 11.5601
    vertex 0.648334 5.25 11.0611
    endloop
  endfacet
  facet normal -0.866026 0 0.499999
    outer loop
    vertex 1.01986 5.25 11.5601
    vertex 1.33093 7.25 12.0989
    vertex 1.01986 7.25 11.5601
    endloop
  endfacet
  facet normal -0.727375 0 0.68624
    outer loop
    vertex 0.648334 5.25 11.0611
    vertex 0.648334 7.25 11.0611
    vertex 0.221391 5.25 10.6086
    endloop
  endfacet
  facet normal -0.802122 0 0.59716
    outer loop
    vertex 0.648334 5.25 11.0611
    vertex 1.01986 7.25 11.5601
    vertex 0.648334 7.25 11.0611
    endloop
  endfacet
  facet normal 0 -1 0
    outer loop
    vertex 3.9 5.25 24.5
    vertex 1.9 5.25 24.5
    vertex 1.9 5.25 14.5
    endloop
  endfacet
  facet normal 0 0 1
    outer loop
    vertex 3.9 5.25 24.5
    vertex 1.9 7.25 24.5
    vertex 1.9 5.25 24.5
    endloop
  endfacet
  facet normal -0 0 1
    outer loop
    vertex 3.9 9.25001 24.5
    vertex 1.9 7.25 24.5
    vertex 3.9 5.25 24.5
    endloop
  endfacet
  facet normal -0.998308 0 0.0581456
    outer loop
    vertex 1.9 5.25 14.5
    vertex 1.9 7.25 14.5
    vertex 1.86382 5.25 13.8789
    endloop
  endfacet
  facet normal -1 0 0
    outer loop
    vertex 1.9 5.25 24.5
    vertex 1.9 7.25 14.5
    vertex 1.9 5.25 14.5
    endloop
  endfacet
  facet normal -0.984809 0 0.173644
    outer loop
    vertex 1.86382 5.25 13.8789
    vertex 1.86382 7.25 13.8789
    vertex 1.75579 5.25 13.2662
    endloop
  endfacet
  facet normal -0.998308 0 0.0581456
    outer loop
    vertex 1.86382 5.25 13.8789
    vertex 1.9 7.25 14.5
    vertex 1.86382 7.25 13.8789
    endloop
  endfacet
  facet normal -0.957989 0 0.286804
    outer loop
    vertex 1.75579 5.25 13.2662
    vertex 1.75579 7.25 13.2662
    vertex 1.57735 5.25 12.6702
    endloop
  endfacet
  facet normal -0.984809 0 0.173644
    outer loop
    vertex 1.75579 5.25 13.2662
    vertex 1.86382 7.25 13.8789
    vertex 1.75579 7.25 13.2662
    endloop
  endfacet
  facet normal -1 0 0
    outer loop
    vertex 1.9 7.25 24.5
    vertex 1.9 7.25 14.5
    vertex 1.9 5.25 24.5
    endloop
  endfacet
  facet normal -0.957989 0 0.286804
    outer loop
    vertex 1.57735 5.25 12.6702
    vertex 1.75579 7.25 13.2662
    vertex 1.57735 7.25 12.6702
    endloop
  endfacet
  facet normal -0.642786 0 0.766046
    outer loop
    vertex 0.221391 5.25 10.6086
    vertex 0.221391 7.25 10.6086
    vertex -0.255206 5.25 10.2086
    endloop
  endfacet
  facet normal -0.727375 0 0.68624
    outer loop
    vertex 0.221391 5.25 10.6086
    vertex 0.648334 7.25 11.0611
    vertex 0.221391 7.25 10.6086
    endloop
  endfacet
  facet normal -0.642786 0 0.766046
    outer loop
    vertex -0.255206 5.25 10.2086
    vertex 0.221391 7.25 10.6086
    vertex -0.255206 7.25 10.2086
    endloop
  endfacet
  facet normal 0.116093 0 0.993238
    outer loop
    vertex -3.76108 5.25 9.15905
    vertex -3.76108 7.25 9.15905
    vertex -4.37902 5.25 9.23128
    endloop
  endfacet
  facet normal 0 0 1
    outer loop
    vertex -3.76108 5.25 9.15905
    vertex -3.13893 7.25 9.15905
    vertex -3.76108 7.25 9.15905
    endloop
  endfacet
  facet normal 0.230615 0 0.973045
    outer loop
    vertex -4.37902 5.25 9.23128
    vertex -4.37902 7.25 9.23128
    vertex -4.9844 5.25 9.37476
    endloop
  endfacet
  facet normal 0.116093 0 0.993238
    outer loop
    vertex -4.37902 5.25 9.23128
    vertex -3.76108 7.25 9.15905
    vertex -4.37902 7.25 9.23128
    endloop
  endfacet
  facet normal 0.342022 0 0.939692
    outer loop
    vertex -4.9844 5.25 9.37476
    vertex -4.9844 7.25 9.37476
    vertex -5.56903 5.25 9.58754
    endloop
  endfacet
  facet normal 0.230615 0 0.973045
    outer loop
    vertex -4.9844 5.25 9.37476
    vertex -4.37902 7.25 9.23128
    vertex -4.9844 7.25 9.37476
    endloop
  endfacet
  facet normal 0.448799 0 0.893633
    outer loop
    vertex -5.56903 5.25 9.58754
    vertex -5.56903 7.25 9.58754
    vertex -6.125 5.25 9.86676
    endloop
  endfacet
  facet normal 0.342022 0 0.939692
    outer loop
    vertex -5.56903 5.25 9.58754
    vertex -4.9844 7.25 9.37476
    vertex -5.56903 7.25 9.58754
    endloop
  endfacet
  facet normal 0.448799 0 0.893633
    outer loop
    vertex -6.125 5.25 9.86676
    vertex -5.56903 7.25 9.58754
    vertex -6.125 7.25 9.86676
    endloop
  endfacet
  facet normal 0 -1 0
    outer loop
    vertex -23.5 5.25 14.5
    vertex -8.47736 5.25 12.6702
    vertex -8.65579 5.25 13.2662
    endloop
  endfacet
  facet normal -0 -1 -0
    outer loop
    vertex -8.65579 5.25 13.2662
    vertex -8.76383 5.25 13.8789
    vertex -23.5 5.25 14.5
    endloop
  endfacet
  facet normal 0 -1 0
    outer loop
    vertex -23.5 5.25 14.5
    vertex -8.76383 5.25 13.8789
    vertex -8.8 5.25 14.5
    endloop
  endfacet
  facet normal 0 -1 0
    outer loop
    vertex -23.5 5.25 14.5
    vertex -8.8 5.25 14.5
    vertex -8.8 5.25 21.85
    endloop
  endfacet
  facet normal -0.447214 0 0.894427
    outer loop
    vertex -23.5 5.25 14.5
    vertex -8.8 5.25 21.85
    vertex -8.8 7.25 21.85
    endloop
  endfacet
  facet normal -1 0 0
    outer loop
    vertex -23.5 9.25001 4.5
    vertex -23.5 5.25 14.5
    vertex -23.5 9.25001 14.5
    endloop
  endfacet
  facet normal -0.447214 0 0.894427
    outer loop
    vertex -8.8 7.25 21.85
    vertex -23.5 9.25001 14.5
    vertex -23.5 5.25 14.5
    endloop
  endfacet
  facet normal 0.95799 0 0.286803
    outer loop
    vertex -8.47736 5.25 12.6702
    vertex -8.47736 7.25 12.6702
    vertex -8.65579 5.25 13.2662
    endloop
  endfacet
  facet normal 0.918216 0 0.39608
    outer loop
    vertex -8.47736 5.25 12.6702
    vertex -8.23094 7.25 12.0989
    vertex -8.47736 7.25 12.6702
    endloop
  endfacet
  facet normal 0.984808 0 0.173648
    outer loop
    vertex -8.65579 5.25 13.2662
    vertex -8.65579 7.25 13.2662
    vertex -8.76383 5.25 13.8789
    endloop
  endfacet
  facet normal 0.95799 0 0.286803
    outer loop
    vertex -8.65579 5.25 13.2662
    vertex -8.47736 7.25 12.6702
    vertex -8.65579 7.25 13.2662
    endloop
  endfacet
  facet normal 0.998308 0 0.0581433
    outer loop
    vertex -8.76383 5.25 13.8789
    vertex -8.76383 7.25 13.8789
    vertex -8.8 5.25 14.5
    endloop
  endfacet
  facet normal 0.984808 0 0.173648
    outer loop
    vertex -8.76383 5.25 13.8789
    vertex -8.65579 7.25 13.2662
    vertex -8.76383 7.25 13.8789
    endloop
  endfacet
  facet normal 1 0 0
    outer loop
    vertex -8.8 5.25 21.85
    vertex -8.8 5.25 14.5
    vertex -8.8 7.25 21.85
    endloop
  endfacet
  facet normal 1 0 0
    outer loop
    vertex -8.8 7.25 21.85
    vertex -8.8 5.25 14.5
    vertex -8.8 7.25 14.5
    endloop
  endfacet
  facet normal 0.998308 0 0.0581433
    outer loop
    vertex -8.8 5.25 14.5
    vertex -8.76383 7.25 13.8789
    vertex -8.8 7.25 14.5
    endloop
  endfacet
  facet normal 0 -0 -1
    outer loop
    vertex 1.9 -0.249995 0
    vertex 16.1 10.15 0
    vertex 23.5 2.75 0
    endloop
  endfacet
  facet normal 0.707107 0.707107 -1.45008e-006
    outer loop
    vertex 23.5 2.75 0
    vertex 16.1 10.15 0
    vertex 17 9.25001 2
    endloop
  endfacet
  facet normal 0.707106 0.707107 -1.20224e-006
    outer loop
    vertex 17 9.25001 2
    vertex 16.1 10.15 0
    vertex 14 12.25 2.99911
    endloop
  endfacet
  facet normal 0 0 -1
    outer loop
    vertex 1.9 -0.249995 0
    vertex 23.5 2.75 0
    vertex 15.8433 -3.40912 0
    endloop
  endfacet
  facet normal 0 0 -1
    outer loop
    vertex 15.5383 -3.48141 0
    vertex 1.9 -0.249995 0
    vertex 15.8433 -3.40912 0
    endloop
  endfacet
  facet normal 0 0 -1
    outer loop
    vertex 14.7067 -4.36281 0
    vertex 1.9 -7.25 0
    vertex 1.9 -0.249995 0
    endloop
  endfacet
  facet normal -1 0 -0
    outer loop
    vertex 1.9 -7.25 0
    vertex 1.9 -0.249995 4
    vertex 1.9 -0.249995 0
    endloop
  endfacet
  facet normal 0 0 -1
    outer loop
    vertex 14.7067 -4.36281 0
    vertex 1.9 -0.249995 0
    vertex 14.8309 -4.075 0
    endloop
  endfacet
  facet normal 0 0 -1
    outer loop
    vertex 14.8309 -4.075 0
    vertex 1.9 -0.249995 0
    vertex 15.018 -3.82357 0
    endloop
  endfacet
  facet normal 0 0 -1
    outer loop
    vertex 15.018 -3.82357 0
    vertex 1.9 -0.249995 0
    vertex 15.2582 -3.62209 0
    endloop
  endfacet
  facet normal 0 0 -1
    outer loop
    vertex 15.2582 -3.62209 0
    vertex 1.9 -0.249995 0
    vertex 15.5383 -3.48141 0
    endloop
  endfacet
  facet normal 0 0 -1
    outer loop
    vertex 15.8433 -3.40912 0
    vertex 23.5 2.75 0
    vertex 16.1567 -3.40912 0
    endloop
  endfacet
  facet normal 0 0 -1
    outer loop
    vertex 16.1567 -3.40912 0
    vertex 23.5 2.75 0
    vertex 16.4617 -3.48141 0
    endloop
  endfacet
  facet normal 0 0 -1
    outer loop
    vertex 16.4617 -3.48141 0
    vertex 23.5 2.75 0
    vertex 16.7418 -3.62209 0
    endloop
  endfacet
  facet normal 0 0 -1
    outer loop
    vertex 16.7418 -3.62209 0
    vertex 23.5 2.75 0
    vertex 16.9819 -3.82357 0
    endloop
  endfacet
  facet normal 0 0 -1
    outer loop
    vertex 16.9819 -3.82357 0
    vertex 23.5 2.75 0
    vertex 17.1691 -4.075 0
    endloop
  endfacet
  facet normal 0 -0 -1
    outer loop
    vertex 17.1691 -4.075 0
    vertex 23.5 2.75 0
    vertex 23.5 -7.25 0
    endloop
  endfacet
  facet normal 1 0 0
    outer loop
    vertex 23.5 -7.25 0
    vertex 23.5 2.75 0
    vertex 23.5 -7.25 2
    endloop
  endfacet
  facet normal 0.707107 0.707107 0
    outer loop
    vertex 17 9.25001 2
    vertex 23.5 2.75 2
    vertex 23.5 2.75 0
    endloop
  endfacet
  facet normal 1 0 -0
    outer loop
    vertex 23.5 -7.25 2
    vertex 23.5 2.75 0
    vertex 23.5 2.75 2
    endloop
  endfacet
  facet normal 0 -1 0
    outer loop
    vertex 16.1567 -3.40912 4.9
    vertex 15.8433 -3.40912 0
    vertex 16.1567 -3.40912 0
    endloop
  endfacet
  facet normal 0.230618 -0.973044 0
    outer loop
    vertex 15.8433 -3.40912 4.9
    vertex 15.5383 -3.48141 0
    vertex 15.8433 -3.40912 0
    endloop
  endfacet
  facet normal 0 -1 0
    outer loop
    vertex 15.8433 -3.40912 4.9
    vertex 15.8433 -3.40912 0
    vertex 16.1567 -3.40912 4.9
    endloop
  endfacet
  facet normal -0.230616 -0.973045 0
    outer loop
    vertex 16.4617 -3.48141 4.9
    vertex 16.1567 -3.40912 0
    vertex 16.4617 -3.48141 0
    endloop
  endfacet
  facet normal -0.230616 -0.973045 0
    outer loop
    vertex 16.1567 -3.40912 4.9
    vertex 16.1567 -3.40912 0
    vertex 16.4617 -3.48141 4.9
    endloop
  endfacet
  facet normal -0.4488 -0.893632 0
    outer loop
    vertex 16.7418 -3.62209 4.9
    vertex 16.4617 -3.48141 0
    vertex 16.7418 -3.62209 0
    endloop
  endfacet
  facet normal -0.4488 -0.893632 0
    outer loop
    vertex 16.4617 -3.48141 4.9
    vertex 16.4617 -3.48141 0
    vertex 16.7418 -3.62209 4.9
    endloop
  endfacet
  facet normal -0.64279 -0.766042 0
    outer loop
    vertex 16.9819 -3.82357 4.9
    vertex 16.7418 -3.62209 0
    vertex 16.9819 -3.82357 0
    endloop
  endfacet
  facet normal -0.64279 -0.766042 0
    outer loop
    vertex 16.7418 -3.62209 4.9
    vertex 16.7418 -3.62209 0
    vertex 16.9819 -3.82357 4.9
    endloop
  endfacet
  facet normal -0.802117 -0.597166 0
    outer loop
    vertex 17.1691 -4.075 4.9
    vertex 16.9819 -3.82357 0
    vertex 17.1691 -4.075 0
    endloop
  endfacet
  facet normal -0.802117 -0.597166 0
    outer loop
    vertex 16.9819 -3.82357 4.9
    vertex 16.9819 -3.82357 0
    vertex 17.1691 -4.075 4.9
    endloop
  endfacet
  facet normal 0 0 -1
    outer loop
    vertex 17.1691 -4.075 0
    vertex 23.5 -7.25 0
    vertex 17.2933 -4.36281 0
    endloop
  endfacet
  facet normal -0.918219 -0.396073 0
    outer loop
    vertex 17.2933 -4.36281 4.9
    vertex 17.1691 -4.075 0
    vertex 17.2933 -4.36281 0
    endloop
  endfacet
  facet normal -0.918219 -0.396073 0
    outer loop
    vertex 17.1691 -4.075 4.9
    vertex 17.1691 -4.075 0
    vertex 17.2933 -4.36281 4.9
    endloop
  endfacet
  facet normal 0 0 -1
    outer loop
    vertex 17.2933 -4.36281 0
    vertex 23.5 -7.25 0
    vertex 17.3477 -4.6715 0
    endloop
  endfacet
  facet normal 0 0 -1
    outer loop
    vertex 17.3477 -4.6715 0
    vertex 23.5 -7.25 0
    vertex 17.3295 -4.98442 0
    endloop
  endfacet
  facet normal 0 0 -1
    outer loop
    vertex 17.3295 -4.98442 0
    vertex 23.5 -7.25 0
    vertex 17.2396 -5.2847 0
    endloop
  endfacet
  facet normal 0 0 -1
    outer loop
    vertex 17.2396 -5.2847 0
    vertex 23.5 -7.25 0
    vertex 17.0829 -5.55616 0
    endloop
  endfacet
  facet normal 0 0 -1
    outer loop
    vertex 17.0829 -5.55616 0
    vertex 23.5 -7.25 0
    vertex 16.8678 -5.78416 0
    endloop
  endfacet
  facet normal 0 0 -1
    outer loop
    vertex 16.8678 -5.78416 0
    vertex 23.5 -7.25 0
    vertex 16.6059 -5.9564 0
    endloop
  endfacet
  facet normal 0 0 -1
    outer loop
    vertex 16.6059 -5.9564 0
    vertex 23.5 -7.25 0
    vertex 16.3113 -6.06361 0
    endloop
  endfacet
  facet normal -0 0 -1
    outer loop
    vertex 16.3113 -6.06361 0
    vertex 23.5 -7.25 0
    vertex 18.5 -12.25 0
    endloop
  endfacet
  facet normal 0.707107 -0.707107 0
    outer loop
    vertex 23.5 -7.25 0
    vertex 23.5 -7.25 2
    vertex 18.5 -12.25 0
    endloop
  endfacet
  facet normal -0.984807 -0.173654 0
    outer loop
    vertex 17.3477 -4.6715 4.9
    vertex 17.2933 -4.36281 0
    vertex 17.3477 -4.6715 0
    endloop
  endfacet
  facet normal -0.984807 -0.173654 0
    outer loop
    vertex 17.2933 -4.36281 4.9
    vertex 17.2933 -4.36281 0
    vertex 17.3477 -4.6715 4.9
    endloop
  endfacet
  facet normal -0.998308 0.0581482 0
    outer loop
    vertex 17.3295 -4.98442 4.9
    vertex 17.3477 -4.6715 0
    vertex 17.3295 -4.98442 0
    endloop
  endfacet
  facet normal -0.998308 0.0581482 0
    outer loop
    vertex 17.3477 -4.6715 4.9
    vertex 17.3477 -4.6715 0
    vertex 17.3295 -4.98442 4.9
    endloop
  endfacet
  facet normal -0.957991 0.286799 0
    outer loop
    vertex 17.2396 -5.2847 4.9
    vertex 17.3295 -4.98442 0
    vertex 17.2396 -5.2847 0
    endloop
  endfacet
  facet normal -0.957991 0.286799 0
    outer loop
    vertex 17.3295 -4.98442 4.9
    vertex 17.3295 -4.98442 0
    vertex 17.2396 -5.2847 4.9
    endloop
  endfacet
  facet normal -0.866024 0.500003 0
    outer loop
    vertex 17.0829 -5.55616 4.9
    vertex 17.2396 -5.2847 0
    vertex 17.0829 -5.55616 0
    endloop
  endfacet
  facet normal -0.866024 0.500003 0
    outer loop
    vertex 17.2396 -5.2847 4.9
    vertex 17.2396 -5.2847 0
    vertex 17.0829 -5.55616 4.9
    endloop
  endfacet
  facet normal -0.727377 0.686238 0
    outer loop
    vertex 16.8678 -5.78416 4.9
    vertex 17.0829 -5.55616 0
    vertex 16.8678 -5.78416 0
    endloop
  endfacet
  facet normal -0.727377 0.686238 0
    outer loop
    vertex 17.0829 -5.55616 4.9
    vertex 17.0829 -5.55616 0
    vertex 16.8678 -5.78416 4.9
    endloop
  endfacet
  facet normal -0.549507 0.835489 0
    outer loop
    vertex 16.6059 -5.9564 4.9
    vertex 16.8678 -5.78416 0
    vertex 16.6059 -5.9564 0
    endloop
  endfacet
  facet normal -0.549507 0.835489 0
    outer loop
    vertex 16.8678 -5.78416 4.9
    vertex 16.8678 -5.78416 0
    vertex 16.6059 -5.9564 4.9
    endloop
  endfacet
  facet normal -0.34202 0.939692 0
    outer loop
    vertex 16.3113 -6.06361 4.9
    vertex 16.6059 -5.9564 0
    vertex 16.3113 -6.06361 0
    endloop
  endfacet
  facet normal -0.34202 0.939692 0
    outer loop
    vertex 16.6059 -5.9564 4.9
    vertex 16.6059 -5.9564 0
    vertex 16.3113 -6.06361 4.9
    endloop
  endfacet
  facet normal 0 0 -1
    outer loop
    vertex 16.3113 -6.06361 0
    vertex 18.5 -12.25 0
    vertex 16 -6.1 0
    endloop
  endfacet
  facet normal -0.116092 0.993238 0
    outer loop
    vertex 16 -6.1 4.9
    vertex 16.3113 -6.06361 0
    vertex 16 -6.1 0
    endloop
  endfacet
  facet normal -0.116092 0.993238 0
    outer loop
    vertex 16.3113 -6.06361 4.9
    vertex 16.3113 -6.06361 0
    vertex 16 -6.1 4.9
    endloop
  endfacet
  facet normal 0 0 -1
    outer loop
    vertex 16 -6.1 0
    vertex 18.5 -12.25 0
    vertex 15.6887 -6.06361 0
    endloop
  endfacet
  facet normal 0 0 -1
    outer loop
    vertex 15.6887 -6.06361 0
    vertex 18.5 -12.25 0
    vertex 6.9 -12.25 0
    endloop
  endfacet
  facet normal 0 -1 0
    outer loop
    vertex 6.9 -12.25 0
    vertex 18.5 -12.25 0
    vertex 6.9 -12.25 2
    endloop
  endfacet
  facet normal 0 -1 0
    outer loop
    vertex 6.9 -12.25 2
    vertex 18.5 -12.25 0
    vertex 18.5 -12.25 2
    endloop
  endfacet
  facet normal 0.707107 -0.707107 0
    outer loop
    vertex 18.5 -12.25 0
    vertex 23.5 -7.25 2
    vertex 18.5 -12.25 2
    endloop
  endfacet
  facet normal 0.116093 0.993238 0
    outer loop
    vertex 15.6887 -6.06361 4.9
    vertex 16 -6.1 0
    vertex 15.6887 -6.06361 0
    endloop
  endfacet
  facet normal 0.116093 0.993238 -0
    outer loop
    vertex 16 -6.1 4.9
    vertex 16 -6.1 0
    vertex 15.6887 -6.06361 4.9
    endloop
  endfacet
  facet normal 0 0 -1
    outer loop
    vertex 15.6887 -6.06361 0
    vertex 6.9 -12.25 0
    vertex 15.3941 -5.9564 0
    endloop
  endfacet
  facet normal 0.342018 0.939693 0
    outer loop
    vertex 15.3941 -5.9564 4.9
    vertex 15.6887 -6.06361 0
    vertex 15.3941 -5.9564 0
    endloop
  endfacet
  facet normal 0.342018 0.939693 -0
    outer loop
    vertex 15.6887 -6.06361 4.9
    vertex 15.6887 -6.06361 0
    vertex 15.3941 -5.9564 4.9
    endloop
  endfacet
  facet normal 0 0 -1
    outer loop
    vertex 15.3941 -5.9564 0
    vertex 6.9 -12.25 0
    vertex 1.9 -7.25 0
    endloop
  endfacet
  facet normal -0.707107 -0.707107 1.68587e-007
    outer loop
    vertex 3.9 -9.25 2
    vertex 1.9 -7.25 0
    vertex 6.9 -12.25 0
    endloop
  endfacet
  facet normal -0.707107 -0.707107 0
    outer loop
    vertex 3.9 -9.25 2
    vertex 6.9 -12.25 0
    vertex 6.9 -12.25 2
    endloop
  endfacet
  facet normal 0 0 -1
    outer loop
    vertex 15.3941 -5.9564 0
    vertex 1.9 -7.25 0
    vertex 15.1322 -5.78416 0
    endloop
  endfacet
  facet normal 0.549513 0.835485 0
    outer loop
    vertex 15.1322 -5.78416 4.9
    vertex 15.3941 -5.9564 0
    vertex 15.1322 -5.78416 0
    endloop
  endfacet
  facet normal 0.549513 0.835485 -0
    outer loop
    vertex 15.3941 -5.9564 4.9
    vertex 15.3941 -5.9564 0
    vertex 15.1322 -5.78416 4.9
    endloop
  endfacet
  facet normal 0 0 -1
    outer loop
    vertex 15.1322 -5.78416 0
    vertex 1.9 -7.25 0
    vertex 14.9171 -5.55616 0
    endloop
  endfacet
  facet normal 0 0 -1
    outer loop
    vertex 14.9171 -5.55616 0
    vertex 1.9 -7.25 0
    vertex 14.7604 -5.2847 0
    endloop
  endfacet
  facet normal 0 0 -1
    outer loop
    vertex 14.7604 -5.2847 0
    vertex 1.9 -7.25 0
    vertex 14.6705 -4.98442 0
    endloop
  endfacet
  facet normal 0 0 -1
    outer loop
    vertex 14.6705 -4.98442 0
    vertex 1.9 -7.25 0
    vertex 14.6523 -4.6715 0
    endloop
  endfacet
  facet normal 0 0 -1
    outer loop
    vertex 14.6523 -4.6715 0
    vertex 1.9 -7.25 0
    vertex 14.7067 -4.36281 0
    endloop
  endfacet
  facet normal -0.707107 -0.707107 0
    outer loop
    vertex 1.9 -7.25 4
    vertex 1.9 -7.25 0
    vertex 3.9 -9.25 2
    endloop
  endfacet
  facet normal -1 -0 0
    outer loop
    vertex 1.9 -7.25 4
    vertex 1.9 -0.249995 4
    vertex 1.9 -7.25 0
    endloop
  endfacet
  facet normal 0.727373 0.686243 0
    outer loop
    vertex 14.9171 -5.55616 4.9
    vertex 15.1322 -5.78416 0
    vertex 14.9171 -5.55616 0
    endloop
  endfacet
  facet normal 0.727373 0.686243 -0
    outer loop
    vertex 15.1322 -5.78416 4.9
    vertex 15.1322 -5.78416 0
    vertex 14.9171 -5.55616 4.9
    endloop
  endfacet
  facet normal 0.866024 0.500003 0
    outer loop
    vertex 14.7604 -5.2847 4.9
    vertex 14.9171 -5.55616 0
    vertex 14.7604 -5.2847 0
    endloop
  endfacet
  facet normal 0.866024 0.500003 -0
    outer loop
    vertex 14.9171 -5.55616 4.9
    vertex 14.9171 -5.55616 0
    vertex 14.7604 -5.2847 4.9
    endloop
  endfacet
  facet normal 0.95799 0.286802 0
    outer loop
    vertex 14.6705 -4.98442 4.9
    vertex 14.7604 -5.2847 0
    vertex 14.6705 -4.98442 0
    endloop
  endfacet
  facet normal 0.95799 0.286802 -0
    outer loop
    vertex 14.7604 -5.2847 4.9
    vertex 14.7604 -5.2847 0
    vertex 14.6705 -4.98442 4.9
    endloop
  endfacet
  facet normal 0.998308 0.0581482 0
    outer loop
    vertex 14.6523 -4.6715 4.9
    vertex 14.6705 -4.98442 0
    vertex 14.6523 -4.6715 0
    endloop
  endfacet
  facet normal 0.998308 0.0581482 -0
    outer loop
    vertex 14.6705 -4.98442 4.9
    vertex 14.6705 -4.98442 0
    vertex 14.6523 -4.6715 4.9
    endloop
  endfacet
  facet normal 0.984806 -0.173657 0
    outer loop
    vertex 14.7067 -4.36281 4.9
    vertex 14.6523 -4.6715 0
    vertex 14.7067 -4.36281 0
    endloop
  endfacet
  facet normal 0.984806 -0.173657 0
    outer loop
    vertex 14.6523 -4.6715 4.9
    vertex 14.6523 -4.6715 0
    vertex 14.7067 -4.36281 4.9
    endloop
  endfacet
  facet normal 0.918219 -0.396073 0
    outer loop
    vertex 14.8309 -4.075 4.9
    vertex 14.7067 -4.36281 0
    vertex 14.8309 -4.075 0
    endloop
  endfacet
  facet normal 0.918219 -0.396073 0
    outer loop
    vertex 14.7067 -4.36281 4.9
    vertex 14.7067 -4.36281 0
    vertex 14.8309 -4.075 4.9
    endloop
  endfacet
  facet normal 0.802119 -0.597165 0
    outer loop
    vertex 15.018 -3.82357 4.9
    vertex 14.8309 -4.075 0
    vertex 15.018 -3.82357 0
    endloop
  endfacet
  facet normal 0.802119 -0.597165 0
    outer loop
    vertex 14.8309 -4.075 4.9
    vertex 14.8309 -4.075 0
    vertex 15.018 -3.82357 4.9
    endloop
  endfacet
  facet normal 0.64279 -0.766042 0
    outer loop
    vertex 15.2582 -3.62209 4.9
    vertex 15.018 -3.82357 0
    vertex 15.2582 -3.62209 0
    endloop
  endfacet
  facet normal 0.64279 -0.766042 0
    outer loop
    vertex 15.018 -3.82357 4.9
    vertex 15.018 -3.82357 0
    vertex 15.2582 -3.62209 4.9
    endloop
  endfacet
  facet normal 0.448797 -0.893634 0
    outer loop
    vertex 15.5383 -3.48141 4.9
    vertex 15.2582 -3.62209 0
    vertex 15.5383 -3.48141 0
    endloop
  endfacet
  facet normal 0.448797 -0.893634 0
    outer loop
    vertex 15.2582 -3.62209 4.9
    vertex 15.2582 -3.62209 0
    vertex 15.5383 -3.48141 4.9
    endloop
  endfacet
  facet normal 0.230618 -0.973044 0
    outer loop
    vertex 15.5383 -3.48141 4.9
    vertex 15.5383 -3.48141 0
    vertex 15.8433 -3.40912 4.9
    endloop
  endfacet
  facet normal 0 1 0
    outer loop
    vertex 14 12.25 2.99911
    vertex -20.5 12.25 2.99911
    vertex 14 12.25 4.5
    endloop
  endfacet
  facet normal 0.707106 0.707107 0
    outer loop
    vertex 17 9.25001 2
    vertex 14 12.25 2.99911
    vertex 17 9.25001 4.5
    endloop
  endfacet
  facet normal 0.707106 0.707107 -0
    outer loop
    vertex 17 9.25001 4.5
    vertex 14 12.25 2.99911
    vertex 14 12.25 4.5
    endloop
  endfacet
  facet normal 0 1 0
    outer loop
    vertex 14 12.25 4.5
    vertex -20.5 12.25 2.99911
    vertex -20.5 12.25 4.5
    endloop
  endfacet
  facet normal 0.316228 0.707107 -0.632456
    outer loop
    vertex -21.5 6.25 11.0279
    vertex -21.5 9.25001 14.382
    vertex -10.8 6.25 16.3779
    endloop
  endfacet
  facet normal 1 -0 0
    outer loop
    vertex -21.5 9.25001 14.382
    vertex -21.5 6.25 11.0279
    vertex -21.5 9.25001 4.5
    endloop
  endfacet
  facet normal -0 1 0
    outer loop
    vertex -19 6.25 4.5
    vertex -21.5 6.25 11.0279
    vertex -10.8 6.25 16.3779
    endloop
  endfacet
  facet normal 0 1 0
    outer loop
    vertex -21.5 6.25 4.5
    vertex -21.5 6.25 11.0279
    vertex -19 6.25 4.5
    endloop
  endfacet
  facet normal 1 0 0
    outer loop
    vertex -21.5 9.25001 4.5
    vertex -21.5 6.25 11.0279
    vertex -21.5 6.25 4.5
    endloop
  endfacet
  facet normal 0.316228 0.707107 -0.632456
    outer loop
    vertex -10.8 6.25 16.3779
    vertex -21.5 9.25001 14.382
    vertex -10.8 9.25001 19.732
    endloop
  endfacet
  facet normal -0 1 0
    outer loop
    vertex -21.5 9.25001 14.382
    vertex -23.5 9.25001 14.5
    vertex -10.8 9.25001 19.732
    endloop
  endfacet
  facet normal 0 1 0
    outer loop
    vertex -21.5 9.25001 4.5
    vertex -23.5 9.25001 4.5
    vertex -21.5 9.25001 14.382
    endloop
  endfacet
  facet normal 0 1 0
    outer loop
    vertex -21.5 9.25001 14.382
    vertex -23.5 9.25001 4.5
    vertex -23.5 9.25001 14.5
    endloop
  endfacet
  facet normal -1 0 0
    outer loop
    vertex -10.8 9.25001 19.732
    vertex -10.8 9.25001 4.5
    vertex -10.8 6.25 16.3779
    endloop
  endfacet
  facet normal -1 -0 0
    outer loop
    vertex -10.8 6.25 16.3779
    vertex -10.8 9.25001 4.5
    vertex -10.8 6.25 2
    endloop
  endfacet
  facet normal 0 1 0
    outer loop
    vertex -19 6.25 4.5
    vertex -10.8 6.25 16.3779
    vertex -10.8 6.25 2
    endloop
  endfacet
  facet normal 0 1 0
    outer loop
    vertex -6.06386 9.25001 14.0638
    vertex -10.8 9.25001 4.5
    vertex -10.8 9.25001 19.732
    endloop
  endfacet
  facet normal 0 1 0
    outer loop
    vertex -10.8 9.25001 19.732
    vertex -23.5 9.25001 14.5
    vertex -3.5 9.25001 24.5
    endloop
  endfacet
  facet normal 0 1 0
    outer loop
    vertex -10.8 9.25001 19.732
    vertex -3.5 9.25001 24.5
    vertex -4.10054 9.25001 17.0689
    endloop
  endfacet
  facet normal 0 1 0
    outer loop
    vertex -4.51449 9.25001 16.9268
    vertex -10.8 9.25001 19.732
    vertex -4.10054 9.25001 17.0689
    endloop
  endfacet
  facet normal 0 1 0
    outer loop
    vertex -6.06386 9.25001 14.0638
    vertex -10.8 9.25001 19.732
    vertex -6.1 9.25001 14.5
    endloop
  endfacet
  facet normal 0 1 0
    outer loop
    vertex -6.1 9.25001 14.5
    vertex -10.8 9.25001 19.732
    vertex -6.06386 9.25001 14.9362
    endloop
  endfacet
  facet normal 0 1 0
    outer loop
    vertex -6.06386 9.25001 14.9362
    vertex -10.8 9.25001 19.732
    vertex -5.95642 9.25001 15.3605
    endloop
  endfacet
  facet normal 0 1 0
    outer loop
    vertex -5.95642 9.25001 15.3605
    vertex -10.8 9.25001 19.732
    vertex -5.78061 9.25001 15.7613
    endloop
  endfacet
  facet normal 0 1 0
    outer loop
    vertex -5.78061 9.25001 15.7613
    vertex -10.8 9.25001 19.732
    vertex -5.54123 9.25001 16.1277
    endloop
  endfacet
  facet normal 0 1 0
    outer loop
    vertex -5.54123 9.25001 16.1277
    vertex -10.8 9.25001 19.732
    vertex -5.2448 9.25001 16.4497
    endloop
  endfacet
  facet normal 0 1 0
    outer loop
    vertex -5.2448 9.25001 16.4497
    vertex -10.8 9.25001 19.732
    vertex -4.89942 9.25001 16.7185
    endloop
  endfacet
  facet normal 0 1 0
    outer loop
    vertex -4.89942 9.25001 16.7185
    vertex -10.8 9.25001 19.732
    vertex -4.51449 9.25001 16.9268
    endloop
  endfacet
  facet normal -1 0 -0
    outer loop
    vertex -10.8 6.25 2
    vertex -10.8 9.25001 4.5
    vertex -10.8 10.75 2
    endloop
  endfacet
  facet normal -1 0 0
    outer loop
    vertex -10.8 10.75 2
    vertex -10.8 9.25001 4.5
    vertex -10.8 10.75 4.5
    endloop
  endfacet
  facet normal -0 0 1
    outer loop
    vertex 3.9 10.75 4.5
    vertex -10.8 10.75 4.5
    vertex -10.8 9.25001 4.5
    endloop
  endfacet
  facet normal 0 0 1
    outer loop
    vertex 3.9 10.75 4.5
    vertex -10.8 9.25001 4.5
    vertex 3.9 9.25001 4.5
    endloop
  endfacet
  facet normal 0 1 0
    outer loop
    vertex -3.23117 9.25001 11.8591
    vertex 3.9 9.25001 4.5
    vertex -10.8 9.25001 4.5
    endloop
  endfacet
  facet normal 0 1 0
    outer loop
    vertex -3.23117 9.25001 11.8591
    vertex -10.8 9.25001 4.5
    vertex -3.66884 9.25001 11.8591
    endloop
  endfacet
  facet normal 0 1 0
    outer loop
    vertex -3.66884 9.25001 11.8591
    vertex -10.8 9.25001 4.5
    vertex -4.10054 9.25001 11.9311
    endloop
  endfacet
  facet normal 0 1 0
    outer loop
    vertex -4.10054 9.25001 11.9311
    vertex -10.8 9.25001 4.5
    vertex -4.51449 9.25001 12.0732
    endloop
  endfacet
  facet normal 0 1 0
    outer loop
    vertex -4.51449 9.25001 12.0732
    vertex -10.8 9.25001 4.5
    vertex -4.89942 9.25001 12.2815
    endloop
  endfacet
  facet normal 0 1 0
    outer loop
    vertex -4.89942 9.25001 12.2815
    vertex -10.8 9.25001 4.5
    vertex -5.2448 9.25001 12.5503
    endloop
  endfacet
  facet normal 0 1 0
    outer loop
    vertex -5.2448 9.25001 12.5503
    vertex -10.8 9.25001 4.5
    vertex -5.54123 9.25001 12.8723
    endloop
  endfacet
  facet normal 0 1 0
    outer loop
    vertex -5.54123 9.25001 12.8723
    vertex -10.8 9.25001 4.5
    vertex -5.78061 9.25001 13.2387
    endloop
  endfacet
  facet normal 0 1 0
    outer loop
    vertex -5.78061 9.25001 13.2387
    vertex -10.8 9.25001 4.5
    vertex -5.95642 9.25001 13.6395
    endloop
  endfacet
  facet normal 0 1 0
    outer loop
    vertex -5.95642 9.25001 13.6395
    vertex -10.8 9.25001 4.5
    vertex -6.06386 9.25001 14.0638
    endloop
  endfacet
  facet normal 0 0 1
    outer loop
    vertex -10.8 6.25 2
    vertex -10.8 10.75 2
    vertex -19 6.25 2
    endloop
  endfacet
  facet normal 0 1 0
    outer loop
    vertex -10.8 6.25 2
    vertex -19 6.25 2
    vertex -19 6.25 4.5
    endloop
  endfacet
  facet normal 0 -1 0
    outer loop
    vertex -19 10.75 4.5
    vertex -10.8 10.75 2
    vertex -10.8 10.75 4.5
    endloop
  endfacet
  facet normal 0 -1 0
    outer loop
    vertex -19 10.75 2
    vertex -10.8 10.75 2
    vertex -19 10.75 4.5
    endloop
  endfacet
  facet normal 0 0 1
    outer loop
    vertex -19 6.25 2
    vertex -10.8 10.75 2
    vertex -19 10.75 2
    endloop
  endfacet
  facet normal 0 -0 1
    outer loop
    vertex -20.5 12.25 4.5
    vertex -19 10.75 4.5
    vertex -10.8 10.75 4.5
    endloop
  endfacet
  facet normal 0 -0 1
    outer loop
    vertex -20.5 12.25 4.5
    vertex -10.8 10.75 4.5
    vertex 3.9 10.75 4.5
    endloop
  endfacet
  facet normal 1 0 -0
    outer loop
    vertex -19 6.25 4.5
    vertex -19 10.75 2
    vertex -19 10.75 4.5
    endloop
  endfacet
  facet normal 1 0 0
    outer loop
    vertex -19 6.25 2
    vertex -19 10.75 2
    vertex -19 6.25 4.5
    endloop
  endfacet
  facet normal 0 -0 1
    outer loop
    vertex -21.5 9.25001 4.5
    vertex -19 6.25 4.5
    vertex -19 10.75 4.5
    endloop
  endfacet
  facet normal 0 0 1
    outer loop
    vertex -21.5 9.25001 4.5
    vertex -19 10.75 4.5
    vertex -23.5 9.25001 4.5
    endloop
  endfacet
  facet normal 0 0 1
    outer loop
    vertex -23.5 9.25001 4.5
    vertex -19 10.75 4.5
    vertex -20.5 12.25 4.5
    endloop
  endfacet
  facet normal 0 0 1
    outer loop
    vertex -21.5 6.25 4.5
    vertex -19 6.25 4.5
    vertex -21.5 9.25001 4.5
    endloop
  endfacet
  facet normal -0.707107 -0.707107 0
    outer loop
    vertex 12.6716 10.75 2
    vertex 14.1716 9.25001 2
    vertex 12.6716 10.75 4.5
    endloop
  endfacet
  facet normal 0 0 1
    outer loop
    vertex 14.5 -2.15192 2
    vertex 14.1716 9.25001 2
    vertex 12.6716 10.75 2
    endloop
  endfacet
  facet normal 0 -1 0
    outer loop
    vertex 3.9 10.75 4.5
    vertex 12.6716 10.75 2
    vertex 12.6716 10.75 4.5
    endloop
  endfacet
  facet normal 0 -1 0
    outer loop
    vertex 3.9 10.75 2
    vertex 12.6716 10.75 2
    vertex 3.9 10.75 4.5
    endloop
  endfacet
  facet normal -0 0 1
    outer loop
    vertex 12.6716 10.75 2
    vertex 3.9 10.75 2
    vertex 14.5 -2.15192 2
    endloop
  endfacet
  facet normal -0.707107 -0.707107 0
    outer loop
    vertex 12.6716 10.75 4.5
    vertex 14.1716 9.25001 2
    vertex 14.1716 9.25001 4.5
    endloop
  endfacet
  facet normal 0 -1 0
    outer loop
    vertex 14.1716 9.25001 2
    vertex 17 9.25001 2
    vertex 14.1716 9.25001 4.5
    endloop
  endfacet
  facet normal 0 0 1
    outer loop
    vertex 14.5 -2.15192 2
    vertex 17 9.25001 2
    vertex 14.1716 9.25001 2
    endloop
  endfacet
  facet normal 0 0 1
    outer loop
    vertex 17 9.25001 4.5
    vertex 12.6716 10.75 4.5
    vertex 14.1716 9.25001 4.5
    endloop
  endfacet
  facet normal 0 0 1
    outer loop
    vertex 14 12.25 4.5
    vertex 3.9 10.75 4.5
    vertex 12.6716 10.75 4.5
    endloop
  endfacet
  facet normal -0 0 1
    outer loop
    vertex 14 12.25 4.5
    vertex 12.6716 10.75 4.5
    vertex 17 9.25001 4.5
    endloop
  endfacet
  facet normal 0 -1 0
    outer loop
    vertex 14.1716 9.25001 4.5
    vertex 17 9.25001 2
    vertex 17 9.25001 4.5
    endloop
  endfacet
  facet normal 1 0 -0
    outer loop
    vertex 3.9 9.25001 4.5
    vertex 3.9 10.75 2
    vertex 3.9 10.75 4.5
    endloop
  endfacet
  facet normal 1 0 0
    outer loop
    vertex 3.9 1.25 4
    vertex 3.9 10.75 2
    vertex 3.9 9.25001 4.5
    endloop
  endfacet
  facet normal 1 0 0
    outer loop
    vertex 3.9 1.25 4
    vertex 3.9 -9.25 2
    vertex 3.9 10.75 2
    endloop
  endfacet
  facet normal 0 0 1
    outer loop
    vertex 3.9 10.75 2
    vertex 3.9 -9.25 2
    vertex 13 -4.75 2
    endloop
  endfacet
  facet normal 0 0 1
    outer loop
    vertex 14.5 -2.15192 2
    vertex 3.9 10.75 2
    vertex 13 -4.75 2
    endloop
  endfacet
  facet normal 0 -0 1
    outer loop
    vertex -20.5 12.25 4.5
    vertex 3.9 10.75 4.5
    vertex 14 12.25 4.5
    endloop
  endfacet
  facet normal 0 0 1
    outer loop
    vertex 17.5 -2.15192 2
    vertex 23.5 2.75 2
    vertex 17 9.25001 2
    endloop
  endfacet
  facet normal 0 0 1
    outer loop
    vertex 17.5 -2.15192 2
    vertex 17 9.25001 2
    vertex 14.5 -2.15192 2
    endloop
  endfacet
  facet normal 0 1 0
    outer loop
    vertex -0.800002 9.25001 14.5
    vertex 3.9 9.25001 24.5
    vertex 3.9 9.25001 4.5
    endloop
  endfacet
  facet normal 0 1 0
    outer loop
    vertex -0.800002 9.25001 14.5
    vertex 3.9 9.25001 4.5
    vertex -0.836146 9.25001 14.0638
    endloop
  endfacet
  facet normal 0 1 0
    outer loop
    vertex -0.836146 9.25001 14.0638
    vertex 3.9 9.25001 4.5
    vertex -0.943587 9.25001 13.6395
    endloop
  endfacet
  facet normal 0 1 0
    outer loop
    vertex -0.943587 9.25001 13.6395
    vertex 3.9 9.25001 4.5
    vertex -1.1194 9.25001 13.2387
    endloop
  endfacet
  facet normal 0 1 0
    outer loop
    vertex -1.1194 9.25001 13.2387
    vertex 3.9 9.25001 4.5
    vertex -1.35878 9.25001 12.8723
    endloop
  endfacet
  facet normal 0 1 0
    outer loop
    vertex -1.35878 9.25001 12.8723
    vertex 3.9 9.25001 4.5
    vertex -1.65521 9.25001 12.5503
    endloop
  endfacet
  facet normal 0 1 0
    outer loop
    vertex -1.65521 9.25001 12.5503
    vertex 3.9 9.25001 4.5
    vertex -2.00059 9.25001 12.2815
    endloop
  endfacet
  facet normal 0 1 0
    outer loop
    vertex -2.00059 9.25001 12.2815
    vertex 3.9 9.25001 4.5
    vertex -2.38551 9.25001 12.0732
    endloop
  endfacet
  facet normal 0 1 0
    outer loop
    vertex -2.38551 9.25001 12.0732
    vertex 3.9 9.25001 4.5
    vertex -2.79947 9.25001 11.9311
    endloop
  endfacet
  facet normal 0 1 0
    outer loop
    vertex -2.79947 9.25001 11.9311
    vertex 3.9 9.25001 4.5
    vertex -3.23117 9.25001 11.8591
    endloop
  endfacet
  facet normal -0.447214 0 0.894427
    outer loop
    vertex -3.5 7.25 24.5
    vertex -3.5 9.25001 24.5
    vertex -8.8 7.25 21.85
    endloop
  endfacet
  facet normal 0 0 1
    outer loop
    vertex -3.5 7.25 24.5
    vertex 1.9 7.25 24.5
    vertex -3.5 9.25001 24.5
    endloop
  endfacet
  facet normal 0 -1 0
    outer loop
    vertex -8.8 7.25 21.85
    vertex -4.51449 7.25 16.9268
    vertex -3.5 7.25 24.5
    endloop
  endfacet
  facet normal 0 -1 0
    outer loop
    vertex -3.5 7.25 24.5
    vertex -4.51449 7.25 16.9268
    vertex -4.10054 7.25 17.0689
    endloop
  endfacet
  facet normal 0 -1 0
    outer loop
    vertex -3.5 7.25 24.5
    vertex -4.10054 7.25 17.0689
    vertex -3.66884 7.25 17.1409
    endloop
  endfacet
  facet normal 0 -1 -0
    outer loop
    vertex -3.23117 7.25 17.1409
    vertex -3.5 7.25 24.5
    vertex -3.66884 7.25 17.1409
    endloop
  endfacet
  facet normal 0 -1 0
    outer loop
    vertex -2.79947 7.25 17.0689
    vertex -3.5 7.25 24.5
    vertex -3.23117 7.25 17.1409
    endloop
  endfacet
  facet normal 0 -1 0
    outer loop
    vertex -2.38551 7.25 16.9268
    vertex -3.5 7.25 24.5
    vertex -2.79947 7.25 17.0689
    endloop
  endfacet
  facet normal 0 -1 0
    outer loop
    vertex -2.00059 7.25 16.7185
    vertex -3.5 7.25 24.5
    vertex -2.38551 7.25 16.9268
    endloop
  endfacet
  facet normal -0 -1 0
    outer loop
    vertex -2.00059 7.25 16.7185
    vertex 1.9 7.25 24.5
    vertex -3.5 7.25 24.5
    endloop
  endfacet
  facet normal -0.447214 -8.52992e-007 0.894427
    outer loop
    vertex -8.8 7.25 21.85
    vertex -3.5 9.25001 24.5
    vertex -23.5 9.25001 14.5
    endloop
  endfacet
  facet normal 0 1 0
    outer loop
    vertex -4.10054 9.25001 17.0689
    vertex -3.5 9.25001 24.5
    vertex -3.66884 9.25001 17.1409
    endloop
  endfacet
  facet normal 0 1 0
    outer loop
    vertex -3.66884 9.25001 17.1409
    vertex -3.5 9.25001 24.5
    vertex -3.23117 9.25001 17.1409
    endloop
  endfacet
  facet normal 0 1 0
    outer loop
    vertex -3.23117 9.25001 17.1409
    vertex -3.5 9.25001 24.5
    vertex -2.79947 9.25001 17.0689
    endloop
  endfacet
  facet normal 0 1 0
    outer loop
    vertex -2.79947 9.25001 17.0689
    vertex -3.5 9.25001 24.5
    vertex -2.38551 9.25001 16.9268
    endloop
  endfacet
  facet normal -0 1 0
    outer loop
    vertex -2.38551 9.25001 16.9268
    vertex -3.5 9.25001 24.5
    vertex 3.9 9.25001 24.5
    endloop
  endfacet
  facet normal 0 -0 1
    outer loop
    vertex -3.5 9.25001 24.5
    vertex 1.9 7.25 24.5
    vertex 3.9 9.25001 24.5
    endloop
  endfacet
  facet normal 0 -1 0
    outer loop
    vertex -8.8 7.25 21.85
    vertex -5.78061 7.25 15.7613
    vertex -5.54123 7.25 16.1277
    endloop
  endfacet
  facet normal -0 -1 0
    outer loop
    vertex -8.8 7.25 14.5
    vertex -5.78061 7.25 15.7613
    vertex -8.8 7.25 21.85
    endloop
  endfacet
  facet normal 0 -1 0
    outer loop
    vertex -8.8 7.25 21.85
    vertex -5.54123 7.25 16.1277
    vertex -5.2448 7.25 16.4497
    endloop
  endfacet
  facet normal -0 -1 0
    outer loop
    vertex -5.2448 7.25 16.4497
    vertex -4.89942 7.25 16.7185
    vertex -8.8 7.25 21.85
    endloop
  endfacet
  facet normal 0 -1 0
    outer loop
    vertex -8.8 7.25 21.85
    vertex -4.89942 7.25 16.7185
    vertex -4.51449 7.25 16.9268
    endloop
  endfacet
  facet normal 0.164591 0 -0.986362
    outer loop
    vertex -3.66884 7.25 17.1409
    vertex -4.10054 9.25001 17.0689
    vertex -3.66884 9.25001 17.1409
    endloop
  endfacet
  facet normal 0.324703 0 -0.945816
    outer loop
    vertex -4.10054 7.25 17.0689
    vertex -4.51449 9.25001 16.9268
    vertex -4.10054 9.25001 17.0689
    endloop
  endfacet
  facet normal 0.164591 0 -0.986362
    outer loop
    vertex -4.10054 7.25 17.0689
    vertex -4.10054 9.25001 17.0689
    vertex -3.66884 7.25 17.1409
    endloop
  endfacet
  facet normal 0 0 -1
    outer loop
    vertex -3.23117 7.25 17.1409
    vertex -3.66884 9.25001 17.1409
    vertex -3.23117 9.25001 17.1409
    endloop
  endfacet
  facet normal 0 0 -1
    outer loop
    vertex -3.66884 7.25 17.1409
    vertex -3.66884 9.25001 17.1409
    vertex -3.23117 7.25 17.1409
    endloop
  endfacet
  facet normal -0.164591 0 -0.986362
    outer loop
    vertex -2.79947 7.25 17.0689
    vertex -3.23117 9.25001 17.1409
    vertex -2.79947 9.25001 17.0689
    endloop
  endfacet
  facet normal -0.164591 -0 -0.986362
    outer loop
    vertex -3.23117 7.25 17.1409
    vertex -3.23117 9.25001 17.1409
    vertex -2.79947 7.25 17.0689
    endloop
  endfacet
  facet normal -0.324704 0 -0.945816
    outer loop
    vertex -2.38551 7.25 16.9268
    vertex -2.79947 9.25001 17.0689
    vertex -2.38551 9.25001 16.9268
    endloop
  endfacet
  facet normal -0.324704 -0 -0.945816
    outer loop
    vertex -2.79947 7.25 17.0689
    vertex -2.79947 9.25001 17.0689
    vertex -2.38551 7.25 16.9268
    endloop
  endfacet
  facet normal 0 1 0
    outer loop
    vertex -2.38551 9.25001 16.9268
    vertex 3.9 9.25001 24.5
    vertex -2.00059 9.25001 16.7185
    endloop
  endfacet
  facet normal -0.475946 0 -0.879475
    outer loop
    vertex -2.00059 7.25 16.7185
    vertex -2.38551 9.25001 16.9268
    vertex -2.00059 9.25001 16.7185
    endloop
  endfacet
  facet normal -0.475946 -0 -0.879475
    outer loop
    vertex -2.38551 7.25 16.9268
    vertex -2.38551 9.25001 16.9268
    vertex -2.00059 7.25 16.7185
    endloop
  endfacet
  facet normal 0 1 0
    outer loop
    vertex -2.00059 9.25001 16.7185
    vertex 3.9 9.25001 24.5
    vertex -1.65521 9.25001 16.4497
    endloop
  endfacet
  facet normal 0 1 0
    outer loop
    vertex -1.65521 9.25001 16.4497
    vertex 3.9 9.25001 24.5
    vertex -1.35878 9.25001 16.1277
    endloop
  endfacet
  facet normal 0 1 0
    outer loop
    vertex -1.35878 9.25001 16.1277
    vertex 3.9 9.25001 24.5
    vertex -1.1194 9.25001 15.7613
    endloop
  endfacet
  facet normal 0 1 0
    outer loop
    vertex -1.1194 9.25001 15.7613
    vertex 3.9 9.25001 24.5
    vertex -0.943587 9.25001 15.3605
    endloop
  endfacet
  facet normal 0 1 0
    outer loop
    vertex -0.943587 9.25001 15.3605
    vertex 3.9 9.25001 24.5
    vertex -0.836146 9.25001 14.9362
    endloop
  endfacet
  facet normal 0 1 0
    outer loop
    vertex -0.836146 9.25001 14.9362
    vertex 3.9 9.25001 24.5
    vertex -0.800002 9.25001 14.5
    endloop
  endfacet
  facet normal -0.614215 0 -0.789139
    outer loop
    vertex -1.65521 7.25 16.4497
    vertex -2.00059 9.25001 16.7185
    vertex -1.65521 9.25001 16.4497
    endloop
  endfacet
  facet normal -0.614215 -0 -0.789139
    outer loop
    vertex -2.00059 7.25 16.7185
    vertex -2.00059 9.25001 16.7185
    vertex -1.65521 7.25 16.4497
    endloop
  endfacet
  facet normal -0.735721 0 -0.677284
    outer loop
    vertex -1.35878 7.25 16.1277
    vertex -1.65521 9.25001 16.4497
    vertex -1.35878 9.25001 16.1277
    endloop
  endfacet
  facet normal -0.735721 -0 -0.677284
    outer loop
    vertex -1.65521 7.25 16.4497
    vertex -1.65521 9.25001 16.4497
    vertex -1.35878 7.25 16.1277
    endloop
  endfacet
  facet normal -0.837165 0 -0.54695
    outer loop
    vertex -1.1194 7.25 15.7613
    vertex -1.35878 9.25001 16.1277
    vertex -1.1194 9.25001 15.7613
    endloop
  endfacet
  facet normal -0.837165 -0 -0.54695
    outer loop
    vertex -1.35878 7.25 16.1277
    vertex -1.35878 9.25001 16.1277
    vertex -1.1194 7.25 15.7613
    endloop
  endfacet
  facet normal -0.915774 0 -0.401694
    outer loop
    vertex -0.943587 7.25 15.3605
    vertex -1.1194 9.25001 15.7613
    vertex -0.943587 9.25001 15.3605
    endloop
  endfacet
  facet normal -0.915774 -0 -0.401694
    outer loop
    vertex -1.1194 7.25 15.7613
    vertex -1.1194 9.25001 15.7613
    vertex -0.943587 7.25 15.3605
    endloop
  endfacet
  facet normal -0.969401 0 -0.245484
    outer loop
    vertex -0.836146 7.25 14.9362
    vertex -0.943587 9.25001 15.3605
    vertex -0.836146 9.25001 14.9362
    endloop
  endfacet
  facet normal -0.969401 -0 -0.245484
    outer loop
    vertex -0.943587 7.25 15.3605
    vertex -0.943587 9.25001 15.3605
    vertex -0.836146 7.25 14.9362
    endloop
  endfacet
  facet normal -0.996584 0 -0.0825831
    outer loop
    vertex -0.800002 7.25 14.5
    vertex -0.836146 9.25001 14.9362
    vertex -0.800002 9.25001 14.5
    endloop
  endfacet
  facet normal -0.996584 -0 -0.0825831
    outer loop
    vertex -0.836146 7.25 14.9362
    vertex -0.836146 9.25001 14.9362
    vertex -0.800002 7.25 14.5
    endloop
  endfacet
  facet normal -0.996584 0 0.0825835
    outer loop
    vertex -0.836146 7.25 14.0638
    vertex -0.800002 9.25001 14.5
    vertex -0.836146 9.25001 14.0638
    endloop
  endfacet
  facet normal -0.996584 0 0.0825835
    outer loop
    vertex -0.800002 7.25 14.5
    vertex -0.800002 9.25001 14.5
    vertex -0.836146 7.25 14.0638
    endloop
  endfacet
  facet normal -0.969401 0 0.245483
    outer loop
    vertex -0.943587 7.25 13.6395
    vertex -0.836146 9.25001 14.0638
    vertex -0.943587 9.25001 13.6395
    endloop
  endfacet
  facet normal -0.969401 0 0.245483
    outer loop
    vertex -0.836146 7.25 14.0638
    vertex -0.836146 9.25001 14.0638
    vertex -0.943587 7.25 13.6395
    endloop
  endfacet
  facet normal -0.915773 0 0.401695
    outer loop
    vertex -1.1194 7.25 13.2387
    vertex -0.943587 9.25001 13.6395
    vertex -1.1194 9.25001 13.2387
    endloop
  endfacet
  facet normal -0.915773 0 0.401695
    outer loop
    vertex -0.943587 7.25 13.6395
    vertex -0.943587 9.25001 13.6395
    vertex -1.1194 7.25 13.2387
    endloop
  endfacet
  facet normal -0.837165 0 0.54695
    outer loop
    vertex -1.35878 7.25 12.8723
    vertex -1.1194 9.25001 13.2387
    vertex -1.35878 9.25001 12.8723
    endloop
  endfacet
  facet normal -0.837165 0 0.54695
    outer loop
    vertex -1.1194 7.25 13.2387
    vertex -1.1194 9.25001 13.2387
    vertex -1.35878 7.25 12.8723
    endloop
  endfacet
  facet normal -0.735721 0 0.677284
    outer loop
    vertex -1.65521 7.25 12.5503
    vertex -1.35878 9.25001 12.8723
    vertex -1.65521 9.25001 12.5503
    endloop
  endfacet
  facet normal -0.735721 0 0.677284
    outer loop
    vertex -1.35878 7.25 12.8723
    vertex -1.35878 9.25001 12.8723
    vertex -1.65521 7.25 12.5503
    endloop
  endfacet
  facet normal -0.614215 0 0.789139
    outer loop
    vertex -2.00059 7.25 12.2815
    vertex -1.65521 9.25001 12.5503
    vertex -2.00059 9.25001 12.2815
    endloop
  endfacet
  facet normal -0.614215 0 0.789139
    outer loop
    vertex -1.65521 7.25 12.5503
    vertex -1.65521 9.25001 12.5503
    vertex -2.00059 7.25 12.2815
    endloop
  endfacet
  facet normal -0.475948 0 0.879474
    outer loop
    vertex -2.38551 7.25 12.0732
    vertex -2.00059 9.25001 12.2815
    vertex -2.38551 9.25001 12.0732
    endloop
  endfacet
  facet normal -0.475948 0 0.879474
    outer loop
    vertex -2.00059 7.25 12.2815
    vertex -2.00059 9.25001 12.2815
    vertex -2.38551 7.25 12.0732
    endloop
  endfacet
  facet normal -0.324702 0 0.945816
    outer loop
    vertex -2.79947 7.25 11.9311
    vertex -2.38551 9.25001 12.0732
    vertex -2.79947 9.25001 11.9311
    endloop
  endfacet
  facet normal -0.324702 0 0.945816
    outer loop
    vertex -2.38551 7.25 12.0732
    vertex -2.38551 9.25001 12.0732
    vertex -2.79947 7.25 11.9311
    endloop
  endfacet
  facet normal -0.164595 0 0.986361
    outer loop
    vertex -3.23117 7.25 11.8591
    vertex -2.79947 9.25001 11.9311
    vertex -3.23117 9.25001 11.8591
    endloop
  endfacet
  facet normal -0.164595 0 0.986361
    outer loop
    vertex -2.79947 7.25 11.9311
    vertex -2.79947 9.25001 11.9311
    vertex -3.23117 7.25 11.8591
    endloop
  endfacet
  facet normal 0 0 1
    outer loop
    vertex -3.66884 7.25 11.8591
    vertex -3.23117 9.25001 11.8591
    vertex -3.66884 9.25001 11.8591
    endloop
  endfacet
  facet normal 0 0 1
    outer loop
    vertex -3.23117 7.25 11.8591
    vertex -3.23117 9.25001 11.8591
    vertex -3.66884 7.25 11.8591
    endloop
  endfacet
  facet normal 0.164596 0 0.986361
    outer loop
    vertex -4.10054 7.25 11.9311
    vertex -3.66884 9.25001 11.8591
    vertex -4.10054 9.25001 11.9311
    endloop
  endfacet
  facet normal 0.164596 0 0.986361
    outer loop
    vertex -3.66884 7.25 11.8591
    vertex -3.66884 9.25001 11.8591
    vertex -4.10054 7.25 11.9311
    endloop
  endfacet
  facet normal 0.324701 0 0.945817
    outer loop
    vertex -4.51449 7.25 12.0732
    vertex -4.10054 9.25001 11.9311
    vertex -4.51449 9.25001 12.0732
    endloop
  endfacet
  facet normal 0.324701 0 0.945817
    outer loop
    vertex -4.10054 7.25 11.9311
    vertex -4.10054 9.25001 11.9311
    vertex -4.51449 7.25 12.0732
    endloop
  endfacet
  facet normal 0.475946 0 0.879474
    outer loop
    vertex -4.89942 7.25 12.2815
    vertex -4.51449 9.25001 12.0732
    vertex -4.89942 9.25001 12.2815
    endloop
  endfacet
  facet normal 0.475946 0 0.879474
    outer loop
    vertex -4.51449 7.25 12.0732
    vertex -4.51449 9.25001 12.0732
    vertex -4.89942 7.25 12.2815
    endloop
  endfacet
  facet normal 0.614214 0 0.78914
    outer loop
    vertex -5.2448 7.25 12.5503
    vertex -4.89942 9.25001 12.2815
    vertex -5.2448 9.25001 12.5503
    endloop
  endfacet
  facet normal 0.614214 0 0.78914
    outer loop
    vertex -4.89942 7.25 12.2815
    vertex -4.89942 9.25001 12.2815
    vertex -5.2448 7.25 12.5503
    endloop
  endfacet
  facet normal 0.735724 0 0.677281
    outer loop
    vertex -5.54123 7.25 12.8723
    vertex -5.2448 9.25001 12.5503
    vertex -5.54123 9.25001 12.8723
    endloop
  endfacet
  facet normal 0.735724 0 0.677281
    outer loop
    vertex -5.2448 7.25 12.5503
    vertex -5.2448 9.25001 12.5503
    vertex -5.54123 7.25 12.8723
    endloop
  endfacet
  facet normal 0.837166 0 0.546949
    outer loop
    vertex -5.78061 7.25 13.2387
    vertex -5.54123 9.25001 12.8723
    vertex -5.78061 9.25001 13.2387
    endloop
  endfacet
  facet normal 0.837166 0 0.546949
    outer loop
    vertex -5.54123 7.25 12.8723
    vertex -5.54123 9.25001 12.8723
    vertex -5.78061 7.25 13.2387
    endloop
  endfacet
  facet normal 0.915773 0 0.401695
    outer loop
    vertex -5.95642 7.25 13.6395
    vertex -5.78061 9.25001 13.2387
    vertex -5.95642 9.25001 13.6395
    endloop
  endfacet
  facet normal 0.915773 0 0.401695
    outer loop
    vertex -5.78061 7.25 13.2387
    vertex -5.78061 9.25001 13.2387
    vertex -5.95642 7.25 13.6395
    endloop
  endfacet
  facet normal 0.9694 0 0.245488
    outer loop
    vertex -6.06386 7.25 14.0638
    vertex -5.95642 9.25001 13.6395
    vertex -6.06386 9.25001 14.0638
    endloop
  endfacet
  facet normal 0.9694 0 0.245488
    outer loop
    vertex -5.95642 7.25 13.6395
    vertex -5.95642 9.25001 13.6395
    vertex -6.06386 7.25 14.0638
    endloop
  endfacet
  facet normal 0.996585 0 0.0825781
    outer loop
    vertex -6.1 7.25 14.5
    vertex -6.06386 9.25001 14.0638
    vertex -6.1 9.25001 14.5
    endloop
  endfacet
  facet normal 0.996585 0 0.0825781
    outer loop
    vertex -6.06386 7.25 14.0638
    vertex -6.06386 9.25001 14.0638
    vertex -6.1 7.25 14.5
    endloop
  endfacet
  facet normal 0.996585 0 -0.0825777
    outer loop
    vertex -6.06386 7.25 14.9362
    vertex -6.1 9.25001 14.5
    vertex -6.06386 9.25001 14.9362
    endloop
  endfacet
  facet normal 0.996585 0 -0.0825777
    outer loop
    vertex -6.1 7.25 14.5
    vertex -6.1 9.25001 14.5
    vertex -6.06386 7.25 14.9362
    endloop
  endfacet
  facet normal 0.969399 0 -0.245489
    outer loop
    vertex -5.95642 7.25 15.3605
    vertex -6.06386 9.25001 14.9362
    vertex -5.95642 9.25001 15.3605
    endloop
  endfacet
  facet normal 0.969399 0 -0.245489
    outer loop
    vertex -6.06386 7.25 14.9362
    vertex -6.06386 9.25001 14.9362
    vertex -5.95642 7.25 15.3605
    endloop
  endfacet
  facet normal 0.915774 0 -0.401694
    outer loop
    vertex -5.78061 7.25 15.7613
    vertex -5.95642 9.25001 15.3605
    vertex -5.78061 9.25001 15.7613
    endloop
  endfacet
  facet normal 0.915774 0 -0.401694
    outer loop
    vertex -5.95642 7.25 15.3605
    vertex -5.95642 9.25001 15.3605
    vertex -5.78061 7.25 15.7613
    endloop
  endfacet
  facet normal 0.837166 0 -0.546949
    outer loop
    vertex -5.54123 7.25 16.1277
    vertex -5.78061 9.25001 15.7613
    vertex -5.54123 9.25001 16.1277
    endloop
  endfacet
  facet normal 0.837166 0 -0.546949
    outer loop
    vertex -5.78061 7.25 15.7613
    vertex -5.78061 9.25001 15.7613
    vertex -5.54123 7.25 16.1277
    endloop
  endfacet
  facet normal 0.735724 0 -0.677281
    outer loop
    vertex -5.2448 7.25 16.4497
    vertex -5.54123 9.25001 16.1277
    vertex -5.2448 9.25001 16.4497
    endloop
  endfacet
  facet normal 0.735724 0 -0.677281
    outer loop
    vertex -5.54123 7.25 16.1277
    vertex -5.54123 9.25001 16.1277
    vertex -5.2448 7.25 16.4497
    endloop
  endfacet
  facet normal 0.614214 0 -0.78914
    outer loop
    vertex -4.89942 7.25 16.7185
    vertex -5.2448 9.25001 16.4497
    vertex -4.89942 9.25001 16.7185
    endloop
  endfacet
  facet normal 0.614214 0 -0.78914
    outer loop
    vertex -5.2448 7.25 16.4497
    vertex -5.2448 9.25001 16.4497
    vertex -4.89942 7.25 16.7185
    endloop
  endfacet
  facet normal 0.475945 0 -0.879475
    outer loop
    vertex -4.51449 7.25 16.9268
    vertex -4.89942 9.25001 16.7185
    vertex -4.51449 9.25001 16.9268
    endloop
  endfacet
  facet normal 0.475945 0 -0.879475
    outer loop
    vertex -4.89942 7.25 16.7185
    vertex -4.89942 9.25001 16.7185
    vertex -4.51449 7.25 16.9268
    endloop
  endfacet
  facet normal 0.324703 0 -0.945816
    outer loop
    vertex -4.51449 7.25 16.9268
    vertex -4.51449 9.25001 16.9268
    vertex -4.10054 7.25 17.0689
    endloop
  endfacet
  facet normal -0.707107 -0.707107 -0
    outer loop
    vertex 3.9 -9.25 2
    vertex 3.9 -9.25 4
    vertex 1.9 -7.25 4
    endloop
  endfacet
  facet normal 0 0 1
    outer loop
    vertex 3.9 -9.25 4
    vertex 3.9 1.25 4
    vertex 1.9 -7.25 4
    endloop
  endfacet
  facet normal 0 0 1
    outer loop
    vertex 1.9 -7.25 4
    vertex 3.9 1.25 4
    vertex 1.9 -0.249995 4
    endloop
  endfacet
  facet normal -0 0 1
    outer loop
    vertex 13 -4.75 2
    vertex 3.9 -9.25 2
    vertex 6.9 -12.25 2
    endloop
  endfacet
  facet normal 1 0 0
    outer loop
    vertex 3.9 -9.25 4
    vertex 3.9 -9.25 2
    vertex 3.9 1.25 4
    endloop
  endfacet
  facet normal 0 0 1
    outer loop
    vertex 13 -4.75 2
    vertex 6.9 -12.25 2
    vertex 14.5 -7.34807 2
    endloop
  endfacet
  facet normal 0 0 1
    outer loop
    vertex 14.5 -7.34807 2
    vertex 6.9 -12.25 2
    vertex 18.5 -12.25 2
    endloop
  endfacet
  facet normal 0 -1 0
    outer loop
    vertex 1.9 1.25 10
    vertex 3.9 1.25 4
    vertex 3.9 1.25 10
    endloop
  endfacet
  facet normal 0 0 1
    outer loop
    vertex 1.9 -0.249995 4
    vertex 3.9 1.25 4
    vertex 1.9 1.25 4
    endloop
  endfacet
  facet normal 0 -1 0
    outer loop
    vertex 1.9 1.25 4
    vertex 3.9 1.25 4
    vertex 1.9 1.25 10
    endloop
  endfacet
  facet normal -0.866026 -0.5 0
    outer loop
    vertex 13 -4.75 2
    vertex 14.5 -7.34807 2
    vertex 13 -4.75 4.9
    endloop
  endfacet
  facet normal -0.866026 0.5 0
    outer loop
    vertex 14.5 -2.15192 2
    vertex 13 -4.75 2
    vertex 14.5 -2.15192 4.9
    endloop
  endfacet
  facet normal -0.866026 0.5 0
    outer loop
    vertex 14.5 -2.15192 4.9
    vertex 13 -4.75 2
    vertex 13 -4.75 4.9
    endloop
  endfacet
  facet normal 0 0 1
    outer loop
    vertex 14.5 -7.34807 2
    vertex 18.5 -12.25 2
    vertex 17.5 -7.34807 2
    endloop
  endfacet
  facet normal 0 -1 0
    outer loop
    vertex 14.5 -7.34807 2
    vertex 17.5 -7.34807 2
    vertex 14.5 -7.34807 4.9
    endloop
  endfacet
  facet normal -0.866026 -0.5 0
    outer loop
    vertex 13 -4.75 4.9
    vertex 14.5 -7.34807 2
    vertex 14.5 -7.34807 4.9
    endloop
  endfacet
  facet normal 0 -0 1
    outer loop
    vertex 17.5 -7.34807 2
    vertex 18.5 -12.25 2
    vertex 23.5 -7.25 2
    endloop
  endfacet
  facet normal 0 0 1
    outer loop
    vertex 17.5 -7.34807 2
    vertex 23.5 -7.25 2
    vertex 19 -4.75 2
    endloop
  endfacet
  facet normal 0.866025 -0.5 0
    outer loop
    vertex 17.5 -7.34807 2
    vertex 19 -4.75 2
    vertex 17.5 -7.34807 4.9
    endloop
  endfacet
  facet normal 0 -1 0
    outer loop
    vertex 14.5 -7.34807 4.9
    vertex 17.5 -7.34807 2
    vertex 17.5 -7.34807 4.9
    endloop
  endfacet
  facet normal 0 -0 1
    outer loop
    vertex 19 -4.75 2
    vertex 23.5 -7.25 2
    vertex 23.5 2.75 2
    endloop
  endfacet
  facet normal 0 0 1
    outer loop
    vertex 19 -4.75 2
    vertex 23.5 2.75 2
    vertex 17.5 -2.15192 2
    endloop
  endfacet
  facet normal 0.866025 0.5 0
    outer loop
    vertex 19 -4.75 2
    vertex 17.5 -2.15192 2
    vertex 19 -4.75 4.9
    endloop
  endfacet
  facet normal 0.866025 -0.5 0
    outer loop
    vertex 17.5 -7.34807 4.9
    vertex 19 -4.75 2
    vertex 19 -4.75 4.9
    endloop
  endfacet
  facet normal 0 1 0
    outer loop
    vertex 17.5 -2.15192 2
    vertex 14.5 -2.15192 2
    vertex 17.5 -2.15192 4.9
    endloop
  endfacet
  facet normal 0.866025 0.5 -0
    outer loop
    vertex 19 -4.75 4.9
    vertex 17.5 -2.15192 2
    vertex 17.5 -2.15192 4.9
    endloop
  endfacet
  facet normal 0 1 0
    outer loop
    vertex 17.5 -2.15192 4.9
    vertex 14.5 -2.15192 2
    vertex 14.5 -2.15192 4.9
    endloop
  endfacet
  facet normal 0 -1 0
    outer loop
    vertex -6.1 7.25 14.5
    vertex -8.76383 7.25 13.8789
    vertex -6.06386 7.25 14.0638
    endloop
  endfacet
  facet normal 0 -1 0
    outer loop
    vertex -6.06386 7.25 14.0638
    vertex -8.23094 7.25 12.0989
    vertex -5.95642 7.25 13.6395
    endloop
  endfacet
  facet normal 0 -1 0
    outer loop
    vertex -6.06386 7.25 14.0638
    vertex -8.76383 7.25 13.8789
    vertex -8.65579 7.25 13.2662
    endloop
  endfacet
  facet normal 0 -1 0
    outer loop
    vertex -6.06386 7.25 14.0638
    vertex -8.65579 7.25 13.2662
    vertex -8.47736 7.25 12.6702
    endloop
  endfacet
  facet normal 0 -1 0
    outer loop
    vertex -8.47736 7.25 12.6702
    vertex -8.23094 7.25 12.0989
    vertex -6.06386 7.25 14.0638
    endloop
  endfacet
  facet normal 0 -1 0
    outer loop
    vertex -8.8 7.25 14.5
    vertex -6.1 7.25 14.5
    vertex -6.06386 7.25 14.9362
    endloop
  endfacet
  facet normal -0 -1 0
    outer loop
    vertex -8.76383 7.25 13.8789
    vertex -6.1 7.25 14.5
    vertex -8.8 7.25 14.5
    endloop
  endfacet
  facet normal -0 -1 0
    outer loop
    vertex -8.8 7.25 14.5
    vertex -6.06386 7.25 14.9362
    vertex -5.95642 7.25 15.3605
    endloop
  endfacet
  facet normal 0 -1 0
    outer loop
    vertex -5.95642 7.25 15.3605
    vertex -5.78061 7.25 15.7613
    vertex -8.8 7.25 14.5
    endloop
  endfacet
  facet normal 0 -1 0
    outer loop
    vertex -1.65521 7.25 16.4497
    vertex 1.9 7.25 24.5
    vertex -2.00059 7.25 16.7185
    endloop
  endfacet
  facet normal 0 -1 0
    outer loop
    vertex -1.35878 7.25 16.1277
    vertex 1.9 7.25 24.5
    vertex -1.65521 7.25 16.4497
    endloop
  endfacet
  facet normal 0 -1 0
    outer loop
    vertex -1.1194 7.25 15.7613
    vertex 1.9 7.25 14.5
    vertex -1.35878 7.25 16.1277
    endloop
  endfacet
  facet normal 0 -1 0
    outer loop
    vertex -1.35878 7.25 16.1277
    vertex 1.9 7.25 14.5
    vertex 1.9 7.25 24.5
    endloop
  endfacet
  facet normal 0 -1 0
    outer loop
    vertex -0.943587 7.25 15.3605
    vertex 1.9 7.25 14.5
    vertex -1.1194 7.25 15.7613
    endloop
  endfacet
  facet normal 0 -1 0
    outer loop
    vertex -0.836146 7.25 14.9362
    vertex 1.9 7.25 14.5
    vertex -0.943587 7.25 15.3605
    endloop
  endfacet
  facet normal 0 -1 0
    outer loop
    vertex -0.800002 7.25 14.5
    vertex 1.9 7.25 14.5
    vertex -0.836146 7.25 14.9362
    endloop
  endfacet
  facet normal 0 -1 0
    outer loop
    vertex -0.836146 7.25 14.0638
    vertex 1.86382 7.25 13.8789
    vertex -0.800002 7.25 14.5
    endloop
  endfacet
  facet normal 0 -1 0
    outer loop
    vertex -0.800002 7.25 14.5
    vertex 1.86382 7.25 13.8789
    vertex 1.9 7.25 14.5
    endloop
  endfacet
  facet normal 0 -1 0
    outer loop
    vertex -0.943587 7.25 13.6395
    vertex 1.33093 7.25 12.0989
    vertex -0.836146 7.25 14.0638
    endloop
  endfacet
  facet normal 0 -1 0
    outer loop
    vertex -0.836146 7.25 14.0638
    vertex 1.33093 7.25 12.0989
    vertex 1.57735 7.25 12.6702
    endloop
  endfacet
  facet normal 0 -1 0
    outer loop
    vertex -0.836146 7.25 14.0638
    vertex 1.57735 7.25 12.6702
    vertex 1.75579 7.25 13.2662
    endloop
  endfacet
  facet normal -0 -1 0
    outer loop
    vertex 1.75579 7.25 13.2662
    vertex 1.86382 7.25 13.8789
    vertex -0.836146 7.25 14.0638
    endloop
  endfacet
  facet normal 0 -1 0
    outer loop
    vertex -1.1194 7.25 13.2387
    vertex 0.648334 7.25 11.0611
    vertex -0.943587 7.25 13.6395
    endloop
  endfacet
  facet normal 0 -1 0
    outer loop
    vertex -0.943587 7.25 13.6395
    vertex 0.648334 7.25 11.0611
    vertex 1.01986 7.25 11.5601
    endloop
  endfacet
  facet normal 0 -1 0
    outer loop
    vertex -0.943587 7.25 13.6395
    vertex 1.01986 7.25 11.5601
    vertex 1.33093 7.25 12.0989
    endloop
  endfacet
  facet normal 0 -1 0
    outer loop
    vertex -1.35878 7.25 12.8723
    vertex 0.221391 7.25 10.6086
    vertex -1.1194 7.25 13.2387
    endloop
  endfacet
  facet normal 0 -1 0
    outer loop
    vertex -1.1194 7.25 13.2387
    vertex 0.221391 7.25 10.6086
    vertex 0.648334 7.25 11.0611
    endloop
  endfacet
  facet normal 0 -1 0
    outer loop
    vertex -1.65521 7.25 12.5503
    vertex -0.255206 7.25 10.2086
    vertex -1.35878 7.25 12.8723
    endloop
  endfacet
  facet normal 0 -1 0
    outer loop
    vertex -1.35878 7.25 12.8723
    vertex -0.255206 7.25 10.2086
    vertex 0.221391 7.25 10.6086
    endloop
  endfacet
  facet normal 0 -1 0
    outer loop
    vertex -2.00059 7.25 12.2815
    vertex -0.775003 7.25 9.86676
    vertex -1.65521 7.25 12.5503
    endloop
  endfacet
  facet normal 0 -1 0
    outer loop
    vertex -1.65521 7.25 12.5503
    vertex -0.775003 7.25 9.86676
    vertex -0.255206 7.25 10.2086
    endloop
  endfacet
  facet normal 0 -1 0
    outer loop
    vertex -2.38551 7.25 12.0732
    vertex -1.33098 7.25 9.58754
    vertex -2.00059 7.25 12.2815
    endloop
  endfacet
  facet normal 0 -1 0
    outer loop
    vertex -2.00059 7.25 12.2815
    vertex -1.33098 7.25 9.58754
    vertex -0.775003 7.25 9.86676
    endloop
  endfacet
  facet normal 0 -1 0
    outer loop
    vertex -2.79947 7.25 11.9311
    vertex -1.91561 7.25 9.37476
    vertex -2.38551 7.25 12.0732
    endloop
  endfacet
  facet normal 0 -1 0
    outer loop
    vertex -2.38551 7.25 12.0732
    vertex -1.91561 7.25 9.37476
    vertex -1.33098 7.25 9.58754
    endloop
  endfacet
  facet normal 0 -1 0
    outer loop
    vertex -3.23117 7.25 11.8591
    vertex -2.52099 7.25 9.23128
    vertex -2.79947 7.25 11.9311
    endloop
  endfacet
  facet normal 0 -1 0
    outer loop
    vertex -2.79947 7.25 11.9311
    vertex -2.52099 7.25 9.23128
    vertex -1.91561 7.25 9.37476
    endloop
  endfacet
  facet normal 0 -1 0
    outer loop
    vertex -3.66884 7.25 11.8591
    vertex -3.13893 7.25 9.15905
    vertex -3.23117 7.25 11.8591
    endloop
  endfacet
  facet normal 0 -1 0
    outer loop
    vertex -3.23117 7.25 11.8591
    vertex -3.13893 7.25 9.15905
    vertex -2.52099 7.25 9.23128
    endloop
  endfacet
  facet normal 0 -1 0
    outer loop
    vertex -4.10054 7.25 11.9311
    vertex -4.37902 7.25 9.23128
    vertex -3.66884 7.25 11.8591
    endloop
  endfacet
  facet normal 0 -1 0
    outer loop
    vertex -3.66884 7.25 11.8591
    vertex -4.37902 7.25 9.23128
    vertex -3.76108 7.25 9.15905
    endloop
  endfacet
  facet normal 0 -1 0
    outer loop
    vertex -3.66884 7.25 11.8591
    vertex -3.76108 7.25 9.15905
    vertex -3.13893 7.25 9.15905
    endloop
  endfacet
  facet normal 0 -1 0
    outer loop
    vertex -4.51449 7.25 12.0732
    vertex -4.9844 7.25 9.37476
    vertex -4.10054 7.25 11.9311
    endloop
  endfacet
  facet normal 0 -1 0
    outer loop
    vertex -4.10054 7.25 11.9311
    vertex -4.9844 7.25 9.37476
    vertex -4.37902 7.25 9.23128
    endloop
  endfacet
  facet normal 0 -1 0
    outer loop
    vertex -4.89942 7.25 12.2815
    vertex -5.56903 7.25 9.58754
    vertex -4.51449 7.25 12.0732
    endloop
  endfacet
  facet normal 0 -1 0
    outer loop
    vertex -4.51449 7.25 12.0732
    vertex -5.56903 7.25 9.58754
    vertex -4.9844 7.25 9.37476
    endloop
  endfacet
  facet normal 0 -1 0
    outer loop
    vertex -5.2448 7.25 12.5503
    vertex -6.125 7.25 9.86676
    vertex -4.89942 7.25 12.2815
    endloop
  endfacet
  facet normal 0 -1 0
    outer loop
    vertex -4.89942 7.25 12.2815
    vertex -6.125 7.25 9.86676
    vertex -5.56903 7.25 9.58754
    endloop
  endfacet
  facet normal 0 -1 0
    outer loop
    vertex -5.54123 7.25 12.8723
    vertex -6.6448 7.25 10.2086
    vertex -5.2448 7.25 12.5503
    endloop
  endfacet
  facet normal 0 -1 0
    outer loop
    vertex -5.2448 7.25 12.5503
    vertex -6.6448 7.25 10.2086
    vertex -6.125 7.25 9.86676
    endloop
  endfacet
  facet normal 0 -1 0
    outer loop
    vertex -5.78061 7.25 13.2387
    vertex -7.1214 7.25 10.6086
    vertex -5.54123 7.25 12.8723
    endloop
  endfacet
  facet normal 0 -1 0
    outer loop
    vertex -5.54123 7.25 12.8723
    vertex -7.1214 7.25 10.6086
    vertex -6.6448 7.25 10.2086
    endloop
  endfacet
  facet normal 0 -1 0
    outer loop
    vertex -5.95642 7.25 13.6395
    vertex -7.54834 7.25 11.0611
    vertex -5.78061 7.25 13.2387
    endloop
  endfacet
  facet normal 0 -1 0
    outer loop
    vertex -5.78061 7.25 13.2387
    vertex -7.54834 7.25 11.0611
    vertex -7.1214 7.25 10.6086
    endloop
  endfacet
  facet normal 0 -1 0
    outer loop
    vertex -5.95642 7.25 13.6395
    vertex -8.23094 7.25 12.0989
    vertex -7.91986 7.25 11.5601
    endloop
  endfacet
  facet normal 0 -1 0
    outer loop
    vertex -5.95642 7.25 13.6395
    vertex -7.91986 7.25 11.5601
    vertex -7.54834 7.25 11.0611
    endloop
  endfacet
  facet normal 0 -0 1
    outer loop
    vertex 17.0829 -5.55616 4.9
    vertex 17.5 -7.34807 4.9
    vertex 19 -4.75 4.9
    endloop
  endfacet
  facet normal 0 0 1
    outer loop
    vertex 16 -6.1 4.9
    vertex 14.5 -7.34807 4.9
    vertex 17.5 -7.34807 4.9
    endloop
  endfacet
  facet normal 0 0 1
    outer loop
    vertex 16 -6.1 4.9
    vertex 17.5 -7.34807 4.9
    vertex 16.3113 -6.06361 4.9
    endloop
  endfacet
  facet normal 0 0 1
    outer loop
    vertex 16.3113 -6.06361 4.9
    vertex 17.5 -7.34807 4.9
    vertex 16.6059 -5.9564 4.9
    endloop
  endfacet
  facet normal 0 0 1
    outer loop
    vertex 16.6059 -5.9564 4.9
    vertex 17.5 -7.34807 4.9
    vertex 16.8678 -5.78416 4.9
    endloop
  endfacet
  facet normal 0 0 1
    outer loop
    vertex 16.8678 -5.78416 4.9
    vertex 17.5 -7.34807 4.9
    vertex 17.0829 -5.55616 4.9
    endloop
  endfacet
  facet normal 0 0 1
    outer loop
    vertex 17.1691 -4.075 4.9
    vertex 19 -4.75 4.9
    vertex 17.5 -2.15192 4.9
    endloop
  endfacet
  facet normal 0 0 1
    outer loop
    vertex 17.0829 -5.55616 4.9
    vertex 19 -4.75 4.9
    vertex 17.2396 -5.2847 4.9
    endloop
  endfacet
  facet normal 0 0 1
    outer loop
    vertex 17.2396 -5.2847 4.9
    vertex 19 -4.75 4.9
    vertex 17.3295 -4.98442 4.9
    endloop
  endfacet
  facet normal 0 0 1
    outer loop
    vertex 17.3295 -4.98442 4.9
    vertex 19 -4.75 4.9
    vertex 17.3477 -4.6715 4.9
    endloop
  endfacet
  facet normal 0 0 1
    outer loop
    vertex 17.3477 -4.6715 4.9
    vertex 19 -4.75 4.9
    vertex 17.2933 -4.36281 4.9
    endloop
  endfacet
  facet normal 0 0 1
    outer loop
    vertex 17.2933 -4.36281 4.9
    vertex 19 -4.75 4.9
    vertex 17.1691 -4.075 4.9
    endloop
  endfacet
  facet normal 0 0 1
    outer loop
    vertex 14.9171 -5.55616 4.9
    vertex 13 -4.75 4.9
    vertex 14.5 -7.34807 4.9
    endloop
  endfacet
  facet normal 0 0 1
    outer loop
    vertex 15.6887 -6.06361 4.9
    vertex 14.5 -7.34807 4.9
    vertex 16 -6.1 4.9
    endloop
  endfacet
  facet normal 0 0 1
    outer loop
    vertex 15.3941 -5.9564 4.9
    vertex 14.5 -7.34807 4.9
    vertex 15.6887 -6.06361 4.9
    endloop
  endfacet
  facet normal 0 0 1
    outer loop
    vertex 14.9171 -5.55616 4.9
    vertex 14.5 -7.34807 4.9
    vertex 15.1322 -5.78416 4.9
    endloop
  endfacet
  facet normal 0 0 1
    outer loop
    vertex 15.1322 -5.78416 4.9
    vertex 14.5 -7.34807 4.9
    vertex 15.3941 -5.9564 4.9
    endloop
  endfacet
  facet normal 0 0 1
    outer loop
    vertex 14.8309 -4.075 4.9
    vertex 14.5 -2.15192 4.9
    vertex 13 -4.75 4.9
    endloop
  endfacet
  facet normal 0 0 1
    outer loop
    vertex 14.8309 -4.075 4.9
    vertex 13 -4.75 4.9
    vertex 14.7067 -4.36281 4.9
    endloop
  endfacet
  facet normal 0 0 1
    outer loop
    vertex 14.7067 -4.36281 4.9
    vertex 13 -4.75 4.9
    vertex 14.6523 -4.6715 4.9
    endloop
  endfacet
  facet normal -0 0 1
    outer loop
    vertex 14.6523 -4.6715 4.9
    vertex 13 -4.75 4.9
    vertex 14.6705 -4.98442 4.9
    endloop
  endfacet
  facet normal 0 0 1
    outer loop
    vertex 14.6705 -4.98442 4.9
    vertex 13 -4.75 4.9
    vertex 14.7604 -5.2847 4.9
    endloop
  endfacet
  facet normal 0 0 1
    outer loop
    vertex 14.7604 -5.2847 4.9
    vertex 13 -4.75 4.9
    vertex 14.9171 -5.55616 4.9
    endloop
  endfacet
  facet normal 0 0 1
    outer loop
    vertex 16.1567 -3.40912 4.9
    vertex 17.5 -2.15192 4.9
    vertex 14.5 -2.15192 4.9
    endloop
  endfacet
  facet normal 0 0 1
    outer loop
    vertex 16.1567 -3.40912 4.9
    vertex 14.5 -2.15192 4.9
    vertex 15.8433 -3.40912 4.9
    endloop
  endfacet
  facet normal 0 0 1
    outer loop
    vertex 15.8433 -3.40912 4.9
    vertex 14.5 -2.15192 4.9
    vertex 15.5383 -3.48141 4.9
    endloop
  endfacet
  facet normal 0 0 1
    outer loop
    vertex 15.5383 -3.48141 4.9
    vertex 14.5 -2.15192 4.9
    vertex 15.2582 -3.62209 4.9
    endloop
  endfacet
  facet normal 0 0 1
    outer loop
    vertex 15.2582 -3.62209 4.9
    vertex 14.5 -2.15192 4.9
    vertex 15.018 -3.82357 4.9
    endloop
  endfacet
  facet normal 0 0 1
    outer loop
    vertex 15.018 -3.82357 4.9
    vertex 14.5 -2.15192 4.9
    vertex 14.8309 -4.075 4.9
    endloop
  endfacet
  facet normal 0 0 1
    outer loop
    vertex 17.1691 -4.075 4.9
    vertex 17.5 -2.15192 4.9
    vertex 16.9819 -3.82357 4.9
    endloop
  endfacet
  facet normal 0 0 1
    outer loop
    vertex 16.9819 -3.82357 4.9
    vertex 17.5 -2.15192 4.9
    vertex 16.7418 -3.62209 4.9
    endloop
  endfacet
  facet normal 0 0 1
    outer loop
    vertex 16.7418 -3.62209 4.9
    vertex 17.5 -2.15192 4.9
    vertex 16.4617 -3.48141 4.9
    endloop
  endfacet
  facet normal 0 0 1
    outer loop
    vertex 16.4617 -3.48141 4.9
    vertex 17.5 -2.15192 4.9
    vertex 16.1567 -3.40912 4.9
    endloop
  endfacet
endsolid rambo_cover_base_lower_mount.stl
