0
SECTION
2
HEADER
9
$INSUNITS
70
4
9
$ACADVER
1
AC1014
9
$HANDSEED
5
FFFF
0
ENDSEC
0
SECTION
2
TABLES
0
TABLE
2
VPORT
5
8
100
AcDbSymbolTable
0
ENDTAB
0
TABLE
2
LTYPE
5
5
100
AcDbSymbolTable
0
LTYPE
5
14
100
AcDbSymbolTableRecord
100
AcDbLinetypeTableRecord
2
BYBLOCK
70
0
0
LTYPE
5
15
100
AcDbSymbolTableRecord
100
AcDbLinetypeTableRecord
2
BYLAYER
70
0
0
ENDTAB
0
TABLE
2
LAYER
5
2
100
AcDbSymbolTable
70
2
0
LAYER
5
50
100
AcDbSymbolTableRecord
100
AcDbLayerTableRecord
2
0
70
0
6
CONTINUOUS
0
ENDTAB
0
TABLE
2
STYLE
5
3
100
AcDbSymbolTable
70
1
0
STYLE
5
11
100
AcDbSymbolTableRecord
100
AcDbTextStyleTableRecord
2
STANDARD
70
0
0
ENDTAB
0
TABLE
2
VIEW
5
6
100
AcDbSymbolTable
70
0
0
ENDTAB
0
TABLE
2
UCS
5
7
100
AcDbSymbolTable
70
0
0
ENDTAB
0
TABLE
2
APPID
5
9
100
AcDbSymbolTable
70
2
0
APPID
5
12
100
AcDbSymbolTableRecord
100
AcDbRegAppTableRecord
2
ACAD
70
0
0
ENDTAB
0
TABLE
2
DIMSTYLE
5
A
100
AcDbSymbolTable
70
1
0
ENDTAB
0
TABLE
2
BLOCK_RECORD
5
1
100
AcDbSymbolTable
70
1
0
BLOCK_RECORD
5
1F
100
AcDbSymbolTableRecord
100
AcDbBlockTableRecord
2
*MODEL_SPACE
0
BLOCK_RECORD
5
1B
100
AcDbSymbolTableRecord
100
AcDbBlockTableRecord
2
*PAPER_SPACE
0
ENDTAB
0
ENDSEC
0
SECTION
2
BLOCKS
0
BLOCK
5
20
100
AcDbEntity
100
AcDbBlockBegin
2
*MODEL_SPACE
0
ENDBLK
5
21
100
AcDbEntity
100
AcDbBlockEnd
0
BLOCK
5
1C
100
AcDbEntity
100
AcDbBlockBegin
2
*PAPER_SPACE
0
ENDBLK
5
1D
100
AcDbEntity
100
AcDbBlockEnd
0
ENDSEC
0
SECTION
2
ENTITIES
0
CIRCLE
5
100
100
AcDbEntity
8
0
100
AcDbCircle
10
80
20
29.600000000000009
30
0
40
2.6500000000000057
0
CIRCLE
5
101
100
AcDbEntity
8
0
100
AcDbCircle
10
290
20
29.599999999999991
30
0
40
2.6500000000000057
0
CIRCLE
5
102
100
AcDbEntity
8
0
100
AcDbCircle
10
290
20
9.6000000000000298
30
0
40
2.6500000000000057
0
CIRCLE
5
103
100
AcDbEntity
8
0
100
AcDbCircle
10
80
20
9.6000000000000085
30
0
40
2.6500000000000057
0
CIRCLE
5
104
100
AcDbEntity
8
0
100
AcDbCircle
10
60
20
29.600000000000009
30
0
40
2.6499999999999968
0
CIRCLE
5
105
100
AcDbEntity
8
0
100
AcDbCircle
10
310
20
29.600000000000026
30
0
40
2.6500000000000057
0
CIRCLE
5
106
100
AcDbEntity
8
0
100
AcDbCircle
10
310
20
9.6000000000000281
30
0
40
2.6500000000000057
0
CIRCLE
5
107
100
AcDbEntity
8
0
100
AcDbCircle
10
60
20
9.6000000000000085
30
0
40
2.6499999999999968
0
SPLINE
5
108
100
AcDbEntity
8
0
100
AcDbSpline
70
1064
71
3
72
18
73
14
74
0
42
0.000000001
43
0.0000000001
44
0.0000000001
40
0
40
0
40
0
40
0
40
0.059038687326665173
40
0.059038687326665173
40
0.11603342985477424
40
0.11603342985477424
40
0.17098340798687661
40
0.17098340798687661
40
0.22388783903961371
40
0.22388783903961371
40
0.25550516053607791
40
0.25550516053607791
40
0.28634738033225693
40
0.28634738033225693
40
0.28634738033225693
40
0.28634738033225693
10
48.670840808186838
20
66.610459928583836
30
0
10
48.486707953601623
20
66.541007717286917
30
0
10
48.290976171923617
20
66.507576617324574
30
0
10
47.904650983239712
20
66.518721932308281
30
0
10
47.717732922392308
20
66.56056881109788
30
0
10
47.377292989721624
20
66.711939020405154
30
0
10
47.226010673508306
20
66.817597664614652
30
0
10
46.978171715120567
20
67.076865959064691
30
0
10
46.882125819873053
20
67.226149101557326
30
0
10
46.779707522161488
20
67.487647601879871
30
0
10
46.7531806764704
20
67.589682305179764
30
0
10
46.725783395240313
20
67.795355904899679
30
0
10
46.724400118608102
20
67.898167499388506
30
0
10
46.735499999999988
20
68
30
0
0
ARC
5
109
100
AcDbEntity
8
0
100
AcDbCircle
10
47.999999999999979
20
68
30
0
40
1.2644999999999875
100
AcDbArc
50
134.99999999999861
51
180
0
SPLINE
5
110
100
AcDbEntity
8
0
100
AcDbSpline
70
1064
71
3
72
18
73
14
74
0
42
0.000000001
43
0.0000000001
44
0.0000000001
40
0
40
0
40
0
40
0
40
0.050111023162094911
40
0.050111023162094911
40
0.10226147970239849
40
0.10226147970239849
40
0.15645047883791194
40
0.15645047883791194
40
0.21267709957747361
40
0.21267709957747361
40
0.24852047511087361
40
0.24852047511087361
40
0.2851428039951997
40
0.2851428039951997
40
0.2851428039951997
40
0.2851428039951997
10
47.105863475189608
20
68.894136524810406
30
0
10
47.21048216402346
20
69.024352513654307
30
0
10
47.339977972283876
20
69.132442847523635
30
0
10
47.63860876040863
20
69.297425414142324
30
0
10
47.80611913968837
20
69.350427983676511
30
0
10
48.158835687562309
20
69.391339597439256
30
0
10
48.340926811712848
20
69.376249495782815
30
0
10
48.696175914162964
20
69.276475922879911
30
0
10
48.865181804105823
20
69.190235802418812
30
0
10
49.107857871582098
20
69.000688460514596
30
0
10
49.192960906033903
20
68.915623181985367
30
0
10
49.34276246550553
20
68.725043722520013
30
0
10
49.406420302667406
20
68.619839796326147
30
0
10
49.456909291794389
20
68.508197122663233
30
0
0
ARC
5
111
100
AcDbEntity
8
0
100
AcDbCircle
10
47.999999999999979
20
68
30
0
40
1.5430000000000161
100
AcDbArc
50
-64.229724022095752
51
19.229724022096068
0
SPLINE
5
112
100
AcDbEntity
8
0
100
AcDbSpline
70
1064
71
3
72
18
73
14
74
0
42
0.000000001
43
0.0000000001
44
0.0000000001
40
0
40
0
40
0
40
0
40
0.059038687326667554
40
0.059038687326667554
40
0.1160334298547781
40
0.1160334298547781
40
0.17098340798688319
40
0.17098340798688319
40
0.22388783903962683
40
0.22388783903962683
40
0.25550516053608419
40
0.25550516053608419
40
0.28634738033225754
40
0.28634738033225754
40
0.28634738033225754
40
0.28634738033225754
10
10.670840808186838
20
38.610459928583843
30
0
10
10.486707953601616
20
38.541007717286931
30
0
10
10.290976171923621
20
38.507576617324581
30
0
10
9.9046509832397245
20
38.518721932308296
30
0
10
9.7177329223923135
20
38.56056881109788
30
0
10
9.3772929897216368
20
38.711939020405154
30
0
10
9.2260106735083163
20
38.817597664614645
30
0
10
8.9781717151205811
20
39.076865959064698
30
0
10
8.882125819873071
20
39.226149101557333
30
0
10
8.7797075221615213
20
39.487647601879829
30
0
10
8.7531806764704179
20
39.589682305179728
30
0
10
8.725783395240331
20
39.795355904899687
30
0
10
8.7244001186081128
20
39.898167499388521
30
0
10
8.7355000000000036
20
40.000000000000014
30
0
0
ARC
5
113
100
AcDbEntity
8
0
100
AcDbCircle
10
9.9999999999999787
20
40.000000000000007
30
0
40
1.2644999999999773
100
AcDbArc
50
134.99999999999926
51
180
0
SPLINE
5
114
100
AcDbEntity
8
0
100
AcDbSpline
70
1064
71
3
72
18
73
14
74
0
42
0.000000001
43
0.0000000001
44
0.0000000001
40
0
40
0
40
0
40
0
40
0.050111023162091616
40
0.050111023162091616
40
0.10226147970239138
40
0.10226147970239138
40
0.15645047883790497
40
0.15645047883790497
40
0.21267709957745842
40
0.21267709957745842
40
0.24852047511085007
40
0.24852047511085007
40
0.28514280399515257
40
0.28514280399515257
40
0.28514280399515257
40
0.28514280399515257
10
9.1058634751896186
20
40.894136524810392
30
0
10
9.2104821640234711
20
41.024352513654286
30
0
10
9.3399779722838723
20
41.132442847523606
30
0
10
9.6386087604086583
20
41.297425414142317
30
0
10
9.8061191396884233
20
41.350427983676497
30
0
10
10.158835687562298
20
41.391339597439234
30
0
10
10.340926811712801
20
41.376249495782808
30
0
10
10.696175914162978
20
41.276475922879882
30
0
10
10.86518180410585
20
41.190235802418762
30
0
10
11.107857871582068
20
41.000688460514596
30
0
10
11.192960906033871
20
40.915623181985403
30
0
10
11.342762465505531
20
40.725043722519985
30
0
10
11.40642030266741
20
40.619839796326112
30
0
10
11.456909291794389
20
40.508197122663212
30
0
0
ARC
5
115
100
AcDbEntity
8
0
100
AcDbCircle
10
9.9999999999999787
20
40.000000000000007
30
0
40
1.5430000000000148
100
AcDbArc
50
-64.229724022095752
51
19.229724022095237
0
SPLINE
5
116
100
AcDbEntity
8
0
100
AcDbSpline
70
1064
71
3
72
18
73
14
74
0
42
0.000000001
43
0.0000000001
44
0.0000000001
40
0
40
0
40
0
40
0
40
0.059038687326654467
40
0.059038687326654467
40
0.11603342985477111
40
0.11603342985477111
40
0.17098340798686718
40
0.17098340798686718
40
0.2238878390395922
40
0.2238878390395922
40
0.25550516053605377
40
0.25550516053605377
40
0.28634738033223611
40
0.28634738033223611
40
0.28634738033223611
40
0.28634738033223611
10
48.670840808186881
20
160.61045992858391
30
0
10
48.486707953601702
20
160.54100771728699
30
0
10
48.290976171923674
20
160.50757661732462
30
0
10
47.904650983239669
20
160.51872193230832
30
0
10
47.717732922392308
20
160.56056881109794
30
0
10
47.377292989721738
20
160.71193902040517
30
0
10
47.22601067350837
20
160.81759766461462
30
0
10
46.978171715120602
20
161.07686595906469
30
0
10
46.882125819873082
20
161.22614910155733
30
0
10
46.779707522161509
20
161.48764760187987
30
0
10
46.753180676470421
20
161.58968230517974
30
0
10
46.725783395240335
20
161.79535590489968
30
0
10
46.724400118608109
20
161.89816749938848
30
0
10
46.735499999999995
20
162
30
0
0
ARC
5
117
100
AcDbEntity
8
0
100
AcDbCircle
10
48.000000000000028
20
162
30
0
40
1.2645000000000441
100
AcDbArc
50
135
51
180
0
SPLINE
5
118
100
AcDbEntity
8
0
100
AcDbSpline
70
1064
71
3
72
18
73
14
74
0
42
0.000000001
43
0.0000000001
44
0.0000000001
40
0
40
0
40
0
40
0
40
0.05011102316208655
40
0.05011102316208655
40
0.10226147970235942
40
0.10226147970235942
40
0.15645047883783753
40
0.15645047883783753
40
0.21267709957736874
40
0.21267709957736874
40
0.24852047511073641
40
0.24852047511073641
40
0.28514280399503839
40
0.28514280399503839
40
0.28514280399503839
40
0.28514280399503839
10
47.105863475189615
20
162.89413652481042
30
0
10
47.210482164023453
20
163.02435251365432
30
0
10
47.339977972283833
20
163.13244284752361
30
0
10
47.638608760408616
20
163.29742541414234
30
0
10
47.806119139688342
20
163.35042798367652
30
0
10
48.158835687562338
20
163.3913395974393
30
0
10
48.34092681171289
20
163.37624949578282
30
0
10
48.696175914162922
20
163.27647592287991
30
0
10
48.86518180410576
20
163.19023580241887
30
0
10
49.107857871582084
20
163.00068846051462
30
0
10
49.192960906033903
20
162.91562318198541
30
0
10
49.342762465505537
20
162.72504372252001
30
0
10
49.406420302667414
20
162.61983979632615
30
0
10
49.456909291794389
20
162.50819712266323
30
0
0
ARC
5
119
100
AcDbEntity
8
0
100
AcDbCircle
10
48.000000000000028
20
162
30
0
40
1.542999999999952
100
AcDbArc
50
-64.229724022094885
51
19.229724022096669
0
SPLINE
5
120
100
AcDbEntity
8
0
100
AcDbSpline
70
1064
71
3
72
18
73
14
74
0
42
0.000000001
43
0.0000000001
44
0.0000000001
40
0
40
0
40
0
40
0
40
0.059038687326679253
40
0.059038687326679253
40
0.11603342985481002
40
0.11603342985481002
40
0.17098340798693065
40
0.17098340798693065
40
0.22388783903968615
40
0.22388783903968615
40
0.25550516053616307
40
0.25550516053616307
40
0.28634738033235813
40
0.28634738033235813
40
0.28634738033235813
40
0.28634738033235813
10
48.670840808186838
20
268.13665992858387
30
0
10
48.486707953601574
20
268.06720771728692
30
0
10
48.290976171923596
20
268.03377661732463
30
0
10
47.904650983239712
20
268.04492193230834
30
0
10
47.717732922392301
20
268.0867688110979
30
0
10
47.377292989721639
20
268.23813902040519
30
0
10
47.226010673508313
20
268.34379766461467
30
0
10
46.978171715120574
20
268.60306595906474
30
0
10
46.882125819873067
20
268.75234910155734
30
0
10
46.779707522161502
20
269.01384760187989
30
0
10
46.753180676470407
20
269.11588230517975
30
0
10
46.725783395240327
20
269.32155590489975
30
0
10
46.724400118608109
20
269.42436749938855
30
0
10
46.735499999999995
20
269.52620000000002
30
0
0
ARC
5
121
100
AcDbEntity
8
0
100
AcDbCircle
10
48.000000000000099
20
269.52619999999996
30
0
40
1.2645000000001194
100
AcDbArc
50
134.99999999999861
51
180
0
SPLINE
5
122
100
AcDbEntity
8
0
100
AcDbSpline
70
1064
71
3
72
18
73
14
74
0
42
0.000000001
43
0.0000000001
44
0.0000000001
40
0
40
0
40
0
40
0
40
0.050111023162101448
40
0.050111023162101448
40
0.10226147970241295
40
0.10226147970241295
40
0.15645047883789309
40
0.15645047883789309
40
0.21267709957741066
40
0.21267709957741066
40
0.24852047511080694
40
0.24852047511080694
40
0.2851428039951775
40
0.2851428039951775
40
0.2851428039951775
40
0.2851428039951775
10
47.105863475189636
20
270.42033652481047
30
0
10
47.210482164023517
20
270.5505525136544
30
0
10
47.339977972283968
20
270.65864284752371
30
0
10
47.63860876040863
20
270.82362541414233
30
0
10
47.80611913968832
20
270.87662798367654
30
0
10
48.158835687562345
20
270.91753959743932
30
0
10
48.340926811712855
20
270.90244949578283
30
0
10
48.696175914162993
20
270.80267592287993
30
0
10
48.865181804105859
20
270.7164358024188
30
0
10
49.107857871582198
20
270.52688846051456
30
0
10
49.192960906034038
20
270.44182318198517
30
0
10
49.342762465505544
20
270.25124372251997
30
0
10
49.406420302667414
20
270.14603979632614
30
0
10
49.456909291794403
20
270.03439712266322
30
0
0
ARC
5
123
100
AcDbEntity
8
0
100
AcDbCircle
10
48.000000000000099
20
269.52619999999996
30
0
40
1.5429999999999016
100
AcDbArc
50
-64.229724022098651
51
19.229724022098441
0
SPLINE
5
124
100
AcDbEntity
8
0
100
AcDbSpline
70
1064
71
3
72
18
73
14
74
0
42
0.000000001
43
0.0000000001
44
0.0000000001
40
0
40
0
40
0
40
0
40
0.059038687326613166
40
0.059038687326613166
40
0.11603342985464436
40
0.11603342985464436
40
0.17098340798672151
40
0.17098340798672151
40
0.22388783903944279
40
0.22388783903944279
40
0.25550516053597194
40
0.25550516053597194
40
0.28634738033222479
40
0.28634738033222479
40
0.28634738033222479
40
0.28634738033222479
10
360.67084080818682
20
358.61045992858385
30
0
10
360.48670795360175
20
358.54100771728702
30
0
10
360.29097617192372
20
358.50757661732462
30
0
10
359.90465098323972
20
358.51872193230832
30
0
10
359.71773292239232
20
358.56056881109788
30
0
10
359.37729298972147
20
358.71193902040523
30
0
10
359.22601067350826
20
358.81759766461471
30
0
10
358.9781717151206
20
359.07686595906466
30
0
10
358.88212581987307
20
359.22614910155733
30
0
10
358.77970752216135
20
359.4876476018801
30
0
10
358.75318067647044
20
359.58968230517991
30
0
10
358.7257833952404
20
359.79535590489951
30
0
10
358.72440011860812
20
359.89816749938836
30
0
10
358.7355
20
360
30
0
0
ARC
5
125
100
AcDbEntity
8
0
100
AcDbCircle
10
359.99999999999949
20
360.00000000000023
30
0
40
1.2644999999994913
100
AcDbArc
50
134.99999999998909
51
180
0
SPLINE
5
126
100
AcDbEntity
8
0
100
AcDbSpline
70
1064
71
3
72
18
73
14
74
0
42
0.000000001
43
0.0000000001
44
0.0000000001
40
0
40
0
40
0
40
0
40
0.050111023162098409
40
0.050111023162098409
40
0.10226147970240443
40
0.10226147970240443
40
0.1564504788378992
40
0.1564504788378992
40
0.21267709957744796
40
0.21267709957744796
40
0.24852047511084852
40
0.24852047511084852
40
0.2851428039952304
40
0.2851428039952304
40
0.2851428039952304
40
0.2851428039952304
10
359.10586347518966
20
360.89413652481039
30
0
10
359.21048216402357
20
361.02435251365432
30
0
10
359.33997797228392
20
361.13244284752363
30
0
10
359.6386087604086
20
361.29742541414231
30
0
10
359.80611913968829
20
361.35042798367647
30
0
10
360.15883568756232
20
361.39133959743924
30
0
10
360.34092681171285
20
361.37624949578282
30
0
10
360.69617591416289
20
361.27647592287991
30
0
10
360.86518180410576
20
361.1902358024189
30
0
10
361.10785787158215
20
361.00068846051454
30
0
10
361.19296090603399
20
360.91562318198527
30
0
10
361.34276246550553
20
360.7250437225199
30
0
10
361.40642030266747
20
360.61983979632595
30
0
10
361.45690929179437
20
360.5081971226632
30
0
0
ARC
5
127
100
AcDbEntity
8
0
100
AcDbCircle
10
359.99999999999949
20
360.00000000000023
30
0
40
1.543000000000373
100
AcDbArc
50
-64.229724022083275
51
19.229724022080752
0
SPLINE
5
128
100
AcDbEntity
8
0
100
AcDbSpline
70
1064
71
3
72
18
73
14
74
0
42
0.000000001
43
0.0000000001
44
0.0000000001
40
0
40
0
40
0
40
0
40
0.059038687326692908
40
0.059038687326692908
40
0.11603342985490414
40
0.11603342985490414
40
0.17098340798710299
40
0.17098340798710299
40
0.22388783903994597
40
0.22388783903994597
40
0.25550516053644645
40
0.25550516053644645
40
0.28634738033266183
40
0.28634738033266183
40
0.28634738033266183
40
0.28634738033266183
10
340.67084080818694
20
358.61045992858385
30
0
10
340.48670795360169
20
358.5410077172869
30
0
10
340.29097617192372
20
358.50757661732462
30
0
10
339.90465098323961
20
358.51872193230827
30
0
10
339.71773292239232
20
358.56056881109794
30
0
10
339.37729298972187
20
358.71193902040511
30
0
10
339.22601067350848
20
358.8175976646146
30
0
10
338.9781717151206
20
359.07686595906466
30
0
10
338.88212581987312
20
359.22614910155738
30
0
10
338.77970752216157
20
359.4876476018797
30
0
10
338.75318067647044
20
359.58968230517962
30
0
10
338.72578339524034
20
359.79535590489957
30
0
10
338.72440011860812
20
359.89816749938836
30
0
10
338.7355
20
359.99999999999994
30
0
0
ARC
5
129
100
AcDbEntity
8
0
100
AcDbCircle
10
339.99999999999949
20
360.00000000000023
30
0
40
1.2644999999994913
100
AcDbArc
50
134.99999999998909
51
180
0
SPLINE
5
130
100
AcDbEntity
8
0
100
AcDbSpline
70
1064
71
3
72
18
73
14
74
0
42
0.000000001
43
0.0000000001
44
0.0000000001
40
0
40
0
40
0
40
0
40
0.050111023162098409
40
0.050111023162098409
40
0.10226147970240443
40
0.10226147970240443
40
0.1564504788378992
40
0.1564504788378992
40
0.21267709957744796
40
0.21267709957744796
40
0.24852047511084852
40
0.24852047511084852
40
0.2851428039952304
40
0.2851428039952304
40
0.2851428039952304
40
0.2851428039952304
10
339.10586347518966
20
360.89413652481039
30
0
10
339.21048216402357
20
361.02435251365432
30
0
10
339.33997797228392
20
361.13244284752363
30
0
10
339.6386087604086
20
361.29742541414231
30
0
10
339.80611913968829
20
361.35042798367647
30
0
10
340.15883568756232
20
361.39133959743924
30
0
10
340.34092681171285
20
361.37624949578282
30
0
10
340.69617591416289
20
361.27647592287991
30
0
10
340.86518180410576
20
361.1902358024189
30
0
10
341.10785787158215
20
361.00068846051454
30
0
10
341.19296090603399
20
360.91562318198527
30
0
10
341.34276246550553
20
360.7250437225199
30
0
10
341.40642030266747
20
360.61983979632595
30
0
10
341.45690929179437
20
360.5081971226632
30
0
0
ARC
5
131
100
AcDbEntity
8
0
100
AcDbCircle
10
339.99999999999949
20
360.00000000000023
30
0
40
1.5430000000004345
100
AcDbArc
50
-64.229724022079466
51
19.229724022080752
0
SPLINE
5
132
100
AcDbEntity
8
0
100
AcDbSpline
70
1064
71
3
72
18
73
14
74
0
42
0.000000001
43
0.0000000001
44
0.0000000001
40
0
40
0
40
0
40
0
40
0.059038687326667443
40
0.059038687326667443
40
0.11603342985477126
40
0.11603342985477126
40
0.17098340798685163
40
0.17098340798685163
40
0.22388783903959225
40
0.22388783903959225
40
0.25550516053603367
40
0.25550516053603367
40
0.28634738033218804
40
0.28634738033218804
40
0.28634738033218804
40
0.28634738033218804
10
5.6708408081868171
20
268.11045992858385
30
0
10
5.486707953601595
20
268.04100771728696
30
0
10
5.2909761719235959
20
268.00757661732462
30
0
10
4.9046509832397236
20
268.01872193230832
30
0
10
4.7177329223923001
20
268.06056881109788
30
0
10
4.3772929897216599
20
268.21193902040517
30
0
10
4.2260106735083109
20
268.31759766461465
30
0
10
3.9781717151205003
20
268.57686595906478
30
0
10
3.8821258198730417
20
268.72614910155744
30
0
10
3.7797075221615337
20
268.98764760187981
30
0
10
3.7531806764704112
20
269.08968230517974
30
0
10
3.7257833952403225
20
269.29535590489974
30
0
10
3.7244001186081088
20
269.39816749938859
30
0
10
3.7355000000000009
20
269.50000000000006
30
0
0
ARC
5
133
100
AcDbEntity
8
0
100
AcDbCircle
10
5.0000000000000675
20
269.5
30
0
40
1.2645000000000726
100
AcDbArc
50
134.99999999999923
51
180
0
SPLINE
5
134
100
AcDbEntity
8
0
100
AcDbSpline
70
1064
71
3
72
18
73
14
74
0
42
0.000000001
43
0.0000000001
44
0.0000000001
40
0
40
0
40
0
40
0
40
0.050111023162099977
40
0.050111023162099977
40
0.10226147970240851
40
0.10226147970240851
40
0.15645047883788857
40
0.15645047883788857
40
0.21267709957743364
40
0.21267709957743364
40
0.24852047511084979
40
0.24852047511084979
40
0.28514280399517683
40
0.28514280399517683
40
0.28514280399517683
40
0.28514280399517683
10
4.1058634751896408
20
270.39413652481045
30
0
10
4.2104821640235128
20
270.52435251365438
30
0
10
4.3399779722839575
20
270.63244284752363
30
0
10
4.6386087604086308
20
270.79742541414231
30
0
10
4.8061191396883123
20
270.85042798367652
30
0
10
5.158835687562342
20
270.8913395974393
30
0
10
5.3409268117128548
20
270.87624949578287
30
0
10
5.6961759141630779
20
270.77647592287985
30
0
10
5.8651818041059842
20
270.69023580241867
30
0
10
6.1078578715821124
20
270.50068846051454
30
0
10
6.1929609060339184
20
270.41562318198532
30
0
10
6.3427624655055244
20
270.22504372251996
30
0
10
6.4064203026673958
20
270.11983979632618
30
0
10
6.4569092917944007
20
270.0081971226632
30
0
0
ARC
5
135
100
AcDbEntity
8
0
100
AcDbCircle
10
5.0000000000000675
20
269.5
30
0
40
1.5429999999999384
100
AcDbArc
50
-64.229724022099205
51
19.229724022096185
0
SPLINE
5
136
100
AcDbEntity
8
0
100
AcDbSpline
70
1064
71
3
72
18
73
14
74
0
42
0.000000001
43
0.0000000001
44
0.0000000001
40
0
40
0
40
0
40
0
40
0.05903868732665022
40
0.05903868732665022
40
0.11603342985473303
40
0.11603342985473303
40
0.17098340798681685
40
0.17098340798681685
40
0.22388783903952375
40
0.22388783903952375
40
0.25550516053607952
40
0.25550516053607952
40
0.28634738033236251
40
0.28634738033236251
40
0.28634738033236251
40
0.28634738033236251
10
340.67084080818682
20
38.61045992858385
30
0
10
340.48670795360169
20
38.541007717286952
30
0
10
340.2909761719236
20
38.507576617324581
30
0
10
339.90465098323972
20
38.518721932308296
30
0
10
339.71773292239232
20
38.560568811097873
30
0
10
339.37729298972158
20
38.711939020405183
30
0
10
339.22601067350826
20
38.817597664614681
30
0
10
338.97817171512065
20
39.076865959064648
30
0
10
338.88212581987307
20
39.226149101557304
30
0
10
338.77970752216135
20
39.487647601880234
30
0
10
338.75318067647044
20
39.589682305179949
30
0
10
338.7257833952404
20
39.79535590489953
30
0
10
338.72440011860812
20
39.898167499388428
30
0
10
338.7355
20
40
30
0
0
ARC
5
137
100
AcDbEntity
8
0
100
AcDbCircle
10
339.99999999999972
20
40.000000000000114
30
0
40
1.2644999999997051
100
AcDbArc
50
134.99999999999204
51
180
0
SPLINE
5
138
100
AcDbEntity
8
0
100
AcDbSpline
70
1064
71
3
72
18
73
14
74
0
42
0.000000001
43
0.0000000001
44
0.0000000001
40
0
40
0
40
0
40
0
40
0.050111023162088673
40
0.050111023162088673
40
0.1022614797023699
40
0.1022614797023699
40
0.15645047883784549
40
0.15645047883784549
40
0.212677099577358
40
0.212677099577358
40
0.24852047511071884
40
0.24852047511071884
40
0.28514280399497854
40
0.28514280399497854
40
0.28514280399497854
40
0.28514280399497854
10
339.10586347518966
20
40.894136524810378
30
0
10
339.21048216402346
20
41.024352513654264
30
0
10
339.33997797228386
20
41.132442847523578
30
0
10
339.6386087604086
20
41.297425414142282
30
0
10
339.80611913968835
20
41.350427983676482
30
0
10
340.15883568756232
20
41.391339597439227
30
0
10
340.34092681171279
20
41.376249495782808
30
0
10
340.69617591416295
20
41.276475922879889
30
0
10
340.86518180410587
20
41.190235802418755
30
0
10
341.10785787158198
20
41.000688460514624
30
0
10
341.19296090603382
20
40.915623181985467
30
0
10
341.34276246550553
20
40.72504372251997
30
0
10
341.40642030266741
20
40.619839796326062
30
0
10
341.45690929179437
20
40.508197122663233
30
0
0
ARC
5
139
100
AcDbEntity
8
0
100
AcDbCircle
10
339.99999999999972
20
40.000000000000114
30
0
40
1.5430000000002084
100
AcDbArc
50
-64.22972402208903
51
19.229724022088515
0
SPLINE
5
140
100
AcDbEntity
8
0
100
AcDbSpline
70
1064
71
3
72
18
73
14
74
0
42
0.000000001
43
0.0000000001
44
0.0000000001
40
0
40
0
40
0
40
0
40
0.059038687326661024
40
0.059038687326661024
40
0.11603342985474902
40
0.11603342985474902
40
0.17098340798685308
40
0.17098340798685308
40
0.22388783903960222
40
0.22388783903960222
40
0.25550516053606509
40
0.25550516053606509
40
0.28634738033224627
40
0.28634738033224627
40
0.28634738033224627
40
0.28634738033224627
10
5.6708408081868065
20
160.61045992858385
30
0
10
5.4867079536016039
20
160.54100771728696
30
0
10
5.2909761719235959
20
160.50757661732462
30
0
10
4.9046509832397334
20
160.51872193230832
30
0
10
4.7177329223922984
20
160.56056881109788
30
0
10
4.3772929897215223
20
160.71193902040523
30
0
10
4.2260106735082612
20
160.81759766461474
30
0
10
3.9781717151205691
20
161.07686595906475
30
0
10
3.8821258198730524
20
161.22614910155738
30
0
10
3.7797075221615026
20
161.4876476018799
30
0
10
3.7531806764704054
20
161.58968230517982
30
0
10
3.7257833952403221
20
161.79535590489976
30
0
10
3.7244001186081102
20
161.89816749938856
30
0
10
3.7355000000000009
20
162.00000000000006
30
0
0
ARC
5
141
100
AcDbEntity
8
0
100
AcDbCircle
10
5.0000000000000702
20
162
30
0
40
1.2645000000000748
100
AcDbArc
50
134.99999999999935
51
180
0
SPLINE
5
142
100
AcDbEntity
8
0
100
AcDbSpline
70
1064
71
3
72
18
73
14
74
0
42
0.000000001
43
0.0000000001
44
0.0000000001
40
0
40
0
40
0
40
0
40
0.050111023162099519
40
0.050111023162099519
40
0.1022614797024059
40
0.1022614797024059
40
0.15645047883788227
40
0.15645047883788227
40
0.21267709957739941
40
0.21267709957739941
40
0.24852047511079842
40
0.24852047511079842
40
0.28514280399516101
40
0.28514280399516101
40
0.28514280399516101
40
0.28514280399516101
10
4.1058634751896426
20
162.89413652481045
30
0
10
4.2104821640235137
20
163.02435251365438
30
0
10
4.3399779722839567
20
163.13244284752363
30
0
10
4.6386087604086317
20
163.29742541414231
30
0
10
4.8061191396883105
20
163.35042798367652
30
0
10
5.158835687562342
20
163.3913395974393
30
0
10
5.3409268117128548
20
163.37624949578284
30
0
10
5.6961759141629997
20
163.27647592287991
30
0
10
5.8651818041058661
20
163.19023580241878
30
0
10
6.107857871582187
20
163.00068846051454
30
0
10
6.1929609060340294
20
162.91562318198521
30
0
10
6.3427624655055261
20
162.72504372251998
30
0
10
6.4064203026673976
20
162.61983979632618
30
0
10
6.4569092917944015
20
162.5081971226632
30
0
0
ARC
5
143
100
AcDbEntity
8
0
100
AcDbCircle
10
5.0000000000000702
20
162
30
0
40
1.5429999999999331
100
AcDbArc
50
-64.22972402209966
51
19.229724022096185
0
SPLINE
5
144
100
AcDbEntity
8
0
100
AcDbSpline
70
1064
71
3
72
18
73
14
74
0
42
0.000000001
43
0.0000000001
44
0.0000000001
40
0
40
0
40
0
40
0
40
0.05903868732666584
40
0.05903868732666584
40
0.11603342985481488
40
0.11603342985481488
40
0.17098340798695338
40
0.17098340798695338
40
0.22388783903972895
40
0.22388783903972895
40
0.25550516053621641
40
0.25550516053621641
40
0.28634738033242385
40
0.28634738033242385
40
0.28634738033242385
40
0.28634738033242385
10
30.670840808186902
20
358.61045992858385
30
0
10
30.486707953601694
20
358.54100771728696
30
0
10
30.290976171923688
20
358.50757661732462
30
0
10
29.904650983239659
20
358.51872193230827
30
0
10
29.717732922392315
20
358.56056881109794
30
0
10
29.377292989721756
20
358.71193902040511
30
0
10
29.226010673508391
20
358.8175976646146
30
0
10
28.978171715120602
20
359.07686595906466
30
0
10
28.882125819873096
20
359.22614910155733
30
0
10
28.77970752216153
20
359.48764760187987
30
0
10
28.753180676470432
20
359.58968230517968
30
0
10
28.725783395240335
20
359.79535590489968
30
0
10
28.724400118608116
20
359.89816749938848
30
0
10
28.735499999999998
20
359.99999999999994
30
0
0
ARC
5
145
100
AcDbEntity
8
0
100
AcDbCircle
10
29.999999999999766
20
360.00000000000006
30
0
40
1.2644999999997897
100
AcDbArc
50
134.99999999999352
51
180
0
SPLINE
5
146
100
AcDbEntity
8
0
100
AcDbSpline
70
1064
71
3
72
18
73
14
74
0
42
0.000000001
43
0.0000000001
44
0.0000000001
40
0
40
0
40
0
40
0
40
0.050111023162079028
40
0.050111023162079028
40
0.10226147970234536
40
0.10226147970234536
40
0.15645047883788069
40
0.15645047883788069
40
0.21267709957748748
40
0.21267709957748748
40
0.24852047511091058
40
0.24852047511091058
40
0.28514280399536718
40
0.28514280399536718
40
0.28514280399536718
40
0.28514280399536718
10
29.105863475189562
20
360.89413652481034
30
0
10
29.210482164023382
20
361.02435251365421
30
0
10
29.339977972283716
20
361.13244284752352
30
0
10
29.638608760408601
20
361.29742541414231
30
0
10
29.806119139688402
20
361.35042798367647
30
0
10
30.158835687562334
20
361.3913395974393
30
0
10
30.340926811712954
20
361.37624949578276
30
0
10
30.696175914162751
20
361.27647592287991
30
0
10
30.865181804105546
20
361.19023580241901
30
0
10
31.107857871582144
20
361.00068846051454
30
0
10
31.192960906034017
20
360.91562318198521
30
0
10
31.342762465505537
20
360.72504372252001
30
0
10
31.406420302667438
20
360.619839796326
30
0
10
31.456909291794393
20
360.5081971226632
30
0
0
ARC
5
147
100
AcDbEntity
8
0
100
AcDbCircle
10
29.999999999999766
20
360.00000000000006
30
0
40
1.5430000000001718
100
AcDbArc
50
-64.229724022087154
51
19.229724022090643
0
SPLINE
5
148
100
AcDbEntity
8
0
100
AcDbSpline
70
1064
71
3
72
18
73
14
74
0
42
0.000000001
43
0.0000000001
44
0.0000000001
40
0
40
0
40
0
40
0
40
0.059038687326660122
40
0.059038687326660122
40
0.11603342985475784
40
0.11603342985475784
40
0.17098340798685735
40
0.17098340798685735
40
0.22388783903960077
40
0.22388783903960077
40
0.25550516053605615
40
0.25550516053605615
40
0.28634738033222895
40
0.28634738033222895
40
0.28634738033222895
40
0.28634738033222895
10
5.6708408081868491
20
66.61045992858385
30
0
10
5.4867079536016519
20
66.541007717286945
30
0
10
5.2909761719236421
20
66.507576617324588
30
0
10
4.9046509832397405
20
66.518721932308296
30
0
10
4.717732922392325
20
66.56056881109788
30
0
10
4.3772929897216182
20
66.711939020405168
30
0
10
4.2260106735083136
20
66.817597664614667
30
0
10
3.9781717151205775
20
67.076865959064691
30
0
10
3.8821258198730701
20
67.22614910155734
30
0
10
3.7797075221615231
20
67.487647601879829
30
0
10
3.7531806764704161
20
67.589682305179736
30
0
10
3.7257833952403252
20
67.795355904899694
30
0
10
3.7244001186081102
20
67.898167499388521
30
0
10
3.7354999999999987
20
68
30
0
0
ARC
5
149
100
AcDbEntity
8
0
100
AcDbCircle
10
4.9999999999999982
20
68.000000000000014
30
0
40
1.2644999999999931
100
AcDbArc
50
135.00000000000048
51
180
0
SPLINE
5
150
100
AcDbEntity
8
0
100
AcDbSpline
70
1064
71
3
72
18
73
14
74
0
42
0.000000001
43
0.0000000001
44
0.0000000001
40
0
40
0
40
0
40
0
40
0.050111023162090054
40
0.050111023162090054
40
0.10226147970237984
40
0.10226147970237984
40
0.15645047883787394
40
0.15645047883787394
40
0.21267709957741229
40
0.21267709957741229
40
0.24852047511079967
40
0.24852047511079967
40
0.28514280399510789
40
0.28514280399510789
40
0.28514280399510789
40
0.28514280399510789
10
4.1058634751895982
20
68.894136524810378
30
0
10
4.2104821640234444
20
69.024352513654279
30
0
10
4.3399779722838367
20
69.132442847523592
30
0
10
4.6386087604086139
20
69.29742541414231
30
0
10
4.8061191396883567
20
69.350427983676497
30
0
10
5.1588356875622718
20
69.391339597439256
30
0
10
5.3409268117127828
20
69.376249495782815
30
0
10
5.6961759141629535
20
69.276475922879911
30
0
10
5.8651818041058315
20
69.190235802418783
30
0
10
6.1078578715820573
20
69.000688460514624
30
0
10
6.1929609060338686
20
68.91562318198541
30
0
10
6.342762465505527
20
68.725043722520013
30
0
10
6.40642030266741
20
68.619839796326133
30
0
10
6.4569092917943847
20
68.508197122663233
30
0
0
ARC
5
151
100
AcDbEntity
8
0
100
AcDbCircle
10
4.9999999999999982
20
68.000000000000014
30
0
40
1.5430000000000066
100
AcDbArc
50
-64.22972402209605
51
19.229724022096029
0
SPLINE
5
152
100
AcDbEntity
8
0
100
AcDbSpline
70
1064
71
3
72
18
73
14
74
0
42
0.000000001
43
0.0000000001
44
0.0000000001
40
0
40
0
40
0
40
0
40
0.059038687326657957
40
0.059038687326657957
40
0.1160334298547599
40
0.1160334298547599
40
0.1709834079868536
40
0.1709834079868536
40
0.2238878390395436
40
0.2238878390395436
40
0.2555051605360773
40
0.2555051605360773
40
0.28634738033233398
40
0.28634738033233398
40
0.28634738033233398
40
0.28634738033233398
10
350.67084080818682
20
18.610459928583914
30
0
10
350.48670795360158
20
18.541007717287009
30
0
10
350.2909761719236
20
18.507576617324656
30
0
10
349.90465098323972
20
18.51872193230837
30
0
10
349.71773292239232
20
18.560568811097955
30
0
10
349.3772929897217
20
18.711939020405218
30
0
10
349.22601067350843
20
18.817597664614702
30
0
10
348.97817171512077
20
19.076865959064644
30
0
10
348.88212581987312
20
19.226149101557304
30
0
10
348.7797075221614
20
19.487647601880226
30
0
10
348.75318067647049
20
19.589682305179949
30
0
10
348.72578339524046
20
19.795355904899523
30
0
10
348.72440011860817
20
19.898167499388425
30
0
10
348.73550000000012
20
20.000000000000004
30
0
0
ARC
5
153
100
AcDbEntity
8
0
100
AcDbCircle
10
350.00000000000011
20
19.999999999999972
30
0
40
1.2645000000001259
100
AcDbArc
50
135.00000000000355
51
180
0
SPLINE
5
154
100
AcDbEntity
8
0
100
AcDbSpline
70
1064
71
3
72
18
73
14
74
0
42
0.000000001
43
0.0000000001
44
0.0000000001
40
0
40
0
40
0
40
0
40
0.05011102316210167
40
0.05011102316210167
40
0.10226147970243332
40
0.10226147970243332
40
0.1564504788379768
40
0.1564504788379768
40
0.2126770995775705
40
0.2126770995775705
40
0.24852047511096489
40
0.24852047511096489
40
0.28514280399526604
40
0.28514280399526604
40
0.28514280399526604
40
0.28514280399526604
10
349.10586347518966
20
20.89413652481031
30
0
10
349.21048216402357
20
21.024352513654236
30
0
10
349.33997797228403
20
21.132442847523546
30
0
10
349.63860876040872
20
21.297425414142221
30
0
10
349.80611913968835
20
21.350427983676408
30
0
10
350.15883568756232
20
21.39133959743916
30
0
10
350.34092681171279
20
21.376249495782723
30
0
10
350.69617591416289
20
21.27647592287984
30
0
10
350.8651818041057
20
21.190235802418758
30
0
10
351.10785787158193
20
21.000688460514603
30
0
10
351.1929609060337
20
20.915623181985467
30
0
10
351.34276246550547
20
20.725043722519914
30
0
10
351.40642030266741
20
20.619839796325948
30
0
10
351.45690929179432
20
20.508197122663205
30
0
0
ARC
5
155
100
AcDbEntity
8
0
100
AcDbCircle
10
350.00000000000011
20
19.999999999999972
30
0
40
1.5429999999998349
100
AcDbArc
50
-64.229724022099063
51
19.229724022098058
0
SPLINE
5
156
100
AcDbEntity
8
0
100
AcDbSpline
70
1064
71
3
72
18
73
14
74
0
42
0.000000001
43
0.0000000001
44
0.0000000001
40
0
40
0
40
0
40
0
40
0.059038687326660746
40
0.059038687326660746
40
0.11603342985477272
40
0.11603342985477272
40
0.17098340798688083
40
0.17098340798688083
40
0.22388783903962811
40
0.22388783903962811
40
0.25550516053607969
40
0.25550516053607969
40
0.28634738033224788
40
0.28634738033224788
40
0.28634738033224788
40
0.28634738033224788
10
4.4108408081868502
20
98.61045992858385
30
0
10
4.2267079536016503
20
98.541007717286945
30
0
10
4.0309761719236423
20
98.507576617324574
30
0
10
3.6446509832396972
20
98.518721932308296
30
0
10
3.457732922392307
20
98.56056881109788
30
0
10
3.1172929897216539
20
98.711939020405154
30
0
10
2.9660106735083258
20
98.817597664614638
30
0
10
2.7181717151205782
20
99.076865959064691
30
0
10
2.6221258198730713
20
99.226149101557326
30
0
10
2.5197075221615322
20
99.487647601879786
30
0
10
2.493180676470419
20
99.589682305179693
30
0
10
2.4657833952403267
20
99.795355904899679
30
0
10
2.4644001186081121
20
99.898167499388506
30
0
10
2.4755000000000011
20
100
30
0
0
ARC
5
157
100
AcDbEntity
8
0
100
AcDbCircle
10
3.7400000000000091
20
99.999999999999986
30
0
40
1.2645000000000173
100
AcDbArc
50
135.00000000000131
51
180
0
SPLINE
5
158
100
AcDbEntity
8
0
100
AcDbSpline
70
1064
71
3
72
18
73
14
74
0
42
0.000000001
43
0.0000000001
44
0.0000000001
40
0
40
0
40
0
40
0
40
0.05011102316209233
40
0.05011102316209233
40
0.1022614797023943
40
0.1022614797023943
40
0.15645047883790869
40
0.15645047883790869
40
0.21267709957745645
40
0.21267709957745645
40
0.24852047511084785
40
0.24852047511084785
40
0.28514280399517344
40
0.28514280399517344
40
0.28514280399517344
40
0.28514280399517344
10
2.845863475189589
20
100.89413652481036
30
0
10
2.950482164023438
20
101.02435251365426
30
0
10
3.0799779722838401
20
101.13244284752358
30
0
10
3.3786087604086106
20
101.29742541414231
30
0
10
3.5461191396883707
20
101.35042798367648
30
0
10
3.8988356875622503
20
101.39133959743924
30
0
10
4.0809268117127564
20
101.37624949578282
30
0
10
4.4361759141629094
20
101.27647592287991
30
0
10
4.605181804105773
20
101.19023580241884
30
0
10
4.8478578715820699
20
101.00068846051462
30
0
10
4.9329609060338919
20
100.91562318198538
30
0
10
5.0827624655055148
20
100.72504372252001
30
0
10
5.1464203026673969
20
100.61983979632615
30
0
10
5.1969092917943787
20
100.50819712266325
30
0
0
ARC
5
159
100
AcDbEntity
8
0
100
AcDbCircle
10
3.7400000000000091
20
99.999999999999986
30
0
40
1.5429999999999784
100
AcDbArc
50
-64.229724022095894
51
19.229724022097731
0
SPLINE
5
160
100
AcDbEntity
8
0
100
AcDbSpline
70
1064
71
3
72
18
73
14
74
0
42
0.000000001
43
0.0000000001
44
0.0000000001
40
0
40
0
40
0
40
0
40
0.059038687326648374
40
0.059038687326648374
40
0.11603342985472764
40
0.11603342985472764
40
0.17098340798680162
40
0.17098340798680162
40
0.22388783903949683
40
0.22388783903949683
40
0.25550516053604905
40
0.25550516053604905
40
0.28634738033232854
40
0.28634738033232854
40
0.28634738033232854
40
0.28634738033232854
10
360.67084080818682
20
38.61045992858385
30
0
10
360.48670795360169
20
38.541007717286952
30
0
10
360.2909761719236
20
38.507576617324581
30
0
10
359.90465098323972
20
38.518721932308296
30
0
10
359.71773292239232
20
38.560568811097873
30
0
10
359.37729298972158
20
38.711939020405175
30
0
10
359.22601067350831
20
38.817597664614667
30
0
10
358.9781717151206
20
39.076865959064641
30
0
10
358.88212581987307
20
39.226149101557297
30
0
10
358.77970752216135
20
39.487647601880241
30
0
10
358.75318067647044
20
39.589682305179956
30
0
10
358.7257833952404
20
39.795355904899523
30
0
10
358.72440011860812
20
39.898167499388421
30
0
10
358.7355
20
40
30
0
0
ARC
5
161
100
AcDbEntity
8
0
100
AcDbCircle
10
359.99999999999972
20
40.000000000000114
30
0
40
1.2644999999997051
100
AcDbArc
50
134.99999999999204
51
180
0
SPLINE
5
162
100
AcDbEntity
8
0
100
AcDbSpline
70
1064
71
3
72
18
73
14
74
0
42
0.000000001
43
0.0000000001
44
0.0000000001
40
0
40
0
40
0
40
0
40
0.050111023162088673
40
0.050111023162088673
40
0.1022614797023699
40
0.1022614797023699
40
0.15645047883784549
40
0.15645047883784549
40
0.212677099577358
40
0.212677099577358
40
0.24852047511071884
40
0.24852047511071884
40
0.28514280399497854
40
0.28514280399497854
40
0.28514280399497854
40
0.28514280399497854
10
359.10586347518966
20
40.894136524810378
30
0
10
359.21048216402346
20
41.024352513654264
30
0
10
359.33997797228386
20
41.132442847523578
30
0
10
359.6386087604086
20
41.297425414142282
30
0
10
359.80611913968835
20
41.350427983676482
30
0
10
360.15883568756232
20
41.391339597439227
30
0
10
360.34092681171279
20
41.376249495782808
30
0
10
360.69617591416295
20
41.276475922879889
30
0
10
360.86518180410587
20
41.190235802418755
30
0
10
361.10785787158198
20
41.000688460514624
30
0
10
361.19296090603382
20
40.915623181985467
30
0
10
361.34276246550553
20
40.72504372251997
30
0
10
361.40642030266741
20
40.619839796326062
30
0
10
361.45690929179437
20
40.508197122663233
30
0
0
ARC
5
163
100
AcDbEntity
8
0
100
AcDbCircle
10
359.99999999999972
20
40.000000000000114
30
0
40
1.5430000000002084
100
AcDbArc
50
-64.22972402208903
51
19.229724022088515
0
SPLINE
5
164
100
AcDbEntity
8
0
100
AcDbSpline
70
1064
71
3
72
18
73
14
74
0
42
0.000000001
43
0.0000000001
44
0.0000000001
40
0
40
0
40
0
40
0
40
0.059038687326693103
40
0.059038687326693103
40
0.11603342985480763
40
0.11603342985480763
40
0.17098340798691314
40
0.17098340798691314
40
0.2238878390396512
40
0.2238878390396512
40
0.25550516053610056
40
0.25550516053610056
40
0.28634738033227219
40
0.28634738033227219
40
0.28634738033227219
40
0.28634738033227219
10
10.670840808186774
20
358.61045992858379
30
0
10
10.486707953601471
20
358.5410077172869
30
0
10
10.290976171923505
20
358.50757661732462
30
0
10
9.9046509832397636
20
358.51872193230832
30
0
10
9.7177329223922904
20
358.56056881109788
30
0
10
9.3772929897215338
20
358.71193902040517
30
0
10
9.2260106735082452
20
358.81759766461471
30
0
10
8.978171715120558
20
359.07686595906466
30
0
10
8.8821258198730337
20
359.22614910155738
30
0
10
8.7797075221614946
20
359.48764760187987
30
0
10
8.753180676470393
20
359.58968230517974
30
0
10
8.7257833952403114
20
359.79535590489974
30
0
10
8.7244001186081039
20
359.89816749938859
30
0
10
8.7355
20
360.00000000000006
30
0
0
ARC
5
165
100
AcDbEntity
8
0
100
AcDbCircle
10
9.9999999999997566
20
360.00000000000006
30
0
40
1.2644999999997732
100
AcDbArc
50
134.99999999999272
51
180
0
SPLINE
5
166
100
AcDbEntity
8
0
100
AcDbSpline
70
1064
71
3
72
18
73
14
74
0
42
0.000000001
43
0.0000000001
44
0.0000000001
40
0
40
0
40
0
40
0
40
0.050111023162097749
40
0.050111023162097749
40
0.10226147970239288
40
0.10226147970239288
40
0.15645047883784138
40
0.15645047883784138
40
0.2126770995773361
40
0.2126770995773361
40
0.2485204751107426
40
0.2485204751107426
40
0.28514280399512215
40
0.28514280399512215
40
0.28514280399512215
40
0.28514280399512215
10
9.1058634751896523
20
360.89413652481039
30
0
10
9.2104821640235226
20
361.02435251365432
30
0
10
9.3399779722839575
20
361.13244284752363
30
0
10
9.638608760408637
20
361.29742541414225
30
0
10
9.8061191396882972
20
361.35042798367647
30
0
10
10.158835687562345
20
361.39133959743924
30
0
10
10.340926811712837
20
361.37624949578282
30
0
10
10.696175914163087
20
361.27647592287985
30
0
10
10.865181804105983
20
361.19023580241867
30
0
10
11.107857871582196
20
361.00068846051448
30
0
10
11.192960906034035
20
360.9156231819851
30
0
10
11.342762465505565
20
360.7250437225199
30
0
10
11.406420302667442
20
360.619839796326
30
0
10
11.456909291794418
20
360.50819712266309
30
0
0
ARC
5
167
100
AcDbEntity
8
0
100
AcDbCircle
10
9.9999999999997566
20
360.00000000000006
30
0
40
1.5430000000001829
100
AcDbArc
50
-64.229724022092086
51
19.229724022086199
0
SPLINE
5
168
100
AcDbEntity
8
0
100
AcDbSpline
70
1064
71
3
72
18
73
14
74
0
42
0.000000001
43
0.0000000001
44
0.0000000001
40
0
40
0
40
0
40
0
40
0.059038687326682701
40
0.059038687326682701
40
0.11603342985481786
40
0.11603342985481786
40
0.17098340798693629
40
0.17098340798693629
40
0.22388783903968623
40
0.22388783903968623
40
0.25550516053616046
40
0.25550516053616046
40
0.28634738033235374
40
0.28634738033235374
40
0.28634738033235374
40
0.28634738033235374
10
52.670840808186846
20
173.57515992858384
30
0
10
52.486707953601581
20
173.5057077172869
30
0
10
52.290976171923596
20
173.47227661732461
30
0
10
51.904650983239705
20
173.48342193230832
30
0
10
51.717732922392301
20
173.52526881109787
30
0
10
51.377292989721667
20
173.67663902040516
30
0
10
51.22601067350832
20
173.78229766461465
30
0
10
50.978171715120567
20
174.04156595906471
30
0
10
50.88212581987306
20
174.19084910155735
30
0
10
50.779707522161495
20
174.45234760187989
30
0
10
50.7531806764704
20
174.55438230517979
30
0
10
50.72578339524032
20
174.76005590489973
30
0
10
50.724400118608102
20
174.86286749938853
30
0
10
50.735499999999988
20
174.96470000000002
30
0
0
ARC
5
169
100
AcDbEntity
8
0
100
AcDbCircle
10
52.000000000000099
20
174.96469999999994
30
0
40
1.2645000000001194
100
AcDbArc
50
134.99999999999841
51
180
0
SPLINE
5
170
100
AcDbEntity
8
0
100
AcDbSpline
70
1064
71
3
72
18
73
14
74
0
42
0.000000001
43
0.0000000001
44
0.0000000001
40
0
40
0
40
0
40
0
40
0.050111023162107464
40
0.050111023162107464
40
0.10226147970245064
40
0.10226147970245064
40
0.15645047883799915
40
0.15645047883799915
40
0.21267709957759573
40
0.21267709957759573
40
0.24852047511099778
40
0.24852047511099778
40
0.28514280399534331
40
0.28514280399534331
40
0.28514280399534331
40
0.28514280399534331
10
51.105863475189608
20
175.85883652481044
30
0
10
51.210482164023496
20
175.98905251365437
30
0
10
51.339977972283968
20
176.09714284752368
30
0
10
51.63860876040863
20
176.26212541414233
30
0
10
51.806119139688349
20
176.31512798367652
30
0
10
52.158835687562338
20
176.35603959743929
30
0
10
52.34092681171289
20
176.34094949578281
30
0
10
52.696175914162914
20
176.2411759228799
30
0
10
52.865181804105752
20
176.15493580241889
30
0
10
53.107857871582105
20
175.96538846051462
30
0
10
53.192960906033917
20
175.8803231819854
30
0
10
53.342762465505579
20
175.68974372251998
30
0
10
53.406420302667463
20
175.58453979632606
30
0
10
53.456909291794418
20
175.4728971226632
30
0
0
ARC
5
171
100
AcDbEntity
8
0
100
AcDbCircle
10
52.000000000000099
20
174.96469999999994
30
0
40
1.5429999999999056
100
AcDbArc
50
-64.229724022098395
51
19.229724022098193
0
SPLINE
5
172
100
AcDbEntity
8
0
100
AcDbSpline
70
1064
71
3
72
18
73
14
74
0
42
0.000000001
43
0.0000000001
44
0.0000000001
40
0
40
0
40
0
40
0
40
0.059038687326661232
40
0.059038687326661232
40
0.11603342985474932
40
0.11603342985474932
40
0.17098340798685147
40
0.17098340798685147
40
0.22388783903959769
40
0.22388783903959769
40
0.25550516053605687
40
0.25550516053605687
40
0.28634738033223478
40
0.28634738033223478
40
0.28634738033223478
40
0.28634738033223478
10
4.4108408081868076
20
179.92515992858387
30
0
10
4.226707953601605
20
179.85570771728698
30
0
10
4.0309761719235961
20
179.82227661732463
30
0
10
3.6446509832397345
20
179.83342193230834
30
0
10
3.4577329223922986
20
179.8752688110979
30
0
10
3.1172929897215287
20
180.02663902040524
30
0
10
2.9660106735082614
20
180.13229766461475
30
0
10
2.7181717151205675
20
180.39156595906476
30
0
10
2.6221258198730513
20
180.5408491015574
30
0
10
2.5197075221615046
20
180.80234760187992
30
0
10
2.4931806764704048
20
180.90438230517981
30
0
10
2.4657833952403205
20
181.11005590489978
30
0
10
2.4644001186081099
20
181.21286749938858
30
0
10
2.4755000000000011
20
181.31470000000007
30
0
0
ARC
5
173
100
AcDbEntity
8
0
100
AcDbCircle
10
3.7400000000000677
20
181.31470000000004
30
0
40
1.2645000000000481
100
AcDbArc
50
135.00000000000017
51
180
0
SPLINE
5
174
100
AcDbEntity
8
0
100
AcDbSpline
70
1064
71
3
72
18
73
14
74
0
42
0.000000001
43
0.0000000001
44
0.0000000001
40
0
40
0
40
0
40
0
40
0.050111023162099165
40
0.050111023162099165
40
0.10226147970240376
40
0.10226147970240376
40
0.15645047883787627
40
0.15645047883787627
40
0.21267709957741188
40
0.21267709957741188
40
0.24852047511081804
40
0.24852047511081804
40
0.28514280399512487
40
0.28514280399512487
40
0.28514280399512487
40
0.28514280399512487
10
2.8458634751896437
20
182.20883652481047
30
0
10
2.9504821640235153
20
182.33905251365434
30
0
10
3.079977972283956
20
182.44714284752365
30
0
10
3.3786087604086319
20
182.61212541414233
30
0
10
3.5461191396883089
20
182.66512798367654
30
0
10
3.8988356875623431
20
182.70603959743931
30
0
10
4.0809268117128532
20
182.69094949578286
30
0
10
4.4361759141630799
20
182.5911759228799
30
0
10
4.6051818041059871
20
182.50493580241869
30
0
10
4.847857871582101
20
182.31538846051455
30
0
10
4.9329609060339035
20
182.23032318198537
30
0
10
5.082762465505529
20
182.03974372251997
30
0
10
5.1464203026674005
20
181.93453979632619
30
0
10
5.1969092917944026
20
181.82289712266322
30
0
0
ARC
5
175
100
AcDbEntity
8
0
100
AcDbCircle
10
3.7400000000000677
20
181.31470000000004
30
0
40
1.5429999999999664
100
AcDbArc
50
-64.229724022099973
51
19.22972402209518
0
SPLINE
5
176
100
AcDbEntity
8
0
100
AcDbSpline
70
1064
71
3
72
18
73
14
74
0
42
0.000000001
43
0.0000000001
44
0.0000000001
40
0
40
0
40
0
40
0
40
0.059038687326667443
40
0.059038687326667443
40
0.1160334298547812
40
0.1160334298547812
40
0.1709834079868856
40
0.1709834079868856
40
0.22388783903962908
40
0.22388783903962908
40
0.25550516053608979
40
0.25550516053608979
40
0.28634738033226892
40
0.28634738033226892
40
0.28634738033226892
40
0.28634738033226892
10
30.670840808186849
20
38.610459928583836
30
0
10
30.486707953601631
20
38.541007717286924
30
0
10
30.290976171923628
20
38.507576617324574
30
0
10
29.904650983239716
20
38.518721932308281
30
0
10
29.717732922392312
20
38.560568811097873
30
0
10
29.377292989721656
20
38.71193902040514
30
0
10
29.226010673508323
20
38.817597664614631
30
0
10
28.978171715120567
20
39.076865959064691
30
0
10
28.88212581987306
20
39.226149101557326
30
0
10
28.779707522161509
20
39.487647601879829
30
0
10
28.753180676470407
20
39.589682305179728
30
0
10
28.725783395240324
20
39.795355904899679
30
0
10
28.724400118608102
20
39.898167499388506
30
0
10
28.735499999999995
20
40
30
0
0
ARC
5
177
100
AcDbEntity
8
0
100
AcDbCircle
10
30.000000000000036
20
39.999999999999986
30
0
40
1.2645000000000348
100
AcDbArc
50
135.00000000000091
51
180
0
SPLINE
5
178
100
AcDbEntity
8
0
100
AcDbSpline
70
1064
71
3
72
18
73
14
74
0
42
0.000000001
43
0.0000000001
44
0.0000000001
40
0
40
0
40
0
40
0
40
0.050111023162089478
40
0.050111023162089478
40
0.10226147970238129
40
0.10226147970238129
40
0.1564504788378831
40
0.1564504788378831
40
0.21267709957742414
40
0.21267709957742414
40
0.24852047511081349
40
0.24852047511081349
40
0.28514280399511316
40
0.28514280399511316
40
0.28514280399511316
40
0.28514280399511316
10
29.105863475189601
20
40.894136524810385
30
0
10
29.210482164023446
20
41.024352513654279
30
0
10
29.339977972283833
20
41.132442847523592
30
0
10
29.638608760408633
20
41.297425414142317
30
0
10
29.806119139688398
20
41.350427983676497
30
0
10
30.158835687562274
20
41.391339597439242
30
0
10
30.340926811712773
20
41.376249495782822
30
0
10
30.696175914162971
20
41.276475922879897
30
0
10
30.865181804105855
20
41.190235802418762
30
0
10
31.107857871582066
20
41.000688460514603
30
0
10
31.192960906033875
20
40.91562318198541
30
0
10
31.342762465505523
20
40.725043722520013
30
0
10
31.406420302667403
20
40.619839796326154
30
0
10
31.456909291794393
20
40.508197122663233
30
0
0
ARC
5
179
100
AcDbEntity
8
0
100
AcDbCircle
10
30.000000000000036
20
39.999999999999986
30
0
40
1.5429999999999786
100
AcDbArc
50
-64.229724022097074
51
19.229724022097439
0
SPLINE
5
180
100
AcDbEntity
8
0
100
AcDbSpline
70
1064
71
3
72
18
73
14
74
0
42
0.000000001
43
0.0000000001
44
0.0000000001
40
0
40
0
40
0
40
0
40
0.059038687326677657
40
0.059038687326677657
40
0.11603342985480439
40
0.11603342985480439
40
0.17098340798691886
40
0.17098340798691886
40
0.22388783903966619
40
0.22388783903966619
40
0.25550516053613581
40
0.25550516053613581
40
0.28634738033231821
40
0.28634738033231821
40
0.28634738033231821
40
0.28634738033231821
10
52.670840808186838
20
98.610459928583822
30
0
10
52.486707953601588
20
98.541007717286902
30
0
10
52.290976171923596
20
98.507576617324574
30
0
10
51.904650983239719
20
98.518721932308296
30
0
10
51.717732922392308
20
98.56056881109788
30
0
10
51.377292989721646
20
98.711939020405154
30
0
10
51.22601067350832
20
98.817597664614638
30
0
10
50.978171715120581
20
99.076865959064691
30
0
10
50.882125819873067
20
99.226149101557311
30
0
10
50.779707522161502
20
99.487647601879857
30
0
10
50.753180676470407
20
99.58968230517975
30
0
10
50.725783395240327
20
99.795355904899665
30
0
10
50.724400118608102
20
99.898167499388506
30
0
10
50.735500000000002
20
100.00000000000001
30
0
0
ARC
5
181
100
AcDbEntity
8
0
100
AcDbCircle
10
52.000000000000021
20
100
30
0
40
1.2645000000000191
100
AcDbArc
50
135
51
180
0
SPLINE
5
182
100
AcDbEntity
8
0
100
AcDbSpline
70
1064
71
3
72
18
73
14
74
0
42
0.000000001
43
0.0000000001
44
0.0000000001
40
0
40
0
40
0
40
0
40
0.050111023162085863
40
0.050111023162085863
40
0.10226147970237004
40
0.10226147970237004
40
0.15645047883787411
40
0.15645047883787411
40
0.21267709957741671
40
0.21267709957741671
40
0.248520475110798
40
0.248520475110798
40
0.28514280399509406
40
0.28514280399509406
40
0.28514280399509406
40
0.28514280399509406
10
51.105863475189615
20
100.89413652481039
30
0
10
51.21048216402346
20
101.02435251365426
30
0
10
51.339977972283826
20
101.13244284752358
30
0
10
51.638608760408658
20
101.29742541414232
30
0
10
51.806119139688448
20
101.3504279836765
30
0
10
52.158835687562302
20
101.39133959743923
30
0
10
52.340926811712805
20
101.3762494957828
30
0
10
52.696175914162957
20
101.27647592287988
30
0
10
52.865181804105823
20
101.19023580241878
30
0
10
53.10785787158207
20
101.0006884605146
30
0
10
53.192960906033882
20
100.9156231819854
30
0
10
53.342762465505544
20
100.72504372251998
30
0
10
53.406420302667421
20
100.61983979632609
30
0
10
53.456909291794396
20
100.5081971226632
30
0
0
ARC
5
183
100
AcDbEntity
8
0
100
AcDbCircle
10
52.000000000000021
20
100
30
0
40
1.5430000000000008
100
AcDbArc
50
-64.229724022097429
51
19.229724022095585
0
SPLINE
5
184
100
AcDbEntity
8
0
100
AcDbSpline
70
1064
71
3
72
18
73
14
74
0
42
0.000000001
43
0.0000000001
44
0.0000000001
40
0
40
0
40
0
40
0
40
0.059038687326660656
40
0.059038687326660656
40
0.1160334298547662
40
0.1160334298547662
40
0.17098340798686557
40
0.17098340798686557
40
0.22388783903960668
40
0.22388783903960668
40
0.25550516053606276
40
0.25550516053606276
40
0.28634738033223367
40
0.28634738033223367
40
0.28634738033223367
40
0.28634738033223367
10
20.670840808186846
20
18.610459928583843
30
0
10
20.486707953601648
20
18.541007717286934
30
0
10
20.290976171923635
20
18.507576617324574
30
0
10
19.904650983239712
20
18.518721932308289
30
0
10
19.717732922392312
20
18.560568811097877
30
0
10
19.377292989721649
20
18.711939020405147
30
0
10
19.226010673508323
20
18.817597664614638
30
0
10
18.97817171512057
20
19.076865959064698
30
0
10
18.882125819873067
20
19.226149101557336
30
0
10
18.779707522161523
20
19.487647601879821
30
0
10
18.753180676470418
20
19.589682305179721
30
0
10
18.725783395240331
20
19.795355904899679
30
0
10
18.724400118608109
20
19.898167499388503
30
0
10
18.735500000000002
20
20.000000000000004
30
0
0
ARC
5
185
100
AcDbEntity
8
0
100
AcDbCircle
10
19.999999999999996
20
20.000000000000004
30
0
40
1.2644999999999937
100
AcDbArc
50
135
51
180
0
SPLINE
5
186
100
AcDbEntity
8
0
100
AcDbSpline
70
1064
71
3
72
18
73
14
74
0
42
0.000000001
43
0.0000000001
44
0.0000000001
40
0
40
0
40
0
40
0
40
0.050111023162091803
40
0.050111023162091803
40
0.10226147970239072
40
0.10226147970239072
40
0.15645047883790342
40
0.15645047883790342
40
0.21267709957745728
40
0.21267709957745728
40
0.24852047511084799
40
0.24852047511084799
40
0.28514280399516057
40
0.28514280399516057
40
0.28514280399516057
40
0.28514280399516057
10
19.105863475189604
20
20.894136524810385
30
0
10
19.210482164023453
20
21.024352513654282
30
0
10
19.339977972283858
20
21.132442847523599
30
0
10
19.638608760408633
20
21.297425414142314
30
0
10
19.806119139688391
20
21.350427983676493
30
0
10
20.158835687562284
20
21.391339597439242
30
0
10
20.340926811712798
20
21.376249495782812
30
0
10
20.696175914162946
20
21.276475922879897
30
0
10
20.865181804105816
20
21.190235802418798
30
0
10
21.107857871582066
20
21.000688460514606
30
0
10
21.192960906033878
20
20.915623181985406
30
0
10
21.34276246550553
20
20.725043722519992
30
0
10
21.406420302667414
20
20.619839796326112
30
0
10
21.456909291794389
20
20.508197122663226
30
0
0
ARC
5
187
100
AcDbEntity
8
0
100
AcDbCircle
10
19.999999999999996
20
20.000000000000004
30
0
40
1.5430000000000059
100
AcDbArc
50
-64.22972402209605
51
19.229724022096164
0
CIRCLE
5
188
100
AcDbEntity
8
0
100
AcDbCircle
10
330
20
197.00000000000003
30
0
40
2.0000000000000284
0
CIRCLE
5
189
100
AcDbEntity
8
0
100
AcDbCircle
10
329.99999999999989
20
80.000000000000028
30
0
40
2.0000000000000284
0
CIRCLE
5
190
100
AcDbEntity
8
0
100
AcDbCircle
10
140
20
6.0000000000000675
30
0
40
1.5000000000000036
0
CIRCLE
5
191
100
AcDbEntity
8
0
100
AcDbCircle
10
230
20
6.0000000000000853
30
0
40
1.4999999999999858
0
CIRCLE
5
192
100
AcDbEntity
8
0
100
AcDbCircle
10
50
20
6.0000000000000675
30
0
40
1.5000000000000036
0
CIRCLE
5
193
100
AcDbEntity
8
0
100
AcDbCircle
10
320
20
6.0000000000000853
30
0
40
1.4999999999999858
0
LWPOLYLINE
5
194
100
AcDbEntity
8
0
100
AcDbPolyline
90
24
70
1
43
0.0
10
310
20
50
10
315
20
55
10
315
20
325
10
310
20
330
10
60
20
330
10
55
20
325
10
55
20
55
10
60
20
50
10
80
20
50.000000000000007
10
95
20
35.00000000000032
10
95
20
20.00000000000032
42
0.99999999999999989
10
105
20
20.00000000000032
10
105.00000000000041
20
35.000000000000064
10
110.00000000000041
20
40
10
155
20
40
10
180
20
14.999999999999867
10
190
20
14.999999999999858
10
215
20
40
10
259.99999999999955
20
40
10
264.99999999999955
20
35.000000000000071
10
265
20
20.000000000000284
42
0.99999999999999989
10
275
20
20.000000000000284
10
275
20
35.000000000000284
10
290
20
50
0
LWPOLYLINE
5
195
100
AcDbEntity
8
0
100
AcDbPolyline
90
16
70
1
43
0.0
10
4.9999999999997868
20
370
10
365.00000000000011
20
370
10
370
20
365
10
370
20
5
10
365
20
0
10
345
20
0
10
339.00000000000006
20
5.9999999999999432
10
333
20
6.0000000000000853
10
329
20
2.0000000000000284
10
41
20
1.9999999999999996
10
37.000000000000036
20
6.0000000000000675
10
30.999999999999957
20
5.9999999999999654
10
25
20
0
10
5
20
0
10
0
20
5
10
0
20
365
0
CIRCLE
5
196
100
AcDbEntity
8
0
100
AcDbCircle
10
80
20
29.600000000000009
30
0
40
2.6500000000000057
0
CIRCLE
5
197
100
AcDbEntity
8
0
100
AcDbCircle
10
290
20
29.599999999999991
30
0
40
2.6500000000000057
0
CIRCLE
5
198
100
AcDbEntity
8
0
100
AcDbCircle
10
290
20
9.6000000000000298
30
0
40
2.6500000000000057
0
CIRCLE
5
199
100
AcDbEntity
8
0
100
AcDbCircle
10
80
20
9.6000000000000085
30
0
40
2.6500000000000057
0
CIRCLE
5
200
100
AcDbEntity
8
0
100
AcDbCircle
10
60
20
29.600000000000009
30
0
40
2.6499999999999968
0
CIRCLE
5
201
100
AcDbEntity
8
0
100
AcDbCircle
10
310
20
29.600000000000026
30
0
40
2.6500000000000057
0
CIRCLE
5
202
100
AcDbEntity
8
0
100
AcDbCircle
10
310
20
9.6000000000000281
30
0
40
2.6500000000000057
0
CIRCLE
5
203
100
AcDbEntity
8
0
100
AcDbCircle
10
60
20
9.6000000000000085
30
0
40
2.6499999999999968
0
CIRCLE
5
204
100
AcDbEntity
8
0
100
AcDbCircle
10
330
20
197.00000000000003
30
0
40
2.0000000000000284
0
CIRCLE
5
205
100
AcDbEntity
8
0
100
AcDbCircle
10
329.99999999999989
20
80.000000000000028
30
0
40
2.0000000000000284
0
CIRCLE
5
206
100
AcDbEntity
8
0
100
AcDbCircle
10
140
20
6.0000000000000675
30
0
40
1.5000000000000036
0
CIRCLE
5
207
100
AcDbEntity
8
0
100
AcDbCircle
10
230
20
6.0000000000000853
30
0
40
1.4999999999999858
0
CIRCLE
5
208
100
AcDbEntity
8
0
100
AcDbCircle
10
50
20
6.0000000000000675
30
0
40
1.5000000000000036
0
CIRCLE
5
209
100
AcDbEntity
8
0
100
AcDbCircle
10
320
20
6.0000000000000853
30
0
40
1.4999999999999858
0
SPLINE
5
210
100
AcDbEntity
8
0
100
AcDbSpline
70
1064
71
3
72
18
73
14
74
0
42
0.000000001
43
0.0000000001
44
0.0000000001
40
0
40
0
40
0
40
0
40
0.050111023162076836
40
0.050111023162076836
40
0.1022614797023248
40
0.1022614797023248
40
0.1564504788377703
40
0.1564504788377703
40
0.21267709957727848
40
0.21267709957727848
40
0.24852047511064435
40
0.24852047511064435
40
0.28514280399491704
40
0.28514280399491704
40
0.28514280399491704
40
0.28514280399491704
10
348.73550000000012
20
20.000000000000043
30
0
10
348.71739997558291
20
19.833946806956401
30
0
10
348.73253593167931
20
19.665948034740577
30
0
10
348.82703949539979
20
19.338123887752797
30
0
10
348.90800874416959
20
19.182197686307045
30
0
10
349.12848812748706
20
18.903860543947683
30
0
10
349.26791630937794
20
18.785772988477028
30
0
10
349.58966592871366
20
18.605124509106989
30
0
10
349.77015211354109
20
18.546600272256313
30
0
10
350.07578021730154
20
18.509032590128502
30
0
10
350.19610738535346
20
18.509005892659598
30
0
10
350.43679311203101
20
18.537840222267718
30
0
10
350.55619640998293
20
18.567217743553982
30
0
10
350.67084080818677
20
18.610459928583882
30
0
0
ARC
5
211
100
AcDbEntity
8
0
100
AcDbCircle
10
350
20
20
30
0
40
1.5429999999999158
100
AcDbArc
50
-64.22972402209804
51
19.229724022096473
0
SPLINE
5
212
100
AcDbEntity
8
0
100
AcDbSpline
70
1064
71
3
72
18
73
14
74
0
42
0.000000001
43
0.0000000001
44
0.0000000001
40
0
40
0
40
0
40
0
40
0.059038687326619425
40
0.059038687326619425
40
0.11603342985467699
40
0.11603342985467699
40
0.17098340798674011
40
0.17098340798674011
40
0.22388783903944059
40
0.22388783903944059
40
0.25550516053586836
40
0.25550516053586836
40
0.28634738033197688
40
0.28634738033197688
40
0.28634738033197688
40
0.28634738033197688
10
351.45690929179432
20
20.50819712266318
30
0
10
351.37581783125438
20
20.687508842355932
30
0
10
351.26105391862205
20
20.849551469960154
30
0
10
350.97999983015706
20
21.114843702818323
30
0
10
350.81823859004197
20
21.21742451940613
30
0
10
350.4704763035931
20
21.351117002913451
30
0
10
350.28879160811351
20
21.383377810769986
30
0
10
349.93021263084307
20
21.375296049735869
30
0
10
349.75673880463501
20
21.337651631197147
30
0
10
349.49941076895755
20
21.225164941178431
30
0
10
349.40850402586614
20
21.171772823030388
30
0
10
349.24369802544931
20
21.045712429301297
30
0
10
349.17002112551472
20
20.97399177794053
30
0
10
349.10586347518966
20
20.894136524810335
30
0
0
ARC
5
213
100
AcDbEntity
8
0
100
AcDbCircle
10
350
20
20
30
0
40
1.2644999999999309
100
AcDbArc
50
135.00000000000011
51
180
0
SPLINE
5
214
100
AcDbEntity
8
0
100
AcDbSpline
70
1064
71
3
72
18
73
14
74
0
42
0.000000001
43
0.0000000001
44
0.0000000001
40
0
40
0
40
0
40
0
40
0.050111023162092309
40
0.050111023162092309
40
0.10226147970240264
40
0.10226147970240264
40
0.15645047883791488
40
0.15645047883791488
40
0.21267709957745812
40
0.21267709957745812
40
0.24852047511083644
40
0.24852047511083644
40
0.28514280399510489
40
0.28514280399510489
40
0.28514280399510489
40
0.28514280399510489
10
8.7355
20
360.00000000000006
30
0
10
8.7173999755828149
20
359.83394680695642
30
0
10
8.7325359316792657
20
359.6659480347405
30
0
10
8.8270394953996885
20
359.33812388775277
30
0
10
8.9080087441695923
20
359.18219768630701
30
0
10
9.1284881274869658
20
358.90386054394776
30
0
10
9.2679163093776715
20
358.78577298847711
30
0
10
9.5896659287135595
20
358.60512450910687
30
0
10
9.7701521135410765
20
358.54660027225623
30
0
10
10.075780217301382
20
358.50903259012847
30
0
10
10.196107385353251
20
358.5090058926595
30
0
10
10.436793112031049
20
358.53784022226762
30
0
10
10.556196409983079
20
358.5672177435539
30
0
10
10.67084080818676
20
358.61045992858379
30
0
0
ARC
5
215
100
AcDbEntity
8
0
100
AcDbCircle
10
10
20
360
30
0
40
1.5429999999999435
100
AcDbArc
50
-64.22972402209885
51
19.229724022091045
0
SPLINE
5
216
100
AcDbEntity
8
0
100
AcDbSpline
70
1064
71
3
72
18
73
14
74
0
42
0.000000001
43
0.0000000001
44
0.0000000001
40
0
40
0
40
0
40
0
40
0.059038687326672647
40
0.059038687326672647
40
0.11603342985479453
40
0.11603342985479453
40
0.17098340798686285
40
0.17098340798686285
40
0.22388783903956183
40
0.22388783903956183
40
0.25550516053594152
40
0.25550516053594152
40
0.28634738033200063
40
0.28634738033200063
40
0.28634738033200063
40
0.28634738033200063
10
11.456909291794453
20
360.50819712266303
30
0
10
11.375817831254471
20
360.68750884235601
30
0
10
11.261053918622157
20
360.84955146996009
30
0
10
10.979999830157199
20
361.11484370281823
30
0
10
10.818238590042156
20
361.21742451940611
30
0
10
10.470476303593381
20
361.35111700291338
30
0
10
10.288791608113765
20
361.38337781077007
30
0
10
9.9302126308431617
20
361.37529604973599
30
0
10
9.7567388046351518
20
361.33765163119728
30
0
10
9.4994107689577554
20
361.2251649411786
30
0
10
9.4085040258662715
20
361.17177282303061
30
0
10
9.2436980254493371
20
361.04571242930143
30
0
10
9.1700211255147224
20
360.97399177794068
30
0
10
9.1058634751896754
20
360.89413652481051
30
0
0
ARC
5
217
100
AcDbEntity
8
0
100
AcDbCircle
10
10
20
360
30
0
40
1.2645000000000761
100
AcDbArc
50
134.99999999999235
51
180
0
SPLINE
5
218
100
AcDbEntity
8
0
100
AcDbSpline
70
1064
71
3
72
18
73
14
74
0
42
0.000000001
43
0.0000000001
44
0.0000000001
40
0
40
0
40
0
40
0
40
0.050111023162091782
40
0.050111023162091782
40
0.10226147970239188
40
0.10226147970239188
40
0.1564504788379108
40
0.1564504788379108
40
0.21267709957748193
40
0.21267709957748193
40
0.24852047511084926
40
0.24852047511084926
40
0.28514280399514202
40
0.28514280399514202
40
0.28514280399514202
40
0.28514280399514202
10
2.4755000000000011
20
181.31470000000013
30
0
10
2.4573999755828178
20
181.14864680695646
30
0
10
2.4725359316792579
20
180.98064803474057
30
0
10
2.5670394953996873
20
180.65282388775279
30
0
10
2.6480087441695899
20
180.49689768630702
30
0
10
2.8684881274869998
20
180.21856054394772
30
0
10
3.0079163093777899
20
180.10047298847707
30
0
10
3.32966592871349
20
179.919824509107
30
0
10
3.5101521135409119
20
179.8613002722563
30
0
10
3.8157802173013833
20
179.82373259012846
30
0
10
3.9361073853532575
20
179.82370589265952
30
0
10
4.1767931120311443
20
179.85254022226766
30
0
10
4.2961964099832652
20
179.88191774355408
30
0
10
4.4108408081867925
20
179.92515992858387
30
0
0
ARC
5
219
100
AcDbEntity
8
0
100
AcDbCircle
10
3.7400000000000007
20
181.31470000000004
30
0
40
1.543000000000021
100
AcDbArc
50
-64.22972402209875
51
19.229724022092185
0
SPLINE
5
220
100
AcDbEntity
8
0
100
AcDbSpline
70
1064
71
3
72
18
73
14
74
0
42
0.000000001
43
0.0000000001
44
0.0000000001
40
0
40
0
40
0
40
0
40
0.059038687326683478
40
0.059038687326683478
40
0.11603342985481575
40
0.11603342985481575
40
0.1709834079869042
40
0.1709834079869042
40
0.22388783903964823
40
0.22388783903964823
40
0.2555051605360914
40
0.2555051605360914
40
0.28634738033225254
40
0.28634738033225254
40
0.28634738033225254
40
0.28634738033225254
10
5.1969092917944169
20
181.82289712266316
30
0
10
5.11581783125441
20
182.00220884235614
30
0
10
5.0010539186220822
20
182.16425146996022
30
0
10
4.7199998301571391
20
182.42954370281834
30
0
10
4.5582385900420936
20
182.53212451940615
30
0
10
4.2104763035932784
20
182.66581700291346
30
0
10
4.0287916081136741
20
182.69807781077009
30
0
10
3.6702126308430207
20
182.68999604973601
30
0
10
3.49673880463506
20
182.65235163119723
30
0
10
3.2394107689576179
20
182.53986494117862
30
0
10
3.1485040258661803
20
182.48647282303054
30
0
10
2.9836980254492
20
182.36041242930133
30
0
10
2.9100211255146573
20
182.28869177794058
30
0
10
2.8458634751896525
20
182.20883652481047
30
0
0
ARC
5
221
100
AcDbEntity
8
0
100
AcDbCircle
10
3.7400000000000007
20
181.31470000000004
30
0
40
1.2644999999999675
100
AcDbArc
50
134.99999999999952
51
180
0
SPLINE
5
222
100
AcDbEntity
8
0
100
AcDbSpline
70
1064
71
3
72
18
73
14
74
0
42
0.000000001
43
0.0000000001
44
0.0000000001
40
0
40
0
40
0
40
0
40
0.050111023162091838
40
0.050111023162091838
40
0.10226147970239616
40
0.10226147970239616
40
0.15645047883791513
40
0.15645047883791513
40
0.21267709957746908
40
0.21267709957746908
40
0.24852047511086547
40
0.24852047511086547
40
0.28514280399516578
40
0.28514280399516578
40
0.28514280399516578
40
0.28514280399516578
10
50.735500000000002
20
100.00000000000003
30
0
10
50.717399975582829
20
99.833946806956334
30
0
10
50.732535931679273
20
99.665948034740467
30
0
10
50.827039495399731
20
99.338123887752673
30
0
10
50.908008744169663
20
99.182197686306907
30
0
10
51.128488127487032
20
98.903860543947673
30
0
10
51.267916309377767
20
98.785772988477021
30
0
10
51.589665928713615
20
98.605124509106901
30
0
10
51.770152113541108
20
98.546600272256228
30
0
10
52.075780217301535
20
98.509032590128413
30
0
10
52.196107385353471
20
98.509005892659502
30
0
10
52.436793112031033
20
98.537840222267633
30
0
10
52.556196409982981
20
98.567217743553911
30
0
10
52.670840808186796
20
98.610459928583808
30
0
0
ARC
5
223
100
AcDbEntity
8
0
100
AcDbCircle
10
52
20
100
30
0
40
1.543000000000021
100
AcDbArc
50
-64.229724022098594
51
19.229724022095489
0
SPLINE
5
224
100
AcDbEntity
8
0
100
AcDbSpline
70
1064
71
3
72
18
73
14
74
0
42
0.000000001
43
0.0000000001
44
0.0000000001
40
0
40
0
40
0
40
0
40
0.059038687326660767
40
0.059038687326660767
40
0.11603342985476485
40
0.11603342985476485
40
0.17098340798686731
40
0.17098340798686731
40
0.22388783903962572
40
0.22388783903962572
40
0.25550516053607658
40
0.25550516053607658
40
0.28634738033222623
40
0.28634738033222623
40
0.28634738033222623
40
0.28634738033222623
10
53.456909291794396
20
100.5081971226632
30
0
10
53.375817831254409
20
100.6875088423561
30
0
10
53.261053918622075
20
100.84955146996025
30
0
10
52.979999830157062
20
101.11484370281838
30
0
10
52.818238590042014
20
101.21742451940621
30
0
10
52.470476303593102
20
101.35111700291354
30
0
10
52.288791608113534
20
101.38337781077007
30
0
10
51.930212630843002
20
101.37529604973595
30
0
10
51.756738804635006
20
101.3376516311972
30
0
10
51.499410768957539
20
101.22516494117853
30
0
10
51.408504025866108
20
101.17177282303048
30
0
10
51.243698025449191
20
101.04571242930132
30
0
10
51.170021125514623
20
100.97399177794057
30
0
10
51.105863475189615
20
100.89413652481041
30
0
0
ARC
5
225
100
AcDbEntity
8
0
100
AcDbCircle
10
52
20
100
30
0
40
1.2645000000000191
100
AcDbArc
50
134.99999999999886
51
180
0
SPLINE
5
226
100
AcDbEntity
8
0
100
AcDbSpline
70
1064
71
3
72
18
73
14
74
0
42
0.000000001
43
0.0000000001
44
0.0000000001
40
0
40
0
40
0
40
0
40
0.050111023162094016
40
0.050111023162094016
40
0.1022614797023936
40
0.1022614797023936
40
0.15645047883790275
40
0.15645047883790275
40
0.21267709957745337
40
0.21267709957745337
40
0.24852047511084466
40
0.24852047511084466
40
0.28514280399515352
40
0.28514280399515352
40
0.28514280399515352
40
0.28514280399515352
10
28.735499999999995
20
40.000000000000007
30
0
10
28.717399975582826
20
39.833946806956313
30
0
10
28.732535931679276
20
39.665948034740424
30
0
10
28.827039495399738
20
39.338123887752658
30
0
10
28.908008744169656
20
39.182197686306878
30
0
10
29.128488127487081
20
38.903860543947609
30
0
10
29.267916309377853
20
38.785772988476964
30
0
10
29.589665928713636
20
38.605124509106894
30
0
10
29.770152113541094
20
38.546600272256221
30
0
10
30.075780217301578
20
38.509032590128413
30
0
10
30.196107385353535
20
38.509005892659516
30
0
10
30.436793112031118
20
38.537840222267647
30
0
10
30.556196409983091
20
38.567217743553954
30
0
10
30.670840808186846
20
38.610459928583836
30
0
0
ARC
5
227
100
AcDbEntity
8
0
100
AcDbCircle
10
30
20
40
30
0
40
1.5430000000000041
100
AcDbArc
50
-64.229724022096207
51
19.229724022096455
0
SPLINE
5
228
100
AcDbEntity
8
0
100
AcDbSpline
70
1064
71
3
72
18
73
14
74
0
42
0.000000001
43
0.0000000001
44
0.0000000001
40
0
40
0
40
0
40
0
40
0.059038687326660372
40
0.059038687326660372
40
0.11603342985476403
40
0.11603342985476403
40
0.17098340798686909
40
0.17098340798686909
40
0.22388783903960591
40
0.22388783903960591
40
0.25550516053606759
40
0.25550516053606759
40
0.2863473803322592
40
0.2863473803322592
40
0.2863473803322592
40
0.2863473803322592
10
31.456909291794389
20
40.508197122663233
30
0
10
31.375817831254402
20
40.68750884235611
30
0
10
31.261053918622068
20
40.849551469960261
30
0
10
30.979999830157055
20
41.114843702818391
30
0
10
30.818238590041997
20
41.217424519406222
30
0
10
30.470476303593038
20
41.351117002913554
30
0
10
30.288791608113495
20
41.383377810770071
30
0
10
29.930212630843059
20
41.375296049735951
30
0
10
29.756738804635003
20
41.337651631197232
30
0
10
29.499410768957386
20
41.225164941178477
30
0
10
29.408504025866016
20
41.171772823030423
30
0
10
29.243698025449106
20
41.045712429301247
30
0
10
29.170021125514587
20
40.973991777940512
30
0
10
29.105863475189601
20
40.894136524810385
30
0
0
ARC
5
229
100
AcDbEntity
8
0
100
AcDbCircle
10
30
20
40
30
0
40
1.2645000000000031
100
AcDbArc
50
135.00000000000045
51
180
0
SPLINE
5
230
100
AcDbEntity
8
0
100
AcDbSpline
70
1064
71
3
72
18
73
14
74
0
42
0.000000001
43
0.0000000001
44
0.0000000001
40
0
40
0
40
0
40
0
40
0.050111023162091956
40
0.050111023162091956
40
0.10226147970239302
40
0.10226147970239302
40
0.15645047883790114
40
0.15645047883790114
40
0.21267709957745065
40
0.21267709957745065
40
0.24852047511084352
40
0.24852047511084352
40
0.28514280399515496
40
0.28514280399515496
40
0.28514280399515496
40
0.28514280399515496
10
18.735500000000002
20
20.000000000000004
30
0
10
18.717399975582833
20
19.833946806956313
30
0
10
18.732535931679287
20
19.665948034740438
30
0
10
18.827039495399738
20
19.33812388775268
30
0
10
18.908008744169649
20
19.182197686306903
30
0
10
19.128488127487067
20
18.903860543947637
30
0
10
19.267916309377824
20
18.785772988476985
30
0
10
19.589665928713632
20
18.605124509106901
30
0
10
19.770152113541105
20
18.546600272256228
30
0
10
20.075780217301581
20
18.509032590128424
30
0
10
20.196107385353539
20
18.509005892659516
30
0
10
20.436793112031108
20
18.537840222267651
30
0
10
20.55619640998308
20
18.567217743553954
30
0
10
20.670840808186842
20
18.61045992858384
30
0
0
ARC
5
231
100
AcDbEntity
8
0
100
AcDbCircle
10
20
20
20
30
0
40
1.5429999999999984
100
AcDbArc
50
-64.229724022096207
51
19.229724022096086
0
SPLINE
5
232
100
AcDbEntity
8
0
100
AcDbSpline
70
1064
71
3
72
18
73
14
74
0
42
0.000000001
43
0.0000000001
44
0.0000000001
40
0
40
0
40
0
40
0
40
0.059038687326660969
40
0.059038687326660969
40
0.11603342985476695
40
0.11603342985476695
40
0.17098340798686895
40
0.17098340798686895
40
0.22388783903961318
40
0.22388783903961318
40
0.25550516053606648
40
0.25550516053606648
40
0.28634738033223867
40
0.28634738033223867
40
0.28634738033223867
40
0.28634738033223867
10
21.456909291794389
20
20.508197122663226
30
0
10
21.375817831254402
20
20.687508842356102
30
0
10
21.261053918622068
20
20.849551469960254
30
0
10
20.979999830157048
20
21.114843702818384
30
0
10
20.818238590042
20
21.217424519406212
30
0
10
20.470476303593085
20
21.351117002913536
30
0
10
20.288791608113531
20
21.383377810770074
30
0
10
19.930212630843034
20
21.375296049735958
30
0
10
19.756738804635017
20
21.337651631197222
30
0
10
19.499410768957478
20
21.225164941178505
30
0
10
19.40850402586608
20
21.171772823030462
30
0
10
19.243698025449149
20
21.045712429301279
30
0
10
19.170021125514609
20
20.97399177794053
30
0
10
19.105863475189608
20
20.894136524810385
30
0
0
ARC
5
233
100
AcDbEntity
8
0
100
AcDbCircle
10
20
20
20
30
0
40
1.2644999999999971
100
AcDbArc
50
135.00000000000037
51
180
0
SPLINE
5
234
100
AcDbEntity
8
0
100
AcDbSpline
70
1064
71
3
72
18
73
14
74
0
42
0.000000001
43
0.0000000001
44
0.0000000001
40
0
40
0
40
0
40
0
40
0.050111023162091824
40
0.050111023162091824
40
0.10226147970239352
40
0.10226147970239352
40
0.15645047883791097
40
0.15645047883791097
40
0.21267709957746786
40
0.21267709957746786
40
0.24852047511086228
40
0.24852047511086228
40
0.28514280399517983
40
0.28514280399517983
40
0.28514280399517983
40
0.28514280399517983
10
2.4755000000000011
20
100.00000000000006
30
0
10
2.4573999755828253
20
99.833946806956362
30
0
10
2.4725359316792717
20
99.665948034740495
30
0
10
2.5670394953997171
20
99.338123887752715
30
0
10
2.6480087441696361
20
99.182197686306921
30
0
10
2.8684881274870282
20
98.903860543947673
30
0
10
3.0079163093777819
20
98.785772988477021
30
0
10
3.3296659287135744
20
98.605124509106915
30
0
10
3.5101521135410345
20
98.546600272256228
30
0
10
3.8157802173015276
20
98.509032590128413
30
0
10
3.9361073853534858
20
98.50900589265953
30
0
10
4.1767931120310289
20
98.537840222267633
30
0
10
4.2961964099829943
20
98.567217743553911
30
0
10
4.4108408081868316
20
98.610459928583822
30
0
0
ARC
5
235
100
AcDbEntity
8
0
100
AcDbCircle
10
3.7400000000000007
20
100
30
0
40
1.5430000000000221
100
AcDbArc
50
-64.229724022097116
51
19.229724022096587
0
SPLINE
5
236
100
AcDbEntity
8
0
100
AcDbSpline
70
1064
71
3
72
18
73
14
74
0
42
0.000000001
43
0.0000000001
44
0.0000000001
40
0
40
0
40
0
40
0
40
0.059038687326656472
40
0.059038687326656472
40
0.11603342985475923
40
0.11603342985475923
40
0.1709834079868626
40
0.1709834079868626
40
0.22388783903962375
40
0.22388783903962375
40
0.25550516053607658
40
0.25550516053607658
40
0.28634738033222662
40
0.28634738033222662
40
0.28634738033222662
40
0.28634738033222662
10
5.1969092917943902
20
100.5081971226632
30
0
10
5.1158178312544109
20
100.68750884235607
30
0
10
5.0010539186220786
20
100.84955146996025
30
0
10
4.7199998301570503
20
101.1148437028184
30
0
10
4.5582385900420084
20
101.21742451940621
30
0
10
4.2104763035930919
20
101.35111700291354
30
0
10
4.0287916081135382
20
101.38337781077007
30
0
10
3.670212630842995
20
101.37529604973595
30
0
10
3.4967388046350085
20
101.3376516311972
30
0
10
3.2394107689575398
20
101.22516494117853
30
0
10
3.1485040258661101
20
101.17177282303048
30
0
10
2.9836980254491987
20
101.04571242930132
30
0
10
2.9100211255146231
20
100.97399177794057
30
0
10
2.8458634751896024
20
100.89413652481039
30
0
0
ARC
5
237
100
AcDbEntity
8
0
100
AcDbCircle
10
3.7400000000000007
20
100
30
0
40
1.2645000000000159
100
AcDbArc
50
134.99999999999974
51
180
0
SPLINE
5
238
100
AcDbEntity
8
0
100
AcDbSpline
70
1064
71
3
72
18
73
14
74
0
42
0.000000001
43
0.0000000001
44
0.0000000001
40
0
40
0
40
0
40
0
40
0.050111023162091713
40
0.050111023162091713
40
0.10226147970238608
40
0.10226147970238608
40
0.15645047883789834
40
0.15645047883789834
40
0.21267709957743935
40
0.21267709957743935
40
0.24852047511082601
40
0.24852047511082601
40
0.28514280399512248
40
0.28514280399512248
40
0.28514280399512248
40
0.28514280399512248
10
50.735499999999988
20
174.96470000000005
30
0
10
50.717399975582822
20
174.79864680695638
30
0
10
50.732535931679266
20
174.63064803474049
30
0
10
50.827039495399731
20
174.30282388775268
30
0
10
50.908008744169678
20
174.14689768630689
30
0
10
51.128488127487046
20
173.86856054394769
30
0
10
51.267916309377775
20
173.75047298847701
30
0
10
51.589665928713643
20
173.56982450910692
30
0
10
51.77015211354113
20
173.51130027225625
30
0
10
52.075780217301528
20
173.47373259012844
30
0
10
52.19610738535345
20
173.47370589265952
30
0
10
52.436793112031097
20
173.50254022226767
30
0
10
52.55619640998308
20
173.53191774355398
30
0
10
52.67084080818681
20
173.57515992858384
30
0
0
ARC
5
239
100
AcDbEntity
8
0
100
AcDbCircle
10
52
20
174.96470000000002
30
0
40
1.5430000000000288
100
AcDbArc
50
-64.229724022098139
51
19.229724022095311
0
SPLINE
5
240
100
AcDbEntity
8
0
100
AcDbSpline
70
1064
71
3
72
18
73
14
74
0
42
0.000000001
43
0.0000000001
44
0.0000000001
40
0
40
0
40
0
40
0
40
0.059038687326647014
40
0.059038687326647014
40
0.11603342985476336
40
0.11603342985476336
40
0.17098340798687542
40
0.17098340798687542
40
0.22388783903961057
40
0.22388783903961057
40
0.25550516053607725
40
0.25550516053607725
40
0.28634738033226692
40
0.28634738033226692
40
0.28634738033226692
40
0.28634738033226692
10
53.45690929179441
20
175.4728971226632
30
0
10
53.375817831254444
20
175.65220884235603
30
0
10
53.261053918622125
20
175.81425146996023
30
0
10
52.979999830157013
20
176.07954370281846
30
0
10
52.818238590041993
20
176.18212451940622
30
0
10
52.470476303593159
20
176.31581700291352
30
0
10
52.288791608113584
20
176.34807781077006
30
0
10
51.930212630843101
20
176.33999604973599
30
0
10
51.756738804635056
20
176.30235163119724
30
0
10
51.499410768957418
20
176.18986494117851
30
0
10
51.408504025866065
20
176.13647282303046
30
0
10
51.243698025449177
20
176.01041242930134
30
0
10
51.170021125514637
20
175.93869177794059
30
0
10
51.105863475189636
20
175.85883652481044
30
0
0
ARC
5
241
100
AcDbEntity
8
0
100
AcDbCircle
10
52
20
174.96470000000002
30
0
40
1.2644999999999813
100
AcDbArc
50
134.99999999999912
51
180
0
SPLINE
5
242
100
AcDbEntity
8
0
100
AcDbSpline
70
1064
71
3
72
18
73
14
74
0
42
0.000000001
43
0.0000000001
44
0.0000000001
40
0
40
0
40
0
40
0
40
0.050111023162094127
40
0.050111023162094127
40
0.10226147970239882
40
0.10226147970239882
40
0.15645047883788565
40
0.15645047883788565
40
0.21267709957742073
40
0.21267709957742073
40
0.24852047511082906
40
0.24852047511082906
40
0.28514280399516551
40
0.28514280399516551
40
0.28514280399516551
40
0.28514280399516551
10
28.735499999999998
20
359.99999999999994
30
0
10
28.717399975582833
20
359.83394680695625
30
0
10
28.732535931679312
20
359.66594803474038
30
0
10
28.827039495399767
20
359.33812388775266
30
0
10
28.908008744169649
20
359.18219768630695
30
0
10
29.128488127487124
20
358.90386054394759
30
0
10
29.26791630937787
20
358.78577298847694
30
0
10
29.589665928713742
20
358.60512450910682
30
0
10
29.770152113541279
20
358.54660027225623
30
0
10
30.075780217301677
20
358.50903259012847
30
0
10
30.196107385353649
20
358.50900589265956
30
0
10
30.436793112031122
20
358.53784022226768
30
0
10
30.556196409983059
20
358.5672177435539
30
0
10
30.670840808186867
20
358.61045992858385
30
0
0
ARC
5
243
100
AcDbEntity
8
0
100
AcDbCircle
10
30
20
360
30
0
40
1.5429999999999258
100
AcDbArc
50
-64.22972402209345
51
19.229724022097631
0
SPLINE
5
244
100
AcDbEntity
8
0
100
AcDbSpline
70
1064
71
3
72
18
73
14
74
0
42
0.000000001
43
0.0000000001
44
0.0000000001
40
0
40
0
40
0
40
0
40
0.059038687326693366
40
0.059038687326693366
40
0.11603342985484671
40
0.11603342985484671
40
0.17098340798695874
40
0.17098340798695874
40
0.22388783903971687
40
0.22388783903971687
40
0.25550516053619071
40
0.25550516053619071
40
0.28634738033232876
40
0.28634738033232876
40
0.28634738033232876
40
0.28634738033232876
10
31.456909291794382
20
360.50819712266326
30
0
10
31.375817831254352
20
360.68750884235618
30
0
10
31.261053918622011
20
360.84955146996032
30
0
10
30.979999830157055
20
361.11484370281835
30
0
10
30.818238590042007
20
361.21742451940622
30
0
10
30.470476303593188
20
361.3511170029135
30
0
10
30.288791608113577
20
361.38337781077007
30
0
10
29.930212630842952
20
361.37529604973594
30
0
10
29.756738804634967
20
361.33765163119722
30
0
10
29.499410768957436
20
361.22516494117849
30
0
10
29.408504025866051
20
361.17177282303038
30
0
10
29.243698025449284
20
361.04571242930137
30
0
10
29.170021125514666
20
360.97399177794057
30
0
10
29.105863475189622
20
360.89413652481039
30
0
0
ARC
5
245
100
AcDbEntity
8
0
100
AcDbCircle
10
30
20
360
30
0
40
1.2645000000000628
100
AcDbArc
50
134.99999999999594
51
180
0
SPLINE
5
246
100
AcDbEntity
8
0
100
AcDbSpline
70
1064
71
3
72
18
73
14
74
0
42
0.000000001
43
0.0000000001
44
0.0000000001
40
0
40
0
40
0
40
0
40
0.05011102316207635
40
0.05011102316207635
40
0.1022614797023562
40
0.1022614797023562
40
0.15645047883786695
40
0.15645047883786695
40
0.21267709957738701
40
0.21267709957738701
40
0.24852047511076786
40
0.24852047511076786
40
0.28514280399507314
40
0.28514280399507314
40
0.28514280399507314
40
0.28514280399507314
10
358.7355
20
40.000000000000043
30
0
10
358.71739997558285
20
39.833946806956405
30
0
10
358.73253593167925
20
39.66594803474058
30
0
10
358.82703949539973
20
39.338123887752644
30
0
10
358.90800874416976
20
39.182197686306814
30
0
10
359.128488127487
20
38.903860543947737
30
0
10
359.26791630937765
20
38.785772988477092
30
0
10
359.58966592871366
20
38.605124509106894
30
0
10
359.77015211354114
20
38.546600272256235
30
0
10
360.07578021730154
20
38.509032590128434
30
0
10
360.19610738535346
20
38.509005892659516
30
0
10
360.43679311203107
20
38.537840222267647
30
0
10
360.5561964099831
20
38.567217743553968
30
0
10
360.67084080818682
20
38.610459928583836
30
0
0
ARC
5
247
100
AcDbEntity
8
0
100
AcDbCircle
10
360
20
40
30
0
40
1.5429999999999888
100
AcDbArc
50
-64.229724022096917
51
19.229724022096669
0
SPLINE
5
248
100
AcDbEntity
8
0
100
AcDbSpline
70
1064
71
3
72
18
73
14
74
0
42
0.000000001
43
0.0000000001
44
0.0000000001
40
0
40
0
40
0
40
0
40
0.059038687326614769
40
0.059038687326614769
40
0.11603342985465157
40
0.11603342985465157
40
0.17098340798670117
40
0.17098340798670117
40
0.2238878390394021
40
0.2238878390394021
40
0.25550516053584998
40
0.25550516053584998
40
0.28634738033203616
40
0.28634738033203616
40
0.28634738033203616
40
0.28634738033203616
10
361.45690929179437
20
40.508197122663184
30
0
10
361.37581783125449
20
40.687508842355918
30
0
10
361.26105391862217
20
40.849551469960169
30
0
10
360.97999983015711
20
41.114843702818334
30
0
10
360.81823859004209
20
41.21742451940618
30
0
10
360.4704763035931
20
41.351117002913526
30
0
10
360.28879160811351
20
41.383377810770057
30
0
10
359.93021263084302
20
41.375296049735944
30
0
10
359.75673880463501
20
41.337651631197204
30
0
10
359.49941076895749
20
41.225164941178477
30
0
10
359.40850402586614
20
41.171772823030437
30
0
10
359.24369802544913
20
41.045712429301268
30
0
10
359.17002112551467
20
40.973991777940519
30
0
10
359.10586347518966
20
40.894136524810385
30
0
0
ARC
5
249
100
AcDbEntity
8
0
100
AcDbCircle
10
360
20
40
30
0
40
1.2644999999999686
100
AcDbArc
50
134.99999999999841
51
180
0
SPLINE
5
250
100
AcDbEntity
8
0
100
AcDbSpline
70
1064
71
3
72
18
73
14
74
0
42
0.000000001
43
0.0000000001
44
0.0000000001
40
0
40
0
40
0
40
0
40
0.050111023162118774
40
0.050111023162118774
40
0.10226147970247139
40
0.10226147970247139
40
0.15645047883796892
40
0.15645047883796892
40
0.21267709957751474
40
0.21267709957751474
40
0.24852047511091374
40
0.24852047511091374
40
0.28514280399531389
40
0.28514280399531389
40
0.28514280399531389
40
0.28514280399531389
10
358.7355
20
360
30
0
10
358.71739997558285
20
359.83394680695625
30
0
10
358.73253593167937
20
359.66594803474027
30
0
10
358.82703949539973
20
359.33812388775277
30
0
10
358.90800874416948
20
359.18219768630712
30
0
10
359.12848812748706
20
358.90386054394759
30
0
10
359.26791630937794
20
358.78577298847694
30
0
10
359.58966592871354
20
358.60512450910699
30
0
10
359.77015211354092
20
358.54660027225628
30
0
10
360.07578021730171
20
358.50903259012841
30
0
10
360.19610738535368
20
358.50900589265956
30
0
10
360.43679311203107
20
358.53784022226768
30
0
10
360.5561964099831
20
358.56721774355401
30
0
10
360.67084080818682
20
358.61045992858385
30
0
0
ARC
5
251
100
AcDbEntity
8
0
100
AcDbCircle
10
360
20
360
30
0
40
1.5429999999999009
100
AcDbArc
50
-64.229724022094885
51
19.229724022094985
0
SPLINE
5
252
100
AcDbEntity
8
0
100
AcDbSpline
70
1064
71
3
72
18
73
14
74
0
42
0.000000001
43
0.0000000001
44
0.0000000001
40
0
40
0
40
0
40
0
40
0.059038687326590955
40
0.059038687326590955
40
0.11603342985459947
40
0.11603342985459947
40
0.17098340798661077
40
0.17098340798661077
40
0.22388783903931733
40
0.22388783903931733
40
0.25550516053581862
40
0.25550516053581862
40
0.28634738033194607
40
0.28634738033194607
40
0.28634738033194607
40
0.28634738033194607
10
361.45690929179437
20
360.5081971226632
30
0
10
361.37581783125449
20
360.68750884235584
30
0
10
361.26105391862217
20
360.84955146996015
30
0
10
360.97999983015711
20
361.11484370281835
30
0
10
360.81823859004203
20
361.21742451940622
30
0
10
360.47047630359316
20
361.35111700291355
30
0
10
360.28879160811357
20
361.38337781077007
30
0
10
359.9302126308429
20
361.37529604973594
30
0
10
359.75673880463495
20
361.33765163119722
30
0
10
359.49941076895732
20
361.22516494117838
30
0
10
359.40850402586602
20
361.17177282303038
30
0
10
359.24369802544953
20
361.04571242930149
30
0
10
359.17002112551478
20
360.97399177794068
30
0
10
359.10586347518966
20
360.89413652481039
30
0
0
ARC
5
253
100
AcDbEntity
8
0
100
AcDbCircle
10
360
20
360
30
0
40
1.2645000000000441
100
AcDbArc
50
134.99999999999454
51
180
0
SPLINE
5
254
100
AcDbEntity
8
0
100
AcDbSpline
70
1064
71
3
72
18
73
14
74
0
42
0.000000001
43
0.0000000001
44
0.0000000001
40
0
40
0
40
0
40
0
40
0.050111023162092073
40
0.050111023162092073
40
0.10226147970239094
40
0.10226147970239094
40
0.15645047883789728
40
0.15645047883789728
40
0.21267709957745298
40
0.21267709957745298
40
0.24852047511085593
40
0.24852047511085593
40
0.28514280399520109
40
0.28514280399520109
40
0.28514280399520109
40
0.28514280399520109
10
3.7355000000000009
20
269.50000000000011
30
0
10
3.7173999755828229
20
269.33394680695642
30
0
10
3.7325359316792683
20
269.1659480347405
30
0
10
3.8270394953997053
20
268.83812388775277
30
0
10
3.9080087441696043
20
268.68219768630701
30
0
10
4.1284881274870209
20
268.4038605439477
30
0
10
4.267916309377787
20
268.28577298847705
30
0
10
4.5896659287135702
20
268.10512450910693
30
0
10
4.7701521135410463
20
268.04660027225628
30
0
10
5.0757802173015261
20
268.00903259012847
30
0
10
5.196107385353498
20
268.00900589265956
30
0
10
5.43679311203105
20
268.03784022226768
30
0
10
5.5561964099830448
20
268.06721774355401
30
0
10
5.6708408081867994
20
268.11045992858385
30
0
0
ARC
5
255
100
AcDbEntity
8
0
100
AcDbCircle
10
5
20
269.5
30
0
40
1.5430000000000237
100
AcDbArc
50
-64.229724022097528
51
19.229724022093212
0
SPLINE
5
256
100
AcDbEntity
8
0
100
AcDbSpline
70
1064
71
3
72
18
73
14
74
0
42
0.000000001
43
0.0000000001
44
0.0000000001
40
0
40
0
40
0
40
0
40
0.059038687326682472
40
0.059038687326682472
40
0.11603342985477597
40
0.11603342985477597
40
0.17098340798684269
40
0.17098340798684269
40
0.2238878390395628
40
0.2238878390395628
40
0.25550516053599015
40
0.25550516053599015
40
0.28634738033216373
40
0.28634738033216373
40
0.28634738033216373
40
0.28634738033216373
10
6.456909291794414
20
270.00819712266315
30
0
10
6.3758178312544072
20
270.18750884235612
30
0
10
6.2610539186220793
20
270.3495514699602
30
0
10
5.9799998301572233
20
270.61484370281823
30
0
10
5.8182385900421423
20
270.71742451940617
30
0
10
5.4704763035931343
20
270.85111700291355
30
0
10
5.288791608113586
20
270.88337781077007
30
0
10
4.9302126308430676
20
270.87529604973599
30
0
10
4.7567388046350585
20
270.83765163119728
30
0
10
4.4994107689575626
20
270.72516494117855
30
0
10
4.4085040258661463
20
270.67177282303055
30
0
10
4.2436980254491248
20
270.54571242930132
30
0
10
4.17002112551463
20
270.47399177794057
30
0
10
4.1058634751896523
20
270.39413652481045
30
0
0
ARC
5
257
100
AcDbEntity
8
0
100
AcDbCircle
10
5
20
269.5
30
0
40
1.2644999999999675
100
AcDbArc
50
134.99999999999858
51
180
0
SPLINE
5
258
100
AcDbEntity
8
0
100
AcDbSpline
70
1064
71
3
72
18
73
14
74
0
42
0.000000001
43
0.0000000001
44
0.0000000001
40
0
40
0
40
0
40
0
40
0.050111023162091678
40
0.050111023162091678
40
0.10226147970238947
40
0.10226147970238947
40
0.15645047883789481
40
0.15645047883789481
40
0.21267709957745082
40
0.21267709957745082
40
0.24852047511085767
40
0.24852047511085767
40
0.28514280399521352
40
0.28514280399521352
40
0.28514280399521352
40
0.28514280399521352
10
3.7355000000000009
20
162.00000000000011
30
0
10
3.7173999755828229
20
161.83394680695642
30
0
10
3.7325359316792666
20
161.66594803474052
30
0
10
3.8270394953997044
20
161.33812388775277
30
0
10
3.908008744169603
20
161.18219768630698
30
0
10
4.1284881274870182
20
160.9038605439477
30
0
10
4.2679163093777825
20
160.78577298847705
30
0
10
4.5896659287135684
20
160.60512450910693
30
0
10
4.770152113541049
20
160.54660027225626
30
0
10
5.0757802173015261
20
160.50903259012844
30
0
10
5.1961073853535042
20
160.50900589265953
30
0
10
5.43679311203105
20
160.53784022226768
30
0
10
5.5561964099830519
20
160.56721774355398
30
0
10
5.6708408081867914
20
160.61045992858385
30
0
0
ARC
5
259
100
AcDbEntity
8
0
100
AcDbCircle
10
5
20
162.00000000000003
30
0
40
1.5430000000000206
100
AcDbArc
50
-64.22972402209875
51
19.229724022093187
0
SPLINE
5
260
100
AcDbEntity
8
0
100
AcDbSpline
70
1064
71
3
72
18
73
14
74
0
42
0.000000001
43
0.0000000001
44
0.0000000001
40
0
40
0
40
0
40
0
40
0.059038687326682771
40
0.059038687326682771
40
0.11603342985481399
40
0.11603342985481399
40
0.17098340798690165
40
0.17098340798690165
40
0.22388783903964515
40
0.22388783903964515
40
0.25550516053608818
40
0.25550516053608818
40
0.2863473803322501
40
0.2863473803322501
40
0.2863473803322501
40
0.2863473803322501
10
6.4569092917944158
20
162.50819712266318
30
0
10
6.3758178312544089
20
162.68750884235612
30
0
10
6.2610539186220828
20
162.84955146996023
30
0
10
5.9799998301571389
20
163.11484370281832
30
0
10
5.8182385900420925
20
163.21742451940617
30
0
10
5.4704763035932755
20
163.35111700291347
30
0
10
5.2887916081136721
20
163.38337781077007
30
0
10
4.9302126308430179
20
163.37529604973599
30
0
10
4.7567388046350594
20
163.33765163119722
30
0
10
4.4994107689576177
20
163.2251649411786
30
0
10
4.4085040258661792
20
163.17177282303052
30
0
10
4.2436980254491976
20
163.04571242930135
30
0
10
4.1700211255146566
20
162.9739917779406
30
0
10
4.1058634751896523
20
162.89413652481045
30
0
0
ARC
5
261
100
AcDbEntity
8
0
100
AcDbCircle
10
5
20
162.00000000000003
30
0
40
1.2644999999999671
100
AcDbArc
50
134.99999999999858
51
180
0
SPLINE
5
262
100
AcDbEntity
8
0
100
AcDbSpline
70
1064
71
3
72
18
73
14
74
0
42
0.000000001
43
0.0000000001
44
0.0000000001
40
0
40
0
40
0
40
0
40
0.050111023162091456
40
0.050111023162091456
40
0.10226147970238966
40
0.10226147970238966
40
0.15645047883789054
40
0.15645047883789054
40
0.21267709957743752
40
0.21267709957743752
40
0.24852047511082495
40
0.24852047511082495
40
0.28514280399512687
40
0.28514280399512687
40
0.28514280399512687
40
0.28514280399512687
10
3.7354999999999987
20
68.000000000000057
30
0
10
3.7173999755828229
20
67.833946806956376
30
0
10
3.7325359316792701
20
67.665948034740495
30
0
10
3.8270394953997098
20
67.338123887752744
30
0
10
3.908008744169607
20
67.182197686306949
30
0
10
4.1284881274870253
20
66.903860543947673
30
0
10
4.2679163093777808
20
66.785772988477021
30
0
10
4.5896659287135897
20
66.605124509106915
30
0
10
4.7701521135410783
20
66.546600272256242
30
0
10
5.0757802173014905
20
66.509032590128442
30
0
10
5.1961073853534154
20
66.509005892659502
30
0
10
5.4367931120310633
20
66.537840222267633
30
0
10
5.5561964099830616
20
66.567217743553954
30
0
10
5.6708408081868278
20
66.610459928583836
30
0
0
ARC
5
263
100
AcDbEntity
8
0
100
AcDbCircle
10
5
20
68
30
0
40
1.5430000000000046
100
AcDbArc
50
-64.229724022096818
51
19.229724022094889
0
SPLINE
5
264
100
AcDbEntity
8
0
100
AcDbSpline
70
1064
71
3
72
18
73
14
74
0
42
0.000000001
43
0.0000000001
44
0.0000000001
40
0
40
0
40
0
40
0
40
0.059038687326667012
40
0.059038687326667012
40
0.11603342985477463
40
0.11603342985477463
40
0.17098340798687484
40
0.17098340798687484
40
0.22388783903961659
40
0.22388783903961659
40
0.25550516053608119
40
0.25550516053608119
40
0.28634738033225982
40
0.28634738033225982
40
0.28634738033225982
40
0.28634738033225982
10
6.4569092917943998
20
68.508197122663205
30
0
10
6.375817831254408
20
68.687508842356095
30
0
10
6.2610539186220766
20
68.849551469960232
30
0
10
5.9799998301570954
20
69.114843702818348
30
0
10
5.8182385900420464
20
69.217424519406194
30
0
10
5.4704763035931157
20
69.351117002913526
30
0
10
5.2887916081135602
20
69.383377810770085
30
0
10
4.9302126308430649
20
69.375296049735965
30
0
10
4.7567388046350487
20
69.337651631197232
30
0
10
4.4994107689574712
20
69.225164941178519
30
0
10
4.4085040258660912
20
69.171772823030466
30
0
10
4.2436980254492003
20
69.045712429301332
30
0
10
4.1700211255146309
20
68.973991777940569
30
0
10
4.1058634751896133
20
68.894136524810406
30
0
0
ARC
5
265
100
AcDbEntity
8
0
100
AcDbCircle
10
5
20
68
30
0
40
1.2645000000000015
100
AcDbArc
50
134.9999999999994
51
180
0
SPLINE
5
266
100
AcDbEntity
8
0
100
AcDbSpline
70
1064
71
3
72
18
73
14
74
0
42
0.000000001
43
0.0000000001
44
0.0000000001
40
0
40
0
40
0
40
0
40
0.050111023162091414
40
0.050111023162091414
40
0.10226147970239151
40
0.10226147970239151
40
0.15645047883789975
40
0.15645047883789975
40
0.21267709957744807
40
0.21267709957744807
40
0.24852047511083547
40
0.24852047511083547
40
0.28514280399515063
40
0.28514280399515063
40
0.28514280399515063
40
0.28514280399515063
10
8.7355000000000036
20
40.000000000000043
30
0
10
8.7173999755828291
20
39.833946806956355
30
0
10
8.7325359316792763
20
39.665948034740481
30
0
10
8.8270394953997204
20
39.338123887752715
30
0
10
8.9080087441696296
20
39.182197686306935
30
0
10
9.1284881274870386
20
38.903860543947665
30
0
10
9.2679163093777923
20
38.785772988477014
30
0
10
9.5896659287135861
20
38.605124509106922
30
0
10
9.7701521135410481
20
38.546600272256242
30
0
10
10.075780217301528
20
38.509032590128427
30
0
10
10.196107385353477
20
38.509005892659516
30
0
10
10.436793112031067
20
38.537840222267633
30
0
10
10.556196409983061
20
38.567217743553954
30
0
10
10.670840808186819
20
38.610459928583836
30
0
0
ARC
5
267
100
AcDbEntity
8
0
100
AcDbCircle
10
10
20
40
30
0
40
1.5429999999999966
100
AcDbArc
50
-64.229724022097116
51
19.229724022094675
0
SPLINE
5
268
100
AcDbEntity
8
0
100
AcDbSpline
70
1064
71
3
72
18
73
14
74
0
42
0.000000001
43
0.0000000001
44
0.0000000001
40
0
40
0
40
0
40
0
40
0.059038687326667394
40
0.059038687326667394
40
0.11603342985477759
40
0.11603342985477759
40
0.17098340798688499
40
0.17098340798688499
40
0.22388783903963677
40
0.22388783903963677
40
0.25550516053610273
40
0.25550516053610273
40
0.28634738033227347
40
0.28634738033227347
40
0.28634738033227347
40
0.28634738033227347
10
11.4569092917944
20
40.508197122663184
30
0
10
11.375817831254409
20
40.687508842356081
30
0
10
11.261053918622077
20
40.849551469960218
30
0
10
10.979999830157094
20
41.114843702818334
30
0
10
10.818238590042048
20
41.21742451940618
30
0
10
10.470476303593113
20
41.351117002913526
30
0
10
10.288791608113563
20
41.383377810770064
30
0
10
9.9302126308430712
20
41.375296049735951
30
0
10
9.7567388046350683
20
41.337651631197218
30
0
10
9.4994107689575191
20
41.225164941178519
30
0
10
9.4085040258661259
20
41.171772823030473
30
0
10
9.2436980254492411
20
41.045712429301339
30
0
10
9.1700211255146602
20
40.973991777940583
30
0
10
9.1058634751896346
20
40.894136524810413
30
0
0
ARC
5
269
100
AcDbEntity
8
0
100
AcDbCircle
10
10
20
40
30
0
40
1.2644999999999986
100
AcDbArc
50
134.99999999999847
51
180
0
SPLINE
5
270
100
AcDbEntity
8
0
100
AcDbSpline
70
1064
71
3
72
18
73
14
74
0
42
0.000000001
43
0.0000000001
44
0.0000000001
40
0
40
0
40
0
40
0
40
0.050111023162099026
40
0.050111023162099026
40
0.10226147970240934
40
0.10226147970240934
40
0.15645047883792246
40
0.15645047883792246
40
0.21267709957748013
40
0.21267709957748013
40
0.24852047511087377
40
0.24852047511087377
40
0.28514280399519409
40
0.28514280399519409
40
0.28514280399519409
40
0.28514280399519409
10
46.735499999999988
20
68
30
0
10
46.717399975582822
20
67.833946806956291
30
0
10
46.732535931679287
20
67.665948034740396
30
0
10
46.827039495399738
20
67.338123887752673
30
0
10
46.908008744169635
20
67.182197686306907
30
0
10
47.128488127487088
20
66.903860543947602
30
0
10
47.267916309377867
20
66.785772988476964
30
0
10
47.589665928713636
20
66.605124509106901
30
0
10
47.77015211354108
20
66.546600272256228
30
0
10
48.075780217301599
20
66.509032590128413
30
0
10
48.196107385353564
20
66.509005892659516
30
0
10
48.43679311203114
20
66.537840222267647
30
0
10
48.556196409983116
20
66.567217743553968
30
0
10
48.670840808186853
20
66.61045992858385
30
0
0
ARC
5
271
100
AcDbEntity
8
0
100
AcDbCircle
10
48
20
68
30
0
40
1.5430000000000079
100
AcDbArc
50
-64.229724022095752
51
19.229724022096995
0
SPLINE
5
272
100
AcDbEntity
8
0
100
AcDbSpline
70
1064
71
3
72
18
73
14
74
0
42
0.000000001
43
0.0000000001
44
0.0000000001
40
0
40
0
40
0
40
0
40
0.05903868732666713
40
0.05903868732666713
40
0.11603342985477669
40
0.11603342985477669
40
0.17098340798688372
40
0.17098340798688372
40
0.22388783903963702
40
0.22388783903963702
40
0.25550516053609046
40
0.25550516053609046
40
0.28634738033225937
40
0.28634738033225937
40
0.28634738033225937
40
0.28634738033225937
10
49.456909291794389
20
68.508197122663248
30
0
10
49.375817831254388
20
68.687508842356138
30
0
10
49.261053918622054
20
68.849551469960289
30
0
10
48.979999830157055
20
69.114843702818391
30
0
10
48.818238590042007
20
69.217424519406222
30
0
10
48.470476303593067
20
69.351117002913554
30
0
10
48.288791608113513
20
69.383377810770085
30
0
10
47.930212630843016
20
69.375296049735965
30
0
10
47.756738804635006
20
69.337651631197232
30
0
10
47.499410768957489
20
69.225164941178534
30
0
10
47.40850402586608
20
69.17177282303048
30
0
10
47.243698025449135
20
69.04571242930129
30
0
10
47.170021125514609
20
68.973991777940554
30
0
10
47.105863475189615
20
68.89413652481042
30
0
0
ARC
5
273
100
AcDbEntity
8
0
100
AcDbCircle
10
48
20
68
30
0
40
1.2645000000000126
100
AcDbArc
50
134.99999999999886
51
180
0
SPLINE
5
274
100
AcDbEntity
8
0
100
AcDbSpline
70
1064
71
3
72
18
73
14
74
0
42
0.000000001
43
0.0000000001
44
0.0000000001
40
0
40
0
40
0
40
0
40
0.050111023162094641
40
0.050111023162094641
40
0.10226147970239349
40
0.10226147970239349
40
0.15645047883788252
40
0.15645047883788252
40
0.21267709957741848
40
0.21267709957741848
40
0.24852047511077505
40
0.24852047511077505
40
0.28514280399500014
40
0.28514280399500014
40
0.28514280399500014
40
0.28514280399500014
10
46.735499999999995
20
162.00000000000003
30
0
10
46.717399975582829
20
161.83394680695631
30
0
10
46.732535931679294
20
161.66594803474044
30
0
10
46.827039495399745
20
161.33812388775272
30
0
10
46.908008744169635
20
161.18219768630695
30
0
10
47.128488127487103
20
160.90386054394764
30
0
10
47.267916309377867
20
160.78577298847699
30
0
10
47.589665928713664
20
160.60512450910693
30
0
10
47.770152113541144
20
160.54660027225626
30
0
10
48.075780217301528
20
160.50903259012847
30
0
10
48.196107385353393
20
160.5090058926595
30
0
10
48.436793112031118
20
160.53784022226768
30
0
10
48.556196409983087
20
160.56721774355398
30
0
10
48.670840808186838
20
160.61045992858385
30
0
0
ARC
5
275
100
AcDbEntity
8
0
100
AcDbCircle
10
48
20
162.00000000000003
30
0
40
1.5430000000000401
100
AcDbArc
50
-64.229724022097173
51
19.229724022096669
0
SPLINE
5
276
100
AcDbEntity
8
0
100
AcDbSpline
70
1064
71
3
72
18
73
14
74
0
42
0.000000001
43
0.0000000001
44
0.0000000001
40
0
40
0
40
0
40
0
40
0.059038687326677233
40
0.059038687326677233
40
0.11603342985480841
40
0.11603342985480841
40
0.17098340798691336
40
0.17098340798691336
40
0.22388783903963705
40
0.22388783903963705
40
0.25550516053609917
40
0.25550516053609917
40
0.28634738033231022
40
0.28634738033231022
40
0.28634738033231022
40
0.28634738033231022
10
49.456909291794389
20
162.50819712266323
30
0
10
49.375817831254381
20
162.68750884235615
30
0
10
49.261053918622046
20
162.84955146996026
30
0
10
48.979999830157048
20
163.1148437028184
30
0
10
48.818238590042007
20
163.21742451940622
30
0
10
48.470476303593166
20
163.35111700291353
30
0
10
48.288791608113577
20
163.38337781077013
30
0
10
47.930212630843073
20
163.37529604973599
30
0
10
47.756738804635042
20
163.33765163119725
30
0
10
47.499410768957411
20
163.22516494117852
30
0
10
47.408504025866058
20
163.17177282303047
30
0
10
47.243698025449099
20
163.04571242930126
30
0
10
47.170021125514594
20
162.97399177794051
30
0
10
47.105863475189615
20
162.89413652481042
30
0
0
ARC
5
277
100
AcDbEntity
8
0
100
AcDbCircle
10
48
20
162.00000000000003
30
0
40
1.2644999999999686
100
AcDbArc
50
135.00000000000068
51
180
0
SPLINE
5
278
100
AcDbEntity
8
0
100
AcDbSpline
70
1064
71
3
72
18
73
14
74
0
42
0.000000001
43
0.0000000001
44
0.0000000001
40
0
40
0
40
0
40
0
40
0.050111023162091886
40
0.050111023162091886
40
0.10226147970238722
40
0.10226147970238722
40
0.15645047883790122
40
0.15645047883790122
40
0.21267709957744213
40
0.21267709957744213
40
0.24852047511082703
40
0.24852047511082703
40
0.28514280399512437
40
0.28514280399512437
40
0.28514280399512437
40
0.28514280399512437
10
46.735499999999995
20
269.52620000000007
30
0
10
46.717399975582829
20
269.36014680695638
30
0
10
46.732535931679273
20
269.19214803474051
30
0
10
46.827039495399738
20
268.86432388775268
30
0
10
46.908008744169685
20
268.70839768630685
30
0
10
47.128488127487046
20
268.43006054394772
30
0
10
47.267916309377782
20
268.31197298847701
30
0
10
47.589665928713636
20
268.13132450910695
30
0
10
47.770152113541116
20
268.07280027225625
30
0
10
48.075780217301521
20
268.03523259012843
30
0
10
48.19610738535345
20
268.03520589265952
30
0
10
48.436793112031097
20
268.06404022226769
30
0
10
48.556196409983094
20
268.09341774355397
30
0
10
48.670840808186796
20
268.13665992858387
30
0
0
ARC
5
279
100
AcDbEntity
8
0
100
AcDbCircle
10
48
20
269.52620000000002
30
0
40
1.543000000000025
100
AcDbArc
50
-64.229724022098594
51
19.229724022095311
0
SPLINE
5
280
100
AcDbEntity
8
0
100
AcDbSpline
70
1064
71
3
72
18
73
14
74
0
42
0.000000001
43
0.0000000001
44
0.0000000001
40
0
40
0
40
0
40
0
40
0.059038687326675068
40
0.059038687326675068
40
0.11603342985478346
40
0.11603342985478346
40
0.17098340798686165
40
0.17098340798686165
40
0.22388783903956339
40
0.22388783903956339
40
0.25550516053600941
40
0.25550516053600941
40
0.28634738033219298
40
0.28634738033219298
40
0.28634738033219298
40
0.28634738033219298
10
49.456909291794403
20
270.03439712266322
30
0
10
49.375817831254395
20
270.21370884235614
30
0
10
49.261053918622068
20
270.37575146996022
30
0
10
48.979999830157126
20
270.64104370281831
30
0
10
48.818238590042071
20
270.74362451940618
30
0
10
48.470476303593159
20
270.87731700291351
30
0
10
48.288791608113577
20
270.90957781077009
30
0
10
47.930212630843094
20
270.90149604973601
30
0
10
47.756738804635049
20
270.86385163119724
30
0
10
47.499410768957418
20
270.75136494117851
30
0
10
47.408504025866058
20
270.69797282303045
30
0
10
47.243698025449135
20
270.57191242930128
30
0
10
47.170021125514623
20
270.50019177794059
30
0
10
47.105863475189636
20
270.42033652481047
30
0
0
ARC
5
281
100
AcDbEntity
8
0
100
AcDbCircle
10
48
20
269.52620000000002
30
0
40
1.2644999999999751
100
AcDbArc
50
134.99999999999912
51
180
0
SPLINE
5
282
100
AcDbEntity
8
0
100
AcDbSpline
70
1064
71
3
72
18
73
14
74
0
42
0.000000001
43
0.0000000001
44
0.0000000001
40
0
40
0
40
0
40
0
40
0.050111023162096847
40
0.050111023162096847
40
0.1022614797024021
40
0.1022614797024021
40
0.15645047883786459
40
0.15645047883786459
40
0.21267709957734893
40
0.21267709957734893
40
0.24852047511071024
40
0.24852047511071024
40
0.28514280399498587
40
0.28514280399498587
40
0.28514280399498587
40
0.28514280399498587
10
338.7355
20
359.99999999999994
30
0
10
338.71739997558285
20
359.83394680695625
30
0
10
338.73253593167931
20
359.66594803474032
30
0
10
338.82703949539979
20
359.33812388775266
30
0
10
338.90800874416959
20
359.18219768630695
30
0
10
339.12848812748712
20
358.90386054394759
30
0
10
339.26791630937777
20
358.78577298847694
30
0
10
339.58966592871377
20
358.60512450910682
30
0
10
339.77015211354126
20
358.54660027225623
30
0
10
340.07578021730171
20
358.50903259012847
30
0
10
340.19610738535363
20
358.50900589265956
30
0
10
340.43679311203113
20
358.53784022226768
30
0
10
340.5561964099831
20
358.56721774355401
30
0
10
340.67084080818688
20
358.61045992858385
30
0
0
ARC
5
283
100
AcDbEntity
8
0
100
AcDbCircle
10
340
20
360
30
0
40
1.5429999999999318
100
AcDbArc
50
-64.229724022092952
51
19.229724022095681
0
SPLINE
5
284
100
AcDbEntity
8
0
100
AcDbSpline
70
1064
71
3
72
18
73
14
74
0
42
0.000000001
43
0.0000000001
44
0.0000000001
40
0
40
0
40
0
40
0
40
0.059038687326590955
40
0.059038687326590955
40
0.11603342985459947
40
0.11603342985459947
40
0.17098340798661077
40
0.17098340798661077
40
0.22388783903931733
40
0.22388783903931733
40
0.25550516053581862
40
0.25550516053581862
40
0.28634738033194607
40
0.28634738033194607
40
0.28634738033194607
40
0.28634738033194607
10
341.45690929179437
20
360.5081971226632
30
0
10
341.37581783125449
20
360.68750884235584
30
0
10
341.26105391862217
20
360.84955146996015
30
0
10
340.97999983015711
20
361.11484370281835
30
0
10
340.81823859004203
20
361.21742451940622
30
0
10
340.47047630359316
20
361.35111700291355
30
0
10
340.28879160811357
20
361.38337781077007
30
0
10
339.9302126308429
20
361.37529604973594
30
0
10
339.75673880463495
20
361.33765163119722
30
0
10
339.49941076895732
20
361.22516494117838
30
0
10
339.40850402586602
20
361.17177282303038
30
0
10
339.24369802544953
20
361.04571242930149
30
0
10
339.17002112551478
20
360.97399177794068
30
0
10
339.10586347518966
20
360.89413652481039
30
0
0
ARC
5
285
100
AcDbEntity
8
0
100
AcDbCircle
10
340
20
360
30
0
40
1.2645000000000441
100
AcDbArc
50
134.99999999999454
51
180
0
SPLINE
5
286
100
AcDbEntity
8
0
100
AcDbSpline
70
1064
71
3
72
18
73
14
74
0
42
0.000000001
43
0.0000000001
44
0.0000000001
40
0
40
0
40
0
40
0
40
0.05011102316207517
40
0.05011102316207517
40
0.10226147970235011
40
0.10226147970235011
40
0.15645047883785532
40
0.15645047883785532
40
0.21267709957736575
40
0.21267709957736575
40
0.24852047511073755
40
0.24852047511073755
40
0.28514280399502967
40
0.28514280399502967
40
0.28514280399502967
40
0.28514280399502967
10
338.7355
20
40.000000000000043
30
0
10
338.71739997558285
20
39.833946806956405
30
0
10
338.73253593167925
20
39.665948034740588
30
0
10
338.82703949539973
20
39.338123887752637
30
0
10
338.90800874416976
20
39.182197686306807
30
0
10
339.128488127487
20
38.903860543947744
30
0
10
339.26791630937765
20
38.785772988477099
30
0
10
339.58966592871366
20
38.605124509106901
30
0
10
339.77015211354114
20
38.546600272256242
30
0
10
340.07578021730154
20
38.509032590128434
30
0
10
340.19610738535346
20
38.509005892659516
30
0
10
340.43679311203107
20
38.537840222267647
30
0
10
340.5561964099831
20
38.567217743553968
30
0
10
340.67084080818682
20
38.610459928583836
30
0
0
ARC
5
287
100
AcDbEntity
8
0
100
AcDbCircle
10
340
20
40
30
0
40
1.5429999999999888
100
AcDbArc
50
-64.229724022096917
51
19.229724022096669
0
SPLINE
5
288
100
AcDbEntity
8
0
100
AcDbSpline
70
1064
71
3
72
18
73
14
74
0
42
0.000000001
43
0.0000000001
44
0.0000000001
40
0
40
0
40
0
40
0
40
0.059038687326614769
40
0.059038687326614769
40
0.11603342985465157
40
0.11603342985465157
40
0.17098340798670117
40
0.17098340798670117
40
0.2238878390394021
40
0.2238878390394021
40
0.25550516053584998
40
0.25550516053584998
40
0.28634738033203616
40
0.28634738033203616
40
0.28634738033203616
40
0.28634738033203616
10
341.45690929179437
20
40.508197122663184
30
0
10
341.37581783125449
20
40.687508842355918
30
0
10
341.26105391862217
20
40.849551469960169
30
0
10
340.97999983015711
20
41.114843702818334
30
0
10
340.81823859004209
20
41.21742451940618
30
0
10
340.4704763035931
20
41.351117002913526
30
0
10
340.28879160811351
20
41.383377810770057
30
0
10
339.93021263084302
20
41.375296049735944
30
0
10
339.75673880463501
20
41.337651631197204
30
0
10
339.49941076895749
20
41.225164941178477
30
0
10
339.40850402586614
20
41.171772823030437
30
0
10
339.24369802544913
20
41.045712429301268
30
0
10
339.17002112551467
20
40.973991777940519
30
0
10
339.10586347518966
20
40.894136524810385
30
0
0
ARC
5
289
100
AcDbEntity
8
0
100
AcDbCircle
10
340
20
40
30
0
40
1.2644999999999686
100
AcDbArc
50
134.99999999999841
51
180
0
LWPOLYLINE
5
290
100
AcDbEntity
8
0
100
AcDbPolyline
90
24
70
1
43
0.0
10
315
20
55
10
310
20
50
10
290
20
50
10
275
20
35.000000000000284
10
275
20
20.000000000000284
42
-0.99999999999999989
10
265
20
20.000000000000284
10
264.99999999999955
20
35.000000000000071
10
259.99999999999955
20
40
10
215
20
40
10
190
20
14.999999999999858
10
180
20
14.999999999999867
10
155
20
40
10
110.00000000000043
20
40
10
105.00000000000043
20
35.000000000000064
10
105
20
20.00000000000032
42
-0.99999999999999989
10
95
20
20.00000000000032
10
95
20
35.00000000000032
10
80
20
50.000000000000007
10
60
20
50
10
55
20
55
10
55
20
325
10
60
20
330
10
310
20
330
10
315
20
325
0
LWPOLYLINE
5
291
100
AcDbEntity
8
0
100
AcDbPolyline
90
16
70
1
43
0.0
10
365.00000000000011
20
370
10
4.9999999999998224
20
370
10
0
20
365
10
0
20
5
10
5
20
0
10
25
20
0
10
30.999999999999943
20
5.9999999999999609
10
37.000000000000028
20
6.0000000000000675
10
41.000000000000014
20
2.0000000000000018
10
329
20
2.0000000000000284
10
333
20
6.0000000000000853
10
339.00000000000006
20
5.9999999999999432
10
345
20
0
10
365
20
0
10
370
20
5
10
370
20
365
0
ENDSEC
0
SECTION
2
OBJECTS
0
DICTIONARY
5
C
100
AcDbDictionary
3
ACAD_GROUP
350
D
3
ACAD_MLINESTYLE
350
17
0
DICTIONARY
5
D
100
AcDbDictionary
0
DICTIONARY
5
1A
330
C
100
AcDbDictionary
0
DICTIONARY
5
17
100
AcDbDictionary
0
ENDSEC
0
EOF
